0
SECTION
2
HEADER
9
$ACADVER
1
AC1009
0
ENDSEC
0
SECTION
2
TABLES
0
TABLE
2
VPORT
70
1
0
VPORT
2
ACTIVE
70
0
10
0.0
20
0.0
11
0.0
21
0.0
12
0.0
22
0.0
13
0.0
23
0.0
14
0.0
24
0.0
15
0.0
25
0.0
16
0.0
26
0.0
36
0.0
17
0.0
27
0.0
37
0.0
40
0.0
41
0.0
42
0.0
43
0.0
44
0.0
50
0.0
51
0.0
71
0
72
1000
73
1
74
3
75
0
76
0
77
0
78
0
0
ENDTAB
0
ENDSEC
0
SECTION
2
ENTITIES
0
LINE
8
hole
62
5
39
2
10
2.754565
20
2.960212
11
2.777065
21
2.960212
0
LINE
8
hole
62
5
39
2
10
2.777065
20
2.960212
11
2.777065
21
2.982712
0
LINE
8
hole
62
5
39
2
10
2.777065
20
2.982712
11
2.754565
21
2.982712
0
LINE
8
hole
62
5
39
2
10
2.754565
20
2.982712
11
2.754565
21
2.960212
0
LINE
8
hole
62
5
39
2
10
2.299075
20
0.605329
11
2.321575
21
0.605329
0
LINE
8
hole
62
5
39
2
10
2.321575
20
0.605329
11
2.321575
21
0.627829
0
LINE
8
hole
62
5
39
2
10
2.321575
20
0.627829
11
2.299075
21
0.627829
0
LINE
8
hole
62
5
39
2
10
2.299075
20
0.627829
11
2.299075
21
0.605329
0
LINE
8
hole
62
5
39
2
10
1.156161
20
1.349804
11
1.178661
21
1.349804
0
LINE
8
hole
62
5
39
2
10
1.178661
20
1.349804
11
1.178661
21
1.372304
0
LINE
8
hole
62
5
39
2
10
1.178661
20
1.372304
11
1.156161
21
1.372304
0
LINE
8
hole
62
5
39
2
10
1.156161
20
1.372304
11
1.156161
21
1.349804
0
LINE
8
hole
62
5
39
2
10
3.889929
20
1.912641
11
3.912429
21
1.912641
0
LINE
8
hole
62
5
39
2
10
3.912429
20
1.912641
11
3.912429
21
1.935141
0
LINE
8
hole
62
5
39
2
10
3.912429
20
1.935141
11
3.889929
21
1.935141
0
LINE
8
hole
62
5
39
2
10
3.889929
20
1.935141
11
3.889929
21
1.912641
0
LINE
8
boundary
62
5
39
2
10
0.262500
20
0.767568
11
4.358149
21
0.262500
0
LINE
8
boundary
62
5
39
2
10
4.358149
20
0.262500
11
3.558844
21
3.803293
0
LINE
8
boundary
62
5
39
2
10
3.558844
20
3.803293
11
0.490574
21
1.179941
0
LINE
8
boundary
62
5
39
2
10
0.490574
20
1.179941
11
0.262500
21
0.767568
0
LINE
8
annotation
62
1
39
211
10
0.997871
20
1.380539
11
0.725987
21
0.888953
0
LINE
8
annotation
62
1
39
211
10
3.901179
20
1.923891
11
3.901179
21
1.980141
0
LINE
8
annotation
62
1
39
211
10
1.167411
20
1.361054
11
1.223661
21
1.361054
0
LINE
8
annotation
62
1
39
211
10
2.765815
20
2.971462
11
2.765815
21
3.027712
0
LINE
8
annotation
62
1
39
211
10
2.765815
20
2.971462
11
2.765815
21
3.027712
0
LINE
8
annotation
62
1
39
211
10
2.765815
20
3.027712
11
2.765815
21
2.971462
0
LINE
8
annotation
62
1
39
211
10
2.765815
20
2.971462
11
2.822065
21
2.971462
0
LINE
8
annotation
62
1
39
211
10
2.310325
20
0.616579
11
2.310325
21
0.560329
0
LINE
8
annotation
62
1
39
211
10
2.706221
20
1.068787
11
2.706221
21
2.100994
0
LINE
8
annotation
62
1
39
211
10
2.706221
20
2.100994
11
2.476748
21
1.871456
0
LINE
8
annotation
62
1
39
211
10
3.437573
20
2.100994
11
3.437573
21
2.100994
0
LINE
8
annotation
62
1
39
211
10
3.437573
20
2.100994
11
3.371909
21
2.076374
0
LINE
8
annotation
62
1
39
211
10
3.371909
20
2.076374
11
3.311653
21
2.043201
0
LINE
8
annotation
62
1
39
211
10
3.311653
20
2.043201
11
3.257425
21
2.002307
0
LINE
8
annotation
62
1
39
211
10
3.257425
20
2.002307
11
3.209843
21
1.954523
0
LINE
8
annotation
62
1
39
211
10
3.209843
20
1.954523
11
3.169525
21
1.900679
0
LINE
8
annotation
62
1
39
211
10
3.169525
20
1.900679
11
3.137090
21
1.841608
0
LINE
8
annotation
62
1
39
211
10
3.137090
20
1.841608
11
3.113156
21
1.778139
0
LINE
8
annotation
62
1
39
211
10
3.113156
20
1.778139
11
3.098342
21
1.711105
0
LINE
8
annotation
62
1
39
211
10
3.098342
20
1.711105
11
3.093266
21
1.641336
0
LINE
8
annotation
62
1
39
211
10
3.093266
20
1.641336
11
3.093266
21
1.298260
0
LINE
8
annotation
62
1
39
211
10
3.093266
20
1.298260
11
3.093266
21
1.298260
0
LINE
8
annotation
62
1
39
211
10
3.093266
20
1.298260
11
3.096967
21
1.257026
0
LINE
8
annotation
62
1
39
211
10
3.096967
20
1.257026
11
3.107634
21
1.218211
0
LINE
8
annotation
62
1
39
211
10
3.107634
20
1.218211
11
3.124613
21
1.182465
0
LINE
8
annotation
62
1
39
211
10
3.124613
20
1.182465
11
3.147252
21
1.150436
0
LINE
8
annotation
62
1
39
211
10
3.147252
20
1.150436
11
3.174898
21
1.122774
0
LINE
8
annotation
62
1
39
211
10
3.174898
20
1.122774
11
3.206896
21
1.100129
0
LINE
8
annotation
62
1
39
211
10
3.206896
20
1.100129
11
3.242595
21
1.083150
0
LINE
8
annotation
62
1
39
211
10
3.242595
20
1.083150
11
3.281341
21
1.072486
0
LINE
8
annotation
62
1
39
211
10
3.281341
20
1.072486
11
3.322480
21
1.068787
0
LINE
8
annotation
62
1
39
211
10
3.322480
20
1.068787
11
3.322480
21
1.068787
0
LINE
8
annotation
62
1
39
211
10
3.322480
20
1.068787
11
3.363705
21
1.072486
0
LINE
8
annotation
62
1
39
211
10
3.363705
20
1.072486
11
3.402496
21
1.083150
0
LINE
8
annotation
62
1
39
211
10
3.402496
20
1.083150
11
3.438208
21
1.100129
0
LINE
8
annotation
62
1
39
211
10
3.438208
20
1.100129
11
3.470196
21
1.122774
0
LINE
8
annotation
62
1
39
211
10
3.470196
20
1.122774
11
3.497815
21
1.150436
0
LINE
8
annotation
62
1
39
211
10
3.497815
20
1.150436
11
3.520419
21
1.182465
0
LINE
8
annotation
62
1
39
211
10
3.520419
20
1.182465
11
3.537364
21
1.218211
0
LINE
8
annotation
62
1
39
211
10
3.537364
20
1.218211
11
3.548004
21
1.257026
0
LINE
8
annotation
62
1
39
211
10
3.548004
20
1.257026
11
3.551694
21
1.298260
0
LINE
8
annotation
62
1
39
211
10
3.551694
20
1.298260
11
3.551694
21
1.412446
0
LINE
8
annotation
62
1
39
211
10
3.551694
20
1.412446
11
3.551694
21
1.412446
0
LINE
8
annotation
62
1
39
211
10
3.551694
20
1.412446
11
3.548004
21
1.453659
0
LINE
8
annotation
62
1
39
211
10
3.548004
20
1.453659
11
3.537364
21
1.492421
0
LINE
8
annotation
62
1
39
211
10
3.537364
20
1.492421
11
3.520419
21
1.528090
0
LINE
8
annotation
62
1
39
211
10
3.520419
20
1.528090
11
3.497815
21
1.560027
0
LINE
8
annotation
62
1
39
211
10
3.497815
20
1.560027
11
3.470196
21
1.587592
0
LINE
8
annotation
62
1
39
211
10
3.470196
20
1.587592
11
3.438208
21
1.610145
0
LINE
8
annotation
62
1
39
211
10
3.438208
20
1.610145
11
3.402496
21
1.627047
0
LINE
8
annotation
62
1
39
211
10
3.402496
20
1.627047
11
3.363705
21
1.637657
0
LINE
8
annotation
62
1
39
211
10
3.363705
20
1.637657
11
3.322480
21
1.641336
0
LINE
8
annotation
62
1
39
211
10
3.322480
20
1.641336
11
3.093266
21
1.641336
0
LINE
8
annotation
62
1
39
211
10
3.064558
20
0.939761
11
3.580661
21
0.939761
0
LINE
8
hole
62
5
39
2
10
5.486507
20
1.184044
11
5.509007
21
1.184044
0
LINE
8
hole
62
5
39
2
10
5.509007
20
1.184044
11
5.509007
21
1.206544
0
LINE
8
hole
62
5
39
2
10
5.509007
20
1.206544
11
5.486507
21
1.206544
0
LINE
8
hole
62
5
39
2
10
5.486507
20
1.206544
11
5.486507
21
1.184044
0
LINE
8
hole
62
5
39
2
10
6.798941
20
2.549950
11
6.821441
21
2.549950
0
LINE
8
hole
62
5
39
2
10
6.821441
20
2.549950
11
6.821441
21
2.572450
0
LINE
8
hole
62
5
39
2
10
6.821441
20
2.572450
11
6.798941
21
2.572450
0
LINE
8
hole
62
5
39
2
10
6.798941
20
2.572450
11
6.798941
21
2.549950
0
LINE
8
hole
62
5
39
2
10
6.348709
20
0.559061
11
6.371209
21
0.559061
0
LINE
8
hole
62
5
39
2
10
6.371209
20
0.559061
11
6.371209
21
0.581561
0
LINE
8
hole
62
5
39
2
10
6.371209
20
0.581561
11
6.348709
21
0.581561
0
LINE
8
hole
62
5
39
2
10
6.348709
20
0.581561
11
6.348709
21
0.559061
0
LINE
8
hole
62
5
39
2
10
7.806221
20
1.718800
11
7.828721
21
1.718800
0
LINE
8
hole
62
5
39
2
10
7.828721
20
1.718800
11
7.828721
21
1.741300
0
LINE
8
hole
62
5
39
2
10
7.828721
20
1.741300
11
7.806221
21
1.741300
0
LINE
8
hole
62
5
39
2
10
7.806221
20
1.741300
11
7.806221
21
1.718800
0
LINE
8
boundary
62
5
39
2
10
8.236769
20
0.262500
11
7.541910
21
3.340612
0
LINE
8
boundary
62
5
39
2
10
7.541910
20
3.340612
11
4.483149
21
0.725389
0
LINE
8
boundary
62
5
39
2
10
4.483149
20
0.725389
11
8.236769
21
0.262500
0
LINE
8
annotation
62
1
39
211
10
7.817471
20
1.730050
11
7.817471
21
1.786300
0
LINE
8
annotation
62
1
39
211
10
7.817471
20
1.730050
11
7.817471
21
1.786300
0
LINE
8
annotation
62
1
39
211
10
7.817471
20
1.786300
11
7.817471
21
1.730050
0
LINE
8
annotation
62
1
39
211
10
7.817471
20
1.730050
11
7.873721
21
1.730050
0
LINE
8
annotation
62
1
39
211
10
5.497757
20
1.195294
11
5.497757
21
1.139044
0
LINE
8
annotation
62
1
39
211
10
6.810191
20
2.561200
11
6.810191
21
2.617450
0
LINE
8
annotation
62
1
39
211
10
6.810191
20
2.561200
11
6.810191
21
2.617450
0
LINE
8
annotation
62
1
39
211
10
6.810191
20
2.617450
11
6.810191
21
2.561200
0
LINE
8
annotation
62
1
39
211
10
6.810191
20
2.561200
11
6.810191
21
2.504950
0
LINE
8
annotation
62
1
39
211
10
6.359959
20
0.570311
11
6.416209
21
0.570311
0
LINE
8
annotation
62
1
39
211
10
6.359959
20
0.570311
11
6.416209
21
0.570311
0
LINE
8
annotation
62
1
39
211
10
6.416209
20
0.570311
11
6.359959
21
0.570311
0
LINE
8
annotation
62
1
39
211
10
6.359959
20
0.570311
11
6.359959
21
0.514061
0
LINE
8
annotation
62
1
39
211
10
6.670232
20
0.859303
11
6.670232
21
1.805310
0
LINE
8
annotation
62
1
39
211
10
6.670232
20
1.805310
11
6.459922
21
1.594941
0
LINE
8
annotation
62
1
39
211
10
7.550224
20
1.069612
11
7.024955
21
1.069612
0
LINE
8
annotation
62
1
39
211
10
7.024955
20
1.069612
11
7.234730
21
1.805310
0
LINE
8
annotation
62
1
39
211
10
7.392774
20
0.859303
11
7.392774
21
1.279447
0
LINE
8
boundary
62
5
39
2
10
4.851451
20
3.465612
11
4.783272
21
3.767634
0
LINE
8
boundary
62
5
39
2
10
4.783272
20
3.767634
11
4.483149
21
3.511030
0
LINE
8
boundary
62
5
39
2
10
4.483149
20
3.511030
11
4.851451
21
3.465612
0
LINE
8
annotation
62
1
39
211
10
4.817995
20
3.607922
11
4.816402
21
3.614980
0
LINE
8
annotation
62
1
39
211
10
4.780116
20
3.545440
11
4.727113
21
3.545440
0
LINE
8
annotation
62
1
39
211
10
4.727113
20
3.545440
11
4.776089
21
3.624285
0
LINE
8
annotation
62
1
39
211
10
4.776089
20
3.624285
11
4.776089
21
3.624285
0
LINE
8
annotation
62
1
39
211
10
4.776089
20
3.624285
11
4.776148
21
3.624358
0
LINE
8
annotation
62
1
39
211
10
4.776148
20
3.624358
11
4.776204
21
3.624431
0
LINE
8
annotation
62
1
39
211
10
4.776204
20
3.624431
11
4.776258
21
3.624505
0
LINE
8
annotation
62
1
39
211
10
4.776258
20
3.624505
11
4.776311
21
3.624581
0
LINE
8
annotation
62
1
39
211
10
4.776311
20
3.624581
11
4.776362
21
3.624660
0
LINE
8
annotation
62
1
39
211
10
4.776362
20
3.624660
11
4.776412
21
3.624742
0
LINE
8
annotation
62
1
39
211
10
4.776412
20
3.624742
11
4.776462
21
3.624827
0
LINE
8
annotation
62
1
39
211
10
4.776462
20
3.624827
11
4.776511
21
3.624917
0
LINE
8
annotation
62
1
39
211
10
4.776511
20
3.624917
11
4.776561
21
3.625011
0
LINE
8
annotation
62
1
39
211
10
4.776561
20
3.625011
11
4.776561
21
3.625011
0
LINE
8
annotation
62
1
39
211
10
4.776561
20
3.625011
11
4.778583
21
3.629353
0
LINE
8
annotation
62
1
39
211
10
4.778583
20
3.629353
11
4.779764
21
3.633854
0
LINE
8
annotation
62
1
39
211
10
4.779764
20
3.633854
11
4.780134
21
3.638412
0
LINE
8
annotation
62
1
39
211
10
4.780134
20
3.638412
11
4.779720
21
3.642925
0
LINE
8
annotation
62
1
39
211
10
4.779720
20
3.642925
11
4.778553
21
3.647292
0
LINE
8
annotation
62
1
39
211
10
4.778553
20
3.647292
11
4.776660
21
3.651411
0
LINE
8
annotation
62
1
39
211
10
4.776660
20
3.651411
11
4.774071
21
3.655181
0
LINE
8
annotation
62
1
39
211
10
4.774071
20
3.655181
11
4.770815
21
3.658499
0
LINE
8
annotation
62
1
39
211
10
4.770815
20
3.658499
11
4.766921
21
3.661264
0
LINE
8
annotation
62
1
39
211
10
4.766921
20
3.661264
11
4.766921
21
3.661264
0
LINE
8
annotation
62
1
39
211
10
4.766921
20
3.661264
11
4.762567
21
3.663258
0
LINE
8
annotation
62
1
39
211
10
4.762567
20
3.663258
11
4.758060
21
3.664421
0
LINE
8
annotation
62
1
39
211
10
4.758060
20
3.664421
11
4.753499
21
3.664780
0
LINE
8
annotation
62
1
39
211
10
4.753499
20
3.664780
11
4.748987
21
3.664361
0
LINE
8
annotation
62
1
39
211
10
4.748987
20
3.664361
11
4.744623
21
3.663190
0
LINE
8
annotation
62
1
39
211
10
4.744623
20
3.663190
11
4.740508
21
3.661294
0
LINE
8
annotation
62
1
39
211
10
4.740508
20
3.661294
11
4.736743
21
3.658698
0
LINE
8
annotation
62
1
39
211
10
4.736743
20
3.658698
11
4.733430
21
3.655429
0
LINE
8
annotation
62
1
39
211
10
4.733430
20
3.655429
11
4.730668
21
3.651513
0
LINE
8
annotation
62
1
39
211
10
4.730668
20
3.651513
11
4.727188
21
3.644837
0
LINE
8
boundary
62
5
39
2
10
5.062643
20
3.465612
11
5.046688
21
3.536293
0
LINE
8
boundary
62
5
39
2
10
5.046688
20
3.536293
11
4.976451
21
3.476241
0
LINE
8
boundary
62
5
39
2
10
4.976451
20
3.476241
11
5.062643
21
3.465612
0
LINE
8
annotation
62
1
39
211
10
5.061274
20
3.465781
11
5.045572
21
3.535339
0
LINE
8
annotation
62
1
39
211
10
5.045891
20
3.482742
11
5.045891
21
3.513775
0
LINE
8
annotation
62
1
39
211
10
5.045891
20
3.513775
11
5.038992
21
3.506874
0
LINE
8
hole
62
5
39
2
10
2.401117
20
6.660795
11
2.423617
21
6.660795
0
LINE
8
hole
62
5
39
2
10
2.423617
20
6.660795
11
2.423617
21
6.683295
0
LINE
8
hole
62
5
39
2
10
2.423617
20
6.683295
11
2.401117
21
6.683295
0
LINE
8
hole
62
5
39
2
10
2.401117
20
6.683295
11
2.401117
21
6.660795
0
LINE
8
hole
62
5
39
2
10
1.945626
20
4.305912
11
1.968126
21
4.305912
0
LINE
8
hole
62
5
39
2
10
1.968126
20
4.305912
11
1.968126
21
4.328412
0
LINE
8
hole
62
5
39
2
10
1.968126
20
4.328412
11
1.945626
21
4.328412
0
LINE
8
hole
62
5
39
2
10
1.945626
20
4.328412
11
1.945626
21
4.305912
0
LINE
8
hole
62
5
39
2
10
3.491034
20
5.801268
11
3.513534
21
5.801268
0
LINE
8
hole
62
5
39
2
10
3.513534
20
5.801268
11
3.513534
21
5.823768
0
LINE
8
hole
62
5
39
2
10
3.513534
20
5.823768
11
3.491034
21
5.823768
0
LINE
8
hole
62
5
39
2
10
3.491034
20
5.823768
11
3.491034
21
5.801268
0
LINE
8
hole
62
5
39
2
10
1.348700
20
5.432381
11
1.371200
21
5.432381
0
LINE
8
hole
62
5
39
2
10
1.371200
20
5.432381
11
1.371200
21
5.454881
0
LINE
8
hole
62
5
39
2
10
1.371200
20
5.454881
11
1.348700
21
5.454881
0
LINE
8
hole
62
5
39
2
10
1.348700
20
5.454881
11
1.348700
21
5.432381
0
LINE
8
boundary
62
5
39
2
10
0.262500
20
4.390579
11
4.011223
21
3.928293
0
LINE
8
boundary
62
5
39
2
10
4.011223
20
3.928293
11
3.159694
21
7.700428
0
LINE
8
boundary
62
5
39
2
10
3.159694
20
7.700428
11
1.136267
21
5.970410
0
LINE
8
boundary
62
5
39
2
10
1.136267
20
5.970410
11
0.262500
21
4.390579
0
LINE
8
annotation
62
1
39
211
10
1.643559
20
6.171002
11
0.725985
21
4.511965
0
LINE
8
annotation
62
1
39
211
10
2.412367
20
6.672045
11
2.412367
21
6.728295
0
LINE
8
annotation
62
1
39
211
10
2.412367
20
6.672045
11
2.412367
21
6.728295
0
LINE
8
annotation
62
1
39
211
10
2.412367
20
6.728295
11
2.412367
21
6.672045
0
LINE
8
annotation
62
1
39
211
10
2.412367
20
6.672045
11
2.468617
21
6.672045
0
LINE
8
annotation
62
1
39
211
10
1.956876
20
4.317162
11
1.956876
21
4.260912
0
LINE
8
annotation
62
1
39
211
10
3.502284
20
5.812518
11
3.502284
21
5.868768
0
LINE
8
annotation
62
1
39
211
10
3.502284
20
5.812518
11
3.502284
21
5.868768
0
LINE
8
annotation
62
1
39
211
10
3.502284
20
5.868768
11
3.502284
21
5.812518
0
LINE
8
annotation
62
1
39
211
10
3.502284
20
5.812518
11
3.502284
21
5.756268
0
LINE
8
annotation
62
1
39
211
10
1.359950
20
5.443631
11
1.416200
21
5.443631
0
LINE
8
annotation
62
1
39
211
10
1.359950
20
5.443631
11
1.416200
21
5.443631
0
LINE
8
annotation
62
1
39
211
10
1.416200
20
5.443631
11
1.359950
21
5.443631
0
LINE
8
annotation
62
1
39
211
10
1.359950
20
5.443631
11
1.359950
21
5.387381
0
LINE
8
annotation
62
1
39
211
10
2.224858
20
4.858500
11
2.224858
21
5.944984
0
LINE
8
annotation
62
1
39
211
10
2.224858
20
5.944984
11
1.983319
21
5.703376
0
LINE
8
annotation
62
1
39
211
10
2.873829
20
4.858500
11
3.115368
21
5.944984
0
LINE
8
annotation
62
1
39
211
10
3.115368
20
5.944984
11
2.632221
21
5.944984
0
LINE
8
annotation
62
1
39
211
10
3.115368
20
5.461156
11
2.873829
21
5.461156
0
LINE
8
hole
62
5
39
2
10
2.130913
20
8.119885
11
2.153413
21
8.119885
0
LINE
8
hole
62
5
39
2
10
2.153413
20
8.119885
11
2.153413
21
8.142385
0
LINE
8
hole
62
5
39
2
10
2.153413
20
8.142385
11
2.130913
21
8.142385
0
LINE
8
hole
62
5
39
2
10
2.130913
20
8.142385
11
2.130913
21
8.119885
0
LINE
8
hole
62
5
39
2
10
0.990271
20
8.712183
11
1.012771
21
8.712183
0
LINE
8
hole
62
5
39
2
10
1.012771
20
8.712183
11
1.012771
21
8.734683
0
LINE
8
hole
62
5
39
2
10
1.012771
20
8.734683
11
0.990271
21
8.734683
0
LINE
8
hole
62
5
39
2
10
0.990271
20
8.734683
11
0.990271
21
8.712183
0
LINE
8
hole
62
5
39
2
10
2.519595
20
9.792277
11
2.542095
21
9.792277
0
LINE
8
hole
62
5
39
2
10
2.542095
20
9.792277
11
2.542095
21
9.814777
0
LINE
8
hole
62
5
39
2
10
2.542095
20
9.814777
11
2.519595
21
9.814777
0
LINE
8
hole
62
5
39
2
10
2.519595
20
9.814777
11
2.519595
21
9.792277
0
LINE
8
hole
62
5
39
2
10
3.309984
20
9.246938
11
3.332484
21
9.246938
0
LINE
8
hole
62
5
39
2
10
3.332484
20
9.246938
11
3.332484
21
9.269438
0
LINE
8
hole
62
5
39
2
10
3.332484
20
9.269438
11
3.309984
21
9.269438
0
LINE
8
hole
62
5
39
2
10
3.309984
20
9.269438
11
3.309984
21
9.246938
0
LINE
8
boundary
62
5
39
2
10
3.734010
20
7.825428
11
3.091375
21
10.672199
0
LINE
8
boundary
62
5
39
2
10
3.091375
20
10.672199
11
0.262500
21
8.253528
0
LINE
8
boundary
62
5
39
2
10
0.262500
20
8.253528
11
3.734010
21
7.825428
0
LINE
8
annotation
62
1
39
211
10
2.530845
20
9.803527
11
2.530845
21
9.859777
0
LINE
8
annotation
62
1
39
211
10
2.142163
20
8.131135
11
2.198413
21
8.131135
0
LINE
8
annotation
62
1
39
211
10
3.321234
20
9.258188
11
3.321234
21
9.314438
0
LINE
8
annotation
62
1
39
211
10
3.321234
20
9.258188
11
3.321234
21
9.314438
0
LINE
8
annotation
62
1
39
211
10
3.321234
20
9.314438
11
3.321234
21
9.258188
0
LINE
8
annotation
62
1
39
211
10
3.321234
20
9.258188
11
3.377484
21
9.258188
0
LINE
8
annotation
62
1
39
211
10
1.001521
20
8.723433
11
1.001521
21
8.667183
0
LINE
8
annotation
62
1
39
211
10
2.333821
20
8.485872
11
2.333821
21
9.360780
0
LINE
8
annotation
62
1
39
211
10
2.333821
20
9.360780
11
2.139318
21
9.166222
0
LINE
8
annotation
62
1
39
211
10
2.661884
20
8.485900
11
2.856168
21
8.485900
0
LINE
8
annotation
62
1
39
211
10
2.856168
20
8.485900
11
2.856168
21
8.485900
0
LINE
8
annotation
62
1
39
211
10
2.856168
20
8.485900
11
2.891110
21
8.489034
0
LINE
8
annotation
62
1
39
211
10
2.891110
20
8.489034
11
2.923990
21
8.498068
0
LINE
8
annotation
62
1
39
211
10
2.923990
20
8.498068
11
2.954260
21
8.512447
0
LINE
8
annotation
62
1
39
211
10
2.954260
20
8.512447
11
2.981373
21
8.531617
0
LINE
8
annotation
62
1
39
211
10
2.981373
20
8.531617
11
3.004783
21
8.555022
0
LINE
8
annotation
62
1
39
211
10
3.004783
20
8.555022
11
3.023943
21
8.582108
0
LINE
8
annotation
62
1
39
211
10
3.023943
20
8.582108
11
3.038305
21
8.612321
0
LINE
8
annotation
62
1
39
211
10
3.038305
20
8.612321
11
3.047324
21
8.645106
0
LINE
8
annotation
62
1
39
211
10
3.047324
20
8.645106
11
3.050451
21
8.679909
0
LINE
8
annotation
62
1
39
211
10
3.050451
20
8.679909
11
3.050451
21
8.777188
0
LINE
8
annotation
62
1
39
211
10
3.050451
20
8.777188
11
3.050451
21
8.777188
0
LINE
8
annotation
62
1
39
211
10
3.050451
20
8.777188
11
3.047324
21
8.811977
0
LINE
8
annotation
62
1
39
211
10
3.047324
20
8.811977
11
3.038305
21
8.844755
0
LINE
8
annotation
62
1
39
211
10
3.038305
20
8.844755
11
3.023943
21
8.874965
0
LINE
8
annotation
62
1
39
211
10
3.023943
20
8.874965
11
3.004783
21
8.902054
0
LINE
8
annotation
62
1
39
211
10
3.004783
20
8.902054
11
2.981373
21
8.925463
0
LINE
8
annotation
62
1
39
211
10
2.981373
20
8.925463
11
2.954260
21
8.944638
0
LINE
8
annotation
62
1
39
211
10
2.954260
20
8.944638
11
2.923990
21
8.959023
0
LINE
8
annotation
62
1
39
211
10
2.923990
20
8.959023
11
2.891110
21
8.968062
0
LINE
8
annotation
62
1
39
211
10
2.891110
20
8.968062
11
2.856168
21
8.971198
0
LINE
8
annotation
62
1
39
211
10
2.856168
20
8.971198
11
2.758889
21
8.971198
0
LINE
8
annotation
62
1
39
211
10
2.758889
20
8.971198
11
2.856168
21
8.971198
0
LINE
8
annotation
62
1
39
211
10
2.856168
20
8.971198
11
2.856168
21
8.971198
0
LINE
8
annotation
62
1
39
211
10
2.856168
20
8.971198
11
2.891110
21
8.974335
0
LINE
8
annotation
62
1
39
211
10
2.891110
20
8.974335
11
2.923990
21
8.983379
0
LINE
8
annotation
62
1
39
211
10
2.923990
20
8.983379
11
2.954260
21
8.997778
0
LINE
8
annotation
62
1
39
211
10
2.954260
20
8.997778
11
2.981373
21
9.016981
0
LINE
8
annotation
62
1
39
211
10
2.981373
20
9.016981
11
3.004783
21
9.040436
0
LINE
8
annotation
62
1
39
211
10
3.004783
20
9.040436
11
3.023943
21
9.067593
0
LINE
8
annotation
62
1
39
211
10
3.023943
20
9.067593
11
3.038305
21
9.097899
0
LINE
8
annotation
62
1
39
211
10
3.038305
20
9.097899
11
3.047324
21
9.130804
0
LINE
8
annotation
62
1
39
211
10
3.047324
20
9.130804
11
3.050451
21
9.165756
0
LINE
8
annotation
62
1
39
211
10
3.050451
20
9.165756
11
3.050451
21
9.165756
0
LINE
8
annotation
62
1
39
211
10
3.050451
20
9.165756
11
3.047324
21
9.200544
0
LINE
8
annotation
62
1
39
211
10
3.047324
20
9.200544
11
3.038305
21
9.233322
0
LINE
8
annotation
62
1
39
211
10
3.038305
20
9.233322
11
3.023943
21
9.263533
0
LINE
8
annotation
62
1
39
211
10
3.023943
20
9.263533
11
3.004783
21
9.290621
0
LINE
8
annotation
62
1
39
211
10
3.004783
20
9.290621
11
2.981373
21
9.314031
0
LINE
8
annotation
62
1
39
211
10
2.981373
20
9.314031
11
2.954260
21
9.333206
0
LINE
8
annotation
62
1
39
211
10
2.954260
20
9.333206
11
2.923990
21
9.347591
0
LINE
8
annotation
62
1
39
211
10
2.923990
20
9.347591
11
2.891110
21
9.356629
0
LINE
8
annotation
62
1
39
211
10
2.891110
20
9.356629
11
2.856168
21
9.359765
0
LINE
8
annotation
62
1
39
211
10
2.856168
20
9.359765
11
2.661884
21
9.359765
0
LINE
8
hole
62
5
39
2
10
6.297117
20
7.280067
11
6.319617
21
7.280067
0
LINE
8
hole
62
5
39
2
10
6.319617
20
7.280067
11
6.319617
21
7.302567
0
LINE
8
hole
62
5
39
2
10
6.319617
20
7.302567
11
6.297117
21
7.302567
0
LINE
8
hole
62
5
39
2
10
6.297117
20
7.302567
11
6.297117
21
7.280067
0
LINE
8
hole
62
5
39
2
10
5.825871
20
4.317391
11
5.848371
21
4.317391
0
LINE
8
hole
62
5
39
2
10
5.848371
20
4.317391
11
5.848371
21
4.339891
0
LINE
8
hole
62
5
39
2
10
5.848371
20
4.339891
11
5.825871
21
4.339891
0
LINE
8
hole
62
5
39
2
10
5.825871
20
4.339891
11
5.825871
21
4.317391
0
LINE
8
hole
62
5
39
2
10
7.011309
20
5.836057
11
7.033809
21
5.836057
0
LINE
8
hole
62
5
39
2
10
7.033809
20
5.836057
11
7.033809
21
5.858557
0
LINE
8
hole
62
5
39
2
10
7.033809
20
5.858557
11
7.011309
21
5.858557
0
LINE
8
hole
62
5
39
2
10
7.011309
20
5.858557
11
7.011309
21
5.836057
0
LINE
8
hole
62
5
39
2
10
4.868974
20
5.467170
11
4.891474
21
5.467170
0
LINE
8
hole
62
5
39
2
10
4.891474
20
5.467170
11
4.891474
21
5.489670
0
LINE
8
hole
62
5
39
2
10
4.891474
20
5.489670
11
4.868974
21
5.489670
0
LINE
8
hole
62
5
39
2
10
4.868974
20
5.489670
11
4.868974
21
5.467170
0
LINE
8
boundary
62
5
39
2
10
4.136223
20
4.347796
11
7.538019
21
3.928293
0
LINE
8
boundary
62
5
39
2
10
7.538019
20
3.928293
11
6.634267
21
7.931768
0
LINE
8
boundary
62
5
39
2
10
6.634267
20
7.931768
11
5.655683
21
7.095085
0
LINE
8
boundary
62
5
39
2
10
5.655683
20
7.095085
11
4.136223
21
4.347796
0
LINE
8
annotation
62
1
39
211
10
6.162980
20
7.295682
11
4.599713
21
4.469182
0
LINE
8
annotation
62
1
39
211
10
7.022559
20
5.847307
11
7.022559
21
5.903557
0
LINE
8
annotation
62
1
39
211
10
7.022559
20
5.847307
11
7.022559
21
5.903557
0
LINE
8
annotation
62
1
39
211
10
7.022559
20
5.903557
11
7.022559
21
5.847307
0
LINE
8
annotation
62
1
39
211
10
7.022559
20
5.847307
11
7.022559
21
5.791057
0
LINE
8
annotation
62
1
39
211
10
4.880224
20
5.478420
11
4.936474
21
5.478420
0
LINE
8
annotation
62
1
39
211
10
4.880224
20
5.478420
11
4.936474
21
5.478420
0
LINE
8
annotation
62
1
39
211
10
4.936474
20
5.478420
11
4.880224
21
5.478420
0
LINE
8
annotation
62
1
39
211
10
4.880224
20
5.478420
11
4.880224
21
5.422170
0
LINE
8
annotation
62
1
39
211
10
6.308367
20
7.291317
11
6.308367
21
7.347567
0
LINE
8
annotation
62
1
39
211
10
5.837121
20
4.328641
11
5.893371
21
4.328641
0
LINE
8
annotation
62
1
39
211
10
5.805719
20
4.790428
11
5.805719
21
5.943544
0
LINE
8
annotation
62
1
39
211
10
5.805719
20
5.943544
11
5.549366
21
5.687119
0
LINE
8
annotation
62
1
39
211
10
6.238101
20
5.046093
11
6.238101
21
5.046093
0
LINE
8
annotation
62
1
39
211
10
6.238101
20
5.046093
11
6.242235
21
5.000052
0
LINE
8
annotation
62
1
39
211
10
6.242235
20
5.000052
11
6.254151
21
4.956751
0
LINE
8
annotation
62
1
39
211
10
6.254151
20
4.956751
11
6.273120
21
4.916903
0
LINE
8
annotation
62
1
39
211
10
6.273120
20
4.916903
11
6.298411
21
4.881225
0
LINE
8
annotation
62
1
39
211
10
6.298411
20
4.881225
11
6.329294
21
4.850431
0
LINE
8
annotation
62
1
39
211
10
6.329294
20
4.850431
11
6.365041
21
4.825236
0
LINE
8
annotation
62
1
39
211
10
6.365041
20
4.825236
11
6.404922
21
4.806355
0
LINE
8
annotation
62
1
39
211
10
6.404922
20
4.806355
11
6.448206
21
4.794502
0
LINE
8
annotation
62
1
39
211
10
6.448206
20
4.794502
11
6.494164
21
4.790392
0
LINE
8
annotation
62
1
39
211
10
6.494164
20
4.790392
11
6.494164
21
4.790392
0
LINE
8
annotation
62
1
39
211
10
6.494164
20
4.790392
11
6.540123
21
4.794502
0
LINE
8
annotation
62
1
39
211
10
6.540123
20
4.794502
11
6.583407
21
4.806355
0
LINE
8
annotation
62
1
39
211
10
6.583407
20
4.806355
11
6.623287
21
4.825236
0
LINE
8
annotation
62
1
39
211
10
6.623287
20
4.825236
11
6.659034
21
4.850431
0
LINE
8
annotation
62
1
39
211
10
6.659034
20
4.850431
11
6.689918
21
4.881225
0
LINE
8
annotation
62
1
39
211
10
6.689918
20
4.881225
11
6.715209
21
4.916903
0
LINE
8
annotation
62
1
39
211
10
6.715209
20
4.916903
11
6.734177
21
4.956751
0
LINE
8
annotation
62
1
39
211
10
6.734177
20
4.956751
11
6.746093
21
5.000052
0
LINE
8
annotation
62
1
39
211
10
6.746093
20
5.000052
11
6.750228
21
5.046093
0
LINE
8
annotation
62
1
39
211
10
6.750228
20
5.046093
11
6.750228
21
5.173655
0
LINE
8
annotation
62
1
39
211
10
6.750228
20
5.173655
11
6.750228
21
5.173655
0
LINE
8
annotation
62
1
39
211
10
6.750228
20
5.173655
11
6.746096
21
5.219718
0
LINE
8
annotation
62
1
39
211
10
6.746096
20
5.219718
11
6.734186
21
5.263080
0
LINE
8
annotation
62
1
39
211
10
6.734186
20
5.263080
11
6.715225
21
5.303014
0
LINE
8
annotation
62
1
39
211
10
6.715225
20
5.303014
11
6.689942
21
5.338794
0
LINE
8
annotation
62
1
39
211
10
6.689942
20
5.338794
11
6.659064
21
5.369696
0
LINE
8
annotation
62
1
39
211
10
6.659064
20
5.369696
11
6.623320
21
5.394994
0
LINE
8
annotation
62
1
39
211
10
6.623320
20
5.394994
11
6.583436
21
5.413962
0
LINE
8
annotation
62
1
39
211
10
6.583436
20
5.413962
11
6.540142
21
5.425875
0
LINE
8
annotation
62
1
39
211
10
6.540142
20
5.425875
11
6.494164
21
5.430007
0
LINE
8
annotation
62
1
39
211
10
6.494164
20
5.430007
11
6.494164
21
5.430007
0
LINE
8
annotation
62
1
39
211
10
6.494164
20
5.430007
11
6.448187
21
5.425873
0
LINE
8
annotation
62
1
39
211
10
6.448187
20
5.425873
11
6.404893
21
5.413954
0
LINE
8
annotation
62
1
39
211
10
6.404893
20
5.413954
11
6.365009
21
5.394978
0
LINE
8
annotation
62
1
39
211
10
6.365009
20
5.394978
11
6.329265
21
5.369673
0
LINE
8
annotation
62
1
39
211
10
6.329265
20
5.369673
11
6.298387
21
5.338765
0
LINE
8
annotation
62
1
39
211
10
6.298387
20
5.338765
11
6.273104
21
5.302982
0
LINE
8
annotation
62
1
39
211
10
6.273104
20
5.302982
11
6.254143
21
5.263051
0
LINE
8
annotation
62
1
39
211
10
6.254143
20
5.263051
11
6.242233
21
5.219699
0
LINE
8
annotation
62
1
39
211
10
6.242233
20
5.219699
11
6.238101
21
5.173655
0
LINE
8
annotation
62
1
39
211
10
6.238101
20
5.173655
11
6.238101
21
5.046093
0
LINE
8
annotation
62
1
39
211
10
6.750228
20
5.686432
11
6.750228
21
5.686432
0
LINE
8
annotation
62
1
39
211
10
6.750228
20
5.686432
11
6.746096
21
5.732283
0
LINE
8
annotation
62
1
39
211
10
6.746096
20
5.732283
11
6.734186
21
5.775483
0
LINE
8
annotation
62
1
39
211
10
6.734186
20
5.775483
11
6.715225
21
5.815301
0
LINE
8
annotation
62
1
39
211
10
6.715225
20
5.815301
11
6.689942
21
5.851003
0
LINE
8
annotation
62
1
39
211
10
6.689942
20
5.851003
11
6.659064
21
5.881856
0
LINE
8
annotation
62
1
39
211
10
6.659064
20
5.881856
11
6.623320
21
5.907129
0
LINE
8
annotation
62
1
39
211
10
6.623320
20
5.907129
11
6.583436
21
5.926088
0
LINE
8
annotation
62
1
39
211
10
6.583436
20
5.926088
11
6.540142
21
5.938000
0
LINE
8
annotation
62
1
39
211
10
6.540142
20
5.938000
11
6.494164
21
5.942134
0
LINE
8
annotation
62
1
39
211
10
6.494164
20
5.942134
11
6.494164
21
5.942134
0
LINE
8
annotation
62
1
39
211
10
6.494164
20
5.942134
11
6.448187
21
5.938000
0
LINE
8
annotation
62
1
39
211
10
6.448187
20
5.938000
11
6.404893
21
5.926088
0
LINE
8
annotation
62
1
39
211
10
6.404893
20
5.926088
11
6.365009
21
5.907129
0
LINE
8
annotation
62
1
39
211
10
6.365009
20
5.907129
11
6.329265
21
5.881856
0
LINE
8
annotation
62
1
39
211
10
6.329265
20
5.881856
11
6.298387
21
5.851003
0
LINE
8
annotation
62
1
39
211
10
6.298387
20
5.851003
11
6.273104
21
5.815301
0
LINE
8
annotation
62
1
39
211
10
6.273104
20
5.815301
11
6.254143
21
5.775483
0
LINE
8
annotation
62
1
39
211
10
6.254143
20
5.775483
11
6.242233
21
5.732283
0
LINE
8
annotation
62
1
39
211
10
6.242233
20
5.732283
11
6.238101
21
5.686432
0
LINE
8
annotation
62
1
39
211
10
6.238101
20
5.686432
11
6.238101
21
5.686432
0
LINE
8
annotation
62
1
39
211
10
6.238101
20
5.686432
11
6.242235
21
5.640366
0
LINE
8
annotation
62
1
39
211
10
6.242235
20
5.640366
11
6.254151
21
5.596998
0
LINE
8
annotation
62
1
39
211
10
6.254151
20
5.596998
11
6.273120
21
5.557055
0
LINE
8
annotation
62
1
39
211
10
6.273120
20
5.557055
11
6.298411
21
5.521263
0
LINE
8
annotation
62
1
39
211
10
6.298411
20
5.521263
11
6.329294
21
5.490349
0
LINE
8
annotation
62
1
39
211
10
6.329294
20
5.490349
11
6.365041
21
5.465039
0
LINE
8
annotation
62
1
39
211
10
6.365041
20
5.465039
11
6.404922
21
5.446062
0
LINE
8
annotation
62
1
39
211
10
6.404922
20
5.446062
11
6.448206
21
5.434142
0
LINE
8
annotation
62
1
39
211
10
6.448206
20
5.434142
11
6.494164
21
5.430007
0
LINE
8
annotation
62
1
39
211
10
6.494164
20
5.430007
11
6.494164
21
5.430007
0
LINE
8
annotation
62
1
39
211
10
6.494164
20
5.430007
11
6.540123
21
5.434142
0
LINE
8
annotation
62
1
39
211
10
6.540123
20
5.434142
11
6.583407
21
5.446062
0
LINE
8
annotation
62
1
39
211
10
6.583407
20
5.446062
11
6.623287
21
5.465039
0
LINE
8
annotation
62
1
39
211
10
6.623287
20
5.465039
11
6.659034
21
5.490349
0
LINE
8
annotation
62
1
39
211
10
6.659034
20
5.490349
11
6.689918
21
5.521263
0
LINE
8
annotation
62
1
39
211
10
6.689918
20
5.521263
11
6.715209
21
5.557055
0
LINE
8
annotation
62
1
39
211
10
6.715209
20
5.557055
11
6.734177
21
5.596998
0
LINE
8
annotation
62
1
39
211
10
6.734177
20
5.596998
11
6.746093
21
5.640366
0
LINE
8
annotation
62
1
39
211
10
6.746093
20
5.640366
11
6.750228
21
5.686432
0
LINE
8
boundary
62
5
39
2
10
7.942478
20
3.928293
11
7.855951
21
4.311591
0
LINE
8
boundary
62
5
39
2
10
7.855951
20
4.311591
11
7.663019
21
3.962756
0
LINE
8
boundary
62
5
39
2
10
7.663019
20
3.962756
11
7.942478
21
3.928293
0
LINE
8
annotation
62
1
39
211
10
7.805158
20
4.000676
11
7.768385
21
4.000676
0
LINE
8
annotation
62
1
39
211
10
7.768385
20
4.000676
11
7.802365
21
4.055380
0
LINE
8
annotation
62
1
39
211
10
7.802365
20
4.055380
11
7.802365
21
4.055380
0
LINE
8
annotation
62
1
39
211
10
7.802365
20
4.055380
11
7.802405
21
4.055430
0
LINE
8
annotation
62
1
39
211
10
7.802405
20
4.055430
11
7.802444
21
4.055481
0
LINE
8
annotation
62
1
39
211
10
7.802444
20
4.055481
11
7.802482
21
4.055532
0
LINE
8
annotation
62
1
39
211
10
7.802482
20
4.055532
11
7.802518
21
4.055585
0
LINE
8
annotation
62
1
39
211
10
7.802518
20
4.055585
11
7.802554
21
4.055640
0
LINE
8
annotation
62
1
39
211
10
7.802554
20
4.055640
11
7.802589
21
4.055696
0
LINE
8
annotation
62
1
39
211
10
7.802589
20
4.055696
11
7.802623
21
4.055756
0
LINE
8
annotation
62
1
39
211
10
7.802623
20
4.055756
11
7.802657
21
4.055818
0
LINE
8
annotation
62
1
39
211
10
7.802657
20
4.055818
11
7.802692
21
4.055883
0
LINE
8
annotation
62
1
39
211
10
7.802692
20
4.055883
11
7.802692
21
4.055883
0
LINE
8
annotation
62
1
39
211
10
7.802692
20
4.055883
11
7.804095
21
4.058896
0
LINE
8
annotation
62
1
39
211
10
7.804095
20
4.058896
11
7.804914
21
4.062018
0
LINE
8
annotation
62
1
39
211
10
7.804914
20
4.062018
11
7.805171
21
4.065181
0
LINE
8
annotation
62
1
39
211
10
7.805171
20
4.065181
11
7.804884
21
4.068312
0
LINE
8
annotation
62
1
39
211
10
7.804884
20
4.068312
11
7.804074
21
4.071342
0
LINE
8
annotation
62
1
39
211
10
7.804074
20
4.071342
11
7.802761
21
4.074200
0
LINE
8
annotation
62
1
39
211
10
7.802761
20
4.074200
11
7.800965
21
4.076815
0
LINE
8
annotation
62
1
39
211
10
7.800965
20
4.076815
11
7.798706
21
4.079118
0
LINE
8
annotation
62
1
39
211
10
7.798706
20
4.079118
11
7.796004
21
4.081036
0
LINE
8
annotation
62
1
39
211
10
7.796004
20
4.081036
11
7.796004
21
4.081036
0
LINE
8
annotation
62
1
39
211
10
7.796004
20
4.081036
11
7.792983
21
4.082419
0
LINE
8
annotation
62
1
39
211
10
7.792983
20
4.082419
11
7.789856
21
4.083226
0
LINE
8
annotation
62
1
39
211
10
7.789856
20
4.083226
11
7.786691
21
4.083475
0
LINE
8
annotation
62
1
39
211
10
7.786691
20
4.083475
11
7.783560
21
4.083185
0
LINE
8
annotation
62
1
39
211
10
7.783560
20
4.083185
11
7.780533
21
4.082372
0
LINE
8
annotation
62
1
39
211
10
7.780533
20
4.082372
11
7.777678
21
4.081057
0
LINE
8
annotation
62
1
39
211
10
7.777678
20
4.081057
11
7.775066
21
4.079255
0
LINE
8
annotation
62
1
39
211
10
7.775066
20
4.079255
11
7.772767
21
4.076987
0
LINE
8
annotation
62
1
39
211
10
7.772767
20
4.076987
11
7.770851
21
4.074270
0
LINE
8
annotation
62
1
39
211
10
7.770851
20
4.074270
11
7.768437
21
4.069638
0
LINE
8
annotation
62
1
39
211
10
7.854625
20
4.000677
11
7.873033
21
4.083477
0
LINE
8
annotation
62
1
39
211
10
7.873033
20
4.083477
11
7.836212
21
4.083477
0
LINE
8
annotation
62
1
39
211
10
7.873033
20
4.046605
11
7.854625
21
4.046605
0
LINE
8
hole
62
5
39
2
10
5.729048
20
8.316436
11
5.751548
21
8.316436
0
LINE
8
hole
62
5
39
2
10
5.751548
20
8.316436
11
5.751548
21
8.338936
0
LINE
8
hole
62
5
39
2
10
5.751548
20
8.338936
11
5.729048
21
8.338936
0
LINE
8
hole
62
5
39
2
10
5.729048
20
8.338936
11
5.729048
21
8.316436
0
LINE
8
hole
62
5
39
2
10
6.117730
20
9.988828
11
6.140230
21
9.988828
0
LINE
8
hole
62
5
39
2
10
6.140230
20
9.988828
11
6.140230
21
10.011328
0
LINE
8
hole
62
5
39
2
10
6.140230
20
10.011328
11
6.117730
21
10.011328
0
LINE
8
hole
62
5
39
2
10
6.117730
20
10.011328
11
6.117730
21
9.988828
0
LINE
8
hole
62
5
39
2
10
6.951497
20
9.281727
11
6.973997
21
9.281727
0
LINE
8
hole
62
5
39
2
10
6.973997
20
9.281727
11
6.973997
21
9.304227
0
LINE
8
hole
62
5
39
2
10
6.973997
20
9.304227
11
6.951497
21
9.304227
0
LINE
8
hole
62
5
39
2
10
6.951497
20
9.304227
11
6.951497
21
9.281727
0
LINE
8
hole
62
5
39
2
10
5.027087
20
8.812553
11
5.049587
21
8.812553
0
LINE
8
hole
62
5
39
2
10
5.049587
20
8.812553
11
5.049587
21
8.835053
0
LINE
8
hole
62
5
39
2
10
5.049587
20
8.835053
11
5.027087
21
8.835053
0
LINE
8
hole
62
5
39
2
10
5.027087
20
8.835053
11
5.027087
21
8.812553
0
LINE
8
boundary
62
5
39
2
10
7.325623
20
8.056768
11
6.735211
21
10.672199
0
LINE
8
boundary
62
5
39
2
10
6.735211
20
10.672199
11
4.136223
21
8.450079
0
LINE
8
boundary
62
5
39
2
10
4.136223
20
8.450079
11
7.325623
21
8.056768
0
LINE
8
annotation
62
1
39
211
10
6.962747
20
9.292977
11
6.962747
21
9.349227
0
LINE
8
annotation
62
1
39
211
10
6.962747
20
9.292977
11
6.962747
21
9.349227
0
LINE
8
annotation
62
1
39
211
10
6.962747
20
9.349227
11
6.962747
21
9.292977
0
LINE
8
annotation
62
1
39
211
10
6.962747
20
9.292977
11
6.962747
21
9.236727
0
LINE
8
annotation
62
1
39
211
10
5.038337
20
8.823803
11
5.094587
21
8.823803
0
LINE
8
annotation
62
1
39
211
10
5.038337
20
8.823803
11
5.094587
21
8.823803
0
LINE
8
annotation
62
1
39
211
10
5.094587
20
8.823803
11
5.038337
21
8.823803
0
LINE
8
annotation
62
1
39
211
10
5.038337
20
8.823803
11
5.038337
21
8.767553
0
LINE
8
annotation
62
1
39
211
10
6.128980
20
10.000078
11
6.128980
21
10.056328
0
LINE
8
annotation
62
1
39
211
10
5.740298
20
8.327686
11
5.796548
21
8.327686
0
LINE
8
annotation
62
1
39
211
10
6.039158
20
8.663543
11
6.039158
21
9.467352
0
LINE
8
annotation
62
1
39
211
10
6.039158
20
9.467352
11
5.860461
21
9.288604
0
LINE
8
annotation
62
1
39
211
10
6.697613
20
8.663536
11
6.340622
21
8.663536
0
LINE
8
annotation
62
1
39
211
10
6.340622
20
8.663536
11
6.670494
21
9.194587
0
LINE
8
annotation
62
1
39
211
10
6.670494
20
9.194587
11
6.670494
21
9.194587
0
LINE
8
annotation
62
1
39
211
10
6.670494
20
9.194587
11
6.670888
21
9.195075
0
LINE
8
annotation
62
1
39
211
10
6.670888
20
9.195075
11
6.671266
21
9.195567
0
LINE
8
annotation
62
1
39
211
10
6.671266
20
9.195567
11
6.671631
21
9.196067
0
LINE
8
annotation
62
1
39
211
10
6.671631
20
9.196067
11
6.671984
21
9.196580
0
LINE
8
annotation
62
1
39
211
10
6.671984
20
9.196580
11
6.672328
21
9.197109
0
LINE
8
annotation
62
1
39
211
10
6.672328
20
9.197109
11
6.672667
21
9.197660
0
LINE
8
annotation
62
1
39
211
10
6.672667
20
9.197660
11
6.673001
21
9.198235
0
LINE
8
annotation
62
1
39
211
10
6.673001
20
9.198235
11
6.673335
21
9.198839
0
LINE
8
annotation
62
1
39
211
10
6.673335
20
9.198839
11
6.673669
21
9.199476
0
LINE
8
annotation
62
1
39
211
10
6.673669
20
9.199476
11
6.673669
21
9.199476
0
LINE
8
annotation
62
1
39
211
10
6.673669
20
9.199476
11
6.687290
21
9.228720
0
LINE
8
annotation
62
1
39
211
10
6.687290
20
9.228720
11
6.695246
21
9.259034
0
LINE
8
annotation
62
1
39
211
10
6.695246
20
9.259034
11
6.697734
21
9.289733
0
LINE
8
annotation
62
1
39
211
10
6.697734
20
9.289733
11
6.694949
21
9.320132
0
LINE
8
annotation
62
1
39
211
10
6.694949
20
9.320132
11
6.687085
21
9.349546
0
LINE
8
annotation
62
1
39
211
10
6.687085
20
9.349546
11
6.674338
21
9.377290
0
LINE
8
annotation
62
1
39
211
10
6.674338
20
9.377290
11
6.656901
21
9.402680
0
LINE
8
annotation
62
1
39
211
10
6.656901
20
9.402680
11
6.634972
21
9.425029
0
LINE
8
annotation
62
1
39
211
10
6.634972
20
9.425029
11
6.608743
21
9.443654
0
LINE
8
annotation
62
1
39
211
10
6.608743
20
9.443654
11
6.608743
21
9.443654
0
LINE
8
annotation
62
1
39
211
10
6.608743
20
9.443654
11
6.579418
21
9.457080
0
LINE
8
annotation
62
1
39
211
10
6.579418
20
9.457080
11
6.549058
21
9.464914
0
LINE
8
annotation
62
1
39
211
10
6.549058
20
9.464914
11
6.518341
21
9.467332
0
LINE
8
annotation
62
1
39
211
10
6.518341
20
9.467332
11
6.487947
21
9.464510
0
LINE
8
annotation
62
1
39
211
10
6.487947
20
9.464510
11
6.458553
21
9.456625
0
LINE
8
annotation
62
1
39
211
10
6.458553
20
9.456625
11
6.430840
21
9.443851
0
LINE
8
annotation
62
1
39
211
10
6.430840
20
9.443851
11
6.405485
21
9.426367
0
LINE
8
annotation
62
1
39
211
10
6.405485
20
9.426367
11
6.383168
21
9.404349
0
LINE
8
annotation
62
1
39
211
10
6.383168
20
9.404349
11
6.364566
21
9.377972
0
LINE
8
annotation
62
1
39
211
10
6.364566
20
9.377972
11
6.341126
21
9.333008
0
LINE
8
hole
62
5
39
2
10
7.728220
20
8.429302
11
7.750720
21
8.429302
0
LINE
8
hole
62
5
39
2
10
7.750720
20
8.429302
11
7.750720
21
8.451802
0
LINE
8
hole
62
5
39
2
10
7.750720
20
8.451802
11
7.728220
21
8.451802
0
LINE
8
hole
62
5
39
2
10
7.728220
20
8.451802
11
7.728220
21
8.429302
0
LINE
8
hole
62
5
39
2
10
7.844252
20
8.632921
11
7.866752
21
8.632921
0
LINE
8
hole
62
5
39
2
10
7.866752
20
8.632921
11
7.866752
21
8.655421
0
LINE
8
hole
62
5
39
2
10
7.866752
20
8.655421
11
7.844252
21
8.655421
0
LINE
8
hole
62
5
39
2
10
7.844252
20
8.655421
11
7.844252
21
8.632921
0
LINE
8
boundary
62
5
39
2
10
8.077008
20
8.056768
11
7.883066
21
8.915900
0
LINE
8
boundary
62
5
39
2
10
7.883066
20
8.915900
11
7.450623
21
8.134013
0
LINE
8
boundary
62
5
39
2
10
7.450623
20
8.134013
11
8.077008
21
8.056768
0
LINE
8
annotation
62
1
39
211
10
7.855502
20
8.644171
11
7.855502
21
8.700421
0
LINE
8
annotation
62
1
39
211
10
7.855502
20
8.644171
11
7.855502
21
8.700421
0
LINE
8
annotation
62
1
39
211
10
7.855502
20
8.700421
11
7.855502
21
8.644171
0
LINE
8
annotation
62
1
39
211
10
7.855502
20
8.644171
11
7.911752
21
8.644171
0
LINE
8
annotation
62
1
39
211
10
7.739470
20
8.440552
11
7.739470
21
8.384302
0
LINE
8
annotation
62
1
39
211
10
7.721372
20
8.207624
11
7.652684
21
8.207624
0
LINE
8
annotation
62
1
39
211
10
7.652684
20
8.207624
11
7.716154
21
8.309803
0
LINE
8
annotation
62
1
39
211
10
7.716154
20
8.309803
11
7.716154
21
8.309803
0
LINE
8
annotation
62
1
39
211
10
7.716154
20
8.309803
11
7.716230
21
8.309896
0
LINE
8
annotation
62
1
39
211
10
7.716230
20
8.309896
11
7.716303
21
8.309991
0
LINE
8
annotation
62
1
39
211
10
7.716303
20
8.309991
11
7.716373
21
8.310087
0
LINE
8
annotation
62
1
39
211
10
7.716373
20
8.310087
11
7.716441
21
8.310186
0
LINE
8
annotation
62
1
39
211
10
7.716441
20
8.310186
11
7.716507
21
8.310288
0
LINE
8
annotation
62
1
39
211
10
7.716507
20
8.310288
11
7.716572
21
8.310394
0
LINE
8
annotation
62
1
39
211
10
7.716572
20
8.310394
11
7.716637
21
8.310504
0
LINE
8
annotation
62
1
39
211
10
7.716637
20
8.310504
11
7.716701
21
8.310621
0
LINE
8
annotation
62
1
39
211
10
7.716701
20
8.310621
11
7.716765
21
8.310743
0
LINE
8
annotation
62
1
39
211
10
7.716765
20
8.310743
11
7.716765
21
8.310743
0
LINE
8
annotation
62
1
39
211
10
7.716765
20
8.310743
11
7.719386
21
8.316370
0
LINE
8
annotation
62
1
39
211
10
7.719386
20
8.316370
11
7.720917
21
8.322203
0
LINE
8
annotation
62
1
39
211
10
7.720917
20
8.322203
11
7.721396
21
8.328109
0
LINE
8
annotation
62
1
39
211
10
7.721396
20
8.328109
11
7.720860
21
8.333958
0
LINE
8
annotation
62
1
39
211
10
7.720860
20
8.333958
11
7.719347
21
8.339618
0
LINE
8
annotation
62
1
39
211
10
7.719347
20
8.339618
11
7.716894
21
8.344956
0
LINE
8
annotation
62
1
39
211
10
7.716894
20
8.344956
11
7.713539
21
8.349841
0
LINE
8
annotation
62
1
39
211
10
7.713539
20
8.349841
11
7.709319
21
8.354141
0
LINE
8
annotation
62
1
39
211
10
7.709319
20
8.354141
11
7.704273
21
8.357725
0
LINE
8
annotation
62
1
39
211
10
7.704273
20
8.357725
11
7.704273
21
8.357725
0
LINE
8
annotation
62
1
39
211
10
7.704273
20
8.357725
11
7.698631
21
8.360308
0
LINE
8
annotation
62
1
39
211
10
7.698631
20
8.360308
11
7.692789
21
8.361816
0
LINE
8
annotation
62
1
39
211
10
7.692789
20
8.361816
11
7.686879
21
8.362281
0
LINE
8
annotation
62
1
39
211
10
7.686879
20
8.362281
11
7.681031
21
8.361738
0
LINE
8
annotation
62
1
39
211
10
7.681031
20
8.361738
11
7.675375
21
8.360221
0
LINE
8
annotation
62
1
39
211
10
7.675375
20
8.360221
11
7.670043
21
8.357763
0
LINE
8
annotation
62
1
39
211
10
7.670043
20
8.357763
11
7.665164
21
8.354399
0
LINE
8
annotation
62
1
39
211
10
7.665164
20
8.354399
11
7.660870
21
8.350162
0
LINE
8
annotation
62
1
39
211
10
7.660870
20
8.350162
11
7.657291
21
8.345087
0
LINE
8
annotation
62
1
39
211
10
7.657291
20
8.345087
11
7.652781
21
8.336436
0
LINE
8
annotation
62
1
39
211
10
7.830970
20
8.362285
11
7.830970
21
8.362285
0
LINE
8
annotation
62
1
39
211
10
7.830970
20
8.362285
11
7.821131
21
8.358596
0
LINE
8
annotation
62
1
39
211
10
7.821131
20
8.358596
11
7.812103
21
8.353625
0
LINE
8
annotation
62
1
39
211
10
7.812103
20
8.353625
11
7.803978
21
8.347498
0
LINE
8
annotation
62
1
39
211
10
7.803978
20
8.347498
11
7.796848
21
8.340338
0
LINE
8
annotation
62
1
39
211
10
7.796848
20
8.340338
11
7.790807
21
8.332271
0
LINE
8
annotation
62
1
39
211
10
7.790807
20
8.332271
11
7.785947
21
8.323420
0
LINE
8
annotation
62
1
39
211
10
7.785947
20
8.323420
11
7.782361
21
8.313910
0
LINE
8
annotation
62
1
39
211
10
7.782361
20
8.313910
11
7.780141
21
8.303866
0
LINE
8
annotation
62
1
39
211
10
7.780141
20
8.303866
11
7.779381
21
8.293413
0
LINE
8
annotation
62
1
39
211
10
7.779381
20
8.293413
11
7.779381
21
8.242008
0
LINE
8
annotation
62
1
39
211
10
7.779381
20
8.242008
11
7.779381
21
8.242008
0
LINE
8
annotation
62
1
39
211
10
7.779381
20
8.242008
11
7.779936
21
8.235830
0
LINE
8
annotation
62
1
39
211
10
7.779936
20
8.235830
11
7.781534
21
8.230014
0
LINE
8
annotation
62
1
39
211
10
7.781534
20
8.230014
11
7.784078
21
8.224658
0
LINE
8
annotation
62
1
39
211
10
7.784078
20
8.224658
11
7.787470
21
8.219859
0
LINE
8
annotation
62
1
39
211
10
7.787470
20
8.219859
11
7.791612
21
8.215715
0
LINE
8
annotation
62
1
39
211
10
7.791612
20
8.215715
11
7.796407
21
8.212322
0
LINE
8
annotation
62
1
39
211
10
7.796407
20
8.212322
11
7.801755
21
8.209778
0
LINE
8
annotation
62
1
39
211
10
7.801755
20
8.209778
11
7.807561
21
8.208180
0
LINE
8
annotation
62
1
39
211
10
7.807561
20
8.208180
11
7.813725
21
8.207626
0
LINE
8
annotation
62
1
39
211
10
7.813725
20
8.207626
11
7.813725
21
8.207626
0
LINE
8
annotation
62
1
39
211
10
7.813725
20
8.207626
11
7.819902
21
8.208180
0
LINE
8
annotation
62
1
39
211
10
7.819902
20
8.208180
11
7.825714
21
8.209778
0
LINE
8
annotation
62
1
39
211
10
7.825714
20
8.209778
11
7.831065
21
8.212322
0
LINE
8
annotation
62
1
39
211
10
7.831065
20
8.212322
11
7.835858
21
8.215715
0
LINE
8
annotation
62
1
39
211
10
7.835858
20
8.215715
11
7.839996
21
8.219859
0
LINE
8
annotation
62
1
39
211
10
7.839996
20
8.219859
11
7.843383
21
8.224658
0
LINE
8
annotation
62
1
39
211
10
7.843383
20
8.224658
11
7.845922
21
8.230014
0
LINE
8
annotation
62
1
39
211
10
7.845922
20
8.230014
11
7.847516
21
8.235830
0
LINE
8
annotation
62
1
39
211
10
7.847516
20
8.235830
11
7.848069
21
8.242008
0
LINE
8
annotation
62
1
39
211
10
7.848069
20
8.242008
11
7.848069
21
8.259117
0
LINE
8
annotation
62
1
39
211
10
7.848069
20
8.259117
11
7.848069
21
8.259117
0
LINE
8
annotation
62
1
39
211
10
7.848069
20
8.259117
11
7.847516
21
8.265292
0
LINE
8
annotation
62
1
39
211
10
7.847516
20
8.265292
11
7.845922
21
8.271100
0
LINE
8
annotation
62
1
39
211
10
7.845922
20
8.271100
11
7.843383
21
8.276445
0
LINE
8
annotation
62
1
39
211
10
7.843383
20
8.276445
11
7.839996
21
8.281230
0
LINE
8
annotation
62
1
39
211
10
7.839996
20
8.281230
11
7.835858
21
8.285360
0
LINE
8
annotation
62
1
39
211
10
7.835858
20
8.285360
11
7.831065
21
8.288739
0
LINE
8
annotation
62
1
39
211
10
7.831065
20
8.288739
11
7.825714
21
8.291272
0
LINE
8
annotation
62
1
39
211
10
7.825714
20
8.291272
11
7.819902
21
8.292861
0
LINE
8
annotation
62
1
39
211
10
7.819902
20
8.292861
11
7.813725
21
8.293413
0
LINE
8
annotation
62
1
39
211
10
7.813725
20
8.293413
11
7.779381
21
8.293413
0
LINE
8
annotation
62
1
39
211
10
7.775080
20
8.188293
11
7.852409
21
8.188293
0
LINE
8
hole
62
5
39
2
10
7.940369
20
9.305706
11
7.962869
21
9.305706
0
LINE
8
hole
62
5
39
2
10
7.962869
20
9.305706
11
7.962869
21
9.328206
0
LINE
8
hole
62
5
39
2
10
7.962869
20
9.328206
11
7.940369
21
9.328206
0
LINE
8
hole
62
5
39
2
10
7.940369
20
9.328206
11
7.940369
21
9.305706
0
LINE
8
hole
62
5
39
2
10
7.747176
20
9.211357
11
7.769676
21
9.211357
0
LINE
8
hole
62
5
39
2
10
7.769676
20
9.211357
11
7.769676
21
9.233857
0
LINE
8
hole
62
5
39
2
10
7.769676
20
9.233857
11
7.747176
21
9.233857
0
LINE
8
hole
62
5
39
2
10
7.747176
20
9.233857
11
7.747176
21
9.211357
0
LINE
8
boundary
62
5
39
2
10
8.101035
20
9.040900
11
7.980633
21
9.574263
0
LINE
8
boundary
62
5
39
2
10
7.980633
20
9.574263
11
7.450623
21
9.121108
0
LINE
8
boundary
62
5
39
2
10
7.450623
20
9.121108
11
8.101035
21
9.040900
0
LINE
8
annotation
62
1
39
211
10
7.951619
20
9.316956
11
7.951619
21
9.373206
0
LINE
8
annotation
62
1
39
211
10
7.758426
20
9.222607
11
7.814676
21
9.222607
0
LINE
8
annotation
62
1
39
211
10
7.805351
20
9.152936
11
7.846951
21
9.152936
0
LINE
8
annotation
62
1
39
211
10
7.846951
20
9.152936
11
7.846951
21
9.152936
0
LINE
8
annotation
62
1
39
211
10
7.846951
20
9.152936
11
7.854433
21
9.153607
0
LINE
8
annotation
62
1
39
211
10
7.854433
20
9.153607
11
7.861473
21
9.155542
0
LINE
8
annotation
62
1
39
211
10
7.861473
20
9.155542
11
7.867955
21
9.158621
0
LINE
8
annotation
62
1
39
211
10
7.867955
20
9.158621
11
7.873760
21
9.162725
0
LINE
8
annotation
62
1
39
211
10
7.873760
20
9.162725
11
7.878773
21
9.167737
0
LINE
8
annotation
62
1
39
211
10
7.878773
20
9.167737
11
7.882876
21
9.173537
0
LINE
8
annotation
62
1
39
211
10
7.882876
20
9.173537
11
7.885951
21
9.180006
0
LINE
8
annotation
62
1
39
211
10
7.885951
20
9.180006
11
7.887882
21
9.187026
0
LINE
8
annotation
62
1
39
211
10
7.887882
20
9.187026
11
7.888552
21
9.194478
0
LINE
8
annotation
62
1
39
211
10
7.888552
20
9.194478
11
7.888552
21
9.215308
0
LINE
8
annotation
62
1
39
211
10
7.888552
20
9.215308
11
7.888552
21
9.215308
0
LINE
8
annotation
62
1
39
211
10
7.888552
20
9.215308
11
7.887882
21
9.222757
0
LINE
8
annotation
62
1
39
211
10
7.887882
20
9.222757
11
7.885951
21
9.229775
0
LINE
8
annotation
62
1
39
211
10
7.885951
20
9.229775
11
7.882876
21
9.236244
0
LINE
8
annotation
62
1
39
211
10
7.882876
20
9.236244
11
7.878773
21
9.242044
0
LINE
8
annotation
62
1
39
211
10
7.878773
20
9.242044
11
7.873760
21
9.247057
0
LINE
8
annotation
62
1
39
211
10
7.873760
20
9.247057
11
7.867955
21
9.251162
0
LINE
8
annotation
62
1
39
211
10
7.867955
20
9.251162
11
7.861473
21
9.254243
0
LINE
8
annotation
62
1
39
211
10
7.861473
20
9.254243
11
7.854433
21
9.256178
0
LINE
8
annotation
62
1
39
211
10
7.854433
20
9.256178
11
7.846951
21
9.256849
0
LINE
8
annotation
62
1
39
211
10
7.846951
20
9.256849
11
7.826122
21
9.256849
0
LINE
8
annotation
62
1
39
211
10
7.826122
20
9.256849
11
7.846951
21
9.256849
0
LINE
8
annotation
62
1
39
211
10
7.846951
20
9.256849
11
7.846951
21
9.256849
0
LINE
8
annotation
62
1
39
211
10
7.846951
20
9.256849
11
7.854433
21
9.257521
0
LINE
8
annotation
62
1
39
211
10
7.854433
20
9.257521
11
7.861473
21
9.259458
0
LINE
8
annotation
62
1
39
211
10
7.861473
20
9.259458
11
7.867955
21
9.262541
0
LINE
8
annotation
62
1
39
211
10
7.867955
20
9.262541
11
7.873760
21
9.266653
0
LINE
8
annotation
62
1
39
211
10
7.873760
20
9.266653
11
7.878773
21
9.271675
0
LINE
8
annotation
62
1
39
211
10
7.878773
20
9.271675
11
7.882876
21
9.277490
0
LINE
8
annotation
62
1
39
211
10
7.882876
20
9.277490
11
7.885951
21
9.283979
0
LINE
8
annotation
62
1
39
211
10
7.885951
20
9.283979
11
7.887882
21
9.291025
0
LINE
8
annotation
62
1
39
211
10
7.887882
20
9.291025
11
7.888552
21
9.298509
0
LINE
8
annotation
62
1
39
211
10
7.888552
20
9.298509
11
7.888552
21
9.298509
0
LINE
8
annotation
62
1
39
211
10
7.888552
20
9.298509
11
7.887882
21
9.305958
0
LINE
8
annotation
62
1
39
211
10
7.887882
20
9.305958
11
7.885951
21
9.312976
0
LINE
8
annotation
62
1
39
211
10
7.885951
20
9.312976
11
7.882876
21
9.319445
0
LINE
8
annotation
62
1
39
211
10
7.882876
20
9.319445
11
7.878773
21
9.325245
0
LINE
8
annotation
62
1
39
211
10
7.878773
20
9.325245
11
7.873760
21
9.330258
0
LINE
8
annotation
62
1
39
211
10
7.873760
20
9.330258
11
7.867955
21
9.334363
0
LINE
8
annotation
62
1
39
211
10
7.867955
20
9.334363
11
7.861473
21
9.337444
0
LINE
8
annotation
62
1
39
211
10
7.861473
20
9.337444
11
7.854433
21
9.339379
0
LINE
8
annotation
62
1
39
211
10
7.854433
20
9.339379
11
7.846951
21
9.340050
0
LINE
8
annotation
62
1
39
211
10
7.846951
20
9.340050
11
7.805351
21
9.340050
0
LINE
8
frame
62
5
39
2
10
0.000000
20
0.000000
11
8.500000
21
0.000000
0
LINE
8
frame
62
5
39
2
10
8.500000
20
0.000000
11
8.500000
21
11.000000
0
LINE
8
frame
62
5
39
2
10
8.500000
20
11.000000
11
0.000000
21
11.000000
0
LINE
8
frame
62
5
39
2
10
0.000000
20
11.000000
11
0.000000
21
0.000000
0
ENDSEC
0
EOF
