0
SECTION
2
HEADER
9
$ACADVER
1
AC1009
0
ENDSEC
0
SECTION
2
TABLES
0
TABLE
2
VPORT
70
1
0
VPORT
2
ACTIVE
70
0
10
0.0
20
0.0
11
0.0
21
0.0
12
0.0
22
0.0
13
0.0
23
0.0
14
0.0
24
0.0
15
0.0
25
0.0
16
0.0
26
0.0
36
0.0
17
0.0
27
0.0
37
0.0
40
0.0
41
0.0
42
0.0
43
0.0
44
0.0
50
0.0
51
0.0
71
0
72
1000
73
1
74
3
75
0
76
0
77
0
78
0
0
ENDTAB
0
ENDSEC
0
SECTION
2
ENTITIES
0
LINE
8
hole
62
5
39
2
10
0.765284
20
0.817736
11
0.787784
21
0.817736
0
LINE
8
hole
62
5
39
2
10
0.787784
20
0.817736
11
0.787784
21
0.840236
0
LINE
8
hole
62
5
39
2
10
0.787784
20
0.840236
11
0.765284
21
0.840236
0
LINE
8
hole
62
5
39
2
10
0.765284
20
0.840236
11
0.765284
21
0.817736
0
LINE
8
hole
62
5
39
2
10
1.566693
20
0.483171
11
1.589193
21
0.483171
0
LINE
8
hole
62
5
39
2
10
1.589193
20
0.483171
11
1.589193
21
0.505671
0
LINE
8
hole
62
5
39
2
10
1.589193
20
0.505671
11
1.566693
21
0.505671
0
LINE
8
hole
62
5
39
2
10
1.566693
20
0.505671
11
1.566693
21
0.483171
0
LINE
8
hole
62
5
39
2
10
2.294389
20
1.202579
11
2.316889
21
1.202579
0
LINE
8
hole
62
5
39
2
10
2.316889
20
1.202579
11
2.316889
21
1.225079
0
LINE
8
hole
62
5
39
2
10
2.316889
20
1.225079
11
2.294389
21
1.225079
0
LINE
8
hole
62
5
39
2
10
2.294389
20
1.225079
11
2.294389
21
1.202579
0
LINE
8
hole
62
5
39
2
10
1.851026
20
1.518569
11
1.873526
21
1.518569
0
LINE
8
hole
62
5
39
2
10
1.873526
20
1.518569
11
1.873526
21
1.541069
0
LINE
8
hole
62
5
39
2
10
1.873526
20
1.541069
11
1.851026
21
1.541069
0
LINE
8
hole
62
5
39
2
10
1.851026
20
1.541069
11
1.851026
21
1.518569
0
LINE
8
boundary
62
5
39
2
10
2.605571
20
0.262500
11
2.171829
21
2.183908
0
LINE
8
boundary
62
5
39
2
10
2.171829
20
2.183908
11
0.262500
21
0.551443
0
LINE
8
boundary
62
5
39
2
10
0.262500
20
0.551443
11
2.605571
21
0.262500
0
LINE
8
annotation
62
1
39
211
10
1.862276
20
1.529819
11
1.862276
21
1.586069
0
LINE
8
annotation
62
1
39
211
10
1.862276
20
1.529819
11
1.862276
21
1.586069
0
LINE
8
annotation
62
1
39
211
10
1.862276
20
1.586069
11
1.862276
21
1.529819
0
LINE
8
annotation
62
1
39
211
10
1.862276
20
1.529819
11
1.862276
21
1.473569
0
LINE
8
annotation
62
1
39
211
10
1.577943
20
0.494421
11
1.634193
21
0.494421
0
LINE
8
annotation
62
1
39
211
10
1.577943
20
0.494421
11
1.634193
21
0.494421
0
LINE
8
annotation
62
1
39
211
10
1.634193
20
0.494421
11
1.577943
21
0.494421
0
LINE
8
annotation
62
1
39
211
10
1.577943
20
0.494421
11
1.577943
21
0.438171
0
LINE
8
annotation
62
1
39
211
10
2.305639
20
1.213829
11
2.305639
21
1.270079
0
LINE
8
annotation
62
1
39
211
10
0.776534
20
0.828986
11
0.832784
21
0.828986
0
LINE
8
annotation
62
1
39
211
10
1.898735
20
0.770360
11
1.898735
21
0.770360
0
LINE
8
annotation
62
1
39
211
10
1.898735
20
0.770360
11
1.946949
21
0.788327
0
LINE
8
annotation
62
1
39
211
10
1.946949
20
0.788327
11
1.991203
21
0.812612
0
LINE
8
annotation
62
1
39
211
10
1.991203
20
0.812612
11
2.031040
21
0.842597
0
LINE
8
annotation
62
1
39
211
10
2.031040
20
0.842597
11
2.066003
21
0.877663
0
LINE
8
annotation
62
1
39
211
10
2.066003
20
0.877663
11
2.095635
21
0.917192
0
LINE
8
annotation
62
1
39
211
10
2.095635
20
0.917192
11
2.119478
21
0.960564
0
LINE
8
annotation
62
1
39
211
10
2.119478
20
0.960564
11
2.137075
21
1.007160
0
LINE
8
annotation
62
1
39
211
10
2.137075
20
1.007160
11
2.147968
21
1.056363
0
LINE
8
annotation
62
1
39
211
10
2.147968
20
1.056363
11
2.151701
21
1.107553
0
LINE
8
annotation
62
1
39
211
10
2.151701
20
1.107553
11
2.151701
21
1.360757
0
LINE
8
annotation
62
1
39
211
10
2.151701
20
1.360757
11
2.151701
21
1.360757
0
LINE
8
annotation
62
1
39
211
10
2.151701
20
1.360757
11
2.148987
21
1.391087
0
LINE
8
annotation
62
1
39
211
10
2.148987
20
1.391087
11
2.141161
21
1.419641
0
LINE
8
annotation
62
1
39
211
10
2.141161
20
1.419641
11
2.128697
21
1.445941
0
LINE
8
annotation
62
1
39
211
10
2.128697
20
1.445941
11
2.112071
21
1.469507
0
LINE
8
annotation
62
1
39
211
10
2.112071
20
1.469507
11
2.091756
21
1.489861
0
LINE
8
annotation
62
1
39
211
10
2.091756
20
1.489861
11
2.068227
21
1.506525
0
LINE
8
annotation
62
1
39
211
10
2.068227
20
1.506525
11
2.041960
21
1.519021
0
LINE
8
annotation
62
1
39
211
10
2.041960
20
1.519021
11
2.013427
21
1.526869
0
LINE
8
annotation
62
1
39
211
10
2.013427
20
1.526869
11
1.983105
21
1.529591
0
LINE
8
annotation
62
1
39
211
10
1.983105
20
1.529591
11
1.983105
21
1.529591
0
LINE
8
annotation
62
1
39
211
10
1.983105
20
1.529591
11
1.952845
21
1.526869
0
LINE
8
annotation
62
1
39
211
10
1.952845
20
1.526869
11
1.924346
21
1.519021
0
LINE
8
annotation
62
1
39
211
10
1.924346
20
1.519021
11
1.898088
21
1.506525
0
LINE
8
annotation
62
1
39
211
10
1.898088
20
1.506525
11
1.874552
21
1.489861
0
LINE
8
annotation
62
1
39
211
10
1.874552
20
1.489861
11
1.854217
21
1.469507
0
LINE
8
annotation
62
1
39
211
10
1.854217
20
1.469507
11
1.837565
21
1.445941
0
LINE
8
annotation
62
1
39
211
10
1.837565
20
1.445941
11
1.825076
21
1.419641
0
LINE
8
annotation
62
1
39
211
10
1.825076
20
1.419641
11
1.817230
21
1.391087
0
LINE
8
annotation
62
1
39
211
10
1.817230
20
1.391087
11
1.814508
21
1.360757
0
LINE
8
annotation
62
1
39
211
10
1.814508
20
1.360757
11
1.814508
21
1.276339
0
LINE
8
annotation
62
1
39
211
10
1.814508
20
1.276339
11
1.814508
21
1.276339
0
LINE
8
annotation
62
1
39
211
10
1.814508
20
1.276339
11
1.817230
21
1.246010
0
LINE
8
annotation
62
1
39
211
10
1.817230
20
1.246010
11
1.825076
21
1.217461
0
LINE
8
annotation
62
1
39
211
10
1.825076
20
1.217461
11
1.837565
21
1.191167
0
LINE
8
annotation
62
1
39
211
10
1.837565
20
1.191167
11
1.854217
21
1.167609
0
LINE
8
annotation
62
1
39
211
10
1.854217
20
1.167609
11
1.874552
21
1.147263
0
LINE
8
annotation
62
1
39
211
10
1.874552
20
1.147263
11
1.898088
21
1.130606
0
LINE
8
annotation
62
1
39
211
10
1.898088
20
1.130606
11
1.924346
21
1.118117
0
LINE
8
annotation
62
1
39
211
10
1.924346
20
1.118117
11
1.952845
21
1.110273
0
LINE
8
annotation
62
1
39
211
10
1.952845
20
1.110273
11
1.983105
21
1.107553
0
LINE
8
annotation
62
1
39
211
10
1.983105
20
1.107553
11
2.151701
21
1.107553
0
LINE
8
annotation
62
1
39
211
10
1.793440
20
0.675456
11
2.173055
21
0.675456
0
LINE
8
hole
62
5
39
2
10
4.530250
20
0.987277
11
4.552750
21
0.987277
0
LINE
8
hole
62
5
39
2
10
4.552750
20
0.987277
11
4.552750
21
1.009777
0
LINE
8
hole
62
5
39
2
10
4.552750
20
1.009777
11
4.530250
21
1.009777
0
LINE
8
hole
62
5
39
2
10
4.530250
20
1.009777
11
4.530250
21
0.987277
0
LINE
8
hole
62
5
39
2
10
3.759176
20
0.448382
11
3.781676
21
0.448382
0
LINE
8
hole
62
5
39
2
10
3.781676
20
0.448382
11
3.781676
21
0.470882
0
LINE
8
hole
62
5
39
2
10
3.781676
20
0.470882
11
3.759176
21
0.470882
0
LINE
8
hole
62
5
39
2
10
3.759176
20
0.470882
11
3.759176
21
0.448382
0
LINE
8
hole
62
5
39
2
10
4.043509
20
1.483780
11
4.066009
21
1.483780
0
LINE
8
hole
62
5
39
2
10
4.066009
20
1.483780
11
4.066009
21
1.506280
0
LINE
8
hole
62
5
39
2
10
4.066009
20
1.506280
11
4.043509
21
1.506280
0
LINE
8
hole
62
5
39
2
10
4.043509
20
1.506280
11
4.043509
21
1.483780
0
LINE
8
hole
62
5
39
2
10
3.396449
20
0.686765
11
3.418949
21
0.686765
0
LINE
8
hole
62
5
39
2
10
3.418949
20
0.686765
11
3.418949
21
0.709265
0
LINE
8
hole
62
5
39
2
10
3.418949
20
0.709265
11
3.396449
21
0.709265
0
LINE
8
hole
62
5
39
2
10
3.396449
20
0.709265
11
3.396449
21
0.686765
0
LINE
8
boundary
62
5
39
2
10
4.791532
20
0.262500
11
4.410013
21
1.952567
0
LINE
8
boundary
62
5
39
2
10
4.410013
20
1.952567
11
2.730571
21
0.516654
0
LINE
8
boundary
62
5
39
2
10
2.730571
20
0.516654
11
4.791532
21
0.262500
0
LINE
8
annotation
62
1
39
211
10
4.541500
20
0.998527
11
4.541500
21
1.054777
0
LINE
8
annotation
62
1
39
211
10
4.541500
20
0.998527
11
4.541500
21
1.054777
0
LINE
8
annotation
62
1
39
211
10
4.541500
20
1.054777
11
4.541500
21
0.998527
0
LINE
8
annotation
62
1
39
211
10
4.541500
20
0.998527
11
4.597750
21
0.998527
0
LINE
8
annotation
62
1
39
211
10
3.407699
20
0.698015
11
3.407699
21
0.641765
0
LINE
8
annotation
62
1
39
211
10
4.054759
20
1.495030
11
4.054759
21
1.551280
0
LINE
8
annotation
62
1
39
211
10
4.054759
20
1.495030
11
4.054759
21
1.551280
0
LINE
8
annotation
62
1
39
211
10
4.054759
20
1.551280
11
4.054759
21
1.495030
0
LINE
8
annotation
62
1
39
211
10
4.054759
20
1.495030
11
4.054759
21
1.438780
0
LINE
8
annotation
62
1
39
211
10
3.770426
20
0.459632
11
3.826676
21
0.459632
0
LINE
8
annotation
62
1
39
211
10
3.770426
20
0.459632
11
3.826676
21
0.459632
0
LINE
8
annotation
62
1
39
211
10
3.826676
20
0.459632
11
3.770426
21
0.459632
0
LINE
8
annotation
62
1
39
211
10
3.770426
20
0.459632
11
3.770426
21
0.403382
0
LINE
8
annotation
62
1
39
211
10
4.176655
20
0.877929
11
4.176655
21
0.877929
0
LINE
8
annotation
62
1
39
211
10
4.176655
20
0.877929
11
4.178783
21
0.854227
0
LINE
8
annotation
62
1
39
211
10
4.178783
20
0.854227
11
4.184917
21
0.831936
0
LINE
8
annotation
62
1
39
211
10
4.184917
20
0.831936
11
4.194682
21
0.811423
0
LINE
8
annotation
62
1
39
211
10
4.194682
20
0.811423
11
4.207702
21
0.793056
0
LINE
8
annotation
62
1
39
211
10
4.207702
20
0.793056
11
4.223600
21
0.777203
0
LINE
8
annotation
62
1
39
211
10
4.223600
20
0.777203
11
4.242003
21
0.764233
0
LINE
8
annotation
62
1
39
211
10
4.242003
20
0.764233
11
4.262533
21
0.754513
0
LINE
8
annotation
62
1
39
211
10
4.262533
20
0.754513
11
4.284815
21
0.748411
0
LINE
8
annotation
62
1
39
211
10
4.284815
20
0.748411
11
4.308474
21
0.746295
0
LINE
8
annotation
62
1
39
211
10
4.308474
20
0.746295
11
4.308474
21
0.746295
0
LINE
8
annotation
62
1
39
211
10
4.308474
20
0.746295
11
4.332133
21
0.748411
0
LINE
8
annotation
62
1
39
211
10
4.332133
20
0.748411
11
4.354416
21
0.754513
0
LINE
8
annotation
62
1
39
211
10
4.354416
20
0.754513
11
4.374946
21
0.764233
0
LINE
8
annotation
62
1
39
211
10
4.374946
20
0.764233
11
4.393348
21
0.777203
0
LINE
8
annotation
62
1
39
211
10
4.393348
20
0.777203
11
4.409247
21
0.793056
0
LINE
8
annotation
62
1
39
211
10
4.409247
20
0.793056
11
4.422267
21
0.811423
0
LINE
8
annotation
62
1
39
211
10
4.422267
20
0.811423
11
4.432031
21
0.831936
0
LINE
8
annotation
62
1
39
211
10
4.432031
20
0.831936
11
4.438166
21
0.854227
0
LINE
8
annotation
62
1
39
211
10
4.438166
20
0.854227
11
4.440294
21
0.877929
0
LINE
8
annotation
62
1
39
211
10
4.440294
20
0.877929
11
4.440294
21
0.943596
0
LINE
8
annotation
62
1
39
211
10
4.440294
20
0.943596
11
4.440294
21
0.943596
0
LINE
8
annotation
62
1
39
211
10
4.440294
20
0.943596
11
4.438167
21
0.967310
0
LINE
8
annotation
62
1
39
211
10
4.438167
20
0.967310
11
4.432036
21
0.989632
0
LINE
8
annotation
62
1
39
211
10
4.432036
20
0.989632
11
4.422275
21
1.010189
0
LINE
8
annotation
62
1
39
211
10
4.422275
20
1.010189
11
4.409259
21
1.028609
0
LINE
8
annotation
62
1
39
211
10
4.409259
20
1.028609
11
4.393364
21
1.044517
0
LINE
8
annotation
62
1
39
211
10
4.393364
20
1.044517
11
4.374963
21
1.057540
0
LINE
8
annotation
62
1
39
211
10
4.374963
20
1.057540
11
4.354431
21
1.067305
0
LINE
8
annotation
62
1
39
211
10
4.354431
20
1.067305
11
4.332143
21
1.073438
0
LINE
8
annotation
62
1
39
211
10
4.332143
20
1.073438
11
4.308474
21
1.075565
0
LINE
8
annotation
62
1
39
211
10
4.308474
20
1.075565
11
4.308474
21
1.075565
0
LINE
8
annotation
62
1
39
211
10
4.308474
20
1.075565
11
4.284805
21
1.073436
0
LINE
8
annotation
62
1
39
211
10
4.284805
20
1.073436
11
4.262518
21
1.067301
0
LINE
8
annotation
62
1
39
211
10
4.262518
20
1.067301
11
4.241986
21
1.057532
0
LINE
8
annotation
62
1
39
211
10
4.241986
20
1.057532
11
4.223585
21
1.044505
0
LINE
8
annotation
62
1
39
211
10
4.223585
20
1.044505
11
4.207689
21
1.028594
0
LINE
8
annotation
62
1
39
211
10
4.207689
20
1.028594
11
4.194674
21
1.010173
0
LINE
8
annotation
62
1
39
211
10
4.194674
20
1.010173
11
4.184913
21
0.989617
0
LINE
8
annotation
62
1
39
211
10
4.184913
20
0.989617
11
4.178782
21
0.967300
0
LINE
8
annotation
62
1
39
211
10
4.178782
20
0.967300
11
4.176655
21
0.943596
0
LINE
8
annotation
62
1
39
211
10
4.176655
20
0.943596
11
4.176655
21
0.877929
0
LINE
8
annotation
62
1
39
211
10
4.440294
20
1.207571
11
4.440294
21
1.207571
0
LINE
8
annotation
62
1
39
211
10
4.440294
20
1.207571
11
4.438167
21
1.231174
0
LINE
8
annotation
62
1
39
211
10
4.438167
20
1.231174
11
4.432036
21
1.253414
0
LINE
8
annotation
62
1
39
211
10
4.432036
20
1.253414
11
4.422275
21
1.273911
0
LINE
8
annotation
62
1
39
211
10
4.422275
20
1.273911
11
4.409259
21
1.292290
0
LINE
8
annotation
62
1
39
211
10
4.409259
20
1.292290
11
4.393364
21
1.308173
0
LINE
8
annotation
62
1
39
211
10
4.393364
20
1.308173
11
4.374963
21
1.321184
0
LINE
8
annotation
62
1
39
211
10
4.374963
20
1.321184
11
4.354431
21
1.330944
0
LINE
8
annotation
62
1
39
211
10
4.354431
20
1.330944
11
4.332143
21
1.337076
0
LINE
8
annotation
62
1
39
211
10
4.332143
20
1.337076
11
4.308474
21
1.339204
0
LINE
8
annotation
62
1
39
211
10
4.308474
20
1.339204
11
4.308474
21
1.339204
0
LINE
8
annotation
62
1
39
211
10
4.308474
20
1.339204
11
4.284805
21
1.337076
0
LINE
8
annotation
62
1
39
211
10
4.284805
20
1.337076
11
4.262518
21
1.330944
0
LINE
8
annotation
62
1
39
211
10
4.262518
20
1.330944
11
4.241986
21
1.321184
0
LINE
8
annotation
62
1
39
211
10
4.241986
20
1.321184
11
4.223585
21
1.308173
0
LINE
8
annotation
62
1
39
211
10
4.223585
20
1.308173
11
4.207689
21
1.292290
0
LINE
8
annotation
62
1
39
211
10
4.207689
20
1.292290
11
4.194674
21
1.273911
0
LINE
8
annotation
62
1
39
211
10
4.194674
20
1.273911
11
4.184913
21
1.253414
0
LINE
8
annotation
62
1
39
211
10
4.184913
20
1.253414
11
4.178782
21
1.231174
0
LINE
8
annotation
62
1
39
211
10
4.178782
20
1.231174
11
4.176655
21
1.207571
0
LINE
8
annotation
62
1
39
211
10
4.176655
20
1.207571
11
4.176655
21
1.207571
0
LINE
8
annotation
62
1
39
211
10
4.176655
20
1.207571
11
4.178783
21
1.183856
0
LINE
8
annotation
62
1
39
211
10
4.178783
20
1.183856
11
4.184917
21
1.161531
0
LINE
8
annotation
62
1
39
211
10
4.184917
20
1.161531
11
4.194682
21
1.140968
0
LINE
8
annotation
62
1
39
211
10
4.194682
20
1.140968
11
4.207702
21
1.122543
0
LINE
8
annotation
62
1
39
211
10
4.207702
20
1.122543
11
4.223600
21
1.106628
0
LINE
8
annotation
62
1
39
211
10
4.223600
20
1.106628
11
4.242003
21
1.093599
0
LINE
8
annotation
62
1
39
211
10
4.242003
20
1.093599
11
4.262533
21
1.083830
0
LINE
8
annotation
62
1
39
211
10
4.262533
20
1.083830
11
4.284815
21
1.077693
0
LINE
8
annotation
62
1
39
211
10
4.284815
20
1.077693
11
4.308474
21
1.075565
0
LINE
8
annotation
62
1
39
211
10
4.308474
20
1.075565
11
4.308474
21
1.075565
0
LINE
8
annotation
62
1
39
211
10
4.308474
20
1.075565
11
4.332133
21
1.077693
0
LINE
8
annotation
62
1
39
211
10
4.332133
20
1.077693
11
4.354416
21
1.083830
0
LINE
8
annotation
62
1
39
211
10
4.354416
20
1.083830
11
4.374946
21
1.093599
0
LINE
8
annotation
62
1
39
211
10
4.374946
20
1.093599
11
4.393348
21
1.106628
0
LINE
8
annotation
62
1
39
211
10
4.393348
20
1.106628
11
4.409247
21
1.122543
0
LINE
8
annotation
62
1
39
211
10
4.409247
20
1.122543
11
4.422267
21
1.140968
0
LINE
8
annotation
62
1
39
211
10
4.422267
20
1.140968
11
4.432031
21
1.161531
0
LINE
8
annotation
62
1
39
211
10
4.432031
20
1.161531
11
4.438166
21
1.183856
0
LINE
8
annotation
62
1
39
211
10
4.438166
20
1.183856
11
4.440294
21
1.207571
0
LINE
8
hole
62
5
39
2
10
6.440623
20
0.952488
11
6.463123
21
0.952488
0
LINE
8
hole
62
5
39
2
10
6.463123
20
0.952488
11
6.463123
21
0.974988
0
LINE
8
hole
62
5
39
2
10
6.463123
20
0.974988
11
6.440623
21
0.974988
0
LINE
8
hole
62
5
39
2
10
6.440623
20
0.974988
11
6.440623
21
0.952488
0
LINE
8
hole
62
5
39
2
10
6.170773
20
1.163180
11
6.193273
21
1.163180
0
LINE
8
hole
62
5
39
2
10
6.193273
20
1.163180
11
6.193273
21
1.185680
0
LINE
8
hole
62
5
39
2
10
6.193273
20
1.185680
11
6.170773
21
1.185680
0
LINE
8
hole
62
5
39
2
10
6.170773
20
1.185680
11
6.170773
21
1.163180
0
LINE
8
hole
62
5
39
2
10
5.938615
20
0.455653
11
5.961115
21
0.455653
0
LINE
8
hole
62
5
39
2
10
5.961115
20
0.455653
11
5.961115
21
0.478153
0
LINE
8
hole
62
5
39
2
10
5.961115
20
0.478153
11
5.938615
21
0.478153
0
LINE
8
hole
62
5
39
2
10
5.938615
20
0.478153
11
5.938615
21
0.455653
0
LINE
8
hole
62
5
39
2
10
5.306822
20
0.651976
11
5.329322
21
0.651976
0
LINE
8
hole
62
5
39
2
10
5.329322
20
0.651976
11
5.329322
21
0.674476
0
LINE
8
hole
62
5
39
2
10
5.329322
20
0.674476
11
5.306822
21
0.674476
0
LINE
8
hole
62
5
39
2
10
5.306822
20
0.674476
11
5.306822
21
0.651976
0
LINE
8
boundary
62
5
39
2
10
6.695383
20
0.262500
11
6.366088
21
1.721226
0
LINE
8
boundary
62
5
39
2
10
6.366088
20
1.721226
11
4.916532
21
0.481864
0
LINE
8
boundary
62
5
39
2
10
4.916532
20
0.481864
11
6.695383
21
0.262500
0
LINE
8
annotation
62
1
39
211
10
6.182023
20
1.174430
11
6.182023
21
1.230680
0
LINE
8
annotation
62
1
39
211
10
5.949865
20
0.466903
11
6.006115
21
0.466903
0
LINE
8
annotation
62
1
39
211
10
6.451873
20
0.963738
11
6.451873
21
1.019988
0
LINE
8
annotation
62
1
39
211
10
6.451873
20
0.963738
11
6.451873
21
1.019988
0
LINE
8
annotation
62
1
39
211
10
6.451873
20
1.019988
11
6.451873
21
0.963738
0
LINE
8
annotation
62
1
39
211
10
6.451873
20
0.963738
11
6.508123
21
0.963738
0
LINE
8
annotation
62
1
39
211
10
5.318072
20
0.663226
11
5.318072
21
0.606976
0
LINE
8
annotation
62
1
39
211
10
6.222845
20
0.648066
11
6.350987
21
1.224471
0
LINE
8
annotation
62
1
39
211
10
6.350987
20
1.224471
11
6.094667
21
1.224471
0
LINE
8
annotation
62
1
39
211
10
6.350987
20
0.967789
11
6.222845
21
0.967789
0
LINE
8
hole
62
5
39
2
10
7.817926
20
0.758647
11
7.840426
21
0.758647
0
LINE
8
hole
62
5
39
2
10
7.840426
20
0.758647
11
7.840426
21
0.781147
0
LINE
8
hole
62
5
39
2
10
7.840426
20
0.781147
11
7.817926
21
0.781147
0
LINE
8
hole
62
5
39
2
10
7.817926
20
0.781147
11
7.817926
21
0.758647
0
LINE
8
hole
62
5
39
2
10
7.597857
20
0.409385
11
7.620357
21
0.409385
0
LINE
8
hole
62
5
39
2
10
7.620357
20
0.409385
11
7.620357
21
0.431885
0
LINE
8
hole
62
5
39
2
10
7.620357
20
0.431885
11
7.597857
21
0.431885
0
LINE
8
hole
62
5
39
2
10
7.597857
20
0.431885
11
7.597857
21
0.409385
0
LINE
8
hole
62
5
39
2
10
7.173180
20
0.542466
11
7.195680
21
0.542466
0
LINE
8
hole
62
5
39
2
10
7.195680
20
0.542466
11
7.195680
21
0.564966
0
LINE
8
hole
62
5
39
2
10
7.195680
20
0.564966
11
7.173180
21
0.564966
0
LINE
8
hole
62
5
39
2
10
7.173180
20
0.564966
11
7.173180
21
0.542466
0
LINE
8
hole
62
5
39
2
10
7.740339
20
0.807790
11
7.762839
21
0.807790
0
LINE
8
hole
62
5
39
2
10
7.762839
20
0.807790
11
7.762839
21
0.830290
0
LINE
8
hole
62
5
39
2
10
7.762839
20
0.830290
11
7.740339
21
0.830290
0
LINE
8
hole
62
5
39
2
10
7.740339
20
0.830290
11
7.740339
21
0.807790
0
LINE
8
boundary
62
5
39
2
10
8.035015
20
0.262500
11
7.810166
21
1.258544
0
LINE
8
boundary
62
5
39
2
10
7.810166
20
1.258544
11
6.820383
21
0.412286
0
LINE
8
boundary
62
5
39
2
10
6.820383
20
0.412286
11
8.035015
21
0.262500
0
LINE
8
annotation
62
1
39
211
10
7.751589
20
0.819040
11
7.751589
21
0.875290
0
LINE
8
annotation
62
1
39
211
10
7.751589
20
0.819040
11
7.751589
21
0.875290
0
LINE
8
annotation
62
1
39
211
10
7.751589
20
0.875290
11
7.751589
21
0.819040
0
LINE
8
annotation
62
1
39
211
10
7.751589
20
0.819040
11
7.807839
21
0.819040
0
LINE
8
annotation
62
1
39
211
10
7.609107
20
0.420635
11
7.609107
21
0.364385
0
LINE
8
annotation
62
1
39
211
10
7.829176
20
0.769897
11
7.829176
21
0.826147
0
LINE
8
annotation
62
1
39
211
10
7.829176
20
0.769897
11
7.829176
21
0.826147
0
LINE
8
annotation
62
1
39
211
10
7.829176
20
0.826147
11
7.829176
21
0.769897
0
LINE
8
annotation
62
1
39
211
10
7.829176
20
0.769897
11
7.829176
21
0.713647
0
LINE
8
annotation
62
1
39
211
10
7.184430
20
0.553716
11
7.240680
21
0.553716
0
LINE
8
annotation
62
1
39
211
10
7.184430
20
0.553716
11
7.240680
21
0.553716
0
LINE
8
annotation
62
1
39
211
10
7.240680
20
0.553716
11
7.184430
21
0.553716
0
LINE
8
annotation
62
1
39
211
10
7.184430
20
0.553716
11
7.184430
21
0.497466
0
LINE
8
annotation
62
1
39
211
10
7.416625
20
0.455619
11
7.484602
21
0.455619
0
LINE
8
annotation
62
1
39
211
10
7.484602
20
0.455619
11
7.484602
21
0.455619
0
LINE
8
annotation
62
1
39
211
10
7.484602
20
0.455619
11
7.496802
21
0.456716
0
LINE
8
annotation
62
1
39
211
10
7.496802
20
0.456716
11
7.508293
21
0.459879
0
LINE
8
annotation
62
1
39
211
10
7.508293
20
0.459879
11
7.518880
21
0.464914
0
LINE
8
annotation
62
1
39
211
10
7.518880
20
0.464914
11
7.528370
21
0.471630
0
LINE
8
annotation
62
1
39
211
10
7.528370
20
0.471630
11
7.536569
21
0.479833
0
LINE
8
annotation
62
1
39
211
10
7.536569
20
0.479833
11
7.543283
21
0.489332
0
LINE
8
annotation
62
1
39
211
10
7.543283
20
0.489332
11
7.548318
21
0.499933
0
LINE
8
annotation
62
1
39
211
10
7.548318
20
0.499933
11
7.551481
21
0.511445
0
LINE
8
annotation
62
1
39
211
10
7.551481
20
0.511445
11
7.552579
21
0.523673
0
LINE
8
annotation
62
1
39
211
10
7.552579
20
0.523673
11
7.552579
21
0.557537
0
LINE
8
annotation
62
1
39
211
10
7.552579
20
0.557537
11
7.552579
21
0.557537
0
LINE
8
annotation
62
1
39
211
10
7.552579
20
0.557537
11
7.551482
21
0.569759
0
LINE
8
annotation
62
1
39
211
10
7.551482
20
0.569759
11
7.548320
21
0.581255
0
LINE
8
annotation
62
1
39
211
10
7.548320
20
0.581255
11
7.543287
21
0.591833
0
LINE
8
annotation
62
1
39
211
10
7.543287
20
0.591833
11
7.536575
21
0.601304
0
LINE
8
annotation
62
1
39
211
10
7.536575
20
0.601304
11
7.528378
21
0.609479
0
LINE
8
annotation
62
1
39
211
10
7.528378
20
0.609479
11
7.518889
21
0.616168
0
LINE
8
annotation
62
1
39
211
10
7.518889
20
0.616168
11
7.508301
21
0.621180
0
LINE
8
annotation
62
1
39
211
10
7.508301
20
0.621180
11
7.496808
21
0.624327
0
LINE
8
annotation
62
1
39
211
10
7.496808
20
0.624327
11
7.484602
21
0.625418
0
LINE
8
annotation
62
1
39
211
10
7.484602
20
0.625418
11
7.416625
21
0.625418
0
LINE
8
annotation
62
1
39
211
10
7.416625
20
0.625418
11
7.416625
21
0.761737
0
LINE
8
annotation
62
1
39
211
10
7.416625
20
0.761737
11
7.552579
21
0.761737
0
LINE
8
frame
62
5
39
2
10
0.000000
20
0.000000
11
8.500000
21
0.000000
0
LINE
8
frame
62
5
39
2
10
8.500000
20
0.000000
11
8.500000
21
11.000000
0
LINE
8
frame
62
5
39
2
10
8.500000
20
11.000000
11
0.000000
21
11.000000
0
LINE
8
frame
62
5
39
2
10
0.000000
20
11.000000
11
0.000000
21
0.000000
0
ENDSEC
0
EOF
