0
SECTION
2
HEADER
9
$ACADVER
1
AC1009
0
ENDSEC
0
SECTION
2
TABLES
0
TABLE
2
VPORT
70
1
0
VPORT
2
ACTIVE
70
0
10
0.0
20
0.0
11
0.0
21
0.0
12
0.0
22
0.0
13
0.0
23
0.0
14
0.0
24
0.0
15
0.0
25
0.0
16
0.0
26
0.0
36
0.0
17
0.0
27
0.0
37
0.0
40
0.0
41
0.0
42
0.0
43
0.0
44
0.0
50
0.0
51
0.0
71
0
72
1000
73
1
74
3
75
0
76
0
77
0
78
0
0
ENDTAB
0
ENDSEC
0
SECTION
2
ENTITIES
0
LINE
8
hole
62
5
39
2
10
2.853880
20
2.584739
11
2.876380
21
2.584739
0
LINE
8
hole
62
5
39
2
10
2.876380
20
2.584739
11
2.876380
21
2.607239
0
LINE
8
hole
62
5
39
2
10
2.876380
20
2.607239
11
2.853880
21
2.607239
0
LINE
8
hole
62
5
39
2
10
2.853880
20
2.607239
11
2.853880
21
2.584739
0
LINE
8
hole
62
5
39
2
10
2.403648
20
0.593850
11
2.426148
21
0.593850
0
LINE
8
hole
62
5
39
2
10
2.426148
20
0.593850
11
2.426148
21
0.616350
0
LINE
8
hole
62
5
39
2
10
2.426148
20
0.616350
11
2.403648
21
0.616350
0
LINE
8
hole
62
5
39
2
10
2.403648
20
0.616350
11
2.403648
21
0.593850
0
LINE
8
hole
62
5
39
2
10
1.102764
20
1.315015
11
1.125264
21
1.315015
0
LINE
8
hole
62
5
39
2
10
1.125264
20
1.315015
11
1.125264
21
1.337515
0
LINE
8
hole
62
5
39
2
10
1.125264
20
1.337515
11
1.102764
21
1.337515
0
LINE
8
hole
62
5
39
2
10
1.102764
20
1.337515
11
1.102764
21
1.315015
0
LINE
8
hole
62
5
39
2
10
3.836532
20
1.877851
11
3.859032
21
1.877851
0
LINE
8
hole
62
5
39
2
10
3.859032
20
1.877851
11
3.859032
21
1.900351
0
LINE
8
hole
62
5
39
2
10
3.859032
20
1.900351
11
3.836532
21
1.900351
0
LINE
8
hole
62
5
39
2
10
3.836532
20
1.900351
11
3.836532
21
1.877851
0
LINE
8
boundary
62
5
39
2
10
4.298230
20
0.262500
11
3.551148
21
3.571953
0
LINE
8
boundary
62
5
39
2
10
3.551148
20
3.571953
11
0.262500
21
0.760178
0
LINE
8
boundary
62
5
39
2
10
0.262500
20
0.760178
11
4.298230
21
0.262500
0
LINE
8
annotation
62
1
39
211
10
2.865130
20
2.595989
11
2.865130
21
2.652239
0
LINE
8
annotation
62
1
39
211
10
2.865130
20
2.595989
11
2.865130
21
2.652239
0
LINE
8
annotation
62
1
39
211
10
2.865130
20
2.652239
11
2.865130
21
2.595989
0
LINE
8
annotation
62
1
39
211
10
2.865130
20
2.595989
11
2.865130
21
2.539739
0
LINE
8
annotation
62
1
39
211
10
2.414898
20
0.605100
11
2.471148
21
0.605100
0
LINE
8
annotation
62
1
39
211
10
2.414898
20
0.605100
11
2.471148
21
0.605100
0
LINE
8
annotation
62
1
39
211
10
2.471148
20
0.605100
11
2.414898
21
0.605100
0
LINE
8
annotation
62
1
39
211
10
2.414898
20
0.605100
11
2.414898
21
0.548850
0
LINE
8
annotation
62
1
39
211
10
3.847782
20
1.889101
11
3.847782
21
1.945351
0
LINE
8
annotation
62
1
39
211
10
1.114014
20
1.326265
11
1.170264
21
1.326265
0
LINE
8
annotation
62
1
39
211
10
2.670470
20
1.030286
11
2.670470
21
2.047392
0
LINE
8
annotation
62
1
39
211
10
2.670470
20
2.047392
11
2.444354
21
1.821212
0
LINE
8
annotation
62
1
39
211
10
3.051852
20
1.030286
11
3.277713
21
1.030286
0
LINE
8
annotation
62
1
39
211
10
3.277713
20
1.030286
11
3.277713
21
1.030286
0
LINE
8
annotation
62
1
39
211
10
3.277713
20
1.030286
11
3.318250
21
1.033931
0
LINE
8
annotation
62
1
39
211
10
3.318250
20
1.033931
11
3.356429
21
1.044439
0
LINE
8
annotation
62
1
39
211
10
3.356429
20
1.044439
11
3.391606
21
1.061169
0
LINE
8
annotation
62
1
39
211
10
3.391606
20
1.061169
11
3.423136
21
1.083483
0
LINE
8
annotation
62
1
39
211
10
3.423136
20
1.083483
11
3.450377
21
1.110740
0
LINE
8
annotation
62
1
39
211
10
3.450377
20
1.110740
11
3.472685
21
1.142301
0
LINE
8
annotation
62
1
39
211
10
3.472685
20
1.142301
11
3.489416
21
1.177524
0
LINE
8
annotation
62
1
39
211
10
3.489416
20
1.177524
11
3.499927
21
1.215771
0
LINE
8
annotation
62
1
39
211
10
3.499927
20
1.215771
11
3.503573
21
1.256402
0
LINE
8
annotation
62
1
39
211
10
3.503573
20
1.256402
11
3.503573
21
1.368917
0
LINE
8
annotation
62
1
39
211
10
3.503573
20
1.368917
11
3.503573
21
1.368917
0
LINE
8
annotation
62
1
39
211
10
3.503573
20
1.368917
11
3.499929
21
1.409528
0
LINE
8
annotation
62
1
39
211
10
3.499929
20
1.409528
11
3.489423
21
1.447722
0
LINE
8
annotation
62
1
39
211
10
3.489423
20
1.447722
11
3.472699
21
1.482869
0
LINE
8
annotation
62
1
39
211
10
3.472699
20
1.482869
11
3.450398
21
1.514339
0
LINE
8
annotation
62
1
39
211
10
3.450398
20
1.514339
11
3.423162
21
1.541501
0
LINE
8
annotation
62
1
39
211
10
3.423162
20
1.541501
11
3.391634
21
1.563724
0
LINE
8
annotation
62
1
39
211
10
3.391634
20
1.563724
11
3.356455
21
1.580379
0
LINE
8
annotation
62
1
39
211
10
3.356455
20
1.580379
11
3.318267
21
1.590834
0
LINE
8
annotation
62
1
39
211
10
3.318267
20
1.590834
11
3.277713
21
1.594459
0
LINE
8
annotation
62
1
39
211
10
3.277713
20
1.594459
11
3.051852
21
1.594459
0
LINE
8
annotation
62
1
39
211
10
3.051852
20
1.594459
11
3.051852
21
2.047392
0
LINE
8
annotation
62
1
39
211
10
3.051852
20
2.047392
11
3.503573
21
2.047392
0
LINE
8
hole
62
5
39
2
10
5.981612
20
3.113931
11
6.004112
21
3.113931
0
LINE
8
hole
62
5
39
2
10
6.004112
20
3.113931
11
6.004112
21
3.136431
0
LINE
8
hole
62
5
39
2
10
6.004112
20
3.136431
11
5.981612
21
3.136431
0
LINE
8
hole
62
5
39
2
10
5.981612
20
3.136431
11
5.981612
21
3.113931
0
LINE
8
hole
62
5
39
2
10
6.328120
20
1.851694
11
6.350620
21
1.851694
0
LINE
8
hole
62
5
39
2
10
6.350620
20
1.851694
11
6.350620
21
1.874194
0
LINE
8
hole
62
5
39
2
10
6.350620
20
1.874194
11
6.328120
21
1.874194
0
LINE
8
hole
62
5
39
2
10
6.328120
20
1.874194
11
6.328120
21
1.851694
0
LINE
8
hole
62
5
39
2
10
5.436356
20
1.463336
11
5.458856
21
1.463336
0
LINE
8
hole
62
5
39
2
10
5.458856
20
1.463336
11
5.458856
21
1.485836
0
LINE
8
hole
62
5
39
2
10
5.458856
20
1.485836
11
5.436356
21
1.485836
0
LINE
8
hole
62
5
39
2
10
5.436356
20
1.485836
11
5.436356
21
1.463336
0
LINE
8
hole
62
5
39
2
10
5.412503
20
0.657453
11
5.435003
21
0.657453
0
LINE
8
hole
62
5
39
2
10
5.435003
20
0.657453
11
5.435003
21
0.679953
0
LINE
8
hole
62
5
39
2
10
5.435003
20
0.679953
11
5.412503
21
0.679953
0
LINE
8
hole
62
5
39
2
10
5.412503
20
0.679953
11
5.412503
21
0.657453
0
LINE
8
boundary
62
5
39
2
10
6.784247
20
0.262500
11
6.053227
21
3.500802
0
LINE
8
boundary
62
5
39
2
10
6.053227
20
3.500802
11
4.423230
21
0.553656
0
LINE
8
boundary
62
5
39
2
10
4.423230
20
0.553656
11
6.784247
21
0.262500
0
LINE
8
annotation
62
1
39
211
10
6.071732
20
2.817626
11
4.886719
21
0.675042
0
LINE
8
annotation
62
1
39
211
10
5.992862
20
3.125181
11
5.992862
21
3.181431
0
LINE
8
annotation
62
1
39
211
10
5.992862
20
3.125181
11
5.992862
21
3.181431
0
LINE
8
annotation
62
1
39
211
10
5.992862
20
3.181431
11
5.992862
21
3.125181
0
LINE
8
annotation
62
1
39
211
10
5.992862
20
3.125181
11
5.992862
21
3.068931
0
LINE
8
annotation
62
1
39
211
10
5.423753
20
0.668703
11
5.480003
21
0.668703
0
LINE
8
annotation
62
1
39
211
10
5.423753
20
0.668703
11
5.480003
21
0.668703
0
LINE
8
annotation
62
1
39
211
10
5.480003
20
0.668703
11
5.423753
21
0.668703
0
LINE
8
annotation
62
1
39
211
10
5.423753
20
0.668703
11
5.423753
21
0.612453
0
LINE
8
annotation
62
1
39
211
10
6.339370
20
1.862944
11
6.339370
21
1.919194
0
LINE
8
annotation
62
1
39
211
10
5.447606
20
1.474586
11
5.503856
21
1.474586
0
LINE
8
annotation
62
1
39
211
10
5.913239
20
0.932324
11
5.654336
21
0.932324
0
LINE
8
annotation
62
1
39
211
10
5.654336
20
0.932324
11
5.893571
21
1.317462
0
LINE
8
annotation
62
1
39
211
10
5.893571
20
1.317462
11
5.893571
21
1.317462
0
LINE
8
annotation
62
1
39
211
10
5.893571
20
1.317462
11
5.893857
21
1.317816
0
LINE
8
annotation
62
1
39
211
10
5.893857
20
1.317816
11
5.894131
21
1.318173
0
LINE
8
annotation
62
1
39
211
10
5.894131
20
1.318173
11
5.894395
21
1.318535
0
LINE
8
annotation
62
1
39
211
10
5.894395
20
1.318535
11
5.894651
21
1.318907
0
LINE
8
annotation
62
1
39
211
10
5.894651
20
1.318907
11
5.894901
21
1.319291
0
LINE
8
annotation
62
1
39
211
10
5.894901
20
1.319291
11
5.895147
21
1.319690
0
LINE
8
annotation
62
1
39
211
10
5.895147
20
1.319690
11
5.895389
21
1.320108
0
LINE
8
annotation
62
1
39
211
10
5.895389
20
1.320108
11
5.895631
21
1.320546
0
LINE
8
annotation
62
1
39
211
10
5.895631
20
1.320546
11
5.895874
21
1.321008
0
LINE
8
annotation
62
1
39
211
10
5.895874
20
1.321008
11
5.895874
21
1.321008
0
LINE
8
annotation
62
1
39
211
10
5.895874
20
1.321008
11
5.905752
21
1.342217
0
LINE
8
annotation
62
1
39
211
10
5.905752
20
1.342217
11
5.911522
21
1.364201
0
LINE
8
annotation
62
1
39
211
10
5.911522
20
1.364201
11
5.913327
21
1.386466
0
LINE
8
annotation
62
1
39
211
10
5.913327
20
1.386466
11
5.911307
21
1.408512
0
LINE
8
annotation
62
1
39
211
10
5.911307
20
1.408512
11
5.905604
21
1.429844
0
LINE
8
annotation
62
1
39
211
10
5.905604
20
1.429844
11
5.896359
21
1.449965
0
LINE
8
annotation
62
1
39
211
10
5.896359
20
1.449965
11
5.883713
21
1.468379
0
LINE
8
annotation
62
1
39
211
10
5.883713
20
1.468379
11
5.867809
21
1.484587
0
LINE
8
annotation
62
1
39
211
10
5.867809
20
1.484587
11
5.848787
21
1.498094
0
LINE
8
annotation
62
1
39
211
10
5.848787
20
1.498094
11
5.848787
21
1.498094
0
LINE
8
annotation
62
1
39
211
10
5.848787
20
1.498094
11
5.827519
21
1.507832
0
LINE
8
annotation
62
1
39
211
10
5.827519
20
1.507832
11
5.805501
21
1.513514
0
LINE
8
annotation
62
1
39
211
10
5.805501
20
1.513514
11
5.783224
21
1.515267
0
LINE
8
annotation
62
1
39
211
10
5.783224
20
1.515267
11
5.761181
21
1.513221
0
LINE
8
annotation
62
1
39
211
10
5.761181
20
1.513221
11
5.739864
21
1.507501
0
LINE
8
annotation
62
1
39
211
10
5.739864
20
1.507501
11
5.719765
21
1.498238
0
LINE
8
annotation
62
1
39
211
10
5.719765
20
1.498238
11
5.701377
21
1.485558
0
LINE
8
annotation
62
1
39
211
10
5.701377
20
1.485558
11
5.685191
21
1.469589
0
LINE
8
annotation
62
1
39
211
10
5.685191
20
1.469589
11
5.671701
21
1.450459
0
LINE
8
annotation
62
1
39
211
10
5.671701
20
1.450459
11
5.654701
21
1.417850
0
LINE
8
annotation
62
1
39
211
10
6.261506
20
0.932329
11
6.261506
21
1.515281
0
LINE
8
annotation
62
1
39
211
10
6.261506
20
1.515281
11
6.131908
21
1.385647
0
LINE
8
hole
62
5
39
2
10
7.872407
20
1.418818
11
7.894907
21
1.418818
0
LINE
8
hole
62
5
39
2
10
7.894907
20
1.418818
11
7.894907
21
1.441318
0
LINE
8
hole
62
5
39
2
10
7.894907
20
1.441318
11
7.872407
21
1.441318
0
LINE
8
hole
62
5
39
2
10
7.872407
20
1.441318
11
7.872407
21
1.418818
0
LINE
8
hole
62
5
39
2
10
7.387383
20
1.084322
11
7.409883
21
1.084322
0
LINE
8
hole
62
5
39
2
10
7.409883
20
1.084322
11
7.409883
21
1.106822
0
LINE
8
hole
62
5
39
2
10
7.409883
20
1.106822
11
7.387383
21
1.106822
0
LINE
8
hole
62
5
39
2
10
7.387383
20
1.106822
11
7.387383
21
1.084322
0
LINE
8
hole
62
5
39
2
10
7.558116
20
0.432330
11
7.580616
21
0.432330
0
LINE
8
hole
62
5
39
2
10
7.580616
20
0.432330
11
7.580616
21
0.454830
0
LINE
8
hole
62
5
39
2
10
7.580616
20
0.454830
11
7.558116
21
0.454830
0
LINE
8
hole
62
5
39
2
10
7.558116
20
0.454830
11
7.558116
21
0.432330
0
LINE
8
hole
62
5
39
2
10
7.876524
20
1.185801
11
7.899024
21
1.185801
0
LINE
8
hole
62
5
39
2
10
7.899024
20
1.185801
11
7.899024
21
1.208301
0
LINE
8
hole
62
5
39
2
10
7.899024
20
1.208301
11
7.876524
21
1.208301
0
LINE
8
hole
62
5
39
2
10
7.876524
20
1.208301
11
7.876524
21
1.185801
0
LINE
8
boundary
62
5
39
2
10
8.229485
20
0.262500
11
7.820711
21
2.073300
0
LINE
8
boundary
62
5
39
2
10
7.820711
20
2.073300
11
6.909247
21
0.425309
0
LINE
8
boundary
62
5
39
2
10
6.909247
20
0.425309
11
8.229485
21
0.262500
0
LINE
8
annotation
62
1
39
211
10
7.833659
20
1.380079
11
7.372735
21
0.546695
0
LINE
8
annotation
62
1
39
211
10
7.883657
20
1.430068
11
7.883657
21
1.486318
0
LINE
8
annotation
62
1
39
211
10
7.883657
20
1.430068
11
7.883657
21
1.486318
0
LINE
8
annotation
62
1
39
211
10
7.883657
20
1.486318
11
7.883657
21
1.430068
0
LINE
8
annotation
62
1
39
211
10
7.883657
20
1.430068
11
7.883657
21
1.373818
0
LINE
8
annotation
62
1
39
211
10
7.398633
20
1.095572
11
7.454883
21
1.095572
0
LINE
8
annotation
62
1
39
211
10
7.398633
20
1.095572
11
7.454883
21
1.095572
0
LINE
8
annotation
62
1
39
211
10
7.454883
20
1.095572
11
7.398633
21
1.095572
0
LINE
8
annotation
62
1
39
211
10
7.398633
20
1.095572
11
7.398633
21
1.039322
0
LINE
8
annotation
62
1
39
211
10
7.887774
20
1.197051
11
7.887774
21
1.253301
0
LINE
8
annotation
62
1
39
211
10
7.569366
20
0.443580
11
7.625616
21
0.443580
0
LINE
8
annotation
62
1
39
211
10
7.559127
20
0.547862
11
7.385398
21
0.547862
0
LINE
8
annotation
62
1
39
211
10
7.385398
20
0.547862
11
7.545929
21
0.806297
0
LINE
8
annotation
62
1
39
211
10
7.545929
20
0.806297
11
7.545929
21
0.806297
0
LINE
8
annotation
62
1
39
211
10
7.545929
20
0.806297
11
7.546121
21
0.806534
0
LINE
8
annotation
62
1
39
211
10
7.546121
20
0.806534
11
7.546305
21
0.806774
0
LINE
8
annotation
62
1
39
211
10
7.546305
20
0.806774
11
7.546483
21
0.807017
0
LINE
8
annotation
62
1
39
211
10
7.546483
20
0.807017
11
7.546655
21
0.807267
0
LINE
8
annotation
62
1
39
211
10
7.546655
20
0.807267
11
7.546822
21
0.807524
0
LINE
8
annotation
62
1
39
211
10
7.546822
20
0.807524
11
7.546987
21
0.807792
0
LINE
8
annotation
62
1
39
211
10
7.546987
20
0.807792
11
7.547150
21
0.808072
0
LINE
8
annotation
62
1
39
211
10
7.547150
20
0.808072
11
7.547312
21
0.808366
0
LINE
8
annotation
62
1
39
211
10
7.547312
20
0.808366
11
7.547475
21
0.808676
0
LINE
8
annotation
62
1
39
211
10
7.547475
20
0.808676
11
7.547475
21
0.808676
0
LINE
8
annotation
62
1
39
211
10
7.547475
20
0.808676
11
7.554103
21
0.822908
0
LINE
8
annotation
62
1
39
211
10
7.554103
20
0.822908
11
7.557975
21
0.837660
0
LINE
8
annotation
62
1
39
211
10
7.557975
20
0.837660
11
7.559186
21
0.852599
0
LINE
8
annotation
62
1
39
211
10
7.559186
20
0.852599
11
7.557831
21
0.867393
0
LINE
8
annotation
62
1
39
211
10
7.557831
20
0.867393
11
7.554004
21
0.881707
0
LINE
8
annotation
62
1
39
211
10
7.554004
20
0.881707
11
7.547800
21
0.895209
0
LINE
8
annotation
62
1
39
211
10
7.547800
20
0.895209
11
7.539315
21
0.907564
0
LINE
8
annotation
62
1
39
211
10
7.539315
20
0.907564
11
7.528643
21
0.918441
0
LINE
8
annotation
62
1
39
211
10
7.528643
20
0.918441
11
7.515879
21
0.927504
0
LINE
8
annotation
62
1
39
211
10
7.515879
20
0.927504
11
7.515879
21
0.927504
0
LINE
8
annotation
62
1
39
211
10
7.515879
20
0.927504
11
7.501608
21
0.934038
0
LINE
8
annotation
62
1
39
211
10
7.501608
20
0.934038
11
7.486833
21
0.937851
0
LINE
8
annotation
62
1
39
211
10
7.486833
20
0.937851
11
7.471885
21
0.939028
0
LINE
8
annotation
62
1
39
211
10
7.471885
20
0.939028
11
7.457093
21
0.937654
0
LINE
8
annotation
62
1
39
211
10
7.457093
20
0.937654
11
7.442789
21
0.933817
0
LINE
8
annotation
62
1
39
211
10
7.442789
20
0.933817
11
7.429303
21
0.927601
0
LINE
8
annotation
62
1
39
211
10
7.429303
20
0.927601
11
7.416964
21
0.919092
0
LINE
8
annotation
62
1
39
211
10
7.416964
20
0.919092
11
7.406103
21
0.908377
0
LINE
8
annotation
62
1
39
211
10
7.406103
20
0.908377
11
7.397051
21
0.895540
0
LINE
8
annotation
62
1
39
211
10
7.397051
20
0.895540
11
7.385644
21
0.873659
0
LINE
8
annotation
62
1
39
211
10
7.923044
20
0.634828
11
7.705846
21
0.634828
0
LINE
8
annotation
62
1
39
211
10
7.705846
20
0.634828
11
7.792588
21
0.939037
0
LINE
8
annotation
62
1
39
211
10
7.857939
20
0.547865
11
7.857939
21
0.721594
0
LINE
8
hole
62
5
39
2
10
7.540292
20
2.536044
11
7.562792
21
2.536044
0
LINE
8
hole
62
5
39
2
10
7.562792
20
2.536044
11
7.562792
21
2.558544
0
LINE
8
hole
62
5
39
2
10
7.562792
20
2.558544
11
7.540292
21
2.558544
0
LINE
8
hole
62
5
39
2
10
7.540292
20
2.558544
11
7.540292
21
2.536044
0
LINE
8
hole
62
5
39
2
10
7.204667
20
2.402919
11
7.227167
21
2.402919
0
LINE
8
hole
62
5
39
2
10
7.227167
20
2.402919
11
7.227167
21
2.425419
0
LINE
8
hole
62
5
39
2
10
7.227167
20
2.425419
11
7.204667
21
2.425419
0
LINE
8
hole
62
5
39
2
10
7.204667
20
2.425419
11
7.204667
21
2.402919
0
LINE
8
hole
62
5
39
2
10
7.523076
20
3.156390
11
7.545576
21
3.156390
0
LINE
8
hole
62
5
39
2
10
7.545576
20
3.156390
11
7.545576
21
3.178890
0
LINE
8
hole
62
5
39
2
10
7.545576
20
3.178890
11
7.523076
21
3.178890
0
LINE
8
hole
62
5
39
2
10
7.523076
20
3.178890
11
7.523076
21
3.156390
0
LINE
8
hole
62
5
39
2
10
7.656324
20
2.739663
11
7.678824
21
2.739663
0
LINE
8
hole
62
5
39
2
10
7.678824
20
2.739663
11
7.678824
21
2.762163
0
LINE
8
hole
62
5
39
2
10
7.678824
20
2.762163
11
7.656324
21
2.762163
0
LINE
8
hole
62
5
39
2
10
7.656324
20
2.762163
11
7.656324
21
2.739663
0
LINE
8
boundary
62
5
39
2
10
7.882558
20
2.198300
11
7.581201
21
3.533265
0
LINE
8
boundary
62
5
39
2
10
7.581201
20
3.533265
11
6.909247
21
2.318327
0
LINE
8
boundary
62
5
39
2
10
6.909247
20
2.318327
11
7.882558
21
2.198300
0
LINE
8
annotation
62
1
39
211
10
7.587330
20
2.827718
11
7.372733
21
2.439713
0
LINE
8
annotation
62
1
39
211
10
7.534326
20
3.167640
11
7.534326
21
3.223890
0
LINE
8
annotation
62
1
39
211
10
7.215917
20
2.414169
11
7.272167
21
2.414169
0
LINE
8
annotation
62
1
39
211
10
7.667574
20
2.750913
11
7.667574
21
2.807163
0
LINE
8
annotation
62
1
39
211
10
7.667574
20
2.750913
11
7.667574
21
2.807163
0
LINE
8
annotation
62
1
39
211
10
7.667574
20
2.807163
11
7.667574
21
2.750913
0
LINE
8
annotation
62
1
39
211
10
7.667574
20
2.750913
11
7.723824
21
2.750913
0
LINE
8
annotation
62
1
39
211
10
7.551542
20
2.547294
11
7.551542
21
2.491044
0
LINE
8
annotation
62
1
39
211
10
7.422413
20
2.707071
11
7.337029
21
2.707071
0
LINE
8
annotation
62
1
39
211
10
7.337029
20
2.707071
11
7.415927
21
2.834087
0
LINE
8
annotation
62
1
39
211
10
7.415927
20
2.834087
11
7.415927
21
2.834087
0
LINE
8
annotation
62
1
39
211
10
7.415927
20
2.834087
11
7.416021
21
2.834204
0
LINE
8
annotation
62
1
39
211
10
7.416021
20
2.834204
11
7.416112
21
2.834322
0
LINE
8
annotation
62
1
39
211
10
7.416112
20
2.834322
11
7.416199
21
2.834441
0
LINE
8
annotation
62
1
39
211
10
7.416199
20
2.834441
11
7.416283
21
2.834564
0
LINE
8
annotation
62
1
39
211
10
7.416283
20
2.834564
11
7.416366
21
2.834691
0
LINE
8
annotation
62
1
39
211
10
7.416366
20
2.834691
11
7.416447
21
2.834822
0
LINE
8
annotation
62
1
39
211
10
7.416447
20
2.834822
11
7.416527
21
2.834960
0
LINE
8
annotation
62
1
39
211
10
7.416527
20
2.834960
11
7.416607
21
2.835104
0
LINE
8
annotation
62
1
39
211
10
7.416607
20
2.835104
11
7.416687
21
2.835257
0
LINE
8
annotation
62
1
39
211
10
7.416687
20
2.835257
11
7.416687
21
2.835257
0
LINE
8
annotation
62
1
39
211
10
7.416687
20
2.835257
11
7.419944
21
2.842251
0
LINE
8
annotation
62
1
39
211
10
7.419944
20
2.842251
11
7.421847
21
2.849502
0
LINE
8
annotation
62
1
39
211
10
7.421847
20
2.849502
11
7.422443
21
2.856844
0
LINE
8
annotation
62
1
39
211
10
7.422443
20
2.856844
11
7.421776
21
2.864115
0
LINE
8
annotation
62
1
39
211
10
7.421776
20
2.864115
11
7.419895
21
2.871150
0
LINE
8
annotation
62
1
39
211
10
7.419895
20
2.871150
11
7.416846
21
2.877786
0
LINE
8
annotation
62
1
39
211
10
7.416846
20
2.877786
11
7.412676
21
2.883859
0
LINE
8
annotation
62
1
39
211
10
7.412676
20
2.883859
11
7.407431
21
2.889204
0
LINE
8
annotation
62
1
39
211
10
7.407431
20
2.889204
11
7.401158
21
2.893659
0
LINE
8
annotation
62
1
39
211
10
7.401158
20
2.893659
11
7.401158
21
2.893659
0
LINE
8
annotation
62
1
39
211
10
7.401158
20
2.893659
11
7.394144
21
2.896870
0
LINE
8
annotation
62
1
39
211
10
7.394144
20
2.896870
11
7.386882
21
2.898744
0
LINE
8
annotation
62
1
39
211
10
7.386882
20
2.898744
11
7.379535
21
2.899322
0
LINE
8
annotation
62
1
39
211
10
7.379535
20
2.899322
11
7.372266
21
2.898647
0
LINE
8
annotation
62
1
39
211
10
7.372266
20
2.898647
11
7.365235
21
2.896761
0
LINE
8
annotation
62
1
39
211
10
7.365235
20
2.896761
11
7.358607
21
2.893706
0
LINE
8
annotation
62
1
39
211
10
7.358607
20
2.893706
11
7.352543
21
2.889524
0
LINE
8
annotation
62
1
39
211
10
7.352543
20
2.889524
11
7.347205
21
2.884258
0
LINE
8
annotation
62
1
39
211
10
7.347205
20
2.884258
11
7.342756
21
2.877949
0
LINE
8
annotation
62
1
39
211
10
7.342756
20
2.877949
11
7.337149
21
2.867194
0
LINE
8
annotation
62
1
39
211
10
7.494523
20
2.707073
11
7.537216
21
2.707073
0
LINE
8
annotation
62
1
39
211
10
7.537216
20
2.707073
11
7.537216
21
2.707073
0
LINE
8
annotation
62
1
39
211
10
7.537216
20
2.707073
11
7.544878
21
2.707762
0
LINE
8
annotation
62
1
39
211
10
7.544878
20
2.707762
11
7.552095
21
2.709748
0
LINE
8
annotation
62
1
39
211
10
7.552095
20
2.709748
11
7.558744
21
2.712910
0
LINE
8
annotation
62
1
39
211
10
7.558744
20
2.712910
11
7.564704
21
2.717128
0
LINE
8
annotation
62
1
39
211
10
7.564704
20
2.717128
11
7.569853
21
2.722280
0
LINE
8
annotation
62
1
39
211
10
7.569853
20
2.722280
11
7.574070
21
2.728246
0
LINE
8
annotation
62
1
39
211
10
7.574070
20
2.728246
11
7.577232
21
2.734904
0
LINE
8
annotation
62
1
39
211
10
7.577232
20
2.734904
11
7.579219
21
2.742133
0
LINE
8
annotation
62
1
39
211
10
7.579219
20
2.742133
11
7.579908
21
2.749813
0
LINE
8
annotation
62
1
39
211
10
7.579908
20
2.749813
11
7.579908
21
2.771081
0
LINE
8
annotation
62
1
39
211
10
7.579908
20
2.771081
11
7.579908
21
2.771081
0
LINE
8
annotation
62
1
39
211
10
7.579908
20
2.771081
11
7.579219
21
2.778757
0
LINE
8
annotation
62
1
39
211
10
7.579219
20
2.778757
11
7.577233
21
2.785977
0
LINE
8
annotation
62
1
39
211
10
7.577233
20
2.785977
11
7.574072
21
2.792620
0
LINE
8
annotation
62
1
39
211
10
7.574072
20
2.792620
11
7.569857
21
2.798569
0
LINE
8
annotation
62
1
39
211
10
7.569857
20
2.798569
11
7.564709
21
2.803703
0
LINE
8
annotation
62
1
39
211
10
7.564709
20
2.803703
11
7.558749
21
2.807904
0
LINE
8
annotation
62
1
39
211
10
7.558749
20
2.807904
11
7.552100
21
2.811052
0
LINE
8
annotation
62
1
39
211
10
7.552100
20
2.811052
11
7.544881
21
2.813028
0
LINE
8
annotation
62
1
39
211
10
7.544881
20
2.813028
11
7.537216
21
2.813713
0
LINE
8
annotation
62
1
39
211
10
7.537216
20
2.813713
11
7.494523
21
2.813713
0
LINE
8
annotation
62
1
39
211
10
7.494523
20
2.813713
11
7.494523
21
2.899327
0
LINE
8
annotation
62
1
39
211
10
7.494523
20
2.899327
11
7.579908
21
2.899327
0
LINE
8
hole
62
5
39
2
10
2.069945
20
7.083516
11
2.092445
21
7.083516
0
LINE
8
hole
62
5
39
2
10
2.092445
20
7.083516
11
2.092445
21
7.106016
0
LINE
8
hole
62
5
39
2
10
2.092445
20
7.106016
11
2.069945
21
7.106016
0
LINE
8
hole
62
5
39
2
10
2.069945
20
7.106016
11
2.069945
21
7.083516
0
LINE
8
hole
62
5
39
2
10
1.598700
20
4.120839
11
1.621200
21
4.120839
0
LINE
8
hole
62
5
39
2
10
1.621200
20
4.120839
11
1.621200
21
4.143339
0
LINE
8
hole
62
5
39
2
10
1.621200
20
4.143339
11
1.598700
21
4.143339
0
LINE
8
hole
62
5
39
2
10
1.598700
20
4.143339
11
1.598700
21
4.120839
0
LINE
8
hole
62
5
39
2
10
2.755671
20
5.753811
11
2.778171
21
5.753811
0
LINE
8
hole
62
5
39
2
10
2.778171
20
5.753811
11
2.778171
21
5.776311
0
LINE
8
hole
62
5
39
2
10
2.778171
20
5.776311
11
2.755671
21
5.776311
0
LINE
8
hole
62
5
39
2
10
2.755671
20
5.776311
11
2.755671
21
5.753811
0
LINE
8
hole
62
5
39
2
10
1.457167
20
5.311592
11
1.479667
21
5.311592
0
LINE
8
hole
62
5
39
2
10
1.479667
20
5.311592
11
1.479667
21
5.334092
0
LINE
8
hole
62
5
39
2
10
1.479667
20
5.334092
11
1.457167
21
5.334092
0
LINE
8
hole
62
5
39
2
10
1.457167
20
5.334092
11
1.457167
21
5.311592
0
LINE
8
boundary
62
5
39
2
10
3.317370
20
3.696953
11
2.371518
21
7.886923
0
LINE
8
boundary
62
5
39
2
10
2.371518
20
7.886923
11
0.262500
21
4.073673
0
LINE
8
boundary
62
5
39
2
10
0.262500
20
4.073673
11
3.317370
21
3.696953
0
LINE
8
annotation
62
1
39
211
10
2.391255
20
7.205979
11
0.725987
21
4.195059
0
LINE
8
annotation
62
1
39
211
10
2.081195
20
7.094766
11
2.081195
21
7.151016
0
LINE
8
annotation
62
1
39
211
10
1.609950
20
4.132089
11
1.666200
21
4.132089
0
LINE
8
annotation
62
1
39
211
10
2.766921
20
5.765061
11
2.766921
21
5.821311
0
LINE
8
annotation
62
1
39
211
10
2.766921
20
5.765061
11
2.766921
21
5.821311
0
LINE
8
annotation
62
1
39
211
10
2.766921
20
5.821311
11
2.766921
21
5.765061
0
LINE
8
annotation
62
1
39
211
10
2.766921
20
5.765061
11
2.823171
21
5.765061
0
LINE
8
annotation
62
1
39
211
10
1.468417
20
5.322842
11
1.468417
21
5.266592
0
LINE
8
annotation
62
1
39
211
10
1.892160
20
4.825529
11
1.892160
21
5.579799
0
LINE
8
annotation
62
1
39
211
10
1.892160
20
5.579799
11
1.724476
21
5.412068
0
LINE
8
annotation
62
1
39
211
10
2.258616
20
4.825529
11
2.258616
21
4.825529
0
LINE
8
annotation
62
1
39
211
10
2.258616
20
4.825529
11
2.306515
21
4.843378
0
LINE
8
annotation
62
1
39
211
10
2.306515
20
4.843378
11
2.350480
21
4.867505
0
LINE
8
annotation
62
1
39
211
10
2.350480
20
4.867505
11
2.390057
21
4.897294
0
LINE
8
annotation
62
1
39
211
10
2.390057
20
4.897294
11
2.424792
21
4.932131
0
LINE
8
annotation
62
1
39
211
10
2.424792
20
4.932131
11
2.454230
21
4.971401
0
LINE
8
annotation
62
1
39
211
10
2.454230
20
4.971401
11
2.477917
21
5.014490
0
LINE
8
annotation
62
1
39
211
10
2.477917
20
5.014490
11
2.495399
21
5.060782
0
LINE
8
annotation
62
1
39
211
10
2.495399
20
5.060782
11
2.506221
21
5.109663
0
LINE
8
annotation
62
1
39
211
10
2.506221
20
5.109663
11
2.509929
21
5.160518
0
LINE
8
annotation
62
1
39
211
10
2.509929
20
5.160518
11
2.509929
21
5.412068
0
LINE
8
annotation
62
1
39
211
10
2.509929
20
5.412068
11
2.509929
21
5.412068
0
LINE
8
annotation
62
1
39
211
10
2.509929
20
5.412068
11
2.507233
21
5.442200
0
LINE
8
annotation
62
1
39
211
10
2.507233
20
5.442200
11
2.499458
21
5.470568
0
LINE
8
annotation
62
1
39
211
10
2.499458
20
5.470568
11
2.487076
21
5.496696
0
LINE
8
annotation
62
1
39
211
10
2.487076
20
5.496696
11
2.470558
21
5.520108
0
LINE
8
annotation
62
1
39
211
10
2.470558
20
5.520108
11
2.450376
21
5.540329
0
LINE
8
annotation
62
1
39
211
10
2.450376
20
5.540329
11
2.427001
21
5.556884
0
LINE
8
annotation
62
1
39
211
10
2.427001
20
5.556884
11
2.400905
21
5.569298
0
LINE
8
annotation
62
1
39
211
10
2.400905
20
5.569298
11
2.372559
21
5.577095
0
LINE
8
annotation
62
1
39
211
10
2.372559
20
5.577095
11
2.342435
21
5.579799
0
LINE
8
annotation
62
1
39
211
10
2.342435
20
5.579799
11
2.342435
21
5.579799
0
LINE
8
annotation
62
1
39
211
10
2.342435
20
5.579799
11
2.312373
21
5.577095
0
LINE
8
annotation
62
1
39
211
10
2.312373
20
5.577095
11
2.284060
21
5.569298
0
LINE
8
annotation
62
1
39
211
10
2.284060
20
5.569298
11
2.257973
21
5.556884
0
LINE
8
annotation
62
1
39
211
10
2.257973
20
5.556884
11
2.234591
21
5.540329
0
LINE
8
annotation
62
1
39
211
10
2.234591
20
5.540329
11
2.214389
21
5.520108
0
LINE
8
annotation
62
1
39
211
10
2.214389
20
5.520108
11
2.197846
21
5.496696
0
LINE
8
annotation
62
1
39
211
10
2.197846
20
5.496696
11
2.185439
21
5.470568
0
LINE
8
annotation
62
1
39
211
10
2.185439
20
5.470568
11
2.177644
21
5.442200
0
LINE
8
annotation
62
1
39
211
10
2.177644
20
5.442200
11
2.174940
21
5.412068
0
LINE
8
annotation
62
1
39
211
10
2.174940
20
5.412068
11
2.174940
21
5.328202
0
LINE
8
annotation
62
1
39
211
10
2.174940
20
5.328202
11
2.174940
21
5.328202
0
LINE
8
annotation
62
1
39
211
10
2.174940
20
5.328202
11
2.177644
21
5.298072
0
LINE
8
annotation
62
1
39
211
10
2.177644
20
5.298072
11
2.185439
21
5.269708
0
LINE
8
annotation
62
1
39
211
10
2.185439
20
5.269708
11
2.197846
21
5.243587
0
LINE
8
annotation
62
1
39
211
10
2.197846
20
5.243587
11
2.214389
21
5.220182
0
LINE
8
annotation
62
1
39
211
10
2.214389
20
5.220182
11
2.234591
21
5.199969
0
LINE
8
annotation
62
1
39
211
10
2.234591
20
5.199969
11
2.257973
21
5.183421
0
LINE
8
annotation
62
1
39
211
10
2.257973
20
5.183421
11
2.284060
21
5.171014
0
LINE
8
annotation
62
1
39
211
10
2.284060
20
5.171014
11
2.312373
21
5.163221
0
LINE
8
annotation
62
1
39
211
10
2.312373
20
5.163221
11
2.342435
21
5.160518
0
LINE
8
annotation
62
1
39
211
10
2.342435
20
5.160518
11
2.509929
21
5.160518
0
LINE
8
annotation
62
1
39
211
10
2.154009
20
4.731245
11
2.531144
21
4.731245
0
LINE
8
hole
62
5
39
2
10
1.848803
20
8.278862
11
1.871303
21
8.278862
0
LINE
8
hole
62
5
39
2
10
1.871303
20
8.278862
11
1.871303
21
8.301362
0
LINE
8
hole
62
5
39
2
10
1.871303
20
8.301362
11
1.848803
21
8.301362
0
LINE
8
hole
62
5
39
2
10
1.848803
20
8.301362
11
1.848803
21
8.278862
0
LINE
8
hole
62
5
39
2
10
2.802186
20
9.202092
11
2.824686
21
9.202092
0
LINE
8
hole
62
5
39
2
10
2.824686
20
9.202092
11
2.824686
21
9.224592
0
LINE
8
hole
62
5
39
2
10
2.824686
20
9.224592
11
2.802186
21
9.224592
0
LINE
8
hole
62
5
39
2
10
2.802186
20
9.224592
11
2.802186
21
9.202092
0
LINE
8
hole
62
5
39
2
10
2.185310
20
9.623382
11
2.207810
21
9.623382
0
LINE
8
hole
62
5
39
2
10
2.207810
20
9.623382
11
2.207810
21
9.645882
0
LINE
8
hole
62
5
39
2
10
2.207810
20
9.645882
11
2.185310
21
9.645882
0
LINE
8
hole
62
5
39
2
10
2.185310
20
9.645882
11
2.185310
21
9.623382
0
LINE
8
hole
62
5
39
2
10
0.877777
20
8.732918
11
0.900277
21
8.732918
0
LINE
8
hole
62
5
39
2
10
0.900277
20
8.732918
11
0.900277
21
8.755418
0
LINE
8
hole
62
5
39
2
10
0.900277
20
8.755418
11
0.877777
21
8.755418
0
LINE
8
hole
62
5
39
2
10
0.877777
20
8.755418
11
0.877777
21
8.732918
0
LINE
8
boundary
62
5
39
2
10
3.169790
20
8.011923
11
2.631602
21
10.396012
0
LINE
8
boundary
62
5
39
2
10
2.631602
20
10.396012
11
0.262500
21
8.370444
0
LINE
8
boundary
62
5
39
2
10
0.262500
20
8.370444
11
3.169790
21
8.011923
0
LINE
8
annotation
62
1
39
211
10
2.196560
20
9.634632
11
2.196560
21
9.690882
0
LINE
8
annotation
62
1
39
211
10
2.196560
20
9.634632
11
2.196560
21
9.690882
0
LINE
8
annotation
62
1
39
211
10
2.196560
20
9.690882
11
2.196560
21
9.634632
0
LINE
8
annotation
62
1
39
211
10
2.196560
20
9.634632
11
2.252810
21
9.634632
0
LINE
8
annotation
62
1
39
211
10
1.860053
20
8.290112
11
1.860053
21
8.233862
0
LINE
8
annotation
62
1
39
211
10
2.813436
20
9.213342
11
2.813436
21
9.269592
0
LINE
8
annotation
62
1
39
211
10
2.813436
20
9.213342
11
2.813436
21
9.269592
0
LINE
8
annotation
62
1
39
211
10
2.813436
20
9.269592
11
2.813436
21
9.213342
0
LINE
8
annotation
62
1
39
211
10
2.813436
20
9.213342
11
2.813436
21
9.157092
0
LINE
8
annotation
62
1
39
211
10
0.889027
20
8.744168
11
0.945277
21
8.744168
0
LINE
8
annotation
62
1
39
211
10
0.889027
20
8.744168
11
0.945277
21
8.744168
0
LINE
8
annotation
62
1
39
211
10
0.945277
20
8.744168
11
0.889027
21
8.744168
0
LINE
8
annotation
62
1
39
211
10
0.889027
20
8.744168
11
0.889027
21
8.687918
0
LINE
8
annotation
62
1
39
211
10
2.169295
20
8.655888
11
2.169295
21
9.388599
0
LINE
8
annotation
62
1
39
211
10
2.169295
20
9.388599
11
2.006405
21
9.225662
0
LINE
8
annotation
62
1
39
211
10
2.606953
20
8.655888
11
2.606953
21
9.388599
0
LINE
8
annotation
62
1
39
211
10
2.606953
20
9.388599
11
2.444062
21
9.225662
0
LINE
8
hole
62
5
39
2
10
5.582093
20
5.788601
11
5.604593
21
5.788601
0
LINE
8
hole
62
5
39
2
10
5.604593
20
5.788601
11
5.604593
21
5.811101
0
LINE
8
hole
62
5
39
2
10
5.604593
20
5.811101
11
5.582093
21
5.811101
0
LINE
8
hole
62
5
39
2
10
5.582093
20
5.811101
11
5.582093
21
5.788601
0
LINE
8
hole
62
5
39
2
10
4.283589
20
5.346381
11
4.306089
21
5.346381
0
LINE
8
hole
62
5
39
2
10
4.306089
20
5.346381
11
4.306089
21
5.368881
0
LINE
8
hole
62
5
39
2
10
4.306089
20
5.368881
11
4.283589
21
5.368881
0
LINE
8
hole
62
5
39
2
10
4.283589
20
5.368881
11
4.283589
21
5.346381
0
LINE
8
hole
62
5
39
2
10
5.354200
20
6.513595
11
5.376700
21
6.513595
0
LINE
8
hole
62
5
39
2
10
5.376700
20
6.513595
11
5.376700
21
6.536095
0
LINE
8
hole
62
5
39
2
10
5.376700
20
6.536095
11
5.354200
21
6.536095
0
LINE
8
hole
62
5
39
2
10
5.354200
20
6.536095
11
5.354200
21
6.513595
0
LINE
8
hole
62
5
39
2
10
4.785092
20
4.057116
11
4.807592
21
4.057116
0
LINE
8
hole
62
5
39
2
10
4.807592
20
4.057116
11
4.807592
21
4.079616
0
LINE
8
hole
62
5
39
2
10
4.807592
20
4.079616
11
4.785092
21
4.079616
0
LINE
8
hole
62
5
39
2
10
4.785092
20
4.079616
11
4.785092
21
4.057116
0
LINE
8
boundary
62
5
39
2
10
6.150313
20
3.696953
11
5.311878
21
7.411089
0
LINE
8
boundary
62
5
39
2
10
5.311878
20
7.411089
11
3.442370
21
4.030891
0
LINE
8
boundary
62
5
39
2
10
3.442370
20
4.030891
11
6.150313
21
3.696953
0
LINE
8
annotation
62
1
39
211
10
5.331093
20
6.729205
11
3.905855
21
4.152277
0
LINE
8
annotation
62
1
39
211
10
5.593343
20
5.799851
11
5.593343
21
5.856101
0
LINE
8
annotation
62
1
39
211
10
5.593343
20
5.799851
11
5.593343
21
5.856101
0
LINE
8
annotation
62
1
39
211
10
5.593343
20
5.856101
11
5.593343
21
5.799851
0
LINE
8
annotation
62
1
39
211
10
5.593343
20
5.799851
11
5.649593
21
5.799851
0
LINE
8
annotation
62
1
39
211
10
4.294839
20
5.357631
11
4.294839
21
5.301381
0
LINE
8
annotation
62
1
39
211
10
5.365450
20
6.524845
11
5.365450
21
6.581095
0
LINE
8
annotation
62
1
39
211
10
5.365450
20
6.524845
11
5.365450
21
6.581095
0
LINE
8
annotation
62
1
39
211
10
5.365450
20
6.581095
11
5.365450
21
6.524845
0
LINE
8
annotation
62
1
39
211
10
5.365450
20
6.524845
11
5.365450
21
6.468595
0
LINE
8
annotation
62
1
39
211
10
4.796342
20
4.068366
11
4.852592
21
4.068366
0
LINE
8
annotation
62
1
39
211
10
4.796342
20
4.068366
11
4.852592
21
4.068366
0
LINE
8
annotation
62
1
39
211
10
4.852592
20
4.068366
11
4.796342
21
4.068366
0
LINE
8
annotation
62
1
39
211
10
4.796342
20
4.068366
11
4.796342
21
4.012116
0
LINE
8
annotation
62
1
39
211
10
4.820708
20
4.398338
11
4.464373
21
4.398338
0
LINE
8
annotation
62
1
39
211
10
4.464373
20
4.398338
11
4.793638
21
4.928413
0
LINE
8
annotation
62
1
39
211
10
4.793638
20
4.928413
11
4.793638
21
4.928413
0
LINE
8
annotation
62
1
39
211
10
4.793638
20
4.928413
11
4.794032
21
4.928901
0
LINE
8
annotation
62
1
39
211
10
4.794032
20
4.928901
11
4.794410
21
4.929392
0
LINE
8
annotation
62
1
39
211
10
4.794410
20
4.929392
11
4.794773
21
4.929891
0
LINE
8
annotation
62
1
39
211
10
4.794773
20
4.929891
11
4.795126
21
4.930403
0
LINE
8
annotation
62
1
39
211
10
4.795126
20
4.930403
11
4.795470
21
4.930932
0
LINE
8
annotation
62
1
39
211
10
4.795470
20
4.930932
11
4.795808
21
4.931481
0
LINE
8
annotation
62
1
39
211
10
4.795808
20
4.931481
11
4.796142
21
4.932055
0
LINE
8
annotation
62
1
39
211
10
4.796142
20
4.932055
11
4.796474
21
4.932658
0
LINE
8
annotation
62
1
39
211
10
4.796474
20
4.932658
11
4.796808
21
4.933294
0
LINE
8
annotation
62
1
39
211
10
4.796808
20
4.933294
11
4.796808
21
4.933294
0
LINE
8
annotation
62
1
39
211
10
4.796808
20
4.933294
11
4.810404
21
4.962484
0
LINE
8
annotation
62
1
39
211
10
4.810404
20
4.962484
11
4.818346
21
4.992743
0
LINE
8
annotation
62
1
39
211
10
4.818346
20
4.992743
11
4.820829
21
5.023385
0
LINE
8
annotation
62
1
39
211
10
4.820829
20
5.023385
11
4.818049
21
5.053728
0
LINE
8
annotation
62
1
39
211
10
4.818049
20
5.053728
11
4.810200
21
5.083088
0
LINE
8
annotation
62
1
39
211
10
4.810200
20
5.083088
11
4.797475
21
5.110782
0
LINE
8
annotation
62
1
39
211
10
4.797475
20
5.110782
11
4.780071
21
5.136124
0
LINE
8
annotation
62
1
39
211
10
4.780071
20
5.136124
11
4.758182
21
5.158433
0
LINE
8
annotation
62
1
39
211
10
4.758182
20
5.158433
11
4.732002
21
5.177023
0
LINE
8
annotation
62
1
39
211
10
4.732002
20
5.177023
11
4.732002
21
5.177023
0
LINE
8
annotation
62
1
39
211
10
4.732002
20
5.177023
11
4.702730
21
5.190425
0
LINE
8
annotation
62
1
39
211
10
4.702730
20
5.190425
11
4.672426
21
5.198245
0
LINE
8
annotation
62
1
39
211
10
4.672426
20
5.198245
11
4.641765
21
5.200658
0
LINE
8
annotation
62
1
39
211
10
4.641765
20
5.200658
11
4.611427
21
5.197842
0
LINE
8
annotation
62
1
39
211
10
4.611427
20
5.197842
11
4.582087
21
5.189970
0
LINE
8
annotation
62
1
39
211
10
4.582087
20
5.189970
11
4.554425
21
5.177221
0
LINE
8
annotation
62
1
39
211
10
4.554425
20
5.177221
11
4.529116
21
5.159769
0
LINE
8
annotation
62
1
39
211
10
4.529116
20
5.159769
11
4.506840
21
5.137790
0
LINE
8
annotation
62
1
39
211
10
4.506840
20
5.137790
11
4.488273
21
5.111462
0
LINE
8
annotation
62
1
39
211
10
4.488273
20
5.111462
11
4.464876
21
5.066580
0
LINE
8
annotation
62
1
39
211
10
5.250520
20
4.408928
11
5.250520
21
4.408928
0
LINE
8
annotation
62
1
39
211
10
5.250520
20
4.408928
11
5.269167
21
4.401957
0
LINE
8
annotation
62
1
39
211
10
5.269167
20
4.401957
11
5.288292
21
4.398493
0
LINE
8
annotation
62
1
39
211
10
5.288292
20
4.398493
11
5.307461
21
4.398397
0
LINE
8
annotation
62
1
39
211
10
5.307461
20
4.398397
11
5.326242
21
4.401525
0
LINE
8
annotation
62
1
39
211
10
5.326242
20
4.401525
11
5.344203
21
4.407737
0
LINE
8
annotation
62
1
39
211
10
5.344203
20
4.407737
11
5.360913
21
4.416892
0
LINE
8
annotation
62
1
39
211
10
5.360913
20
4.416892
11
5.375937
21
4.428849
0
LINE
8
annotation
62
1
39
211
10
5.375937
20
4.428849
11
5.388845
21
4.443466
0
LINE
8
annotation
62
1
39
211
10
5.388845
20
4.443466
11
5.399203
21
4.460602
0
LINE
8
annotation
62
1
39
211
10
5.399203
20
4.460602
11
5.399203
21
4.460602
0
LINE
8
annotation
62
1
39
211
10
5.399203
20
4.460602
11
5.430108
21
4.532942
0
LINE
8
annotation
62
1
39
211
10
5.430108
20
4.532942
11
5.453287
21
4.607377
0
LINE
8
annotation
62
1
39
211
10
5.453287
20
4.607377
11
5.468739
21
4.683312
0
LINE
8
annotation
62
1
39
211
10
5.468739
20
4.683312
11
5.476465
21
4.760154
0
LINE
8
annotation
62
1
39
211
10
5.476465
20
4.760154
11
5.476465
21
4.837309
0
LINE
8
annotation
62
1
39
211
10
5.476465
20
4.837309
11
5.468739
21
4.914184
0
LINE
8
annotation
62
1
39
211
10
5.468739
20
4.914184
11
5.453287
21
4.990186
0
LINE
8
annotation
62
1
39
211
10
5.453287
20
4.990186
11
5.430108
21
5.064722
0
LINE
8
annotation
62
1
39
211
10
5.430108
20
5.064722
11
5.399203
21
5.137196
0
LINE
8
annotation
62
1
39
211
10
5.399203
20
5.137196
11
5.399203
21
5.137196
0
LINE
8
annotation
62
1
39
211
10
5.399203
20
5.137196
11
5.395273
21
5.144511
0
LINE
8
annotation
62
1
39
211
10
5.395273
20
5.144511
11
5.390817
21
5.151504
0
LINE
8
annotation
62
1
39
211
10
5.390817
20
5.151504
11
5.385869
21
5.158141
0
LINE
8
annotation
62
1
39
211
10
5.385869
20
5.158141
11
5.380463
21
5.164388
0
LINE
8
annotation
62
1
39
211
10
5.380463
20
5.164388
11
5.374632
21
5.170210
0
LINE
8
annotation
62
1
39
211
10
5.374632
20
5.170210
11
5.368410
21
5.175574
0
LINE
8
annotation
62
1
39
211
10
5.368410
20
5.175574
11
5.361830
21
5.180445
0
LINE
8
annotation
62
1
39
211
10
5.361830
20
5.180445
11
5.354925
21
5.184788
0
LINE
8
annotation
62
1
39
211
10
5.354925
20
5.184788
11
5.347730
21
5.188569
0
LINE
8
annotation
62
1
39
211
10
5.347730
20
5.188569
11
5.347730
21
5.188569
0
LINE
8
annotation
62
1
39
211
10
5.347730
20
5.188569
11
5.328935
21
5.195691
0
LINE
8
annotation
62
1
39
211
10
5.328935
20
5.195691
11
5.309698
21
5.199272
0
LINE
8
annotation
62
1
39
211
10
5.309698
20
5.199272
11
5.290448
21
5.199456
0
LINE
8
annotation
62
1
39
211
10
5.290448
20
5.199456
11
5.271612
21
5.196383
0
LINE
8
annotation
62
1
39
211
10
5.271612
20
5.196383
11
5.253617
21
5.190196
0
LINE
8
annotation
62
1
39
211
10
5.253617
20
5.190196
11
5.236890
21
5.181036
0
LINE
8
annotation
62
1
39
211
10
5.236890
20
5.181036
11
5.221859
21
5.169047
0
LINE
8
annotation
62
1
39
211
10
5.221859
20
5.169047
11
5.208951
21
5.154370
0
LINE
8
annotation
62
1
39
211
10
5.208951
20
5.154370
11
5.198594
21
5.137146
0
LINE
8
annotation
62
1
39
211
10
5.198594
20
5.137146
11
5.198594
21
5.137146
0
LINE
8
annotation
62
1
39
211
10
5.198594
20
5.137146
11
5.167838
21
5.064820
0
LINE
8
annotation
62
1
39
211
10
5.167838
20
5.064820
11
5.144771
21
4.990397
0
LINE
8
annotation
62
1
39
211
10
5.144771
20
4.990397
11
5.129393
21
4.914469
0
LINE
8
annotation
62
1
39
211
10
5.129393
20
4.914469
11
5.121705
21
4.837631
0
LINE
8
annotation
62
1
39
211
10
5.121705
20
4.837631
11
5.121705
21
4.760476
0
LINE
8
annotation
62
1
39
211
10
5.121705
20
4.760476
11
5.129393
21
4.683597
0
LINE
8
annotation
62
1
39
211
10
5.129393
20
4.683597
11
5.144771
21
4.607588
0
LINE
8
annotation
62
1
39
211
10
5.144771
20
4.607588
11
5.167838
21
4.533041
0
LINE
8
annotation
62
1
39
211
10
5.167838
20
4.533041
11
5.198594
21
4.460551
0
LINE
8
annotation
62
1
39
211
10
5.198594
20
4.460551
11
5.198594
21
4.460551
0
LINE
8
annotation
62
1
39
211
10
5.198594
20
4.460551
11
5.202510
21
4.453252
0
LINE
8
annotation
62
1
39
211
10
5.202510
20
4.453252
11
5.206933
21
4.446294
0
LINE
8
annotation
62
1
39
211
10
5.206933
20
4.446294
11
5.211844
21
4.439698
0
LINE
8
annotation
62
1
39
211
10
5.211844
20
4.439698
11
5.217225
21
4.433487
0
LINE
8
annotation
62
1
39
211
10
5.217225
20
4.433487
11
5.223056
21
4.427681
0
LINE
8
annotation
62
1
39
211
10
5.223056
20
4.427681
11
5.229320
21
4.422300
0
LINE
8
annotation
62
1
39
211
10
5.229320
20
4.422300
11
5.235998
21
4.417367
0
LINE
8
annotation
62
1
39
211
10
5.235998
20
4.417367
11
5.243071
21
4.412903
0
LINE
8
annotation
62
1
39
211
10
5.243071
20
4.412903
11
5.250520
21
4.408928
0
LINE
8
hole
62
5
39
2
10
6.917660
20
3.996739
11
6.940160
21
3.996739
0
LINE
8
hole
62
5
39
2
10
6.940160
20
3.996739
11
6.940160
21
4.019239
0
LINE
8
hole
62
5
39
2
10
6.940160
20
4.019239
11
6.917660
21
4.019239
0
LINE
8
hole
62
5
39
2
10
6.917660
20
4.019239
11
6.917660
21
3.996739
0
LINE
8
hole
62
5
39
2
10
7.369671
20
5.613036
11
7.392171
21
5.613036
0
LINE
8
hole
62
5
39
2
10
7.392171
20
5.613036
11
7.392171
21
5.635536
0
LINE
8
hole
62
5
39
2
10
7.392171
20
5.635536
11
7.369671
21
5.635536
0
LINE
8
hole
62
5
39
2
10
7.369671
20
5.635536
11
7.369671
21
5.613036
0
LINE
8
hole
62
5
39
2
10
7.591922
20
4.818481
11
7.614422
21
4.818481
0
LINE
8
hole
62
5
39
2
10
7.614422
20
4.818481
11
7.614422
21
4.840981
0
LINE
8
hole
62
5
39
2
10
7.614422
20
4.840981
11
7.591922
21
4.840981
0
LINE
8
hole
62
5
39
2
10
7.591922
20
4.840981
11
7.591922
21
4.818481
0
LINE
8
hole
62
5
39
2
10
7.106899
20
4.483985
11
7.129399
21
4.483985
0
LINE
8
hole
62
5
39
2
10
7.129399
20
4.483985
11
7.129399
21
4.506485
0
LINE
8
hole
62
5
39
2
10
7.129399
20
4.506485
11
7.106899
21
4.506485
0
LINE
8
hole
62
5
39
2
10
7.106899
20
4.506485
11
7.106899
21
4.483985
0
LINE
8
boundary
62
5
39
2
10
7.942478
20
3.696953
11
7.426289
21
5.983586
0
LINE
8
boundary
62
5
39
2
10
7.426289
20
5.983586
11
6.275313
21
3.902544
0
LINE
8
boundary
62
5
39
2
10
6.275313
20
3.902544
11
7.942478
21
3.696953
0
LINE
8
annotation
62
1
39
211
10
7.442150
20
5.295633
11
6.738800
21
4.023930
0
LINE
8
annotation
62
1
39
211
10
7.380921
20
5.624286
11
7.380921
21
5.680536
0
LINE
8
annotation
62
1
39
211
10
7.380921
20
5.624286
11
7.380921
21
5.680536
0
LINE
8
annotation
62
1
39
211
10
7.380921
20
5.680536
11
7.380921
21
5.624286
0
LINE
8
annotation
62
1
39
211
10
7.380921
20
5.624286
11
7.437171
21
5.624286
0
LINE
8
annotation
62
1
39
211
10
6.928910
20
4.007989
11
6.928910
21
3.951739
0
LINE
8
annotation
62
1
39
211
10
7.603172
20
4.829731
11
7.603172
21
4.885981
0
LINE
8
annotation
62
1
39
211
10
7.603172
20
4.829731
11
7.603172
21
4.885981
0
LINE
8
annotation
62
1
39
211
10
7.603172
20
4.885981
11
7.603172
21
4.829731
0
LINE
8
annotation
62
1
39
211
10
7.603172
20
4.829731
11
7.603172
21
4.773481
0
LINE
8
annotation
62
1
39
211
10
7.118149
20
4.495235
11
7.174399
21
4.495235
0
LINE
8
annotation
62
1
39
211
10
7.118149
20
4.495235
11
7.174399
21
4.495235
0
LINE
8
annotation
62
1
39
211
10
7.174399
20
4.495235
11
7.118149
21
4.495235
0
LINE
8
annotation
62
1
39
211
10
7.118149
20
4.495235
11
7.118149
21
4.438985
0
LINE
8
annotation
62
1
39
211
10
7.210323
20
4.312858
11
7.027506
21
4.312858
0
LINE
8
annotation
62
1
39
211
10
7.027506
20
4.312858
11
7.196435
21
4.584812
0
LINE
8
annotation
62
1
39
211
10
7.196435
20
4.584812
11
7.196435
21
4.584812
0
LINE
8
annotation
62
1
39
211
10
7.196435
20
4.584812
11
7.196637
21
4.585062
0
LINE
8
annotation
62
1
39
211
10
7.196637
20
4.585062
11
7.196831
21
4.585314
0
LINE
8
annotation
62
1
39
211
10
7.196831
20
4.585314
11
7.197018
21
4.585571
0
LINE
8
annotation
62
1
39
211
10
7.197018
20
4.585571
11
7.197198
21
4.585833
0
LINE
8
annotation
62
1
39
211
10
7.197198
20
4.585833
11
7.197375
21
4.586104
0
LINE
8
annotation
62
1
39
211
10
7.197375
20
4.586104
11
7.197548
21
4.586386
0
LINE
8
annotation
62
1
39
211
10
7.197548
20
4.586386
11
7.197719
21
4.586681
0
LINE
8
annotation
62
1
39
211
10
7.197719
20
4.586681
11
7.197890
21
4.586990
0
LINE
8
annotation
62
1
39
211
10
7.197890
20
4.586990
11
7.198062
21
4.587316
0
LINE
8
annotation
62
1
39
211
10
7.198062
20
4.587316
11
7.198062
21
4.587316
0
LINE
8
annotation
62
1
39
211
10
7.198062
20
4.587316
11
7.205037
21
4.602292
0
LINE
8
annotation
62
1
39
211
10
7.205037
20
4.602292
11
7.209111
21
4.617816
0
LINE
8
annotation
62
1
39
211
10
7.209111
20
4.617816
11
7.210386
21
4.633537
0
LINE
8
annotation
62
1
39
211
10
7.210386
20
4.633537
11
7.208959
21
4.649105
0
LINE
8
annotation
62
1
39
211
10
7.208959
20
4.649105
11
7.204932
21
4.664168
0
LINE
8
annotation
62
1
39
211
10
7.204932
20
4.664168
11
7.198404
21
4.678376
0
LINE
8
annotation
62
1
39
211
10
7.198404
20
4.678376
11
7.189475
21
4.691378
0
LINE
8
annotation
62
1
39
211
10
7.189475
20
4.691378
11
7.178244
21
4.702823
0
LINE
8
annotation
62
1
39
211
10
7.178244
20
4.702823
11
7.164813
21
4.712361
0
LINE
8
annotation
62
1
39
211
10
7.164813
20
4.712361
11
7.164813
21
4.712361
0
LINE
8
annotation
62
1
39
211
10
7.164813
20
4.712361
11
7.149795
21
4.719237
0
LINE
8
annotation
62
1
39
211
10
7.149795
20
4.719237
11
7.134247
21
4.723249
0
LINE
8
annotation
62
1
39
211
10
7.134247
20
4.723249
11
7.118517
21
4.724487
0
LINE
8
annotation
62
1
39
211
10
7.118517
20
4.724487
11
7.102952
21
4.723042
0
LINE
8
annotation
62
1
39
211
10
7.102952
20
4.723042
11
7.087899
21
4.719003
0
LINE
8
annotation
62
1
39
211
10
7.087899
20
4.719003
11
7.073707
21
4.712462
0
LINE
8
annotation
62
1
39
211
10
7.073707
20
4.712462
11
7.060723
21
4.703509
0
LINE
8
annotation
62
1
39
211
10
7.060723
20
4.703509
11
7.049294
21
4.692233
0
LINE
8
annotation
62
1
39
211
10
7.049294
20
4.692233
11
7.039768
21
4.678725
0
LINE
8
annotation
62
1
39
211
10
7.039768
20
4.678725
11
7.027764
21
4.655699
0
LINE
8
annotation
62
1
39
211
10
7.364718
20
4.312875
11
7.456126
21
4.312875
0
LINE
8
annotation
62
1
39
211
10
7.456126
20
4.312875
11
7.456126
21
4.312875
0
LINE
8
annotation
62
1
39
211
10
7.456126
20
4.312875
11
7.472566
21
4.314349
0
LINE
8
annotation
62
1
39
211
10
7.472566
20
4.314349
11
7.488036
21
4.318600
0
LINE
8
annotation
62
1
39
211
10
7.488036
20
4.318600
11
7.502277
21
4.325365
0
LINE
8
annotation
62
1
39
211
10
7.502277
20
4.325365
11
7.515034
21
4.334384
0
LINE
8
annotation
62
1
39
211
10
7.515034
20
4.334384
11
7.526048
21
4.345396
0
LINE
8
annotation
62
1
39
211
10
7.526048
20
4.345396
11
7.535063
21
4.358140
0
LINE
8
annotation
62
1
39
211
10
7.535063
20
4.358140
11
7.541820
21
4.372355
0
LINE
8
annotation
62
1
39
211
10
7.541820
20
4.372355
11
7.546063
21
4.387780
0
LINE
8
annotation
62
1
39
211
10
7.546063
20
4.387780
11
7.547535
21
4.404154
0
LINE
8
annotation
62
1
39
211
10
7.547535
20
4.404154
11
7.547535
21
4.449923
0
LINE
8
annotation
62
1
39
211
10
7.547535
20
4.449923
11
7.547535
21
4.449923
0
LINE
8
annotation
62
1
39
211
10
7.547535
20
4.449923
11
7.546063
21
4.466291
0
LINE
8
annotation
62
1
39
211
10
7.546063
20
4.466291
11
7.541820
21
4.481712
0
LINE
8
annotation
62
1
39
211
10
7.541820
20
4.481712
11
7.535063
21
4.495926
0
LINE
8
annotation
62
1
39
211
10
7.535063
20
4.495926
11
7.526048
21
4.508671
0
LINE
8
annotation
62
1
39
211
10
7.526048
20
4.508671
11
7.515034
21
4.519685
0
LINE
8
annotation
62
1
39
211
10
7.515034
20
4.519685
11
7.502277
21
4.528706
0
LINE
8
annotation
62
1
39
211
10
7.502277
20
4.528706
11
7.488036
21
4.535474
0
LINE
8
annotation
62
1
39
211
10
7.488036
20
4.535474
11
7.472566
21
4.539727
0
LINE
8
annotation
62
1
39
211
10
7.472566
20
4.539727
11
7.456126
21
4.541202
0
LINE
8
annotation
62
1
39
211
10
7.456126
20
4.541202
11
7.410357
21
4.541202
0
LINE
8
annotation
62
1
39
211
10
7.410357
20
4.541202
11
7.456126
21
4.541202
0
LINE
8
annotation
62
1
39
211
10
7.456126
20
4.541202
11
7.456126
21
4.541202
0
LINE
8
annotation
62
1
39
211
10
7.456126
20
4.541202
11
7.472566
21
4.542678
0
LINE
8
annotation
62
1
39
211
10
7.472566
20
4.542678
11
7.488036
21
4.546933
0
LINE
8
annotation
62
1
39
211
10
7.488036
20
4.546933
11
7.502277
21
4.553708
0
LINE
8
annotation
62
1
39
211
10
7.502277
20
4.553708
11
7.515034
21
4.562743
0
LINE
8
annotation
62
1
39
211
10
7.515034
20
4.562743
11
7.526048
21
4.573778
0
LINE
8
annotation
62
1
39
211
10
7.526048
20
4.573778
11
7.535063
21
4.586555
0
LINE
8
annotation
62
1
39
211
10
7.535063
20
4.586555
11
7.541820
21
4.600814
0
LINE
8
annotation
62
1
39
211
10
7.541820
20
4.600814
11
7.546063
21
4.616296
0
LINE
8
annotation
62
1
39
211
10
7.546063
20
4.616296
11
7.547535
21
4.632740
0
LINE
8
annotation
62
1
39
211
10
7.547535
20
4.632740
11
7.547535
21
4.632740
0
LINE
8
annotation
62
1
39
211
10
7.547535
20
4.632740
11
7.546063
21
4.649108
0
LINE
8
annotation
62
1
39
211
10
7.546063
20
4.649108
11
7.541820
21
4.664529
0
LINE
8
annotation
62
1
39
211
10
7.541820
20
4.664529
11
7.535063
21
4.678743
0
LINE
8
annotation
62
1
39
211
10
7.535063
20
4.678743
11
7.526048
21
4.691488
0
LINE
8
annotation
62
1
39
211
10
7.526048
20
4.691488
11
7.515034
21
4.702502
0
LINE
8
annotation
62
1
39
211
10
7.515034
20
4.702502
11
7.502277
21
4.711523
0
LINE
8
annotation
62
1
39
211
10
7.502277
20
4.711523
11
7.488036
21
4.718291
0
LINE
8
annotation
62
1
39
211
10
7.488036
20
4.718291
11
7.472566
21
4.722544
0
LINE
8
annotation
62
1
39
211
10
7.472566
20
4.722544
11
7.456126
21
4.724019
0
LINE
8
annotation
62
1
39
211
10
7.456126
20
4.724019
11
7.364718
21
4.724019
0
LINE
8
hole
62
5
39
2
10
7.548444
20
6.639523
11
7.570944
21
6.639523
0
LINE
8
hole
62
5
39
2
10
7.570944
20
6.639523
11
7.570944
21
6.662023
0
LINE
8
hole
62
5
39
2
10
7.570944
20
6.662023
11
7.548444
21
6.662023
0
LINE
8
hole
62
5
39
2
10
7.548444
20
6.662023
11
7.548444
21
6.639523
0
LINE
8
hole
62
5
39
2
10
6.903698
20
6.423342
11
6.926198
21
6.423342
0
LINE
8
hole
62
5
39
2
10
6.926198
20
6.423342
11
6.926198
21
6.445842
0
LINE
8
hole
62
5
39
2
10
6.926198
20
6.445842
11
6.903698
21
6.445842
0
LINE
8
hole
62
5
39
2
10
6.903698
20
6.445842
11
6.903698
21
6.423342
0
LINE
8
hole
62
5
39
2
10
7.253967
20
6.974477
11
7.276467
21
6.974477
0
LINE
8
hole
62
5
39
2
10
7.276467
20
6.974477
11
7.276467
21
6.996977
0
LINE
8
hole
62
5
39
2
10
7.276467
20
6.996977
11
7.253967
21
6.996977
0
LINE
8
hole
62
5
39
2
10
7.253967
20
6.996977
11
7.253967
21
6.974477
0
LINE
8
hole
62
5
39
2
10
7.021809
20
6.266950
11
7.044309
21
6.266950
0
LINE
8
hole
62
5
39
2
10
7.044309
20
6.266950
11
7.044309
21
6.289450
0
LINE
8
hole
62
5
39
2
10
7.044309
20
6.289450
11
7.021809
21
6.289450
0
LINE
8
hole
62
5
39
2
10
7.021809
20
6.289450
11
7.021809
21
6.266950
0
LINE
8
boundary
62
5
39
2
10
7.772055
20
6.108586
11
7.494983
21
7.335971
0
LINE
8
boundary
62
5
39
2
10
7.494983
20
7.335971
11
6.275313
21
6.293162
0
LINE
8
boundary
62
5
39
2
10
6.275313
20
6.293162
11
7.772055
21
6.108586
0
LINE
8
annotation
62
1
39
211
10
7.559694
20
6.650773
11
7.559694
21
6.707023
0
LINE
8
annotation
62
1
39
211
10
7.559694
20
6.650773
11
7.559694
21
6.707023
0
LINE
8
annotation
62
1
39
211
10
7.559694
20
6.707023
11
7.559694
21
6.650773
0
LINE
8
annotation
62
1
39
211
10
7.559694
20
6.650773
11
7.559694
21
6.594523
0
LINE
8
annotation
62
1
39
211
10
6.914948
20
6.434592
11
6.971198
21
6.434592
0
LINE
8
annotation
62
1
39
211
10
6.914948
20
6.434592
11
6.971198
21
6.434592
0
LINE
8
annotation
62
1
39
211
10
6.971198
20
6.434592
11
6.914948
21
6.434592
0
LINE
8
annotation
62
1
39
211
10
6.914948
20
6.434592
11
6.914948
21
6.378342
0
LINE
8
annotation
62
1
39
211
10
7.265217
20
6.985727
11
7.265217
21
7.041977
0
LINE
8
annotation
62
1
39
211
10
7.033059
20
6.278200
11
7.089309
21
6.278200
0
LINE
8
annotation
62
1
39
211
10
7.428534
20
6.917997
11
7.428534
21
6.917997
0
LINE
8
annotation
62
1
39
211
10
7.428534
20
6.917997
11
7.397681
21
6.906429
0
LINE
8
annotation
62
1
39
211
10
7.397681
20
6.906429
11
7.369370
21
6.890843
0
LINE
8
annotation
62
1
39
211
10
7.369370
20
6.890843
11
7.343890
21
6.871629
0
LINE
8
annotation
62
1
39
211
10
7.343890
20
6.871629
11
7.321533
21
6.849177
0
LINE
8
annotation
62
1
39
211
10
7.321533
20
6.849177
11
7.302589
21
6.823878
0
LINE
8
annotation
62
1
39
211
10
7.302589
20
6.823878
11
7.287349
21
6.796122
0
LINE
8
annotation
62
1
39
211
10
7.287349
20
6.796122
11
7.276104
21
6.766301
0
LINE
8
annotation
62
1
39
211
10
7.276104
20
6.766301
11
7.269143
21
6.734804
0
LINE
8
annotation
62
1
39
211
10
7.269143
20
6.734804
11
7.266759
21
6.702023
0
LINE
8
annotation
62
1
39
211
10
7.266759
20
6.702023
11
7.266759
21
6.540825
0
LINE
8
annotation
62
1
39
211
10
7.266759
20
6.540825
11
7.266759
21
6.540825
0
LINE
8
annotation
62
1
39
211
10
7.266759
20
6.540825
11
7.268497
21
6.521451
0
LINE
8
annotation
62
1
39
211
10
7.268497
20
6.521451
11
7.273509
21
6.503213
0
LINE
8
annotation
62
1
39
211
10
7.273509
20
6.503213
11
7.281487
21
6.486417
0
LINE
8
annotation
62
1
39
211
10
7.281487
20
6.486417
11
7.292124
21
6.471368
0
LINE
8
annotation
62
1
39
211
10
7.292124
20
6.471368
11
7.305114
21
6.458371
0
LINE
8
annotation
62
1
39
211
10
7.305114
20
6.458371
11
7.320149
21
6.447731
0
LINE
8
annotation
62
1
39
211
10
7.320149
20
6.447731
11
7.336922
21
6.439753
0
LINE
8
annotation
62
1
39
211
10
7.336922
20
6.439753
11
7.355127
21
6.434743
0
LINE
8
annotation
62
1
39
211
10
7.355127
20
6.434743
11
7.374457
21
6.433005
0
LINE
8
annotation
62
1
39
211
10
7.374457
20
6.433005
11
7.374457
21
6.433005
0
LINE
8
annotation
62
1
39
211
10
7.374457
20
6.433005
11
7.393827
21
6.434743
0
LINE
8
annotation
62
1
39
211
10
7.393827
20
6.434743
11
7.412053
21
6.439753
0
LINE
8
annotation
62
1
39
211
10
7.412053
20
6.439753
11
7.428833
21
6.447731
0
LINE
8
annotation
62
1
39
211
10
7.428833
20
6.447731
11
7.443863
21
6.458371
0
LINE
8
annotation
62
1
39
211
10
7.443863
20
6.458371
11
7.456840
21
6.471368
0
LINE
8
annotation
62
1
39
211
10
7.456840
20
6.471368
11
7.467461
21
6.486417
0
LINE
8
annotation
62
1
39
211
10
7.467461
20
6.486417
11
7.475422
21
6.503213
0
LINE
8
annotation
62
1
39
211
10
7.475422
20
6.503213
11
7.480422
21
6.521451
0
LINE
8
annotation
62
1
39
211
10
7.480422
20
6.521451
11
7.482155
21
6.540825
0
LINE
8
annotation
62
1
39
211
10
7.482155
20
6.540825
11
7.482155
21
6.594476
0
LINE
8
annotation
62
1
39
211
10
7.482155
20
6.594476
11
7.482155
21
6.594476
0
LINE
8
annotation
62
1
39
211
10
7.482155
20
6.594476
11
7.480422
21
6.613841
0
LINE
8
annotation
62
1
39
211
10
7.480422
20
6.613841
11
7.475422
21
6.632053
0
LINE
8
annotation
62
1
39
211
10
7.475422
20
6.632053
11
7.467461
21
6.648813
0
LINE
8
annotation
62
1
39
211
10
7.467461
20
6.648813
11
7.456840
21
6.663819
0
LINE
8
annotation
62
1
39
211
10
7.456840
20
6.663819
11
7.443863
21
6.676770
0
LINE
8
annotation
62
1
39
211
10
7.443863
20
6.676770
11
7.428833
21
6.687367
0
LINE
8
annotation
62
1
39
211
10
7.428833
20
6.687367
11
7.412053
21
6.695309
0
LINE
8
annotation
62
1
39
211
10
7.412053
20
6.695309
11
7.393827
21
6.700294
0
LINE
8
annotation
62
1
39
211
10
7.393827
20
6.700294
11
7.374457
21
6.702023
0
LINE
8
annotation
62
1
39
211
10
7.374457
20
6.702023
11
7.266759
21
6.702023
0
LINE
8
annotation
62
1
39
211
10
7.253270
20
6.372381
11
7.495766
21
6.372381
0
LINE
8
hole
62
5
39
2
10
4.220741
20
8.126114
11
4.243241
21
8.126114
0
LINE
8
hole
62
5
39
2
10
4.243241
20
8.126114
11
4.243241
21
8.148614
0
LINE
8
hole
62
5
39
2
10
4.243241
20
8.148614
11
4.220741
21
8.148614
0
LINE
8
hole
62
5
39
2
10
4.220741
20
8.148614
11
4.220741
21
8.126114
0
LINE
8
hole
62
5
39
2
10
4.753085
20
7.768238
11
4.775585
21
7.768238
0
LINE
8
hole
62
5
39
2
10
4.775585
20
7.768238
11
4.775585
21
7.790738
0
LINE
8
hole
62
5
39
2
10
4.775585
20
7.790738
11
4.753085
21
7.790738
0
LINE
8
hole
62
5
39
2
10
4.753085
20
7.790738
11
4.753085
21
7.768238
0
LINE
8
hole
62
5
39
2
10
5.749846
20
8.510957
11
5.772346
21
8.510957
0
LINE
8
hole
62
5
39
2
10
5.772346
20
8.510957
11
5.772346
21
8.533457
0
LINE
8
hole
62
5
39
2
10
5.772346
20
8.533457
11
5.749846
21
8.533457
0
LINE
8
hole
62
5
39
2
10
5.749846
20
8.533457
11
5.749846
21
8.510957
0
LINE
8
hole
62
5
39
2
10
5.089592
20
9.112759
11
5.112092
21
9.112759
0
LINE
8
hole
62
5
39
2
10
5.112092
20
9.112759
11
5.112092
21
9.135259
0
LINE
8
hole
62
5
39
2
10
5.112092
20
9.135259
11
5.089592
21
9.135259
0
LINE
8
hole
62
5
39
2
10
5.089592
20
9.135259
11
5.089592
21
9.112759
0
LINE
8
boundary
62
5
39
2
10
6.067550
20
7.536089
11
5.581585
21
9.688837
0
LINE
8
boundary
62
5
39
2
10
5.581585
20
9.688837
11
3.442370
21
7.859821
0
LINE
8
boundary
62
5
39
2
10
3.442370
20
7.859821
11
6.067550
21
7.536089
0
LINE
8
annotation
62
1
39
211
10
5.761096
20
8.522207
11
5.761096
21
8.578457
0
LINE
8
annotation
62
1
39
211
10
4.231991
20
8.137364
11
4.288241
21
8.137364
0
LINE
8
annotation
62
1
39
211
10
5.100842
20
9.124009
11
5.100842
21
9.180259
0
LINE
8
annotation
62
1
39
211
10
5.100842
20
9.124009
11
5.100842
21
9.180259
0
LINE
8
annotation
62
1
39
211
10
5.100842
20
9.180259
11
5.100842
21
9.124009
0
LINE
8
annotation
62
1
39
211
10
5.100842
20
9.124009
11
5.157092
21
9.124009
0
LINE
8
annotation
62
1
39
211
10
4.764335
20
7.779488
11
4.764335
21
7.723238
0
LINE
8
annotation
62
1
39
211
10
5.009367
20
8.035522
11
5.009367
21
8.697133
0
LINE
8
annotation
62
1
39
211
10
5.009367
20
8.697133
11
4.862282
21
8.550007
0
LINE
8
annotation
62
1
39
211
10
5.363723
20
8.044249
11
5.363723
21
8.044249
0
LINE
8
annotation
62
1
39
211
10
5.363723
20
8.044249
11
5.379099
21
8.038500
0
LINE
8
annotation
62
1
39
211
10
5.379099
20
8.038500
11
5.394869
21
8.035645
0
LINE
8
annotation
62
1
39
211
10
5.394869
20
8.035645
11
5.410676
21
8.035565
0
LINE
8
annotation
62
1
39
211
10
5.410676
20
8.035565
11
5.426164
21
8.038144
0
LINE
8
annotation
62
1
39
211
10
5.426164
20
8.038144
11
5.440975
21
8.043267
0
LINE
8
annotation
62
1
39
211
10
5.440975
20
8.043267
11
5.454753
21
8.050816
0
LINE
8
annotation
62
1
39
211
10
5.454753
20
8.050816
11
5.467143
21
8.060676
0
LINE
8
annotation
62
1
39
211
10
5.467143
20
8.060676
11
5.477786
21
8.072729
0
LINE
8
annotation
62
1
39
211
10
5.477786
20
8.072729
11
5.486328
21
8.086860
0
LINE
8
annotation
62
1
39
211
10
5.486328
20
8.086860
11
5.486328
21
8.086860
0
LINE
8
annotation
62
1
39
211
10
5.486328
20
8.086860
11
5.511812
21
8.146512
0
LINE
8
annotation
62
1
39
211
10
5.511812
20
8.146512
11
5.530926
21
8.207892
0
LINE
8
annotation
62
1
39
211
10
5.530926
20
8.207892
11
5.543668
21
8.270508
0
LINE
8
annotation
62
1
39
211
10
5.543668
20
8.270508
11
5.550039
21
8.333873
0
LINE
8
annotation
62
1
39
211
10
5.550039
20
8.333873
11
5.550039
21
8.397496
0
LINE
8
annotation
62
1
39
211
10
5.550039
20
8.397496
11
5.543668
21
8.460888
0
LINE
8
annotation
62
1
39
211
10
5.543668
20
8.460888
11
5.530926
21
8.523560
0
LINE
8
annotation
62
1
39
211
10
5.530926
20
8.523560
11
5.511812
21
8.585022
0
LINE
8
annotation
62
1
39
211
10
5.511812
20
8.585022
11
5.486328
21
8.644786
0
LINE
8
annotation
62
1
39
211
10
5.486328
20
8.644786
11
5.486328
21
8.644786
0
LINE
8
annotation
62
1
39
211
10
5.486328
20
8.644786
11
5.483087
21
8.650817
0
LINE
8
annotation
62
1
39
211
10
5.483087
20
8.650817
11
5.479413
21
8.656584
0
LINE
8
annotation
62
1
39
211
10
5.479413
20
8.656584
11
5.475333
21
8.662057
0
LINE
8
annotation
62
1
39
211
10
5.475333
20
8.662057
11
5.470875
21
8.667208
0
LINE
8
annotation
62
1
39
211
10
5.470875
20
8.667208
11
5.466067
21
8.672010
0
LINE
8
annotation
62
1
39
211
10
5.466067
20
8.672010
11
5.460936
21
8.676433
0
LINE
8
annotation
62
1
39
211
10
5.460936
20
8.676433
11
5.455509
21
8.680449
0
LINE
8
annotation
62
1
39
211
10
5.455509
20
8.680449
11
5.449816
21
8.684030
0
LINE
8
annotation
62
1
39
211
10
5.449816
20
8.684030
11
5.443883
21
8.687148
0
LINE
8
annotation
62
1
39
211
10
5.443883
20
8.687148
11
5.443883
21
8.687148
0
LINE
8
annotation
62
1
39
211
10
5.443883
20
8.687148
11
5.428384
21
8.693021
0
LINE
8
annotation
62
1
39
211
10
5.428384
20
8.693021
11
5.412522
21
8.695974
0
LINE
8
annotation
62
1
39
211
10
5.412522
20
8.695974
11
5.396648
21
8.696125
0
LINE
8
annotation
62
1
39
211
10
5.396648
20
8.696125
11
5.381115
21
8.693591
0
LINE
8
annotation
62
1
39
211
10
5.381115
20
8.693591
11
5.366276
21
8.688489
0
LINE
8
annotation
62
1
39
211
10
5.366276
20
8.688489
11
5.352483
21
8.680937
0
LINE
8
annotation
62
1
39
211
10
5.352483
20
8.680937
11
5.340089
21
8.671050
0
LINE
8
annotation
62
1
39
211
10
5.340089
20
8.671050
11
5.329445
21
8.658947
0
LINE
8
annotation
62
1
39
211
10
5.329445
20
8.658947
11
5.320904
21
8.644744
0
LINE
8
annotation
62
1
39
211
10
5.320904
20
8.644744
11
5.320904
21
8.644744
0
LINE
8
annotation
62
1
39
211
10
5.320904
20
8.644744
11
5.295543
21
8.585104
0
LINE
8
annotation
62
1
39
211
10
5.295543
20
8.585104
11
5.276521
21
8.523734
0
LINE
8
annotation
62
1
39
211
10
5.276521
20
8.523734
11
5.263841
21
8.461123
0
LINE
8
annotation
62
1
39
211
10
5.263841
20
8.461123
11
5.257500
21
8.397762
0
LINE
8
annotation
62
1
39
211
10
5.257500
20
8.397762
11
5.257500
21
8.334139
0
LINE
8
annotation
62
1
39
211
10
5.257500
20
8.334139
11
5.263841
21
8.270744
0
LINE
8
annotation
62
1
39
211
10
5.263841
20
8.270744
11
5.276521
21
8.208065
0
LINE
8
annotation
62
1
39
211
10
5.276521
20
8.208065
11
5.295543
21
8.146594
0
LINE
8
annotation
62
1
39
211
10
5.295543
20
8.146594
11
5.320904
21
8.086818
0
LINE
8
annotation
62
1
39
211
10
5.320904
20
8.086818
11
5.320904
21
8.086818
0
LINE
8
annotation
62
1
39
211
10
5.320904
20
8.086818
11
5.324133
21
8.080799
0
LINE
8
annotation
62
1
39
211
10
5.324133
20
8.080799
11
5.327780
21
8.075061
0
LINE
8
annotation
62
1
39
211
10
5.327780
20
8.075061
11
5.331830
21
8.069622
0
LINE
8
annotation
62
1
39
211
10
5.331830
20
8.069622
11
5.336267
21
8.064500
0
LINE
8
annotation
62
1
39
211
10
5.336267
20
8.064500
11
5.341076
21
8.059712
0
LINE
8
annotation
62
1
39
211
10
5.341076
20
8.059712
11
5.346241
21
8.055276
0
LINE
8
annotation
62
1
39
211
10
5.346241
20
8.055276
11
5.351748
21
8.051208
0
LINE
8
annotation
62
1
39
211
10
5.351748
20
8.051208
11
5.357580
21
8.047526
0
LINE
8
annotation
62
1
39
211
10
5.357580
20
8.047526
11
5.363723
21
8.044249
0
LINE
8
hole
62
5
39
2
10
4.207703
20
10.113433
11
4.230203
21
10.113433
0
LINE
8
hole
62
5
39
2
10
4.230203
20
10.113433
11
4.230203
21
10.135933
0
LINE
8
hole
62
5
39
2
10
4.230203
20
10.135933
11
4.207703
21
10.135933
0
LINE
8
hole
62
5
39
2
10
4.207703
20
10.135933
11
4.207703
21
10.113433
0
LINE
8
hole
62
5
39
2
10
3.944256
20
9.925932
11
3.966756
21
9.925932
0
LINE
8
hole
62
5
39
2
10
3.966756
20
9.925932
11
3.966756
21
9.948432
0
LINE
8
hole
62
5
39
2
10
3.966756
20
9.948432
11
3.944256
21
9.948432
0
LINE
8
hole
62
5
39
2
10
3.944256
20
9.948432
11
3.944256
21
9.925932
0
LINE
8
hole
62
5
39
2
10
4.014511
20
10.019083
11
4.037011
21
10.019083
0
LINE
8
hole
62
5
39
2
10
4.037011
20
10.019083
11
4.037011
21
10.041583
0
LINE
8
hole
62
5
39
2
10
4.037011
20
10.041583
11
4.014511
21
10.041583
0
LINE
8
hole
62
5
39
2
10
4.014511
20
10.041583
11
4.014511
21
10.019083
0
LINE
8
hole
62
5
39
2
10
4.086738
20
10.324337
11
4.109238
21
10.324337
0
LINE
8
hole
62
5
39
2
10
4.109238
20
10.324337
11
4.109238
21
10.346837
0
LINE
8
hole
62
5
39
2
10
4.109238
20
10.346837
11
4.086738
21
10.346837
0
LINE
8
hole
62
5
39
2
10
4.086738
20
10.346837
11
4.086738
21
10.324337
0
LINE
8
boundary
62
5
39
2
10
4.374892
20
9.813837
11
4.202266
21
10.578540
0
LINE
8
boundary
62
5
39
2
10
4.202266
20
10.578540
11
3.442370
21
9.928834
0
LINE
8
boundary
62
5
39
2
10
3.442370
20
9.928834
11
4.374892
21
9.813837
0
LINE
8
annotation
62
1
39
211
10
4.218953
20
10.124683
11
4.218953
21
10.180933
0
LINE
8
annotation
62
1
39
211
10
4.025761
20
10.030333
11
4.082011
21
10.030333
0
LINE
8
annotation
62
1
39
211
10
4.097988
20
10.335587
11
4.097988
21
10.391837
0
LINE
8
annotation
62
1
39
211
10
4.097988
20
10.335587
11
4.097988
21
10.391837
0
LINE
8
annotation
62
1
39
211
10
4.097988
20
10.391837
11
4.097988
21
10.335587
0
LINE
8
annotation
62
1
39
211
10
4.097988
20
10.335587
11
4.154238
21
10.335587
0
LINE
8
annotation
62
1
39
211
10
3.955506
20
9.937182
11
3.955506
21
9.880932
0
LINE
8
annotation
62
1
39
211
10
4.183113
20
10.023673
11
4.071261
21
10.023673
0
LINE
8
annotation
62
1
39
211
10
4.071261
20
10.023673
11
4.115931
21
10.180334
0
LINE
8
annotation
62
1
39
211
10
4.149585
20
9.978889
11
4.149585
21
10.068356
0
LINE
8
hole
62
5
39
2
10
7.188346
20
7.801085
11
7.210846
21
7.801085
0
LINE
8
hole
62
5
39
2
10
7.210846
20
7.801085
11
7.210846
21
7.823585
0
LINE
8
hole
62
5
39
2
10
7.210846
20
7.823585
11
7.188346
21
7.823585
0
LINE
8
hole
62
5
39
2
10
7.188346
20
7.823585
11
7.188346
21
7.801085
0
LINE
8
hole
62
5
39
2
10
7.640357
20
9.417383
11
7.662857
21
9.417383
0
LINE
8
hole
62
5
39
2
10
7.662857
20
9.417383
11
7.662857
21
9.439883
0
LINE
8
hole
62
5
39
2
10
7.662857
20
9.439883
11
7.640357
21
9.439883
0
LINE
8
hole
62
5
39
2
10
7.640357
20
9.439883
11
7.640357
21
9.417383
0
LINE
8
hole
62
5
39
2
10
7.743992
20
9.160071
11
7.766492
21
9.160071
0
LINE
8
hole
62
5
39
2
10
7.766492
20
9.160071
11
7.766492
21
9.182571
0
LINE
8
hole
62
5
39
2
10
7.766492
20
9.182571
11
7.743992
21
9.182571
0
LINE
8
hole
62
5
39
2
10
7.743992
20
9.182571
11
7.743992
21
9.160071
0
LINE
8
hole
62
5
39
2
10
6.852228
20
8.771714
11
6.874728
21
8.771714
0
LINE
8
hole
62
5
39
2
10
6.874728
20
8.771714
11
6.874728
21
8.794214
0
LINE
8
hole
62
5
39
2
10
6.874728
20
8.794214
11
6.852228
21
8.794214
0
LINE
8
hole
62
5
39
2
10
6.852228
20
8.794214
11
6.852228
21
8.771714
0
LINE
8
boundary
62
5
39
2
10
8.206641
20
7.536089
11
7.583037
21
10.298556
0
LINE
8
boundary
62
5
39
2
10
7.583037
20
10.298556
11
6.192550
21
7.784462
0
LINE
8
boundary
62
5
39
2
10
6.192550
20
7.784462
11
8.206641
21
7.536089
0
LINE
8
annotation
62
1
39
211
10
7.600513
20
9.613528
11
6.656037
21
7.905848
0
LINE
8
annotation
62
1
39
211
10
7.755242
20
9.171321
11
7.755242
21
9.227571
0
LINE
8
annotation
62
1
39
211
10
6.863478
20
8.782964
11
6.919728
21
8.782964
0
LINE
8
annotation
62
1
39
211
10
7.651607
20
9.428633
11
7.651607
21
9.484883
0
LINE
8
annotation
62
1
39
211
10
7.651607
20
9.428633
11
7.651607
21
9.484883
0
LINE
8
annotation
62
1
39
211
10
7.651607
20
9.484883
11
7.651607
21
9.428633
0
LINE
8
annotation
62
1
39
211
10
7.651607
20
9.428633
11
7.707857
21
9.428633
0
LINE
8
annotation
62
1
39
211
10
7.199596
20
7.812335
11
7.199596
21
7.756085
0
LINE
8
annotation
62
1
39
211
10
7.322093
20
8.107489
11
7.101233
21
8.107489
0
LINE
8
annotation
62
1
39
211
10
7.101233
20
8.107489
11
7.305315
21
8.436035
0
LINE
8
annotation
62
1
39
211
10
7.305315
20
8.436035
11
7.305315
21
8.436035
0
LINE
8
annotation
62
1
39
211
10
7.305315
20
8.436035
11
7.305558
21
8.436337
0
LINE
8
annotation
62
1
39
211
10
7.305558
20
8.436337
11
7.305792
21
8.436641
0
LINE
8
annotation
62
1
39
211
10
7.305792
20
8.436641
11
7.306018
21
8.436951
0
LINE
8
annotation
62
1
39
211
10
7.306018
20
8.436951
11
7.306237
21
8.437268
0
LINE
8
annotation
62
1
39
211
10
7.306237
20
8.437268
11
7.306450
21
8.437596
0
LINE
8
annotation
62
1
39
211
10
7.306450
20
8.437596
11
7.306659
21
8.437936
0
LINE
8
annotation
62
1
39
211
10
7.306659
20
8.437936
11
7.306866
21
8.438292
0
LINE
8
annotation
62
1
39
211
10
7.306866
20
8.438292
11
7.307072
21
8.438666
0
LINE
8
annotation
62
1
39
211
10
7.307072
20
8.438666
11
7.307279
21
8.439060
0
LINE
8
annotation
62
1
39
211
10
7.307279
20
8.439060
11
7.307279
21
8.439060
0
LINE
8
annotation
62
1
39
211
10
7.307279
20
8.439060
11
7.315706
21
8.457152
0
LINE
8
annotation
62
1
39
211
10
7.315706
20
8.457152
11
7.320628
21
8.475907
0
LINE
8
annotation
62
1
39
211
10
7.320628
20
8.475907
11
7.322168
21
8.494899
0
LINE
8
annotation
62
1
39
211
10
7.322168
20
8.494899
11
7.320445
21
8.513706
0
LINE
8
annotation
62
1
39
211
10
7.320445
20
8.513706
11
7.315579
21
8.531904
0
LINE
8
annotation
62
1
39
211
10
7.315579
20
8.531904
11
7.307693
21
8.549068
0
LINE
8
annotation
62
1
39
211
10
7.307693
20
8.549068
11
7.296906
21
8.564776
0
LINE
8
annotation
62
1
39
211
10
7.296906
20
8.564776
11
7.283338
21
8.578603
0
LINE
8
annotation
62
1
39
211
10
7.283338
20
8.578603
11
7.267112
21
8.590126
0
LINE
8
annotation
62
1
39
211
10
7.267112
20
8.590126
11
7.267112
21
8.590126
0
LINE
8
annotation
62
1
39
211
10
7.267112
20
8.590126
11
7.248969
21
8.598432
0
LINE
8
annotation
62
1
39
211
10
7.248969
20
8.598432
11
7.230186
21
8.603279
0
LINE
8
annotation
62
1
39
211
10
7.230186
20
8.603279
11
7.211182
21
8.604775
0
LINE
8
annotation
62
1
39
211
10
7.211182
20
8.604775
11
7.192378
21
8.603029
0
LINE
8
annotation
62
1
39
211
10
7.192378
20
8.603029
11
7.174193
21
8.598150
0
LINE
8
annotation
62
1
39
211
10
7.174193
20
8.598150
11
7.157048
21
8.590248
0
LINE
8
annotation
62
1
39
211
10
7.157048
20
8.590248
11
7.141361
21
8.579431
0
LINE
8
annotation
62
1
39
211
10
7.141361
20
8.579431
11
7.127554
21
8.565809
0
LINE
8
annotation
62
1
39
211
10
7.127554
20
8.565809
11
7.116046
21
8.549490
0
LINE
8
annotation
62
1
39
211
10
7.116046
20
8.549490
11
7.101544
21
8.521672
0
LINE
8
annotation
62
1
39
211
10
7.729513
20
8.107489
11
7.508653
21
8.107489
0
LINE
8
annotation
62
1
39
211
10
7.508653
20
8.107489
11
7.712735
21
8.436035
0
LINE
8
annotation
62
1
39
211
10
7.712735
20
8.436035
11
7.712735
21
8.436035
0
LINE
8
annotation
62
1
39
211
10
7.712735
20
8.436035
11
7.712979
21
8.436337
0
LINE
8
annotation
62
1
39
211
10
7.712979
20
8.436337
11
7.713213
21
8.436641
0
LINE
8
annotation
62
1
39
211
10
7.713213
20
8.436641
11
7.713438
21
8.436951
0
LINE
8
annotation
62
1
39
211
10
7.713438
20
8.436951
11
7.713657
21
8.437268
0
LINE
8
annotation
62
1
39
211
10
7.713657
20
8.437268
11
7.713870
21
8.437596
0
LINE
8
annotation
62
1
39
211
10
7.713870
20
8.437596
11
7.714079
21
8.437936
0
LINE
8
annotation
62
1
39
211
10
7.714079
20
8.437936
11
7.714286
21
8.438292
0
LINE
8
annotation
62
1
39
211
10
7.714286
20
8.438292
11
7.714493
21
8.438666
0
LINE
8
annotation
62
1
39
211
10
7.714493
20
8.438666
11
7.714700
21
8.439060
0
LINE
8
annotation
62
1
39
211
10
7.714700
20
8.439060
11
7.714700
21
8.439060
0
LINE
8
annotation
62
1
39
211
10
7.714700
20
8.439060
11
7.723126
21
8.457152
0
LINE
8
annotation
62
1
39
211
10
7.723126
20
8.457152
11
7.728049
21
8.475907
0
LINE
8
annotation
62
1
39
211
10
7.728049
20
8.475907
11
7.729588
21
8.494899
0
LINE
8
annotation
62
1
39
211
10
7.729588
20
8.494899
11
7.727865
21
8.513706
0
LINE
8
annotation
62
1
39
211
10
7.727865
20
8.513706
11
7.723000
21
8.531904
0
LINE
8
annotation
62
1
39
211
10
7.723000
20
8.531904
11
7.715113
21
8.549068
0
LINE
8
annotation
62
1
39
211
10
7.715113
20
8.549068
11
7.704326
21
8.564776
0
LINE
8
annotation
62
1
39
211
10
7.704326
20
8.564776
11
7.690759
21
8.578603
0
LINE
8
annotation
62
1
39
211
10
7.690759
20
8.578603
11
7.674532
21
8.590126
0
LINE
8
annotation
62
1
39
211
10
7.674532
20
8.590126
11
7.674532
21
8.590126
0
LINE
8
annotation
62
1
39
211
10
7.674532
20
8.590126
11
7.656389
21
8.598432
0
LINE
8
annotation
62
1
39
211
10
7.656389
20
8.598432
11
7.637606
21
8.603279
0
LINE
8
annotation
62
1
39
211
10
7.637606
20
8.603279
11
7.618603
21
8.604775
0
LINE
8
annotation
62
1
39
211
10
7.618603
20
8.604775
11
7.599798
21
8.603029
0
LINE
8
annotation
62
1
39
211
10
7.599798
20
8.603029
11
7.581614
21
8.598150
0
LINE
8
annotation
62
1
39
211
10
7.581614
20
8.598150
11
7.564468
21
8.590248
0
LINE
8
annotation
62
1
39
211
10
7.564468
20
8.590248
11
7.548782
21
8.579431
0
LINE
8
annotation
62
1
39
211
10
7.548782
20
8.579431
11
7.534975
21
8.565809
0
LINE
8
annotation
62
1
39
211
10
7.534975
20
8.565809
11
7.523466
21
8.549490
0
LINE
8
annotation
62
1
39
211
10
7.523466
20
8.549490
11
7.508965
21
8.521672
0
LINE
8
frame
62
5
39
2
10
0.000000
20
0.000000
11
8.500000
21
0.000000
0
LINE
8
frame
62
5
39
2
10
8.500000
20
0.000000
11
8.500000
21
11.000000
0
LINE
8
frame
62
5
39
2
10
8.500000
20
11.000000
11
0.000000
21
11.000000
0
LINE
8
frame
62
5
39
2
10
0.000000
20
11.000000
11
0.000000
21
0.000000
0
ENDSEC
0
EOF
