0
SECTION
2
HEADER
9
$ACADVER
1
AC1009
0
ENDSEC
0
SECTION
2
TABLES
0
TABLE
2
VPORT
70
1
0
VPORT
2
ACTIVE
70
0
10
0.0
20
0.0
11
0.0
21
0.0
12
0.0
22
0.0
13
0.0
23
0.0
14
0.0
24
0.0
15
0.0
25
0.0
16
0.0
26
0.0
36
0.0
17
0.0
27
0.0
37
0.0
40
0.0
41
0.0
42
0.0
43
0.0
44
0.0
50
0.0
51
0.0
71
0
72
1000
73
1
74
3
75
0
76
0
77
0
78
0
0
ENDTAB
0
ENDSEC
0
SECTION
2
ENTITIES
0
LINE
8
hole
62
5
39
2
10
0.836858
20
0.549286
11
0.859358
21
0.549286
0
LINE
8
hole
62
5
39
2
10
0.859358
20
0.549286
11
0.859358
21
0.571786
0
LINE
8
hole
62
5
39
2
10
0.859358
20
0.571786
11
0.836858
21
0.571786
0
LINE
8
hole
62
5
39
2
10
0.836858
20
0.571786
11
0.836858
21
0.549286
0
LINE
8
hole
62
5
39
2
10
0.599109
20
1.361769
11
0.621609
21
1.361769
0
LINE
8
hole
62
5
39
2
10
0.621609
20
1.361769
11
0.621609
21
1.384269
0
LINE
8
hole
62
5
39
2
10
0.621609
20
1.384269
11
0.599109
21
1.384269
0
LINE
8
hole
62
5
39
2
10
0.599109
20
1.384269
11
0.599109
21
1.361769
0
LINE
8
hole
62
5
39
2
10
0.456287
20
0.931535
11
0.478787
21
0.931535
0
LINE
8
hole
62
5
39
2
10
0.478787
20
0.931535
11
0.478787
21
0.954035
0
LINE
8
hole
62
5
39
2
10
0.478787
20
0.954035
11
0.456287
21
0.954035
0
LINE
8
hole
62
5
39
2
10
0.456287
20
0.954035
11
0.456287
21
0.931535
0
LINE
8
hole
62
5
39
2
10
1.004416
20
0.754842
11
1.026916
21
0.754842
0
LINE
8
hole
62
5
39
2
10
1.026916
20
0.754842
11
1.026916
21
0.777342
0
LINE
8
hole
62
5
39
2
10
1.026916
20
0.777342
11
1.004416
21
0.777342
0
LINE
8
hole
62
5
39
2
10
1.004416
20
0.777342
11
1.004416
21
0.754842
0
LINE
8
boundary
62
5
39
2
10
0.262500
20
0.864941
11
0.262500
21
0.262500
0
LINE
8
boundary
62
5
39
2
10
0.262500
20
0.262500
11
1.566062
21
0.702859
0
LINE
8
boundary
62
5
39
2
10
1.566062
20
0.702859
11
0.976069
21
1.212030
0
LINE
8
boundary
62
5
39
2
10
0.976069
20
1.212030
11
0.262500
21
1.827849
0
LINE
8
boundary
62
5
39
2
10
0.262500
20
1.827849
11
0.262500
21
0.864941
0
LINE
8
annotation
62
1
39
211
10
1.015666
20
0.766092
11
1.015666
21
0.822342
0
LINE
8
annotation
62
1
39
211
10
1.015666
20
0.766092
11
1.015666
21
0.822342
0
LINE
8
annotation
62
1
39
211
10
1.015666
20
0.822342
11
1.015666
21
0.766092
0
LINE
8
annotation
62
1
39
211
10
1.015666
20
0.766092
11
1.071916
21
0.766092
0
LINE
8
annotation
62
1
39
211
10
0.467537
20
0.942785
11
0.467537
21
0.886535
0
LINE
8
annotation
62
1
39
211
10
0.610359
20
1.373019
11
0.610359
21
1.429269
0
LINE
8
annotation
62
1
39
211
10
0.610359
20
1.373019
11
0.610359
21
1.429269
0
LINE
8
annotation
62
1
39
211
10
0.610359
20
1.429269
11
0.610359
21
1.373019
0
LINE
8
annotation
62
1
39
211
10
0.610359
20
1.373019
11
0.610359
21
1.316769
0
LINE
8
annotation
62
1
39
211
10
0.848108
20
0.560536
11
0.904358
21
0.560536
0
LINE
8
annotation
62
1
39
211
10
0.848108
20
0.560536
11
0.904358
21
0.560536
0
LINE
8
annotation
62
1
39
211
10
0.904358
20
0.560536
11
0.848108
21
0.560536
0
LINE
8
annotation
62
1
39
211
10
0.848108
20
0.560536
11
0.848108
21
0.504286
0
LINE
8
annotation
62
1
39
211
10
0.794786
20
0.748748
11
0.544443
21
0.748748
0
LINE
8
annotation
62
1
39
211
10
0.544443
20
0.748748
11
0.644422
21
1.099380
0
LINE
8
annotation
62
1
39
211
10
0.719745
20
0.648514
11
0.719745
21
0.848755
0
LINE
8
hole
62
5
39
2
10
1.909058
20
0.752397
11
1.931558
21
0.752397
0
LINE
8
hole
62
5
39
2
10
1.931558
20
0.752397
11
1.931558
21
0.774897
0
LINE
8
hole
62
5
39
2
10
1.931558
20
0.774897
11
1.909058
21
0.774897
0
LINE
8
hole
62
5
39
2
10
1.909058
20
0.774897
11
1.909058
21
0.752397
0
LINE
8
hole
62
5
39
2
10
2.000731
20
0.553185
11
2.023231
21
0.553185
0
LINE
8
hole
62
5
39
2
10
2.023231
20
0.553185
11
2.023231
21
0.575685
0
LINE
8
hole
62
5
39
2
10
2.023231
20
0.575685
11
2.000731
21
0.575685
0
LINE
8
hole
62
5
39
2
10
2.000731
20
0.575685
11
2.000731
21
0.553185
0
LINE
8
hole
62
5
39
2
10
1.771178
20
0.799821
11
1.793678
21
0.799821
0
LINE
8
hole
62
5
39
2
10
1.793678
20
0.799821
11
1.793678
21
0.822321
0
LINE
8
hole
62
5
39
2
10
1.793678
20
0.822321
11
1.771178
21
0.822321
0
LINE
8
hole
62
5
39
2
10
1.771178
20
0.822321
11
1.771178
21
0.799821
0
LINE
8
hole
62
5
39
2
10
2.319307
20
0.623127
11
2.341807
21
0.623127
0
LINE
8
hole
62
5
39
2
10
2.341807
20
0.623127
11
2.341807
21
0.645627
0
LINE
8
hole
62
5
39
2
10
2.341807
20
0.645627
11
2.319307
21
0.645627
0
LINE
8
hole
62
5
39
2
10
2.319307
20
0.645627
11
2.319307
21
0.623127
0
LINE
8
boundary
62
5
39
2
10
1.691062
20
0.684746
11
1.691062
21
0.262500
0
LINE
8
boundary
62
5
39
2
10
1.691062
20
0.262500
11
2.604720
21
0.571145
0
LINE
8
boundary
62
5
39
2
10
2.604720
20
0.571145
11
2.191198
21
0.928019
0
LINE
8
boundary
62
5
39
2
10
2.191198
20
0.928019
11
1.691062
21
1.359641
0
LINE
8
boundary
62
5
39
2
10
1.691062
20
1.359641
11
1.691062
21
0.684746
0
LINE
8
annotation
62
1
39
211
10
1.920308
20
0.763647
11
1.920308
21
0.819897
0
LINE
8
annotation
62
1
39
211
10
2.011981
20
0.564435
11
2.068231
21
0.564435
0
LINE
8
annotation
62
1
39
211
10
2.330557
20
0.634377
11
2.330557
21
0.690627
0
LINE
8
annotation
62
1
39
211
10
2.330557
20
0.634377
11
2.330557
21
0.690627
0
LINE
8
annotation
62
1
39
211
10
2.330557
20
0.690627
11
2.330557
21
0.634377
0
LINE
8
annotation
62
1
39
211
10
2.330557
20
0.634377
11
2.386807
21
0.634377
0
LINE
8
annotation
62
1
39
211
10
1.782428
20
0.811071
11
1.782428
21
0.754821
0
LINE
8
annotation
62
1
39
211
10
1.734787
20
0.601643
11
1.804960
21
0.601643
0
LINE
8
annotation
62
1
39
211
10
1.804960
20
0.601643
11
1.804960
21
0.601643
0
LINE
8
annotation
62
1
39
211
10
1.804960
20
0.601643
11
1.817581
21
0.602775
0
LINE
8
annotation
62
1
39
211
10
1.817581
20
0.602775
11
1.829457
21
0.606038
0
LINE
8
annotation
62
1
39
211
10
1.829457
20
0.606038
11
1.840390
21
0.611232
0
LINE
8
annotation
62
1
39
211
10
1.840390
20
0.611232
11
1.850183
21
0.618155
0
LINE
8
annotation
62
1
39
211
10
1.850183
20
0.618155
11
1.858639
21
0.626609
0
LINE
8
annotation
62
1
39
211
10
1.858639
20
0.626609
11
1.865559
21
0.636392
0
LINE
8
annotation
62
1
39
211
10
1.865559
20
0.636392
11
1.870747
21
0.647305
0
LINE
8
annotation
62
1
39
211
10
1.870747
20
0.647305
11
1.874004
21
0.659147
0
LINE
8
annotation
62
1
39
211
10
1.874004
20
0.659147
11
1.875134
21
0.671717
0
LINE
8
annotation
62
1
39
211
10
1.875134
20
0.671717
11
1.875134
21
0.706853
0
LINE
8
annotation
62
1
39
211
10
1.875134
20
0.706853
11
1.875134
21
0.706853
0
LINE
8
annotation
62
1
39
211
10
1.875134
20
0.706853
11
1.874004
21
0.719419
0
LINE
8
annotation
62
1
39
211
10
1.874004
20
0.719419
11
1.870747
21
0.731258
0
LINE
8
annotation
62
1
39
211
10
1.870747
20
0.731258
11
1.865559
21
0.742170
0
LINE
8
annotation
62
1
39
211
10
1.865559
20
0.742170
11
1.858639
21
0.751953
0
LINE
8
annotation
62
1
39
211
10
1.858639
20
0.751953
11
1.850183
21
0.760409
0
LINE
8
annotation
62
1
39
211
10
1.850183
20
0.760409
11
1.840390
21
0.767335
0
LINE
8
annotation
62
1
39
211
10
1.840390
20
0.767335
11
1.829457
21
0.772530
0
LINE
8
annotation
62
1
39
211
10
1.829457
20
0.772530
11
1.817581
21
0.775795
0
LINE
8
annotation
62
1
39
211
10
1.817581
20
0.775795
11
1.804960
21
0.776928
0
LINE
8
annotation
62
1
39
211
10
1.804960
20
0.776928
11
1.769824
21
0.776928
0
LINE
8
annotation
62
1
39
211
10
1.769824
20
0.776928
11
1.804960
21
0.776928
0
LINE
8
annotation
62
1
39
211
10
1.804960
20
0.776928
11
1.804960
21
0.776928
0
LINE
8
annotation
62
1
39
211
10
1.804960
20
0.776928
11
1.817581
21
0.778061
0
LINE
8
annotation
62
1
39
211
10
1.817581
20
0.778061
11
1.829457
21
0.781327
0
LINE
8
annotation
62
1
39
211
10
1.829457
20
0.781327
11
1.840390
21
0.786528
0
LINE
8
annotation
62
1
39
211
10
1.840390
20
0.786528
11
1.850183
21
0.793464
0
LINE
8
annotation
62
1
39
211
10
1.850183
20
0.793464
11
1.858639
21
0.801936
0
LINE
8
annotation
62
1
39
211
10
1.858639
20
0.801936
11
1.865559
21
0.811745
0
LINE
8
annotation
62
1
39
211
10
1.865559
20
0.811745
11
1.870747
21
0.822691
0
LINE
8
annotation
62
1
39
211
10
1.870747
20
0.822691
11
1.874004
21
0.834576
0
LINE
8
annotation
62
1
39
211
10
1.874004
20
0.834576
11
1.875134
21
0.847200
0
LINE
8
annotation
62
1
39
211
10
1.875134
20
0.847200
11
1.875134
21
0.847200
0
LINE
8
annotation
62
1
39
211
10
1.875134
20
0.847200
11
1.874004
21
0.859766
0
LINE
8
annotation
62
1
39
211
10
1.874004
20
0.859766
11
1.870747
21
0.871605
0
LINE
8
annotation
62
1
39
211
10
1.870747
20
0.871605
11
1.865559
21
0.882516
0
LINE
8
annotation
62
1
39
211
10
1.865559
20
0.882516
11
1.858639
21
0.892300
0
LINE
8
annotation
62
1
39
211
10
1.858639
20
0.892300
11
1.850183
21
0.900756
0
LINE
8
annotation
62
1
39
211
10
1.850183
20
0.900756
11
1.840390
21
0.907682
0
LINE
8
annotation
62
1
39
211
10
1.840390
20
0.907682
11
1.829457
21
0.912877
0
LINE
8
annotation
62
1
39
211
10
1.829457
20
0.912877
11
1.817581
21
0.916142
0
LINE
8
annotation
62
1
39
211
10
1.817581
20
0.916142
11
1.804960
21
0.917275
0
LINE
8
annotation
62
1
39
211
10
1.804960
20
0.917275
11
1.734787
21
0.917275
0
LINE
8
frame
62
5
39
2
10
0.000000
20
0.000000
11
8.500000
21
0.000000
0
LINE
8
frame
62
5
39
2
10
8.500000
20
0.000000
11
8.500000
21
11.000000
0
LINE
8
frame
62
5
39
2
10
8.500000
20
11.000000
11
0.000000
21
11.000000
0
LINE
8
frame
62
5
39
2
10
0.000000
20
11.000000
11
0.000000
21
0.000000
0
ENDSEC
0
EOF
