0
SECTION
2
HEADER
9
$ACADVER
1
AC1009
0
ENDSEC
0
SECTION
2
TABLES
0
TABLE
2
VPORT
70
1
0
VPORT
2
ACTIVE
70
0
10
0.0
20
0.0
11
0.0
21
0.0
12
0.0
22
0.0
13
0.0
23
0.0
14
0.0
24
0.0
15
0.0
25
0.0
16
0.0
26
0.0
36
0.0
17
0.0
27
0.0
37
0.0
40
0.0
41
0.0
42
0.0
43
0.0
44
0.0
50
0.0
51
0.0
71
0
72
1000
73
1
74
3
75
0
76
0
77
0
78
0
0
ENDTAB
0
ENDSEC
0
SECTION
2
ENTITIES
0
LINE
8
hole
62
5
39
2
10
1.465159
20
0.816702
11
1.487659
21
0.816702
0
LINE
8
hole
62
5
39
2
10
1.487659
20
0.816702
11
1.487659
21
0.839202
0
LINE
8
hole
62
5
39
2
10
1.487659
20
0.839202
11
1.465159
21
0.839202
0
LINE
8
hole
62
5
39
2
10
1.465159
20
0.839202
11
1.465159
21
0.816702
0
LINE
8
hole
62
5
39
2
10
2.389771
20
1.629395
11
2.412271
21
1.629395
0
LINE
8
hole
62
5
39
2
10
2.412271
20
1.629395
11
2.412271
21
1.651895
0
LINE
8
hole
62
5
39
2
10
2.412271
20
1.651895
11
2.389771
21
1.651895
0
LINE
8
hole
62
5
39
2
10
2.389771
20
1.651895
11
2.389771
21
1.629395
0
LINE
8
hole
62
5
39
2
10
0.488863
20
1.629395
11
0.511363
21
1.629395
0
LINE
8
hole
62
5
39
2
10
0.511363
20
1.629395
11
0.511363
21
1.651895
0
LINE
8
hole
62
5
39
2
10
0.511363
20
1.651895
11
0.488863
21
1.651895
0
LINE
8
hole
62
5
39
2
10
0.488863
20
1.651895
11
0.488863
21
1.629395
0
LINE
8
hole
62
5
39
2
10
1.468614
20
2.675643
11
1.491114
21
2.675643
0
LINE
8
hole
62
5
39
2
10
1.491114
20
2.675643
11
1.491114
21
2.698143
0
LINE
8
hole
62
5
39
2
10
1.491114
20
2.698143
11
1.468614
21
2.698143
0
LINE
8
hole
62
5
39
2
10
1.468614
20
2.698143
11
1.468614
21
2.675643
0
LINE
8
boundary
62
5
39
2
10
0.262500
20
1.727766
11
0.262500
21
0.359952
0
LINE
8
boundary
62
5
39
2
10
0.262500
20
0.359952
11
0.375421
21
0.262500
0
LINE
8
boundary
62
5
39
2
10
0.375421
20
0.262500
11
2.638635
21
1.027042
0
LINE
8
boundary
62
5
39
2
10
2.638635
20
1.027042
11
2.638635
21
2.080107
0
LINE
8
boundary
62
5
39
2
10
2.638635
20
2.080107
11
2.043238
21
2.593941
0
LINE
8
boundary
62
5
39
2
10
2.043238
20
2.593941
11
1.550951
21
3.018790
0
LINE
8
boundary
62
5
39
2
10
1.550951
20
3.018790
11
0.817498
21
2.771020
0
LINE
8
boundary
62
5
39
2
10
0.817498
20
2.771020
11
0.262500
21
2.583535
0
LINE
8
boundary
62
5
39
2
10
0.262500
20
2.583535
11
0.262500
21
1.727766
0
LINE
8
annotation
62
1
39
211
10
1.479864
20
2.686893
11
1.479864
21
2.743143
0
LINE
8
annotation
62
1
39
211
10
1.476409
20
0.827952
11
1.532659
21
0.827952
0
LINE
8
annotation
62
1
39
211
10
2.401021
20
1.640645
11
2.401021
21
1.696895
0
LINE
8
annotation
62
1
39
211
10
2.401021
20
1.640645
11
2.401021
21
1.696895
0
LINE
8
annotation
62
1
39
211
10
2.401021
20
1.696895
11
2.401021
21
1.640645
0
LINE
8
annotation
62
1
39
211
10
2.401021
20
1.640645
11
2.457271
21
1.640645
0
LINE
8
annotation
62
1
39
211
10
0.500113
20
1.640645
11
0.500113
21
1.584395
0
LINE
8
annotation
62
1
39
211
10
0.499656
20
0.916013
11
0.499656
21
0.916013
0
LINE
8
annotation
62
1
39
211
10
0.499656
20
0.916013
11
0.575278
21
0.944193
0
LINE
8
annotation
62
1
39
211
10
0.575278
20
0.944193
11
0.644690
21
0.982284
0
LINE
8
annotation
62
1
39
211
10
0.644690
20
0.982284
11
0.707173
21
1.029315
0
LINE
8
annotation
62
1
39
211
10
0.707173
20
1.029315
11
0.762012
21
1.084316
0
LINE
8
annotation
62
1
39
211
10
0.762012
20
1.084316
11
0.808489
21
1.146315
0
LINE
8
annotation
62
1
39
211
10
0.808489
20
1.146315
11
0.845886
21
1.214343
0
LINE
8
annotation
62
1
39
211
10
0.845886
20
1.214343
11
0.873486
21
1.287429
0
LINE
8
annotation
62
1
39
211
10
0.873486
20
1.287429
11
0.890573
21
1.364602
0
LINE
8
annotation
62
1
39
211
10
0.890573
20
1.364602
11
0.896427
21
1.444892
0
LINE
8
annotation
62
1
39
211
10
0.896427
20
1.444892
11
0.896427
21
1.842036
0
LINE
8
annotation
62
1
39
211
10
0.896427
20
1.842036
11
0.896427
21
1.842036
0
LINE
8
annotation
62
1
39
211
10
0.896427
20
1.842036
11
0.892170
21
1.889609
0
LINE
8
annotation
62
1
39
211
10
0.892170
20
1.889609
11
0.879895
21
1.934396
0
LINE
8
annotation
62
1
39
211
10
0.879895
20
1.934396
11
0.860346
21
1.975646
0
LINE
8
annotation
62
1
39
211
10
0.860346
20
1.975646
11
0.834268
21
2.012609
0
LINE
8
annotation
62
1
39
211
10
0.834268
20
2.012609
11
0.802405
21
2.044534
0
LINE
8
annotation
62
1
39
211
10
0.802405
20
2.044534
11
0.765501
21
2.070671
0
LINE
8
annotation
62
1
39
211
10
0.765501
20
2.070671
11
0.724300
21
2.090270
0
LINE
8
annotation
62
1
39
211
10
0.724300
20
2.090270
11
0.679548
21
2.102579
0
LINE
8
annotation
62
1
39
211
10
0.679548
20
2.102579
11
0.631988
21
2.106849
0
LINE
8
annotation
62
1
39
211
10
0.631988
20
2.106849
11
0.631988
21
2.106849
0
LINE
8
annotation
62
1
39
211
10
0.631988
20
2.106849
11
0.584526
21
2.102579
0
LINE
8
annotation
62
1
39
211
10
0.584526
20
2.102579
11
0.539826
21
2.090270
0
LINE
8
annotation
62
1
39
211
10
0.539826
20
2.090270
11
0.498641
21
2.070671
0
LINE
8
annotation
62
1
39
211
10
0.498641
20
2.070671
11
0.461725
21
2.044534
0
LINE
8
annotation
62
1
39
211
10
0.461725
20
2.044534
11
0.429831
21
2.012609
0
LINE
8
annotation
62
1
39
211
10
0.429831
20
2.012609
11
0.403713
21
1.975646
0
LINE
8
annotation
62
1
39
211
10
0.403713
20
1.975646
11
0.384124
21
1.934396
0
LINE
8
annotation
62
1
39
211
10
0.384124
20
1.934396
11
0.371818
21
1.889609
0
LINE
8
annotation
62
1
39
211
10
0.371818
20
1.889609
11
0.367548
21
1.842036
0
LINE
8
annotation
62
1
39
211
10
0.367548
20
1.842036
11
0.367548
21
1.709630
0
LINE
8
annotation
62
1
39
211
10
0.367548
20
1.709630
11
0.367548
21
1.709630
0
LINE
8
annotation
62
1
39
211
10
0.367548
20
1.709630
11
0.371818
21
1.662060
0
LINE
8
annotation
62
1
39
211
10
0.371818
20
1.662060
11
0.384124
21
1.617280
0
LINE
8
annotation
62
1
39
211
10
0.384124
20
1.617280
11
0.403713
21
1.576040
0
LINE
8
annotation
62
1
39
211
10
0.403713
20
1.576040
11
0.429831
21
1.539089
0
LINE
8
annotation
62
1
39
211
10
0.429831
20
1.539089
11
0.461725
21
1.507176
0
LINE
8
annotation
62
1
39
211
10
0.461725
20
1.507176
11
0.498641
21
1.481050
0
LINE
8
annotation
62
1
39
211
10
0.498641
20
1.481050
11
0.539826
21
1.461462
0
LINE
8
annotation
62
1
39
211
10
0.539826
20
1.461462
11
0.584526
21
1.449159
0
LINE
8
annotation
62
1
39
211
10
0.584526
20
1.449159
11
0.631988
21
1.444892
0
LINE
8
annotation
62
1
39
211
10
0.631988
20
1.444892
11
0.896427
21
1.444892
0
LINE
8
annotation
62
1
39
211
10
0.334503
20
0.767158
11
0.929921
21
0.767158
0
LINE
8
hole
62
5
39
2
10
5.004577
20
1.629395
11
5.027077
21
1.629395
0
LINE
8
hole
62
5
39
2
10
5.027077
20
1.629395
11
5.027077
21
1.651895
0
LINE
8
hole
62
5
39
2
10
5.027077
20
1.651895
11
5.004577
21
1.651895
0
LINE
8
hole
62
5
39
2
10
5.004577
20
1.651895
11
5.004577
21
1.629395
0
LINE
8
hole
62
5
39
2
10
3.103670
20
1.629395
11
3.126170
21
1.629395
0
LINE
8
hole
62
5
39
2
10
3.126170
20
1.629395
11
3.126170
21
1.651895
0
LINE
8
hole
62
5
39
2
10
3.126170
20
1.651895
11
3.103670
21
1.651895
0
LINE
8
hole
62
5
39
2
10
3.103670
20
1.651895
11
3.103670
21
1.629395
0
LINE
8
hole
62
5
39
2
10
3.987327
20
2.666286
11
4.009827
21
2.666286
0
LINE
8
hole
62
5
39
2
10
4.009827
20
2.666286
11
4.009827
21
2.688786
0
LINE
8
hole
62
5
39
2
10
4.009827
20
2.688786
11
3.987327
21
2.688786
0
LINE
8
hole
62
5
39
2
10
3.987327
20
2.688786
11
3.987327
21
2.666286
0
LINE
8
hole
62
5
39
2
10
3.912327
20
0.573754
11
3.934827
21
0.573754
0
LINE
8
hole
62
5
39
2
10
3.934827
20
0.573754
11
3.934827
21
0.596254
0
LINE
8
hole
62
5
39
2
10
3.934827
20
0.596254
11
3.912327
21
0.596254
0
LINE
8
hole
62
5
39
2
10
3.912327
20
0.596254
11
3.912327
21
0.573754
0
LINE
8
boundary
62
5
39
2
10
2.763635
20
1.776246
11
2.763635
21
0.696445
0
LINE
8
boundary
62
5
39
2
10
2.763635
20
0.696445
11
3.266461
21
0.262500
0
LINE
8
boundary
62
5
39
2
10
3.266461
20
0.262500
11
5.139770
21
0.895327
0
LINE
8
boundary
62
5
39
2
10
5.139770
20
0.895327
11
5.139770
21
2.416599
0
LINE
8
boundary
62
5
39
2
10
5.139770
20
2.416599
11
4.757806
21
2.746238
0
LINE
8
boundary
62
5
39
2
10
4.757806
20
2.746238
11
4.441991
21
3.018790
0
LINE
8
boundary
62
5
39
2
10
4.441991
20
3.018790
11
3.486583
21
2.696042
0
LINE
8
boundary
62
5
39
2
10
3.486583
20
2.696042
11
2.763635
21
2.451821
0
LINE
8
boundary
62
5
39
2
10
2.763635
20
2.451821
11
2.763635
21
1.776246
0
LINE
8
annotation
62
1
39
211
10
2.940835
20
0.781914
11
3.309230
21
0.463985
0
LINE
8
annotation
62
1
39
211
10
5.015827
20
1.640645
11
5.015827
21
1.696895
0
LINE
8
annotation
62
1
39
211
10
5.015827
20
1.640645
11
5.015827
21
1.696895
0
LINE
8
annotation
62
1
39
211
10
5.015827
20
1.696895
11
5.015827
21
1.640645
0
LINE
8
annotation
62
1
39
211
10
5.015827
20
1.640645
11
5.072077
21
1.640645
0
LINE
8
annotation
62
1
39
211
10
3.114920
20
1.640645
11
3.114920
21
1.584395
0
LINE
8
annotation
62
1
39
211
10
3.998577
20
2.677536
11
3.998577
21
2.733786
0
LINE
8
annotation
62
1
39
211
10
3.998577
20
2.677536
11
3.998577
21
2.733786
0
LINE
8
annotation
62
1
39
211
10
3.998577
20
2.733786
11
3.998577
21
2.677536
0
LINE
8
annotation
62
1
39
211
10
3.998577
20
2.677536
11
3.998577
21
2.621286
0
LINE
8
annotation
62
1
39
211
10
3.923577
20
0.585004
11
3.979827
21
0.585004
0
LINE
8
annotation
62
1
39
211
10
3.923577
20
0.585004
11
3.979827
21
0.585004
0
LINE
8
annotation
62
1
39
211
10
3.979827
20
0.585004
11
3.923577
21
0.585004
0
LINE
8
annotation
62
1
39
211
10
3.923577
20
0.585004
11
3.923577
21
0.528754
0
LINE
8
annotation
62
1
39
211
10
3.441099
20
1.101392
11
3.441099
21
2.093756
0
LINE
8
annotation
62
1
39
211
10
3.441099
20
2.093756
11
3.220484
21
1.873078
0
LINE
8
annotation
62
1
39
211
10
3.972604
20
1.114482
11
3.972604
21
1.114482
0
LINE
8
annotation
62
1
39
211
10
3.972604
20
1.114482
11
3.995668
21
1.105860
0
LINE
8
annotation
62
1
39
211
10
3.995668
20
1.105860
11
4.019322
21
1.101576
0
LINE
8
annotation
62
1
39
211
10
4.019322
20
1.101576
11
4.043031
21
1.101456
0
LINE
8
annotation
62
1
39
211
10
4.043031
20
1.101456
11
4.066261
21
1.105326
0
LINE
8
annotation
62
1
39
211
10
4.066261
20
1.105326
11
4.088476
21
1.113009
0
LINE
8
annotation
62
1
39
211
10
4.088476
20
1.113009
11
4.109143
21
1.124333
0
LINE
8
annotation
62
1
39
211
10
4.109143
20
1.124333
11
4.127726
21
1.139121
0
LINE
8
annotation
62
1
39
211
10
4.127726
20
1.139121
11
4.143691
21
1.157200
0
LINE
8
annotation
62
1
39
211
10
4.143691
20
1.157200
11
4.156502
21
1.178395
0
LINE
8
annotation
62
1
39
211
10
4.156502
20
1.178395
11
4.156502
21
1.178395
0
LINE
8
annotation
62
1
39
211
10
4.156502
20
1.178395
11
4.194727
21
1.267869
0
LINE
8
annotation
62
1
39
211
10
4.194727
20
1.267869
11
4.223396
21
1.359933
0
LINE
8
annotation
62
1
39
211
10
4.223396
20
1.359933
11
4.242508
21
1.453853
0
LINE
8
annotation
62
1
39
211
10
4.242508
20
1.453853
11
4.252064
21
1.548894
0
LINE
8
annotation
62
1
39
211
10
4.252064
20
1.548894
11
4.252064
21
1.644324
0
LINE
8
annotation
62
1
39
211
10
4.252064
20
1.644324
11
4.242508
21
1.739407
0
LINE
8
annotation
62
1
39
211
10
4.242508
20
1.739407
11
4.223396
21
1.833410
0
LINE
8
annotation
62
1
39
211
10
4.223396
20
1.833410
11
4.194727
21
1.925598
0
LINE
8
annotation
62
1
39
211
10
4.194727
20
1.925598
11
4.156502
21
2.015239
0
LINE
8
annotation
62
1
39
211
10
4.156502
20
2.015239
11
4.156502
21
2.015239
0
LINE
8
annotation
62
1
39
211
10
4.156502
20
2.015239
11
4.151641
21
2.024285
0
LINE
8
annotation
62
1
39
211
10
4.151641
20
2.024285
11
4.146130
21
2.032934
0
LINE
8
annotation
62
1
39
211
10
4.146130
20
2.032934
11
4.140011
21
2.041143
0
LINE
8
annotation
62
1
39
211
10
4.140011
20
2.041143
11
4.133324
21
2.048870
0
LINE
8
annotation
62
1
39
211
10
4.133324
20
2.048870
11
4.126112
21
2.056072
0
LINE
8
annotation
62
1
39
211
10
4.126112
20
2.056072
11
4.118416
21
2.062706
0
LINE
8
annotation
62
1
39
211
10
4.118416
20
2.062706
11
4.110277
21
2.068730
0
LINE
8
annotation
62
1
39
211
10
4.110277
20
2.068730
11
4.101737
21
2.074102
0
LINE
8
annotation
62
1
39
211
10
4.101737
20
2.074102
11
4.092838
21
2.078778
0
LINE
8
annotation
62
1
39
211
10
4.092838
20
2.078778
11
4.092838
21
2.078778
0
LINE
8
annotation
62
1
39
211
10
4.092838
20
2.078778
11
4.069591
21
2.087587
0
LINE
8
annotation
62
1
39
211
10
4.069591
20
2.087587
11
4.045799
21
2.092017
0
LINE
8
annotation
62
1
39
211
10
4.045799
20
2.092017
11
4.021990
21
2.092244
0
LINE
8
annotation
62
1
39
211
10
4.021990
20
2.092244
11
3.998692
21
2.088443
0
LINE
8
annotation
62
1
39
211
10
3.998692
20
2.088443
11
3.976435
21
2.080790
0
LINE
8
annotation
62
1
39
211
10
3.976435
20
2.080790
11
3.955746
21
2.069462
0
LINE
8
annotation
62
1
39
211
10
3.955746
20
2.069462
11
3.937155
21
2.054633
0
LINE
8
annotation
62
1
39
211
10
3.937155
20
2.054633
11
3.921190
21
2.036479
0
LINE
8
annotation
62
1
39
211
10
3.921190
20
2.036479
11
3.908380
21
2.015176
0
LINE
8
annotation
62
1
39
211
10
3.908380
20
2.015176
11
3.908380
21
2.015176
0
LINE
8
annotation
62
1
39
211
10
3.908380
20
2.015176
11
3.870340
21
1.925720
0
LINE
8
annotation
62
1
39
211
10
3.870340
20
1.925720
11
3.841810
21
1.833670
0
LINE
8
annotation
62
1
39
211
10
3.841810
20
1.833670
11
3.822789
21
1.739759
0
LINE
8
annotation
62
1
39
211
10
3.822789
20
1.739759
11
3.813279
21
1.644722
0
LINE
8
annotation
62
1
39
211
10
3.813279
20
1.644722
11
3.813279
21
1.549293
0
LINE
8
annotation
62
1
39
211
10
3.813279
20
1.549293
11
3.822789
21
1.454206
0
LINE
8
annotation
62
1
39
211
10
3.822789
20
1.454206
11
3.841810
21
1.360194
0
LINE
8
annotation
62
1
39
211
10
3.841810
20
1.360194
11
3.870340
21
1.267991
0
LINE
8
annotation
62
1
39
211
10
3.870340
20
1.267991
11
3.908380
21
1.178332
0
LINE
8
annotation
62
1
39
211
10
3.908380
20
1.178332
11
3.908380
21
1.178332
0
LINE
8
annotation
62
1
39
211
10
3.908380
20
1.178332
11
3.913224
21
1.169304
0
LINE
8
annotation
62
1
39
211
10
3.913224
20
1.169304
11
3.918694
21
1.160698
0
LINE
8
annotation
62
1
39
211
10
3.918694
20
1.160698
11
3.924768
21
1.152540
0
LINE
8
annotation
62
1
39
211
10
3.924768
20
1.152540
11
3.931423
21
1.144858
0
LINE
8
annotation
62
1
39
211
10
3.931423
20
1.144858
11
3.938636
21
1.137676
0
LINE
8
annotation
62
1
39
211
10
3.938636
20
1.137676
11
3.946384
21
1.131022
0
LINE
8
annotation
62
1
39
211
10
3.946384
20
1.131022
11
3.954643
21
1.124920
0
LINE
8
annotation
62
1
39
211
10
3.954643
20
1.124920
11
3.963391
21
1.119398
0
LINE
8
annotation
62
1
39
211
10
3.963391
20
1.119398
11
3.972604
21
1.114482
0
LINE
8
hole
62
5
39
2
10
6.602133
20
2.666286
11
6.624633
21
2.666286
0
LINE
8
hole
62
5
39
2
10
6.624633
20
2.666286
11
6.624633
21
2.688786
0
LINE
8
hole
62
5
39
2
10
6.624633
20
2.688786
11
6.602133
21
2.688786
0
LINE
8
hole
62
5
39
2
10
6.602133
20
2.688786
11
6.602133
21
2.666286
0
LINE
8
hole
62
5
39
2
10
6.527133
20
0.573754
11
6.549633
21
0.573754
0
LINE
8
hole
62
5
39
2
10
6.549633
20
0.573754
11
6.549633
21
0.596254
0
LINE
8
hole
62
5
39
2
10
6.549633
20
0.596254
11
6.527133
21
0.596254
0
LINE
8
hole
62
5
39
2
10
6.527133
20
0.596254
11
6.527133
21
0.573754
0
LINE
8
hole
62
5
39
2
10
7.392041
20
1.629395
11
7.414541
21
1.629395
0
LINE
8
hole
62
5
39
2
10
7.414541
20
1.629395
11
7.414541
21
1.651895
0
LINE
8
hole
62
5
39
2
10
7.414541
20
1.651895
11
7.392041
21
1.651895
0
LINE
8
hole
62
5
39
2
10
7.392041
20
1.651895
11
7.392041
21
1.629395
0
LINE
8
hole
62
5
39
2
10
5.491133
20
1.629395
11
5.513633
21
1.629395
0
LINE
8
hole
62
5
39
2
10
5.513633
20
1.629395
11
5.513633
21
1.651895
0
LINE
8
hole
62
5
39
2
10
5.513633
20
1.651895
11
5.491133
21
1.651895
0
LINE
8
hole
62
5
39
2
10
5.491133
20
1.651895
11
5.491133
21
1.629395
0
LINE
8
boundary
62
5
39
2
10
5.264770
20
1.824726
11
5.264770
21
1.032937
0
LINE
8
boundary
62
5
39
2
10
5.264770
20
1.032937
11
6.157501
21
0.262500
0
LINE
8
boundary
62
5
39
2
10
6.157501
20
0.262500
11
7.640904
21
0.763612
0
LINE
8
boundary
62
5
39
2
10
7.640904
20
0.763612
11
7.640904
21
2.753092
0
LINE
8
boundary
62
5
39
2
10
7.640904
20
2.753092
11
7.472375
21
2.898535
0
LINE
8
boundary
62
5
39
2
10
7.472375
20
2.898535
11
7.333031
21
3.018790
0
LINE
8
boundary
62
5
39
2
10
7.333031
20
3.018790
11
6.155669
21
2.621063
0
LINE
8
boundary
62
5
39
2
10
6.155669
20
2.621063
11
5.264770
21
2.320106
0
LINE
8
boundary
62
5
39
2
10
5.264770
20
2.320106
11
5.264770
21
1.824726
0
LINE
8
annotation
62
1
39
211
10
5.441970
20
1.118401
11
6.200267
21
0.463985
0
LINE
8
annotation
62
1
39
211
10
6.613383
20
2.677536
11
6.613383
21
2.733786
0
LINE
8
annotation
62
1
39
211
10
6.613383
20
2.677536
11
6.613383
21
2.733786
0
LINE
8
annotation
62
1
39
211
10
6.613383
20
2.733786
11
6.613383
21
2.677536
0
LINE
8
annotation
62
1
39
211
10
6.613383
20
2.677536
11
6.613383
21
2.621286
0
LINE
8
annotation
62
1
39
211
10
6.538383
20
0.585004
11
6.594633
21
0.585004
0
LINE
8
annotation
62
1
39
211
10
6.538383
20
0.585004
11
6.594633
21
0.585004
0
LINE
8
annotation
62
1
39
211
10
6.594633
20
0.585004
11
6.538383
21
0.585004
0
LINE
8
annotation
62
1
39
211
10
6.538383
20
0.585004
11
6.538383
21
0.528754
0
LINE
8
annotation
62
1
39
211
10
7.403291
20
1.640645
11
7.403291
21
1.696895
0
LINE
8
annotation
62
1
39
211
10
5.502383
20
1.640645
11
5.558633
21
1.640645
0
LINE
8
annotation
62
1
39
211
10
6.635701
20
1.137916
11
6.635701
21
2.229516
0
LINE
8
annotation
62
1
39
211
10
6.635701
20
2.229516
11
6.393025
21
1.986771
0
LINE
8
annotation
62
1
39
211
10
7.287728
20
1.137916
11
7.287728
21
2.229516
0
LINE
8
annotation
62
1
39
211
10
7.287728
20
2.229516
11
7.045051
21
1.986771
0
LINE
8
hole
62
5
39
2
10
2.503443
20
4.510685
11
2.525943
21
4.510685
0
LINE
8
hole
62
5
39
2
10
2.525943
20
4.510685
11
2.525943
21
4.533185
0
LINE
8
hole
62
5
39
2
10
2.525943
20
4.533185
11
2.503443
21
4.533185
0
LINE
8
hole
62
5
39
2
10
2.503443
20
4.533185
11
2.503443
21
4.510685
0
LINE
8
hole
62
5
39
2
10
0.602535
20
4.510685
11
0.625035
21
4.510685
0
LINE
8
hole
62
5
39
2
10
0.625035
20
4.510685
11
0.625035
21
4.533185
0
LINE
8
hole
62
5
39
2
10
0.625035
20
4.533185
11
0.602535
21
4.533185
0
LINE
8
hole
62
5
39
2
10
0.602535
20
4.533185
11
0.602535
21
4.510685
0
LINE
8
hole
62
5
39
2
10
1.547013
20
3.516796
11
1.569513
21
3.516796
0
LINE
8
hole
62
5
39
2
10
1.569513
20
3.516796
11
1.569513
21
3.539296
0
LINE
8
hole
62
5
39
2
10
1.569513
20
3.539296
11
1.547013
21
3.539296
0
LINE
8
hole
62
5
39
2
10
1.547013
20
3.539296
11
1.547013
21
3.516796
0
LINE
8
hole
62
5
39
2
10
1.553445
20
5.304804
11
1.575945
21
5.304804
0
LINE
8
hole
62
5
39
2
10
1.575945
20
5.304804
11
1.575945
21
5.327304
0
LINE
8
hole
62
5
39
2
10
1.575945
20
5.327304
11
1.553445
21
5.327304
0
LINE
8
hole
62
5
39
2
10
1.553445
20
5.327304
11
1.553445
21
5.304804
0
LINE
8
boundary
62
5
39
2
10
0.262500
20
4.754495
11
0.262500
21
4.250720
0
LINE
8
boundary
62
5
39
2
10
0.262500
20
4.250720
11
1.545136
21
3.143790
0
LINE
8
boundary
62
5
39
2
10
1.545136
20
3.143790
11
2.638635
21
3.513187
0
LINE
8
boundary
62
5
39
2
10
2.638635
20
3.513187
11
2.638635
21
5.707740
0
LINE
8
boundary
62
5
39
2
10
2.638635
20
5.707740
11
2.638635
21
5.872369
0
LINE
8
boundary
62
5
39
2
10
2.638635
20
5.872369
11
1.321350
21
5.427374
0
LINE
8
boundary
62
5
39
2
10
1.321350
20
5.427374
11
0.262500
21
5.069681
0
LINE
8
boundary
62
5
39
2
10
0.262500
20
5.069681
11
0.262500
21
4.754495
0
LINE
8
annotation
62
1
39
211
10
0.439700
20
4.336190
11
1.587904
21
3.345275
0
LINE
8
annotation
62
1
39
211
10
2.514693
20
4.521935
11
2.514693
21
4.578185
0
LINE
8
annotation
62
1
39
211
10
0.613785
20
4.521935
11
0.670035
21
4.521935
0
LINE
8
annotation
62
1
39
211
10
1.564695
20
5.316054
11
1.564695
21
5.372304
0
LINE
8
annotation
62
1
39
211
10
1.564695
20
5.316054
11
1.564695
21
5.372304
0
LINE
8
annotation
62
1
39
211
10
1.564695
20
5.372304
11
1.564695
21
5.316054
0
LINE
8
annotation
62
1
39
211
10
1.564695
20
5.316054
11
1.620945
21
5.316054
0
LINE
8
annotation
62
1
39
211
10
1.558263
20
3.528046
11
1.558263
21
3.471796
0
LINE
8
annotation
62
1
39
211
10
1.570328
20
3.938091
11
1.570328
21
4.822239
0
LINE
8
annotation
62
1
39
211
10
1.570328
20
4.822239
11
1.373770
21
4.625626
0
LINE
8
annotation
62
1
39
211
10
2.294593
20
3.938083
11
1.901922
21
3.938083
0
LINE
8
annotation
62
1
39
211
10
1.901922
20
3.938083
11
2.264763
21
4.522211
0
LINE
8
annotation
62
1
39
211
10
2.264763
20
4.522211
11
2.264763
21
4.522211
0
LINE
8
annotation
62
1
39
211
10
2.264763
20
4.522211
11
2.265197
21
4.522748
0
LINE
8
annotation
62
1
39
211
10
2.265197
20
4.522748
11
2.265613
21
4.523289
0
LINE
8
annotation
62
1
39
211
10
2.265613
20
4.523289
11
2.266014
21
4.523840
0
LINE
8
annotation
62
1
39
211
10
2.266014
20
4.523840
11
2.266402
21
4.524404
0
LINE
8
annotation
62
1
39
211
10
2.266402
20
4.524404
11
2.266781
21
4.524986
0
LINE
8
annotation
62
1
39
211
10
2.266781
20
4.524986
11
2.267154
21
4.525591
0
LINE
8
annotation
62
1
39
211
10
2.267154
20
4.525591
11
2.267522
21
4.526224
0
LINE
8
annotation
62
1
39
211
10
2.267522
20
4.526224
11
2.267888
21
4.526888
0
LINE
8
annotation
62
1
39
211
10
2.267888
20
4.526888
11
2.268256
21
4.527589
0
LINE
8
annotation
62
1
39
211
10
2.268256
20
4.527589
11
2.268256
21
4.527589
0
LINE
8
annotation
62
1
39
211
10
2.268256
20
4.527589
11
2.283238
21
4.559756
0
LINE
8
annotation
62
1
39
211
10
2.283238
20
4.559756
11
2.291990
21
4.593100
0
LINE
8
annotation
62
1
39
211
10
2.291990
20
4.593100
11
2.294727
21
4.626867
0
LINE
8
annotation
62
1
39
211
10
2.294727
20
4.626867
11
2.291663
21
4.660304
0
LINE
8
annotation
62
1
39
211
10
2.291663
20
4.660304
11
2.283013
21
4.692658
0
LINE
8
annotation
62
1
39
211
10
2.283013
20
4.692658
11
2.268992
21
4.723175
0
LINE
8
annotation
62
1
39
211
10
2.268992
20
4.723175
11
2.249813
21
4.751102
0
LINE
8
annotation
62
1
39
211
10
2.249813
20
4.751102
11
2.225691
21
4.775686
0
LINE
8
annotation
62
1
39
211
10
2.225691
20
4.775686
11
2.196841
21
4.796172
0
LINE
8
annotation
62
1
39
211
10
2.196841
20
4.796172
11
2.196841
21
4.796172
0
LINE
8
annotation
62
1
39
211
10
2.196841
20
4.796172
11
2.164585
21
4.810940
0
LINE
8
annotation
62
1
39
211
10
2.164585
20
4.810940
11
2.131190
21
4.819558
0
LINE
8
annotation
62
1
39
211
10
2.131190
20
4.819558
11
2.097403
21
4.822217
0
LINE
8
annotation
62
1
39
211
10
2.097403
20
4.822217
11
2.063971
21
4.819113
0
LINE
8
annotation
62
1
39
211
10
2.063971
20
4.819113
11
2.031640
21
4.810439
0
LINE
8
annotation
62
1
39
211
10
2.031640
20
4.810439
11
2.001157
21
4.796389
0
LINE
8
annotation
62
1
39
211
10
2.001157
20
4.796389
11
1.973268
21
4.777158
0
LINE
8
annotation
62
1
39
211
10
1.973268
20
4.777158
11
1.948720
21
4.752938
0
LINE
8
annotation
62
1
39
211
10
1.948720
20
4.752938
11
1.928259
21
4.723925
0
LINE
8
annotation
62
1
39
211
10
1.928259
20
4.723925
11
1.902477
21
4.674467
0
LINE
8
hole
62
5
39
2
10
1.351487
20
6.458003
11
1.373987
21
6.458003
0
LINE
8
hole
62
5
39
2
10
1.373987
20
6.458003
11
1.373987
21
6.480503
0
LINE
8
hole
62
5
39
2
10
1.373987
20
6.480503
11
1.351487
21
6.480503
0
LINE
8
hole
62
5
39
2
10
1.351487
20
6.480503
11
1.351487
21
6.458003
0
LINE
8
hole
62
5
39
2
10
2.386776
20
7.180592
11
2.409276
21
7.180592
0
LINE
8
hole
62
5
39
2
10
2.409276
20
7.180592
11
2.409276
21
7.203092
0
LINE
8
hole
62
5
39
2
10
2.409276
20
7.203092
11
2.386776
21
7.203092
0
LINE
8
hole
62
5
39
2
10
2.386776
20
7.203092
11
2.386776
21
7.180592
0
LINE
8
hole
62
5
39
2
10
0.602535
20
7.383337
11
0.625035
21
7.383337
0
LINE
8
hole
62
5
39
2
10
0.625035
20
7.383337
11
0.625035
21
7.405837
0
LINE
8
hole
62
5
39
2
10
0.625035
20
7.405837
11
0.602535
21
7.405837
0
LINE
8
hole
62
5
39
2
10
0.602535
20
7.405837
11
0.602535
21
7.383337
0
LINE
8
hole
62
5
39
2
10
1.354942
20
8.316943
11
1.377442
21
8.316943
0
LINE
8
hole
62
5
39
2
10
1.377442
20
8.316943
11
1.377442
21
8.339443
0
LINE
8
hole
62
5
39
2
10
1.377442
20
8.339443
11
1.354942
21
8.339443
0
LINE
8
hole
62
5
39
2
10
1.354942
20
8.339443
11
1.354942
21
8.316943
0
LINE
8
boundary
62
5
39
2
10
0.262500
20
7.320587
11
0.262500
21
5.997369
0
LINE
8
boundary
62
5
39
2
10
0.262500
20
5.997369
11
1.123919
21
6.288367
0
LINE
8
boundary
62
5
39
2
10
1.123919
20
6.288367
11
2.638635
21
6.800057
0
LINE
8
boundary
62
5
39
2
10
2.638635
20
6.800057
11
2.638635
21
7.384915
0
LINE
8
boundary
62
5
39
2
10
2.638635
20
7.384915
11
1.829804
21
8.082945
0
LINE
8
boundary
62
5
39
2
10
1.829804
20
8.082945
11
1.161046
21
8.660091
0
LINE
8
boundary
62
5
39
2
10
1.161046
20
8.660091
11
0.649547
21
8.487300
0
LINE
8
boundary
62
5
39
2
10
0.649547
20
8.487300
11
0.262500
21
8.356551
0
LINE
8
boundary
62
5
39
2
10
0.262500
20
8.356551
11
0.262500
21
7.320587
0
LINE
8
annotation
62
1
39
211
10
2.398026
20
7.191842
11
2.398026
21
7.248092
0
LINE
8
annotation
62
1
39
211
10
2.398026
20
7.191842
11
2.398026
21
7.248092
0
LINE
8
annotation
62
1
39
211
10
2.398026
20
7.248092
11
2.398026
21
7.191842
0
LINE
8
annotation
62
1
39
211
10
2.398026
20
7.191842
11
2.398026
21
7.135592
0
LINE
8
annotation
62
1
39
211
10
0.613785
20
7.394587
11
0.670035
21
7.394587
0
LINE
8
annotation
62
1
39
211
10
0.613785
20
7.394587
11
0.670035
21
7.394587
0
LINE
8
annotation
62
1
39
211
10
0.670035
20
7.394587
11
0.613785
21
7.394587
0
LINE
8
annotation
62
1
39
211
10
0.613785
20
7.394587
11
0.613785
21
7.338337
0
LINE
8
annotation
62
1
39
211
10
1.366192
20
8.328193
11
1.366192
21
8.384443
0
LINE
8
annotation
62
1
39
211
10
1.362737
20
6.469253
11
1.418987
21
6.469253
0
LINE
8
annotation
62
1
39
211
10
0.800169
20
7.076878
11
0.800169
21
7.076878
0
LINE
8
annotation
62
1
39
211
10
0.800169
20
7.076878
11
0.803950
21
7.034772
0
LINE
8
annotation
62
1
39
211
10
0.803950
20
7.034772
11
0.814848
21
6.995172
0
LINE
8
annotation
62
1
39
211
10
0.814848
20
6.995172
11
0.832194
21
6.958731
0
LINE
8
annotation
62
1
39
211
10
0.832194
20
6.958731
11
0.855323
21
6.926103
0
LINE
8
annotation
62
1
39
211
10
0.855323
20
6.926103
11
0.883567
21
6.897942
0
LINE
8
annotation
62
1
39
211
10
0.883567
20
6.897942
11
0.916258
21
6.874900
0
LINE
8
annotation
62
1
39
211
10
0.916258
20
6.874900
11
0.952730
21
6.857633
0
LINE
8
annotation
62
1
39
211
10
0.952730
20
6.857633
11
0.992314
21
6.846793
0
LINE
8
annotation
62
1
39
211
10
0.992314
20
6.846793
11
1.034343
21
6.843034
0
LINE
8
annotation
62
1
39
211
10
1.034343
20
6.843034
11
1.034343
21
6.843034
0
LINE
8
annotation
62
1
39
211
10
1.034343
20
6.843034
11
1.076373
21
6.846793
0
LINE
8
annotation
62
1
39
211
10
1.076373
20
6.846793
11
1.115957
21
6.857633
0
LINE
8
annotation
62
1
39
211
10
1.115957
20
6.857633
11
1.152428
21
6.874900
0
LINE
8
annotation
62
1
39
211
10
1.152428
20
6.874900
11
1.185120
21
6.897942
0
LINE
8
annotation
62
1
39
211
10
1.185120
20
6.897942
11
1.213363
21
6.926103
0
LINE
8
annotation
62
1
39
211
10
1.213363
20
6.926103
11
1.236492
21
6.958731
0
LINE
8
annotation
62
1
39
211
10
1.236492
20
6.958731
11
1.253839
21
6.995172
0
LINE
8
annotation
62
1
39
211
10
1.253839
20
6.995172
11
1.264736
21
7.034772
0
LINE
8
annotation
62
1
39
211
10
1.264736
20
7.034772
11
1.268517
21
7.076878
0
LINE
8
annotation
62
1
39
211
10
1.268517
20
7.076878
11
1.268517
21
7.193535
0
LINE
8
annotation
62
1
39
211
10
1.268517
20
7.193535
11
1.268517
21
7.193535
0
LINE
8
annotation
62
1
39
211
10
1.268517
20
7.193535
11
1.264739
21
7.235661
0
LINE
8
annotation
62
1
39
211
10
1.264739
20
7.235661
11
1.253847
21
7.275315
0
LINE
8
annotation
62
1
39
211
10
1.253847
20
7.275315
11
1.236507
21
7.311835
0
LINE
8
annotation
62
1
39
211
10
1.236507
20
7.311835
11
1.213385
21
7.344557
0
LINE
8
annotation
62
1
39
211
10
1.213385
20
7.344557
11
1.185147
21
7.372818
0
LINE
8
annotation
62
1
39
211
10
1.185147
20
7.372818
11
1.152458
21
7.395953
0
LINE
8
annotation
62
1
39
211
10
1.152458
20
7.395953
11
1.115984
21
7.413300
0
LINE
8
annotation
62
1
39
211
10
1.115984
20
7.413300
11
1.076390
21
7.424194
0
LINE
8
annotation
62
1
39
211
10
1.076390
20
7.424194
11
1.034343
21
7.427973
0
LINE
8
annotation
62
1
39
211
10
1.034343
20
7.427973
11
1.034343
21
7.427973
0
LINE
8
annotation
62
1
39
211
10
1.034343
20
7.427973
11
0.992296
21
7.424192
0
LINE
8
annotation
62
1
39
211
10
0.992296
20
7.424192
11
0.952703
21
7.413292
0
LINE
8
annotation
62
1
39
211
10
0.952703
20
7.413292
11
0.916229
21
7.395938
0
LINE
8
annotation
62
1
39
211
10
0.916229
20
7.395938
11
0.883540
21
7.372796
0
LINE
8
annotation
62
1
39
211
10
0.883540
20
7.372796
11
0.855302
21
7.344530
0
LINE
8
annotation
62
1
39
211
10
0.855302
20
7.344530
11
0.832180
21
7.311806
0
LINE
8
annotation
62
1
39
211
10
0.832180
20
7.311806
11
0.814840
21
7.275289
0
LINE
8
annotation
62
1
39
211
10
0.814840
20
7.275289
11
0.803948
21
7.235643
0
LINE
8
annotation
62
1
39
211
10
0.803948
20
7.235643
11
0.800169
21
7.193535
0
LINE
8
annotation
62
1
39
211
10
0.800169
20
7.193535
11
0.800169
21
7.076878
0
LINE
8
annotation
62
1
39
211
10
1.268517
20
7.662478
11
1.268517
21
7.662478
0
LINE
8
annotation
62
1
39
211
10
1.268517
20
7.662478
11
1.264739
21
7.704409
0
LINE
8
annotation
62
1
39
211
10
1.264739
20
7.704409
11
1.253847
21
7.743916
0
LINE
8
annotation
62
1
39
211
10
1.253847
20
7.743916
11
1.236507
21
7.780330
0
LINE
8
annotation
62
1
39
211
10
1.236507
20
7.780330
11
1.213385
21
7.812980
0
LINE
8
annotation
62
1
39
211
10
1.213385
20
7.812980
11
1.185147
21
7.841196
0
LINE
8
annotation
62
1
39
211
10
1.185147
20
7.841196
11
1.152458
21
7.864308
0
LINE
8
annotation
62
1
39
211
10
1.152458
20
7.864308
11
1.115984
21
7.881646
0
LINE
8
annotation
62
1
39
211
10
1.115984
20
7.881646
11
1.076390
21
7.892541
0
LINE
8
annotation
62
1
39
211
10
1.076390
20
7.892541
11
1.034343
21
7.896321
0
LINE
8
annotation
62
1
39
211
10
1.034343
20
7.896321
11
1.034343
21
7.896321
0
LINE
8
annotation
62
1
39
211
10
1.034343
20
7.896321
11
0.992296
21
7.892541
0
LINE
8
annotation
62
1
39
211
10
0.992296
20
7.892541
11
0.952703
21
7.881646
0
LINE
8
annotation
62
1
39
211
10
0.952703
20
7.881646
11
0.916229
21
7.864308
0
LINE
8
annotation
62
1
39
211
10
0.916229
20
7.864308
11
0.883540
21
7.841196
0
LINE
8
annotation
62
1
39
211
10
0.883540
20
7.841196
11
0.855302
21
7.812980
0
LINE
8
annotation
62
1
39
211
10
0.855302
20
7.812980
11
0.832180
21
7.780330
0
LINE
8
annotation
62
1
39
211
10
0.832180
20
7.780330
11
0.814840
21
7.743916
0
LINE
8
annotation
62
1
39
211
10
0.814840
20
7.743916
11
0.803948
21
7.704409
0
LINE
8
annotation
62
1
39
211
10
0.803948
20
7.704409
11
0.800169
21
7.662478
0
LINE
8
annotation
62
1
39
211
10
0.800169
20
7.662478
11
0.800169
21
7.662478
0
LINE
8
annotation
62
1
39
211
10
0.800169
20
7.662478
11
0.803950
21
7.620350
0
LINE
8
annotation
62
1
39
211
10
0.803950
20
7.620350
11
0.814848
21
7.580689
0
LINE
8
annotation
62
1
39
211
10
0.814848
20
7.580689
11
0.832194
21
7.544160
0
LINE
8
annotation
62
1
39
211
10
0.832194
20
7.544160
11
0.855323
21
7.511428
0
LINE
8
annotation
62
1
39
211
10
0.855323
20
7.511428
11
0.883567
21
7.483156
0
LINE
8
annotation
62
1
39
211
10
0.883567
20
7.483156
11
0.916258
21
7.460011
0
LINE
8
annotation
62
1
39
211
10
0.916258
20
7.460011
11
0.952730
21
7.442655
0
LINE
8
annotation
62
1
39
211
10
0.952730
20
7.442655
11
0.992314
21
7.431754
0
LINE
8
annotation
62
1
39
211
10
0.992314
20
7.431754
11
1.034343
21
7.427973
0
LINE
8
annotation
62
1
39
211
10
1.034343
20
7.427973
11
1.034343
21
7.427973
0
LINE
8
annotation
62
1
39
211
10
1.034343
20
7.427973
11
1.076373
21
7.431754
0
LINE
8
annotation
62
1
39
211
10
1.076373
20
7.431754
11
1.115957
21
7.442655
0
LINE
8
annotation
62
1
39
211
10
1.115957
20
7.442655
11
1.152428
21
7.460011
0
LINE
8
annotation
62
1
39
211
10
1.152428
20
7.460011
11
1.185120
21
7.483156
0
LINE
8
annotation
62
1
39
211
10
1.185120
20
7.483156
11
1.213363
21
7.511428
0
LINE
8
annotation
62
1
39
211
10
1.213363
20
7.511428
11
1.236492
21
7.544160
0
LINE
8
annotation
62
1
39
211
10
1.236492
20
7.544160
11
1.253839
21
7.580689
0
LINE
8
annotation
62
1
39
211
10
1.253839
20
7.580689
11
1.264736
21
7.620350
0
LINE
8
annotation
62
1
39
211
10
1.264736
20
7.620350
11
1.268517
21
7.662478
0
LINE
8
hole
62
5
39
2
10
1.674594
20
9.571178
11
1.697094
21
9.571178
0
LINE
8
hole
62
5
39
2
10
1.697094
20
9.571178
11
1.697094
21
9.593678
0
LINE
8
hole
62
5
39
2
10
1.697094
20
9.593678
11
1.674594
21
9.593678
0
LINE
8
hole
62
5
39
2
10
1.674594
20
9.593678
11
1.674594
21
9.571178
0
LINE
8
hole
62
5
39
2
10
0.568320
20
9.964245
11
0.590820
21
9.964245
0
LINE
8
hole
62
5
39
2
10
0.590820
20
9.964245
11
0.590820
21
9.986745
0
LINE
8
hole
62
5
39
2
10
0.590820
20
9.986745
11
0.568320
21
9.986745
0
LINE
8
hole
62
5
39
2
10
0.568320
20
9.986745
11
0.568320
21
9.964245
0
LINE
8
hole
62
5
39
2
10
1.452373
20
9.423509
11
1.474873
21
9.423509
0
LINE
8
hole
62
5
39
2
10
1.474873
20
9.423509
11
1.474873
21
9.446009
0
LINE
8
hole
62
5
39
2
10
1.474873
20
9.446009
11
1.452373
21
9.446009
0
LINE
8
hole
62
5
39
2
10
1.452373
20
9.446009
11
1.452373
21
9.423509
0
LINE
8
hole
62
5
39
2
10
1.097860
20
10.159546
11
1.120360
21
10.159546
0
LINE
8
hole
62
5
39
2
10
1.120360
20
10.159546
11
1.120360
21
10.182046
0
LINE
8
hole
62
5
39
2
10
1.120360
20
10.182046
11
1.097860
21
10.182046
0
LINE
8
hole
62
5
39
2
10
1.097860
20
10.182046
11
1.097860
21
10.159546
0
LINE
8
boundary
62
5
39
2
10
1.115533
20
10.366491
11
0.262500
21
10.078326
0
LINE
8
boundary
62
5
39
2
10
0.262500
20
10.078326
11
1.761015
21
8.785091
0
LINE
8
boundary
62
5
39
2
10
1.761015
20
8.785091
11
1.761015
21
10.584543
0
LINE
8
boundary
62
5
39
2
10
1.761015
20
10.584543
11
1.115533
21
10.366491
0
LINE
8
annotation
62
1
39
211
10
0.615520
20
10.012057
11
1.612399
21
9.151741
0
LINE
8
annotation
62
1
39
211
10
1.685844
20
9.582428
11
1.685844
21
9.638678
0
LINE
8
annotation
62
1
39
211
10
1.685844
20
9.582428
11
1.685844
21
9.638678
0
LINE
8
annotation
62
1
39
211
10
1.685844
20
9.638678
11
1.685844
21
9.582428
0
LINE
8
annotation
62
1
39
211
10
1.685844
20
9.582428
11
1.742094
21
9.582428
0
LINE
8
annotation
62
1
39
211
10
0.579570
20
9.975495
11
0.579570
21
9.919245
0
LINE
8
annotation
62
1
39
211
10
1.109110
20
10.170796
11
1.109110
21
10.227046
0
LINE
8
annotation
62
1
39
211
10
1.109110
20
10.170796
11
1.109110
21
10.227046
0
LINE
8
annotation
62
1
39
211
10
1.109110
20
10.227046
11
1.109110
21
10.170796
0
LINE
8
annotation
62
1
39
211
10
1.109110
20
10.170796
11
1.109110
21
10.114546
0
LINE
8
annotation
62
1
39
211
10
1.463623
20
9.434759
11
1.519873
21
9.434759
0
LINE
8
annotation
62
1
39
211
10
1.463623
20
9.434759
11
1.519873
21
9.434759
0
LINE
8
annotation
62
1
39
211
10
1.519873
20
9.434759
11
1.463623
21
9.434759
0
LINE
8
annotation
62
1
39
211
10
1.463623
20
9.434759
11
1.463623
21
9.378509
0
LINE
8
annotation
62
1
39
211
10
1.289394
20
9.743530
11
1.289394
21
10.132250
0
LINE
8
annotation
62
1
39
211
10
1.289394
20
10.132250
11
1.202976
21
10.045808
0
LINE
8
annotation
62
1
39
211
10
1.564815
20
10.132250
11
1.564815
21
10.132250
0
LINE
8
annotation
62
1
39
211
10
1.564815
20
10.132250
11
1.540086
21
10.122979
0
LINE
8
annotation
62
1
39
211
10
1.540086
20
10.122979
11
1.517395
21
10.110486
0
LINE
8
annotation
62
1
39
211
10
1.517395
20
10.110486
11
1.496973
21
10.095086
0
LINE
8
annotation
62
1
39
211
10
1.496973
20
10.095086
11
1.479054
21
10.077090
0
LINE
8
annotation
62
1
39
211
10
1.479054
20
10.077090
11
1.463870
21
10.056813
0
LINE
8
annotation
62
1
39
211
10
1.463870
20
10.056813
11
1.451655
21
10.034568
0
LINE
8
annotation
62
1
39
211
10
1.451655
20
10.034568
11
1.442642
21
10.010666
0
LINE
8
annotation
62
1
39
211
10
1.442642
20
10.010666
11
1.437063
21
9.985421
0
LINE
8
annotation
62
1
39
211
10
1.437063
20
9.985421
11
1.435152
21
9.959147
0
LINE
8
annotation
62
1
39
211
10
1.435152
20
9.959147
11
1.435152
21
9.829947
0
LINE
8
annotation
62
1
39
211
10
1.435152
20
9.829947
11
1.435152
21
9.829947
0
LINE
8
annotation
62
1
39
211
10
1.435152
20
9.829947
11
1.436546
21
9.814419
0
LINE
8
annotation
62
1
39
211
10
1.436546
20
9.814419
11
1.440563
21
9.799802
0
LINE
8
annotation
62
1
39
211
10
1.440563
20
9.799802
11
1.446957
21
9.786340
0
LINE
8
annotation
62
1
39
211
10
1.446957
20
9.786340
11
1.455483
21
9.774278
0
LINE
8
annotation
62
1
39
211
10
1.455483
20
9.774278
11
1.465894
21
9.763861
0
LINE
8
annotation
62
1
39
211
10
1.465894
20
9.763861
11
1.477944
21
9.755333
0
LINE
8
annotation
62
1
39
211
10
1.477944
20
9.755333
11
1.491388
21
9.748939
0
LINE
8
annotation
62
1
39
211
10
1.491388
20
9.748939
11
1.505979
21
9.744923
0
LINE
8
annotation
62
1
39
211
10
1.505979
20
9.744923
11
1.521472
21
9.743530
0
LINE
8
annotation
62
1
39
211
10
1.521472
20
9.743530
11
1.521472
21
9.743530
0
LINE
8
annotation
62
1
39
211
10
1.521472
20
9.743530
11
1.536997
21
9.744923
0
LINE
8
annotation
62
1
39
211
10
1.536997
20
9.744923
11
1.551605
21
9.748939
0
LINE
8
annotation
62
1
39
211
10
1.551605
20
9.748939
11
1.565054
21
9.755333
0
LINE
8
annotation
62
1
39
211
10
1.565054
20
9.755333
11
1.577101
21
9.763861
0
LINE
8
annotation
62
1
39
211
10
1.577101
20
9.763861
11
1.587502
21
9.774278
0
LINE
8
annotation
62
1
39
211
10
1.587502
20
9.774278
11
1.596014
21
9.786340
0
LINE
8
annotation
62
1
39
211
10
1.596014
20
9.786340
11
1.602396
21
9.799802
0
LINE
8
annotation
62
1
39
211
10
1.602396
20
9.799802
11
1.606402
21
9.814419
0
LINE
8
annotation
62
1
39
211
10
1.606402
20
9.814419
11
1.607792
21
9.829947
0
LINE
8
annotation
62
1
39
211
10
1.607792
20
9.829947
11
1.607792
21
9.872949
0
LINE
8
annotation
62
1
39
211
10
1.607792
20
9.872949
11
1.607792
21
9.872949
0
LINE
8
annotation
62
1
39
211
10
1.607792
20
9.872949
11
1.606402
21
9.888469
0
LINE
8
annotation
62
1
39
211
10
1.606402
20
9.888469
11
1.602396
21
9.903067
0
LINE
8
annotation
62
1
39
211
10
1.602396
20
9.903067
11
1.596014
21
9.916499
0
LINE
8
annotation
62
1
39
211
10
1.596014
20
9.916499
11
1.587502
21
9.928527
0
LINE
8
annotation
62
1
39
211
10
1.587502
20
9.928527
11
1.577101
21
9.938907
0
LINE
8
annotation
62
1
39
211
10
1.577101
20
9.938907
11
1.565054
21
9.947401
0
LINE
8
annotation
62
1
39
211
10
1.565054
20
9.947401
11
1.551605
21
9.953766
0
LINE
8
annotation
62
1
39
211
10
1.551605
20
9.953766
11
1.536997
21
9.957762
0
LINE
8
annotation
62
1
39
211
10
1.536997
20
9.957762
11
1.521472
21
9.959147
0
LINE
8
annotation
62
1
39
211
10
1.521472
20
9.959147
11
1.435152
21
9.959147
0
LINE
8
annotation
62
1
39
211
10
1.424341
20
9.694940
11
1.618701
21
9.694940
0
LINE
8
hole
62
5
39
2
10
2.527845
20
9.112346
11
2.550345
21
9.112346
0
LINE
8
hole
62
5
39
2
10
2.550345
20
9.112346
11
2.550345
21
9.134846
0
LINE
8
hole
62
5
39
2
10
2.550345
20
9.134846
11
2.527845
21
9.134846
0
LINE
8
hole
62
5
39
2
10
2.527845
20
9.134846
11
2.527845
21
9.112346
0
LINE
8
hole
62
5
39
2
10
2.139604
20
9.342244
11
2.162104
21
9.342244
0
LINE
8
hole
62
5
39
2
10
2.162104
20
9.342244
11
2.162104
21
9.364744
0
LINE
8
hole
62
5
39
2
10
2.162104
20
9.364744
11
2.139604
21
9.364744
0
LINE
8
hole
62
5
39
2
10
2.139604
20
9.364744
11
2.139604
21
9.342244
0
LINE
8
boundary
62
5
39
2
10
2.295139
20
9.543548
11
1.886015
21
9.405341
0
LINE
8
boundary
62
5
39
2
10
1.886015
20
9.405341
11
2.604720
21
8.785091
0
LINE
8
boundary
62
5
39
2
10
2.604720
20
8.785091
11
2.604720
21
9.648128
0
LINE
8
boundary
62
5
39
2
10
2.604720
20
9.648128
11
2.295139
21
9.543548
0
LINE
8
annotation
62
1
39
211
10
2.239081
20
9.339034
11
2.452367
21
9.154966
0
LINE
8
annotation
62
1
39
211
10
2.539095
20
9.123596
11
2.539095
21
9.179846
0
LINE
8
annotation
62
1
39
211
10
2.150854
20
9.353494
11
2.207104
21
9.353494
0
LINE
8
annotation
62
1
39
211
10
2.369250
20
9.229233
11
2.369250
21
9.446740
0
LINE
8
annotation
62
1
39
211
10
2.369250
20
9.446740
11
2.320895
21
9.398372
0
LINE
8
annotation
62
1
39
211
10
2.450808
20
9.277458
11
2.450808
21
9.277458
0
LINE
8
annotation
62
1
39
211
10
2.450808
20
9.277458
11
2.451588
21
9.268773
0
LINE
8
annotation
62
1
39
211
10
2.451588
20
9.268773
11
2.453836
21
9.260605
0
LINE
8
annotation
62
1
39
211
10
2.453836
20
9.260605
11
2.457414
21
9.253089
0
LINE
8
annotation
62
1
39
211
10
2.457414
20
9.253089
11
2.462184
21
9.246359
0
LINE
8
annotation
62
1
39
211
10
2.462184
20
9.246359
11
2.468010
21
9.240551
0
LINE
8
annotation
62
1
39
211
10
2.468010
20
9.240551
11
2.474752
21
9.235798
0
LINE
8
annotation
62
1
39
211
10
2.474752
20
9.235798
11
2.482275
21
9.232237
0
LINE
8
annotation
62
1
39
211
10
2.482275
20
9.232237
11
2.490439
21
9.230001
0
LINE
8
annotation
62
1
39
211
10
2.490439
20
9.230001
11
2.499108
21
9.229226
0
LINE
8
annotation
62
1
39
211
10
2.499108
20
9.229226
11
2.499108
21
9.229226
0
LINE
8
annotation
62
1
39
211
10
2.499108
20
9.229226
11
2.507777
21
9.230001
0
LINE
8
annotation
62
1
39
211
10
2.507777
20
9.230001
11
2.515942
21
9.232237
0
LINE
8
annotation
62
1
39
211
10
2.515942
20
9.232237
11
2.523464
21
9.235798
0
LINE
8
annotation
62
1
39
211
10
2.523464
20
9.235798
11
2.530207
21
9.240551
0
LINE
8
annotation
62
1
39
211
10
2.530207
20
9.240551
11
2.536032
21
9.246359
0
LINE
8
annotation
62
1
39
211
10
2.536032
20
9.246359
11
2.540803
21
9.253089
0
LINE
8
annotation
62
1
39
211
10
2.540803
20
9.253089
11
2.544381
21
9.260605
0
LINE
8
annotation
62
1
39
211
10
2.544381
20
9.260605
11
2.546629
21
9.268773
0
LINE
8
annotation
62
1
39
211
10
2.546629
20
9.268773
11
2.547408
21
9.277458
0
LINE
8
annotation
62
1
39
211
10
2.547408
20
9.277458
11
2.547408
21
9.301519
0
LINE
8
annotation
62
1
39
211
10
2.547408
20
9.301519
11
2.547408
21
9.301519
0
LINE
8
annotation
62
1
39
211
10
2.547408
20
9.301519
11
2.546629
21
9.310208
0
LINE
8
annotation
62
1
39
211
10
2.546629
20
9.310208
11
2.544382
21
9.318387
0
LINE
8
annotation
62
1
39
211
10
2.544382
20
9.318387
11
2.540806
21
9.325920
0
LINE
8
annotation
62
1
39
211
10
2.540806
20
9.325920
11
2.536037
21
9.332669
0
LINE
8
annotation
62
1
39
211
10
2.536037
20
9.332669
11
2.530213
21
9.338498
0
LINE
8
annotation
62
1
39
211
10
2.530213
20
9.338498
11
2.523470
21
9.343269
0
LINE
8
annotation
62
1
39
211
10
2.523470
20
9.343269
11
2.515947
21
9.346847
0
LINE
8
annotation
62
1
39
211
10
2.515947
20
9.346847
11
2.507781
21
9.349094
0
LINE
8
annotation
62
1
39
211
10
2.507781
20
9.349094
11
2.499108
21
9.349874
0
LINE
8
annotation
62
1
39
211
10
2.499108
20
9.349874
11
2.499108
21
9.349874
0
LINE
8
annotation
62
1
39
211
10
2.499108
20
9.349874
11
2.490436
21
9.349094
0
LINE
8
annotation
62
1
39
211
10
2.490436
20
9.349094
11
2.482269
21
9.346846
0
LINE
8
annotation
62
1
39
211
10
2.482269
20
9.346846
11
2.474746
21
9.343266
0
LINE
8
annotation
62
1
39
211
10
2.474746
20
9.343266
11
2.468004
21
9.338493
0
LINE
8
annotation
62
1
39
211
10
2.468004
20
9.338493
11
2.462180
21
9.332663
0
LINE
8
annotation
62
1
39
211
10
2.462180
20
9.332663
11
2.457411
21
9.325914
0
LINE
8
annotation
62
1
39
211
10
2.457411
20
9.325914
11
2.453834
21
9.318382
0
LINE
8
annotation
62
1
39
211
10
2.453834
20
9.318382
11
2.451588
21
9.310204
0
LINE
8
annotation
62
1
39
211
10
2.451588
20
9.310204
11
2.450808
21
9.301519
0
LINE
8
annotation
62
1
39
211
10
2.450808
20
9.301519
11
2.450808
21
9.277458
0
LINE
8
annotation
62
1
39
211
10
2.547408
20
9.398242
11
2.547408
21
9.398242
0
LINE
8
annotation
62
1
39
211
10
2.547408
20
9.398242
11
2.546629
21
9.406891
0
LINE
8
annotation
62
1
39
211
10
2.546629
20
9.406891
11
2.544382
21
9.415039
0
LINE
8
annotation
62
1
39
211
10
2.544382
20
9.415039
11
2.540806
21
9.422550
0
LINE
8
annotation
62
1
39
211
10
2.540806
20
9.422550
11
2.536037
21
9.429284
0
LINE
8
annotation
62
1
39
211
10
2.536037
20
9.429284
11
2.530213
21
9.435104
0
LINE
8
annotation
62
1
39
211
10
2.530213
20
9.435104
11
2.523470
21
9.439871
0
LINE
8
annotation
62
1
39
211
10
2.523470
20
9.439871
11
2.515947
21
9.443447
0
LINE
8
annotation
62
1
39
211
10
2.515947
20
9.443447
11
2.507781
21
9.445694
0
LINE
8
annotation
62
1
39
211
10
2.507781
20
9.445694
11
2.499108
21
9.446474
0
LINE
8
annotation
62
1
39
211
10
2.499108
20
9.446474
11
2.499108
21
9.446474
0
LINE
8
annotation
62
1
39
211
10
2.499108
20
9.446474
11
2.490436
21
9.445694
0
LINE
8
annotation
62
1
39
211
10
2.490436
20
9.445694
11
2.482269
21
9.443447
0
LINE
8
annotation
62
1
39
211
10
2.482269
20
9.443447
11
2.474746
21
9.439871
0
LINE
8
annotation
62
1
39
211
10
2.474746
20
9.439871
11
2.468004
21
9.435104
0
LINE
8
annotation
62
1
39
211
10
2.468004
20
9.435104
11
2.462180
21
9.429284
0
LINE
8
annotation
62
1
39
211
10
2.462180
20
9.429284
11
2.457411
21
9.422550
0
LINE
8
annotation
62
1
39
211
10
2.457411
20
9.422550
11
2.453834
21
9.415039
0
LINE
8
annotation
62
1
39
211
10
2.453834
20
9.415039
11
2.451588
21
9.406891
0
LINE
8
annotation
62
1
39
211
10
2.451588
20
9.406891
11
2.450808
21
9.398242
0
LINE
8
annotation
62
1
39
211
10
2.450808
20
9.398242
11
2.450808
21
9.398242
0
LINE
8
annotation
62
1
39
211
10
2.450808
20
9.398242
11
2.451588
21
9.389553
0
LINE
8
annotation
62
1
39
211
10
2.451588
20
9.389553
11
2.453836
21
9.381373
0
LINE
8
annotation
62
1
39
211
10
2.453836
20
9.381373
11
2.457414
21
9.373838
0
LINE
8
annotation
62
1
39
211
10
2.457414
20
9.373838
11
2.462184
21
9.367087
0
LINE
8
annotation
62
1
39
211
10
2.462184
20
9.367087
11
2.468010
21
9.361256
0
LINE
8
annotation
62
1
39
211
10
2.468010
20
9.361256
11
2.474752
21
9.356482
0
LINE
8
annotation
62
1
39
211
10
2.474752
20
9.356482
11
2.482275
21
9.352902
0
LINE
8
annotation
62
1
39
211
10
2.482275
20
9.352902
11
2.490439
21
9.350654
0
LINE
8
annotation
62
1
39
211
10
2.490439
20
9.350654
11
2.499108
21
9.349874
0
LINE
8
annotation
62
1
39
211
10
2.499108
20
9.349874
11
2.499108
21
9.349874
0
LINE
8
annotation
62
1
39
211
10
2.499108
20
9.349874
11
2.507777
21
9.350654
0
LINE
8
annotation
62
1
39
211
10
2.507777
20
9.350654
11
2.515942
21
9.352902
0
LINE
8
annotation
62
1
39
211
10
2.515942
20
9.352902
11
2.523464
21
9.356482
0
LINE
8
annotation
62
1
39
211
10
2.523464
20
9.356482
11
2.530207
21
9.361256
0
LINE
8
annotation
62
1
39
211
10
2.530207
20
9.361256
11
2.536032
21
9.367087
0
LINE
8
annotation
62
1
39
211
10
2.536032
20
9.367087
11
2.540803
21
9.373838
0
LINE
8
annotation
62
1
39
211
10
2.540803
20
9.373838
11
2.544381
21
9.381373
0
LINE
8
annotation
62
1
39
211
10
2.544381
20
9.381373
11
2.546629
21
9.389553
0
LINE
8
annotation
62
1
39
211
10
2.546629
20
9.389553
11
2.547408
21
9.398242
0
LINE
8
hole
62
5
39
2
10
1.990339
20
10.131311
11
2.012839
21
10.131311
0
LINE
8
hole
62
5
39
2
10
2.012839
20
10.131311
11
2.012839
21
10.153811
0
LINE
8
hole
62
5
39
2
10
2.012839
20
10.153811
11
1.990339
21
10.153811
0
LINE
8
hole
62
5
39
2
10
1.990339
20
10.153811
11
1.990339
21
10.131311
0
LINE
8
hole
62
5
39
2
10
2.082012
20
9.932099
11
2.104512
21
9.932099
0
LINE
8
hole
62
5
39
2
10
2.104512
20
9.932099
11
2.104512
21
9.954599
0
LINE
8
hole
62
5
39
2
10
2.104512
20
9.954599
11
2.082012
21
9.954599
0
LINE
8
hole
62
5
39
2
10
2.082012
20
9.954599
11
2.082012
21
9.932099
0
LINE
8
boundary
62
5
39
2
10
1.886015
20
10.015180
11
1.886015
21
9.773128
0
LINE
8
boundary
62
5
39
2
10
1.886015
20
9.773128
11
2.409767
21
9.950059
0
LINE
8
boundary
62
5
39
2
10
2.409767
20
9.950059
11
2.172716
21
10.154636
0
LINE
8
boundary
62
5
39
2
10
2.172716
20
10.154636
11
1.886015
21
10.402063
0
LINE
8
boundary
62
5
39
2
10
1.886015
20
10.402063
11
1.886015
21
10.015180
0
LINE
8
annotation
62
1
39
211
10
2.001589
20
10.142561
11
2.001589
21
10.198811
0
LINE
8
annotation
62
1
39
211
10
2.093262
20
9.943349
11
2.149512
21
9.943349
0
LINE
8
annotation
62
1
39
211
10
1.986508
20
9.900232
11
1.916111
21
9.900232
0
LINE
8
annotation
62
1
39
211
10
1.916111
20
9.900232
11
1.981160
21
10.004952
0
LINE
8
annotation
62
1
39
211
10
1.981160
20
10.004952
11
1.981160
21
10.004952
0
LINE
8
annotation
62
1
39
211
10
1.981160
20
10.004952
11
1.981238
21
10.005049
0
LINE
8
annotation
62
1
39
211
10
1.981238
20
10.005049
11
1.981312
21
10.005146
0
LINE
8
annotation
62
1
39
211
10
1.981312
20
10.005146
11
1.981384
21
10.005244
0
LINE
8
annotation
62
1
39
211
10
1.981384
20
10.005244
11
1.981454
21
10.005345
0
LINE
8
annotation
62
1
39
211
10
1.981454
20
10.005345
11
1.981522
21
10.005450
0
LINE
8
annotation
62
1
39
211
10
1.981522
20
10.005450
11
1.981589
21
10.005558
0
LINE
8
annotation
62
1
39
211
10
1.981589
20
10.005558
11
1.981655
21
10.005672
0
LINE
8
annotation
62
1
39
211
10
1.981655
20
10.005672
11
1.981720
21
10.005791
0
LINE
8
annotation
62
1
39
211
10
1.981720
20
10.005791
11
1.981786
21
10.005917
0
LINE
8
annotation
62
1
39
211
10
1.981786
20
10.005917
11
1.981786
21
10.005917
0
LINE
8
annotation
62
1
39
211
10
1.981786
20
10.005917
11
1.984472
21
10.011683
0
LINE
8
annotation
62
1
39
211
10
1.984472
20
10.011683
11
1.986041
21
10.017661
0
LINE
8
annotation
62
1
39
211
10
1.986041
20
10.017661
11
1.986532
21
10.023715
0
LINE
8
annotation
62
1
39
211
10
1.986532
20
10.023715
11
1.985983
21
10.029709
0
LINE
8
annotation
62
1
39
211
10
1.985983
20
10.029709
11
1.984432
21
10.035510
0
LINE
8
annotation
62
1
39
211
10
1.984432
20
10.035510
11
1.981918
21
10.040981
0
LINE
8
annotation
62
1
39
211
10
1.981918
20
10.040981
11
1.978480
21
10.045987
0
LINE
8
annotation
62
1
39
211
10
1.978480
20
10.045987
11
1.974155
21
10.050394
0
LINE
8
annotation
62
1
39
211
10
1.974155
20
10.050394
11
1.968983
21
10.054067
0
LINE
8
annotation
62
1
39
211
10
1.968983
20
10.054067
11
1.968983
21
10.054067
0
LINE
8
annotation
62
1
39
211
10
1.968983
20
10.054067
11
1.963200
21
10.056715
0
LINE
8
annotation
62
1
39
211
10
1.963200
20
10.056715
11
1.957214
21
10.058260
0
LINE
8
annotation
62
1
39
211
10
1.957214
20
10.058260
11
1.951156
21
10.058737
0
LINE
8
annotation
62
1
39
211
10
1.951156
20
10.058737
11
1.945163
21
10.058180
0
LINE
8
annotation
62
1
39
211
10
1.945163
20
10.058180
11
1.939366
21
10.056625
0
LINE
8
annotation
62
1
39
211
10
1.939366
20
10.056625
11
1.933902
21
10.054106
0
LINE
8
annotation
62
1
39
211
10
1.933902
20
10.054106
11
1.928902
21
10.050658
0
LINE
8
annotation
62
1
39
211
10
1.928902
20
10.050658
11
1.924501
21
10.046316
0
LINE
8
annotation
62
1
39
211
10
1.924501
20
10.046316
11
1.920833
21
10.041115
0
LINE
8
annotation
62
1
39
211
10
1.920833
20
10.041115
11
1.916210
21
10.032248
0
LINE
8
hole
62
5
39
2
10
4.890906
20
4.430972
11
4.913406
21
4.430972
0
LINE
8
hole
62
5
39
2
10
4.913406
20
4.430972
11
4.913406
21
4.453472
0
LINE
8
hole
62
5
39
2
10
4.913406
20
4.453472
11
4.890906
21
4.453472
0
LINE
8
hole
62
5
39
2
10
4.890906
20
4.453472
11
4.890906
21
4.430972
0
LINE
8
hole
62
5
39
2
10
4.161819
20
3.516796
11
4.184319
21
3.516796
0
LINE
8
hole
62
5
39
2
10
4.184319
20
3.516796
11
4.184319
21
3.539296
0
LINE
8
hole
62
5
39
2
10
4.184319
20
3.539296
11
4.161819
21
3.539296
0
LINE
8
hole
62
5
39
2
10
4.161819
20
3.539296
11
4.161819
21
3.516796
0
LINE
8
hole
62
5
39
2
10
4.168251
20
5.304804
11
4.190751
21
5.304804
0
LINE
8
hole
62
5
39
2
10
4.190751
20
5.304804
11
4.190751
21
5.327304
0
LINE
8
hole
62
5
39
2
10
4.190751
20
5.327304
11
4.168251
21
5.327304
0
LINE
8
hole
62
5
39
2
10
4.168251
20
5.327304
11
4.168251
21
5.304804
0
LINE
8
hole
62
5
39
2
10
3.125074
20
4.655048
11
3.147574
21
4.655048
0
LINE
8
hole
62
5
39
2
10
3.147574
20
4.655048
11
3.147574
21
4.677548
0
LINE
8
hole
62
5
39
2
10
3.147574
20
4.677548
11
3.125074
21
4.677548
0
LINE
8
hole
62
5
39
2
10
3.125074
20
4.677548
11
3.125074
21
4.655048
0
LINE
8
boundary
62
5
39
2
10
2.763635
20
4.802975
11
2.763635
21
4.587212
0
LINE
8
boundary
62
5
39
2
10
2.763635
20
4.587212
11
4.436176
21
3.143790
0
LINE
8
boundary
62
5
39
2
10
4.436176
20
3.143790
11
5.139770
21
3.381473
0
LINE
8
boundary
62
5
39
2
10
5.139770
20
3.381473
11
5.139770
21
4.793521
0
LINE
8
boundary
62
5
39
2
10
5.139770
20
4.793521
11
5.139770
21
5.740654
0
LINE
8
boundary
62
5
39
2
10
5.139770
20
5.740654
11
3.990435
21
5.352395
0
LINE
8
boundary
62
5
39
2
10
3.990435
20
5.352395
11
2.763635
21
4.937967
0
LINE
8
boundary
62
5
39
2
10
2.763635
20
4.937967
11
2.763635
21
4.802975
0
LINE
8
annotation
62
1
39
211
10
2.940835
20
4.672680
11
3.214754
21
4.436285
0
LINE
8
annotation
62
1
39
211
10
3.214754
20
4.436285
11
4.478945
21
3.345276
0
LINE
8
annotation
62
1
39
211
10
4.179501
20
5.316054
11
4.179501
21
5.372304
0
LINE
8
annotation
62
1
39
211
10
4.179501
20
5.316054
11
4.179501
21
5.372304
0
LINE
8
annotation
62
1
39
211
10
4.179501
20
5.372304
11
4.179501
21
5.316054
0
LINE
8
annotation
62
1
39
211
10
4.179501
20
5.316054
11
4.235751
21
5.316054
0
LINE
8
annotation
62
1
39
211
10
4.173069
20
3.528046
11
4.173069
21
3.471796
0
LINE
8
annotation
62
1
39
211
10
4.902156
20
4.442222
11
4.902156
21
4.498472
0
LINE
8
annotation
62
1
39
211
10
4.902156
20
4.442222
11
4.902156
21
4.498472
0
LINE
8
annotation
62
1
39
211
10
4.902156
20
4.498472
11
4.902156
21
4.442222
0
LINE
8
annotation
62
1
39
211
10
4.902156
20
4.442222
11
4.902156
21
4.385972
0
LINE
8
annotation
62
1
39
211
10
3.136324
20
4.666298
11
3.192574
21
4.666298
0
LINE
8
annotation
62
1
39
211
10
3.136324
20
4.666298
11
3.192574
21
4.666298
0
LINE
8
annotation
62
1
39
211
10
3.192574
20
4.666298
11
3.136324
21
4.666298
0
LINE
8
annotation
62
1
39
211
10
3.136324
20
4.666298
11
3.136324
21
4.610048
0
LINE
8
annotation
62
1
39
211
10
4.228065
20
4.062068
11
4.228065
21
4.903536
0
LINE
8
annotation
62
1
39
211
10
4.228065
20
4.903536
11
4.040996
21
4.716414
0
LINE
8
annotation
62
1
39
211
10
4.543589
20
4.062095
11
4.730447
21
4.062095
0
LINE
8
annotation
62
1
39
211
10
4.730447
20
4.062095
11
4.730447
21
4.062095
0
LINE
8
annotation
62
1
39
211
10
4.730447
20
4.062095
11
4.764054
21
4.065109
0
LINE
8
annotation
62
1
39
211
10
4.764054
20
4.065109
11
4.795677
21
4.073798
0
LINE
8
annotation
62
1
39
211
10
4.795677
20
4.073798
11
4.824790
21
4.087627
0
LINE
8
annotation
62
1
39
211
10
4.824790
20
4.087627
11
4.850867
21
4.106064
0
LINE
8
annotation
62
1
39
211
10
4.850867
20
4.106064
11
4.873382
21
4.128574
0
LINE
8
annotation
62
1
39
211
10
4.873382
20
4.128574
11
4.891810
21
4.154626
0
LINE
8
annotation
62
1
39
211
10
4.891810
20
4.154626
11
4.905623
21
4.183684
0
LINE
8
annotation
62
1
39
211
10
4.905623
20
4.183684
11
4.914297
21
4.215216
0
LINE
8
annotation
62
1
39
211
10
4.914297
20
4.215216
11
4.917305
21
4.248689
0
LINE
8
annotation
62
1
39
211
10
4.917305
20
4.248689
11
4.917305
21
4.342250
0
LINE
8
annotation
62
1
39
211
10
4.917305
20
4.342250
11
4.917305
21
4.342250
0
LINE
8
annotation
62
1
39
211
10
4.917305
20
4.342250
11
4.914297
21
4.375709
0
LINE
8
annotation
62
1
39
211
10
4.914297
20
4.375709
11
4.905623
21
4.407233
0
LINE
8
annotation
62
1
39
211
10
4.905623
20
4.407233
11
4.891810
21
4.436290
0
LINE
8
annotation
62
1
39
211
10
4.891810
20
4.436290
11
4.873382
21
4.462342
0
LINE
8
annotation
62
1
39
211
10
4.873382
20
4.462342
11
4.850867
21
4.484857
0
LINE
8
annotation
62
1
39
211
10
4.850867
20
4.484857
11
4.824790
21
4.503299
0
LINE
8
annotation
62
1
39
211
10
4.824790
20
4.503299
11
4.795677
21
4.517134
0
LINE
8
annotation
62
1
39
211
10
4.795677
20
4.517134
11
4.764054
21
4.525827
0
LINE
8
annotation
62
1
39
211
10
4.764054
20
4.525827
11
4.730447
21
4.528844
0
LINE
8
annotation
62
1
39
211
10
4.730447
20
4.528844
11
4.636886
21
4.528844
0
LINE
8
annotation
62
1
39
211
10
4.636886
20
4.528844
11
4.730447
21
4.528844
0
LINE
8
annotation
62
1
39
211
10
4.730447
20
4.528844
11
4.730447
21
4.528844
0
LINE
8
annotation
62
1
39
211
10
4.730447
20
4.528844
11
4.764054
21
4.531861
0
LINE
8
annotation
62
1
39
211
10
4.764054
20
4.531861
11
4.795677
21
4.540559
0
LINE
8
annotation
62
1
39
211
10
4.795677
20
4.540559
11
4.824790
21
4.554408
0
LINE
8
annotation
62
1
39
211
10
4.824790
20
4.554408
11
4.850867
21
4.572877
0
LINE
8
annotation
62
1
39
211
10
4.850867
20
4.572877
11
4.873382
21
4.595436
0
LINE
8
annotation
62
1
39
211
10
4.873382
20
4.595436
11
4.891810
21
4.621555
0
LINE
8
annotation
62
1
39
211
10
4.891810
20
4.621555
11
4.905623
21
4.650703
0
LINE
8
annotation
62
1
39
211
10
4.905623
20
4.650703
11
4.914297
21
4.682350
0
LINE
8
annotation
62
1
39
211
10
4.914297
20
4.682350
11
4.917305
21
4.715966
0
LINE
8
annotation
62
1
39
211
10
4.917305
20
4.715966
11
4.917305
21
4.715966
0
LINE
8
annotation
62
1
39
211
10
4.917305
20
4.715966
11
4.914297
21
4.749425
0
LINE
8
annotation
62
1
39
211
10
4.914297
20
4.749425
11
4.905623
21
4.780950
0
LINE
8
annotation
62
1
39
211
10
4.905623
20
4.780950
11
4.891810
21
4.810006
0
LINE
8
annotation
62
1
39
211
10
4.891810
20
4.810006
11
4.873382
21
4.836058
0
LINE
8
annotation
62
1
39
211
10
4.873382
20
4.836058
11
4.850867
21
4.858573
0
LINE
8
annotation
62
1
39
211
10
4.850867
20
4.858573
11
4.824790
21
4.877016
0
LINE
8
annotation
62
1
39
211
10
4.824790
20
4.877016
11
4.795677
21
4.890851
0
LINE
8
annotation
62
1
39
211
10
4.795677
20
4.890851
11
4.764054
21
4.899544
0
LINE
8
annotation
62
1
39
211
10
4.764054
20
4.899544
11
4.730447
21
4.902560
0
LINE
8
annotation
62
1
39
211
10
4.730447
20
4.902560
11
4.543589
21
4.902560
0
LINE
8
hole
62
5
39
2
10
6.030452
20
5.038993
11
6.052952
21
5.038993
0
LINE
8
hole
62
5
39
2
10
6.052952
20
5.038993
11
6.052952
21
5.061493
0
LINE
8
hole
62
5
39
2
10
6.052952
20
5.061493
11
6.030452
21
5.061493
0
LINE
8
hole
62
5
39
2
10
6.030452
20
5.061493
11
6.030452
21
5.038993
0
LINE
8
hole
62
5
39
2
10
7.275374
20
4.195298
11
7.297874
21
4.195298
0
LINE
8
hole
62
5
39
2
10
7.297874
20
4.195298
11
7.297874
21
4.217798
0
LINE
8
hole
62
5
39
2
10
7.297874
20
4.217798
11
7.275374
21
4.217798
0
LINE
8
hole
62
5
39
2
10
7.275374
20
4.217798
11
7.275374
21
4.195298
0
LINE
8
hole
62
5
39
2
10
6.384303
20
3.707806
11
6.406803
21
3.707806
0
LINE
8
hole
62
5
39
2
10
6.406803
20
3.707806
11
6.406803
21
3.730306
0
LINE
8
hole
62
5
39
2
10
6.406803
20
3.730306
11
6.384303
21
3.730306
0
LINE
8
hole
62
5
39
2
10
6.384303
20
3.730306
11
6.384303
21
3.707806
0
LINE
8
hole
62
5
39
2
10
5.491133
20
4.398044
11
5.513633
21
4.398044
0
LINE
8
hole
62
5
39
2
10
5.513633
20
4.398044
11
5.513633
21
4.420544
0
LINE
8
hole
62
5
39
2
10
5.513633
20
4.420544
11
5.491133
21
4.420544
0
LINE
8
hole
62
5
39
2
10
5.491133
20
4.420544
11
5.491133
21
4.398044
0
LINE
8
boundary
62
5
39
2
10
5.264770
20
4.286814
11
5.264770
21
3.143790
0
LINE
8
boundary
62
5
39
2
10
5.264770
20
3.143790
11
7.338792
21
3.844420
0
LINE
8
boundary
62
5
39
2
10
7.338792
20
3.844420
11
7.640904
21
3.946478
0
LINE
8
boundary
62
5
39
2
10
7.640904
20
3.946478
11
7.640904
21
4.063129
0
LINE
8
boundary
62
5
39
2
10
7.640904
20
4.063129
11
6.618640
21
4.945355
0
LINE
8
boundary
62
5
39
2
10
6.618640
20
4.945355
11
5.773411
21
5.674797
0
LINE
8
boundary
62
5
39
2
10
5.773411
20
5.674797
11
5.483866
21
5.576985
0
LINE
8
boundary
62
5
39
2
10
5.483866
20
5.576985
11
5.264770
21
5.502972
0
LINE
8
boundary
62
5
39
2
10
5.264770
20
5.502972
11
5.264770
21
4.286814
0
LINE
8
annotation
62
1
39
211
10
6.041702
20
5.050243
11
6.041702
21
5.106493
0
LINE
8
annotation
62
1
39
211
10
6.041702
20
5.050243
11
6.041702
21
5.106493
0
LINE
8
annotation
62
1
39
211
10
6.041702
20
5.106493
11
6.041702
21
5.050243
0
LINE
8
annotation
62
1
39
211
10
6.041702
20
5.050243
11
6.097952
21
5.050243
0
LINE
8
annotation
62
1
39
211
10
6.395553
20
3.719056
11
6.395553
21
3.662806
0
LINE
8
annotation
62
1
39
211
10
7.286624
20
4.206548
11
7.286624
21
4.262798
0
LINE
8
annotation
62
1
39
211
10
7.286624
20
4.206548
11
7.286624
21
4.262798
0
LINE
8
annotation
62
1
39
211
10
7.286624
20
4.262798
11
7.286624
21
4.206548
0
LINE
8
annotation
62
1
39
211
10
7.286624
20
4.206548
11
7.286624
21
4.150298
0
LINE
8
annotation
62
1
39
211
10
5.502383
20
4.409294
11
5.558633
21
4.409294
0
LINE
8
annotation
62
1
39
211
10
5.502383
20
4.409294
11
5.558633
21
4.409294
0
LINE
8
annotation
62
1
39
211
10
5.558633
20
4.409294
11
5.502383
21
4.409294
0
LINE
8
annotation
62
1
39
211
10
5.502383
20
4.409294
11
5.502383
21
4.353044
0
LINE
8
annotation
62
1
39
211
10
5.819896
20
3.947655
11
6.042738
21
4.950034
0
LINE
8
annotation
62
1
39
211
10
6.042738
20
4.950034
11
5.596992
21
4.950034
0
LINE
8
annotation
62
1
39
211
10
6.042738
20
4.503659
11
5.819896
21
4.503659
0
LINE
8
boundary
62
5
39
2
10
7.953075
20
3.490777
11
7.765904
21
3.427548
0
LINE
8
boundary
62
5
39
2
10
7.765904
20
3.427548
11
8.094704
21
3.143790
0
LINE
8
boundary
62
5
39
2
10
8.094704
20
3.143790
11
8.094704
21
3.538621
0
LINE
8
boundary
62
5
39
2
10
8.094704
20
3.538621
11
7.953075
21
3.490777
0
LINE
8
annotation
62
1
39
211
10
7.986979
20
3.334641
11
7.986979
21
3.434148
0
LINE
8
annotation
62
1
39
211
10
7.986979
20
3.434148
11
7.964858
21
3.412020
0
LINE
8
annotation
62
1
39
211
10
8.035324
20
3.334641
11
8.035324
21
3.334641
0
LINE
8
annotation
62
1
39
211
10
8.035324
20
3.334641
11
8.041643
21
3.336996
0
LINE
8
annotation
62
1
39
211
10
8.041643
20
3.336996
11
8.047443
21
3.340178
0
LINE
8
annotation
62
1
39
211
10
8.047443
20
3.340178
11
8.052665
21
3.344108
0
LINE
8
annotation
62
1
39
211
10
8.052665
20
3.344108
11
8.057247
21
3.348704
0
LINE
8
annotation
62
1
39
211
10
8.057247
20
3.348704
11
8.061131
21
3.353885
0
LINE
8
annotation
62
1
39
211
10
8.061131
20
3.353885
11
8.064256
21
3.359569
0
LINE
8
annotation
62
1
39
211
10
8.064256
20
3.359569
11
8.066562
21
3.365677
0
LINE
8
annotation
62
1
39
211
10
8.066562
20
3.365677
11
8.067990
21
3.372125
0
LINE
8
annotation
62
1
39
211
10
8.067990
20
3.372125
11
8.068479
21
3.378834
0
LINE
8
annotation
62
1
39
211
10
8.068479
20
3.378834
11
8.068479
21
3.412020
0
LINE
8
annotation
62
1
39
211
10
8.068479
20
3.412020
11
8.068479
21
3.412020
0
LINE
8
annotation
62
1
39
211
10
8.068479
20
3.412020
11
8.068123
21
3.415995
0
LINE
8
annotation
62
1
39
211
10
8.068123
20
3.415995
11
8.067097
21
3.419738
0
LINE
8
annotation
62
1
39
211
10
8.067097
20
3.419738
11
8.065464
21
3.423185
0
LINE
8
annotation
62
1
39
211
10
8.065464
20
3.423185
11
8.063285
21
3.426273
0
LINE
8
annotation
62
1
39
211
10
8.063285
20
3.426273
11
8.060622
21
3.428941
0
LINE
8
annotation
62
1
39
211
10
8.060622
20
3.428941
11
8.057538
21
3.431125
0
LINE
8
annotation
62
1
39
211
10
8.057538
20
3.431125
11
8.054096
21
3.432763
0
LINE
8
annotation
62
1
39
211
10
8.054096
20
3.432763
11
8.050356
21
3.433791
0
LINE
8
annotation
62
1
39
211
10
8.050356
20
3.433791
11
8.046382
21
3.434148
0
LINE
8
annotation
62
1
39
211
10
8.046382
20
3.434148
11
8.046382
21
3.434148
0
LINE
8
annotation
62
1
39
211
10
8.046382
20
3.434148
11
8.042416
21
3.433791
0
LINE
8
annotation
62
1
39
211
10
8.042416
20
3.433791
11
8.038681
21
3.432763
0
LINE
8
annotation
62
1
39
211
10
8.038681
20
3.432763
11
8.035239
21
3.431125
0
LINE
8
annotation
62
1
39
211
10
8.035239
20
3.431125
11
8.032155
21
3.428941
0
LINE
8
annotation
62
1
39
211
10
8.032155
20
3.428941
11
8.029490
21
3.426273
0
LINE
8
annotation
62
1
39
211
10
8.029490
20
3.426273
11
8.027307
21
3.423185
0
LINE
8
annotation
62
1
39
211
10
8.027307
20
3.423185
11
8.025670
21
3.419738
0
LINE
8
annotation
62
1
39
211
10
8.025670
20
3.419738
11
8.024642
21
3.415995
0
LINE
8
annotation
62
1
39
211
10
8.024642
20
3.415995
11
8.024285
21
3.412020
0
LINE
8
annotation
62
1
39
211
10
8.024285
20
3.412020
11
8.024285
21
3.400956
0
LINE
8
annotation
62
1
39
211
10
8.024285
20
3.400956
11
8.024285
21
3.400956
0
LINE
8
annotation
62
1
39
211
10
8.024285
20
3.400956
11
8.024642
21
3.396981
0
LINE
8
annotation
62
1
39
211
10
8.024642
20
3.396981
11
8.025670
21
3.393239
0
LINE
8
annotation
62
1
39
211
10
8.025670
20
3.393239
11
8.027307
21
3.389793
0
LINE
8
annotation
62
1
39
211
10
8.027307
20
3.389793
11
8.029490
21
3.386705
0
LINE
8
annotation
62
1
39
211
10
8.029490
20
3.386705
11
8.032155
21
3.384039
0
LINE
8
annotation
62
1
39
211
10
8.032155
20
3.384039
11
8.035239
21
3.381856
0
LINE
8
annotation
62
1
39
211
10
8.035239
20
3.381856
11
8.038681
21
3.380219
0
LINE
8
annotation
62
1
39
211
10
8.038681
20
3.380219
11
8.042416
21
3.379191
0
LINE
8
annotation
62
1
39
211
10
8.042416
20
3.379191
11
8.046382
21
3.378834
0
LINE
8
annotation
62
1
39
211
10
8.046382
20
3.378834
11
8.068479
21
3.378834
0
LINE
8
annotation
62
1
39
211
10
8.021524
20
3.322202
11
8.071278
21
3.322202
0
LINE
8
boundary
62
5
39
2
10
7.765904
20
3.725478
11
7.765904
21
3.663621
0
LINE
8
boundary
62
5
39
2
10
7.765904
20
3.663621
11
7.899752
21
3.708836
0
LINE
8
boundary
62
5
39
2
10
7.899752
20
3.708836
11
7.839172
21
3.761117
0
LINE
8
boundary
62
5
39
2
10
7.839172
20
3.761117
11
7.765904
21
3.824348
0
LINE
8
boundary
62
5
39
2
10
7.765904
20
3.824348
11
7.765904
21
3.725478
0
LINE
8
annotation
62
1
39
211
10
7.785285
20
3.701729
11
7.785285
21
3.771170
0
LINE
8
annotation
62
1
39
211
10
7.785285
20
3.771170
11
7.769847
21
3.755728
0
LINE
8
hole
62
5
39
2
10
4.906767
20
7.152836
11
4.929267
21
7.152836
0
LINE
8
hole
62
5
39
2
10
4.929267
20
7.152836
11
4.929267
21
7.175336
0
LINE
8
hole
62
5
39
2
10
4.929267
20
7.175336
11
4.906767
21
7.175336
0
LINE
8
hole
62
5
39
2
10
4.906767
20
7.175336
11
4.906767
21
7.152836
0
LINE
8
hole
62
5
39
2
10
4.343020
20
6.570187
11
4.365520
21
6.570187
0
LINE
8
hole
62
5
39
2
10
4.365520
20
6.570187
11
4.365520
21
6.592687
0
LINE
8
hole
62
5
39
2
10
4.365520
20
6.592687
11
4.343020
21
6.592687
0
LINE
8
hole
62
5
39
2
10
4.343020
20
6.592687
11
4.343020
21
6.570187
0
LINE
8
hole
62
5
39
2
10
3.140935
20
7.376913
11
3.163435
21
7.376913
0
LINE
8
hole
62
5
39
2
10
3.163435
20
7.376913
11
3.163435
21
7.399413
0
LINE
8
hole
62
5
39
2
10
3.163435
20
7.399413
11
3.140935
21
7.399413
0
LINE
8
hole
62
5
39
2
10
3.140935
20
7.399413
11
3.140935
21
7.376913
0
LINE
8
hole
62
5
39
2
10
4.008653
20
7.780765
11
4.031153
21
7.780765
0
LINE
8
hole
62
5
39
2
10
4.031153
20
7.780765
11
4.031153
21
7.803265
0
LINE
8
hole
62
5
39
2
10
4.031153
20
7.803265
11
4.008653
21
7.803265
0
LINE
8
hole
62
5
39
2
10
4.008653
20
7.803265
11
4.008653
21
7.780765
0
LINE
8
boundary
62
5
39
2
10
5.041960
20
5.971622
11
5.041960
21
6.601167
0
LINE
8
boundary
62
5
39
2
10
5.041960
20
6.601167
11
5.041960
21
8.330804
0
LINE
8
boundary
62
5
39
2
10
5.041960
20
8.330804
11
4.060576
21
7.999280
0
LINE
8
boundary
62
5
39
2
10
4.060576
20
7.999280
11
2.763635
21
7.561158
0
LINE
8
boundary
62
5
39
2
10
2.763635
20
7.561158
11
3.230614
21
7.158149
0
LINE
8
boundary
62
5
39
2
10
3.230614
20
7.158149
11
4.728271
21
5.865654
0
LINE
8
boundary
62
5
39
2
10
4.728271
20
5.865654
11
5.041960
21
5.971622
0
LINE
8
annotation
62
1
39
211
10
3.116651
20
7.494893
11
4.771037
21
6.067139
0
LINE
8
annotation
62
1
39
211
10
4.918017
20
7.164086
11
4.918017
21
7.220336
0
LINE
8
annotation
62
1
39
211
10
4.918017
20
7.164086
11
4.918017
21
7.220336
0
LINE
8
annotation
62
1
39
211
10
4.918017
20
7.220336
11
4.918017
21
7.164086
0
LINE
8
annotation
62
1
39
211
10
4.918017
20
7.164086
11
4.918017
21
7.107836
0
LINE
8
annotation
62
1
39
211
10
3.152185
20
7.388163
11
3.208435
21
7.388163
0
LINE
8
annotation
62
1
39
211
10
3.152185
20
7.388163
11
3.208435
21
7.388163
0
LINE
8
annotation
62
1
39
211
10
3.208435
20
7.388163
11
3.152185
21
7.388163
0
LINE
8
annotation
62
1
39
211
10
3.152185
20
7.388163
11
3.152185
21
7.331913
0
LINE
8
annotation
62
1
39
211
10
4.019903
20
7.792015
11
4.019903
21
7.848265
0
LINE
8
annotation
62
1
39
211
10
4.354270
20
6.581437
11
4.410520
21
6.581437
0
LINE
8
annotation
62
1
39
211
10
4.260653
20
6.826111
11
4.260653
21
7.447391
0
LINE
8
annotation
62
1
39
211
10
4.260653
20
7.447391
11
4.122534
21
7.309233
0
LINE
8
annotation
62
1
39
211
10
4.838578
20
6.964229
11
4.493613
21
6.964229
0
LINE
8
annotation
62
1
39
211
10
4.493613
20
6.964229
11
4.631381
21
7.447391
0
LINE
8
annotation
62
1
39
211
10
4.735174
20
6.826111
11
4.735174
21
7.102036
0
LINE
8
hole
62
5
39
2
10
4.451963
20
9.578383
11
4.474463
21
9.578383
0
LINE
8
hole
62
5
39
2
10
4.474463
20
9.578383
11
4.474463
21
9.600883
0
LINE
8
hole
62
5
39
2
10
4.474463
20
9.600883
11
4.451963
21
9.600883
0
LINE
8
hole
62
5
39
2
10
4.451963
20
9.600883
11
4.451963
21
9.578383
0
LINE
8
hole
62
5
39
2
10
3.345688
20
9.971451
11
3.368188
21
9.971451
0
LINE
8
hole
62
5
39
2
10
3.368188
20
9.971451
11
3.368188
21
9.993951
0
LINE
8
hole
62
5
39
2
10
3.368188
20
9.993951
11
3.345688
21
9.993951
0
LINE
8
hole
62
5
39
2
10
3.345688
20
9.993951
11
3.345688
21
9.971451
0
LINE
8
hole
62
5
39
2
10
4.066787
20
9.094561
11
4.089287
21
9.094561
0
LINE
8
hole
62
5
39
2
10
4.089287
20
9.094561
11
4.089287
21
9.117061
0
LINE
8
hole
62
5
39
2
10
4.089287
20
9.117061
11
4.066787
21
9.117061
0
LINE
8
hole
62
5
39
2
10
4.066787
20
9.117061
11
4.066787
21
9.094561
0
LINE
8
hole
62
5
39
2
10
3.732419
20
10.305139
11
3.754919
21
10.305139
0
LINE
8
hole
62
5
39
2
10
3.754919
20
10.305139
11
3.754919
21
10.327639
0
LINE
8
hole
62
5
39
2
10
3.754919
20
10.327639
11
3.732419
21
10.327639
0
LINE
8
hole
62
5
39
2
10
3.732419
20
10.327639
11
3.732419
21
10.305139
0
LINE
8
boundary
62
5
39
2
10
3.838622
20
10.448675
11
2.763635
21
10.085532
0
LINE
8
boundary
62
5
39
2
10
2.763635
20
10.085532
11
4.652055
21
8.455804
0
LINE
8
boundary
62
5
39
2
10
4.652055
20
8.455804
11
4.652055
21
10.723463
0
LINE
8
boundary
62
5
39
2
10
4.652055
20
10.723463
11
3.838622
21
10.448675
0
LINE
8
annotation
62
1
39
211
10
3.116653
20
10.019266
11
4.503738
21
8.822196
0
LINE
8
annotation
62
1
39
211
10
3.743669
20
10.316389
11
3.743669
21
10.372639
0
LINE
8
annotation
62
1
39
211
10
4.078037
20
9.105811
11
4.134287
21
9.105811
0
LINE
8
annotation
62
1
39
211
10
4.463213
20
9.589633
11
4.463213
21
9.645883
0
LINE
8
annotation
62
1
39
211
10
4.463213
20
9.589633
11
4.463213
21
9.645883
0
LINE
8
annotation
62
1
39
211
10
4.463213
20
9.645883
11
4.463213
21
9.589633
0
LINE
8
annotation
62
1
39
211
10
4.463213
20
9.589633
11
4.519463
21
9.589633
0
LINE
8
annotation
62
1
39
211
10
3.356938
20
9.982701
11
3.356938
21
9.926451
0
LINE
8
annotation
62
1
39
211
10
4.033350
20
9.551930
11
4.033350
21
10.123437
0
LINE
8
annotation
62
1
39
211
10
4.033350
20
10.123437
11
3.906297
21
9.996348
0
LINE
8
annotation
62
1
39
211
10
4.247647
20
9.551930
11
4.374557
21
9.551930
0
LINE
8
annotation
62
1
39
211
10
4.374557
20
9.551930
11
4.374557
21
9.551930
0
LINE
8
annotation
62
1
39
211
10
4.374557
20
9.551930
11
4.397335
21
9.553978
0
LINE
8
annotation
62
1
39
211
10
4.397335
20
9.553978
11
4.418788
21
9.559882
0
LINE
8
annotation
62
1
39
211
10
4.418788
20
9.559882
11
4.438553
21
9.569283
0
LINE
8
annotation
62
1
39
211
10
4.438553
20
9.569283
11
4.456270
21
9.581821
0
LINE
8
annotation
62
1
39
211
10
4.456270
20
9.581821
11
4.471577
21
9.597137
0
LINE
8
annotation
62
1
39
211
10
4.471577
20
9.597137
11
4.484112
21
9.614871
0
LINE
8
annotation
62
1
39
211
10
4.484112
20
9.614871
11
4.493513
21
9.634662
0
LINE
8
annotation
62
1
39
211
10
4.493513
20
9.634662
11
4.499418
21
9.656153
0
LINE
8
annotation
62
1
39
211
10
4.499418
20
9.656153
11
4.501467
21
9.678983
0
LINE
8
annotation
62
1
39
211
10
4.501467
20
9.678983
11
4.501467
21
9.742205
0
LINE
8
annotation
62
1
39
211
10
4.501467
20
9.742205
11
4.501467
21
9.742205
0
LINE
8
annotation
62
1
39
211
10
4.501467
20
9.742205
11
4.499420
21
9.765024
0
LINE
8
annotation
62
1
39
211
10
4.499420
20
9.765024
11
4.493517
21
9.786485
0
LINE
8
annotation
62
1
39
211
10
4.493517
20
9.786485
11
4.484119
21
9.806234
0
LINE
8
annotation
62
1
39
211
10
4.484119
20
9.806234
11
4.471589
21
9.823917
0
LINE
8
annotation
62
1
39
211
10
4.471589
20
9.823917
11
4.456285
21
9.839179
0
LINE
8
annotation
62
1
39
211
10
4.456285
20
9.839179
11
4.438569
21
9.851666
0
LINE
8
annotation
62
1
39
211
10
4.438569
20
9.851666
11
4.418802
21
9.861025
0
LINE
8
annotation
62
1
39
211
10
4.418802
20
9.861025
11
4.397345
21
9.866899
0
LINE
8
annotation
62
1
39
211
10
4.397345
20
9.866899
11
4.374557
21
9.868936
0
LINE
8
annotation
62
1
39
211
10
4.374557
20
9.868936
11
4.247647
21
9.868936
0
LINE
8
annotation
62
1
39
211
10
4.247647
20
9.868936
11
4.247647
21
10.123437
0
LINE
8
annotation
62
1
39
211
10
4.247647
20
10.123437
11
4.501467
21
10.123437
0
LINE
8
hole
62
5
39
2
10
5.818970
20
7.629143
11
5.841470
21
7.629143
0
LINE
8
hole
62
5
39
2
10
5.841470
20
7.629143
11
5.841470
21
7.651643
0
LINE
8
hole
62
5
39
2
10
5.841470
20
7.651643
11
5.818970
21
7.651643
0
LINE
8
hole
62
5
39
2
10
5.818970
20
7.651643
11
5.818970
21
7.629143
0
LINE
8
hole
62
5
39
2
10
6.598954
20
6.709909
11
6.621454
21
6.709909
0
LINE
8
hole
62
5
39
2
10
6.621454
20
6.709909
11
6.621454
21
6.732409
0
LINE
8
hole
62
5
39
2
10
6.621454
20
6.732409
11
6.598954
21
6.732409
0
LINE
8
hole
62
5
39
2
10
6.598954
20
6.732409
11
6.598954
21
6.709909
0
LINE
8
hole
62
5
39
2
10
5.438728
20
7.002897
11
5.461228
21
7.002897
0
LINE
8
hole
62
5
39
2
10
5.461228
20
7.002897
11
5.461228
21
7.025397
0
LINE
8
hole
62
5
39
2
10
5.461228
20
7.025397
11
5.438728
21
7.025397
0
LINE
8
hole
62
5
39
2
10
5.438728
20
7.025397
11
5.438728
21
7.002897
0
LINE
8
hole
62
5
39
2
10
6.172822
20
6.297955
11
6.195322
21
6.297955
0
LINE
8
hole
62
5
39
2
10
6.195322
20
6.297955
11
6.195322
21
6.320455
0
LINE
8
hole
62
5
39
2
10
6.195322
20
6.320455
11
6.172822
21
6.320455
0
LINE
8
hole
62
5
39
2
10
6.172822
20
6.320455
11
6.172822
21
6.297955
0
LINE
8
boundary
62
5
39
2
10
5.166960
20
6.828484
11
5.166960
21
5.865654
0
LINE
8
boundary
62
5
39
2
10
5.166960
20
5.865654
11
7.250332
21
6.569443
0
LINE
8
boundary
62
5
39
2
10
7.250332
20
6.569443
11
6.307396
21
7.383208
0
LINE
8
boundary
62
5
39
2
10
6.307396
20
7.383208
11
5.285696
21
8.264946
0
LINE
8
boundary
62
5
39
2
10
5.285696
20
8.264946
11
5.218105
21
8.242113
0
LINE
8
boundary
62
5
39
2
10
5.218105
20
8.242113
11
5.166960
21
8.224836
0
LINE
8
boundary
62
5
39
2
10
5.166960
20
8.224836
11
5.166960
21
6.828484
0
LINE
8
annotation
62
1
39
211
10
6.610204
20
6.721159
11
6.610204
21
6.777409
0
LINE
8
annotation
62
1
39
211
10
5.449978
20
7.014147
11
5.506228
21
7.014147
0
LINE
8
annotation
62
1
39
211
10
5.830220
20
7.640393
11
5.830220
21
7.696643
0
LINE
8
annotation
62
1
39
211
10
5.830220
20
7.640393
11
5.830220
21
7.696643
0
LINE
8
annotation
62
1
39
211
10
5.830220
20
7.696643
11
5.830220
21
7.640393
0
LINE
8
annotation
62
1
39
211
10
5.830220
20
7.640393
11
5.886470
21
7.640393
0
LINE
8
annotation
62
1
39
211
10
6.184072
20
6.309205
11
6.184072
21
6.252955
0
LINE
8
annotation
62
1
39
211
10
5.602116
20
7.427930
11
5.602116
21
7.427930
0
LINE
8
annotation
62
1
39
211
10
5.602116
20
7.427930
11
5.541668
21
7.405265
0
LINE
8
annotation
62
1
39
211
10
5.541668
20
7.405265
11
5.486198
21
7.374728
0
LINE
8
annotation
62
1
39
211
10
5.486198
20
7.374728
11
5.436278
21
7.337082
0
LINE
8
annotation
62
1
39
211
10
5.436278
20
7.337082
11
5.392475
21
7.293094
0
LINE
8
annotation
62
1
39
211
10
5.392475
20
7.293094
11
5.355360
21
7.243527
0
LINE
8
annotation
62
1
39
211
10
5.355360
20
7.243527
11
5.325501
21
7.189148
0
LINE
8
annotation
62
1
39
211
10
5.325501
20
7.189148
11
5.303468
21
7.130721
0
LINE
8
annotation
62
1
39
211
10
5.303468
20
7.130721
11
5.289831
21
7.069011
0
LINE
8
annotation
62
1
39
211
10
5.289831
20
7.069011
11
5.285159
21
7.004784
0
LINE
8
annotation
62
1
39
211
10
5.285159
20
7.004784
11
5.285159
21
6.688960
0
LINE
8
annotation
62
1
39
211
10
5.285159
20
6.688960
11
5.285159
21
6.688960
0
LINE
8
annotation
62
1
39
211
10
5.285159
20
6.688960
11
5.288566
21
6.651002
0
LINE
8
annotation
62
1
39
211
10
5.288566
20
6.651002
11
5.298385
21
6.615270
0
LINE
8
annotation
62
1
39
211
10
5.298385
20
6.615270
11
5.314016
21
6.582363
0
LINE
8
annotation
62
1
39
211
10
5.314016
20
6.582363
11
5.334856
21
6.552878
0
LINE
8
annotation
62
1
39
211
10
5.334856
20
6.552878
11
5.360306
21
6.527414
0
LINE
8
annotation
62
1
39
211
10
5.360306
20
6.527414
11
5.389763
21
6.506567
0
LINE
8
annotation
62
1
39
211
10
5.389763
20
6.506567
11
5.422626
21
6.490937
0
LINE
8
annotation
62
1
39
211
10
5.422626
20
6.490937
11
5.458294
21
6.481120
0
LINE
8
annotation
62
1
39
211
10
5.458294
20
6.481120
11
5.496165
21
6.477715
0
LINE
8
annotation
62
1
39
211
10
5.496165
20
6.477715
11
5.496165
21
6.477715
0
LINE
8
annotation
62
1
39
211
10
5.496165
20
6.477715
11
5.534115
21
6.481120
0
LINE
8
annotation
62
1
39
211
10
5.534115
20
6.481120
11
5.569825
21
6.490937
0
LINE
8
annotation
62
1
39
211
10
5.569825
20
6.490937
11
5.602700
21
6.506567
0
LINE
8
annotation
62
1
39
211
10
5.602700
20
6.506567
11
5.632148
21
6.527414
0
LINE
8
annotation
62
1
39
211
10
5.632148
20
6.527414
11
5.657573
21
6.552878
0
LINE
8
annotation
62
1
39
211
10
5.657573
20
6.552878
11
5.678381
21
6.582363
0
LINE
8
annotation
62
1
39
211
10
5.678381
20
6.582363
11
5.693980
21
6.615270
0
LINE
8
annotation
62
1
39
211
10
5.693980
20
6.615270
11
5.703775
21
6.651002
0
LINE
8
annotation
62
1
39
211
10
5.703775
20
6.651002
11
5.707172
21
6.688960
0
LINE
8
annotation
62
1
39
211
10
5.707172
20
6.688960
11
5.707172
21
6.794076
0
LINE
8
annotation
62
1
39
211
10
5.707172
20
6.794076
11
5.707172
21
6.794076
0
LINE
8
annotation
62
1
39
211
10
5.707172
20
6.794076
11
5.703775
21
6.832016
0
LINE
8
annotation
62
1
39
211
10
5.703775
20
6.832016
11
5.693980
21
6.867698
0
LINE
8
annotation
62
1
39
211
10
5.693980
20
6.867698
11
5.678381
21
6.900534
0
LINE
8
annotation
62
1
39
211
10
5.678381
20
6.900534
11
5.657573
21
6.929934
0
LINE
8
annotation
62
1
39
211
10
5.657573
20
6.929934
11
5.632148
21
6.955309
0
LINE
8
annotation
62
1
39
211
10
5.632148
20
6.955309
11
5.602700
21
6.976071
0
LINE
8
annotation
62
1
39
211
10
5.602700
20
6.976071
11
5.569825
21
6.991630
0
LINE
8
annotation
62
1
39
211
10
5.569825
20
6.991630
11
5.534115
21
7.001398
0
LINE
8
annotation
62
1
39
211
10
5.534115
20
7.001398
11
5.496165
21
7.004784
0
LINE
8
annotation
62
1
39
211
10
5.496165
20
7.004784
11
5.285159
21
7.004784
0
LINE
8
annotation
62
1
39
211
10
5.258731
20
6.358938
11
5.733838
21
6.358938
0
LINE
8
hole
62
5
39
2
10
5.854989
20
8.808447
11
5.877489
21
8.808447
0
LINE
8
hole
62
5
39
2
10
5.877489
20
8.808447
11
5.877489
21
8.830947
0
LINE
8
hole
62
5
39
2
10
5.877489
20
8.830947
11
5.854989
21
8.830947
0
LINE
8
hole
62
5
39
2
10
5.854989
20
8.830947
11
5.854989
21
8.808447
0
LINE
8
hole
62
5
39
2
10
5.617240
20
9.620930
11
5.639740
21
9.620930
0
LINE
8
hole
62
5
39
2
10
5.639740
20
9.620930
11
5.639740
21
9.643430
0
LINE
8
hole
62
5
39
2
10
5.639740
20
9.643430
11
5.617240
21
9.643430
0
LINE
8
hole
62
5
39
2
10
5.617240
20
9.643430
11
5.617240
21
9.620930
0
LINE
8
hole
62
5
39
2
10
6.485283
20
9.102487
11
6.507783
21
9.102487
0
LINE
8
hole
62
5
39
2
10
6.507783
20
9.102487
11
6.507783
21
9.124987
0
LINE
8
hole
62
5
39
2
10
6.507783
20
9.124987
11
6.485283
21
9.124987
0
LINE
8
hole
62
5
39
2
10
6.485283
20
9.124987
11
6.485283
21
9.102487
0
LINE
8
hole
62
5
39
2
10
5.325056
20
9.395474
11
5.347556
21
9.395474
0
LINE
8
hole
62
5
39
2
10
5.347556
20
9.395474
11
5.347556
21
9.417974
0
LINE
8
hole
62
5
39
2
10
5.347556
20
9.417974
11
5.325056
21
9.417974
0
LINE
8
hole
62
5
39
2
10
5.325056
20
9.417974
11
5.325056
21
9.395474
0
LINE
8
boundary
62
5
39
2
10
5.166960
20
9.172581
11
5.166960
21
8.389946
0
LINE
8
boundary
62
5
39
2
10
5.166960
20
8.389946
11
6.860427
21
8.962021
0
LINE
8
boundary
62
5
39
2
10
6.860427
20
8.962021
11
6.093962
21
9.623488
0
LINE
8
boundary
62
5
39
2
10
6.093962
20
9.623488
11
5.166960
21
10.423502
0
LINE
8
boundary
62
5
39
2
10
5.166960
20
10.423502
11
5.166960
21
9.172581
0
LINE
8
annotation
62
1
39
211
10
5.628490
20
9.632180
11
5.628490
21
9.688430
0
LINE
8
annotation
62
1
39
211
10
5.628490
20
9.632180
11
5.628490
21
9.688430
0
LINE
8
annotation
62
1
39
211
10
5.628490
20
9.688430
11
5.628490
21
9.632180
0
LINE
8
annotation
62
1
39
211
10
5.628490
20
9.632180
11
5.628490
21
9.575930
0
LINE
8
annotation
62
1
39
211
10
5.866239
20
8.819697
11
5.922489
21
8.819697
0
LINE
8
annotation
62
1
39
211
10
5.866239
20
8.819697
11
5.922489
21
8.819697
0
LINE
8
annotation
62
1
39
211
10
5.922489
20
8.819697
11
5.866239
21
8.819697
0
LINE
8
annotation
62
1
39
211
10
5.866239
20
8.819697
11
5.866239
21
8.763447
0
LINE
8
annotation
62
1
39
211
10
6.496533
20
9.113737
11
6.496533
21
9.169987
0
LINE
8
annotation
62
1
39
211
10
5.336306
20
9.406724
11
5.392556
21
9.406724
0
LINE
8
annotation
62
1
39
211
10
5.231736
20
8.981923
11
5.378061
21
8.981923
0
LINE
8
annotation
62
1
39
211
10
5.378061
20
8.981923
11
5.378061
21
8.981923
0
LINE
8
annotation
62
1
39
211
10
5.378061
20
8.981923
11
5.404323
21
8.984284
0
LINE
8
annotation
62
1
39
211
10
5.404323
20
8.984284
11
5.429058
21
8.991092
0
LINE
8
annotation
62
1
39
211
10
5.429058
20
8.991092
11
5.451847
21
9.001931
0
LINE
8
annotation
62
1
39
211
10
5.451847
20
9.001931
11
5.472274
21
9.016387
0
LINE
8
annotation
62
1
39
211
10
5.472274
20
9.016387
11
5.489923
21
9.034046
0
LINE
8
annotation
62
1
39
211
10
5.489923
20
9.034046
11
5.504375
21
9.054492
0
LINE
8
annotation
62
1
39
211
10
5.504375
20
9.054492
11
5.515214
21
9.077312
0
LINE
8
annotation
62
1
39
211
10
5.515214
20
9.077312
11
5.522023
21
9.102091
0
LINE
8
annotation
62
1
39
211
10
5.522023
20
9.102091
11
5.524386
21
9.128413
0
LINE
8
annotation
62
1
39
211
10
5.524386
20
9.128413
11
5.524386
21
9.201307
0
LINE
8
annotation
62
1
39
211
10
5.524386
20
9.201307
11
5.524386
21
9.201307
0
LINE
8
annotation
62
1
39
211
10
5.524386
20
9.201307
11
5.522025
21
9.227617
0
LINE
8
annotation
62
1
39
211
10
5.522025
20
9.227617
11
5.515219
21
9.252361
0
LINE
8
annotation
62
1
39
211
10
5.515219
20
9.252361
11
5.504384
21
9.275132
0
LINE
8
annotation
62
1
39
211
10
5.504384
20
9.275132
11
5.489936
21
9.295519
0
LINE
8
annotation
62
1
39
211
10
5.489936
20
9.295519
11
5.472291
21
9.313116
0
LINE
8
annotation
62
1
39
211
10
5.472291
20
9.313116
11
5.451865
21
9.327514
0
LINE
8
annotation
62
1
39
211
10
5.451865
20
9.327514
11
5.429074
21
9.338304
0
LINE
8
annotation
62
1
39
211
10
5.429074
20
9.338304
11
5.404334
21
9.345077
0
LINE
8
annotation
62
1
39
211
10
5.404334
20
9.345077
11
5.378061
21
9.347426
0
LINE
8
annotation
62
1
39
211
10
5.378061
20
9.347426
11
5.231736
21
9.347426
0
LINE
8
annotation
62
1
39
211
10
5.231736
20
9.347426
11
5.231736
21
9.640861
0
LINE
8
annotation
62
1
39
211
10
5.231736
20
9.640861
11
5.524386
21
9.640861
0
LINE
8
hole
62
5
39
2
10
7.899067
20
8.691872
11
7.921567
21
8.691872
0
LINE
8
hole
62
5
39
2
10
7.921567
20
8.691872
11
7.921567
21
8.714372
0
LINE
8
hole
62
5
39
2
10
7.921567
20
8.714372
11
7.899067
21
8.714372
0
LINE
8
hole
62
5
39
2
10
7.899067
20
8.714372
11
7.899067
21
8.691872
0
LINE
8
hole
62
5
39
2
10
7.903490
20
9.053694
11
7.925990
21
9.053694
0
LINE
8
hole
62
5
39
2
10
7.925990
20
9.053694
11
7.925990
21
9.076194
0
LINE
8
hole
62
5
39
2
10
7.925990
20
9.076194
11
7.903490
21
9.076194
0
LINE
8
hole
62
5
39
2
10
7.903490
20
9.076194
11
7.903490
21
9.053694
0
LINE
8
hole
62
5
39
2
10
7.544554
20
9.427910
11
7.567054
21
9.427910
0
LINE
8
hole
62
5
39
2
10
7.567054
20
9.427910
11
7.567054
21
9.450410
0
LINE
8
hole
62
5
39
2
10
7.567054
20
9.450410
11
7.544554
21
9.450410
0
LINE
8
hole
62
5
39
2
10
7.544554
20
9.450410
11
7.544554
21
9.427910
0
LINE
8
hole
62
5
39
2
10
7.515249
20
9.283592
11
7.537749
21
9.283592
0
LINE
8
hole
62
5
39
2
10
7.537749
20
9.283592
11
7.537749
21
9.306092
0
LINE
8
hole
62
5
39
2
10
7.537749
20
9.306092
11
7.515249
21
9.306092
0
LINE
8
hole
62
5
39
2
10
7.515249
20
9.306092
11
7.515249
21
9.283592
0
LINE
8
boundary
62
5
39
2
10
7.616505
20
9.559875
11
6.985427
21
9.346689
0
LINE
8
boundary
62
5
39
2
10
6.985427
20
9.346689
11
8.094037
21
8.389946
0
LINE
8
boundary
62
5
39
2
10
8.094037
20
8.389946
11
8.094037
21
9.721191
0
LINE
8
boundary
62
5
39
2
10
8.094037
20
9.721191
11
7.616505
21
9.559875
0
LINE
8
annotation
62
1
39
211
10
7.338457
20
9.280414
11
7.944740
21
8.757185
0
LINE
8
annotation
62
1
39
211
10
7.555804
20
9.439160
11
7.555804
21
9.495410
0
LINE
8
annotation
62
1
39
211
10
7.555804
20
9.439160
11
7.555804
21
9.495410
0
LINE
8
annotation
62
1
39
211
10
7.555804
20
9.495410
11
7.555804
21
9.439160
0
LINE
8
annotation
62
1
39
211
10
7.555804
20
9.439160
11
7.555804
21
9.382910
0
LINE
8
annotation
62
1
39
211
10
7.910317
20
8.703122
11
7.966567
21
8.703122
0
LINE
8
annotation
62
1
39
211
10
7.910317
20
8.703122
11
7.966567
21
8.703122
0
LINE
8
annotation
62
1
39
211
10
7.966567
20
8.703122
11
7.910317
21
8.703122
0
LINE
8
annotation
62
1
39
211
10
7.910317
20
8.703122
11
7.910317
21
8.646872
0
LINE
8
annotation
62
1
39
211
10
7.914740
20
9.064944
11
7.914740
21
9.121194
0
LINE
8
annotation
62
1
39
211
10
7.526499
20
9.294842
11
7.582749
21
9.294842
0
LINE
8
annotation
62
1
39
211
10
7.786653
20
9.182216
11
7.786653
21
9.469794
0
LINE
8
annotation
62
1
39
211
10
7.786653
20
9.469794
11
7.722721
21
9.405844
0
LINE
8
annotation
62
1
39
211
10
7.958427
20
9.182216
11
8.022359
21
9.469794
0
LINE
8
annotation
62
1
39
211
10
8.022359
20
9.469794
11
7.894477
21
9.469794
0
LINE
8
annotation
62
1
39
211
10
8.022359
20
9.341731
11
7.958427
21
9.341731
0
LINE
8
frame
62
5
39
2
10
0.000000
20
0.000000
11
8.500000
21
0.000000
0
LINE
8
frame
62
5
39
2
10
8.500000
20
0.000000
11
8.500000
21
11.000000
0
LINE
8
frame
62
5
39
2
10
8.500000
20
11.000000
11
0.000000
21
11.000000
0
LINE
8
frame
62
5
39
2
10
0.000000
20
11.000000
11
0.000000
21
0.000000
0
ENDSEC
0
EOF
