0
SECTION
2
HEADER
9
$ACADVER
1
AC1009
0
ENDSEC
0
SECTION
2
TABLES
0
TABLE
2
VPORT
70
1
0
VPORT
2
ACTIVE
70
0
10
0.0
20
0.0
11
0.0
21
0.0
12
0.0
22
0.0
13
0.0
23
0.0
14
0.0
24
0.0
15
0.0
25
0.0
16
0.0
26
0.0
36
0.0
17
0.0
27
0.0
37
0.0
40
0.0
41
0.0
42
0.0
43
0.0
44
0.0
50
0.0
51
0.0
71
0
72
1000
73
1
74
3
75
0
76
0
77
0
78
0
0
ENDTAB
0
ENDSEC
0
SECTION
2
ENTITIES
0
LINE
8
hole
62
5
39
2
10
2.158205
20
0.592459
11
2.180705
21
0.592459
0
LINE
8
hole
62
5
39
2
10
2.180705
20
0.592459
11
2.180705
21
0.614959
0
LINE
8
hole
62
5
39
2
10
2.180705
20
0.614959
11
2.158205
21
0.614959
0
LINE
8
hole
62
5
39
2
10
2.158205
20
0.614959
11
2.158205
21
0.592459
0
LINE
8
hole
62
5
39
2
10
2.158205
20
3.322134
11
2.180705
21
3.322134
0
LINE
8
hole
62
5
39
2
10
2.180705
20
3.322134
11
2.180705
21
3.344634
0
LINE
8
hole
62
5
39
2
10
2.180705
20
3.344634
11
2.158205
21
3.344634
0
LINE
8
hole
62
5
39
2
10
2.158205
20
3.344634
11
2.158205
21
3.322134
0
LINE
8
hole
62
5
39
2
10
3.586065
20
1.944053
11
3.608565
21
1.944053
0
LINE
8
hole
62
5
39
2
10
3.608565
20
1.944053
11
3.608565
21
1.966553
0
LINE
8
hole
62
5
39
2
10
3.608565
20
1.966553
11
3.586065
21
1.966553
0
LINE
8
hole
62
5
39
2
10
3.586065
20
1.966553
11
3.586065
21
1.944053
0
LINE
8
hole
62
5
39
2
10
0.730345
20
1.944053
11
0.752845
21
1.944053
0
LINE
8
hole
62
5
39
2
10
0.752845
20
1.944053
11
0.752845
21
1.966553
0
LINE
8
hole
62
5
39
2
10
0.752845
20
1.966553
11
0.730345
21
1.966553
0
LINE
8
hole
62
5
39
2
10
0.730345
20
1.966553
11
0.730345
21
1.944053
0
LINE
8
boundary
62
5
39
2
10
0.933387
20
3.005543
11
0.616227
21
2.371290
0
LINE
8
boundary
62
5
39
2
10
0.616227
20
2.371290
11
0.262500
21
1.663910
0
LINE
8
boundary
62
5
39
2
10
0.262500
20
1.663910
11
0.659328
21
1.246577
0
LINE
8
boundary
62
5
39
2
10
0.659328
20
1.246577
11
1.595055
21
0.262500
0
LINE
8
boundary
62
5
39
2
10
1.595055
20
0.262500
11
2.743855
21
0.262500
0
LINE
8
boundary
62
5
39
2
10
2.743855
20
0.262500
11
3.679582
21
1.246577
0
LINE
8
boundary
62
5
39
2
10
3.679582
20
1.246577
11
4.076410
21
1.663910
0
LINE
8
boundary
62
5
39
2
10
4.076410
20
1.663910
11
3.722683
21
2.371290
0
LINE
8
boundary
62
5
39
2
10
3.722683
20
2.371290
11
3.224400
21
3.367751
0
LINE
8
boundary
62
5
39
2
10
3.224400
20
3.367751
11
3.070963
21
3.674593
0
LINE
8
boundary
62
5
39
2
10
3.070963
20
3.674593
11
2.350608
21
3.674593
0
LINE
8
boundary
62
5
39
2
10
2.350608
20
3.674593
11
1.267947
21
3.674593
0
LINE
8
boundary
62
5
39
2
10
1.267947
20
3.674593
11
0.933387
21
3.005543
0
LINE
8
annotation
62
1
39
211
10
3.597315
20
1.955303
11
3.597315
21
2.011553
0
LINE
8
annotation
62
1
39
211
10
3.597315
20
1.955303
11
3.597315
21
2.011553
0
LINE
8
annotation
62
1
39
211
10
3.597315
20
2.011553
11
3.597315
21
1.955303
0
LINE
8
annotation
62
1
39
211
10
3.597315
20
1.955303
11
3.597315
21
1.899053
0
LINE
8
annotation
62
1
39
211
10
0.741595
20
1.955303
11
0.797845
21
1.955303
0
LINE
8
annotation
62
1
39
211
10
0.741595
20
1.955303
11
0.797845
21
1.955303
0
LINE
8
annotation
62
1
39
211
10
0.797845
20
1.955303
11
0.741595
21
1.955303
0
LINE
8
annotation
62
1
39
211
10
0.741595
20
1.955303
11
0.741595
21
1.899053
0
LINE
8
annotation
62
1
39
211
10
2.169455
20
3.333384
11
2.169455
21
3.389634
0
LINE
8
annotation
62
1
39
211
10
2.169455
20
0.603709
11
2.225705
21
0.603709
0
LINE
8
annotation
62
1
39
211
10
1.832429
20
1.590984
11
1.832429
21
1.590984
0
LINE
8
annotation
62
1
39
211
10
1.832429
20
1.590984
11
1.838829
21
1.519709
0
LINE
8
annotation
62
1
39
211
10
1.838829
20
1.519709
11
1.857276
21
1.452676
0
LINE
8
annotation
62
1
39
211
10
1.857276
20
1.452676
11
1.886640
21
1.390990
0
LINE
8
annotation
62
1
39
211
10
1.886640
20
1.390990
11
1.925792
21
1.335759
0
LINE
8
annotation
62
1
39
211
10
1.925792
20
1.335759
11
1.973601
21
1.288088
0
LINE
8
annotation
62
1
39
211
10
1.973601
20
1.288088
11
2.028940
21
1.249084
0
LINE
8
annotation
62
1
39
211
10
2.028940
20
1.249084
11
2.090677
21
1.219855
0
LINE
8
annotation
62
1
39
211
10
2.090677
20
1.219855
11
2.157683
21
1.201505
0
LINE
8
annotation
62
1
39
211
10
2.157683
20
1.201505
11
2.228829
21
1.195143
0
LINE
8
annotation
62
1
39
211
10
2.228829
20
1.195143
11
2.228829
21
1.195143
0
LINE
8
annotation
62
1
39
211
10
2.228829
20
1.195143
11
2.299975
21
1.201505
0
LINE
8
annotation
62
1
39
211
10
2.299975
20
1.201505
11
2.366982
21
1.219855
0
LINE
8
annotation
62
1
39
211
10
2.366982
20
1.219855
11
2.428719
21
1.249084
0
LINE
8
annotation
62
1
39
211
10
2.428719
20
1.249084
11
2.484057
21
1.288088
0
LINE
8
annotation
62
1
39
211
10
2.484057
20
1.288088
11
2.531867
21
1.335759
0
LINE
8
annotation
62
1
39
211
10
2.531867
20
1.335759
11
2.571019
21
1.390990
0
LINE
8
annotation
62
1
39
211
10
2.571019
20
1.390990
11
2.600383
21
1.452676
0
LINE
8
annotation
62
1
39
211
10
2.600383
20
1.452676
11
2.618830
21
1.519709
0
LINE
8
annotation
62
1
39
211
10
2.618830
20
1.519709
11
2.625230
21
1.590984
0
LINE
8
annotation
62
1
39
211
10
2.625230
20
1.590984
11
2.625230
21
1.788456
0
LINE
8
annotation
62
1
39
211
10
2.625230
20
1.788456
11
2.625230
21
1.788456
0
LINE
8
annotation
62
1
39
211
10
2.625230
20
1.788456
11
2.618833
21
1.859765
0
LINE
8
annotation
62
1
39
211
10
2.618833
20
1.859765
11
2.600396
21
1.926891
0
LINE
8
annotation
62
1
39
211
10
2.600396
20
1.926891
11
2.571044
21
1.988711
0
LINE
8
annotation
62
1
39
211
10
2.571044
20
1.988711
11
2.531904
21
2.044101
0
LINE
8
annotation
62
1
39
211
10
2.531904
20
2.044101
11
2.484103
21
2.091939
0
LINE
8
annotation
62
1
39
211
10
2.484103
20
2.091939
11
2.428769
21
2.131102
0
LINE
8
annotation
62
1
39
211
10
2.428769
20
2.131102
11
2.367027
21
2.160465
0
LINE
8
annotation
62
1
39
211
10
2.367027
20
2.160465
11
2.300005
21
2.178907
0
LINE
8
annotation
62
1
39
211
10
2.300005
20
2.178907
11
2.228829
21
2.185304
0
LINE
8
annotation
62
1
39
211
10
2.228829
20
2.185304
11
2.228829
21
2.185304
0
LINE
8
annotation
62
1
39
211
10
2.228829
20
2.185304
11
2.157654
21
2.178903
0
LINE
8
annotation
62
1
39
211
10
2.157654
20
2.178903
11
2.090632
21
2.160452
0
LINE
8
annotation
62
1
39
211
10
2.090632
20
2.160452
11
2.028890
21
2.131077
0
LINE
8
annotation
62
1
39
211
10
2.028890
20
2.131077
11
1.973555
21
2.091902
0
LINE
8
annotation
62
1
39
211
10
1.973555
20
2.091902
11
1.925755
21
2.044055
0
LINE
8
annotation
62
1
39
211
10
1.925755
20
2.044055
11
1.886615
21
1.988661
0
LINE
8
annotation
62
1
39
211
10
1.886615
20
1.988661
11
1.857263
21
1.926846
0
LINE
8
annotation
62
1
39
211
10
1.857263
20
1.926846
11
1.838825
21
1.859735
0
LINE
8
annotation
62
1
39
211
10
1.838825
20
1.859735
11
1.832429
21
1.788456
0
LINE
8
annotation
62
1
39
211
10
1.832429
20
1.788456
11
1.832429
21
1.590984
0
LINE
8
annotation
62
1
39
211
10
2.625230
20
2.582264
11
2.625230
21
2.582264
0
LINE
8
annotation
62
1
39
211
10
2.625230
20
2.582264
11
2.618833
21
2.653243
0
LINE
8
annotation
62
1
39
211
10
2.618833
20
2.653243
11
2.600396
21
2.720120
0
LINE
8
annotation
62
1
39
211
10
2.600396
20
2.720120
11
2.571044
21
2.781760
0
LINE
8
annotation
62
1
39
211
10
2.571044
20
2.781760
11
2.531904
21
2.837028
0
LINE
8
annotation
62
1
39
211
10
2.531904
20
2.837028
11
2.484103
21
2.884791
0
LINE
8
annotation
62
1
39
211
10
2.484103
20
2.884791
11
2.428769
21
2.923914
0
LINE
8
annotation
62
1
39
211
10
2.428769
20
2.923914
11
2.367027
21
2.953264
0
LINE
8
annotation
62
1
39
211
10
2.367027
20
2.953264
11
2.300005
21
2.971705
0
LINE
8
annotation
62
1
39
211
10
2.300005
20
2.971705
11
2.228829
21
2.978104
0
LINE
8
annotation
62
1
39
211
10
2.228829
20
2.978104
11
2.228829
21
2.978104
0
LINE
8
annotation
62
1
39
211
10
2.228829
20
2.978104
11
2.157654
21
2.971705
0
LINE
8
annotation
62
1
39
211
10
2.157654
20
2.971705
11
2.090632
21
2.953264
0
LINE
8
annotation
62
1
39
211
10
2.090632
20
2.953264
11
2.028890
21
2.923914
0
LINE
8
annotation
62
1
39
211
10
2.028890
20
2.923914
11
1.973555
21
2.884791
0
LINE
8
annotation
62
1
39
211
10
1.973555
20
2.884791
11
1.925755
21
2.837028
0
LINE
8
annotation
62
1
39
211
10
1.925755
20
2.837028
11
1.886615
21
2.781760
0
LINE
8
annotation
62
1
39
211
10
1.886615
20
2.781760
11
1.857263
21
2.720120
0
LINE
8
annotation
62
1
39
211
10
1.857263
20
2.720120
11
1.838825
21
2.653243
0
LINE
8
annotation
62
1
39
211
10
1.838825
20
2.653243
11
1.832429
21
2.582264
0
LINE
8
annotation
62
1
39
211
10
1.832429
20
2.582264
11
1.832429
21
2.582264
0
LINE
8
annotation
62
1
39
211
10
1.832429
20
2.582264
11
1.838829
21
2.510951
0
LINE
8
annotation
62
1
39
211
10
1.838829
20
2.510951
11
1.857276
21
2.443815
0
LINE
8
annotation
62
1
39
211
10
1.857276
20
2.443815
11
1.886640
21
2.381980
0
LINE
8
annotation
62
1
39
211
10
1.886640
20
2.381980
11
1.925792
21
2.326572
0
LINE
8
annotation
62
1
39
211
10
1.925792
20
2.326572
11
1.973601
21
2.278716
0
LINE
8
annotation
62
1
39
211
10
1.973601
20
2.278716
11
2.028940
21
2.239536
0
LINE
8
annotation
62
1
39
211
10
2.028940
20
2.239536
11
2.090677
21
2.210157
0
LINE
8
annotation
62
1
39
211
10
2.090677
20
2.210157
11
2.157683
21
2.191705
0
LINE
8
annotation
62
1
39
211
10
2.157683
20
2.191705
11
2.228829
21
2.185304
0
LINE
8
annotation
62
1
39
211
10
2.228829
20
2.185304
11
2.228829
21
2.185304
0
LINE
8
annotation
62
1
39
211
10
2.228829
20
2.185304
11
2.299975
21
2.191705
0
LINE
8
annotation
62
1
39
211
10
2.299975
20
2.191705
11
2.366982
21
2.210157
0
LINE
8
annotation
62
1
39
211
10
2.366982
20
2.210157
11
2.428719
21
2.239536
0
LINE
8
annotation
62
1
39
211
10
2.428719
20
2.239536
11
2.484057
21
2.278716
0
LINE
8
annotation
62
1
39
211
10
2.484057
20
2.278716
11
2.531867
21
2.326572
0
LINE
8
annotation
62
1
39
211
10
2.531867
20
2.326572
11
2.571019
21
2.381980
0
LINE
8
annotation
62
1
39
211
10
2.571019
20
2.381980
11
2.600383
21
2.443815
0
LINE
8
annotation
62
1
39
211
10
2.600383
20
2.443815
11
2.618830
21
2.510951
0
LINE
8
annotation
62
1
39
211
10
2.618830
20
2.510951
11
2.625230
21
2.582264
0
LINE
8
hole
62
5
39
2
10
3.573852
20
5.494390
11
3.596352
21
5.494390
0
LINE
8
hole
62
5
39
2
10
3.596352
20
5.494390
11
3.596352
21
5.516890
0
LINE
8
hole
62
5
39
2
10
3.596352
20
5.516890
11
3.573852
21
5.516890
0
LINE
8
hole
62
5
39
2
10
3.573852
20
5.516890
11
3.573852
21
5.494390
0
LINE
8
hole
62
5
39
2
10
2.097140
20
4.116309
11
2.119640
21
4.116309
0
LINE
8
hole
62
5
39
2
10
2.119640
20
4.116309
11
2.119640
21
4.138809
0
LINE
8
hole
62
5
39
2
10
2.119640
20
4.138809
11
2.097140
21
4.138809
0
LINE
8
hole
62
5
39
2
10
2.097140
20
4.138809
11
2.097140
21
4.116309
0
LINE
8
hole
62
5
39
2
10
2.097140
20
6.845984
11
2.119640
21
6.845984
0
LINE
8
hole
62
5
39
2
10
2.119640
20
6.845984
11
2.119640
21
6.868484
0
LINE
8
hole
62
5
39
2
10
2.119640
20
6.868484
11
2.097140
21
6.868484
0
LINE
8
hole
62
5
39
2
10
2.097140
20
6.868484
11
2.097140
21
6.845984
0
LINE
8
hole
62
5
39
2
10
0.620428
20
5.494390
11
0.642928
21
5.494390
0
LINE
8
hole
62
5
39
2
10
0.642928
20
5.494390
11
0.642928
21
5.516890
0
LINE
8
hole
62
5
39
2
10
0.642928
20
5.516890
11
0.620428
21
5.516890
0
LINE
8
hole
62
5
39
2
10
0.620428
20
5.516890
11
0.620428
21
5.494390
0
LINE
8
boundary
62
5
39
2
10
1.263793
20
6.798922
11
0.872322
21
6.387223
0
LINE
8
boundary
62
5
39
2
10
0.872322
20
6.387223
11
0.262500
21
5.745890
0
LINE
8
boundary
62
5
39
2
10
0.262500
20
5.745890
11
0.872322
21
4.526374
0
LINE
8
boundary
62
5
39
2
10
0.872322
20
4.526374
11
1.235751
21
3.799593
0
LINE
8
boundary
62
5
39
2
10
1.235751
20
3.799593
11
1.804950
21
3.799593
0
LINE
8
boundary
62
5
39
2
10
1.804950
20
3.799593
11
2.981030
21
3.799593
0
LINE
8
boundary
62
5
39
2
10
2.981030
20
3.799593
11
3.344458
21
4.526374
0
LINE
8
boundary
62
5
39
2
10
3.344458
20
4.526374
11
3.632750
21
5.102897
0
LINE
8
boundary
62
5
39
2
10
3.632750
20
5.102897
11
3.954280
21
5.745890
0
LINE
8
boundary
62
5
39
2
10
3.954280
20
5.745890
11
3.344458
21
6.387223
0
LINE
8
boundary
62
5
39
2
10
3.344458
20
6.387223
11
2.952988
21
6.798922
0
LINE
8
boundary
62
5
39
2
10
2.952988
20
6.798922
11
2.560503
21
7.211686
0
LINE
8
boundary
62
5
39
2
10
2.560503
20
7.211686
11
1.656277
21
7.211686
0
LINE
8
boundary
62
5
39
2
10
1.656277
20
7.211686
11
1.263793
21
6.798922
0
LINE
8
annotation
62
1
39
211
10
2.108390
20
6.857234
11
2.108390
21
6.913484
0
LINE
8
annotation
62
1
39
211
10
2.108390
20
6.857234
11
2.108390
21
6.913484
0
LINE
8
annotation
62
1
39
211
10
2.108390
20
6.913484
11
2.108390
21
6.857234
0
LINE
8
annotation
62
1
39
211
10
2.108390
20
6.857234
11
2.108390
21
6.800984
0
LINE
8
annotation
62
1
39
211
10
2.108390
20
4.127559
11
2.164640
21
4.127559
0
LINE
8
annotation
62
1
39
211
10
2.108390
20
4.127559
11
2.164640
21
4.127559
0
LINE
8
annotation
62
1
39
211
10
2.164640
20
4.127559
11
2.108390
21
4.127559
0
LINE
8
annotation
62
1
39
211
10
2.108390
20
4.127559
11
2.108390
21
4.071309
0
LINE
8
annotation
62
1
39
211
10
3.585102
20
5.505640
11
3.585102
21
5.561890
0
LINE
8
annotation
62
1
39
211
10
0.631678
20
5.505640
11
0.687928
21
5.505640
0
LINE
8
annotation
62
1
39
211
10
1.768947
20
4.667983
11
1.768947
21
5.997157
0
LINE
8
annotation
62
1
39
211
10
1.768947
20
5.997157
11
1.473455
21
5.701582
0
LINE
8
annotation
62
1
39
211
10
2.562880
20
4.667983
11
2.858372
21
5.997157
0
LINE
8
annotation
62
1
39
211
10
2.858372
20
5.997157
11
2.267304
21
5.997157
0
LINE
8
annotation
62
1
39
211
10
2.858372
20
5.405256
11
2.562880
21
5.405256
0
LINE
8
hole
62
5
39
2
10
5.852856
20
6.845984
11
5.875356
21
6.845984
0
LINE
8
hole
62
5
39
2
10
5.875356
20
6.845984
11
5.875356
21
6.868484
0
LINE
8
hole
62
5
39
2
10
5.875356
20
6.868484
11
5.852856
21
6.868484
0
LINE
8
hole
62
5
39
2
10
5.852856
20
6.868484
11
5.852856
21
6.845984
0
LINE
8
hole
62
5
39
2
10
7.280716
20
5.494390
11
7.303216
21
5.494390
0
LINE
8
hole
62
5
39
2
10
7.303216
20
5.494390
11
7.303216
21
5.516890
0
LINE
8
hole
62
5
39
2
10
7.303216
20
5.516890
11
7.280716
21
5.516890
0
LINE
8
hole
62
5
39
2
10
7.280716
20
5.516890
11
7.280716
21
5.494390
0
LINE
8
hole
62
5
39
2
10
4.424996
20
5.494390
11
4.447496
21
5.494390
0
LINE
8
hole
62
5
39
2
10
4.447496
20
5.494390
11
4.447496
21
5.516890
0
LINE
8
hole
62
5
39
2
10
4.447496
20
5.516890
11
4.424996
21
5.516890
0
LINE
8
hole
62
5
39
2
10
4.424996
20
5.516890
11
4.424996
21
5.494390
0
LINE
8
hole
62
5
39
2
10
5.852856
20
4.116309
11
5.875356
21
4.116309
0
LINE
8
hole
62
5
39
2
10
5.875356
20
4.116309
11
5.875356
21
4.138809
0
LINE
8
hole
62
5
39
2
10
5.875356
20
4.138809
11
5.852856
21
4.138809
0
LINE
8
hole
62
5
39
2
10
5.852856
20
4.138809
11
5.852856
21
4.116309
0
LINE
8
boundary
62
5
39
2
10
4.628038
20
6.427175
11
4.368614
21
5.908383
0
LINE
8
boundary
62
5
39
2
10
4.368614
20
5.908383
11
4.079280
21
5.329776
0
LINE
8
boundary
62
5
39
2
10
4.079280
20
5.329776
11
4.996979
21
4.364658
0
LINE
8
boundary
62
5
39
2
10
4.996979
20
4.364658
11
5.534281
21
3.799593
0
LINE
8
boundary
62
5
39
2
10
5.534281
20
3.799593
11
6.193931
21
3.799593
0
LINE
8
boundary
62
5
39
2
10
6.193931
20
3.799593
11
6.731233
21
4.364658
0
LINE
8
boundary
62
5
39
2
10
6.731233
20
4.364658
11
7.648932
21
5.329776
0
LINE
8
boundary
62
5
39
2
10
7.648932
20
5.329776
11
7.359598
21
5.908383
0
LINE
8
boundary
62
5
39
2
10
7.359598
20
5.908383
11
6.796922
21
7.033617
0
LINE
8
boundary
62
5
39
2
10
6.796922
20
7.033617
11
6.707877
21
7.211686
0
LINE
8
boundary
62
5
39
2
10
6.707877
20
7.211686
11
6.289834
21
7.211686
0
LINE
8
boundary
62
5
39
2
10
6.289834
20
7.211686
11
5.020335
21
7.211686
0
LINE
8
boundary
62
5
39
2
10
5.020335
20
7.211686
11
4.628038
21
6.427175
0
LINE
8
annotation
62
1
39
211
10
5.864106
20
6.857234
11
5.864106
21
6.913484
0
LINE
8
annotation
62
1
39
211
10
5.864106
20
6.857234
11
5.864106
21
6.913484
0
LINE
8
annotation
62
1
39
211
10
5.864106
20
6.913484
11
5.864106
21
6.857234
0
LINE
8
annotation
62
1
39
211
10
5.864106
20
6.857234
11
5.920356
21
6.857234
0
LINE
8
annotation
62
1
39
211
10
5.864106
20
4.127559
11
5.864106
21
4.071309
0
LINE
8
annotation
62
1
39
211
10
7.291966
20
5.505640
11
7.291966
21
5.561890
0
LINE
8
annotation
62
1
39
211
10
7.291966
20
5.505640
11
7.291966
21
5.561890
0
LINE
8
annotation
62
1
39
211
10
7.291966
20
5.561890
11
7.291966
21
5.505640
0
LINE
8
annotation
62
1
39
211
10
7.291966
20
5.505640
11
7.291966
21
5.449390
0
LINE
8
annotation
62
1
39
211
10
4.436246
20
5.505640
11
4.492496
21
5.505640
0
LINE
8
annotation
62
1
39
211
10
4.436246
20
5.505640
11
4.492496
21
5.505640
0
LINE
8
annotation
62
1
39
211
10
4.492496
20
5.505640
11
4.436246
21
5.505640
0
LINE
8
annotation
62
1
39
211
10
4.436246
20
5.505640
11
4.436246
21
5.449390
0
LINE
8
annotation
62
1
39
211
10
5.808115
20
4.893383
11
6.179547
21
6.564147
0
LINE
8
annotation
62
1
39
211
10
6.179547
20
6.564147
11
5.436578
21
6.564147
0
LINE
8
annotation
62
1
39
211
10
6.179547
20
5.820130
11
5.808115
21
5.820130
0
LINE
8
frame
62
5
39
2
10
0.000000
20
0.000000
11
8.500000
21
0.000000
0
LINE
8
frame
62
5
39
2
10
8.500000
20
0.000000
11
8.500000
21
11.000000
0
LINE
8
frame
62
5
39
2
10
8.500000
20
11.000000
11
0.000000
21
11.000000
0
LINE
8
frame
62
5
39
2
10
0.000000
20
11.000000
11
0.000000
21
0.000000
0
ENDSEC
0
EOF
