0
SECTION
2
HEADER
9
$ACADVER
1
AC1009
0
ENDSEC
0
SECTION
2
TABLES
0
TABLE
2
VPORT
70
1
0
VPORT
2
ACTIVE
70
0
10
0.0
20
0.0
11
0.0
21
0.0
12
0.0
22
0.0
13
0.0
23
0.0
14
0.0
24
0.0
15
0.0
25
0.0
16
0.0
26
0.0
36
0.0
17
0.0
27
0.0
37
0.0
40
0.0
41
0.0
42
0.0
43
0.0
44
0.0
50
0.0
51
0.0
71
0
72
1000
73
1
74
3
75
0
76
0
77
0
78
0
0
ENDTAB
0
ENDSEC
0
SECTION
2
ENTITIES
0
LINE
8
hole
62
5
39
2
10
2.251250
20
3.322134
11
2.273750
21
3.322134
0
LINE
8
hole
62
5
39
2
10
2.273750
20
3.322134
11
2.273750
21
3.344634
0
LINE
8
hole
62
5
39
2
10
2.273750
20
3.344634
11
2.251250
21
3.344634
0
LINE
8
hole
62
5
39
2
10
2.251250
20
3.344634
11
2.251250
21
3.322134
0
LINE
8
hole
62
5
39
2
10
3.851250
20
1.944053
11
3.873750
21
1.944053
0
LINE
8
hole
62
5
39
2
10
3.873750
20
1.944053
11
3.873750
21
1.966553
0
LINE
8
hole
62
5
39
2
10
3.873750
20
1.966553
11
3.851250
21
1.966553
0
LINE
8
hole
62
5
39
2
10
3.851250
20
1.966553
11
3.851250
21
1.944053
0
LINE
8
hole
62
5
39
2
10
0.651250
20
1.944053
11
0.673750
21
1.944053
0
LINE
8
hole
62
5
39
2
10
0.673750
20
1.944053
11
0.673750
21
1.966553
0
LINE
8
hole
62
5
39
2
10
0.673750
20
1.966553
11
0.651250
21
1.966553
0
LINE
8
hole
62
5
39
2
10
0.651250
20
1.966553
11
0.651250
21
1.944053
0
LINE
8
hole
62
5
39
2
10
2.251250
20
0.592459
11
2.273750
21
0.592459
0
LINE
8
hole
62
5
39
2
10
2.273750
20
0.592459
11
2.273750
21
0.614959
0
LINE
8
hole
62
5
39
2
10
2.273750
20
0.614959
11
2.251250
21
0.614959
0
LINE
8
hole
62
5
39
2
10
2.251250
20
0.614959
11
2.251250
21
0.592459
0
LINE
8
boundary
62
5
39
2
10
0.945706
20
3.536871
11
0.362854
21
2.371290
0
LINE
8
boundary
62
5
39
2
10
0.362854
20
2.371290
11
0.262500
21
2.170603
0
LINE
8
boundary
62
5
39
2
10
0.262500
20
2.170603
11
0.526336
21
1.642987
0
LINE
8
boundary
62
5
39
2
10
0.526336
20
1.642987
11
1.026432
21
0.642899
0
LINE
8
boundary
62
5
39
2
10
1.026432
20
0.642899
11
1.216652
21
0.262500
0
LINE
8
boundary
62
5
39
2
10
1.216652
20
0.262500
11
2.692785
21
0.262500
0
LINE
8
boundary
62
5
39
2
10
2.692785
20
0.262500
11
3.308348
21
0.262500
0
LINE
8
boundary
62
5
39
2
10
3.308348
20
0.262500
11
3.498568
21
0.642899
0
LINE
8
boundary
62
5
39
2
10
3.498568
20
0.642899
11
3.960069
21
1.565804
0
LINE
8
boundary
62
5
39
2
10
3.960069
20
1.565804
11
4.262500
21
2.170603
0
LINE
8
boundary
62
5
39
2
10
4.262500
20
2.170603
11
4.162146
21
2.371290
0
LINE
8
boundary
62
5
39
2
10
4.162146
20
2.371290
11
4.050221
21
2.595115
0
LINE
8
boundary
62
5
39
2
10
4.050221
20
2.595115
11
3.579294
21
3.536871
0
LINE
8
boundary
62
5
39
2
10
3.579294
20
3.536871
11
3.498568
21
3.621768
0
LINE
8
boundary
62
5
39
2
10
3.498568
20
3.621768
11
3.473486
21
3.648146
0
LINE
8
boundary
62
5
39
2
10
3.473486
20
3.648146
11
3.448338
21
3.674593
0
LINE
8
boundary
62
5
39
2
10
3.448338
20
3.674593
11
1.076662
21
3.674593
0
LINE
8
boundary
62
5
39
2
10
1.076662
20
3.674593
11
1.051514
21
3.648146
0
LINE
8
boundary
62
5
39
2
10
1.051514
20
3.648146
11
1.026432
21
3.621768
0
LINE
8
boundary
62
5
39
2
10
1.026432
20
3.621768
11
0.945706
21
3.536871
0
LINE
8
annotation
62
1
39
211
10
3.862500
20
1.955303
11
3.862500
21
2.011553
0
LINE
8
annotation
62
1
39
211
10
3.862500
20
1.955303
11
3.862500
21
2.011553
0
LINE
8
annotation
62
1
39
211
10
3.862500
20
2.011553
11
3.862500
21
1.955303
0
LINE
8
annotation
62
1
39
211
10
3.862500
20
1.955303
11
3.862500
21
1.899053
0
LINE
8
annotation
62
1
39
211
10
0.662500
20
1.955303
11
0.718750
21
1.955303
0
LINE
8
annotation
62
1
39
211
10
0.662500
20
1.955303
11
0.718750
21
1.955303
0
LINE
8
annotation
62
1
39
211
10
0.718750
20
1.955303
11
0.662500
21
1.955303
0
LINE
8
annotation
62
1
39
211
10
0.662500
20
1.955303
11
0.662500
21
1.899053
0
LINE
8
annotation
62
1
39
211
10
2.262500
20
3.333384
11
2.262500
21
3.389634
0
LINE
8
annotation
62
1
39
211
10
2.262500
20
0.603709
11
2.318750
21
0.603709
0
LINE
8
annotation
62
1
39
211
10
1.690093
20
1.435993
11
1.690093
21
2.876137
0
LINE
8
annotation
62
1
39
211
10
1.690093
20
2.876137
11
1.369931
21
2.555885
0
LINE
8
annotation
62
1
39
211
10
3.029741
20
1.756156
11
2.230102
21
1.756156
0
LINE
8
annotation
62
1
39
211
10
2.230102
20
1.756156
11
2.549452
21
2.876137
0
LINE
8
annotation
62
1
39
211
10
2.790048
20
1.435993
11
2.790048
21
2.075596
0
LINE
8
hole
62
5
39
2
10
0.619270
20
5.481146
11
0.641770
21
5.481146
0
LINE
8
hole
62
5
39
2
10
0.641770
20
5.481146
11
0.641770
21
5.503646
0
LINE
8
hole
62
5
39
2
10
0.641770
20
5.503646
11
0.619270
21
5.503646
0
LINE
8
hole
62
5
39
2
10
0.619270
20
5.503646
11
0.619270
21
5.481146
0
LINE
8
hole
62
5
39
2
10
2.219270
20
4.129552
11
2.241770
21
4.129552
0
LINE
8
hole
62
5
39
2
10
2.241770
20
4.129552
11
2.241770
21
4.152052
0
LINE
8
hole
62
5
39
2
10
2.241770
20
4.152052
11
2.219270
21
4.152052
0
LINE
8
hole
62
5
39
2
10
2.219270
20
4.152052
11
2.219270
21
4.129552
0
LINE
8
hole
62
5
39
2
10
2.219270
20
6.859227
11
2.241770
21
6.859227
0
LINE
8
hole
62
5
39
2
10
2.241770
20
6.859227
11
2.241770
21
6.881727
0
LINE
8
hole
62
5
39
2
10
2.241770
20
6.881727
11
2.219270
21
6.881727
0
LINE
8
hole
62
5
39
2
10
2.219270
20
6.881727
11
2.219270
21
6.859227
0
LINE
8
hole
62
5
39
2
10
3.819270
20
5.481146
11
3.841770
21
5.481146
0
LINE
8
hole
62
5
39
2
10
3.841770
20
5.481146
11
3.841770
21
5.503646
0
LINE
8
hole
62
5
39
2
10
3.841770
20
5.503646
11
3.819270
21
5.503646
0
LINE
8
hole
62
5
39
2
10
3.819270
20
5.503646
11
3.819270
21
5.481146
0
LINE
8
boundary
62
5
39
2
10
1.263793
20
6.927694
11
0.994452
21
6.644436
0
LINE
8
boundary
62
5
39
2
10
0.994452
20
6.644436
11
0.262500
21
5.874663
0
LINE
8
boundary
62
5
39
2
10
0.262500
20
5.874663
11
0.994452
21
4.410913
0
LINE
8
boundary
62
5
39
2
10
0.994452
20
4.410913
11
1.300144
21
3.799593
0
LINE
8
boundary
62
5
39
2
10
1.300144
20
3.799593
11
2.171654
21
3.799593
0
LINE
8
boundary
62
5
39
2
10
2.171654
20
3.799593
11
3.160896
21
3.799593
0
LINE
8
boundary
62
5
39
2
10
3.160896
20
3.799593
11
3.466588
21
4.410913
0
LINE
8
boundary
62
5
39
2
10
3.466588
20
4.410913
11
3.812616
21
5.102897
0
LINE
8
boundary
62
5
39
2
10
3.812616
20
5.102897
11
4.198539
21
5.874663
0
LINE
8
boundary
62
5
39
2
10
4.198539
20
5.874663
11
3.466588
21
6.644436
0
LINE
8
boundary
62
5
39
2
10
3.466588
20
6.644436
11
3.197246
21
6.927694
0
LINE
8
boundary
62
5
39
2
10
3.197246
20
6.927694
11
2.927208
21
7.211686
0
LINE
8
boundary
62
5
39
2
10
2.927208
20
7.211686
11
1.533832
21
7.211686
0
LINE
8
boundary
62
5
39
2
10
1.533832
20
7.211686
11
1.263793
21
6.927694
0
LINE
8
annotation
62
1
39
211
10
3.830520
20
5.492396
11
3.830520
21
5.548646
0
LINE
8
annotation
62
1
39
211
10
3.830520
20
5.492396
11
3.830520
21
5.548646
0
LINE
8
annotation
62
1
39
211
10
3.830520
20
5.548646
11
3.830520
21
5.492396
0
LINE
8
annotation
62
1
39
211
10
3.830520
20
5.492396
11
3.886770
21
5.492396
0
LINE
8
annotation
62
1
39
211
10
0.630520
20
5.492396
11
0.630520
21
5.436146
0
LINE
8
annotation
62
1
39
211
10
2.230520
20
6.870477
11
2.230520
21
6.926727
0
LINE
8
annotation
62
1
39
211
10
2.230520
20
6.870477
11
2.230520
21
6.926727
0
LINE
8
annotation
62
1
39
211
10
2.230520
20
6.926727
11
2.230520
21
6.870477
0
LINE
8
annotation
62
1
39
211
10
2.230520
20
6.870477
11
2.230520
21
6.814227
0
LINE
8
annotation
62
1
39
211
10
2.230520
20
4.140802
11
2.286770
21
4.140802
0
LINE
8
annotation
62
1
39
211
10
2.230520
20
4.140802
11
2.286770
21
4.140802
0
LINE
8
annotation
62
1
39
211
10
2.286770
20
4.140802
11
2.230520
21
4.140802
0
LINE
8
annotation
62
1
39
211
10
2.230520
20
4.140802
11
2.230520
21
4.084552
0
LINE
8
annotation
62
1
39
211
10
1.869018
20
4.735575
11
1.869018
21
6.152691
0
LINE
8
annotation
62
1
39
211
10
1.869018
20
6.152691
11
1.553975
21
5.837559
0
LINE
8
annotation
62
1
39
211
10
2.873090
20
6.152691
11
2.873090
21
6.152691
0
LINE
8
annotation
62
1
39
211
10
2.873090
20
6.152691
11
2.782940
21
6.118890
0
LINE
8
annotation
62
1
39
211
10
2.782940
20
6.118890
11
2.700215
21
6.073348
0
LINE
8
annotation
62
1
39
211
10
2.700215
20
6.073348
11
2.625765
21
6.017204
0
LINE
8
annotation
62
1
39
211
10
2.625765
20
6.017204
11
2.560440
21
5.951601
0
LINE
8
annotation
62
1
39
211
10
2.560440
20
5.951601
11
2.505087
21
5.877680
0
LINE
8
annotation
62
1
39
211
10
2.505087
20
5.877680
11
2.460557
21
5.796580
0
LINE
8
annotation
62
1
39
211
10
2.460557
20
5.796580
11
2.427698
21
5.709444
0
LINE
8
annotation
62
1
39
211
10
2.427698
20
5.709444
11
2.407360
21
5.617413
0
LINE
8
annotation
62
1
39
211
10
2.407360
20
5.617413
11
2.400392
21
5.521627
0
LINE
8
annotation
62
1
39
211
10
2.400392
20
5.521627
11
2.400392
21
5.050618
0
LINE
8
annotation
62
1
39
211
10
2.400392
20
5.050618
11
2.400392
21
5.050618
0
LINE
8
annotation
62
1
39
211
10
2.400392
20
5.050618
11
2.405473
21
4.994009
0
LINE
8
annotation
62
1
39
211
10
2.405473
20
4.994009
11
2.420117
21
4.940720
0
LINE
8
annotation
62
1
39
211
10
2.420117
20
4.940720
11
2.443428
21
4.891643
0
LINE
8
annotation
62
1
39
211
10
2.443428
20
4.891643
11
2.474509
21
4.847671
0
LINE
8
annotation
62
1
39
211
10
2.474509
20
4.847671
11
2.512463
21
4.809694
0
LINE
8
annotation
62
1
39
211
10
2.512463
20
4.809694
11
2.556394
21
4.778604
0
LINE
8
annotation
62
1
39
211
10
2.556394
20
4.778604
11
2.605405
21
4.755294
0
LINE
8
annotation
62
1
39
211
10
2.605405
20
4.755294
11
2.658599
21
4.740653
0
LINE
8
annotation
62
1
39
211
10
2.658599
20
4.740653
11
2.715079
21
4.735575
0
LINE
8
annotation
62
1
39
211
10
2.715079
20
4.735575
11
2.715079
21
4.735575
0
LINE
8
annotation
62
1
39
211
10
2.715079
20
4.735575
11
2.771677
21
4.740653
0
LINE
8
annotation
62
1
39
211
10
2.771677
20
4.740653
11
2.824933
21
4.755294
0
LINE
8
annotation
62
1
39
211
10
2.824933
20
4.755294
11
2.873962
21
4.778604
0
LINE
8
annotation
62
1
39
211
10
2.873962
20
4.778604
11
2.917878
21
4.809694
0
LINE
8
annotation
62
1
39
211
10
2.917878
20
4.809694
11
2.955796
21
4.847671
0
LINE
8
annotation
62
1
39
211
10
2.955796
20
4.847671
11
2.986830
21
4.891643
0
LINE
8
annotation
62
1
39
211
10
2.986830
20
4.891643
11
3.010093
21
4.940720
0
LINE
8
annotation
62
1
39
211
10
3.010093
20
4.940720
11
3.024701
21
4.994009
0
LINE
8
annotation
62
1
39
211
10
3.024701
20
4.994009
11
3.029767
21
5.050618
0
LINE
8
annotation
62
1
39
211
10
3.029767
20
5.050618
11
3.029767
21
5.207384
0
LINE
8
annotation
62
1
39
211
10
3.029767
20
5.207384
11
3.029767
21
5.207384
0
LINE
8
annotation
62
1
39
211
10
3.029767
20
5.207384
11
3.024701
21
5.263966
0
LINE
8
annotation
62
1
39
211
10
3.024701
20
5.263966
11
3.010093
21
5.317182
0
LINE
8
annotation
62
1
39
211
10
3.010093
20
5.317182
11
2.986830
21
5.366152
0
LINE
8
annotation
62
1
39
211
10
2.986830
20
5.366152
11
2.955796
21
5.409998
0
LINE
8
annotation
62
1
39
211
10
2.955796
20
5.409998
11
2.917878
21
5.447842
0
LINE
8
annotation
62
1
39
211
10
2.917878
20
5.447842
11
2.873962
21
5.478805
0
LINE
8
annotation
62
1
39
211
10
2.873962
20
5.478805
11
2.824933
21
5.502010
0
LINE
8
annotation
62
1
39
211
10
2.824933
20
5.502010
11
2.771677
21
5.516577
0
LINE
8
annotation
62
1
39
211
10
2.771677
20
5.516577
11
2.715079
21
5.521627
0
LINE
8
annotation
62
1
39
211
10
2.715079
20
5.521627
11
2.400392
21
5.521627
0
LINE
8
annotation
62
1
39
211
10
2.360978
20
4.558436
11
3.069536
21
4.558436
0
LINE
8
frame
62
5
39
2
10
0.000000
20
0.000000
11
8.500000
21
0.000000
0
LINE
8
frame
62
5
39
2
10
8.500000
20
0.000000
11
8.500000
21
11.000000
0
LINE
8
frame
62
5
39
2
10
8.500000
20
11.000000
11
0.000000
21
11.000000
0
LINE
8
frame
62
5
39
2
10
0.000000
20
11.000000
11
0.000000
21
0.000000
0
ENDSEC
0
EOF
