0
SECTION
2
HEADER
9
$ACADVER
1
AC1009
0
ENDSEC
0
SECTION
2
TABLES
0
TABLE
2
VPORT
70
1
0
VPORT
2
ACTIVE
70
0
10
0.0
20
0.0
11
0.0
21
0.0
12
0.0
22
0.0
13
0.0
23
0.0
14
0.0
24
0.0
15
0.0
25
0.0
16
0.0
26
0.0
36
0.0
17
0.0
27
0.0
37
0.0
40
0.0
41
0.0
42
0.0
43
0.0
44
0.0
50
0.0
51
0.0
71
0
72
1000
73
1
74
3
75
0
76
0
77
0
78
0
0
ENDTAB
0
ENDSEC
0
SECTION
2
ENTITIES
0
LINE
8
hole
62
5
39
2
10
2.251250
20
0.579216
11
2.273750
21
0.579216
0
LINE
8
hole
62
5
39
2
10
2.273750
20
0.579216
11
2.273750
21
0.601716
0
LINE
8
hole
62
5
39
2
10
2.273750
20
0.601716
11
2.251250
21
0.601716
0
LINE
8
hole
62
5
39
2
10
2.251250
20
0.601716
11
2.251250
21
0.579216
0
LINE
8
hole
62
5
39
2
10
2.251250
20
3.308890
11
2.273750
21
3.308890
0
LINE
8
hole
62
5
39
2
10
2.273750
20
3.308890
11
2.273750
21
3.331390
0
LINE
8
hole
62
5
39
2
10
2.273750
20
3.331390
11
2.251250
21
3.331390
0
LINE
8
hole
62
5
39
2
10
2.251250
20
3.331390
11
2.251250
21
3.308890
0
LINE
8
hole
62
5
39
2
10
3.851250
20
1.957297
11
3.873750
21
1.957297
0
LINE
8
hole
62
5
39
2
10
3.873750
20
1.957297
11
3.873750
21
1.979797
0
LINE
8
hole
62
5
39
2
10
3.873750
20
1.979797
11
3.851250
21
1.979797
0
LINE
8
hole
62
5
39
2
10
3.851250
20
1.979797
11
3.851250
21
1.957297
0
LINE
8
hole
62
5
39
2
10
0.651250
20
1.957297
11
0.673750
21
1.957297
0
LINE
8
hole
62
5
39
2
10
0.673750
20
1.957297
11
0.673750
21
1.979797
0
LINE
8
hole
62
5
39
2
10
0.673750
20
1.979797
11
0.651250
21
1.979797
0
LINE
8
hole
62
5
39
2
10
0.651250
20
1.979797
11
0.651250
21
1.957297
0
LINE
8
boundary
62
5
39
2
10
1.026432
20
3.121003
11
0.651536
21
2.371290
0
LINE
8
boundary
62
5
39
2
10
0.651536
20
2.371290
11
0.262500
21
1.593300
0
LINE
8
boundary
62
5
39
2
10
0.262500
20
1.593300
11
0.356106
21
1.406107
0
LINE
8
boundary
62
5
39
2
10
0.356106
20
1.406107
11
1.443524
21
0.262500
0
LINE
8
boundary
62
5
39
2
10
1.443524
20
0.262500
11
3.081476
21
0.262500
0
LINE
8
boundary
62
5
39
2
10
3.081476
20
0.262500
11
4.168894
21
1.406107
0
LINE
8
boundary
62
5
39
2
10
4.168894
20
1.406107
11
4.248750
21
1.565804
0
LINE
8
boundary
62
5
39
2
10
4.248750
20
1.565804
11
4.262500
21
1.593300
0
LINE
8
boundary
62
5
39
2
10
4.262500
20
1.593300
11
3.873464
21
2.371290
0
LINE
8
boundary
62
5
39
2
10
3.873464
20
2.371290
11
3.439574
21
3.238978
0
LINE
8
boundary
62
5
39
2
10
3.439574
20
3.238978
11
3.221744
21
3.674593
0
LINE
8
boundary
62
5
39
2
10
3.221744
20
3.674593
11
2.199078
21
3.674593
0
LINE
8
boundary
62
5
39
2
10
2.199078
20
3.674593
11
1.303256
21
3.674593
0
LINE
8
boundary
62
5
39
2
10
1.303256
20
3.674593
11
1.026432
21
3.121003
0
LINE
8
annotation
62
1
39
211
10
2.262500
20
3.320140
11
2.262500
21
3.376390
0
LINE
8
annotation
62
1
39
211
10
2.262500
20
0.590466
11
2.318750
21
0.590466
0
LINE
8
annotation
62
1
39
211
10
3.862500
20
1.968547
11
3.862500
21
2.024797
0
LINE
8
annotation
62
1
39
211
10
3.862500
20
1.968547
11
3.862500
21
2.024797
0
LINE
8
annotation
62
1
39
211
10
3.862500
20
2.024797
11
3.862500
21
1.968547
0
LINE
8
annotation
62
1
39
211
10
3.862500
20
1.968547
11
3.918750
21
1.968547
0
LINE
8
annotation
62
1
39
211
10
0.662500
20
1.968547
11
0.662500
21
1.912297
0
LINE
8
annotation
62
1
39
211
10
1.991595
20
1.094959
11
1.991595
21
1.094959
0
LINE
8
annotation
62
1
39
211
10
1.991595
20
1.094959
11
2.110484
21
1.139263
0
LINE
8
annotation
62
1
39
211
10
2.110484
20
1.139263
11
2.219611
21
1.199149
0
LINE
8
annotation
62
1
39
211
10
2.219611
20
1.199149
11
2.317845
21
1.273089
0
LINE
8
annotation
62
1
39
211
10
2.317845
20
1.273089
11
2.404061
21
1.359558
0
LINE
8
annotation
62
1
39
211
10
2.404061
20
1.359558
11
2.477130
21
1.457032
0
LINE
8
annotation
62
1
39
211
10
2.477130
20
1.457032
11
2.535924
21
1.563982
0
LINE
8
annotation
62
1
39
211
10
2.535924
20
1.563982
11
2.579316
21
1.678885
0
LINE
8
annotation
62
1
39
211
10
2.579316
20
1.678885
11
2.606178
21
1.800214
0
LINE
8
annotation
62
1
39
211
10
2.606178
20
1.800214
11
2.615383
21
1.926442
0
LINE
8
annotation
62
1
39
211
10
2.615383
20
1.926442
11
2.615383
21
2.550818
0
LINE
8
annotation
62
1
39
211
10
2.615383
20
2.550818
11
2.615383
21
2.550818
0
LINE
8
annotation
62
1
39
211
10
2.615383
20
2.550818
11
2.608690
21
2.625610
0
LINE
8
annotation
62
1
39
211
10
2.608690
20
2.625610
11
2.589392
21
2.696022
0
LINE
8
annotation
62
1
39
211
10
2.589392
20
2.696022
11
2.558658
21
2.760874
0
LINE
8
annotation
62
1
39
211
10
2.558658
20
2.760874
11
2.517658
21
2.818985
0
LINE
8
annotation
62
1
39
211
10
2.517658
20
2.818985
11
2.467564
21
2.869177
0
LINE
8
annotation
62
1
39
211
10
2.467564
20
2.869177
11
2.409545
21
2.910269
0
LINE
8
annotation
62
1
39
211
10
2.409545
20
2.910269
11
2.344772
21
2.941081
0
LINE
8
annotation
62
1
39
211
10
2.344772
20
2.941081
11
2.274414
21
2.960433
0
LINE
8
annotation
62
1
39
211
10
2.274414
20
2.960433
11
2.199642
21
2.967146
0
LINE
8
annotation
62
1
39
211
10
2.199642
20
2.967146
11
2.199642
21
2.967146
0
LINE
8
annotation
62
1
39
211
10
2.199642
20
2.967146
11
2.125024
21
2.960433
0
LINE
8
annotation
62
1
39
211
10
2.125024
20
2.960433
11
2.054748
21
2.941081
0
LINE
8
annotation
62
1
39
211
10
2.054748
20
2.941081
11
1.989999
21
2.910269
0
LINE
8
annotation
62
1
39
211
10
1.989999
20
2.910269
11
1.931960
21
2.869177
0
LINE
8
annotation
62
1
39
211
10
1.931960
20
2.869177
11
1.881818
21
2.818985
0
LINE
8
annotation
62
1
39
211
10
1.881818
20
2.818985
11
1.840756
21
2.760874
0
LINE
8
annotation
62
1
39
211
10
1.840756
20
2.760874
11
1.809959
21
2.696022
0
LINE
8
annotation
62
1
39
211
10
1.809959
20
2.696022
11
1.790612
21
2.625610
0
LINE
8
annotation
62
1
39
211
10
1.790612
20
2.625610
11
1.783900
21
2.550818
0
LINE
8
annotation
62
1
39
211
10
1.783900
20
2.550818
11
1.783900
21
2.342654
0
LINE
8
annotation
62
1
39
211
10
1.783900
20
2.342654
11
1.783900
21
2.342654
0
LINE
8
annotation
62
1
39
211
10
1.783900
20
2.342654
11
1.790612
21
2.267865
0
LINE
8
annotation
62
1
39
211
10
1.790612
20
2.267865
11
1.809959
21
2.197464
0
LINE
8
annotation
62
1
39
211
10
1.809959
20
2.197464
11
1.840756
21
2.132628
0
LINE
8
annotation
62
1
39
211
10
1.840756
20
2.132628
11
1.881818
21
2.074535
0
LINE
8
annotation
62
1
39
211
10
1.881818
20
2.074535
11
1.931960
21
2.024363
0
LINE
8
annotation
62
1
39
211
10
1.931960
20
2.024363
11
1.989999
21
1.983290
0
LINE
8
annotation
62
1
39
211
10
1.989999
20
1.983290
11
2.054748
21
1.952493
0
LINE
8
annotation
62
1
39
211
10
2.054748
20
1.952493
11
2.125024
21
1.933151
0
LINE
8
annotation
62
1
39
211
10
2.125024
20
1.933151
11
2.199642
21
1.926442
0
LINE
8
annotation
62
1
39
211
10
2.199642
20
1.926442
11
2.615383
21
1.926442
0
LINE
8
annotation
62
1
39
211
10
1.731947
20
0.860936
11
2.668041
21
0.860936
0
LINE
8
hole
62
5
39
2
10
7.149270
20
1.744216
11
7.171770
21
1.744216
0
LINE
8
hole
62
5
39
2
10
7.171770
20
1.744216
11
7.171770
21
1.766716
0
LINE
8
hole
62
5
39
2
10
7.171770
20
1.766716
11
7.149270
21
1.766716
0
LINE
8
hole
62
5
39
2
10
7.149270
20
1.766716
11
7.149270
21
1.744216
0
LINE
8
hole
62
5
39
2
10
5.916817
20
2.573955
11
5.939317
21
2.573955
0
LINE
8
hole
62
5
39
2
10
5.939317
20
2.573955
11
5.939317
21
2.596455
0
LINE
8
hole
62
5
39
2
10
5.939317
20
2.596455
11
5.916817
21
2.596455
0
LINE
8
hole
62
5
39
2
10
5.916817
20
2.596455
11
5.916817
21
2.573955
0
LINE
8
hole
62
5
39
2
10
5.916817
20
0.726190
11
5.939317
21
0.726190
0
LINE
8
hole
62
5
39
2
10
5.939317
20
0.726190
11
5.939317
21
0.748690
0
LINE
8
hole
62
5
39
2
10
5.939317
20
0.748690
11
5.916817
21
0.748690
0
LINE
8
hole
62
5
39
2
10
5.916817
20
0.748690
11
5.916817
21
0.726190
0
LINE
8
hole
62
5
39
2
10
4.684363
20
1.744216
11
4.706863
21
1.744216
0
LINE
8
hole
62
5
39
2
10
4.706863
20
1.744216
11
4.706863
21
1.766716
0
LINE
8
hole
62
5
39
2
10
4.706863
20
1.766716
11
4.684363
21
1.766716
0
LINE
8
hole
62
5
39
2
10
4.684363
20
1.766716
11
4.684363
21
1.744216
0
LINE
8
boundary
62
5
39
2
10
4.691999
20
2.491604
11
4.548048
21
2.203732
0
LINE
8
boundary
62
5
39
2
10
4.548048
20
2.203732
11
4.387500
21
1.882670
0
LINE
8
boundary
62
5
39
2
10
4.387500
20
1.882670
11
5.672009
21
0.531788
0
LINE
8
boundary
62
5
39
2
10
5.672009
20
0.531788
11
5.928067
21
0.262500
0
LINE
8
boundary
62
5
39
2
10
5.928067
20
0.262500
11
6.184124
21
0.531788
0
LINE
8
boundary
62
5
39
2
10
6.184124
20
0.531788
11
7.468633
21
1.882670
0
LINE
8
boundary
62
5
39
2
10
7.468633
20
1.882670
11
7.308085
21
2.203732
0
LINE
8
boundary
62
5
39
2
10
7.308085
20
2.203732
11
6.785681
21
3.248431
0
LINE
8
boundary
62
5
39
2
10
6.785681
20
3.248431
11
5.560979
21
3.248431
0
LINE
8
boundary
62
5
39
2
10
5.560979
20
3.248431
11
5.257817
21
3.248431
0
LINE
8
boundary
62
5
39
2
10
5.257817
20
3.248431
11
5.070452
21
3.248431
0
LINE
8
boundary
62
5
39
2
10
5.070452
20
3.248431
11
4.691999
21
2.491604
0
LINE
8
annotation
62
1
39
211
10
5.928067
20
2.585205
11
5.928067
21
2.641455
0
LINE
8
annotation
62
1
39
211
10
5.928067
20
2.585205
11
5.928067
21
2.641455
0
LINE
8
annotation
62
1
39
211
10
5.928067
20
2.641455
11
5.928067
21
2.585205
0
LINE
8
annotation
62
1
39
211
10
5.928067
20
2.585205
11
5.928067
21
2.528955
0
LINE
8
annotation
62
1
39
211
10
5.928067
20
0.737440
11
5.984317
21
0.737440
0
LINE
8
annotation
62
1
39
211
10
5.928067
20
0.737440
11
5.984317
21
0.737440
0
LINE
8
annotation
62
1
39
211
10
5.984317
20
0.737440
11
5.928067
21
0.737440
0
LINE
8
annotation
62
1
39
211
10
5.928067
20
0.737440
11
5.928067
21
0.681190
0
LINE
8
annotation
62
1
39
211
10
7.160520
20
1.755466
11
7.160520
21
1.811716
0
LINE
8
annotation
62
1
39
211
10
4.695613
20
1.755466
11
4.751863
21
1.755466
0
LINE
8
annotation
62
1
39
211
10
6.090270
20
1.578668
11
6.361241
21
1.578668
0
LINE
8
annotation
62
1
39
211
10
6.361241
20
1.578668
11
6.361241
21
1.578668
0
LINE
8
annotation
62
1
39
211
10
6.361241
20
1.578668
11
6.409875
21
1.583041
0
LINE
8
annotation
62
1
39
211
10
6.409875
20
1.583041
11
6.455680
21
1.595647
0
LINE
8
annotation
62
1
39
211
10
6.455680
20
1.595647
11
6.497882
21
1.615720
0
LINE
8
annotation
62
1
39
211
10
6.497882
20
1.615720
11
6.535710
21
1.642490
0
LINE
8
annotation
62
1
39
211
10
6.535710
20
1.642490
11
6.568392
21
1.675191
0
LINE
8
annotation
62
1
39
211
10
6.568392
20
1.675191
11
6.595155
21
1.713055
0
LINE
8
annotation
62
1
39
211
10
6.595155
20
1.713055
11
6.615228
21
1.755314
0
LINE
8
annotation
62
1
39
211
10
6.615228
20
1.755314
11
6.627838
21
1.801200
0
LINE
8
annotation
62
1
39
211
10
6.627838
20
1.801200
11
6.632213
21
1.849945
0
LINE
8
annotation
62
1
39
211
10
6.632213
20
1.849945
11
6.632213
21
1.984934
0
LINE
8
annotation
62
1
39
211
10
6.632213
20
1.984934
11
6.632213
21
1.984934
0
LINE
8
annotation
62
1
39
211
10
6.632213
20
1.984934
11
6.627840
21
2.033655
0
LINE
8
annotation
62
1
39
211
10
6.627840
20
2.033655
11
6.615237
21
2.079478
0
LINE
8
annotation
62
1
39
211
10
6.615237
20
2.079478
11
6.595172
21
2.121645
0
LINE
8
annotation
62
1
39
211
10
6.595172
20
2.121645
11
6.568417
21
2.159400
0
LINE
8
annotation
62
1
39
211
10
6.568417
20
2.159400
11
6.535741
21
2.191987
0
LINE
8
annotation
62
1
39
211
10
6.535741
20
2.191987
11
6.497916
21
2.218649
0
LINE
8
annotation
62
1
39
211
10
6.497916
20
2.218649
11
6.455710
21
2.238630
0
LINE
8
annotation
62
1
39
211
10
6.455710
20
2.238630
11
6.409895
21
2.251173
0
LINE
8
annotation
62
1
39
211
10
6.409895
20
2.251173
11
6.361241
21
2.255522
0
LINE
8
annotation
62
1
39
211
10
6.361241
20
2.255522
11
6.090270
21
2.255522
0
LINE
8
annotation
62
1
39
211
10
6.090270
20
2.255522
11
6.090270
21
2.798919
0
LINE
8
annotation
62
1
39
211
10
6.090270
20
2.798919
11
6.632213
21
2.798919
0
LINE
8
boundary
62
5
39
2
10
4.387500
20
3.654464
11
4.654725
21
3.373431
0
LINE
8
boundary
62
5
39
2
10
4.654725
20
3.373431
11
4.921950
21
3.654464
0
LINE
8
boundary
62
5
39
2
10
4.921950
20
3.654464
11
4.591642
21
3.654464
0
LINE
8
boundary
62
5
39
2
10
4.591642
20
3.654464
11
4.387500
21
3.654464
0
LINE
8
annotation
62
1
39
211
10
4.678036
20
3.463304
11
4.678036
21
3.597998
0
LINE
8
annotation
62
1
39
211
10
4.678036
20
3.597998
11
4.648092
21
3.568046
0
LINE
8
hole
62
5
39
2
10
0.651250
20
5.494390
11
0.673750
21
5.494390
0
LINE
8
hole
62
5
39
2
10
0.673750
20
5.494390
11
0.673750
21
5.516890
0
LINE
8
hole
62
5
39
2
10
0.673750
20
5.516890
11
0.651250
21
5.516890
0
LINE
8
hole
62
5
39
2
10
0.651250
20
5.516890
11
0.651250
21
5.494390
0
LINE
8
hole
62
5
39
2
10
2.251250
20
6.845983
11
2.273750
21
6.845983
0
LINE
8
hole
62
5
39
2
10
2.273750
20
6.845983
11
2.273750
21
6.868483
0
LINE
8
hole
62
5
39
2
10
2.273750
20
6.868483
11
2.251250
21
6.868483
0
LINE
8
hole
62
5
39
2
10
2.251250
20
6.868483
11
2.251250
21
6.845983
0
LINE
8
hole
62
5
39
2
10
2.251250
20
4.116309
11
2.273750
21
4.116309
0
LINE
8
hole
62
5
39
2
10
2.273750
20
4.116309
11
2.273750
21
4.138809
0
LINE
8
hole
62
5
39
2
10
2.273750
20
4.138809
11
2.251250
21
4.138809
0
LINE
8
hole
62
5
39
2
10
2.251250
20
4.138809
11
2.251250
21
4.116309
0
LINE
8
hole
62
5
39
2
10
3.851250
20
5.494390
11
3.873750
21
5.494390
0
LINE
8
hole
62
5
39
2
10
3.873750
20
5.494390
11
3.873750
21
5.516890
0
LINE
8
hole
62
5
39
2
10
3.873750
20
5.516890
11
3.851250
21
5.516890
0
LINE
8
hole
62
5
39
2
10
3.851250
20
5.516890
11
3.851250
21
5.494390
0
LINE
8
boundary
62
5
39
2
10
0.552640
20
6.403374
11
0.305118
21
5.908383
0
LINE
8
boundary
62
5
39
2
10
0.305118
20
5.908383
11
0.262500
21
5.823156
0
LINE
8
boundary
62
5
39
2
10
0.262500
20
5.823156
11
0.374544
21
5.599092
0
LINE
8
boundary
62
5
39
2
10
0.374544
20
5.599092
11
1.026432
21
4.295453
0
LINE
8
boundary
62
5
39
2
10
1.026432
20
4.295453
11
1.274388
21
3.799593
0
LINE
8
boundary
62
5
39
2
10
1.274388
20
3.799593
11
2.448210
21
3.799593
0
LINE
8
boundary
62
5
39
2
10
2.448210
20
3.799593
11
3.250612
21
3.799593
0
LINE
8
boundary
62
5
39
2
10
3.250612
20
3.799593
11
3.498568
21
4.295453
0
LINE
8
boundary
62
5
39
2
10
3.498568
20
4.295453
11
3.902332
21
5.102897
0
LINE
8
boundary
62
5
39
2
10
3.902332
20
5.102897
11
4.262500
21
5.823156
0
LINE
8
boundary
62
5
39
2
10
4.262500
20
5.823156
11
4.219882
21
5.908383
0
LINE
8
boundary
62
5
39
2
10
4.219882
20
5.908383
11
4.172351
21
6.003436
0
LINE
8
boundary
62
5
39
2
10
4.172351
20
6.003436
11
3.972360
21
6.403374
0
LINE
8
boundary
62
5
39
2
10
3.972360
20
6.403374
11
3.498568
21
6.901648
0
LINE
8
boundary
62
5
39
2
10
3.498568
20
6.901648
11
3.351356
21
7.056467
0
LINE
8
boundary
62
5
39
2
10
3.351356
20
7.056467
11
3.203763
21
7.211686
0
LINE
8
boundary
62
5
39
2
10
3.203763
20
7.211686
11
1.321237
21
7.211686
0
LINE
8
boundary
62
5
39
2
10
1.321237
20
7.211686
11
1.173644
21
7.056467
0
LINE
8
boundary
62
5
39
2
10
1.173644
20
7.056467
11
1.026432
21
6.901648
0
LINE
8
boundary
62
5
39
2
10
1.026432
20
6.901648
11
0.552640
21
6.403374
0
LINE
8
annotation
62
1
39
211
10
2.262500
20
6.857233
11
2.262500
21
6.913483
0
LINE
8
annotation
62
1
39
211
10
2.262500
20
4.127559
11
2.318750
21
4.127559
0
LINE
8
annotation
62
1
39
211
10
3.862500
20
5.505640
11
3.862500
21
5.561890
0
LINE
8
annotation
62
1
39
211
10
3.862500
20
5.505640
11
3.862500
21
5.561890
0
LINE
8
annotation
62
1
39
211
10
3.862500
20
5.561890
11
3.862500
21
5.505640
0
LINE
8
annotation
62
1
39
211
10
3.862500
20
5.505640
11
3.918750
21
5.505640
0
LINE
8
annotation
62
1
39
211
10
0.662500
20
5.505640
11
0.662500
21
5.449390
0
LINE
8
annotation
62
1
39
211
10
1.770111
20
4.848074
11
1.770111
21
6.288218
0
LINE
8
annotation
62
1
39
211
10
1.770111
20
6.288218
11
1.449949
21
5.967965
0
LINE
8
annotation
62
1
39
211
10
2.310120
20
4.848074
11
2.629921
21
4.848074
0
LINE
8
annotation
62
1
39
211
10
2.629921
20
4.848074
11
2.629921
21
4.848074
0
LINE
8
annotation
62
1
39
211
10
2.629921
20
4.848074
11
2.687319
21
4.853235
0
LINE
8
annotation
62
1
39
211
10
2.687319
20
4.853235
11
2.741378
21
4.868113
0
LINE
8
annotation
62
1
39
211
10
2.741378
20
4.868113
11
2.791185
21
4.891803
0
LINE
8
annotation
62
1
39
211
10
2.791185
20
4.891803
11
2.835830
21
4.923398
0
LINE
8
annotation
62
1
39
211
10
2.835830
20
4.923398
11
2.874401
21
4.961991
0
LINE
8
annotation
62
1
39
211
10
2.874401
20
4.961991
11
2.905987
21
5.006678
0
LINE
8
annotation
62
1
39
211
10
2.905987
20
5.006678
11
2.929677
21
5.056552
0
LINE
8
annotation
62
1
39
211
10
2.929677
20
5.056552
11
2.944559
21
5.110707
0
LINE
8
annotation
62
1
39
211
10
2.944559
20
5.110707
11
2.949723
21
5.168237
0
LINE
8
annotation
62
1
39
211
10
2.949723
20
5.168237
11
2.949723
21
5.327550
0
LINE
8
annotation
62
1
39
211
10
2.949723
20
5.327550
11
2.949723
21
5.327550
0
LINE
8
annotation
62
1
39
211
10
2.949723
20
5.327550
11
2.944562
21
5.385052
0
LINE
8
annotation
62
1
39
211
10
2.944562
20
5.385052
11
2.929688
21
5.439132
0
LINE
8
annotation
62
1
39
211
10
2.929688
20
5.439132
11
2.906007
21
5.488897
0
LINE
8
annotation
62
1
39
211
10
2.906007
20
5.488897
11
2.874431
21
5.533456
0
LINE
8
annotation
62
1
39
211
10
2.874431
20
5.533456
11
2.835867
21
5.571915
0
LINE
8
annotation
62
1
39
211
10
2.835867
20
5.571915
11
2.791225
21
5.603382
0
LINE
8
annotation
62
1
39
211
10
2.791225
20
5.603382
11
2.741414
21
5.626963
0
LINE
8
annotation
62
1
39
211
10
2.741414
20
5.626963
11
2.687343
21
5.641767
0
LINE
8
annotation
62
1
39
211
10
2.687343
20
5.641767
11
2.629921
21
5.646900
0
LINE
8
annotation
62
1
39
211
10
2.629921
20
5.646900
11
2.310120
21
5.646900
0
LINE
8
annotation
62
1
39
211
10
2.310120
20
5.646900
11
2.310120
21
6.288218
0
LINE
8
annotation
62
1
39
211
10
2.310120
20
6.288218
11
2.949723
21
6.288218
0
LINE
8
hole
62
5
39
2
10
7.193561
20
5.403490
11
7.216061
21
5.403490
0
LINE
8
hole
62
5
39
2
10
7.216061
20
5.403490
11
7.216061
21
5.425990
0
LINE
8
hole
62
5
39
2
10
7.216061
20
5.425990
11
7.193561
21
5.425990
0
LINE
8
hole
62
5
39
2
10
7.193561
20
5.425990
11
7.193561
21
5.403490
0
LINE
8
hole
62
5
39
2
10
4.762201
20
5.403490
11
4.784701
21
5.403490
0
LINE
8
hole
62
5
39
2
10
4.784701
20
5.403490
11
4.784701
21
5.425990
0
LINE
8
hole
62
5
39
2
10
4.784701
20
5.425990
11
4.762201
21
5.425990
0
LINE
8
hole
62
5
39
2
10
4.762201
20
5.425990
11
4.762201
21
5.403490
0
LINE
8
hole
62
5
39
2
10
5.977881
20
4.067210
11
6.000381
21
4.067210
0
LINE
8
hole
62
5
39
2
10
6.000381
20
4.067210
11
6.000381
21
4.089710
0
LINE
8
hole
62
5
39
2
10
6.000381
20
4.089710
11
5.977881
21
4.089710
0
LINE
8
hole
62
5
39
2
10
5.977881
20
4.089710
11
5.977881
21
4.067210
0
LINE
8
hole
62
5
39
2
10
5.977881
20
6.796885
11
6.000381
21
6.796885
0
LINE
8
hole
62
5
39
2
10
6.000381
20
6.796885
11
6.000381
21
6.819385
0
LINE
8
hole
62
5
39
2
10
6.000381
20
6.819385
11
5.977881
21
6.819385
0
LINE
8
hole
62
5
39
2
10
5.977881
20
6.819385
11
5.977881
21
6.796885
0
LINE
8
boundary
62
5
39
2
10
6.589470
20
6.492278
11
5.989131
21
7.123637
0
LINE
8
boundary
62
5
39
2
10
5.989131
20
7.123637
11
5.388793
21
6.492278
0
LINE
8
boundary
62
5
39
2
10
5.388793
20
6.492278
11
4.753063
21
5.823699
0
LINE
8
boundary
62
5
39
2
10
4.753063
20
5.823699
11
4.387500
21
5.439246
0
LINE
8
boundary
62
5
39
2
10
4.387500
20
5.439246
11
4.753063
21
4.708197
0
LINE
8
boundary
62
5
39
2
10
4.753063
20
4.708197
11
5.207413
21
3.799593
0
LINE
8
boundary
62
5
39
2
10
5.207413
20
3.799593
11
5.300544
21
3.799593
0
LINE
8
boundary
62
5
39
2
10
5.300544
20
3.799593
11
6.770850
21
3.799593
0
LINE
8
boundary
62
5
39
2
10
6.770850
20
3.799593
11
7.225199
21
4.708197
0
LINE
8
boundary
62
5
39
2
10
7.225199
20
4.708197
11
7.398018
21
5.053798
0
LINE
8
boundary
62
5
39
2
10
7.398018
20
5.053798
11
7.590763
21
5.439246
0
LINE
8
boundary
62
5
39
2
10
7.590763
20
5.439246
11
7.225199
21
5.823699
0
LINE
8
boundary
62
5
39
2
10
7.225199
20
5.823699
11
6.589470
21
6.492278
0
LINE
8
annotation
62
1
39
211
10
5.189382
20
4.231848
11
5.943543
21
4.231849
0
LINE
8
annotation
62
1
39
211
10
5.943543
20
4.231849
11
6.788880
21
4.231847
0
LINE
8
annotation
62
1
39
211
10
5.989131
20
6.808135
11
5.989131
21
6.864385
0
LINE
8
annotation
62
1
39
211
10
5.989131
20
6.808135
11
5.989131
21
6.864385
0
LINE
8
annotation
62
1
39
211
10
5.989131
20
6.864385
11
5.989131
21
6.808135
0
LINE
8
annotation
62
1
39
211
10
5.989131
20
6.808135
11
6.045381
21
6.808135
0
LINE
8
annotation
62
1
39
211
10
5.989131
20
4.078460
11
5.989131
21
4.022210
0
LINE
8
annotation
62
1
39
211
10
7.204811
20
5.414740
11
7.204811
21
5.470990
0
LINE
8
annotation
62
1
39
211
10
7.204811
20
5.414740
11
7.204811
21
5.470990
0
LINE
8
annotation
62
1
39
211
10
7.204811
20
5.470990
11
7.204811
21
5.414740
0
LINE
8
annotation
62
1
39
211
10
7.204811
20
5.414740
11
7.204811
21
5.358490
0
LINE
8
annotation
62
1
39
211
10
4.773451
20
5.414740
11
4.829701
21
5.414740
0
LINE
8
annotation
62
1
39
211
10
4.773451
20
5.414740
11
4.829701
21
5.414740
0
LINE
8
annotation
62
1
39
211
10
4.829701
20
5.414740
11
4.773451
21
5.414740
0
LINE
8
annotation
62
1
39
211
10
4.773451
20
5.414740
11
4.773451
21
5.358490
0
LINE
8
annotation
62
1
39
211
10
5.667618
20
4.663349
11
5.667618
21
5.740447
0
LINE
8
annotation
62
1
39
211
10
5.667618
20
5.740447
11
5.428165
21
5.500927
0
LINE
8
annotation
62
1
39
211
10
6.190918
20
4.663349
11
6.190918
21
4.663349
0
LINE
8
annotation
62
1
39
211
10
6.190918
20
4.663349
11
6.259317
21
4.688838
0
LINE
8
annotation
62
1
39
211
10
6.259317
20
4.688838
11
6.322099
21
4.723291
0
LINE
8
annotation
62
1
39
211
10
6.322099
20
4.723291
11
6.378615
21
4.765830
0
LINE
8
annotation
62
1
39
211
10
6.378615
20
4.765830
11
6.428216
21
4.815577
0
LINE
8
annotation
62
1
39
211
10
6.428216
20
4.815577
11
6.470254
21
4.871655
0
LINE
8
annotation
62
1
39
211
10
6.470254
20
4.871655
11
6.504079
21
4.933185
0
LINE
8
annotation
62
1
39
211
10
6.504079
20
4.933185
11
6.529043
21
4.999290
0
LINE
8
annotation
62
1
39
211
10
6.529043
20
4.999290
11
6.544498
21
5.069093
0
LINE
8
annotation
62
1
39
211
10
6.544498
20
5.069093
11
6.549793
21
5.141714
0
LINE
8
annotation
62
1
39
211
10
6.549793
20
5.141714
11
6.549793
21
5.500927
0
LINE
8
annotation
62
1
39
211
10
6.549793
20
5.500927
11
6.549793
21
5.500927
0
LINE
8
annotation
62
1
39
211
10
6.549793
20
5.500927
11
6.545943
21
5.543956
0
LINE
8
annotation
62
1
39
211
10
6.545943
20
5.543956
11
6.534840
21
5.584465
0
LINE
8
annotation
62
1
39
211
10
6.534840
20
5.584465
11
6.517158
21
5.621775
0
LINE
8
annotation
62
1
39
211
10
6.517158
20
5.621775
11
6.493571
21
5.655208
0
LINE
8
annotation
62
1
39
211
10
6.493571
20
5.655208
11
6.464751
21
5.684084
0
LINE
8
annotation
62
1
39
211
10
6.464751
20
5.684084
11
6.431372
21
5.707724
0
LINE
8
annotation
62
1
39
211
10
6.431372
20
5.707724
11
6.394106
21
5.725451
0
LINE
8
annotation
62
1
39
211
10
6.394106
20
5.725451
11
6.353628
21
5.736585
0
LINE
8
annotation
62
1
39
211
10
6.353628
20
5.736585
11
6.310611
21
5.740447
0
LINE
8
annotation
62
1
39
211
10
6.310611
20
5.740447
11
6.310611
21
5.740447
0
LINE
8
annotation
62
1
39
211
10
6.310611
20
5.740447
11
6.267682
21
5.736585
0
LINE
8
annotation
62
1
39
211
10
6.267682
20
5.736585
11
6.227252
21
5.725451
0
LINE
8
annotation
62
1
39
211
10
6.227252
20
5.725451
11
6.190000
21
5.707724
0
LINE
8
annotation
62
1
39
211
10
6.190000
20
5.707724
11
6.156610
21
5.684084
0
LINE
8
annotation
62
1
39
211
10
6.156610
20
5.684084
11
6.127762
21
5.655208
0
LINE
8
annotation
62
1
39
211
10
6.127762
20
5.655208
11
6.104138
21
5.621775
0
LINE
8
annotation
62
1
39
211
10
6.104138
20
5.621775
11
6.086421
21
5.584465
0
LINE
8
annotation
62
1
39
211
10
6.086421
20
5.584465
11
6.075290
21
5.543956
0
LINE
8
annotation
62
1
39
211
10
6.075290
20
5.543956
11
6.071428
21
5.500927
0
LINE
8
annotation
62
1
39
211
10
6.071428
20
5.500927
11
6.071428
21
5.381167
0
LINE
8
annotation
62
1
39
211
10
6.071428
20
5.381167
11
6.071428
21
5.381167
0
LINE
8
annotation
62
1
39
211
10
6.071428
20
5.381167
11
6.075290
21
5.338140
0
LINE
8
annotation
62
1
39
211
10
6.075290
20
5.338140
11
6.086421
21
5.297637
0
LINE
8
annotation
62
1
39
211
10
6.086421
20
5.297637
11
6.104138
21
5.260336
0
LINE
8
annotation
62
1
39
211
10
6.104138
20
5.260336
11
6.127762
21
5.226914
0
LINE
8
annotation
62
1
39
211
10
6.127762
20
5.226914
11
6.156610
21
5.198049
0
LINE
8
annotation
62
1
39
211
10
6.156610
20
5.198049
11
6.190000
21
5.174419
0
LINE
8
annotation
62
1
39
211
10
6.190000
20
5.174419
11
6.227252
21
5.156701
0
LINE
8
annotation
62
1
39
211
10
6.227252
20
5.156701
11
6.267682
21
5.145574
0
LINE
8
annotation
62
1
39
211
10
6.267682
20
5.145574
11
6.310611
21
5.141714
0
LINE
8
annotation
62
1
39
211
10
6.310611
20
5.141714
11
6.549793
21
5.141714
0
LINE
8
annotation
62
1
39
211
10
6.041539
20
4.528712
11
6.580088
21
4.528712
0
LINE
8
hole
62
5
39
2
10
2.946432
20
8.508328
11
2.968932
21
8.508328
0
LINE
8
hole
62
5
39
2
10
2.968932
20
8.508328
11
2.968932
21
8.530828
0
LINE
8
hole
62
5
39
2
10
2.968932
20
8.530828
11
2.946432
21
8.530828
0
LINE
8
hole
62
5
39
2
10
2.946432
20
8.530828
11
2.946432
21
8.508328
0
LINE
8
hole
62
5
39
2
10
0.515072
20
8.508328
11
0.537572
21
8.508328
0
LINE
8
hole
62
5
39
2
10
0.537572
20
8.508328
11
0.537572
21
8.530828
0
LINE
8
hole
62
5
39
2
10
0.537572
20
8.530828
11
0.515072
21
8.530828
0
LINE
8
hole
62
5
39
2
10
0.515072
20
8.530828
11
0.515072
21
8.508328
0
LINE
8
hole
62
5
39
2
10
1.740127
20
7.823317
11
1.762627
21
7.823317
0
LINE
8
hole
62
5
39
2
10
1.762627
20
7.823317
11
1.762627
21
7.845817
0
LINE
8
hole
62
5
39
2
10
1.762627
20
7.845817
11
1.740127
21
7.845817
0
LINE
8
hole
62
5
39
2
10
1.740127
20
7.845817
11
1.740127
21
7.823317
0
LINE
8
hole
62
5
39
2
10
1.740127
20
9.530348
11
1.762627
21
9.530348
0
LINE
8
hole
62
5
39
2
10
1.762627
20
9.530348
11
1.762627
21
9.552848
0
LINE
8
hole
62
5
39
2
10
1.762627
20
9.552848
11
1.740127
21
9.552848
0
LINE
8
hole
62
5
39
2
10
1.740127
20
9.552848
11
1.740127
21
9.530348
0
LINE
8
boundary
62
5
39
2
10
2.220211
20
9.481586
11
1.742002
21
9.984505
0
LINE
8
boundary
62
5
39
2
10
1.742002
20
9.984505
11
1.263793
21
9.481586
0
LINE
8
boundary
62
5
39
2
10
1.263793
20
9.481586
11
0.505934
21
8.684568
0
LINE
8
boundary
62
5
39
2
10
0.505934
20
8.684568
11
0.262500
21
8.428555
0
LINE
8
boundary
62
5
39
2
10
0.262500
20
8.428555
11
0.505934
21
7.941738
0
LINE
8
boundary
62
5
39
2
10
0.505934
20
7.941738
11
0.808492
21
7.336686
0
LINE
8
boundary
62
5
39
2
10
0.808492
20
7.336686
11
1.696414
21
7.336686
0
LINE
8
boundary
62
5
39
2
10
1.696414
20
7.336686
11
2.675512
21
7.336686
0
LINE
8
boundary
62
5
39
2
10
2.675512
20
7.336686
11
2.978070
21
7.941738
0
LINE
8
boundary
62
5
39
2
10
2.978070
20
7.941738
11
3.093153
21
8.171880
0
LINE
8
boundary
62
5
39
2
10
3.093153
20
8.171880
11
3.221504
21
8.428555
0
LINE
8
boundary
62
5
39
2
10
3.221504
20
8.428555
11
2.978070
21
8.684568
0
LINE
8
boundary
62
5
39
2
10
2.978070
20
8.684568
11
2.220211
21
9.481586
0
LINE
8
annotation
62
1
39
211
10
0.790462
20
7.768941
11
2.339412
21
7.768942
0
LINE
8
annotation
62
1
39
211
10
2.339412
20
7.768942
11
2.693542
21
7.768940
0
LINE
8
annotation
62
1
39
211
10
2.957682
20
8.519578
11
2.957682
21
8.575828
0
LINE
8
annotation
62
1
39
211
10
2.957682
20
8.519578
11
2.957682
21
8.575828
0
LINE
8
annotation
62
1
39
211
10
2.957682
20
8.575828
11
2.957682
21
8.519578
0
LINE
8
annotation
62
1
39
211
10
2.957682
20
8.519578
11
2.957682
21
8.463328
0
LINE
8
annotation
62
1
39
211
10
0.526322
20
8.519578
11
0.582572
21
8.519578
0
LINE
8
annotation
62
1
39
211
10
0.526322
20
8.519578
11
0.582572
21
8.519578
0
LINE
8
annotation
62
1
39
211
10
0.582572
20
8.519578
11
0.526322
21
8.519578
0
LINE
8
annotation
62
1
39
211
10
0.526322
20
8.519578
11
0.526322
21
8.463328
0
LINE
8
annotation
62
1
39
211
10
1.751377
20
9.541598
11
1.751377
21
9.597848
0
LINE
8
annotation
62
1
39
211
10
1.751377
20
7.834567
11
1.807627
21
7.834567
0
LINE
8
annotation
62
1
39
211
10
1.556574
20
8.195240
11
1.225372
21
8.195240
0
LINE
8
annotation
62
1
39
211
10
1.225372
20
8.195240
11
1.531414
21
8.687928
0
LINE
8
annotation
62
1
39
211
10
1.531414
20
8.687928
11
1.531414
21
8.687928
0
LINE
8
annotation
62
1
39
211
10
1.531414
20
8.687928
11
1.531780
21
8.688381
0
LINE
8
annotation
62
1
39
211
10
1.531780
20
8.688381
11
1.532130
21
8.688838
0
LINE
8
annotation
62
1
39
211
10
1.532130
20
8.688838
11
1.532469
21
8.689302
0
LINE
8
annotation
62
1
39
211
10
1.532469
20
8.689302
11
1.532796
21
8.689778
0
LINE
8
annotation
62
1
39
211
10
1.532796
20
8.689778
11
1.533116
21
8.690269
0
LINE
8
annotation
62
1
39
211
10
1.533116
20
8.690269
11
1.533430
21
8.690779
0
LINE
8
annotation
62
1
39
211
10
1.533430
20
8.690779
11
1.533740
21
8.691313
0
LINE
8
annotation
62
1
39
211
10
1.533740
20
8.691313
11
1.534050
21
8.691873
0
LINE
8
annotation
62
1
39
211
10
1.534050
20
8.691873
11
1.534360
21
8.692465
0
LINE
8
annotation
62
1
39
211
10
1.534360
20
8.692465
11
1.534360
21
8.692465
0
LINE
8
annotation
62
1
39
211
10
1.534360
20
8.692465
11
1.546996
21
8.719596
0
LINE
8
annotation
62
1
39
211
10
1.546996
20
8.719596
11
1.554378
21
8.747720
0
LINE
8
annotation
62
1
39
211
10
1.554378
20
8.747720
11
1.556687
21
8.776201
0
LINE
8
annotation
62
1
39
211
10
1.556687
20
8.776201
11
1.554103
21
8.804404
0
LINE
8
annotation
62
1
39
211
10
1.554103
20
8.804404
11
1.546807
21
8.831694
0
LINE
8
annotation
62
1
39
211
10
1.546807
20
8.831694
11
1.534980
21
8.857434
0
LINE
8
annotation
62
1
39
211
10
1.534980
20
8.857434
11
1.518803
21
8.880989
0
LINE
8
annotation
62
1
39
211
10
1.518803
20
8.880989
11
1.498458
21
8.901724
0
LINE
8
annotation
62
1
39
211
10
1.498458
20
8.901724
11
1.474124
21
8.919003
0
LINE
8
annotation
62
1
39
211
10
1.474124
20
8.919003
11
1.474124
21
8.919003
0
LINE
8
annotation
62
1
39
211
10
1.474124
20
8.919003
11
1.446917
21
8.931460
0
LINE
8
annotation
62
1
39
211
10
1.446917
20
8.931460
11
1.418750
21
8.938728
0
LINE
8
annotation
62
1
39
211
10
1.418750
20
8.938728
11
1.390252
21
8.940971
0
LINE
8
annotation
62
1
39
211
10
1.390252
20
8.940971
11
1.362054
21
8.938353
0
LINE
8
annotation
62
1
39
211
10
1.362054
20
8.938353
11
1.334784
21
8.931037
0
LINE
8
annotation
62
1
39
211
10
1.334784
20
8.931037
11
1.309072
21
8.919187
0
LINE
8
annotation
62
1
39
211
10
1.309072
20
8.919187
11
1.285549
21
8.902966
0
LINE
8
annotation
62
1
39
211
10
1.285549
20
8.902966
11
1.264844
21
8.882537
0
LINE
8
annotation
62
1
39
211
10
1.264844
20
8.882537
11
1.247586
21
8.858066
0
LINE
8
annotation
62
1
39
211
10
1.247586
20
8.858066
11
1.225839
21
8.816350
0
LINE
8
annotation
62
1
39
211
10
1.956071
20
8.205083
11
1.956071
21
8.205083
0
LINE
8
annotation
62
1
39
211
10
1.956071
20
8.205083
11
1.973403
21
8.198603
0
LINE
8
annotation
62
1
39
211
10
1.973403
20
8.198603
11
1.991178
21
8.195384
0
LINE
8
annotation
62
1
39
211
10
1.991178
20
8.195384
11
2.008995
21
8.195294
0
LINE
8
annotation
62
1
39
211
10
2.008995
20
8.195294
11
2.026452
21
8.198202
0
LINE
8
annotation
62
1
39
211
10
2.026452
20
8.198202
11
2.043146
21
8.203976
0
LINE
8
annotation
62
1
39
211
10
2.043146
20
8.203976
11
2.058677
21
8.212486
0
LINE
8
annotation
62
1
39
211
10
2.058677
20
8.212486
11
2.072642
21
8.223599
0
LINE
8
annotation
62
1
39
211
10
2.072642
20
8.223599
11
2.084639
21
8.237185
0
LINE
8
annotation
62
1
39
211
10
2.084639
20
8.237185
11
2.094266
21
8.253112
0
LINE
8
annotation
62
1
39
211
10
2.094266
20
8.253112
11
2.094266
21
8.253112
0
LINE
8
annotation
62
1
39
211
10
2.094266
20
8.253112
11
2.122992
21
8.320351
0
LINE
8
annotation
62
1
39
211
10
2.122992
20
8.320351
11
2.144536
21
8.389535
0
LINE
8
annotation
62
1
39
211
10
2.144536
20
8.389535
11
2.158898
21
8.460114
0
LINE
8
annotation
62
1
39
211
10
2.158898
20
8.460114
11
2.166080
21
8.531536
0
LINE
8
annotation
62
1
39
211
10
2.166080
20
8.531536
11
2.166080
21
8.603250
0
LINE
8
annotation
62
1
39
211
10
2.166080
20
8.603250
11
2.158898
21
8.674703
0
LINE
8
annotation
62
1
39
211
10
2.158898
20
8.674703
11
2.144536
21
8.745344
0
LINE
8
annotation
62
1
39
211
10
2.144536
20
8.745344
11
2.122992
21
8.814622
0
LINE
8
annotation
62
1
39
211
10
2.122992
20
8.814622
11
2.094266
21
8.881985
0
LINE
8
annotation
62
1
39
211
10
2.094266
20
8.881985
11
2.094266
21
8.881985
0
LINE
8
annotation
62
1
39
211
10
2.094266
20
8.881985
11
2.090613
21
8.888784
0
LINE
8
annotation
62
1
39
211
10
2.090613
20
8.888784
11
2.086472
21
8.895283
0
LINE
8
annotation
62
1
39
211
10
2.086472
20
8.895283
11
2.081873
21
8.901452
0
LINE
8
annotation
62
1
39
211
10
2.081873
20
8.901452
11
2.076848
21
8.907259
0
LINE
8
annotation
62
1
39
211
10
2.076848
20
8.907259
11
2.071429
21
8.912671
0
LINE
8
annotation
62
1
39
211
10
2.071429
20
8.912671
11
2.065645
21
8.917656
0
LINE
8
annotation
62
1
39
211
10
2.065645
20
8.917656
11
2.059529
21
8.922183
0
LINE
8
annotation
62
1
39
211
10
2.059529
20
8.922183
11
2.053112
21
8.926220
0
LINE
8
annotation
62
1
39
211
10
2.053112
20
8.926220
11
2.046424
21
8.929734
0
LINE
8
annotation
62
1
39
211
10
2.046424
20
8.929734
11
2.046424
21
8.929734
0
LINE
8
annotation
62
1
39
211
10
2.046424
20
8.929734
11
2.028954
21
8.936354
0
LINE
8
annotation
62
1
39
211
10
2.028954
20
8.936354
11
2.011075
21
8.939683
0
LINE
8
annotation
62
1
39
211
10
2.011075
20
8.939683
11
1.993183
21
8.939853
0
LINE
8
annotation
62
1
39
211
10
1.993183
20
8.939853
11
1.975675
21
8.936997
0
LINE
8
annotation
62
1
39
211
10
1.975675
20
8.936997
11
1.958949
21
8.931246
0
LINE
8
annotation
62
1
39
211
10
1.958949
20
8.931246
11
1.943402
21
8.922733
0
LINE
8
annotation
62
1
39
211
10
1.943402
20
8.922733
11
1.929431
21
8.911589
0
LINE
8
annotation
62
1
39
211
10
1.929431
20
8.911589
11
1.917434
21
8.897947
0
LINE
8
annotation
62
1
39
211
10
1.917434
20
8.897947
11
1.907807
21
8.881939
0
LINE
8
annotation
62
1
39
211
10
1.907807
20
8.881939
11
1.907807
21
8.881939
0
LINE
8
annotation
62
1
39
211
10
1.907807
20
8.881939
11
1.879221
21
8.814714
0
LINE
8
annotation
62
1
39
211
10
1.879221
20
8.814714
11
1.857781
21
8.745540
0
LINE
8
annotation
62
1
39
211
10
1.857781
20
8.745540
11
1.843487
21
8.674968
0
LINE
8
annotation
62
1
39
211
10
1.843487
20
8.674968
11
1.836341
21
8.603549
0
LINE
8
annotation
62
1
39
211
10
1.836341
20
8.603549
11
1.836341
21
8.531836
0
LINE
8
annotation
62
1
39
211
10
1.836341
20
8.531836
11
1.843487
21
8.460379
0
LINE
8
annotation
62
1
39
211
10
1.843487
20
8.460379
11
1.857781
21
8.389731
0
LINE
8
annotation
62
1
39
211
10
1.857781
20
8.389731
11
1.879221
21
8.320442
0
LINE
8
annotation
62
1
39
211
10
1.879221
20
8.320442
11
1.907807
21
8.253065
0
LINE
8
annotation
62
1
39
211
10
1.907807
20
8.253065
11
1.907807
21
8.253065
0
LINE
8
annotation
62
1
39
211
10
1.907807
20
8.253065
11
1.911447
21
8.246280
0
LINE
8
annotation
62
1
39
211
10
1.911447
20
8.246280
11
1.915558
21
8.239813
0
LINE
8
annotation
62
1
39
211
10
1.915558
20
8.239813
11
1.920122
21
8.233683
0
LINE
8
annotation
62
1
39
211
10
1.920122
20
8.233683
11
1.925124
21
8.227910
0
LINE
8
annotation
62
1
39
211
10
1.925124
20
8.227910
11
1.930544
21
8.222513
0
LINE
8
annotation
62
1
39
211
10
1.930544
20
8.222513
11
1.936366
21
8.217512
0
LINE
8
annotation
62
1
39
211
10
1.936366
20
8.217512
11
1.942573
21
8.212927
0
LINE
8
annotation
62
1
39
211
10
1.942573
20
8.212927
11
1.949147
21
8.208777
0
LINE
8
annotation
62
1
39
211
10
1.949147
20
8.208777
11
1.956071
21
8.205083
0
LINE
8
hole
62
5
39
2
10
0.849350
20
10.520526
11
0.871850
21
10.520526
0
LINE
8
hole
62
5
39
2
10
0.871850
20
10.520526
11
0.871850
21
10.543026
0
LINE
8
hole
62
5
39
2
10
0.871850
20
10.543026
11
0.849350
21
10.543026
0
LINE
8
hole
62
5
39
2
10
0.849350
20
10.543026
11
0.849350
21
10.520526
0
LINE
8
hole
62
5
39
2
10
0.849350
20
10.163880
11
0.871850
21
10.163880
0
LINE
8
hole
62
5
39
2
10
0.871850
20
10.163880
11
0.871850
21
10.186380
0
LINE
8
hole
62
5
39
2
10
0.871850
20
10.186380
11
0.849350
21
10.186380
0
LINE
8
hole
62
5
39
2
10
0.849350
20
10.186380
11
0.849350
21
10.163880
0
LINE
8
boundary
62
5
39
2
10
0.963045
20
10.611052
11
0.851225
21
10.728651
0
LINE
8
boundary
62
5
39
2
10
0.851225
20
10.728651
11
0.739404
21
10.611052
0
LINE
8
boundary
62
5
39
2
10
0.739404
20
10.611052
11
0.262500
21
10.109505
0
LINE
8
boundary
62
5
39
2
10
0.262500
20
10.109505
11
1.439950
21
10.109505
0
LINE
8
boundary
62
5
39
2
10
1.439950
20
10.109505
11
0.963045
21
10.611052
0
LINE
8
annotation
62
1
39
211
10
0.860600
20
10.531776
11
0.860600
21
10.588026
0
LINE
8
annotation
62
1
39
211
10
0.860600
20
10.531776
11
0.860600
21
10.588026
0
LINE
8
annotation
62
1
39
211
10
0.860600
20
10.588026
11
0.860600
21
10.531776
0
LINE
8
annotation
62
1
39
211
10
0.860600
20
10.531776
11
0.860600
21
10.475526
0
LINE
8
annotation
62
1
39
211
10
0.860600
20
10.175130
11
0.916850
21
10.175130
0
LINE
8
annotation
62
1
39
211
10
0.860600
20
10.175130
11
0.916850
21
10.175130
0
LINE
8
annotation
62
1
39
211
10
0.916850
20
10.175130
11
0.860600
21
10.175130
0
LINE
8
annotation
62
1
39
211
10
0.860600
20
10.175130
11
0.860600
21
10.118880
0
LINE
8
annotation
62
1
39
211
10
0.837809
20
10.260694
11
0.762499
21
10.260694
0
LINE
8
annotation
62
1
39
211
10
0.762499
20
10.260694
11
0.832088
21
10.372723
0
LINE
8
annotation
62
1
39
211
10
0.832088
20
10.372723
11
0.832088
21
10.372723
0
LINE
8
annotation
62
1
39
211
10
0.832088
20
10.372723
11
0.832171
21
10.372826
0
LINE
8
annotation
62
1
39
211
10
0.832171
20
10.372826
11
0.832251
21
10.372930
0
LINE
8
annotation
62
1
39
211
10
0.832251
20
10.372930
11
0.832327
21
10.373035
0
LINE
8
annotation
62
1
39
211
10
0.832327
20
10.373035
11
0.832402
21
10.373143
0
LINE
8
annotation
62
1
39
211
10
0.832402
20
10.373143
11
0.832475
21
10.373255
0
LINE
8
annotation
62
1
39
211
10
0.832475
20
10.373255
11
0.832546
21
10.373371
0
LINE
8
annotation
62
1
39
211
10
0.832546
20
10.373371
11
0.832617
21
10.373492
0
LINE
8
annotation
62
1
39
211
10
0.832617
20
10.373492
11
0.832687
21
10.373620
0
LINE
8
annotation
62
1
39
211
10
0.832687
20
10.373620
11
0.832758
21
10.373754
0
LINE
8
annotation
62
1
39
211
10
0.832758
20
10.373754
11
0.832758
21
10.373754
0
LINE
8
annotation
62
1
39
211
10
0.832758
20
10.373754
11
0.835631
21
10.379924
0
LINE
8
annotation
62
1
39
211
10
0.835631
20
10.379924
11
0.837309
21
10.386319
0
LINE
8
annotation
62
1
39
211
10
0.837309
20
10.386319
11
0.837834
21
10.392795
0
LINE
8
annotation
62
1
39
211
10
0.837834
20
10.392795
11
0.837247
21
10.399208
0
LINE
8
annotation
62
1
39
211
10
0.837247
20
10.399208
11
0.835588
21
10.405413
0
LINE
8
annotation
62
1
39
211
10
0.835588
20
10.405413
11
0.832899
21
10.411266
0
LINE
8
annotation
62
1
39
211
10
0.832899
20
10.411266
11
0.829220
21
10.416622
0
LINE
8
annotation
62
1
39
211
10
0.829220
20
10.416622
11
0.824594
21
10.421336
0
LINE
8
annotation
62
1
39
211
10
0.824594
20
10.421336
11
0.819061
21
10.425265
0
LINE
8
annotation
62
1
39
211
10
0.819061
20
10.425265
11
0.819061
21
10.425265
0
LINE
8
annotation
62
1
39
211
10
0.819061
20
10.425265
11
0.812875
21
10.428098
0
LINE
8
annotation
62
1
39
211
10
0.812875
20
10.428098
11
0.806470
21
10.429751
0
LINE
8
annotation
62
1
39
211
10
0.806470
20
10.429751
11
0.799990
21
10.430261
0
LINE
8
annotation
62
1
39
211
10
0.799990
20
10.430261
11
0.793578
21
10.429665
0
LINE
8
annotation
62
1
39
211
10
0.793578
20
10.429665
11
0.787377
21
10.428002
0
LINE
8
annotation
62
1
39
211
10
0.787377
20
10.428002
11
0.781531
21
10.425307
0
LINE
8
annotation
62
1
39
211
10
0.781531
20
10.425307
11
0.776182
21
10.421619
0
LINE
8
annotation
62
1
39
211
10
0.776182
20
10.421619
11
0.771474
21
10.416974
0
LINE
8
annotation
62
1
39
211
10
0.771474
20
10.416974
11
0.767550
21
10.411409
0
LINE
8
annotation
62
1
39
211
10
0.767550
20
10.411409
11
0.762605
21
10.401924
0
LINE
8
annotation
62
1
39
211
10
0.901410
20
10.260700
11
0.939065
21
10.260700
0
LINE
8
annotation
62
1
39
211
10
0.939065
20
10.260700
11
0.939065
21
10.260700
0
LINE
8
annotation
62
1
39
211
10
0.939065
20
10.260700
11
0.945837
21
10.261308
0
LINE
8
annotation
62
1
39
211
10
0.945837
20
10.261308
11
0.952210
21
10.263059
0
LINE
8
annotation
62
1
39
211
10
0.952210
20
10.263059
11
0.958077
21
10.265846
0
LINE
8
annotation
62
1
39
211
10
0.958077
20
10.265846
11
0.963332
21
10.269561
0
LINE
8
annotation
62
1
39
211
10
0.963332
20
10.269561
11
0.967869
21
10.274097
0
LINE
8
annotation
62
1
39
211
10
0.967869
20
10.274097
11
0.971582
21
10.279347
0
LINE
8
annotation
62
1
39
211
10
0.971582
20
10.279347
11
0.974366
21
10.285203
0
LINE
8
annotation
62
1
39
211
10
0.974366
20
10.285203
11
0.976114
21
10.291557
0
LINE
8
annotation
62
1
39
211
10
0.976114
20
10.291557
11
0.976720
21
10.298302
0
LINE
8
annotation
62
1
39
211
10
0.976720
20
10.298302
11
0.976720
21
10.317156
0
LINE
8
annotation
62
1
39
211
10
0.976720
20
10.317156
11
0.976720
21
10.317156
0
LINE
8
annotation
62
1
39
211
10
0.976720
20
10.317156
11
0.976114
21
10.323899
0
LINE
8
annotation
62
1
39
211
10
0.976114
20
10.323899
11
0.974366
21
10.330252
0
LINE
8
annotation
62
1
39
211
10
0.974366
20
10.330252
11
0.971582
21
10.336107
0
LINE
8
annotation
62
1
39
211
10
0.971582
20
10.336107
11
0.967869
21
10.341357
0
LINE
8
annotation
62
1
39
211
10
0.967869
20
10.341357
11
0.963332
21
10.345894
0
LINE
8
annotation
62
1
39
211
10
0.963332
20
10.345894
11
0.958077
21
10.349610
0
LINE
8
annotation
62
1
39
211
10
0.958077
20
10.349610
11
0.952210
21
10.352398
0
LINE
8
annotation
62
1
39
211
10
0.952210
20
10.352398
11
0.945837
21
10.354150
0
LINE
8
annotation
62
1
39
211
10
0.945837
20
10.354150
11
0.939065
21
10.354758
0
LINE
8
annotation
62
1
39
211
10
0.939065
20
10.354758
11
0.920211
21
10.354758
0
LINE
8
annotation
62
1
39
211
10
0.920211
20
10.354758
11
0.939065
21
10.354758
0
LINE
8
annotation
62
1
39
211
10
0.939065
20
10.354758
11
0.939065
21
10.354758
0
LINE
8
annotation
62
1
39
211
10
0.939065
20
10.354758
11
0.945837
21
10.355366
0
LINE
8
annotation
62
1
39
211
10
0.945837
20
10.355366
11
0.952210
21
10.357119
0
LINE
8
annotation
62
1
39
211
10
0.952210
20
10.357119
11
0.958077
21
10.359910
0
LINE
8
annotation
62
1
39
211
10
0.958077
20
10.359910
11
0.963332
21
10.363632
0
LINE
8
annotation
62
1
39
211
10
0.963332
20
10.363632
11
0.967869
21
10.368178
0
LINE
8
annotation
62
1
39
211
10
0.967869
20
10.368178
11
0.971582
21
10.373441
0
LINE
8
annotation
62
1
39
211
10
0.971582
20
10.373441
11
0.974366
21
10.379315
0
LINE
8
annotation
62
1
39
211
10
0.974366
20
10.379315
11
0.976114
21
10.385692
0
LINE
8
annotation
62
1
39
211
10
0.976114
20
10.385692
11
0.976720
21
10.392466
0
LINE
8
annotation
62
1
39
211
10
0.976720
20
10.392466
11
0.976720
21
10.392466
0
LINE
8
annotation
62
1
39
211
10
0.976720
20
10.392466
11
0.976114
21
10.399209
0
LINE
8
annotation
62
1
39
211
10
0.976114
20
10.399209
11
0.974366
21
10.405562
0
LINE
8
annotation
62
1
39
211
10
0.974366
20
10.405562
11
0.971582
21
10.411417
0
LINE
8
annotation
62
1
39
211
10
0.971582
20
10.411417
11
0.967869
21
10.416667
0
LINE
8
annotation
62
1
39
211
10
0.967869
20
10.416667
11
0.963332
21
10.421204
0
LINE
8
annotation
62
1
39
211
10
0.963332
20
10.421204
11
0.958077
21
10.424920
0
LINE
8
annotation
62
1
39
211
10
0.958077
20
10.424920
11
0.952210
21
10.427708
0
LINE
8
annotation
62
1
39
211
10
0.952210
20
10.427708
11
0.945837
21
10.429460
0
LINE
8
annotation
62
1
39
211
10
0.945837
20
10.429460
11
0.939065
21
10.430068
0
LINE
8
annotation
62
1
39
211
10
0.939065
20
10.430068
11
0.901410
21
10.430068
0
LINE
8
hole
62
5
39
2
10
4.753691
20
9.404172
11
4.776191
21
9.404172
0
LINE
8
hole
62
5
39
2
10
4.776191
20
9.404172
11
4.776191
21
9.426672
0
LINE
8
hole
62
5
39
2
10
4.776191
20
9.426672
11
4.753691
21
9.426672
0
LINE
8
hole
62
5
39
2
10
4.753691
20
9.426672
11
4.753691
21
9.404172
0
LINE
8
hole
62
5
39
2
10
5.569590
20
8.600574
11
5.592090
21
8.600574
0
LINE
8
hole
62
5
39
2
10
5.592090
20
8.600574
11
5.592090
21
8.623074
0
LINE
8
hole
62
5
39
2
10
5.592090
20
8.623074
11
5.569590
21
8.623074
0
LINE
8
hole
62
5
39
2
10
5.569590
20
8.623074
11
5.569590
21
8.600574
0
LINE
8
hole
62
5
39
2
10
4.753691
20
7.556407
11
4.776191
21
7.556407
0
LINE
8
hole
62
5
39
2
10
4.776191
20
7.556407
11
4.776191
21
7.578907
0
LINE
8
hole
62
5
39
2
10
4.776191
20
7.578907
11
4.753691
21
7.578907
0
LINE
8
hole
62
5
39
2
10
4.753691
20
7.578907
11
4.753691
21
7.556407
0
LINE
8
hole
62
5
39
2
10
3.937792
20
8.600574
11
3.960292
21
8.600574
0
LINE
8
hole
62
5
39
2
10
3.960292
20
8.600574
11
3.960292
21
8.623074
0
LINE
8
hole
62
5
39
2
10
3.960292
20
8.623074
11
3.937792
21
8.623074
0
LINE
8
hole
62
5
39
2
10
3.937792
20
8.623074
11
3.937792
21
8.600574
0
LINE
8
boundary
62
5
39
2
10
3.528873
20
9.193117
11
3.442658
21
9.020706
0
LINE
8
boundary
62
5
39
2
10
3.442658
20
9.020706
11
3.346504
21
8.828417
0
LINE
8
boundary
62
5
39
2
10
3.346504
20
8.828417
11
4.115817
21
8.019352
0
LINE
8
boundary
62
5
39
2
10
4.115817
20
8.019352
11
4.764941
21
7.336686
0
LINE
8
boundary
62
5
39
2
10
4.764941
20
7.336686
11
5.414065
21
8.019352
0
LINE
8
boundary
62
5
39
2
10
5.414065
20
8.019352
11
6.183378
21
8.828417
0
LINE
8
boundary
62
5
39
2
10
6.183378
20
8.828417
11
6.087223
21
9.020706
0
LINE
8
boundary
62
5
39
2
10
6.087223
20
9.020706
11
5.774347
21
9.646393
0
LINE
8
boundary
62
5
39
2
10
5.774347
20
9.646393
11
5.040853
21
9.646393
0
LINE
8
boundary
62
5
39
2
10
5.040853
20
9.646393
11
4.246483
21
9.646393
0
LINE
8
boundary
62
5
39
2
10
4.246483
20
9.646393
11
3.755535
21
9.646393
0
LINE
8
boundary
62
5
39
2
10
3.755535
20
9.646393
11
3.528873
21
9.193117
0
LINE
8
annotation
62
1
39
211
10
5.580840
20
8.611824
11
5.580840
21
8.668074
0
LINE
8
annotation
62
1
39
211
10
5.580840
20
8.611824
11
5.580840
21
8.668074
0
LINE
8
annotation
62
1
39
211
10
5.580840
20
8.668074
11
5.580840
21
8.611824
0
LINE
8
annotation
62
1
39
211
10
5.580840
20
8.611824
11
5.637090
21
8.611824
0
LINE
8
annotation
62
1
39
211
10
3.949042
20
8.611824
11
3.949042
21
8.555574
0
LINE
8
annotation
62
1
39
211
10
4.764941
20
9.415422
11
4.764941
21
9.471672
0
LINE
8
annotation
62
1
39
211
10
4.764941
20
9.415422
11
4.764941
21
9.471672
0
LINE
8
annotation
62
1
39
211
10
4.764941
20
9.471672
11
4.764941
21
9.415422
0
LINE
8
annotation
62
1
39
211
10
4.764941
20
9.415422
11
4.764941
21
9.359172
0
LINE
8
annotation
62
1
39
211
10
4.764941
20
7.567657
11
4.821191
21
7.567657
0
LINE
8
annotation
62
1
39
211
10
4.764941
20
7.567657
11
4.821191
21
7.567657
0
LINE
8
annotation
62
1
39
211
10
4.821191
20
7.567657
11
4.764941
21
7.567657
0
LINE
8
annotation
62
1
39
211
10
4.764941
20
7.567657
11
4.764941
21
7.511407
0
LINE
8
annotation
62
1
39
211
10
5.092703
20
8.473900
11
4.525584
21
8.473900
0
LINE
8
annotation
62
1
39
211
10
4.525584
20
8.473900
11
4.752073
21
9.268212
0
LINE
8
annotation
62
1
39
211
10
4.922708
20
8.246835
11
4.922708
21
8.700453
0
LINE
8
hole
62
5
39
2
10
4.245478
20
10.621675
11
4.267978
21
10.621675
0
LINE
8
hole
62
5
39
2
10
4.267978
20
10.621675
11
4.267978
21
10.644175
0
LINE
8
hole
62
5
39
2
10
4.267978
20
10.644175
11
4.245478
21
10.644175
0
LINE
8
hole
62
5
39
2
10
4.245478
20
10.644175
11
4.245478
21
10.621675
0
LINE
8
hole
62
5
39
2
10
4.254853
20
9.958994
11
4.277353
21
9.958994
0
LINE
8
hole
62
5
39
2
10
4.277353
20
9.958994
11
4.277353
21
9.981494
0
LINE
8
hole
62
5
39
2
10
4.277353
20
9.981494
11
4.254853
21
9.981494
0
LINE
8
hole
62
5
39
2
10
4.254853
20
9.981494
11
4.254853
21
9.958994
0
LINE
8
boundary
62
5
39
2
10
3.346504
20
10.728651
11
4.256728
21
9.771393
0
LINE
8
boundary
62
5
39
2
10
4.256728
20
9.771393
11
5.166953
21
10.728651
0
LINE
8
boundary
62
5
39
2
10
5.166953
20
10.728651
11
4.041853
21
10.728651
0
LINE
8
boundary
62
5
39
2
10
4.041853
20
10.728651
11
3.346504
21
10.728651
0
LINE
8
annotation
62
1
39
211
10
4.256728
20
10.632925
11
4.256728
21
10.689175
0
LINE
8
annotation
62
1
39
211
10
4.266103
20
9.970244
11
4.322353
21
9.970244
0
LINE
8
annotation
62
1
39
211
10
4.315559
20
10.167180
11
4.140904
21
10.167180
0
LINE
8
annotation
62
1
39
211
10
4.140904
20
10.167180
11
4.302291
21
10.426992
0
LINE
8
annotation
62
1
39
211
10
4.302291
20
10.426992
11
4.302291
21
10.426992
0
LINE
8
annotation
62
1
39
211
10
4.302291
20
10.426992
11
4.302484
21
10.427230
0
LINE
8
annotation
62
1
39
211
10
4.302484
20
10.427230
11
4.302669
21
10.427471
0
LINE
8
annotation
62
1
39
211
10
4.302669
20
10.427471
11
4.302847
21
10.427716
0
LINE
8
annotation
62
1
39
211
10
4.302847
20
10.427716
11
4.303020
21
10.427967
0
LINE
8
annotation
62
1
39
211
10
4.303020
20
10.427967
11
4.303189
21
10.428226
0
LINE
8
annotation
62
1
39
211
10
4.303189
20
10.428226
11
4.303354
21
10.428495
0
LINE
8
annotation
62
1
39
211
10
4.303354
20
10.428495
11
4.303518
21
10.428776
0
LINE
8
annotation
62
1
39
211
10
4.303518
20
10.428776
11
4.303681
21
10.429072
0
LINE
8
annotation
62
1
39
211
10
4.303681
20
10.429072
11
4.303845
21
10.429384
0
LINE
8
annotation
62
1
39
211
10
4.303845
20
10.429384
11
4.303845
21
10.429384
0
LINE
8
annotation
62
1
39
211
10
4.303845
20
10.429384
11
4.310508
21
10.443691
0
LINE
8
annotation
62
1
39
211
10
4.310508
20
10.443691
11
4.314401
21
10.458522
0
LINE
8
annotation
62
1
39
211
10
4.314401
20
10.458522
11
4.315618
21
10.473541
0
LINE
8
annotation
62
1
39
211
10
4.315618
20
10.473541
11
4.314256
21
10.488413
0
LINE
8
annotation
62
1
39
211
10
4.314256
20
10.488413
11
4.310408
21
10.502804
0
LINE
8
annotation
62
1
39
211
10
4.310408
20
10.502804
11
4.304172
21
10.516378
0
LINE
8
annotation
62
1
39
211
10
4.304172
20
10.516378
11
4.295641
21
10.528799
0
LINE
8
annotation
62
1
39
211
10
4.295641
20
10.528799
11
4.284912
21
10.539733
0
LINE
8
annotation
62
1
39
211
10
4.284912
20
10.539733
11
4.272080
21
10.548845
0
LINE
8
annotation
62
1
39
211
10
4.272080
20
10.548845
11
4.272080
21
10.548845
0
LINE
8
annotation
62
1
39
211
10
4.272080
20
10.548845
11
4.257733
21
10.555414
0
LINE
8
annotation
62
1
39
211
10
4.257733
20
10.555414
11
4.242880
21
10.559247
0
LINE
8
annotation
62
1
39
211
10
4.242880
20
10.559247
11
4.227852
21
10.560430
0
LINE
8
annotation
62
1
39
211
10
4.227852
20
10.560430
11
4.212982
21
10.559049
0
LINE
8
annotation
62
1
39
211
10
4.212982
20
10.559049
11
4.198601
21
10.555191
0
LINE
8
annotation
62
1
39
211
10
4.198601
20
10.555191
11
4.185043
21
10.548942
0
LINE
8
annotation
62
1
39
211
10
4.185043
20
10.548942
11
4.172638
21
10.540388
0
LINE
8
annotation
62
1
39
211
10
4.172638
20
10.540388
11
4.161719
21
10.529616
0
LINE
8
annotation
62
1
39
211
10
4.161719
20
10.529616
11
4.152619
21
10.516711
0
LINE
8
annotation
62
1
39
211
10
4.152619
20
10.516711
11
4.141151
21
10.494713
0
LINE
8
frame
62
5
39
2
10
0.000000
20
0.000000
11
8.500000
21
0.000000
0
LINE
8
frame
62
5
39
2
10
8.500000
20
0.000000
11
8.500000
21
11.000000
0
LINE
8
frame
62
5
39
2
10
8.500000
20
11.000000
11
0.000000
21
11.000000
0
LINE
8
frame
62
5
39
2
10
0.000000
20
11.000000
11
0.000000
21
0.000000
0
ENDSEC
0
EOF
