0
SECTION
2
HEADER
9
$ACADVER
1
AC1009
0
ENDSEC
0
SECTION
2
TABLES
0
TABLE
2
VPORT
70
1
0
VPORT
2
ACTIVE
70
0
10
0.0
20
0.0
11
0.0
21
0.0
12
0.0
22
0.0
13
0.0
23
0.0
14
0.0
24
0.0
15
0.0
25
0.0
16
0.0
26
0.0
36
0.0
17
0.0
27
0.0
37
0.0
40
0.0
41
0.0
42
0.0
43
0.0
44
0.0
50
0.0
51
0.0
71
0
72
1000
73
1
74
3
75
0
76
0
77
0
78
0
0
ENDTAB
0
ENDSEC
0
SECTION
2
ENTITIES
0
LINE
8
hole
62
5
39
2
10
3.851250
20
1.944053
11
3.873750
21
1.944053
0
LINE
8
hole
62
5
39
2
10
3.873750
20
1.944053
11
3.873750
21
1.966553
0
LINE
8
hole
62
5
39
2
10
3.873750
20
1.966553
11
3.851250
21
1.966553
0
LINE
8
hole
62
5
39
2
10
3.851250
20
1.966553
11
3.851250
21
1.944053
0
LINE
8
hole
62
5
39
2
10
0.651250
20
1.944053
11
0.673750
21
1.944053
0
LINE
8
hole
62
5
39
2
10
0.673750
20
1.944053
11
0.673750
21
1.966553
0
LINE
8
hole
62
5
39
2
10
0.673750
20
1.966553
11
0.651250
21
1.966553
0
LINE
8
hole
62
5
39
2
10
0.651250
20
1.966553
11
0.651250
21
1.944053
0
LINE
8
hole
62
5
39
2
10
2.251250
20
3.322134
11
2.273750
21
3.322134
0
LINE
8
hole
62
5
39
2
10
2.273750
20
3.322134
11
2.273750
21
3.344634
0
LINE
8
hole
62
5
39
2
10
2.273750
20
3.344634
11
2.251250
21
3.344634
0
LINE
8
hole
62
5
39
2
10
2.251250
20
3.344634
11
2.251250
21
3.322134
0
LINE
8
hole
62
5
39
2
10
2.251250
20
0.592459
11
2.273750
21
0.592459
0
LINE
8
hole
62
5
39
2
10
2.273750
20
0.592459
11
2.273750
21
0.614959
0
LINE
8
hole
62
5
39
2
10
2.273750
20
0.614959
11
2.251250
21
0.614959
0
LINE
8
hole
62
5
39
2
10
2.251250
20
0.614959
11
2.251250
21
0.592459
0
LINE
8
boundary
62
5
39
2
10
1.026432
20
3.236464
11
0.593799
21
2.371290
0
LINE
8
boundary
62
5
39
2
10
0.593799
20
2.371290
11
0.262500
21
1.708760
0
LINE
8
boundary
62
5
39
2
10
0.262500
20
1.708760
11
0.749173
21
0.735517
0
LINE
8
boundary
62
5
39
2
10
0.749173
20
0.735517
11
1.198949
21
0.262500
0
LINE
8
boundary
62
5
39
2
10
1.198949
20
0.262500
11
3.326051
21
0.262500
0
LINE
8
boundary
62
5
39
2
10
3.326051
20
0.262500
11
3.775827
21
0.735517
0
LINE
8
boundary
62
5
39
2
10
3.775827
20
0.735517
11
4.191014
21
1.565804
0
LINE
8
boundary
62
5
39
2
10
4.191014
20
1.565804
11
4.262500
21
1.708760
0
LINE
8
boundary
62
5
39
2
10
4.262500
20
1.708760
11
3.931201
21
2.371290
0
LINE
8
boundary
62
5
39
2
10
3.931201
20
2.371290
11
3.561704
21
3.110206
0
LINE
8
boundary
62
5
39
2
10
3.561704
20
3.110206
11
3.279480
21
3.674593
0
LINE
8
boundary
62
5
39
2
10
3.279480
20
3.674593
11
1.954503
21
3.674593
0
LINE
8
boundary
62
5
39
2
10
1.954503
20
3.674593
11
1.245520
21
3.674593
0
LINE
8
boundary
62
5
39
2
10
1.245520
20
3.674593
11
1.026432
21
3.236464
0
LINE
8
annotation
62
1
39
211
10
3.862500
20
1.955303
11
3.862500
21
2.011553
0
LINE
8
annotation
62
1
39
211
10
3.862500
20
1.955303
11
3.862500
21
2.011553
0
LINE
8
annotation
62
1
39
211
10
3.862500
20
2.011553
11
3.862500
21
1.955303
0
LINE
8
annotation
62
1
39
211
10
3.862500
20
1.955303
11
3.918750
21
1.955303
0
LINE
8
annotation
62
1
39
211
10
0.662500
20
1.955303
11
0.662500
21
1.899053
0
LINE
8
annotation
62
1
39
211
10
2.262500
20
3.333384
11
2.262500
21
3.389634
0
LINE
8
annotation
62
1
39
211
10
2.262500
20
3.333384
11
2.262500
21
3.389634
0
LINE
8
annotation
62
1
39
211
10
2.262500
20
3.389634
11
2.262500
21
3.333384
0
LINE
8
annotation
62
1
39
211
10
2.262500
20
3.333384
11
2.262500
21
3.277134
0
LINE
8
annotation
62
1
39
211
10
2.262500
20
0.603709
11
2.318750
21
0.603709
0
LINE
8
annotation
62
1
39
211
10
2.262500
20
0.603709
11
2.318750
21
0.603709
0
LINE
8
annotation
62
1
39
211
10
2.318750
20
0.603709
11
2.262500
21
0.603709
0
LINE
8
annotation
62
1
39
211
10
2.262500
20
0.603709
11
2.262500
21
0.547459
0
LINE
8
annotation
62
1
39
211
10
1.853690
20
1.113961
11
1.853690
21
2.698120
0
LINE
8
annotation
62
1
39
211
10
1.853690
20
2.698120
11
1.501511
21
2.345842
0
LINE
8
annotation
62
1
39
211
10
2.702158
20
1.134857
11
2.702158
21
1.134857
0
LINE
8
annotation
62
1
39
211
10
2.702158
20
1.134857
11
2.738976
21
1.121093
0
LINE
8
annotation
62
1
39
211
10
2.738976
20
1.121093
11
2.776735
21
1.114255
0
LINE
8
annotation
62
1
39
211
10
2.776735
20
1.114255
11
2.814583
21
1.114064
0
LINE
8
annotation
62
1
39
211
10
2.814583
20
1.114064
11
2.851666
21
1.120241
0
LINE
8
annotation
62
1
39
211
10
2.851666
20
1.120241
11
2.887130
21
1.132507
0
LINE
8
annotation
62
1
39
211
10
2.887130
20
1.132507
11
2.920121
21
1.150583
0
LINE
8
annotation
62
1
39
211
10
2.920121
20
1.150583
11
2.949786
21
1.174190
0
LINE
8
annotation
62
1
39
211
10
2.949786
20
1.174190
11
2.975271
21
1.203050
0
LINE
8
annotation
62
1
39
211
10
2.975271
20
1.203050
11
2.995723
21
1.236884
0
LINE
8
annotation
62
1
39
211
10
2.995723
20
1.236884
11
2.995723
21
1.236884
0
LINE
8
annotation
62
1
39
211
10
2.995723
20
1.236884
11
3.056743
21
1.379717
0
LINE
8
annotation
62
1
39
211
10
3.056743
20
1.379717
11
3.102508
21
1.526683
0
LINE
8
annotation
62
1
39
211
10
3.102508
20
1.526683
11
3.133018
21
1.676612
0
LINE
8
annotation
62
1
39
211
10
3.133018
20
1.676612
11
3.148273
21
1.828331
0
LINE
8
annotation
62
1
39
211
10
3.148273
20
1.828331
11
3.148273
21
1.980670
0
LINE
8
annotation
62
1
39
211
10
3.148273
20
1.980670
11
3.133018
21
2.132455
0
LINE
8
annotation
62
1
39
211
10
3.133018
20
2.132455
11
3.102508
21
2.282517
0
LINE
8
annotation
62
1
39
211
10
3.102508
20
2.282517
11
3.056743
21
2.429682
0
LINE
8
annotation
62
1
39
211
10
3.056743
20
2.429682
11
2.995723
21
2.572779
0
LINE
8
annotation
62
1
39
211
10
2.995723
20
2.572779
11
2.995723
21
2.572779
0
LINE
8
annotation
62
1
39
211
10
2.995723
20
2.572779
11
2.987963
21
2.587221
0
LINE
8
annotation
62
1
39
211
10
2.987963
20
2.587221
11
2.979165
21
2.601028
0
LINE
8
annotation
62
1
39
211
10
2.979165
20
2.601028
11
2.969396
21
2.614132
0
LINE
8
annotation
62
1
39
211
10
2.969396
20
2.614132
11
2.958722
21
2.626467
0
LINE
8
annotation
62
1
39
211
10
2.958722
20
2.626467
11
2.947209
21
2.637963
0
LINE
8
annotation
62
1
39
211
10
2.947209
20
2.637963
11
2.934924
21
2.648554
0
LINE
8
annotation
62
1
39
211
10
2.934924
20
2.648554
11
2.921931
21
2.658170
0
LINE
8
annotation
62
1
39
211
10
2.921931
20
2.658170
11
2.908299
21
2.666745
0
LINE
8
annotation
62
1
39
211
10
2.908299
20
2.666745
11
2.894093
21
2.674210
0
LINE
8
annotation
62
1
39
211
10
2.894093
20
2.674210
11
2.894093
21
2.674210
0
LINE
8
annotation
62
1
39
211
10
2.894093
20
2.674210
11
2.856983
21
2.688272
0
LINE
8
annotation
62
1
39
211
10
2.856983
20
2.688272
11
2.819002
21
2.695344
0
LINE
8
annotation
62
1
39
211
10
2.819002
20
2.695344
11
2.780994
21
2.695706
0
LINE
8
annotation
62
1
39
211
10
2.780994
20
2.695706
11
2.743803
21
2.689639
0
LINE
8
annotation
62
1
39
211
10
2.743803
20
2.689639
11
2.708272
21
2.677422
0
LINE
8
annotation
62
1
39
211
10
2.708272
20
2.677422
11
2.675246
21
2.659338
0
LINE
8
annotation
62
1
39
211
10
2.675246
20
2.659338
11
2.645569
21
2.635666
0
LINE
8
annotation
62
1
39
211
10
2.645569
20
2.635666
11
2.620083
21
2.606686
0
LINE
8
annotation
62
1
39
211
10
2.620083
20
2.606686
11
2.599634
21
2.572680
0
LINE
8
annotation
62
1
39
211
10
2.599634
20
2.572680
11
2.599634
21
2.572680
0
LINE
8
annotation
62
1
39
211
10
2.599634
20
2.572680
11
2.538908
21
2.429877
0
LINE
8
annotation
62
1
39
211
10
2.538908
20
2.429877
11
2.493364
21
2.282932
0
LINE
8
annotation
62
1
39
211
10
2.493364
20
2.282932
11
2.463001
21
2.133018
0
LINE
8
annotation
62
1
39
211
10
2.463001
20
2.133018
11
2.447819
21
1.981306
0
LINE
8
annotation
62
1
39
211
10
2.447819
20
1.981306
11
2.447819
21
1.828968
0
LINE
8
annotation
62
1
39
211
10
2.447819
20
1.828968
11
2.463001
21
1.677175
0
LINE
8
annotation
62
1
39
211
10
2.463001
20
1.677175
11
2.493364
21
1.527099
0
LINE
8
annotation
62
1
39
211
10
2.493364
20
1.527099
11
2.538908
21
1.379912
0
LINE
8
annotation
62
1
39
211
10
2.538908
20
1.379912
11
2.599634
21
1.236785
0
LINE
8
annotation
62
1
39
211
10
2.599634
20
1.236785
11
2.599634
21
1.236785
0
LINE
8
annotation
62
1
39
211
10
2.599634
20
1.236785
11
2.607365
21
1.222372
0
LINE
8
annotation
62
1
39
211
10
2.607365
20
1.222372
11
2.616098
21
1.208634
0
LINE
8
annotation
62
1
39
211
10
2.616098
20
1.208634
11
2.625795
21
1.195612
0
LINE
8
annotation
62
1
39
211
10
2.625795
20
1.195612
11
2.636418
21
1.183348
0
LINE
8
annotation
62
1
39
211
10
2.636418
20
1.183348
11
2.647933
21
1.171883
0
LINE
8
annotation
62
1
39
211
10
2.647933
20
1.171883
11
2.660300
21
1.161260
0
LINE
8
annotation
62
1
39
211
10
2.660300
20
1.161260
11
2.673485
21
1.151521
0
LINE
8
annotation
62
1
39
211
10
2.673485
20
1.151521
11
2.687450
21
1.142705
0
LINE
8
annotation
62
1
39
211
10
2.687450
20
1.142705
11
2.702158
21
1.134857
0
LINE
8
hole
62
5
39
2
10
5.672558
20
1.356751
11
5.695058
21
1.356751
0
LINE
8
hole
62
5
39
2
10
5.695058
20
1.356751
11
5.695058
21
1.379251
0
LINE
8
hole
62
5
39
2
10
5.695058
20
1.379251
11
5.672558
21
1.379251
0
LINE
8
hole
62
5
39
2
10
5.672558
20
1.379251
11
5.672558
21
1.356751
0
LINE
8
hole
62
5
39
2
10
6.488457
20
1.282418
11
6.510957
21
1.282418
0
LINE
8
hole
62
5
39
2
10
6.510957
20
1.282418
11
6.510957
21
1.304918
0
LINE
8
hole
62
5
39
2
10
6.510957
20
1.304918
11
6.488457
21
1.304918
0
LINE
8
hole
62
5
39
2
10
6.488457
20
1.304918
11
6.488457
21
1.282418
0
LINE
8
hole
62
5
39
2
10
5.681933
20
0.694070
11
5.704433
21
0.694070
0
LINE
8
hole
62
5
39
2
10
5.704433
20
0.694070
11
5.704433
21
0.716570
0
LINE
8
hole
62
5
39
2
10
5.704433
20
0.716570
11
5.681933
21
0.716570
0
LINE
8
hole
62
5
39
2
10
5.681933
20
0.716570
11
5.681933
21
0.694070
0
LINE
8
hole
62
5
39
2
10
4.856658
20
1.282418
11
4.879158
21
1.282418
0
LINE
8
hole
62
5
39
2
10
4.879158
20
1.282418
11
4.879158
21
1.304918
0
LINE
8
hole
62
5
39
2
10
4.879158
20
1.304918
11
4.856658
21
1.304918
0
LINE
8
hole
62
5
39
2
10
4.856658
20
1.304918
11
4.856658
21
1.282418
0
LINE
8
boundary
62
5
39
2
10
4.447740
20
1.746257
11
4.419262
21
1.689307
0
LINE
8
boundary
62
5
39
2
10
4.419262
20
1.689307
11
4.387500
21
1.625790
0
LINE
8
boundary
62
5
39
2
10
4.387500
20
1.625790
11
4.641618
21
1.358542
0
LINE
8
boundary
62
5
39
2
10
4.641618
20
1.358542
11
5.683808
21
0.262500
0
LINE
8
boundary
62
5
39
2
10
5.683808
20
0.262500
11
6.725998
21
1.358542
0
LINE
8
boundary
62
5
39
2
10
6.725998
20
1.358542
11
6.980115
21
1.625790
0
LINE
8
boundary
62
5
39
2
10
6.980115
20
1.625790
11
6.948354
21
1.689307
0
LINE
8
boundary
62
5
39
2
10
6.948354
20
1.689307
11
6.845005
21
1.895982
0
LINE
8
boundary
62
5
39
2
10
6.845005
20
1.895982
11
6.602720
21
1.895982
0
LINE
8
boundary
62
5
39
2
10
6.602720
20
1.895982
11
5.317141
21
1.895982
0
LINE
8
boundary
62
5
39
2
10
5.317141
20
1.895982
11
4.522610
21
1.895982
0
LINE
8
boundary
62
5
39
2
10
4.522610
20
1.895982
11
4.447740
21
1.746257
0
LINE
8
annotation
62
1
39
211
10
5.683808
20
1.368001
11
5.683808
21
1.424251
0
LINE
8
annotation
62
1
39
211
10
5.693183
20
0.705320
11
5.749433
21
0.705320
0
LINE
8
annotation
62
1
39
211
10
6.499707
20
1.293668
11
6.499707
21
1.349918
0
LINE
8
annotation
62
1
39
211
10
6.499707
20
1.293668
11
6.499707
21
1.349918
0
LINE
8
annotation
62
1
39
211
10
6.499707
20
1.349918
11
6.499707
21
1.293668
0
LINE
8
annotation
62
1
39
211
10
6.499707
20
1.293668
11
6.555957
21
1.293668
0
LINE
8
annotation
62
1
39
211
10
4.867908
20
1.293668
11
4.867908
21
1.237418
0
LINE
8
annotation
62
1
39
211
10
5.477376
20
0.867945
11
5.643200
21
0.867945
0
LINE
8
annotation
62
1
39
211
10
5.643200
20
0.867945
11
5.643200
21
0.867945
0
LINE
8
annotation
62
1
39
211
10
5.643200
20
0.867945
11
5.673024
21
0.870621
0
LINE
8
annotation
62
1
39
211
10
5.673024
20
0.870621
11
5.701088
21
0.878331
0
LINE
8
annotation
62
1
39
211
10
5.701088
20
0.878331
11
5.726923
21
0.890604
0
LINE
8
annotation
62
1
39
211
10
5.726923
20
0.890604
11
5.750065
21
0.906965
0
LINE
8
annotation
62
1
39
211
10
5.750065
20
0.906965
11
5.770046
21
0.926942
0
LINE
8
annotation
62
1
39
211
10
5.770046
20
0.926942
11
5.786399
21
0.950060
0
LINE
8
annotation
62
1
39
211
10
5.786399
20
0.950060
11
5.798658
21
0.975848
0
LINE
8
annotation
62
1
39
211
10
5.798658
20
0.975848
11
5.806355
21
1.003830
0
LINE
8
annotation
62
1
39
211
10
5.806355
20
1.003830
11
5.809025
21
1.033535
0
LINE
8
annotation
62
1
39
211
10
5.809025
20
1.033535
11
5.809025
21
1.116565
0
LINE
8
annotation
62
1
39
211
10
5.809025
20
1.116565
11
5.809025
21
1.116565
0
LINE
8
annotation
62
1
39
211
10
5.809025
20
1.116565
11
5.806355
21
1.146257
0
LINE
8
annotation
62
1
39
211
10
5.806355
20
1.146257
11
5.798658
21
1.174233
0
LINE
8
annotation
62
1
39
211
10
5.798658
20
1.174233
11
5.786399
21
1.200019
0
LINE
8
annotation
62
1
39
211
10
5.786399
20
1.200019
11
5.770046
21
1.223139
0
LINE
8
annotation
62
1
39
211
10
5.770046
20
1.223139
11
5.750065
21
1.243119
0
LINE
8
annotation
62
1
39
211
10
5.750065
20
1.243119
11
5.726923
21
1.259486
0
LINE
8
annotation
62
1
39
211
10
5.726923
20
1.259486
11
5.701088
21
1.271763
0
LINE
8
annotation
62
1
39
211
10
5.701088
20
1.271763
11
5.673024
21
1.279478
0
LINE
8
annotation
62
1
39
211
10
5.673024
20
1.279478
11
5.643200
21
1.282155
0
LINE
8
annotation
62
1
39
211
10
5.643200
20
1.282155
11
5.560171
21
1.282155
0
LINE
8
annotation
62
1
39
211
10
5.560171
20
1.282155
11
5.643200
21
1.282155
0
LINE
8
annotation
62
1
39
211
10
5.643200
20
1.282155
11
5.643200
21
1.282155
0
LINE
8
annotation
62
1
39
211
10
5.643200
20
1.282155
11
5.673024
21
1.284832
0
LINE
8
annotation
62
1
39
211
10
5.673024
20
1.284832
11
5.701088
21
1.292551
0
LINE
8
annotation
62
1
39
211
10
5.701088
20
1.292551
11
5.726923
21
1.304841
0
LINE
8
annotation
62
1
39
211
10
5.726923
20
1.304841
11
5.750065
21
1.321231
0
LINE
8
annotation
62
1
39
211
10
5.750065
20
1.321231
11
5.770046
21
1.341251
0
LINE
8
annotation
62
1
39
211
10
5.770046
20
1.341251
11
5.786399
21
1.364429
0
LINE
8
annotation
62
1
39
211
10
5.786399
20
1.364429
11
5.798658
21
1.390296
0
LINE
8
annotation
62
1
39
211
10
5.798658
20
1.390296
11
5.806355
21
1.418381
0
LINE
8
annotation
62
1
39
211
10
5.806355
20
1.418381
11
5.809025
21
1.448213
0
LINE
8
annotation
62
1
39
211
10
5.809025
20
1.448213
11
5.809025
21
1.448213
0
LINE
8
annotation
62
1
39
211
10
5.809025
20
1.448213
11
5.806355
21
1.477906
0
LINE
8
annotation
62
1
39
211
10
5.806355
20
1.477906
11
5.798658
21
1.505882
0
LINE
8
annotation
62
1
39
211
10
5.798658
20
1.505882
11
5.786399
21
1.531667
0
LINE
8
annotation
62
1
39
211
10
5.786399
20
1.531667
11
5.770046
21
1.554788
0
LINE
8
annotation
62
1
39
211
10
5.770046
20
1.554788
11
5.750065
21
1.574768
0
LINE
8
annotation
62
1
39
211
10
5.750065
20
1.574768
11
5.726923
21
1.591134
0
LINE
8
annotation
62
1
39
211
10
5.726923
20
1.591134
11
5.701088
21
1.603412
0
LINE
8
annotation
62
1
39
211
10
5.701088
20
1.603412
11
5.673024
21
1.611126
0
LINE
8
annotation
62
1
39
211
10
5.673024
20
1.611126
11
5.643200
21
1.613803
0
LINE
8
annotation
62
1
39
211
10
5.643200
20
1.613803
11
5.477376
21
1.613803
0
LINE
8
hole
62
5
39
2
10
2.251250
20
6.845983
11
2.273750
21
6.845983
0
LINE
8
hole
62
5
39
2
10
2.273750
20
6.845983
11
2.273750
21
6.868483
0
LINE
8
hole
62
5
39
2
10
2.273750
20
6.868483
11
2.251250
21
6.868483
0
LINE
8
hole
62
5
39
2
10
2.251250
20
6.868483
11
2.251250
21
6.845983
0
LINE
8
hole
62
5
39
2
10
3.851250
20
5.494390
11
3.873750
21
5.494390
0
LINE
8
hole
62
5
39
2
10
3.873750
20
5.494390
11
3.873750
21
5.516890
0
LINE
8
hole
62
5
39
2
10
3.873750
20
5.516890
11
3.851250
21
5.516890
0
LINE
8
hole
62
5
39
2
10
3.851250
20
5.516890
11
3.851250
21
5.494390
0
LINE
8
hole
62
5
39
2
10
0.651250
20
5.494390
11
0.673750
21
5.494390
0
LINE
8
hole
62
5
39
2
10
0.673750
20
5.494390
11
0.673750
21
5.516890
0
LINE
8
hole
62
5
39
2
10
0.673750
20
5.516890
11
0.651250
21
5.516890
0
LINE
8
hole
62
5
39
2
10
0.651250
20
5.516890
11
0.651250
21
5.494390
0
LINE
8
hole
62
5
39
2
10
2.251250
20
4.116309
11
2.273750
21
4.116309
0
LINE
8
hole
62
5
39
2
10
2.273750
20
4.116309
11
2.273750
21
4.138809
0
LINE
8
hole
62
5
39
2
10
2.273750
20
4.138809
11
2.251250
21
4.138809
0
LINE
8
hole
62
5
39
2
10
2.251250
20
4.138809
11
2.251250
21
4.116309
0
LINE
8
boundary
62
5
39
2
10
1.026432
20
6.889017
11
0.536063
21
5.908383
0
LINE
8
boundary
62
5
39
2
10
0.536063
20
5.908383
11
0.262500
21
5.361314
0
LINE
8
boundary
62
5
39
2
10
0.262500
20
5.361314
11
0.981710
21
3.923044
0
LINE
8
boundary
62
5
39
2
10
0.981710
20
3.923044
11
1.026432
21
3.833611
0
LINE
8
boundary
62
5
39
2
10
1.026432
20
3.833611
11
1.043443
21
3.799593
0
LINE
8
boundary
62
5
39
2
10
1.043443
20
3.799593
11
3.426510
21
3.799593
0
LINE
8
boundary
62
5
39
2
10
3.426510
20
3.799593
11
3.481557
21
3.799593
0
LINE
8
boundary
62
5
39
2
10
3.481557
20
3.799593
11
3.498568
21
3.833611
0
LINE
8
boundary
62
5
39
2
10
3.498568
20
3.833611
11
4.133278
21
5.102897
0
LINE
8
boundary
62
5
39
2
10
4.133278
20
5.102897
11
4.262500
21
5.361314
0
LINE
8
boundary
62
5
39
2
10
4.262500
20
5.361314
11
3.988937
21
5.908383
0
LINE
8
boundary
62
5
39
2
10
3.988937
20
5.908383
11
3.683833
21
6.518526
0
LINE
8
boundary
62
5
39
2
10
3.683833
20
6.518526
11
3.337217
21
7.211686
0
LINE
8
boundary
62
5
39
2
10
3.337217
20
7.211686
11
1.709928
21
7.211686
0
LINE
8
boundary
62
5
39
2
10
1.709928
20
7.211686
11
1.187783
21
7.211686
0
LINE
8
boundary
62
5
39
2
10
1.187783
20
7.211686
11
1.026432
21
6.889017
0
LINE
8
annotation
62
1
39
211
10
2.262500
20
6.857233
11
2.262500
21
6.913483
0
LINE
8
annotation
62
1
39
211
10
2.262500
20
6.857233
11
2.262500
21
6.913483
0
LINE
8
annotation
62
1
39
211
10
2.262500
20
6.913483
11
2.262500
21
6.857233
0
LINE
8
annotation
62
1
39
211
10
2.262500
20
6.857233
11
2.262500
21
6.800983
0
LINE
8
annotation
62
1
39
211
10
2.262500
20
4.127559
11
2.318750
21
4.127559
0
LINE
8
annotation
62
1
39
211
10
2.262500
20
4.127559
11
2.318750
21
4.127559
0
LINE
8
annotation
62
1
39
211
10
2.318750
20
4.127559
11
2.262500
21
4.127559
0
LINE
8
annotation
62
1
39
211
10
2.262500
20
4.127559
11
2.262500
21
4.071309
0
LINE
8
annotation
62
1
39
211
10
3.862500
20
5.505640
11
3.862500
21
5.561890
0
LINE
8
annotation
62
1
39
211
10
0.662500
20
5.505640
11
0.718750
21
5.505640
0
LINE
8
annotation
62
1
39
211
10
1.973795
20
4.507040
11
1.973795
21
6.379227
0
LINE
8
annotation
62
1
39
211
10
1.973795
20
6.379227
11
1.557584
21
5.962899
0
LINE
8
annotation
62
1
39
211
10
3.092076
20
4.507040
11
3.092076
21
6.379227
0
LINE
8
annotation
62
1
39
211
10
3.092076
20
6.379227
11
2.675865
21
5.962899
0
LINE
8
hole
62
5
39
2
10
6.535309
20
4.499747
11
6.557809
21
4.499747
0
LINE
8
hole
62
5
39
2
10
6.557809
20
4.499747
11
6.557809
21
4.522247
0
LINE
8
hole
62
5
39
2
10
6.557809
20
4.522247
11
6.535309
21
4.522247
0
LINE
8
hole
62
5
39
2
10
6.535309
20
4.522247
11
6.535309
21
4.499747
0
LINE
8
hole
62
5
39
2
10
5.742997
20
3.853968
11
5.765497
21
3.853968
0
LINE
8
hole
62
5
39
2
10
5.765497
20
3.853968
11
5.765497
21
3.876468
0
LINE
8
hole
62
5
39
2
10
5.765497
20
3.876468
11
5.742997
21
3.876468
0
LINE
8
hole
62
5
39
2
10
5.742997
20
3.876468
11
5.742997
21
3.853968
0
LINE
8
hole
62
5
39
2
10
5.742997
20
5.561000
11
5.765497
21
5.561000
0
LINE
8
hole
62
5
39
2
10
5.765497
20
5.561000
11
5.765497
21
5.583500
0
LINE
8
hole
62
5
39
2
10
5.765497
20
5.583500
11
5.742997
21
5.583500
0
LINE
8
hole
62
5
39
2
10
5.742997
20
5.583500
11
5.742997
21
5.561000
0
LINE
8
hole
62
5
39
2
10
4.931936
20
4.499747
11
4.954436
21
4.499747
0
LINE
8
hole
62
5
39
2
10
4.954436
20
4.499747
11
4.954436
21
4.522247
0
LINE
8
hole
62
5
39
2
10
4.954436
20
4.522247
11
4.931936
21
4.522247
0
LINE
8
hole
62
5
39
2
10
4.931936
20
4.522247
11
4.931936
21
4.499747
0
LINE
8
boundary
62
5
39
2
10
6.100952
20
5.396709
11
5.744872
21
5.771187
0
LINE
8
boundary
62
5
39
2
10
5.744872
20
5.771187
11
5.388793
21
5.396709
0
LINE
8
boundary
62
5
39
2
10
5.388793
20
5.396709
11
4.508804
21
4.471250
0
LINE
8
boundary
62
5
39
2
10
4.508804
20
4.471250
11
4.387500
21
4.343677
0
LINE
8
boundary
62
5
39
2
10
4.387500
20
4.343677
11
4.508804
21
4.101094
0
LINE
8
boundary
62
5
39
2
10
4.508804
20
4.101094
11
4.659571
21
3.799593
0
LINE
8
boundary
62
5
39
2
10
4.659571
20
3.799593
11
6.342284
21
3.799593
0
LINE
8
boundary
62
5
39
2
10
6.342284
20
3.799593
11
6.830174
21
3.799593
0
LINE
8
boundary
62
5
39
2
10
6.830174
20
3.799593
11
6.980940
21
4.101094
0
LINE
8
boundary
62
5
39
2
10
6.980940
20
4.101094
11
7.038287
21
4.215774
0
LINE
8
boundary
62
5
39
2
10
7.038287
20
4.215774
11
7.102245
21
4.343677
0
LINE
8
boundary
62
5
39
2
10
7.102245
20
4.343677
11
6.980940
21
4.471250
0
LINE
8
boundary
62
5
39
2
10
6.980940
20
4.471250
11
6.100952
21
5.396709
0
LINE
8
annotation
62
1
39
211
10
4.641540
20
4.231849
11
6.848205
21
4.231848
0
LINE
8
annotation
62
1
39
211
10
5.754247
20
5.572250
11
5.754247
21
5.628500
0
LINE
8
annotation
62
1
39
211
10
5.754247
20
3.865218
11
5.810497
21
3.865218
0
LINE
8
annotation
62
1
39
211
10
6.546559
20
4.510997
11
6.546559
21
4.567247
0
LINE
8
annotation
62
1
39
211
10
6.546559
20
4.510997
11
6.546559
21
4.567247
0
LINE
8
annotation
62
1
39
211
10
6.546559
20
4.567247
11
6.546559
21
4.510997
0
LINE
8
annotation
62
1
39
211
10
6.546559
20
4.510997
11
6.602809
21
4.510997
0
LINE
8
annotation
62
1
39
211
10
4.943186
20
4.510997
11
4.943186
21
4.454747
0
LINE
8
annotation
62
1
39
211
10
5.734804
20
4.061494
11
5.430942
21
4.061494
0
LINE
8
annotation
62
1
39
211
10
5.430942
20
4.061494
11
5.711720
21
4.513512
0
LINE
8
annotation
62
1
39
211
10
5.711720
20
4.513512
11
5.711720
21
4.513512
0
LINE
8
annotation
62
1
39
211
10
5.711720
20
4.513512
11
5.712056
21
4.513927
0
LINE
8
annotation
62
1
39
211
10
5.712056
20
4.513927
11
5.712378
21
4.514346
0
LINE
8
annotation
62
1
39
211
10
5.712378
20
4.514346
11
5.712688
21
4.514772
0
LINE
8
annotation
62
1
39
211
10
5.712688
20
4.514772
11
5.712989
21
4.515208
0
LINE
8
annotation
62
1
39
211
10
5.712989
20
4.515208
11
5.713282
21
4.515659
0
LINE
8
annotation
62
1
39
211
10
5.713282
20
4.515659
11
5.713570
21
4.516127
0
LINE
8
annotation
62
1
39
211
10
5.713570
20
4.516127
11
5.713855
21
4.516617
0
LINE
8
annotation
62
1
39
211
10
5.713855
20
4.516617
11
5.714139
21
4.517131
0
LINE
8
annotation
62
1
39
211
10
5.714139
20
4.517131
11
5.714424
21
4.517673
0
LINE
8
annotation
62
1
39
211
10
5.714424
20
4.517673
11
5.714424
21
4.517673
0
LINE
8
annotation
62
1
39
211
10
5.714424
20
4.517673
11
5.726017
21
4.542565
0
LINE
8
annotation
62
1
39
211
10
5.726017
20
4.542565
11
5.732789
21
4.568368
0
LINE
8
annotation
62
1
39
211
10
5.732789
20
4.568368
11
5.734907
21
4.594498
0
LINE
8
annotation
62
1
39
211
10
5.734907
20
4.594498
11
5.732536
21
4.620373
0
LINE
8
annotation
62
1
39
211
10
5.732536
20
4.620373
11
5.725843
21
4.645410
0
LINE
8
annotation
62
1
39
211
10
5.725843
20
4.645410
11
5.714992
21
4.669025
0
LINE
8
annotation
62
1
39
211
10
5.714992
20
4.669025
11
5.700151
21
4.690636
0
LINE
8
annotation
62
1
39
211
10
5.700151
20
4.690636
11
5.681485
21
4.709659
0
LINE
8
annotation
62
1
39
211
10
5.681485
20
4.709659
11
5.659160
21
4.725512
0
LINE
8
annotation
62
1
39
211
10
5.659160
20
4.725512
11
5.659160
21
4.725512
0
LINE
8
annotation
62
1
39
211
10
5.659160
20
4.725512
11
5.634199
21
4.736940
0
LINE
8
annotation
62
1
39
211
10
5.634199
20
4.736940
11
5.608357
21
4.743609
0
LINE
8
annotation
62
1
39
211
10
5.608357
20
4.743609
11
5.582212
21
4.745667
0
LINE
8
annotation
62
1
39
211
10
5.582212
20
4.745667
11
5.556341
21
4.743264
0
LINE
8
annotation
62
1
39
211
10
5.556341
20
4.743264
11
5.531322
21
4.736552
0
LINE
8
annotation
62
1
39
211
10
5.531322
20
4.736552
11
5.507733
21
4.725680
0
LINE
8
annotation
62
1
39
211
10
5.507733
20
4.725680
11
5.486151
21
4.710798
0
LINE
8
annotation
62
1
39
211
10
5.486151
20
4.710798
11
5.467155
21
4.692056
0
LINE
8
annotation
62
1
39
211
10
5.467155
20
4.692056
11
5.451322
21
4.669605
0
LINE
8
annotation
62
1
39
211
10
5.451322
20
4.669605
11
5.431371
21
4.631332
0
LINE
8
annotation
62
1
39
211
10
6.143549
20
4.061499
11
6.143549
21
4.745683
0
LINE
8
annotation
62
1
39
211
10
6.143549
20
4.745683
11
5.991446
21
4.593537
0
LINE
8
hole
62
5
39
2
10
6.409661
20
6.164086
11
6.432161
21
6.164086
0
LINE
8
hole
62
5
39
2
10
6.432161
20
6.164086
11
6.432161
21
6.186586
0
LINE
8
hole
62
5
39
2
10
6.432161
20
6.186586
11
6.409661
21
6.186586
0
LINE
8
hole
62
5
39
2
10
6.409661
20
6.186586
11
6.409661
21
6.164086
0
LINE
8
hole
62
5
39
2
10
5.617349
20
6.739463
11
5.639849
21
6.739463
0
LINE
8
hole
62
5
39
2
10
5.639849
20
6.739463
11
5.639849
21
6.761963
0
LINE
8
hole
62
5
39
2
10
5.639849
20
6.761963
11
5.617349
21
6.761963
0
LINE
8
hole
62
5
39
2
10
5.617349
20
6.761963
11
5.617349
21
6.739463
0
LINE
8
hole
62
5
39
2
10
4.806288
20
6.164086
11
4.828788
21
6.164086
0
LINE
8
hole
62
5
39
2
10
4.828788
20
6.164086
11
4.828788
21
6.186586
0
LINE
8
hole
62
5
39
2
10
4.828788
20
6.186586
11
4.806288
21
6.186586
0
LINE
8
hole
62
5
39
2
10
4.806288
20
6.186586
11
4.806288
21
6.164086
0
LINE
8
hole
62
5
39
2
10
5.617349
20
6.382818
11
5.639849
21
6.382818
0
LINE
8
hole
62
5
39
2
10
5.639849
20
6.382818
11
5.639849
21
6.405318
0
LINE
8
hole
62
5
39
2
10
5.639849
20
6.405318
11
5.617349
21
6.405318
0
LINE
8
hole
62
5
39
2
10
5.617349
20
6.405318
11
5.617349
21
6.382818
0
LINE
8
boundary
62
5
39
2
10
5.853174
20
6.945518
11
5.619224
21
7.191557
0
LINE
8
boundary
62
5
39
2
10
5.619224
20
7.191557
11
5.385274
21
6.945518
0
LINE
8
boundary
62
5
39
2
10
5.385274
20
6.945518
11
4.387500
21
5.896187
0
LINE
8
boundary
62
5
39
2
10
4.387500
20
5.896187
11
6.850949
21
5.896187
0
LINE
8
boundary
62
5
39
2
10
6.850949
20
5.896187
11
5.853174
21
6.945518
0
LINE
8
annotation
62
1
39
211
10
6.207949
20
6.328444
11
5.918907
21
6.632422
0
LINE
8
annotation
62
1
39
211
10
5.319569
20
6.632449
11
5.030501
21
6.328442
0
LINE
8
annotation
62
1
39
211
10
5.030501
20
6.328442
11
6.207949
21
6.328444
0
LINE
8
annotation
62
1
39
211
10
6.420911
20
6.175336
11
6.420911
21
6.231586
0
LINE
8
annotation
62
1
39
211
10
6.420911
20
6.175336
11
6.420911
21
6.231586
0
LINE
8
annotation
62
1
39
211
10
6.420911
20
6.231586
11
6.420911
21
6.175336
0
LINE
8
annotation
62
1
39
211
10
6.420911
20
6.175336
11
6.477161
21
6.175336
0
LINE
8
annotation
62
1
39
211
10
4.817538
20
6.175336
11
4.817538
21
6.119086
0
LINE
8
annotation
62
1
39
211
10
5.628599
20
6.750713
11
5.628599
21
6.806963
0
LINE
8
annotation
62
1
39
211
10
5.628599
20
6.750713
11
5.628599
21
6.806963
0
LINE
8
annotation
62
1
39
211
10
5.628599
20
6.806963
11
5.628599
21
6.750713
0
LINE
8
annotation
62
1
39
211
10
5.628599
20
6.750713
11
5.628599
21
6.694463
0
LINE
8
annotation
62
1
39
211
10
5.628599
20
6.394068
11
5.684849
21
6.394068
0
LINE
8
annotation
62
1
39
211
10
5.628599
20
6.394068
11
5.684849
21
6.394068
0
LINE
8
annotation
62
1
39
211
10
5.684849
20
6.394068
11
5.628599
21
6.394068
0
LINE
8
annotation
62
1
39
211
10
5.628599
20
6.394068
11
5.628599
21
6.337818
0
LINE
8
annotation
62
1
39
211
10
5.299814
20
6.179859
11
5.181642
21
6.179859
0
LINE
8
annotation
62
1
39
211
10
5.181642
20
6.179859
11
5.290837
21
6.355649
0
LINE
8
annotation
62
1
39
211
10
5.290837
20
6.355649
11
5.290837
21
6.355649
0
LINE
8
annotation
62
1
39
211
10
5.290837
20
6.355649
11
5.290968
21
6.355810
0
LINE
8
annotation
62
1
39
211
10
5.290968
20
6.355810
11
5.291093
21
6.355973
0
LINE
8
annotation
62
1
39
211
10
5.291093
20
6.355973
11
5.291214
21
6.356139
0
LINE
8
annotation
62
1
39
211
10
5.291214
20
6.356139
11
5.291331
21
6.356309
0
LINE
8
annotation
62
1
39
211
10
5.291331
20
6.356309
11
5.291445
21
6.356484
0
LINE
8
annotation
62
1
39
211
10
5.291445
20
6.356484
11
5.291557
21
6.356666
0
LINE
8
annotation
62
1
39
211
10
5.291557
20
6.356666
11
5.291667
21
6.356857
0
LINE
8
annotation
62
1
39
211
10
5.291667
20
6.356857
11
5.291778
21
6.357057
0
LINE
8
annotation
62
1
39
211
10
5.291778
20
6.357057
11
5.291888
21
6.357268
0
LINE
8
annotation
62
1
39
211
10
5.291888
20
6.357268
11
5.291888
21
6.357268
0
LINE
8
annotation
62
1
39
211
10
5.291888
20
6.357268
11
5.296397
21
6.366948
0
LINE
8
annotation
62
1
39
211
10
5.296397
20
6.366948
11
5.299031
21
6.376983
0
LINE
8
annotation
62
1
39
211
10
5.299031
20
6.376983
11
5.299855
21
6.387145
0
LINE
8
annotation
62
1
39
211
10
5.299855
20
6.387145
11
5.298933
21
6.397207
0
LINE
8
annotation
62
1
39
211
10
5.298933
20
6.397207
11
5.296329
21
6.406944
0
LINE
8
annotation
62
1
39
211
10
5.296329
20
6.406944
11
5.292110
21
6.416128
0
LINE
8
annotation
62
1
39
211
10
5.292110
20
6.416128
11
5.286338
21
6.424532
0
LINE
8
annotation
62
1
39
211
10
5.286338
20
6.424532
11
5.279079
21
6.431931
0
LINE
8
annotation
62
1
39
211
10
5.279079
20
6.431931
11
5.270397
21
6.438096
0
LINE
8
annotation
62
1
39
211
10
5.270397
20
6.438096
11
5.270397
21
6.438096
0
LINE
8
annotation
62
1
39
211
10
5.270397
20
6.438096
11
5.260689
21
6.442540
0
LINE
8
annotation
62
1
39
211
10
5.260689
20
6.442540
11
5.250639
21
6.445134
0
LINE
8
annotation
62
1
39
211
10
5.250639
20
6.445134
11
5.240471
21
6.445934
0
LINE
8
annotation
62
1
39
211
10
5.240471
20
6.445934
11
5.230410
21
6.445000
0
LINE
8
annotation
62
1
39
211
10
5.230410
20
6.445000
11
5.220680
21
6.442389
0
LINE
8
annotation
62
1
39
211
10
5.220680
20
6.442389
11
5.211506
21
6.438161
0
LINE
8
annotation
62
1
39
211
10
5.211506
20
6.438161
11
5.203113
21
6.432374
0
LINE
8
annotation
62
1
39
211
10
5.203113
20
6.432374
11
5.195726
21
6.425085
0
LINE
8
annotation
62
1
39
211
10
5.195726
20
6.425085
11
5.189568
21
6.416354
0
LINE
8
annotation
62
1
39
211
10
5.189568
20
6.416354
11
5.181809
21
6.401469
0
LINE
8
annotation
62
1
39
211
10
5.517806
20
6.179859
11
5.399634
21
6.179859
0
LINE
8
annotation
62
1
39
211
10
5.399634
20
6.179859
11
5.508829
21
6.355649
0
LINE
8
annotation
62
1
39
211
10
5.508829
20
6.355649
11
5.508829
21
6.355649
0
LINE
8
annotation
62
1
39
211
10
5.508829
20
6.355649
11
5.508960
21
6.355810
0
LINE
8
annotation
62
1
39
211
10
5.508960
20
6.355810
11
5.509085
21
6.355973
0
LINE
8
annotation
62
1
39
211
10
5.509085
20
6.355973
11
5.509205
21
6.356139
0
LINE
8
annotation
62
1
39
211
10
5.509205
20
6.356139
11
5.509322
21
6.356309
0
LINE
8
annotation
62
1
39
211
10
5.509322
20
6.356309
11
5.509436
21
6.356484
0
LINE
8
annotation
62
1
39
211
10
5.509436
20
6.356484
11
5.509548
21
6.356666
0
LINE
8
annotation
62
1
39
211
10
5.509548
20
6.356666
11
5.509659
21
6.356857
0
LINE
8
annotation
62
1
39
211
10
5.509659
20
6.356857
11
5.509770
21
6.357057
0
LINE
8
annotation
62
1
39
211
10
5.509770
20
6.357057
11
5.509880
21
6.357268
0
LINE
8
annotation
62
1
39
211
10
5.509880
20
6.357268
11
5.509880
21
6.357268
0
LINE
8
annotation
62
1
39
211
10
5.509880
20
6.357268
11
5.514389
21
6.366948
0
LINE
8
annotation
62
1
39
211
10
5.514389
20
6.366948
11
5.517023
21
6.376983
0
LINE
8
annotation
62
1
39
211
10
5.517023
20
6.376983
11
5.517847
21
6.387145
0
LINE
8
annotation
62
1
39
211
10
5.517847
20
6.387145
11
5.516924
21
6.397207
0
LINE
8
annotation
62
1
39
211
10
5.516924
20
6.397207
11
5.514321
21
6.406944
0
LINE
8
annotation
62
1
39
211
10
5.514321
20
6.406944
11
5.510102
21
6.416128
0
LINE
8
annotation
62
1
39
211
10
5.510102
20
6.416128
11
5.504330
21
6.424532
0
LINE
8
annotation
62
1
39
211
10
5.504330
20
6.424532
11
5.497071
21
6.431931
0
LINE
8
annotation
62
1
39
211
10
5.497071
20
6.431931
11
5.488388
21
6.438096
0
LINE
8
annotation
62
1
39
211
10
5.488388
20
6.438096
11
5.488388
21
6.438096
0
LINE
8
annotation
62
1
39
211
10
5.488388
20
6.438096
11
5.478681
21
6.442540
0
LINE
8
annotation
62
1
39
211
10
5.478681
20
6.442540
11
5.468631
21
6.445134
0
LINE
8
annotation
62
1
39
211
10
5.468631
20
6.445134
11
5.458463
21
6.445934
0
LINE
8
annotation
62
1
39
211
10
5.458463
20
6.445934
11
5.448402
21
6.445000
0
LINE
8
annotation
62
1
39
211
10
5.448402
20
6.445000
11
5.438672
21
6.442389
0
LINE
8
annotation
62
1
39
211
10
5.438672
20
6.442389
11
5.429498
21
6.438161
0
LINE
8
annotation
62
1
39
211
10
5.429498
20
6.438161
11
5.421105
21
6.432374
0
LINE
8
annotation
62
1
39
211
10
5.421105
20
6.432374
11
5.413718
21
6.425085
0
LINE
8
annotation
62
1
39
211
10
5.413718
20
6.425085
11
5.407560
21
6.416354
0
LINE
8
annotation
62
1
39
211
10
5.407560
20
6.416354
11
5.399801
21
6.401469
0
LINE
8
frame
62
5
39
2
10
0.000000
20
0.000000
11
8.500000
21
0.000000
0
LINE
8
frame
62
5
39
2
10
8.500000
20
0.000000
11
8.500000
21
11.000000
0
LINE
8
frame
62
5
39
2
10
8.500000
20
11.000000
11
0.000000
21
11.000000
0
LINE
8
frame
62
5
39
2
10
0.000000
20
11.000000
11
0.000000
21
0.000000
0
ENDSEC
0
EOF
