0
SECTION
2
HEADER
9
$ACADVER
1
AC1009
0
ENDSEC
0
SECTION
2
TABLES
0
TABLE
2
VPORT
70
1
0
VPORT
2
ACTIVE
70
0
10
0.0
20
0.0
11
0.0
21
0.0
12
0.0
22
0.0
13
0.0
23
0.0
14
0.0
24
0.0
15
0.0
25
0.0
16
0.0
26
0.0
36
0.0
17
0.0
27
0.0
37
0.0
40
0.0
41
0.0
42
0.0
43
0.0
44
0.0
50
0.0
51
0.0
71
0
72
1000
73
1
74
3
75
0
76
0
77
0
78
0
0
ENDTAB
0
ENDSEC
0
SECTION
2
ENTITIES
0
LINE
8
hole
62
5
39
2
10
3.451723
20
1.944053
11
3.474223
21
1.944053
0
LINE
8
hole
62
5
39
2
10
3.474223
20
1.944053
11
3.474223
21
1.966553
0
LINE
8
hole
62
5
39
2
10
3.474223
20
1.966553
11
3.451723
21
1.966553
0
LINE
8
hole
62
5
39
2
10
3.451723
20
1.966553
11
3.451723
21
1.944053
0
LINE
8
hole
62
5
39
2
10
1.975011
20
0.592459
11
1.997511
21
0.592459
0
LINE
8
hole
62
5
39
2
10
1.997511
20
0.592459
11
1.997511
21
0.614959
0
LINE
8
hole
62
5
39
2
10
1.997511
20
0.614959
11
1.975011
21
0.614959
0
LINE
8
hole
62
5
39
2
10
1.975011
20
0.614959
11
1.975011
21
0.592459
0
LINE
8
hole
62
5
39
2
10
0.498299
20
1.944053
11
0.520799
21
1.944053
0
LINE
8
hole
62
5
39
2
10
0.520799
20
1.944053
11
0.520799
21
1.966553
0
LINE
8
hole
62
5
39
2
10
0.520799
20
1.966553
11
0.498299
21
1.966553
0
LINE
8
hole
62
5
39
2
10
0.498299
20
1.966553
11
0.498299
21
1.944053
0
LINE
8
hole
62
5
39
2
10
1.975011
20
3.322134
11
1.997511
21
3.322134
0
LINE
8
hole
62
5
39
2
10
1.997511
20
3.322134
11
1.997511
21
3.344634
0
LINE
8
hole
62
5
39
2
10
1.997511
20
3.344634
11
1.975011
21
3.344634
0
LINE
8
hole
62
5
39
2
10
1.975011
20
3.344634
11
1.975011
21
3.322134
0
LINE
8
boundary
62
5
39
2
10
1.263793
20
3.133056
11
0.750193
21
2.592917
0
LINE
8
boundary
62
5
39
2
10
0.750193
20
2.592917
11
0.262500
21
2.080024
0
LINE
8
boundary
62
5
39
2
10
0.262500
20
2.080024
11
0.750193
21
1.104741
0
LINE
8
boundary
62
5
39
2
10
0.750193
20
1.104741
11
1.171358
21
0.262500
0
LINE
8
boundary
62
5
39
2
10
1.171358
20
0.262500
11
1.438245
21
0.262500
0
LINE
8
boundary
62
5
39
2
10
1.438245
20
0.262500
11
2.801164
21
0.262500
0
LINE
8
boundary
62
5
39
2
10
2.801164
20
0.262500
11
3.222329
21
1.104741
0
LINE
8
boundary
62
5
39
2
10
3.222329
20
1.104741
11
3.452884
21
1.565804
0
LINE
8
boundary
62
5
39
2
10
3.452884
20
1.565804
11
3.710022
21
2.080024
0
LINE
8
boundary
62
5
39
2
10
3.710022
20
2.080024
11
3.222329
21
2.592917
0
LINE
8
boundary
62
5
39
2
10
3.222329
20
2.592917
11
2.708729
21
3.133056
0
LINE
8
boundary
62
5
39
2
10
2.708729
20
3.133056
11
2.193798
21
3.674593
0
LINE
8
boundary
62
5
39
2
10
2.193798
20
3.674593
11
1.778723
21
3.674593
0
LINE
8
boundary
62
5
39
2
10
1.778723
20
3.674593
11
1.263793
21
3.133056
0
LINE
8
annotation
62
1
39
211
10
3.462973
20
1.955303
11
3.462973
21
2.011553
0
LINE
8
annotation
62
1
39
211
10
0.509549
20
1.955303
11
0.565799
21
1.955303
0
LINE
8
annotation
62
1
39
211
10
1.986261
20
3.333384
11
1.986261
21
3.389634
0
LINE
8
annotation
62
1
39
211
10
1.986261
20
3.333384
11
1.986261
21
3.389634
0
LINE
8
annotation
62
1
39
211
10
1.986261
20
3.389634
11
1.986261
21
3.333384
0
LINE
8
annotation
62
1
39
211
10
1.986261
20
3.333384
11
2.042511
21
3.333384
0
LINE
8
annotation
62
1
39
211
10
1.986261
20
0.603709
11
1.986261
21
0.547459
0
LINE
8
annotation
62
1
39
211
10
1.669626
20
1.078566
11
1.669626
21
2.319798
0
LINE
8
annotation
62
1
39
211
10
1.669626
20
2.319798
11
1.393685
21
2.043778
0
LINE
8
annotation
62
1
39
211
10
2.135049
20
1.353768
11
2.135049
21
1.353768
0
LINE
8
annotation
62
1
39
211
10
2.135049
20
1.353768
11
2.139500
21
1.304209
0
LINE
8
annotation
62
1
39
211
10
2.139500
20
1.304209
11
2.152326
21
1.257598
0
LINE
8
annotation
62
1
39
211
10
2.152326
20
1.257598
11
2.172744
21
1.214706
0
LINE
8
annotation
62
1
39
211
10
2.172744
20
1.214706
11
2.199968
21
1.176302
0
LINE
8
annotation
62
1
39
211
10
2.199968
20
1.176302
11
2.233211
21
1.143155
0
LINE
8
annotation
62
1
39
211
10
2.233211
20
1.143155
11
2.271690
21
1.116034
0
LINE
8
annotation
62
1
39
211
10
2.271690
20
1.116034
11
2.314618
21
1.095710
0
LINE
8
annotation
62
1
39
211
10
2.314618
20
1.095710
11
2.361210
21
1.082951
0
LINE
8
annotation
62
1
39
211
10
2.361210
20
1.082951
11
2.410680
21
1.078527
0
LINE
8
annotation
62
1
39
211
10
2.410680
20
1.078527
11
2.410680
21
1.078527
0
LINE
8
annotation
62
1
39
211
10
2.410680
20
1.078527
11
2.460150
21
1.082951
0
LINE
8
annotation
62
1
39
211
10
2.460150
20
1.082951
11
2.506742
21
1.095710
0
LINE
8
annotation
62
1
39
211
10
2.506742
20
1.095710
11
2.549670
21
1.116034
0
LINE
8
annotation
62
1
39
211
10
2.549670
20
1.116034
11
2.588148
21
1.143155
0
LINE
8
annotation
62
1
39
211
10
2.588148
20
1.143155
11
2.621392
21
1.176302
0
LINE
8
annotation
62
1
39
211
10
2.621392
20
1.176302
11
2.648616
21
1.214706
0
LINE
8
annotation
62
1
39
211
10
2.648616
20
1.214706
11
2.669033
21
1.257598
0
LINE
8
annotation
62
1
39
211
10
2.669033
20
1.257598
11
2.681860
21
1.304209
0
LINE
8
annotation
62
1
39
211
10
2.681860
20
1.304209
11
2.686310
21
1.353768
0
LINE
8
annotation
62
1
39
211
10
2.686310
20
1.353768
11
2.686310
21
1.491078
0
LINE
8
annotation
62
1
39
211
10
2.686310
20
1.491078
11
2.686310
21
1.491078
0
LINE
8
annotation
62
1
39
211
10
2.686310
20
1.491078
11
2.681863
21
1.540661
0
LINE
8
annotation
62
1
39
211
10
2.681863
20
1.540661
11
2.669042
21
1.587336
0
LINE
8
annotation
62
1
39
211
10
2.669042
20
1.587336
11
2.648633
21
1.630321
0
LINE
8
annotation
62
1
39
211
10
2.648633
20
1.630321
11
2.621418
21
1.668836
0
LINE
8
annotation
62
1
39
211
10
2.621418
20
1.668836
11
2.588180
21
1.702100
0
LINE
8
annotation
62
1
39
211
10
2.588180
20
1.702100
11
2.549704
21
1.729331
0
LINE
8
annotation
62
1
39
211
10
2.549704
20
1.729331
11
2.506773
21
1.749748
0
LINE
8
annotation
62
1
39
211
10
2.506773
20
1.749748
11
2.460171
21
1.762571
0
LINE
8
annotation
62
1
39
211
10
2.460171
20
1.762571
11
2.410680
21
1.767019
0
LINE
8
annotation
62
1
39
211
10
2.410680
20
1.767019
11
2.410680
21
1.767019
0
LINE
8
annotation
62
1
39
211
10
2.410680
20
1.767019
11
2.361189
21
1.762569
0
LINE
8
annotation
62
1
39
211
10
2.361189
20
1.762569
11
2.314586
21
1.749739
0
LINE
8
annotation
62
1
39
211
10
2.314586
20
1.749739
11
2.271655
21
1.729313
0
LINE
8
annotation
62
1
39
211
10
2.271655
20
1.729313
11
2.233179
21
1.702074
0
LINE
8
annotation
62
1
39
211
10
2.233179
20
1.702074
11
2.199942
21
1.668804
0
LINE
8
annotation
62
1
39
211
10
2.199942
20
1.668804
11
2.172727
21
1.630287
0
LINE
8
annotation
62
1
39
211
10
2.172727
20
1.630287
11
2.152317
21
1.587305
0
LINE
8
annotation
62
1
39
211
10
2.152317
20
1.587305
11
2.139497
21
1.540641
0
LINE
8
annotation
62
1
39
211
10
2.139497
20
1.540641
11
2.135049
21
1.491078
0
LINE
8
annotation
62
1
39
211
10
2.135049
20
1.491078
11
2.135049
21
1.353768
0
LINE
8
annotation
62
1
39
211
10
2.686310
20
2.043039
11
2.686310
21
2.043039
0
LINE
8
annotation
62
1
39
211
10
2.686310
20
2.043039
11
2.681863
21
2.092393
0
LINE
8
annotation
62
1
39
211
10
2.681863
20
2.092393
11
2.669042
21
2.138895
0
LINE
8
annotation
62
1
39
211
10
2.669042
20
2.138895
11
2.648633
21
2.181755
0
LINE
8
annotation
62
1
39
211
10
2.648633
20
2.181755
11
2.621418
21
2.220185
0
LINE
8
annotation
62
1
39
211
10
2.621418
20
2.220185
11
2.588180
21
2.253396
0
LINE
8
annotation
62
1
39
211
10
2.588180
20
2.253396
11
2.549704
21
2.280600
0
LINE
8
annotation
62
1
39
211
10
2.549704
20
2.280600
11
2.506773
21
2.301008
0
LINE
8
annotation
62
1
39
211
10
2.506773
20
2.301008
11
2.460171
21
2.313831
0
LINE
8
annotation
62
1
39
211
10
2.460171
20
2.313831
11
2.410680
21
2.318280
0
LINE
8
annotation
62
1
39
211
10
2.410680
20
2.318280
11
2.410680
21
2.318280
0
LINE
8
annotation
62
1
39
211
10
2.410680
20
2.318280
11
2.361189
21
2.313831
0
LINE
8
annotation
62
1
39
211
10
2.361189
20
2.313831
11
2.314586
21
2.301008
0
LINE
8
annotation
62
1
39
211
10
2.314586
20
2.301008
11
2.271655
21
2.280600
0
LINE
8
annotation
62
1
39
211
10
2.271655
20
2.280600
11
2.233179
21
2.253396
0
LINE
8
annotation
62
1
39
211
10
2.233179
20
2.253396
11
2.199942
21
2.220185
0
LINE
8
annotation
62
1
39
211
10
2.199942
20
2.220185
11
2.172727
21
2.181755
0
LINE
8
annotation
62
1
39
211
10
2.172727
20
2.181755
11
2.152317
21
2.138895
0
LINE
8
annotation
62
1
39
211
10
2.152317
20
2.138895
11
2.139497
21
2.092393
0
LINE
8
annotation
62
1
39
211
10
2.139497
20
2.092393
11
2.135049
21
2.043039
0
LINE
8
annotation
62
1
39
211
10
2.135049
20
2.043039
11
2.135049
21
2.043039
0
LINE
8
annotation
62
1
39
211
10
2.135049
20
2.043039
11
2.139500
21
1.993453
0
LINE
8
annotation
62
1
39
211
10
2.139500
20
1.993453
11
2.152326
21
1.946771
0
LINE
8
annotation
62
1
39
211
10
2.152326
20
1.946771
11
2.172744
21
1.903775
0
LINE
8
annotation
62
1
39
211
10
2.172744
20
1.903775
11
2.199968
21
1.865248
0
LINE
8
annotation
62
1
39
211
10
2.199968
20
1.865248
11
2.233211
21
1.831972
0
LINE
8
annotation
62
1
39
211
10
2.233211
20
1.831972
11
2.271690
21
1.804728
0
LINE
8
annotation
62
1
39
211
10
2.271690
20
1.804728
11
2.314618
21
1.784300
0
LINE
8
annotation
62
1
39
211
10
2.314618
20
1.784300
11
2.361210
21
1.771470
0
LINE
8
annotation
62
1
39
211
10
2.361210
20
1.771470
11
2.410680
21
1.767019
0
LINE
8
annotation
62
1
39
211
10
2.410680
20
1.767019
11
2.410680
21
1.767019
0
LINE
8
annotation
62
1
39
211
10
2.410680
20
1.767019
11
2.460150
21
1.771470
0
LINE
8
annotation
62
1
39
211
10
2.460150
20
1.771470
11
2.506742
21
1.784300
0
LINE
8
annotation
62
1
39
211
10
2.506742
20
1.784300
11
2.549670
21
1.804728
0
LINE
8
annotation
62
1
39
211
10
2.549670
20
1.804728
11
2.588148
21
1.831972
0
LINE
8
annotation
62
1
39
211
10
2.588148
20
1.831972
11
2.621392
21
1.865248
0
LINE
8
annotation
62
1
39
211
10
2.621392
20
1.865248
11
2.648616
21
1.903775
0
LINE
8
annotation
62
1
39
211
10
2.648616
20
1.903775
11
2.669033
21
1.946771
0
LINE
8
annotation
62
1
39
211
10
2.669033
20
1.946771
11
2.681860
21
1.993453
0
LINE
8
annotation
62
1
39
211
10
2.681860
20
1.993453
11
2.686310
21
2.043039
0
LINE
8
hole
62
5
39
2
10
3.146399
20
5.435623
11
3.168899
21
5.435623
0
LINE
8
hole
62
5
39
2
10
3.168899
20
5.435623
11
3.168899
21
5.458123
0
LINE
8
hole
62
5
39
2
10
3.168899
20
5.458123
11
3.146399
21
5.458123
0
LINE
8
hole
62
5
39
2
10
3.146399
20
5.458123
11
3.146399
21
5.435623
0
LINE
8
hole
62
5
39
2
10
1.913946
20
6.859227
11
1.936446
21
6.859227
0
LINE
8
hole
62
5
39
2
10
1.936446
20
6.859227
11
1.936446
21
6.881727
0
LINE
8
hole
62
5
39
2
10
1.936446
20
6.881727
11
1.913946
21
6.881727
0
LINE
8
hole
62
5
39
2
10
1.913946
20
6.881727
11
1.913946
21
6.859227
0
LINE
8
hole
62
5
39
2
10
1.913946
20
4.129553
11
1.936446
21
4.129553
0
LINE
8
hole
62
5
39
2
10
1.936446
20
4.129553
11
1.936446
21
4.152053
0
LINE
8
hole
62
5
39
2
10
1.936446
20
4.152053
11
1.913946
21
4.152053
0
LINE
8
hole
62
5
39
2
10
1.913946
20
4.152053
11
1.913946
21
4.129553
0
LINE
8
hole
62
5
39
2
10
0.681493
20
5.435623
11
0.703993
21
5.435623
0
LINE
8
hole
62
5
39
2
10
0.703993
20
5.435623
11
0.703993
21
5.458123
0
LINE
8
hole
62
5
39
2
10
0.703993
20
5.458123
11
0.681493
21
5.458123
0
LINE
8
hole
62
5
39
2
10
0.681493
20
5.458123
11
0.681493
21
5.435623
0
LINE
8
boundary
62
5
39
2
10
0.689128
20
6.311715
11
0.487441
21
5.908383
0
LINE
8
boundary
62
5
39
2
10
0.487441
20
5.908383
11
0.262500
21
5.458548
0
LINE
8
boundary
62
5
39
2
10
0.262500
20
5.458548
11
1.701069
21
3.945646
0
LINE
8
boundary
62
5
39
2
10
1.701069
20
3.945646
11
1.839946
21
3.799593
0
LINE
8
boundary
62
5
39
2
10
1.839946
20
3.799593
11
2.010446
21
3.799593
0
LINE
8
boundary
62
5
39
2
10
2.010446
20
3.799593
11
2.149323
21
3.945646
0
LINE
8
boundary
62
5
39
2
10
2.149323
20
3.945646
11
3.587892
21
5.458548
0
LINE
8
boundary
62
5
39
2
10
3.587892
20
5.458548
11
3.362951
21
5.908383
0
LINE
8
boundary
62
5
39
2
10
3.362951
20
5.908383
11
2.735882
21
7.162389
0
LINE
8
boundary
62
5
39
2
10
2.735882
20
7.162389
11
2.711231
21
7.211687
0
LINE
8
boundary
62
5
39
2
10
2.711231
20
7.211687
11
2.595499
21
7.211687
0
LINE
8
boundary
62
5
39
2
10
2.595499
20
7.211687
11
1.139161
21
7.211687
0
LINE
8
boundary
62
5
39
2
10
1.139161
20
7.211687
11
0.689128
21
6.311715
0
LINE
8
annotation
62
1
39
211
10
3.157649
20
5.446873
11
3.157649
21
5.503123
0
LINE
8
annotation
62
1
39
211
10
0.692743
20
5.446873
11
0.748993
21
5.446873
0
LINE
8
annotation
62
1
39
211
10
1.925196
20
6.870477
11
1.925196
21
6.926727
0
LINE
8
annotation
62
1
39
211
10
1.925196
20
6.870477
11
1.925196
21
6.926727
0
LINE
8
annotation
62
1
39
211
10
1.925196
20
6.926727
11
1.925196
21
6.870477
0
LINE
8
annotation
62
1
39
211
10
1.925196
20
6.870477
11
1.981446
21
6.870477
0
LINE
8
annotation
62
1
39
211
10
1.925196
20
4.140803
11
1.925196
21
4.084553
0
LINE
8
annotation
62
1
39
211
10
2.049746
20
6.570746
11
2.049746
21
6.570746
0
LINE
8
annotation
62
1
39
211
10
2.049746
20
6.570746
11
1.948152
21
6.532654
0
LINE
8
annotation
62
1
39
211
10
1.948152
20
6.532654
11
1.854925
21
6.481330
0
LINE
8
annotation
62
1
39
211
10
1.854925
20
6.481330
11
1.771024
21
6.418059
0
LINE
8
annotation
62
1
39
211
10
1.771024
20
6.418059
11
1.697405
21
6.344128
0
LINE
8
annotation
62
1
39
211
10
1.697405
20
6.344128
11
1.635025
21
6.260822
0
LINE
8
annotation
62
1
39
211
10
1.635025
20
6.260822
11
1.584842
21
6.169427
0
LINE
8
annotation
62
1
39
211
10
1.584842
20
6.169427
11
1.547812
21
6.071229
0
LINE
8
annotation
62
1
39
211
10
1.547812
20
6.071229
11
1.524892
21
5.967514
0
LINE
8
annotation
62
1
39
211
10
1.524892
20
5.967514
11
1.517039
21
5.859569
0
LINE
8
annotation
62
1
39
211
10
1.517039
20
5.859569
11
1.517039
21
5.328765
0
LINE
8
annotation
62
1
39
211
10
1.517039
20
5.328765
11
1.517039
21
5.328765
0
LINE
8
annotation
62
1
39
211
10
1.517039
20
5.328765
11
1.522765
21
5.264968
0
LINE
8
annotation
62
1
39
211
10
1.522765
20
5.264968
11
1.539268
21
5.204915
0
LINE
8
annotation
62
1
39
211
10
1.539268
20
5.204915
11
1.565539
21
5.149608
0
LINE
8
annotation
62
1
39
211
10
1.565539
20
5.149608
11
1.600565
21
5.100053
0
LINE
8
annotation
62
1
39
211
10
1.600565
20
5.100053
11
1.643338
21
5.057255
0
LINE
8
annotation
62
1
39
211
10
1.643338
20
5.057255
11
1.692846
21
5.022219
0
LINE
8
annotation
62
1
39
211
10
1.692846
20
5.022219
11
1.748079
21
4.995949
0
LINE
8
annotation
62
1
39
211
10
1.748079
20
4.995949
11
1.808026
21
4.979450
0
LINE
8
annotation
62
1
39
211
10
1.808026
20
4.979450
11
1.871676
21
4.973727
0
LINE
8
annotation
62
1
39
211
10
1.871676
20
4.973727
11
1.871676
21
4.973727
0
LINE
8
annotation
62
1
39
211
10
1.871676
20
4.973727
11
1.935459
21
4.979450
0
LINE
8
annotation
62
1
39
211
10
1.935459
20
4.979450
11
1.995476
21
4.995949
0
LINE
8
annotation
62
1
39
211
10
1.995476
20
4.995949
11
2.050729
21
5.022219
0
LINE
8
annotation
62
1
39
211
10
2.050729
20
5.022219
11
2.100221
21
5.057255
0
LINE
8
annotation
62
1
39
211
10
2.100221
20
5.057255
11
2.142952
21
5.100053
0
LINE
8
annotation
62
1
39
211
10
2.142952
20
5.100053
11
2.177926
21
5.149608
0
LINE
8
annotation
62
1
39
211
10
2.177926
20
5.149608
11
2.204142
21
5.204915
0
LINE
8
annotation
62
1
39
211
10
2.204142
20
5.204915
11
2.220605
21
5.264968
0
LINE
8
annotation
62
1
39
211
10
2.220605
20
5.264968
11
2.226314
21
5.328765
0
LINE
8
annotation
62
1
39
211
10
2.226314
20
5.328765
11
2.226314
21
5.505432
0
LINE
8
annotation
62
1
39
211
10
2.226314
20
5.505432
11
2.226314
21
5.505432
0
LINE
8
annotation
62
1
39
211
10
2.226314
20
5.505432
11
2.220605
21
5.569197
0
LINE
8
annotation
62
1
39
211
10
2.220605
20
5.569197
11
2.204142
21
5.629168
0
LINE
8
annotation
62
1
39
211
10
2.204142
20
5.629168
11
2.177926
21
5.684355
0
LINE
8
annotation
62
1
39
211
10
2.177926
20
5.684355
11
2.142952
21
5.733768
0
LINE
8
annotation
62
1
39
211
10
2.142952
20
5.733768
11
2.100221
21
5.776416
0
LINE
8
annotation
62
1
39
211
10
2.100221
20
5.776416
11
2.050729
21
5.811310
0
LINE
8
annotation
62
1
39
211
10
2.050729
20
5.811310
11
1.995476
21
5.837461
0
LINE
8
annotation
62
1
39
211
10
1.995476
20
5.837461
11
1.935459
21
5.853877
0
LINE
8
annotation
62
1
39
211
10
1.935459
20
5.853877
11
1.871676
21
5.859569
0
LINE
8
annotation
62
1
39
211
10
1.871676
20
5.859569
11
1.517039
21
5.859569
0
LINE
8
annotation
62
1
39
211
10
1.472622
20
4.774099
11
2.271132
21
4.774099
0
LINE
8
frame
62
5
39
2
10
0.000000
20
0.000000
11
8.500000
21
0.000000
0
LINE
8
frame
62
5
39
2
10
8.500000
20
0.000000
11
8.500000
21
11.000000
0
LINE
8
frame
62
5
39
2
10
8.500000
20
11.000000
11
0.000000
21
11.000000
0
LINE
8
frame
62
5
39
2
10
0.000000
20
11.000000
11
0.000000
21
0.000000
0
ENDSEC
0
EOF
