0
SECTION
2
HEADER
9
$ACADVER
1
AC1009
0
ENDSEC
0
SECTION
2
TABLES
0
TABLE
2
VPORT
70
1
0
VPORT
2
ACTIVE
70
0
10
0.0
20
0.0
11
0.0
21
0.0
12
0.0
22
0.0
13
0.0
23
0.0
14
0.0
24
0.0
15
0.0
25
0.0
16
0.0
26
0.0
36
0.0
17
0.0
27
0.0
37
0.0
40
0.0
41
0.0
42
0.0
43
0.0
44
0.0
50
0.0
51
0.0
71
0
72
1000
73
1
74
3
75
0
76
0
77
0
78
0
0
ENDTAB
0
ENDSEC
0
SECTION
2
ENTITIES
0
LINE
8
hole
62
5
39
2
10
2.251250
20
0.579216
11
2.273750
21
0.579216
0
LINE
8
hole
62
5
39
2
10
2.273750
20
0.579216
11
2.273750
21
0.601716
0
LINE
8
hole
62
5
39
2
10
2.273750
20
0.601716
11
2.251250
21
0.601716
0
LINE
8
hole
62
5
39
2
10
2.251250
20
0.601716
11
2.251250
21
0.579216
0
LINE
8
hole
62
5
39
2
10
3.851250
20
1.957297
11
3.873750
21
1.957297
0
LINE
8
hole
62
5
39
2
10
3.873750
20
1.957297
11
3.873750
21
1.979797
0
LINE
8
hole
62
5
39
2
10
3.873750
20
1.979797
11
3.851250
21
1.979797
0
LINE
8
hole
62
5
39
2
10
3.851250
20
1.979797
11
3.851250
21
1.957297
0
LINE
8
hole
62
5
39
2
10
0.651250
20
1.957297
11
0.673750
21
1.957297
0
LINE
8
hole
62
5
39
2
10
0.673750
20
1.957297
11
0.673750
21
1.979797
0
LINE
8
hole
62
5
39
2
10
0.673750
20
1.979797
11
0.651250
21
1.979797
0
LINE
8
hole
62
5
39
2
10
0.651250
20
1.979797
11
0.651250
21
1.957297
0
LINE
8
hole
62
5
39
2
10
2.251250
20
3.308890
11
2.273750
21
3.308890
0
LINE
8
hole
62
5
39
2
10
2.273750
20
3.308890
11
2.273750
21
3.331390
0
LINE
8
hole
62
5
39
2
10
2.273750
20
3.331390
11
2.251250
21
3.331390
0
LINE
8
hole
62
5
39
2
10
2.251250
20
3.331390
11
2.251250
21
3.308890
0
LINE
8
boundary
62
5
39
2
10
1.026432
20
3.582845
11
0.420590
21
2.371290
0
LINE
8
boundary
62
5
39
2
10
0.420590
20
2.371290
11
0.262500
21
2.055142
0
LINE
8
boundary
62
5
39
2
10
0.262500
20
2.055142
11
0.678127
21
1.223975
0
LINE
8
boundary
62
5
39
2
10
0.678127
20
1.223975
11
1.026432
21
0.527439
0
LINE
8
boundary
62
5
39
2
10
1.026432
20
0.527439
11
1.158915
21
0.262500
0
LINE
8
boundary
62
5
39
2
10
1.158915
20
0.262500
11
2.937360
21
0.262500
0
LINE
8
boundary
62
5
39
2
10
2.937360
20
0.262500
11
3.366085
21
0.262500
0
LINE
8
boundary
62
5
39
2
10
3.366085
20
0.262500
11
3.498568
21
0.527439
0
LINE
8
boundary
62
5
39
2
10
3.498568
20
0.527439
11
4.017805
21
1.565804
0
LINE
8
boundary
62
5
39
2
10
4.017805
20
1.565804
11
4.262500
21
2.055142
0
LINE
8
boundary
62
5
39
2
10
4.262500
20
2.055142
11
4.104410
21
2.371290
0
LINE
8
boundary
62
5
39
2
10
4.104410
20
2.371290
11
3.928092
21
2.723888
0
LINE
8
boundary
62
5
39
2
10
3.928092
20
2.723888
11
3.452689
21
3.674593
0
LINE
8
boundary
62
5
39
2
10
3.452689
20
3.674593
11
1.220777
21
3.674593
0
LINE
8
boundary
62
5
39
2
10
1.220777
20
3.674593
11
1.072311
21
3.674593
0
LINE
8
boundary
62
5
39
2
10
1.072311
20
3.674593
11
1.026432
21
3.582845
0
LINE
8
annotation
62
1
39
211
10
2.262500
20
3.320140
11
2.262500
21
3.376390
0
LINE
8
annotation
62
1
39
211
10
2.262500
20
3.320140
11
2.262500
21
3.376390
0
LINE
8
annotation
62
1
39
211
10
2.262500
20
3.376390
11
2.262500
21
3.320140
0
LINE
8
annotation
62
1
39
211
10
2.262500
20
3.320140
11
2.318750
21
3.320140
0
LINE
8
annotation
62
1
39
211
10
2.262500
20
0.590466
11
2.262500
21
0.534216
0
LINE
8
annotation
62
1
39
211
10
3.862500
20
1.968547
11
3.862500
21
2.024797
0
LINE
8
annotation
62
1
39
211
10
3.862500
20
1.968547
11
3.862500
21
2.024797
0
LINE
8
annotation
62
1
39
211
10
3.862500
20
2.024797
11
3.862500
21
1.968547
0
LINE
8
annotation
62
1
39
211
10
3.862500
20
1.968547
11
3.862500
21
1.912297
0
LINE
8
annotation
62
1
39
211
10
0.662500
20
1.968547
11
0.718750
21
1.968547
0
LINE
8
annotation
62
1
39
211
10
0.662500
20
1.968547
11
0.718750
21
1.968547
0
LINE
8
annotation
62
1
39
211
10
0.718750
20
1.968547
11
0.662500
21
1.968547
0
LINE
8
annotation
62
1
39
211
10
0.662500
20
1.968547
11
0.662500
21
1.912297
0
LINE
8
annotation
62
1
39
211
10
1.727123
20
1.238974
11
1.727123
21
2.823132
0
LINE
8
annotation
62
1
39
211
10
1.727123
20
2.823132
11
1.374944
21
2.470854
0
LINE
8
annotation
62
1
39
211
10
2.321133
20
1.239023
11
2.672914
21
1.239023
0
LINE
8
annotation
62
1
39
211
10
2.672914
20
1.239023
11
2.672914
21
1.239023
0
LINE
8
annotation
62
1
39
211
10
2.672914
20
1.239023
11
2.736183
21
1.244699
0
LINE
8
annotation
62
1
39
211
10
2.736183
20
1.244699
11
2.795716
21
1.261056
0
LINE
8
annotation
62
1
39
211
10
2.795716
20
1.261056
11
2.850525
21
1.287092
0
LINE
8
annotation
62
1
39
211
10
2.850525
20
1.287092
11
2.899618
21
1.321801
0
LINE
8
annotation
62
1
39
211
10
2.899618
20
1.321801
11
2.942005
21
1.364179
0
LINE
8
annotation
62
1
39
211
10
2.942005
20
1.364179
11
2.976697
21
1.413223
0
LINE
8
annotation
62
1
39
211
10
2.976697
20
1.413223
11
3.002703
21
1.467929
0
LINE
8
annotation
62
1
39
211
10
3.002703
20
1.467929
11
3.019032
21
1.527292
0
LINE
8
annotation
62
1
39
211
10
3.019032
20
1.527292
11
3.024695
21
1.590308
0
LINE
8
annotation
62
1
39
211
10
3.024695
20
1.590308
11
3.024695
21
1.766447
0
LINE
8
annotation
62
1
39
211
10
3.024695
20
1.766447
11
3.024695
21
1.766447
0
LINE
8
annotation
62
1
39
211
10
3.024695
20
1.766447
11
3.019032
21
1.829437
0
LINE
8
annotation
62
1
39
211
10
3.019032
20
1.829437
11
3.002703
21
1.888786
0
LINE
8
annotation
62
1
39
211
10
3.002703
20
1.888786
11
2.976697
21
1.943487
0
LINE
8
annotation
62
1
39
211
10
2.976697
20
1.943487
11
2.942005
21
1.992535
0
LINE
8
annotation
62
1
39
211
10
2.942005
20
1.992535
11
2.899618
21
2.034922
0
LINE
8
annotation
62
1
39
211
10
2.899618
20
2.034922
11
2.850525
21
2.069641
0
LINE
8
annotation
62
1
39
211
10
2.850525
20
2.069641
11
2.795716
21
2.095687
0
LINE
8
annotation
62
1
39
211
10
2.795716
20
2.095687
11
2.736183
21
2.112053
0
LINE
8
annotation
62
1
39
211
10
2.736183
20
2.112053
11
2.672914
21
2.117732
0
LINE
8
annotation
62
1
39
211
10
2.672914
20
2.117732
11
2.496775
21
2.117732
0
LINE
8
annotation
62
1
39
211
10
2.496775
20
2.117732
11
2.672914
21
2.117732
0
LINE
8
annotation
62
1
39
211
10
2.672914
20
2.117732
11
2.672914
21
2.117732
0
LINE
8
annotation
62
1
39
211
10
2.672914
20
2.117732
11
2.736183
21
2.123412
0
LINE
8
annotation
62
1
39
211
10
2.736183
20
2.123412
11
2.795716
21
2.139787
0
LINE
8
annotation
62
1
39
211
10
2.795716
20
2.139787
11
2.850525
21
2.165859
0
LINE
8
annotation
62
1
39
211
10
2.850525
20
2.165859
11
2.899618
21
2.200629
0
LINE
8
annotation
62
1
39
211
10
2.899618
20
2.200629
11
2.942005
21
2.243099
0
LINE
8
annotation
62
1
39
211
10
2.942005
20
2.243099
11
2.976697
21
2.292270
0
LINE
8
annotation
62
1
39
211
10
2.976697
20
2.292270
11
3.002703
21
2.347144
0
LINE
8
annotation
62
1
39
211
10
3.002703
20
2.347144
11
3.019032
21
2.406724
0
LINE
8
annotation
62
1
39
211
10
3.019032
20
2.406724
11
3.024695
21
2.470010
0
LINE
8
annotation
62
1
39
211
10
3.024695
20
2.470010
11
3.024695
21
2.470010
0
LINE
8
annotation
62
1
39
211
10
3.024695
20
2.470010
11
3.019032
21
2.533000
0
LINE
8
annotation
62
1
39
211
10
3.019032
20
2.533000
11
3.002703
21
2.592349
0
LINE
8
annotation
62
1
39
211
10
3.002703
20
2.592349
11
2.976697
21
2.647050
0
LINE
8
annotation
62
1
39
211
10
2.976697
20
2.647050
11
2.942005
21
2.696097
0
LINE
8
annotation
62
1
39
211
10
2.942005
20
2.696097
11
2.899618
21
2.738484
0
LINE
8
annotation
62
1
39
211
10
2.899618
20
2.738484
11
2.850525
21
2.773204
0
LINE
8
annotation
62
1
39
211
10
2.850525
20
2.773204
11
2.795716
21
2.799250
0
LINE
8
annotation
62
1
39
211
10
2.795716
20
2.799250
11
2.736183
21
2.815615
0
LINE
8
annotation
62
1
39
211
10
2.736183
20
2.815615
11
2.672914
21
2.821294
0
LINE
8
annotation
62
1
39
211
10
2.672914
20
2.821294
11
2.321133
21
2.821294
0
LINE
8
hole
62
5
39
2
10
2.251250
20
4.129552
11
2.273750
21
4.129552
0
LINE
8
hole
62
5
39
2
10
2.273750
20
4.129552
11
2.273750
21
4.152052
0
LINE
8
hole
62
5
39
2
10
2.273750
20
4.152052
11
2.251250
21
4.152052
0
LINE
8
hole
62
5
39
2
10
2.251250
20
4.152052
11
2.251250
21
4.129552
0
LINE
8
hole
62
5
39
2
10
3.851250
20
5.481146
11
3.873750
21
5.481146
0
LINE
8
hole
62
5
39
2
10
3.873750
20
5.481146
11
3.873750
21
5.503646
0
LINE
8
hole
62
5
39
2
10
3.873750
20
5.503646
11
3.851250
21
5.503646
0
LINE
8
hole
62
5
39
2
10
3.851250
20
5.503646
11
3.851250
21
5.481146
0
LINE
8
hole
62
5
39
2
10
0.651250
20
5.481146
11
0.673750
21
5.481146
0
LINE
8
hole
62
5
39
2
10
0.673750
20
5.481146
11
0.673750
21
5.503646
0
LINE
8
hole
62
5
39
2
10
0.673750
20
5.503646
11
0.651250
21
5.503646
0
LINE
8
hole
62
5
39
2
10
0.651250
20
5.503646
11
0.651250
21
5.481146
0
LINE
8
hole
62
5
39
2
10
2.251250
20
6.859227
11
2.273750
21
6.859227
0
LINE
8
hole
62
5
39
2
10
2.273750
20
6.859227
11
2.273750
21
6.881727
0
LINE
8
hole
62
5
39
2
10
2.273750
20
6.881727
11
2.251250
21
6.881727
0
LINE
8
hole
62
5
39
2
10
2.251250
20
6.881727
11
2.251250
21
6.859227
0
LINE
8
boundary
62
5
39
2
10
1.026432
20
7.004478
11
0.478327
21
5.908383
0
LINE
8
boundary
62
5
39
2
10
0.478327
20
5.908383
11
0.262500
21
5.476775
0
LINE
8
boundary
62
5
39
2
10
0.262500
20
5.476775
11
0.829919
21
4.342056
0
LINE
8
boundary
62
5
39
2
10
0.829919
20
4.342056
11
1.026432
21
3.949071
0
LINE
8
boundary
62
5
39
2
10
1.026432
20
3.949071
11
1.101179
21
3.799593
0
LINE
8
boundary
62
5
39
2
10
1.101179
20
3.799593
11
3.181935
21
3.799593
0
LINE
8
boundary
62
5
39
2
10
3.181935
20
3.799593
11
3.423821
21
3.799593
0
LINE
8
boundary
62
5
39
2
10
3.423821
20
3.799593
11
3.498568
21
3.949071
0
LINE
8
boundary
62
5
39
2
10
3.498568
20
3.949071
11
4.075541
21
5.102897
0
LINE
8
boundary
62
5
39
2
10
4.075541
20
5.102897
11
4.262500
21
5.476775
0
LINE
8
boundary
62
5
39
2
10
4.262500
20
5.476775
11
4.046673
21
5.908383
0
LINE
8
boundary
62
5
39
2
10
4.046673
20
5.908383
11
3.805963
21
6.389753
0
LINE
8
boundary
62
5
39
2
10
3.805963
20
6.389753
11
3.394953
21
7.211686
0
LINE
8
boundary
62
5
39
2
10
3.394953
20
7.211686
11
1.465352
21
7.211686
0
LINE
8
boundary
62
5
39
2
10
1.465352
20
7.211686
11
1.130047
21
7.211686
0
LINE
8
boundary
62
5
39
2
10
1.130047
20
7.211686
11
1.026432
21
7.004478
0
LINE
8
annotation
62
1
39
211
10
3.862500
20
5.492396
11
3.862500
21
5.548646
0
LINE
8
annotation
62
1
39
211
10
0.662500
20
5.492396
11
0.718750
21
5.492396
0
LINE
8
annotation
62
1
39
211
10
2.262500
20
6.870477
11
2.262500
21
6.926727
0
LINE
8
annotation
62
1
39
211
10
2.262500
20
6.870477
11
2.262500
21
6.926727
0
LINE
8
annotation
62
1
39
211
10
2.262500
20
6.926727
11
2.262500
21
6.870477
0
LINE
8
annotation
62
1
39
211
10
2.262500
20
6.870477
11
2.318750
21
6.870477
0
LINE
8
annotation
62
1
39
211
10
2.262500
20
4.140802
11
2.262500
21
4.084552
0
LINE
8
annotation
62
1
39
211
10
1.727003
20
4.651054
11
1.727003
21
6.235213
0
LINE
8
annotation
62
1
39
211
10
1.727003
20
6.235213
11
1.374825
21
5.882935
0
LINE
8
annotation
62
1
39
211
10
3.024695
20
4.651041
11
2.321133
21
4.651041
0
LINE
8
annotation
62
1
39
211
10
2.321133
20
4.651041
11
2.971248
21
5.697643
0
LINE
8
annotation
62
1
39
211
10
2.971248
20
5.697643
11
2.971248
21
5.697643
0
LINE
8
annotation
62
1
39
211
10
2.971248
20
5.697643
11
2.972025
21
5.698605
0
LINE
8
annotation
62
1
39
211
10
2.972025
20
5.698605
11
2.972770
21
5.699575
0
LINE
8
annotation
62
1
39
211
10
2.972770
20
5.699575
11
2.973489
21
5.700561
0
LINE
8
annotation
62
1
39
211
10
2.973489
20
5.700561
11
2.974185
21
5.701572
0
LINE
8
annotation
62
1
39
211
10
2.974185
20
5.701572
11
2.974864
21
5.702615
0
LINE
8
annotation
62
1
39
211
10
2.974864
20
5.702615
11
2.975531
21
5.703699
0
LINE
8
annotation
62
1
39
211
10
2.975531
20
5.703699
11
2.976190
21
5.704833
0
LINE
8
annotation
62
1
39
211
10
2.976190
20
5.704833
11
2.976847
21
5.706023
0
LINE
8
annotation
62
1
39
211
10
2.976847
20
5.706023
11
2.977506
21
5.707279
0
LINE
8
annotation
62
1
39
211
10
2.977506
20
5.707279
11
2.977506
21
5.707279
0
LINE
8
annotation
62
1
39
211
10
2.977506
20
5.707279
11
3.004350
21
5.764914
0
LINE
8
annotation
62
1
39
211
10
3.004350
20
5.764914
11
3.020031
21
5.824657
0
LINE
8
annotation
62
1
39
211
10
3.020031
20
5.824657
11
3.024935
21
5.885159
0
LINE
8
annotation
62
1
39
211
10
3.024935
20
5.885159
11
3.019445
21
5.945070
0
LINE
8
annotation
62
1
39
211
10
3.019445
20
5.945070
11
3.003947
21
6.003039
0
LINE
8
annotation
62
1
39
211
10
3.003947
20
6.003039
11
2.978824
21
6.057718
0
LINE
8
annotation
62
1
39
211
10
2.978824
20
6.057718
11
2.944460
21
6.107755
0
LINE
8
annotation
62
1
39
211
10
2.944460
20
6.107755
11
2.901241
21
6.151802
0
LINE
8
annotation
62
1
39
211
10
2.901241
20
6.151802
11
2.849550
21
6.188508
0
LINE
8
annotation
62
1
39
211
10
2.849550
20
6.188508
11
2.849550
21
6.188508
0
LINE
8
annotation
62
1
39
211
10
2.849550
20
6.188508
11
2.791755
21
6.214969
0
LINE
8
annotation
62
1
39
211
10
2.791755
20
6.214969
11
2.731921
21
6.230409
0
LINE
8
annotation
62
1
39
211
10
2.731921
20
6.230409
11
2.671383
21
6.235174
0
LINE
8
annotation
62
1
39
211
10
2.671383
20
6.235174
11
2.611482
21
6.229612
0
LINE
8
annotation
62
1
39
211
10
2.611482
20
6.229612
11
2.553553
21
6.214071
0
LINE
8
annotation
62
1
39
211
10
2.553553
20
6.214071
11
2.498935
21
6.188898
0
LINE
8
annotation
62
1
39
211
10
2.498935
20
6.188898
11
2.448965
21
6.154440
0
LINE
8
annotation
62
1
39
211
10
2.448965
20
6.154440
11
2.404982
21
6.111045
0
LINE
8
annotation
62
1
39
211
10
2.404982
20
6.111045
11
2.368322
21
6.059061
0
LINE
8
annotation
62
1
39
211
10
2.368322
20
6.059061
11
2.322126
21
5.970445
0
LINE
8
frame
62
5
39
2
10
0.000000
20
0.000000
11
8.500000
21
0.000000
0
LINE
8
frame
62
5
39
2
10
8.500000
20
0.000000
11
8.500000
21
11.000000
0
LINE
8
frame
62
5
39
2
10
8.500000
20
11.000000
11
0.000000
21
11.000000
0
LINE
8
frame
62
5
39
2
10
0.000000
20
11.000000
11
0.000000
21
0.000000
0
ENDSEC
0
EOF
