0
SECTION
2
HEADER
9
$ACADVER
1
AC1009
0
ENDSEC
0
SECTION
2
TABLES
0
TABLE
2
VPORT
70
1
0
VPORT
2
ACTIVE
70
0
10
0.0
20
0.0
11
0.0
21
0.0
12
0.0
22
0.0
13
0.0
23
0.0
14
0.0
24
0.0
15
0.0
25
0.0
16
0.0
26
0.0
36
0.0
17
0.0
27
0.0
37
0.0
40
0.0
41
0.0
42
0.0
43
0.0
44
0.0
50
0.0
51
0.0
71
0
72
1000
73
1
74
3
75
0
76
0
77
0
78
0
0
ENDTAB
0
ENDSEC
0
SECTION
2
ENTITIES
0
LINE
8
hole
62
5
39
2
10
2.376017
20
3.783375
11
2.398517
21
3.783375
0
LINE
8
hole
62
5
39
2
10
2.398517
20
3.783375
11
2.398517
21
3.805875
0
LINE
8
hole
62
5
39
2
10
2.398517
20
3.805875
11
2.376017
21
3.805875
0
LINE
8
hole
62
5
39
2
10
2.376017
20
3.805875
11
2.376017
21
3.783375
0
LINE
8
hole
62
5
39
2
10
0.675548
20
2.251250
11
0.698048
21
2.251250
0
LINE
8
hole
62
5
39
2
10
0.698048
20
2.251250
11
0.698048
21
2.273750
0
LINE
8
hole
62
5
39
2
10
0.698048
20
2.273750
11
0.675548
21
2.273750
0
LINE
8
hole
62
5
39
2
10
0.675548
20
2.273750
11
0.675548
21
2.251250
0
LINE
8
hole
62
5
39
2
10
4.069930
20
2.251250
11
4.092430
21
2.251250
0
LINE
8
hole
62
5
39
2
10
4.092430
20
2.251250
11
4.092430
21
2.273750
0
LINE
8
hole
62
5
39
2
10
4.092430
20
2.273750
11
4.069930
21
2.273750
0
LINE
8
hole
62
5
39
2
10
4.069930
20
2.273750
11
4.069930
21
2.251250
0
LINE
8
hole
62
5
39
2
10
2.376017
20
0.719125
11
2.398517
21
0.719125
0
LINE
8
hole
62
5
39
2
10
2.398517
20
0.719125
11
2.398517
21
0.741625
0
LINE
8
hole
62
5
39
2
10
2.398517
20
0.741625
11
2.376017
21
0.741625
0
LINE
8
hole
62
5
39
2
10
2.376017
20
0.741625
11
2.376017
21
0.719125
0
LINE
8
boundary
62
5
39
2
10
1.060747
20
0.292340
11
1.080589
21
0.267016
0
LINE
8
boundary
62
5
39
2
10
1.080589
20
0.267016
11
1.116038
21
0.262500
0
LINE
8
boundary
62
5
39
2
10
1.116038
20
0.262500
11
3.232374
21
0.532127
0
LINE
8
boundary
62
5
39
2
10
3.232374
20
0.532127
11
4.416928
21
2.043949
0
LINE
8
boundary
62
5
39
2
10
4.416928
20
2.043949
11
4.505478
21
2.262500
0
LINE
8
boundary
62
5
39
2
10
4.505478
20
2.262500
11
4.416928
21
2.481051
0
LINE
8
boundary
62
5
39
2
10
4.416928
20
2.481051
11
3.232374
21
3.992873
0
LINE
8
boundary
62
5
39
2
10
3.232374
20
3.992873
11
1.116038
21
4.262500
0
LINE
8
boundary
62
5
39
2
10
1.116038
20
4.262500
11
1.080589
21
4.257984
0
LINE
8
boundary
62
5
39
2
10
1.080589
20
4.257984
11
1.060747
21
4.232660
0
LINE
8
boundary
62
5
39
2
10
1.060747
20
4.232660
11
0.262500
21
2.262500
0
LINE
8
boundary
62
5
39
2
10
0.262500
20
2.262500
11
1.060747
21
0.292340
0
LINE
8
annotation
62
1
39
211
10
2.387267
20
3.794625
11
2.387267
21
3.850875
0
LINE
8
annotation
62
1
39
211
10
2.387267
20
3.794625
11
2.387267
21
3.850875
0
LINE
8
annotation
62
1
39
211
10
2.387267
20
3.850875
11
2.387267
21
3.794625
0
LINE
8
annotation
62
1
39
211
10
2.387267
20
3.794625
11
2.443517
21
3.794625
0
LINE
8
annotation
62
1
39
211
10
2.387267
20
0.730375
11
2.387267
21
0.674125
0
LINE
8
annotation
62
1
39
211
10
4.081180
20
2.262500
11
4.081180
21
2.318750
0
LINE
8
annotation
62
1
39
211
10
4.081180
20
2.262500
11
4.081180
21
2.318750
0
LINE
8
annotation
62
1
39
211
10
4.081180
20
2.318750
11
4.081180
21
2.262500
0
LINE
8
annotation
62
1
39
211
10
4.081180
20
2.262500
11
4.081180
21
2.206250
0
LINE
8
annotation
62
1
39
211
10
0.686798
20
2.262500
11
0.743048
21
2.262500
0
LINE
8
annotation
62
1
39
211
10
0.686798
20
2.262500
11
0.743048
21
2.262500
0
LINE
8
annotation
62
1
39
211
10
0.743048
20
2.262500
11
0.686798
21
2.262500
0
LINE
8
annotation
62
1
39
211
10
0.686798
20
2.262500
11
0.686798
21
2.206250
0
LINE
8
annotation
62
1
39
211
10
1.433596
20
1.269544
11
1.433596
21
1.269544
0
LINE
8
annotation
62
1
39
211
10
1.433596
20
1.269544
11
1.559708
21
1.316539
0
LINE
8
annotation
62
1
39
211
10
1.559708
20
1.316539
11
1.675463
21
1.380062
0
LINE
8
annotation
62
1
39
211
10
1.675463
20
1.380062
11
1.779664
21
1.458494
0
LINE
8
annotation
62
1
39
211
10
1.779664
20
1.458494
11
1.871117
21
1.550216
0
LINE
8
annotation
62
1
39
211
10
1.871117
20
1.550216
11
1.948625
21
1.653610
0
LINE
8
annotation
62
1
39
211
10
1.948625
20
1.653610
11
2.010990
21
1.767057
0
LINE
8
annotation
62
1
39
211
10
2.010990
20
1.767057
11
2.057018
21
1.888940
0
LINE
8
annotation
62
1
39
211
10
2.057018
20
1.888940
11
2.085512
21
2.017638
0
LINE
8
annotation
62
1
39
211
10
2.085512
20
2.017638
11
2.095276
21
2.151535
0
LINE
8
annotation
62
1
39
211
10
2.095276
20
2.151535
11
2.095276
21
2.813838
0
LINE
8
annotation
62
1
39
211
10
2.095276
20
2.813838
11
2.095276
21
2.813838
0
LINE
8
annotation
62
1
39
211
10
2.095276
20
2.813838
11
2.088177
21
2.893173
0
LINE
8
annotation
62
1
39
211
10
2.088177
20
2.893173
11
2.067706
21
2.967862
0
LINE
8
annotation
62
1
39
211
10
2.067706
20
2.967862
11
2.035105
21
3.036653
0
LINE
8
annotation
62
1
39
211
10
2.035105
20
3.036653
11
1.991615
21
3.098295
0
LINE
8
annotation
62
1
39
211
10
1.991615
20
3.098295
11
1.938478
21
3.151536
0
LINE
8
annotation
62
1
39
211
10
1.938478
20
3.151536
11
1.876935
21
3.195123
0
LINE
8
annotation
62
1
39
211
10
1.876935
20
3.195123
11
1.808226
21
3.227807
0
LINE
8
annotation
62
1
39
211
10
1.808226
20
3.227807
11
1.733595
21
3.248335
0
LINE
8
annotation
62
1
39
211
10
1.733595
20
3.248335
11
1.654281
21
3.255456
0
LINE
8
annotation
62
1
39
211
10
1.654281
20
3.255456
11
1.654281
21
3.255456
0
LINE
8
annotation
62
1
39
211
10
1.654281
20
3.255456
11
1.575130
21
3.248335
0
LINE
8
annotation
62
1
39
211
10
1.575130
20
3.248335
11
1.500586
21
3.227807
0
LINE
8
annotation
62
1
39
211
10
1.500586
20
3.227807
11
1.431903
21
3.195123
0
LINE
8
annotation
62
1
39
211
10
1.431903
20
3.195123
11
1.370339
21
3.151536
0
LINE
8
annotation
62
1
39
211
10
1.370339
20
3.151536
11
1.317151
21
3.098295
0
LINE
8
annotation
62
1
39
211
10
1.317151
20
3.098295
11
1.273595
21
3.036653
0
LINE
8
annotation
62
1
39
211
10
1.273595
20
3.036653
11
1.240927
21
2.967862
0
LINE
8
annotation
62
1
39
211
10
1.240927
20
2.967862
11
1.220405
21
2.893173
0
LINE
8
annotation
62
1
39
211
10
1.220405
20
2.893173
11
1.213285
21
2.813838
0
LINE
8
annotation
62
1
39
211
10
1.213285
20
2.813838
11
1.213285
21
2.593029
0
LINE
8
annotation
62
1
39
211
10
1.213285
20
2.593029
11
1.213285
21
2.593029
0
LINE
8
annotation
62
1
39
211
10
1.213285
20
2.593029
11
1.220405
21
2.513698
0
LINE
8
annotation
62
1
39
211
10
1.220405
20
2.513698
11
1.240927
21
2.439020
0
LINE
8
annotation
62
1
39
211
10
1.240927
20
2.439020
11
1.273595
21
2.370245
0
LINE
8
annotation
62
1
39
211
10
1.273595
20
2.370245
11
1.317151
21
2.308623
0
LINE
8
annotation
62
1
39
211
10
1.317151
20
2.308623
11
1.370339
21
2.255404
0
LINE
8
annotation
62
1
39
211
10
1.370339
20
2.255404
11
1.431903
21
2.211835
0
LINE
8
annotation
62
1
39
211
10
1.431903
20
2.211835
11
1.500586
21
2.179168
0
LINE
8
annotation
62
1
39
211
10
1.500586
20
2.179168
11
1.575130
21
2.158652
0
LINE
8
annotation
62
1
39
211
10
1.575130
20
2.158652
11
1.654281
21
2.151535
0
LINE
8
annotation
62
1
39
211
10
1.654281
20
2.151535
11
2.095276
21
2.151535
0
LINE
8
annotation
62
1
39
211
10
1.158176
20
1.021305
11
2.151132
21
1.021305
0
LINE
8
hole
62
5
39
2
10
6.410317
20
3.367731
11
6.432817
21
3.367731
0
LINE
8
hole
62
5
39
2
10
6.432817
20
3.367731
11
6.432817
21
3.390231
0
LINE
8
hole
62
5
39
2
10
6.432817
20
3.390231
11
6.410317
21
3.390231
0
LINE
8
hole
62
5
39
2
10
6.410317
20
3.390231
11
6.410317
21
3.367731
0
LINE
8
hole
62
5
39
2
10
6.410317
20
0.597526
11
6.432817
21
0.597526
0
LINE
8
hole
62
5
39
2
10
6.432817
20
0.597526
11
6.432817
21
0.620026
0
LINE
8
hole
62
5
39
2
10
6.432817
20
0.620026
11
6.410317
21
0.620026
0
LINE
8
hole
62
5
39
2
10
6.410317
20
0.620026
11
6.410317
21
0.597526
0
LINE
8
hole
62
5
39
2
10
7.661998
20
1.982628
11
7.684498
21
1.982628
0
LINE
8
hole
62
5
39
2
10
7.684498
20
1.982628
11
7.684498
21
2.005128
0
LINE
8
hole
62
5
39
2
10
7.684498
20
2.005128
11
7.661998
21
2.005128
0
LINE
8
hole
62
5
39
2
10
7.661998
20
2.005128
11
7.661998
21
1.982628
0
LINE
8
hole
62
5
39
2
10
5.013042
20
1.982628
11
5.035542
21
1.982628
0
LINE
8
hole
62
5
39
2
10
5.035542
20
1.982628
11
5.035542
21
2.005128
0
LINE
8
hole
62
5
39
2
10
5.035542
20
2.005128
11
5.013042
21
2.005128
0
LINE
8
hole
62
5
39
2
10
5.013042
20
2.005128
11
5.013042
21
1.982628
0
LINE
8
boundary
62
5
39
2
10
4.630478
20
1.993878
11
5.145223
21
0.723432
0
LINE
8
boundary
62
5
39
2
10
5.145223
20
0.723432
11
5.901855
21
0.262500
0
LINE
8
boundary
62
5
39
2
10
5.901855
20
0.262500
11
7.297008
21
0.440247
0
LINE
8
boundary
62
5
39
2
10
7.297008
20
0.440247
11
8.212656
21
1.608869
0
LINE
8
boundary
62
5
39
2
10
8.212656
20
1.608869
11
8.212656
21
2.378888
0
LINE
8
boundary
62
5
39
2
10
8.212656
20
2.378888
11
7.297008
21
3.547510
0
LINE
8
boundary
62
5
39
2
10
7.297008
20
3.547510
11
5.901855
21
3.725257
0
LINE
8
boundary
62
5
39
2
10
5.901855
20
3.725257
11
5.145223
21
3.264325
0
LINE
8
boundary
62
5
39
2
10
5.145223
20
3.264325
11
4.630478
21
1.993878
0
LINE
8
annotation
62
1
39
211
10
7.673248
20
1.993878
11
7.673248
21
2.050128
0
LINE
8
annotation
62
1
39
211
10
7.673248
20
1.993878
11
7.673248
21
2.050128
0
LINE
8
annotation
62
1
39
211
10
7.673248
20
2.050128
11
7.673248
21
1.993878
0
LINE
8
annotation
62
1
39
211
10
7.673248
20
1.993878
11
7.729498
21
1.993878
0
LINE
8
annotation
62
1
39
211
10
5.024292
20
1.993878
11
5.024292
21
1.937628
0
LINE
8
annotation
62
1
39
211
10
6.421567
20
3.378981
11
6.421567
21
3.435231
0
LINE
8
annotation
62
1
39
211
10
6.421567
20
3.378981
11
6.421567
21
3.435231
0
LINE
8
annotation
62
1
39
211
10
6.421567
20
3.435231
11
6.421567
21
3.378981
0
LINE
8
annotation
62
1
39
211
10
6.421567
20
3.378981
11
6.421567
21
3.322731
0
LINE
8
annotation
62
1
39
211
10
6.421567
20
0.608776
11
6.477817
21
0.608776
0
LINE
8
annotation
62
1
39
211
10
6.421567
20
0.608776
11
6.477817
21
0.608776
0
LINE
8
annotation
62
1
39
211
10
6.477817
20
0.608776
11
6.421567
21
0.608776
0
LINE
8
annotation
62
1
39
211
10
6.421567
20
0.608776
11
6.421567
21
0.552526
0
LINE
8
annotation
62
1
39
211
10
6.790599
20
2.896678
11
6.790599
21
2.896678
0
LINE
8
annotation
62
1
39
211
10
6.790599
20
2.896678
11
6.675735
21
2.853611
0
LINE
8
annotation
62
1
39
211
10
6.675735
20
2.853611
11
6.570333
21
2.795583
0
LINE
8
annotation
62
1
39
211
10
6.570333
20
2.795583
11
6.475474
21
2.724049
0
LINE
8
annotation
62
1
39
211
10
6.475474
20
2.724049
11
6.392240
21
2.640462
0
LINE
8
annotation
62
1
39
211
10
6.392240
20
2.640462
11
6.321713
21
2.546276
0
LINE
8
annotation
62
1
39
211
10
6.321713
20
2.546276
11
6.264975
21
2.442944
0
LINE
8
annotation
62
1
39
211
10
6.264975
20
2.442944
11
6.223109
21
2.331921
0
LINE
8
annotation
62
1
39
211
10
6.223109
20
2.331921
11
6.197196
21
2.214661
0
LINE
8
annotation
62
1
39
211
10
6.197196
20
2.214661
11
6.188317
21
2.092617
0
LINE
8
annotation
62
1
39
211
10
6.188317
20
2.092617
11
6.188317
21
1.492487
0
LINE
8
annotation
62
1
39
211
10
6.188317
20
1.492487
11
6.188317
21
1.492487
0
LINE
8
annotation
62
1
39
211
10
6.188317
20
1.492487
11
6.194791
21
1.420359
0
LINE
8
annotation
62
1
39
211
10
6.194791
20
1.420359
11
6.213450
21
1.352461
0
LINE
8
annotation
62
1
39
211
10
6.213450
20
1.352461
11
6.243151
21
1.289931
0
LINE
8
annotation
62
1
39
211
10
6.243151
20
1.289931
11
6.282753
21
1.233905
0
LINE
8
annotation
62
1
39
211
10
6.282753
20
1.233905
11
6.331112
21
1.185517
0
LINE
8
annotation
62
1
39
211
10
6.331112
20
1.185517
11
6.387086
21
1.145904
0
LINE
8
annotation
62
1
39
211
10
6.387086
20
1.145904
11
6.449532
21
1.116203
0
LINE
8
annotation
62
1
39
211
10
6.449532
20
1.116203
11
6.517308
21
1.097550
0
LINE
8
annotation
62
1
39
211
10
6.517308
20
1.097550
11
6.589272
21
1.091079
0
LINE
8
annotation
62
1
39
211
10
6.589272
20
1.091079
11
6.589272
21
1.091079
0
LINE
8
annotation
62
1
39
211
10
6.589272
20
1.091079
11
6.661385
21
1.097550
0
LINE
8
annotation
62
1
39
211
10
6.661385
20
1.097550
11
6.729240
21
1.116203
0
LINE
8
annotation
62
1
39
211
10
6.729240
20
1.116203
11
6.791710
21
1.145904
0
LINE
8
annotation
62
1
39
211
10
6.791710
20
1.145904
11
6.847665
21
1.185517
0
LINE
8
annotation
62
1
39
211
10
6.847665
20
1.185517
11
6.895978
21
1.233905
0
LINE
8
annotation
62
1
39
211
10
6.895978
20
1.233905
11
6.935519
21
1.289931
0
LINE
8
annotation
62
1
39
211
10
6.935519
20
1.289931
11
6.965160
21
1.352461
0
LINE
8
annotation
62
1
39
211
10
6.965160
20
1.352461
11
6.983772
21
1.420359
0
LINE
8
annotation
62
1
39
211
10
6.983772
20
1.420359
11
6.990227
21
1.492487
0
LINE
8
annotation
62
1
39
211
10
6.990227
20
1.492487
11
6.990227
21
1.692228
0
LINE
8
annotation
62
1
39
211
10
6.990227
20
1.692228
11
6.990227
21
1.692228
0
LINE
8
annotation
62
1
39
211
10
6.990227
20
1.692228
11
6.983772
21
1.764321
0
LINE
8
annotation
62
1
39
211
10
6.983772
20
1.764321
11
6.965160
21
1.832125
0
LINE
8
annotation
62
1
39
211
10
6.965160
20
1.832125
11
6.935519
21
1.894519
0
LINE
8
annotation
62
1
39
211
10
6.935519
20
1.894519
11
6.895978
21
1.950386
0
LINE
8
annotation
62
1
39
211
10
6.895978
20
1.950386
11
6.847665
21
1.998604
0
LINE
8
annotation
62
1
39
211
10
6.847665
20
1.998604
11
6.791710
21
2.038056
0
LINE
8
annotation
62
1
39
211
10
6.791710
20
2.038056
11
6.729240
21
2.067621
0
LINE
8
annotation
62
1
39
211
10
6.729240
20
2.067621
11
6.661385
21
2.086181
0
LINE
8
annotation
62
1
39
211
10
6.661385
20
2.086181
11
6.589272
21
2.092617
0
LINE
8
annotation
62
1
39
211
10
6.589272
20
2.092617
11
6.188317
21
2.092617
0
LINE
8
annotation
62
1
39
211
10
6.138099
20
0.865379
11
7.040898
21
0.865379
0
LINE
8
hole
62
5
39
2
10
0.738242
20
6.376250
11
0.760742
21
6.376250
0
LINE
8
hole
62
5
39
2
10
0.760742
20
6.376250
11
0.760742
21
6.398750
0
LINE
8
hole
62
5
39
2
10
0.760742
20
6.398750
11
0.738242
21
6.398750
0
LINE
8
hole
62
5
39
2
10
0.738242
20
6.398750
11
0.738242
21
6.376250
0
LINE
8
hole
62
5
39
2
10
4.132625
20
6.376250
11
4.155125
21
6.376250
0
LINE
8
hole
62
5
39
2
10
4.155125
20
6.376250
11
4.155125
21
6.398750
0
LINE
8
hole
62
5
39
2
10
4.155125
20
6.398750
11
4.132625
21
6.398750
0
LINE
8
hole
62
5
39
2
10
4.132625
20
6.398750
11
4.132625
21
6.376250
0
LINE
8
hole
62
5
39
2
10
2.372739
20
7.976250
11
2.395239
21
7.976250
0
LINE
8
hole
62
5
39
2
10
2.395239
20
7.976250
11
2.395239
21
7.998750
0
LINE
8
hole
62
5
39
2
10
2.395239
20
7.998750
11
2.372739
21
7.998750
0
LINE
8
hole
62
5
39
2
10
2.372739
20
7.998750
11
2.372739
21
7.976250
0
LINE
8
hole
62
5
39
2
10
2.372739
20
4.776250
11
2.395239
21
4.776250
0
LINE
8
hole
62
5
39
2
10
2.395239
20
4.776250
11
2.395239
21
4.798750
0
LINE
8
hole
62
5
39
2
10
2.395239
20
4.798750
11
2.372739
21
4.798750
0
LINE
8
hole
62
5
39
2
10
2.372739
20
4.798750
11
2.372739
21
4.776250
0
LINE
8
boundary
62
5
39
2
10
0.903036
20
4.806587
11
1.181703
21
4.450930
0
LINE
8
boundary
62
5
39
2
10
1.181703
20
4.450930
11
1.679572
21
4.387500
0
LINE
8
boundary
62
5
39
2
10
1.679572
20
4.387500
11
3.333488
21
4.598214
0
LINE
8
boundary
62
5
39
2
10
3.333488
20
4.598214
11
4.259218
21
5.779703
0
LINE
8
boundary
62
5
39
2
10
4.259218
20
5.779703
11
4.505478
21
6.387500
0
LINE
8
boundary
62
5
39
2
10
4.505478
20
6.387500
11
4.259218
21
6.995297
0
LINE
8
boundary
62
5
39
2
10
4.259218
20
6.995297
11
3.333488
21
8.176786
0
LINE
8
boundary
62
5
39
2
10
3.333488
20
8.176786
11
1.679572
21
8.387500
0
LINE
8
boundary
62
5
39
2
10
1.679572
20
8.387500
11
1.181703
21
8.324070
0
LINE
8
boundary
62
5
39
2
10
1.181703
20
8.324070
11
0.903036
21
7.968413
0
LINE
8
boundary
62
5
39
2
10
0.903036
20
7.968413
11
0.262500
21
6.387500
0
LINE
8
boundary
62
5
39
2
10
0.262500
20
6.387500
11
0.903036
21
4.806587
0
LINE
8
annotation
62
1
39
211
10
4.143875
20
6.387500
11
4.143875
21
6.443750
0
LINE
8
annotation
62
1
39
211
10
4.143875
20
6.387500
11
4.143875
21
6.443750
0
LINE
8
annotation
62
1
39
211
10
4.143875
20
6.443750
11
4.143875
21
6.387500
0
LINE
8
annotation
62
1
39
211
10
4.143875
20
6.387500
11
4.143875
21
6.331250
0
LINE
8
annotation
62
1
39
211
10
0.749492
20
6.387500
11
0.805742
21
6.387500
0
LINE
8
annotation
62
1
39
211
10
0.749492
20
6.387500
11
0.805742
21
6.387500
0
LINE
8
annotation
62
1
39
211
10
0.805742
20
6.387500
11
0.749492
21
6.387500
0
LINE
8
annotation
62
1
39
211
10
0.749492
20
6.387500
11
0.749492
21
6.331250
0
LINE
8
annotation
62
1
39
211
10
2.383989
20
7.987500
11
2.383989
21
8.043750
0
LINE
8
annotation
62
1
39
211
10
2.383989
20
4.787500
11
2.440239
21
4.787500
0
LINE
8
annotation
62
1
39
211
10
1.685133
20
5.547306
11
1.685133
21
7.227694
0
LINE
8
annotation
62
1
39
211
10
1.685133
20
7.227694
11
1.311562
21
6.854017
0
LINE
8
annotation
62
1
39
211
10
2.585141
20
5.569471
11
2.585141
21
5.569471
0
LINE
8
annotation
62
1
39
211
10
2.585141
20
5.569471
11
2.624195
21
5.554872
0
LINE
8
annotation
62
1
39
211
10
2.624195
20
5.554872
11
2.664249
21
5.547618
0
LINE
8
annotation
62
1
39
211
10
2.664249
20
5.547618
11
2.704396
21
5.547416
0
LINE
8
annotation
62
1
39
211
10
2.704396
20
5.547416
11
2.743731
21
5.553968
0
LINE
8
annotation
62
1
39
211
10
2.743731
20
5.553968
11
2.781349
21
5.566978
0
LINE
8
annotation
62
1
39
211
10
2.781349
20
5.566978
11
2.816344
21
5.586153
0
LINE
8
annotation
62
1
39
211
10
2.816344
20
5.586153
11
2.847811
21
5.611194
0
LINE
8
annotation
62
1
39
211
10
2.847811
20
5.611194
11
2.874844
21
5.641807
0
LINE
8
annotation
62
1
39
211
10
2.874844
20
5.641807
11
2.896538
21
5.677696
0
LINE
8
annotation
62
1
39
211
10
2.896538
20
5.677696
11
2.896538
21
5.677696
0
LINE
8
annotation
62
1
39
211
10
2.896538
20
5.677696
11
2.961265
21
5.829205
0
LINE
8
annotation
62
1
39
211
10
2.961265
20
5.829205
11
3.009810
21
5.985099
0
LINE
8
annotation
62
1
39
211
10
3.009810
20
5.985099
11
3.042173
21
6.144135
0
LINE
8
annotation
62
1
39
211
10
3.042173
20
6.144135
11
3.058355
21
6.305071
0
LINE
8
annotation
62
1
39
211
10
3.058355
20
6.305071
11
3.058355
21
6.466663
0
LINE
8
annotation
62
1
39
211
10
3.058355
20
6.466663
11
3.042173
21
6.627669
0
LINE
8
annotation
62
1
39
211
10
3.042173
20
6.627669
11
3.009810
21
6.786845
0
LINE
8
annotation
62
1
39
211
10
3.009810
20
6.786845
11
2.961265
21
6.942950
0
LINE
8
annotation
62
1
39
211
10
2.961265
20
6.942950
11
2.896538
21
7.094739
0
LINE
8
annotation
62
1
39
211
10
2.896538
20
7.094739
11
2.896538
21
7.094739
0
LINE
8
annotation
62
1
39
211
10
2.896538
20
7.094739
11
2.888307
21
7.110058
0
LINE
8
annotation
62
1
39
211
10
2.888307
20
7.110058
11
2.878975
21
7.124704
0
LINE
8
annotation
62
1
39
211
10
2.878975
20
7.124704
11
2.868613
21
7.138605
0
LINE
8
annotation
62
1
39
211
10
2.868613
20
7.138605
11
2.857290
21
7.151688
0
LINE
8
annotation
62
1
39
211
10
2.857290
20
7.151688
11
2.845078
21
7.163883
0
LINE
8
annotation
62
1
39
211
10
2.845078
20
7.163883
11
2.832046
21
7.175117
0
LINE
8
annotation
62
1
39
211
10
2.832046
20
7.175117
11
2.818265
21
7.185318
0
LINE
8
annotation
62
1
39
211
10
2.818265
20
7.185318
11
2.803804
21
7.194413
0
LINE
8
annotation
62
1
39
211
10
2.803804
20
7.194413
11
2.788735
21
7.202332
0
LINE
8
annotation
62
1
39
211
10
2.788735
20
7.202332
11
2.788735
21
7.202332
0
LINE
8
annotation
62
1
39
211
10
2.788735
20
7.202332
11
2.749370
21
7.217248
0
LINE
8
annotation
62
1
39
211
10
2.749370
20
7.217248
11
2.709082
21
7.224749
0
LINE
8
annotation
62
1
39
211
10
2.709082
20
7.224749
11
2.668766
21
7.225133
0
LINE
8
annotation
62
1
39
211
10
2.668766
20
7.225133
11
2.629315
21
7.218697
0
LINE
8
annotation
62
1
39
211
10
2.629315
20
7.218697
11
2.591627
21
7.205739
0
LINE
8
annotation
62
1
39
211
10
2.591627
20
7.205739
11
2.556595
21
7.186556
0
LINE
8
annotation
62
1
39
211
10
2.556595
20
7.186556
11
2.525114
21
7.161446
0
LINE
8
annotation
62
1
39
211
10
2.525114
20
7.161446
11
2.498081
21
7.130706
0
LINE
8
annotation
62
1
39
211
10
2.498081
20
7.130706
11
2.476389
21
7.094634
0
LINE
8
annotation
62
1
39
211
10
2.476389
20
7.094634
11
2.476389
21
7.094634
0
LINE
8
annotation
62
1
39
211
10
2.476389
20
7.094634
11
2.411974
21
6.943157
0
LINE
8
annotation
62
1
39
211
10
2.411974
20
6.943157
11
2.363664
21
6.787286
0
LINE
8
annotation
62
1
39
211
10
2.363664
20
6.787286
11
2.331456
21
6.628266
0
LINE
8
annotation
62
1
39
211
10
2.331456
20
6.628266
11
2.315353
21
6.467338
0
LINE
8
annotation
62
1
39
211
10
2.315353
20
6.467338
11
2.315353
21
6.305746
0
LINE
8
annotation
62
1
39
211
10
2.315353
20
6.305746
11
2.331456
21
6.144732
0
LINE
8
annotation
62
1
39
211
10
2.331456
20
6.144732
11
2.363664
21
5.985540
0
LINE
8
annotation
62
1
39
211
10
2.363664
20
5.985540
11
2.411974
21
5.829412
0
LINE
8
annotation
62
1
39
211
10
2.411974
20
5.829412
11
2.476389
21
5.677591
0
LINE
8
annotation
62
1
39
211
10
2.476389
20
5.677591
11
2.476389
21
5.677591
0
LINE
8
annotation
62
1
39
211
10
2.476389
20
5.677591
11
2.484590
21
5.662303
0
LINE
8
annotation
62
1
39
211
10
2.484590
20
5.662303
11
2.493853
21
5.647730
0
LINE
8
annotation
62
1
39
211
10
2.493853
20
5.647730
11
2.504139
21
5.633917
0
LINE
8
annotation
62
1
39
211
10
2.504139
20
5.633917
11
2.515408
21
5.620908
0
LINE
8
annotation
62
1
39
211
10
2.515408
20
5.620908
11
2.527622
21
5.608747
0
LINE
8
annotation
62
1
39
211
10
2.527622
20
5.608747
11
2.540741
21
5.597479
0
LINE
8
annotation
62
1
39
211
10
2.540741
20
5.597479
11
2.554726
21
5.587147
0
LINE
8
annotation
62
1
39
211
10
2.554726
20
5.587147
11
2.569539
21
5.577797
0
LINE
8
annotation
62
1
39
211
10
2.569539
20
5.577797
11
2.585141
21
5.569471
0
LINE
8
hole
62
5
39
2
10
6.269774
20
7.483542
11
6.292274
21
7.483542
0
LINE
8
hole
62
5
39
2
10
6.292274
20
7.483542
11
6.292274
21
7.506042
0
LINE
8
hole
62
5
39
2
10
6.292274
20
7.506042
11
6.269774
21
7.506042
0
LINE
8
hole
62
5
39
2
10
6.269774
20
7.506042
11
6.269774
21
7.483542
0
LINE
8
hole
62
5
39
2
10
6.269774
20
4.639826
11
6.292274
21
4.639826
0
LINE
8
hole
62
5
39
2
10
6.292274
20
4.639826
11
6.292274
21
4.662326
0
LINE
8
hole
62
5
39
2
10
6.292274
20
4.662326
11
6.269774
21
4.662326
0
LINE
8
hole
62
5
39
2
10
6.269774
20
4.662326
11
6.269774
21
4.639826
0
LINE
8
hole
62
5
39
2
10
7.721246
20
6.061684
11
7.743746
21
6.061684
0
LINE
8
hole
62
5
39
2
10
7.743746
20
6.061684
11
7.743746
21
6.084184
0
LINE
8
hole
62
5
39
2
10
7.743746
20
6.084184
11
7.721246
21
6.084184
0
LINE
8
hole
62
5
39
2
10
7.721246
20
6.084184
11
7.721246
21
6.061684
0
LINE
8
hole
62
5
39
2
10
4.963897
20
6.061684
11
4.986397
21
6.061684
0
LINE
8
hole
62
5
39
2
10
4.986397
20
6.061684
11
4.986397
21
6.084184
0
LINE
8
hole
62
5
39
2
10
4.986397
20
6.084184
11
4.963897
21
6.084184
0
LINE
8
hole
62
5
39
2
10
4.963897
20
6.084184
11
4.963897
21
6.061684
0
LINE
8
boundary
62
5
39
2
10
5.461192
20
4.548759
11
6.726932
21
4.387500
0
LINE
8
boundary
62
5
39
2
10
6.726932
20
4.387500
11
7.612977
21
4.927269
0
LINE
8
boundary
62
5
39
2
10
7.612977
20
4.927269
11
8.077165
21
6.072934
0
LINE
8
boundary
62
5
39
2
10
8.077165
20
6.072934
11
7.612977
21
7.218599
0
LINE
8
boundary
62
5
39
2
10
7.612977
20
7.218599
11
6.726932
21
7.758368
0
LINE
8
boundary
62
5
39
2
10
6.726932
20
7.758368
11
5.461192
21
7.597109
0
LINE
8
boundary
62
5
39
2
10
5.461192
20
7.597109
11
4.630478
21
6.536886
0
LINE
8
boundary
62
5
39
2
10
4.630478
20
6.536886
11
4.630478
21
5.608982
0
LINE
8
boundary
62
5
39
2
10
4.630478
20
5.608982
11
5.461192
21
4.548759
0
LINE
8
annotation
62
1
39
211
10
6.662415
20
4.574352
11
7.480789
21
5.072897
0
LINE
8
annotation
62
1
39
211
10
7.480791
20
7.072966
11
6.662411
21
7.571516
0
LINE
8
annotation
62
1
39
211
10
4.838769
20
6.515414
11
4.838767
21
5.630456
0
LINE
8
annotation
62
1
39
211
10
6.281024
20
7.494792
11
6.281024
21
7.551042
0
LINE
8
annotation
62
1
39
211
10
6.281024
20
4.651076
11
6.337274
21
4.651076
0
LINE
8
annotation
62
1
39
211
10
7.732496
20
6.072934
11
7.732496
21
6.129184
0
LINE
8
annotation
62
1
39
211
10
7.732496
20
6.072934
11
7.732496
21
6.129184
0
LINE
8
annotation
62
1
39
211
10
7.732496
20
6.129184
11
7.732496
21
6.072934
0
LINE
8
annotation
62
1
39
211
10
7.732496
20
6.072934
11
7.788746
21
6.072934
0
LINE
8
annotation
62
1
39
211
10
4.975147
20
6.072934
11
4.975147
21
6.016684
0
LINE
8
annotation
62
1
39
211
10
5.892117
20
5.336562
11
5.892117
21
6.701587
0
LINE
8
annotation
62
1
39
211
10
5.892117
20
6.701587
11
5.588655
21
6.398038
0
LINE
8
annotation
62
1
39
211
10
6.707464
20
5.336562
11
7.010926
21
6.701587
0
LINE
8
annotation
62
1
39
211
10
7.010926
20
6.701587
11
6.403916
21
6.701587
0
LINE
8
annotation
62
1
39
211
10
7.010926
20
6.093720
11
6.707464
21
6.093720
0
LINE
8
hole
62
5
39
2
10
4.701412
20
9.281886
11
4.723912
21
9.281886
0
LINE
8
hole
62
5
39
2
10
4.723912
20
9.281886
11
4.723912
21
9.304386
0
LINE
8
hole
62
5
39
2
10
4.723912
20
9.304386
11
4.701412
21
9.304386
0
LINE
8
hole
62
5
39
2
10
4.701412
20
9.304386
11
4.701412
21
9.281886
0
LINE
8
hole
62
5
39
2
10
7.025189
20
9.281886
11
7.047689
21
9.281886
0
LINE
8
hole
62
5
39
2
10
7.047689
20
9.281886
11
7.047689
21
9.304386
0
LINE
8
hole
62
5
39
2
10
7.047689
20
9.304386
11
7.025189
21
9.304386
0
LINE
8
hole
62
5
39
2
10
7.025189
20
9.304386
11
7.025189
21
9.281886
0
LINE
8
hole
62
5
39
2
10
5.776923
20
10.122234
11
5.799423
21
10.122234
0
LINE
8
hole
62
5
39
2
10
5.799423
20
10.122234
11
5.799423
21
10.144734
0
LINE
8
hole
62
5
39
2
10
5.799423
20
10.144734
11
5.776923
21
10.144734
0
LINE
8
hole
62
5
39
2
10
5.776923
20
10.144734
11
5.776923
21
10.122234
0
LINE
8
hole
62
5
39
2
10
5.814423
20
8.460289
11
5.836923
21
8.460289
0
LINE
8
hole
62
5
39
2
10
5.836923
20
8.460289
11
5.836923
21
8.482789
0
LINE
8
hole
62
5
39
2
10
5.836923
20
8.482789
11
5.814423
21
8.482789
0
LINE
8
hole
62
5
39
2
10
5.814423
20
8.482789
11
5.814423
21
8.460289
0
LINE
8
boundary
62
5
39
2
10
4.951587
20
7.945702
11
5.440853
21
7.883368
0
LINE
8
boundary
62
5
39
2
10
5.440853
20
7.883368
11
7.103373
21
8.896157
0
LINE
8
boundary
62
5
39
2
10
7.103373
20
8.896157
11
7.264216
21
9.293136
0
LINE
8
boundary
62
5
39
2
10
7.264216
20
9.293136
11
7.103373
21
9.690116
0
LINE
8
boundary
62
5
39
2
10
7.103373
20
9.690116
11
5.440853
21
10.702905
0
LINE
8
boundary
62
5
39
2
10
5.440853
20
10.702905
11
4.951587
21
10.640571
0
LINE
8
boundary
62
5
39
2
10
4.951587
20
10.640571
11
4.630478
21
10.230746
0
LINE
8
boundary
62
5
39
2
10
4.630478
20
10.230746
11
4.630478
21
8.355527
0
LINE
8
boundary
62
5
39
2
10
4.630478
20
8.355527
11
4.951587
21
7.945702
0
LINE
8
annotation
62
1
39
211
10
5.376334
20
8.070221
11
6.971185
21
9.041787
0
LINE
8
annotation
62
1
39
211
10
6.971185
20
9.544487
11
5.376337
21
10.516053
0
LINE
8
annotation
62
1
39
211
10
4.838766
20
10.209270
11
4.838765
21
8.377003
0
LINE
8
annotation
62
1
39
211
10
7.036439
20
9.293136
11
7.036439
21
9.349386
0
LINE
8
annotation
62
1
39
211
10
4.712662
20
9.293136
11
4.768912
21
9.293136
0
LINE
8
annotation
62
1
39
211
10
5.788173
20
10.133484
11
5.788173
21
10.189734
0
LINE
8
annotation
62
1
39
211
10
5.788173
20
10.133484
11
5.788173
21
10.189734
0
LINE
8
annotation
62
1
39
211
10
5.788173
20
10.189734
11
5.788173
21
10.133484
0
LINE
8
annotation
62
1
39
211
10
5.788173
20
10.133484
11
5.844423
21
10.133484
0
LINE
8
annotation
62
1
39
211
10
5.825673
20
8.471539
11
5.825673
21
8.415289
0
LINE
8
annotation
62
1
39
211
10
5.311116
20
8.843016
11
4.950439
21
8.843016
0
LINE
8
annotation
62
1
39
211
10
4.950439
20
8.843016
11
5.283716
21
9.379549
0
LINE
8
annotation
62
1
39
211
10
5.283716
20
9.379549
11
5.283716
21
9.379549
0
LINE
8
annotation
62
1
39
211
10
5.283716
20
9.379549
11
5.284115
21
9.380042
0
LINE
8
annotation
62
1
39
211
10
5.284115
20
9.380042
11
5.284497
21
9.380540
0
LINE
8
annotation
62
1
39
211
10
5.284497
20
9.380540
11
5.284865
21
9.381045
0
LINE
8
annotation
62
1
39
211
10
5.284865
20
9.381045
11
5.285222
21
9.381563
0
LINE
8
annotation
62
1
39
211
10
5.285222
20
9.381563
11
5.285570
21
9.382098
0
LINE
8
annotation
62
1
39
211
10
5.285570
20
9.382098
11
5.285912
21
9.382654
0
LINE
8
annotation
62
1
39
211
10
5.285912
20
9.382654
11
5.286250
21
9.383235
0
LINE
8
annotation
62
1
39
211
10
5.286250
20
9.383235
11
5.286587
21
9.383846
0
LINE
8
annotation
62
1
39
211
10
5.286587
20
9.383846
11
5.286925
21
9.384489
0
LINE
8
annotation
62
1
39
211
10
5.286925
20
9.384489
11
5.286925
21
9.384489
0
LINE
8
annotation
62
1
39
211
10
5.286925
20
9.384489
11
5.300686
21
9.414035
0
LINE
8
annotation
62
1
39
211
10
5.300686
20
9.414035
11
5.308724
21
9.444662
0
LINE
8
annotation
62
1
39
211
10
5.308724
20
9.444662
11
5.311238
21
9.475678
0
LINE
8
annotation
62
1
39
211
10
5.311238
20
9.475678
11
5.308424
21
9.506391
0
LINE
8
annotation
62
1
39
211
10
5.308424
20
9.506391
11
5.300479
21
9.536109
0
LINE
8
annotation
62
1
39
211
10
5.300479
20
9.536109
11
5.287600
21
9.564139
0
LINE
8
annotation
62
1
39
211
10
5.287600
20
9.564139
11
5.269984
21
9.589791
0
LINE
8
annotation
62
1
39
211
10
5.269984
20
9.589791
11
5.247828
21
9.612371
0
LINE
8
annotation
62
1
39
211
10
5.247828
20
9.612371
11
5.221329
21
9.631188
0
LINE
8
annotation
62
1
39
211
10
5.221329
20
9.631188
11
5.221329
21
9.631188
0
LINE
8
annotation
62
1
39
211
10
5.221329
20
9.631188
11
5.191701
21
9.644753
0
LINE
8
annotation
62
1
39
211
10
5.191701
20
9.644753
11
5.161027
21
9.652668
0
LINE
8
annotation
62
1
39
211
10
5.161027
20
9.652668
11
5.129993
21
9.655111
0
LINE
8
annotation
62
1
39
211
10
5.129993
20
9.655111
11
5.099285
21
9.652260
0
LINE
8
annotation
62
1
39
211
10
5.099285
20
9.652260
11
5.069588
21
9.644292
0
LINE
8
annotation
62
1
39
211
10
5.069588
20
9.644292
11
5.041588
21
9.631388
0
LINE
8
annotation
62
1
39
211
10
5.041588
20
9.631388
11
5.015972
21
9.613723
0
LINE
8
annotation
62
1
39
211
10
5.015972
20
9.613723
11
4.993424
21
9.591477
0
LINE
8
annotation
62
1
39
211
10
4.993424
20
9.591477
11
4.974630
21
9.564828
0
LINE
8
annotation
62
1
39
211
10
4.974630
20
9.564828
11
4.950949
21
9.519399
0
LINE
8
annotation
62
1
39
211
10
5.746164
20
8.853735
11
5.746164
21
8.853735
0
LINE
8
annotation
62
1
39
211
10
5.746164
20
8.853735
11
5.765038
21
8.846679
0
LINE
8
annotation
62
1
39
211
10
5.765038
20
8.846679
11
5.784395
21
8.843174
0
LINE
8
annotation
62
1
39
211
10
5.784395
20
8.843174
11
5.803798
21
8.843076
0
LINE
8
annotation
62
1
39
211
10
5.803798
20
8.843076
11
5.822808
21
8.846242
0
LINE
8
annotation
62
1
39
211
10
5.822808
20
8.846242
11
5.840988
21
8.852530
0
LINE
8
annotation
62
1
39
211
10
5.840988
20
8.852530
11
5.857901
21
8.861797
0
LINE
8
annotation
62
1
39
211
10
5.857901
20
8.861797
11
5.873108
21
8.873899
0
LINE
8
annotation
62
1
39
211
10
5.873108
20
8.873899
11
5.886173
21
8.888694
0
LINE
8
annotation
62
1
39
211
10
5.886173
20
8.888694
11
5.896658
21
8.906039
0
LINE
8
annotation
62
1
39
211
10
5.896658
20
8.906039
11
5.896658
21
8.906039
0
LINE
8
annotation
62
1
39
211
10
5.896658
20
8.906039
11
5.927939
21
8.979261
0
LINE
8
annotation
62
1
39
211
10
5.927939
20
8.979261
11
5.951400
21
9.054602
0
LINE
8
annotation
62
1
39
211
10
5.951400
20
9.054602
11
5.967041
21
9.131462
0
LINE
8
annotation
62
1
39
211
10
5.967041
20
9.131462
11
5.974861
21
9.209240
0
LINE
8
annotation
62
1
39
211
10
5.974861
20
9.209240
11
5.974861
21
9.287335
0
LINE
8
annotation
62
1
39
211
10
5.974861
20
9.287335
11
5.967041
21
9.365147
0
LINE
8
annotation
62
1
39
211
10
5.967041
20
9.365147
11
5.951400
21
9.442075
0
LINE
8
annotation
62
1
39
211
10
5.951400
20
9.442075
11
5.927939
21
9.517518
0
LINE
8
annotation
62
1
39
211
10
5.927939
20
9.517518
11
5.896658
21
9.590876
0
LINE
8
annotation
62
1
39
211
10
5.896658
20
9.590876
11
5.896658
21
9.590876
0
LINE
8
annotation
62
1
39
211
10
5.896658
20
9.590876
11
5.892680
21
9.598279
0
LINE
8
annotation
62
1
39
211
10
5.892680
20
9.598279
11
5.888169
21
9.605357
0
LINE
8
annotation
62
1
39
211
10
5.888169
20
9.605357
11
5.883162
21
9.612075
0
LINE
8
annotation
62
1
39
211
10
5.883162
20
9.612075
11
5.877690
21
9.618398
0
LINE
8
annotation
62
1
39
211
10
5.877690
20
9.618398
11
5.871787
21
9.624292
0
LINE
8
annotation
62
1
39
211
10
5.871787
20
9.624292
11
5.865489
21
9.629721
0
LINE
8
annotation
62
1
39
211
10
5.865489
20
9.629721
11
5.858829
21
9.634651
0
LINE
8
annotation
62
1
39
211
10
5.858829
20
9.634651
11
5.851840
21
9.639047
0
LINE
8
annotation
62
1
39
211
10
5.851840
20
9.639047
11
5.844558
21
9.642874
0
LINE
8
annotation
62
1
39
211
10
5.844558
20
9.642874
11
5.844558
21
9.642874
0
LINE
8
annotation
62
1
39
211
10
5.844558
20
9.642874
11
5.825533
21
9.650083
0
LINE
8
annotation
62
1
39
211
10
5.825533
20
9.650083
11
5.806063
21
9.653708
0
LINE
8
annotation
62
1
39
211
10
5.806063
20
9.653708
11
5.786578
21
9.653893
0
LINE
8
annotation
62
1
39
211
10
5.786578
20
9.653893
11
5.767512
21
9.650783
0
LINE
8
annotation
62
1
39
211
10
5.767512
20
9.650783
11
5.749298
21
9.644520
0
LINE
8
annotation
62
1
39
211
10
5.749298
20
9.644520
11
5.732368
21
9.635250
0
LINE
8
annotation
62
1
39
211
10
5.732368
20
9.635250
11
5.717153
21
9.623114
0
LINE
8
annotation
62
1
39
211
10
5.717153
20
9.623114
11
5.704089
21
9.608258
0
LINE
8
annotation
62
1
39
211
10
5.704089
20
9.608258
11
5.693605
21
9.590825
0
LINE
8
annotation
62
1
39
211
10
5.693605
20
9.590825
11
5.693605
21
9.590825
0
LINE
8
annotation
62
1
39
211
10
5.693605
20
9.590825
11
5.662475
21
9.517618
0
LINE
8
annotation
62
1
39
211
10
5.662475
20
9.517618
11
5.639127
21
9.442288
0
LINE
8
annotation
62
1
39
211
10
5.639127
20
9.442288
11
5.623561
21
9.365436
0
LINE
8
annotation
62
1
39
211
10
5.623561
20
9.365436
11
5.615779
21
9.287661
0
LINE
8
annotation
62
1
39
211
10
5.615779
20
9.287661
11
5.615779
21
9.209566
0
LINE
8
annotation
62
1
39
211
10
5.615779
20
9.209566
11
5.623561
21
9.131750
0
LINE
8
annotation
62
1
39
211
10
5.623561
20
9.131750
11
5.639127
21
9.054815
0
LINE
8
annotation
62
1
39
211
10
5.639127
20
9.054815
11
5.662475
21
8.979361
0
LINE
8
annotation
62
1
39
211
10
5.662475
20
8.979361
11
5.693605
21
8.905988
0
LINE
8
annotation
62
1
39
211
10
5.693605
20
8.905988
11
5.693605
21
8.905988
0
LINE
8
annotation
62
1
39
211
10
5.693605
20
8.905988
11
5.697569
21
8.898599
0
LINE
8
annotation
62
1
39
211
10
5.697569
20
8.898599
11
5.702046
21
8.891556
0
LINE
8
annotation
62
1
39
211
10
5.702046
20
8.891556
11
5.707016
21
8.884881
0
LINE
8
annotation
62
1
39
211
10
5.707016
20
8.884881
11
5.712463
21
8.878594
0
LINE
8
annotation
62
1
39
211
10
5.712463
20
8.878594
11
5.718365
21
8.872716
0
LINE
8
annotation
62
1
39
211
10
5.718365
20
8.872716
11
5.724706
21
8.867271
0
LINE
8
annotation
62
1
39
211
10
5.724706
20
8.867271
11
5.731465
21
8.862278
0
LINE
8
annotation
62
1
39
211
10
5.731465
20
8.862278
11
5.738624
21
8.857759
0
LINE
8
annotation
62
1
39
211
10
5.738624
20
8.857759
11
5.746164
21
8.853735
0
LINE
8
frame
62
5
39
2
10
0.000000
20
0.000000
11
8.500000
21
0.000000
0
LINE
8
frame
62
5
39
2
10
8.500000
20
0.000000
11
8.500000
21
11.000000
0
LINE
8
frame
62
5
39
2
10
8.500000
20
11.000000
11
0.000000
21
11.000000
0
LINE
8
frame
62
5
39
2
10
0.000000
20
11.000000
11
0.000000
21
0.000000
0
ENDSEC
0
EOF
