0
SECTION
2
HEADER
9
$ACADVER
1
AC1009
0
ENDSEC
0
SECTION
2
TABLES
0
TABLE
2
VPORT
70
1
0
VPORT
2
ACTIVE
70
0
10
0.0
20
0.0
11
0.0
21
0.0
12
0.0
22
0.0
13
0.0
23
0.0
14
0.0
24
0.0
15
0.0
25
0.0
16
0.0
26
0.0
36
0.0
17
0.0
27
0.0
37
0.0
40
0.0
41
0.0
42
0.0
43
0.0
44
0.0
50
0.0
51
0.0
71
0
72
1000
73
1
74
3
75
0
76
0
77
0
78
0
0
ENDTAB
0
ENDSEC
0
SECTION
2
ENTITIES
0
LINE
8
hole
62
5
39
2
10
2.313322
20
3.698530
11
2.335822
21
3.698530
0
LINE
8
hole
62
5
39
2
10
2.335822
20
3.698530
11
2.335822
21
3.721030
0
LINE
8
hole
62
5
39
2
10
2.335822
20
3.721030
11
2.313322
21
3.721030
0
LINE
8
hole
62
5
39
2
10
2.313322
20
3.721030
11
2.313322
21
3.698530
0
LINE
8
hole
62
5
39
2
10
0.699261
20
2.166406
11
0.721761
21
2.166406
0
LINE
8
hole
62
5
39
2
10
0.721761
20
2.166406
11
0.721761
21
2.188906
0
LINE
8
hole
62
5
39
2
10
0.721761
20
2.188906
11
0.699261
21
2.188906
0
LINE
8
hole
62
5
39
2
10
0.699261
20
2.188906
11
0.699261
21
2.166406
0
LINE
8
hole
62
5
39
2
10
3.781790
20
2.166406
11
3.804290
21
2.166406
0
LINE
8
hole
62
5
39
2
10
3.804290
20
2.166406
11
3.804290
21
2.188906
0
LINE
8
hole
62
5
39
2
10
3.804290
20
2.188906
11
3.781790
21
2.188906
0
LINE
8
hole
62
5
39
2
10
3.781790
20
2.188906
11
3.781790
21
2.166406
0
LINE
8
hole
62
5
39
2
10
2.313322
20
0.634281
11
2.335822
21
0.634281
0
LINE
8
hole
62
5
39
2
10
2.335822
20
0.634281
11
2.335822
21
0.656781
0
LINE
8
hole
62
5
39
2
10
2.335822
20
0.656781
11
2.313322
21
0.656781
0
LINE
8
hole
62
5
39
2
10
2.313322
20
0.656781
11
2.313322
21
0.634281
0
LINE
8
boundary
62
5
39
2
10
0.262500
20
2.177656
11
0.979474
21
0.408086
0
LINE
8
boundary
62
5
39
2
10
0.979474
20
0.408086
11
1.218457
21
0.262500
0
LINE
8
boundary
62
5
39
2
10
1.218457
20
0.262500
11
3.131259
21
0.506197
0
LINE
8
boundary
62
5
39
2
10
3.131259
20
0.506197
11
4.386644
21
2.108418
0
LINE
8
boundary
62
5
39
2
10
4.386644
20
2.108418
11
4.386644
21
2.246893
0
LINE
8
boundary
62
5
39
2
10
4.386644
20
2.246893
11
3.131259
21
3.849115
0
LINE
8
boundary
62
5
39
2
10
3.131259
20
3.849115
11
1.218457
21
4.092811
0
LINE
8
boundary
62
5
39
2
10
1.218457
20
4.092811
11
0.979474
21
3.947226
0
LINE
8
boundary
62
5
39
2
10
0.979474
20
3.947226
11
0.262500
21
2.177656
0
LINE
8
annotation
62
1
39
211
10
3.793040
20
2.177656
11
3.793040
21
2.233906
0
LINE
8
annotation
62
1
39
211
10
0.710511
20
2.177656
11
0.766761
21
2.177656
0
LINE
8
annotation
62
1
39
211
10
2.324572
20
3.709780
11
2.324572
21
3.766030
0
LINE
8
annotation
62
1
39
211
10
2.324572
20
3.709780
11
2.324572
21
3.766030
0
LINE
8
annotation
62
1
39
211
10
2.324572
20
3.766030
11
2.324572
21
3.709780
0
LINE
8
annotation
62
1
39
211
10
2.324572
20
3.709780
11
2.380822
21
3.709780
0
LINE
8
annotation
62
1
39
211
10
2.324572
20
0.645531
11
2.324572
21
0.589281
0
LINE
8
annotation
62
1
39
211
10
1.444562
20
1.576042
11
1.444562
21
1.576042
0
LINE
8
annotation
62
1
39
211
10
1.444562
20
1.576042
11
1.451483
21
1.498970
0
LINE
8
annotation
62
1
39
211
10
1.451483
20
1.498970
11
1.471430
21
1.426484
0
LINE
8
annotation
62
1
39
211
10
1.471430
20
1.426484
11
1.503183
21
1.359781
0
LINE
8
annotation
62
1
39
211
10
1.503183
20
1.359781
11
1.545519
21
1.300056
0
LINE
8
annotation
62
1
39
211
10
1.545519
20
1.300056
11
1.597218
21
1.248508
0
LINE
8
annotation
62
1
39
211
10
1.597218
20
1.248508
11
1.657057
21
1.206332
0
LINE
8
annotation
62
1
39
211
10
1.657057
20
1.206332
11
1.723816
21
1.174724
0
LINE
8
annotation
62
1
39
211
10
1.723816
20
1.174724
11
1.796273
21
1.154883
0
LINE
8
annotation
62
1
39
211
10
1.796273
20
1.154883
11
1.873207
21
1.148003
0
LINE
8
annotation
62
1
39
211
10
1.873207
20
1.148003
11
1.873207
21
1.148003
0
LINE
8
annotation
62
1
39
211
10
1.873207
20
1.148003
11
1.950140
21
1.154883
0
LINE
8
annotation
62
1
39
211
10
1.950140
20
1.154883
11
2.022597
21
1.174724
0
LINE
8
annotation
62
1
39
211
10
2.022597
20
1.174724
11
2.089356
21
1.206332
0
LINE
8
annotation
62
1
39
211
10
2.089356
20
1.206332
11
2.149195
21
1.248508
0
LINE
8
annotation
62
1
39
211
10
2.149195
20
1.248508
11
2.200894
21
1.300056
0
LINE
8
annotation
62
1
39
211
10
2.200894
20
1.300056
11
2.243231
21
1.359781
0
LINE
8
annotation
62
1
39
211
10
2.243231
20
1.359781
11
2.274983
21
1.426484
0
LINE
8
annotation
62
1
39
211
10
2.274983
20
1.426484
11
2.294931
21
1.498970
0
LINE
8
annotation
62
1
39
211
10
2.294931
20
1.498970
11
2.301851
21
1.576042
0
LINE
8
annotation
62
1
39
211
10
2.301851
20
1.576042
11
2.301851
21
1.789577
0
LINE
8
annotation
62
1
39
211
10
2.301851
20
1.789577
11
2.301851
21
1.789577
0
LINE
8
annotation
62
1
39
211
10
2.301851
20
1.789577
11
2.294935
21
1.866687
0
LINE
8
annotation
62
1
39
211
10
2.294935
20
1.866687
11
2.274997
21
1.939273
0
LINE
8
annotation
62
1
39
211
10
2.274997
20
1.939273
11
2.243258
21
2.006121
0
LINE
8
annotation
62
1
39
211
10
2.243258
20
2.006121
11
2.200934
21
2.066017
0
LINE
8
annotation
62
1
39
211
10
2.200934
20
2.066017
11
2.149245
21
2.117747
0
LINE
8
annotation
62
1
39
211
10
2.149245
20
2.117747
11
2.089410
21
2.160095
0
LINE
8
annotation
62
1
39
211
10
2.089410
20
2.160095
11
2.022646
21
2.191847
0
LINE
8
annotation
62
1
39
211
10
2.022646
20
2.191847
11
1.950172
21
2.211789
0
LINE
8
annotation
62
1
39
211
10
1.950172
20
2.211789
11
1.873207
21
2.218706
0
LINE
8
annotation
62
1
39
211
10
1.873207
20
2.218706
11
1.873207
21
2.218706
0
LINE
8
annotation
62
1
39
211
10
1.873207
20
2.218706
11
1.796241
21
2.211785
0
LINE
8
annotation
62
1
39
211
10
1.796241
20
2.211785
11
1.723768
21
2.191833
0
LINE
8
annotation
62
1
39
211
10
1.723768
20
2.191833
11
1.657004
21
2.160068
0
LINE
8
annotation
62
1
39
211
10
1.657004
20
2.160068
11
1.597168
21
2.117707
0
LINE
8
annotation
62
1
39
211
10
1.597168
20
2.117707
11
1.545479
21
2.065967
0
LINE
8
annotation
62
1
39
211
10
1.545479
20
2.065967
11
1.503156
21
2.006067
0
LINE
8
annotation
62
1
39
211
10
1.503156
20
2.006067
11
1.471416
21
1.939224
0
LINE
8
annotation
62
1
39
211
10
1.471416
20
1.939224
11
1.451479
21
1.866655
0
LINE
8
annotation
62
1
39
211
10
1.451479
20
1.866655
11
1.444562
21
1.789577
0
LINE
8
annotation
62
1
39
211
10
1.444562
20
1.789577
11
1.444562
21
1.576042
0
LINE
8
annotation
62
1
39
211
10
2.301851
20
2.647956
11
2.301851
21
2.647956
0
LINE
8
annotation
62
1
39
211
10
2.301851
20
2.647956
11
2.294935
21
2.724709
0
LINE
8
annotation
62
1
39
211
10
2.294935
20
2.724709
11
2.274997
21
2.797026
0
LINE
8
annotation
62
1
39
211
10
2.274997
20
2.797026
11
2.243258
21
2.863679
0
LINE
8
annotation
62
1
39
211
10
2.243258
20
2.863679
11
2.200934
21
2.923443
0
LINE
8
annotation
62
1
39
211
10
2.200934
20
2.923443
11
2.149245
21
2.975091
0
LINE
8
annotation
62
1
39
211
10
2.149245
20
2.975091
11
2.089410
21
3.017397
0
LINE
8
annotation
62
1
39
211
10
2.089410
20
3.017397
11
2.022646
21
3.049134
0
LINE
8
annotation
62
1
39
211
10
2.022646
20
3.049134
11
1.950172
21
3.069075
0
LINE
8
annotation
62
1
39
211
10
1.950172
20
3.069075
11
1.873207
21
3.075995
0
LINE
8
annotation
62
1
39
211
10
1.873207
20
3.075995
11
1.873207
21
3.075995
0
LINE
8
annotation
62
1
39
211
10
1.873207
20
3.075995
11
1.796241
21
3.069075
0
LINE
8
annotation
62
1
39
211
10
1.796241
20
3.069075
11
1.723768
21
3.049134
0
LINE
8
annotation
62
1
39
211
10
1.723768
20
3.049134
11
1.657004
21
3.017397
0
LINE
8
annotation
62
1
39
211
10
1.657004
20
3.017397
11
1.597168
21
2.975091
0
LINE
8
annotation
62
1
39
211
10
1.597168
20
2.975091
11
1.545479
21
2.923443
0
LINE
8
annotation
62
1
39
211
10
1.545479
20
2.923443
11
1.503156
21
2.863679
0
LINE
8
annotation
62
1
39
211
10
1.503156
20
2.863679
11
1.471416
21
2.797026
0
LINE
8
annotation
62
1
39
211
10
1.471416
20
2.797026
11
1.451479
21
2.724709
0
LINE
8
annotation
62
1
39
211
10
1.451479
20
2.724709
11
1.444562
21
2.647956
0
LINE
8
annotation
62
1
39
211
10
1.444562
20
2.647956
11
1.444562
21
2.647956
0
LINE
8
annotation
62
1
39
211
10
1.444562
20
2.647956
11
1.451483
21
2.570842
0
LINE
8
annotation
62
1
39
211
10
1.451483
20
2.570842
11
1.471430
21
2.498245
0
LINE
8
annotation
62
1
39
211
10
1.471430
20
2.498245
11
1.503183
21
2.431381
0
LINE
8
annotation
62
1
39
211
10
1.503183
20
2.431381
11
1.545519
21
2.371466
0
LINE
8
annotation
62
1
39
211
10
1.545519
20
2.371466
11
1.597218
21
2.319716
0
LINE
8
annotation
62
1
39
211
10
1.597218
20
2.319716
11
1.657057
21
2.277349
0
LINE
8
annotation
62
1
39
211
10
1.657057
20
2.277349
11
1.723816
21
2.245581
0
LINE
8
annotation
62
1
39
211
10
1.723816
20
2.245581
11
1.796273
21
2.225628
0
LINE
8
annotation
62
1
39
211
10
1.796273
20
2.225628
11
1.873207
21
2.218706
0
LINE
8
annotation
62
1
39
211
10
1.873207
20
2.218706
11
1.873207
21
2.218706
0
LINE
8
annotation
62
1
39
211
10
1.873207
20
2.218706
11
1.950140
21
2.225628
0
LINE
8
annotation
62
1
39
211
10
1.950140
20
2.225628
11
2.022597
21
2.245581
0
LINE
8
annotation
62
1
39
211
10
2.022597
20
2.245581
11
2.089356
21
2.277349
0
LINE
8
annotation
62
1
39
211
10
2.089356
20
2.277349
11
2.149195
21
2.319716
0
LINE
8
annotation
62
1
39
211
10
2.149195
20
2.319716
11
2.200894
21
2.371466
0
LINE
8
annotation
62
1
39
211
10
2.200894
20
2.371466
11
2.243231
21
2.431381
0
LINE
8
annotation
62
1
39
211
10
2.243231
20
2.431381
11
2.274983
21
2.498245
0
LINE
8
annotation
62
1
39
211
10
2.274983
20
2.498245
11
2.294931
21
2.570842
0
LINE
8
annotation
62
1
39
211
10
2.294931
20
2.570842
11
2.301851
21
2.647956
0
LINE
8
hole
62
5
39
2
10
7.881893
20
2.028573
11
7.904393
21
2.028573
0
LINE
8
hole
62
5
39
2
10
7.904393
20
2.028573
11
7.904393
21
2.051073
0
LINE
8
hole
62
5
39
2
10
7.904393
20
2.051073
11
7.881893
21
2.051073
0
LINE
8
hole
62
5
39
2
10
7.881893
20
2.051073
11
7.881893
21
2.028573
0
LINE
8
hole
62
5
39
2
10
4.690971
20
2.028573
11
4.713471
21
2.028573
0
LINE
8
hole
62
5
39
2
10
4.713471
20
2.028573
11
4.713471
21
2.051073
0
LINE
8
hole
62
5
39
2
10
4.713471
20
2.051073
11
4.690971
21
2.051073
0
LINE
8
hole
62
5
39
2
10
4.690971
20
2.051073
11
4.690971
21
2.028573
0
LINE
8
hole
62
5
39
2
10
6.359229
20
3.450431
11
6.381729
21
3.450431
0
LINE
8
hole
62
5
39
2
10
6.381729
20
3.450431
11
6.381729
21
3.472931
0
LINE
8
hole
62
5
39
2
10
6.381729
20
3.472931
11
6.359229
21
3.472931
0
LINE
8
hole
62
5
39
2
10
6.359229
20
3.472931
11
6.359229
21
3.450431
0
LINE
8
hole
62
5
39
2
10
6.359229
20
0.606715
11
6.381729
21
0.606715
0
LINE
8
hole
62
5
39
2
10
6.381729
20
0.606715
11
6.381729
21
0.629215
0
LINE
8
hole
62
5
39
2
10
6.381729
20
0.629215
11
6.359229
21
0.629215
0
LINE
8
hole
62
5
39
2
10
6.359229
20
0.629215
11
6.359229
21
0.606715
0
LINE
8
boundary
62
5
39
2
10
5.512226
20
0.456734
11
7.036792
21
0.262500
0
LINE
8
boundary
62
5
39
2
10
7.036792
20
0.262500
11
7.664012
21
0.644596
0
LINE
8
boundary
62
5
39
2
10
7.664012
20
0.644596
11
8.229314
21
2.039823
0
LINE
8
boundary
62
5
39
2
10
8.229314
20
2.039823
11
7.664012
21
3.435050
0
LINE
8
boundary
62
5
39
2
10
7.664012
20
3.435050
11
7.036792
21
3.817145
0
LINE
8
boundary
62
5
39
2
10
7.036792
20
3.817145
11
5.512226
21
3.622911
0
LINE
8
boundary
62
5
39
2
10
5.512226
20
3.622911
11
4.511644
21
2.345889
0
LINE
8
boundary
62
5
39
2
10
4.511644
20
2.345889
11
4.511644
21
1.733757
0
LINE
8
boundary
62
5
39
2
10
4.511644
20
1.733757
11
5.512226
21
0.456734
0
LINE
8
annotation
62
1
39
211
10
6.972277
20
0.449352
11
7.531821
21
0.790219
0
LINE
8
annotation
62
1
39
211
10
7.531824
20
3.289421
11
6.972275
21
3.630293
0
LINE
8
annotation
62
1
39
211
10
4.719931
20
2.324412
11
4.719930
21
1.755235
0
LINE
8
annotation
62
1
39
211
10
7.893143
20
2.039823
11
7.893143
21
2.096073
0
LINE
8
annotation
62
1
39
211
10
7.893143
20
2.039823
11
7.893143
21
2.096073
0
LINE
8
annotation
62
1
39
211
10
7.893143
20
2.096073
11
7.893143
21
2.039823
0
LINE
8
annotation
62
1
39
211
10
7.893143
20
2.039823
11
7.893143
21
1.983573
0
LINE
8
annotation
62
1
39
211
10
4.702221
20
2.039823
11
4.758471
21
2.039823
0
LINE
8
annotation
62
1
39
211
10
4.702221
20
2.039823
11
4.758471
21
2.039823
0
LINE
8
annotation
62
1
39
211
10
4.758471
20
2.039823
11
4.702221
21
2.039823
0
LINE
8
annotation
62
1
39
211
10
4.702221
20
2.039823
11
4.702221
21
1.983573
0
LINE
8
annotation
62
1
39
211
10
6.370479
20
3.461681
11
6.370479
21
3.517931
0
LINE
8
annotation
62
1
39
211
10
6.370479
20
0.617965
11
6.426729
21
0.617965
0
LINE
8
annotation
62
1
39
211
10
6.105268
20
1.303650
11
6.105268
21
2.775995
0
LINE
8
annotation
62
1
39
211
10
6.105268
20
2.775995
11
5.777947
21
2.448582
0
LINE
8
annotation
62
1
39
211
10
7.148471
20
2.775995
11
7.148471
21
2.775995
0
LINE
8
annotation
62
1
39
211
10
7.148471
20
2.775995
11
7.054808
21
2.740877
0
LINE
8
annotation
62
1
39
211
10
7.054808
20
2.740877
11
6.968859
21
2.693559
0
LINE
8
annotation
62
1
39
211
10
6.968859
20
2.693559
11
6.891508
21
2.635228
0
LINE
8
annotation
62
1
39
211
10
6.891508
20
2.635228
11
6.823636
21
2.567068
0
LINE
8
annotation
62
1
39
211
10
6.823636
20
2.567068
11
6.766126
21
2.490266
0
LINE
8
annotation
62
1
39
211
10
6.766126
20
2.490266
11
6.719861
21
2.406006
0
LINE
8
annotation
62
1
39
211
10
6.719861
20
2.406006
11
6.685721
21
2.315474
0
LINE
8
annotation
62
1
39
211
10
6.685721
20
2.315474
11
6.664591
21
2.219856
0
LINE
8
annotation
62
1
39
211
10
6.664591
20
2.219856
11
6.657351
21
2.120337
0
LINE
8
annotation
62
1
39
211
10
6.657351
20
2.120337
11
6.657351
21
1.630972
0
LINE
8
annotation
62
1
39
211
10
6.657351
20
1.630972
11
6.657351
21
1.630972
0
LINE
8
annotation
62
1
39
211
10
6.657351
20
1.630972
11
6.662630
21
1.572156
0
LINE
8
annotation
62
1
39
211
10
6.662630
20
1.572156
11
6.677845
21
1.516790
0
LINE
8
annotation
62
1
39
211
10
6.677845
20
1.516790
11
6.702064
21
1.465801
0
LINE
8
annotation
62
1
39
211
10
6.702064
20
1.465801
11
6.734357
21
1.420115
0
LINE
8
annotation
62
1
39
211
10
6.734357
20
1.420115
11
6.773790
21
1.380658
0
LINE
8
annotation
62
1
39
211
10
6.773790
20
1.380658
11
6.819433
21
1.348357
0
LINE
8
annotation
62
1
39
211
10
6.819433
20
1.348357
11
6.870354
21
1.324138
0
LINE
8
annotation
62
1
39
211
10
6.870354
20
1.324138
11
6.925621
21
1.308927
0
LINE
8
annotation
62
1
39
211
10
6.925621
20
1.308927
11
6.984303
21
1.303650
0
LINE
8
annotation
62
1
39
211
10
6.984303
20
1.303650
11
6.984303
21
1.303650
0
LINE
8
annotation
62
1
39
211
10
6.984303
20
1.303650
11
7.043106
21
1.308927
0
LINE
8
annotation
62
1
39
211
10
7.043106
20
1.308927
11
7.098437
21
1.324138
0
LINE
8
annotation
62
1
39
211
10
7.098437
20
1.324138
11
7.149377
21
1.348357
0
LINE
8
annotation
62
1
39
211
10
7.149377
20
1.348357
11
7.195005
21
1.380658
0
LINE
8
annotation
62
1
39
211
10
7.195005
20
1.380658
11
7.234401
21
1.420115
0
LINE
8
annotation
62
1
39
211
10
7.234401
20
1.420115
11
7.266644
21
1.465801
0
LINE
8
annotation
62
1
39
211
10
7.266644
20
1.465801
11
7.290814
21
1.516790
0
LINE
8
annotation
62
1
39
211
10
7.290814
20
1.516790
11
7.305991
21
1.572156
0
LINE
8
annotation
62
1
39
211
10
7.305991
20
1.572156
11
7.311254
21
1.630972
0
LINE
8
annotation
62
1
39
211
10
7.311254
20
1.630972
11
7.311254
21
1.793847
0
LINE
8
annotation
62
1
39
211
10
7.311254
20
1.793847
11
7.311254
21
1.793847
0
LINE
8
annotation
62
1
39
211
10
7.311254
20
1.793847
11
7.305991
21
1.852634
0
LINE
8
annotation
62
1
39
211
10
7.305991
20
1.852634
11
7.290814
21
1.907924
0
LINE
8
annotation
62
1
39
211
10
7.290814
20
1.907924
11
7.266644
21
1.958802
0
LINE
8
annotation
62
1
39
211
10
7.266644
20
1.958802
11
7.234401
21
2.004357
0
LINE
8
annotation
62
1
39
211
10
7.234401
20
2.004357
11
7.195005
21
2.043676
0
LINE
8
annotation
62
1
39
211
10
7.195005
20
2.043676
11
7.149377
21
2.075846
0
LINE
8
annotation
62
1
39
211
10
7.149377
20
2.075846
11
7.098437
21
2.099955
0
LINE
8
annotation
62
1
39
211
10
7.098437
20
2.099955
11
7.043106
21
2.115090
0
LINE
8
annotation
62
1
39
211
10
7.043106
20
2.115090
11
6.984303
21
2.120337
0
LINE
8
annotation
62
1
39
211
10
6.984303
20
2.120337
11
6.657351
21
2.120337
0
LINE
8
annotation
62
1
39
211
10
6.616401
20
1.119607
11
7.352573
21
1.119607
0
LINE
8
hole
62
5
39
2
10
2.181108
20
7.644653
11
2.203608
21
7.644653
0
LINE
8
hole
62
5
39
2
10
2.203608
20
7.644653
11
2.203608
21
7.667153
0
LINE
8
hole
62
5
39
2
10
2.203608
20
7.667153
11
2.181108
21
7.667153
0
LINE
8
hole
62
5
39
2
10
2.181108
20
7.667153
11
2.181108
21
7.644653
0
LINE
8
hole
62
5
39
2
10
2.181108
20
4.506893
11
2.203608
21
4.506893
0
LINE
8
hole
62
5
39
2
10
2.203608
20
4.506893
11
2.203608
21
4.529393
0
LINE
8
hole
62
5
39
2
10
2.203608
20
4.529393
11
2.181108
21
4.529393
0
LINE
8
hole
62
5
39
2
10
2.181108
20
4.529393
11
2.181108
21
4.506893
0
LINE
8
hole
62
5
39
2
10
3.841037
20
6.075773
11
3.863537
21
6.075773
0
LINE
8
hole
62
5
39
2
10
3.863537
20
6.075773
11
3.863537
21
6.098273
0
LINE
8
hole
62
5
39
2
10
3.863537
20
6.098273
11
3.841037
21
6.098273
0
LINE
8
hole
62
5
39
2
10
3.841037
20
6.098273
11
3.841037
21
6.075773
0
LINE
8
hole
62
5
39
2
10
0.650115
20
6.075773
11
0.672615
21
6.075773
0
LINE
8
hole
62
5
39
2
10
0.672615
20
6.075773
11
0.672615
21
6.098273
0
LINE
8
hole
62
5
39
2
10
0.672615
20
6.098273
11
0.650115
21
6.098273
0
LINE
8
hole
62
5
39
2
10
0.650115
20
6.098273
11
0.650115
21
6.075773
0
LINE
8
boundary
62
5
39
2
10
1.432951
20
4.445021
11
3.216341
21
4.217811
0
LINE
8
boundary
62
5
39
2
10
3.216341
20
4.217811
11
3.584736
21
4.442234
0
LINE
8
boundary
62
5
39
2
10
3.584736
20
4.442234
11
4.251153
21
6.087023
0
LINE
8
boundary
62
5
39
2
10
4.251153
20
6.087023
11
3.584736
21
7.731812
0
LINE
8
boundary
62
5
39
2
10
3.584736
20
7.731812
11
3.216341
21
7.956234
0
LINE
8
boundary
62
5
39
2
10
3.216341
20
7.956234
11
1.432951
21
7.729025
0
LINE
8
boundary
62
5
39
2
10
1.432951
20
7.729025
11
0.262500
21
6.235203
0
LINE
8
boundary
62
5
39
2
10
0.262500
20
6.235203
11
0.262500
21
5.938842
0
LINE
8
boundary
62
5
39
2
10
0.262500
20
5.938842
11
1.432951
21
4.445021
0
LINE
8
annotation
62
1
39
211
10
3.151824
20
4.404663
11
3.452547
21
4.587862
0
LINE
8
annotation
62
1
39
211
10
3.452550
20
7.586177
11
3.151816
21
7.769381
0
LINE
8
annotation
62
1
39
211
10
0.470787
20
6.213726
11
0.470787
21
5.960319
0
LINE
8
annotation
62
1
39
211
10
2.192358
20
7.655903
11
2.192358
21
7.712153
0
LINE
8
annotation
62
1
39
211
10
2.192358
20
7.655903
11
2.192358
21
7.712153
0
LINE
8
annotation
62
1
39
211
10
2.192358
20
7.712153
11
2.192358
21
7.655903
0
LINE
8
annotation
62
1
39
211
10
2.192358
20
7.655903
11
2.248608
21
7.655903
0
LINE
8
annotation
62
1
39
211
10
2.192358
20
4.518143
11
2.192358
21
4.461893
0
LINE
8
annotation
62
1
39
211
10
3.852287
20
6.087023
11
3.852287
21
6.143273
0
LINE
8
annotation
62
1
39
211
10
3.852287
20
6.087023
11
3.852287
21
6.143273
0
LINE
8
annotation
62
1
39
211
10
3.852287
20
6.143273
11
3.852287
21
6.087023
0
LINE
8
annotation
62
1
39
211
10
3.852287
20
6.087023
11
3.852287
21
6.030773
0
LINE
8
annotation
62
1
39
211
10
0.661365
20
6.087023
11
0.717615
21
6.087023
0
LINE
8
annotation
62
1
39
211
10
0.661365
20
6.087023
11
0.717615
21
6.087023
0
LINE
8
annotation
62
1
39
211
10
0.717615
20
6.087023
11
0.661365
21
6.087023
0
LINE
8
annotation
62
1
39
211
10
0.661365
20
6.087023
11
0.661365
21
6.030773
0
LINE
8
annotation
62
1
39
211
10
1.972284
20
5.234862
11
1.972284
21
6.814526
0
LINE
8
annotation
62
1
39
211
10
1.972284
20
6.814526
11
1.621104
21
6.463247
0
LINE
8
annotation
62
1
39
211
10
2.564609
20
5.234862
11
2.915392
21
5.234862
0
LINE
8
annotation
62
1
39
211
10
2.915392
20
5.234862
11
2.915392
21
5.234862
0
LINE
8
annotation
62
1
39
211
10
2.915392
20
5.234862
11
2.978351
21
5.240522
0
LINE
8
annotation
62
1
39
211
10
2.978351
20
5.240522
11
3.037646
21
5.256842
0
LINE
8
annotation
62
1
39
211
10
3.037646
20
5.256842
11
3.092279
21
5.282827
0
LINE
8
annotation
62
1
39
211
10
3.092279
20
5.282827
11
3.141249
21
5.317482
0
LINE
8
annotation
62
1
39
211
10
3.141249
20
5.317482
11
3.183557
21
5.359815
0
LINE
8
annotation
62
1
39
211
10
3.183557
20
5.359815
11
3.218203
21
5.408831
0
LINE
8
annotation
62
1
39
211
10
3.218203
20
5.408831
11
3.244188
21
5.463537
0
LINE
8
annotation
62
1
39
211
10
3.244188
20
5.463537
11
3.260512
21
5.522938
0
LINE
8
annotation
62
1
39
211
10
3.260512
20
5.522938
11
3.266175
21
5.586041
0
LINE
8
annotation
62
1
39
211
10
3.266175
20
5.586041
11
3.266175
21
5.760789
0
LINE
8
annotation
62
1
39
211
10
3.266175
20
5.760789
11
3.266175
21
5.760789
0
LINE
8
annotation
62
1
39
211
10
3.266175
20
5.760789
11
3.260515
21
5.823861
0
LINE
8
annotation
62
1
39
211
10
3.260515
20
5.823861
11
3.244199
21
5.883180
0
LINE
8
annotation
62
1
39
211
10
3.244199
20
5.883180
11
3.218225
21
5.937767
0
LINE
8
annotation
62
1
39
211
10
3.218225
20
5.937767
11
3.183589
21
5.986643
0
LINE
8
annotation
62
1
39
211
10
3.183589
20
5.986643
11
3.141290
21
6.028828
0
LINE
8
annotation
62
1
39
211
10
3.141290
20
6.028828
11
3.092323
21
6.063343
0
LINE
8
annotation
62
1
39
211
10
3.092323
20
6.063343
11
3.037686
21
6.089209
0
LINE
8
annotation
62
1
39
211
10
3.037686
20
6.089209
11
2.978377
21
6.105447
0
LINE
8
annotation
62
1
39
211
10
2.978377
20
6.105447
11
2.915392
21
6.111077
0
LINE
8
annotation
62
1
39
211
10
2.915392
20
6.111077
11
2.564609
21
6.111077
0
LINE
8
annotation
62
1
39
211
10
2.564609
20
6.111077
11
2.564609
21
6.814526
0
LINE
8
annotation
62
1
39
211
10
2.564609
20
6.814526
11
3.266175
21
6.814526
0
LINE
8
hole
62
5
39
2
10
1.200657
20
10.228211
11
1.223157
21
10.228211
0
LINE
8
hole
62
5
39
2
10
1.223157
20
10.228211
11
1.223157
21
10.250711
0
LINE
8
hole
62
5
39
2
10
1.223157
20
10.250711
11
1.200657
21
10.250711
0
LINE
8
hole
62
5
39
2
10
1.200657
20
10.250711
11
1.200657
21
10.228211
0
LINE
8
hole
62
5
39
2
10
1.238157
20
8.566266
11
1.260657
21
8.566266
0
LINE
8
hole
62
5
39
2
10
1.260657
20
8.566266
11
1.260657
21
8.588766
0
LINE
8
hole
62
5
39
2
10
1.260657
20
8.588766
11
1.238157
21
8.588766
0
LINE
8
hole
62
5
39
2
10
1.238157
20
8.588766
11
1.238157
21
8.566266
0
LINE
8
boundary
62
5
39
2
10
0.413741
20
8.110593
11
0.644183
21
8.081234
0
LINE
8
boundary
62
5
39
2
10
0.644183
20
8.081234
11
2.565527
21
9.251696
0
LINE
8
boundary
62
5
39
2
10
2.565527
20
9.251696
11
2.625256
21
9.399114
0
LINE
8
boundary
62
5
39
2
10
2.625256
20
9.399114
11
2.565527
21
9.546532
0
LINE
8
boundary
62
5
39
2
10
2.565527
20
9.546532
11
0.644183
21
10.716993
0
LINE
8
boundary
62
5
39
2
10
0.644183
20
10.716993
11
0.413741
21
10.687634
0
LINE
8
boundary
62
5
39
2
10
0.413741
20
10.687634
11
0.262500
21
10.494609
0
LINE
8
boundary
62
5
39
2
10
0.262500
20
10.494609
11
0.262500
21
8.303618
0
LINE
8
boundary
62
5
39
2
10
0.262500
20
8.303618
11
0.413741
21
8.110593
0
LINE
8
annotation
62
1
39
211
10
1.211907
20
10.239461
11
1.211907
21
10.295711
0
LINE
8
annotation
62
1
39
211
10
1.211907
20
10.239461
11
1.211907
21
10.295711
0
LINE
8
annotation
62
1
39
211
10
1.211907
20
10.295711
11
1.211907
21
10.239461
0
LINE
8
annotation
62
1
39
211
10
1.211907
20
10.239461
11
1.268157
21
10.239461
0
LINE
8
annotation
62
1
39
211
10
1.249407
20
8.577516
11
1.249407
21
8.521266
0
LINE
8
annotation
62
1
39
211
10
0.809004
20
8.978332
11
0.471837
21
8.978332
0
LINE
8
annotation
62
1
39
211
10
0.471837
20
8.978332
11
0.783390
21
9.479894
0
LINE
8
annotation
62
1
39
211
10
0.783390
20
9.479894
11
0.783390
21
9.479894
0
LINE
8
annotation
62
1
39
211
10
0.783390
20
9.479894
11
0.783763
21
9.480355
0
LINE
8
annotation
62
1
39
211
10
0.783763
20
9.480355
11
0.784120
21
9.480820
0
LINE
8
annotation
62
1
39
211
10
0.784120
20
9.480820
11
0.784464
21
9.481292
0
LINE
8
annotation
62
1
39
211
10
0.784464
20
9.481292
11
0.784798
21
9.481777
0
LINE
8
annotation
62
1
39
211
10
0.784798
20
9.481777
11
0.785123
21
9.482277
0
LINE
8
annotation
62
1
39
211
10
0.785123
20
9.482277
11
0.785443
21
9.482797
0
LINE
8
annotation
62
1
39
211
10
0.785443
20
9.482797
11
0.785759
21
9.483340
0
LINE
8
annotation
62
1
39
211
10
0.785759
20
9.483340
11
0.786074
21
9.483910
0
LINE
8
annotation
62
1
39
211
10
0.786074
20
9.483910
11
0.786390
21
9.484512
0
LINE
8
annotation
62
1
39
211
10
0.786390
20
9.484512
11
0.786390
21
9.484512
0
LINE
8
annotation
62
1
39
211
10
0.786390
20
9.484512
11
0.799254
21
9.512132
0
LINE
8
annotation
62
1
39
211
10
0.799254
20
9.512132
11
0.806769
21
9.540763
0
LINE
8
annotation
62
1
39
211
10
0.806769
20
9.540763
11
0.809119
21
9.569757
0
LINE
8
annotation
62
1
39
211
10
0.809119
20
9.569757
11
0.806488
21
9.598468
0
LINE
8
annotation
62
1
39
211
10
0.806488
20
9.598468
11
0.799061
21
9.626249
0
LINE
8
annotation
62
1
39
211
10
0.799061
20
9.626249
11
0.787021
21
9.652452
0
LINE
8
annotation
62
1
39
211
10
0.787021
20
9.652452
11
0.770553
21
9.676432
0
LINE
8
annotation
62
1
39
211
10
0.770553
20
9.676432
11
0.749841
21
9.697540
0
LINE
8
annotation
62
1
39
211
10
0.749841
20
9.697540
11
0.725069
21
9.715131
0
LINE
8
annotation
62
1
39
211
10
0.725069
20
9.715131
11
0.725069
21
9.715131
0
LINE
8
annotation
62
1
39
211
10
0.725069
20
9.715131
11
0.697372
21
9.727812
0
LINE
8
annotation
62
1
39
211
10
0.697372
20
9.727812
11
0.668698
21
9.735211
0
LINE
8
annotation
62
1
39
211
10
0.668698
20
9.735211
11
0.639687
21
9.737495
0
LINE
8
annotation
62
1
39
211
10
0.639687
20
9.737495
11
0.610980
21
9.734829
0
LINE
8
annotation
62
1
39
211
10
0.610980
20
9.734829
11
0.583219
21
9.727381
0
LINE
8
annotation
62
1
39
211
10
0.583219
20
9.727381
11
0.557044
21
9.715318
0
LINE
8
annotation
62
1
39
211
10
0.557044
20
9.715318
11
0.533098
21
9.698804
0
LINE
8
annotation
62
1
39
211
10
0.533098
20
9.698804
11
0.512019
21
9.678008
0
LINE
8
annotation
62
1
39
211
10
0.512019
20
9.678008
11
0.494451
21
9.653096
0
LINE
8
annotation
62
1
39
211
10
0.494451
20
9.653096
11
0.472313
21
9.610629
0
LINE
8
annotation
62
1
39
211
10
1.262550
20
8.978339
11
1.262550
21
9.737513
0
LINE
8
annotation
62
1
39
211
10
1.262550
20
9.737513
11
1.093776
21
9.568691
0
LINE
8
hole
62
5
39
2
10
6.218686
20
7.414931
11
6.241186
21
7.414931
0
LINE
8
hole
62
5
39
2
10
6.241186
20
7.414931
11
6.241186
21
7.437431
0
LINE
8
hole
62
5
39
2
10
6.241186
20
7.437431
11
6.218686
21
7.437431
0
LINE
8
hole
62
5
39
2
10
6.218686
20
7.437431
11
6.218686
21
7.414931
0
LINE
8
hole
62
5
39
2
10
6.218686
20
4.644726
11
6.241186
21
4.644726
0
LINE
8
hole
62
5
39
2
10
6.241186
20
4.644726
11
6.241186
21
4.667226
0
LINE
8
hole
62
5
39
2
10
6.241186
20
4.667226
11
6.218686
21
4.667226
0
LINE
8
hole
62
5
39
2
10
6.218686
20
4.667226
11
6.218686
21
4.644726
0
LINE
8
hole
62
5
39
2
10
4.750219
20
6.029828
11
4.772719
21
6.029828
0
LINE
8
hole
62
5
39
2
10
4.772719
20
6.029828
11
4.772719
21
6.052328
0
LINE
8
hole
62
5
39
2
10
4.772719
20
6.052328
11
4.750219
21
6.052328
0
LINE
8
hole
62
5
39
2
10
4.750219
20
6.052328
11
4.750219
21
6.029828
0
LINE
8
hole
62
5
39
2
10
7.832748
20
6.029828
11
7.855248
21
6.029828
0
LINE
8
hole
62
5
39
2
10
7.855248
20
6.029828
11
7.855248
21
6.052328
0
LINE
8
hole
62
5
39
2
10
7.855248
20
6.052328
11
7.832748
21
6.052328
0
LINE
8
hole
62
5
39
2
10
7.832748
20
6.052328
11
7.832748
21
6.029828
0
LINE
8
boundary
62
5
39
2
10
4.376153
20
6.041078
11
4.992012
21
4.521070
0
LINE
8
boundary
62
5
39
2
10
4.992012
20
4.521070
11
5.489820
21
4.217811
0
LINE
8
boundary
62
5
39
2
10
5.489820
20
4.217811
11
7.143798
21
4.428533
0
LINE
8
boundary
62
5
39
2
10
7.143798
20
4.428533
11
8.229314
21
5.813955
0
LINE
8
boundary
62
5
39
2
10
8.229314
20
5.813955
11
8.229314
21
6.268202
0
LINE
8
boundary
62
5
39
2
10
8.229314
20
6.268202
11
7.143798
21
7.653624
0
LINE
8
boundary
62
5
39
2
10
7.143798
20
7.653624
11
5.489820
21
7.864345
0
LINE
8
boundary
62
5
39
2
10
5.489820
20
7.864345
11
4.992012
21
7.561086
0
LINE
8
boundary
62
5
39
2
10
4.992012
20
7.561086
11
4.376153
21
6.041078
0
LINE
8
annotation
62
1
39
211
10
6.229936
20
7.426181
11
6.229936
21
7.482431
0
LINE
8
annotation
62
1
39
211
10
6.229936
20
7.426181
11
6.229936
21
7.482431
0
LINE
8
annotation
62
1
39
211
10
6.229936
20
7.482431
11
6.229936
21
7.426181
0
LINE
8
annotation
62
1
39
211
10
6.229936
20
7.426181
11
6.229936
21
7.369931
0
LINE
8
annotation
62
1
39
211
10
6.229936
20
4.655976
11
6.286186
21
4.655976
0
LINE
8
annotation
62
1
39
211
10
6.229936
20
4.655976
11
6.286186
21
4.655976
0
LINE
8
annotation
62
1
39
211
10
6.286186
20
4.655976
11
6.229936
21
4.655976
0
LINE
8
annotation
62
1
39
211
10
6.229936
20
4.655976
11
6.229936
21
4.599726
0
LINE
8
annotation
62
1
39
211
10
7.843998
20
6.041078
11
7.843998
21
6.097328
0
LINE
8
annotation
62
1
39
211
10
4.761469
20
6.041078
11
4.817719
21
6.041078
0
LINE
8
annotation
62
1
39
211
10
5.881008
20
5.069985
11
6.312781
21
7.012172
0
LINE
8
annotation
62
1
39
211
10
6.312781
20
7.012172
11
5.449113
21
7.012172
0
LINE
8
annotation
62
1
39
211
10
6.312781
20
6.147286
11
5.881008
21
6.147286
0
LINE
8
hole
62
5
39
2
10
6.369441
20
9.250031
11
6.391941
21
9.250031
0
LINE
8
hole
62
5
39
2
10
6.391941
20
9.250031
11
6.391941
21
9.272531
0
LINE
8
hole
62
5
39
2
10
6.391941
20
9.272531
11
6.369441
21
9.272531
0
LINE
8
hole
62
5
39
2
10
6.369441
20
9.272531
11
6.369441
21
9.250031
0
LINE
8
hole
62
5
39
2
10
4.587629
20
9.250031
11
4.610129
21
9.250031
0
LINE
8
hole
62
5
39
2
10
4.610129
20
9.250031
11
4.610129
21
9.272531
0
LINE
8
hole
62
5
39
2
10
4.610129
20
9.272531
11
4.587629
21
9.272531
0
LINE
8
hole
62
5
39
2
10
4.587629
20
9.272531
11
4.587629
21
9.250031
0
LINE
8
boundary
62
5
39
2
10
4.376153
20
9.261281
11
4.385325
21
9.238644
0
LINE
8
boundary
62
5
39
2
10
4.385325
20
9.238644
11
6.436081
21
7.989345
0
LINE
8
boundary
62
5
39
2
10
6.436081
20
7.989345
11
6.537111
21
8.002217
0
LINE
8
boundary
62
5
39
2
10
6.537111
20
8.002217
11
6.603417
21
8.086842
0
LINE
8
boundary
62
5
39
2
10
6.603417
20
8.086842
11
6.603417
21
10.435719
0
LINE
8
boundary
62
5
39
2
10
6.603417
20
10.435719
11
6.537111
21
10.520345
0
LINE
8
boundary
62
5
39
2
10
6.537111
20
10.520345
11
6.436081
21
10.533216
0
LINE
8
boundary
62
5
39
2
10
6.436081
20
10.533216
11
4.385325
21
9.283918
0
LINE
8
boundary
62
5
39
2
10
4.385325
20
9.283918
11
4.376153
21
9.261281
0
LINE
8
annotation
62
1
39
211
10
6.380691
20
9.261281
11
6.380691
21
9.317531
0
LINE
8
annotation
62
1
39
211
10
4.598879
20
9.261281
11
4.655129
21
9.261281
0
LINE
8
annotation
62
1
39
211
10
6.496564
20
8.705707
11
6.496564
21
9.896358
0
LINE
8
annotation
62
1
39
211
10
6.496564
20
9.896358
11
6.231867
21
9.631586
0
LINE
8
frame
62
5
39
2
10
0.000000
20
0.000000
11
8.500000
21
0.000000
0
LINE
8
frame
62
5
39
2
10
8.500000
20
0.000000
11
8.500000
21
11.000000
0
LINE
8
frame
62
5
39
2
10
8.500000
20
11.000000
11
0.000000
21
11.000000
0
LINE
8
frame
62
5
39
2
10
0.000000
20
11.000000
11
0.000000
21
0.000000
0
ENDSEC
0
EOF
