0
SECTION
2
HEADER
9
$ACADVER
1
AC1009
0
ENDSEC
0
SECTION
2
TABLES
0
TABLE
2
VPORT
70
1
0
VPORT
2
ACTIVE
70
0
10
0.0
20
0.0
11
0.0
21
0.0
12
0.0
22
0.0
13
0.0
23
0.0
14
0.0
24
0.0
15
0.0
25
0.0
16
0.0
26
0.0
36
0.0
17
0.0
27
0.0
37
0.0
40
0.0
41
0.0
42
0.0
43
0.0
44
0.0
50
0.0
51
0.0
71
0
72
1000
73
1
74
3
75
0
76
0
77
0
78
0
0
ENDTAB
0
ENDSEC
0
SECTION
2
ENTITIES
0
LINE
8
hole
62
5
39
2
10
2.372739
20
3.851250
11
2.395239
21
3.851250
0
LINE
8
hole
62
5
39
2
10
2.395239
20
3.851250
11
2.395239
21
3.873750
0
LINE
8
hole
62
5
39
2
10
2.395239
20
3.873750
11
2.372739
21
3.873750
0
LINE
8
hole
62
5
39
2
10
2.372739
20
3.873750
11
2.372739
21
3.851250
0
LINE
8
hole
62
5
39
2
10
4.132625
20
2.251250
11
4.155125
21
2.251250
0
LINE
8
hole
62
5
39
2
10
4.155125
20
2.251250
11
4.155125
21
2.273750
0
LINE
8
hole
62
5
39
2
10
4.155125
20
2.273750
11
4.132625
21
2.273750
0
LINE
8
hole
62
5
39
2
10
4.132625
20
2.273750
11
4.132625
21
2.251250
0
LINE
8
hole
62
5
39
2
10
0.738242
20
2.251250
11
0.760742
21
2.251250
0
LINE
8
hole
62
5
39
2
10
0.760742
20
2.251250
11
0.760742
21
2.273750
0
LINE
8
hole
62
5
39
2
10
0.760742
20
2.273750
11
0.738242
21
2.273750
0
LINE
8
hole
62
5
39
2
10
0.738242
20
2.273750
11
0.738242
21
2.251250
0
LINE
8
hole
62
5
39
2
10
2.372739
20
0.651250
11
2.395239
21
0.651250
0
LINE
8
hole
62
5
39
2
10
2.395239
20
0.651250
11
2.395239
21
0.673750
0
LINE
8
hole
62
5
39
2
10
2.395239
20
0.673750
11
2.372739
21
0.673750
0
LINE
8
hole
62
5
39
2
10
2.372739
20
0.673750
11
2.372739
21
0.651250
0
LINE
8
boundary
62
5
39
2
10
0.587616
20
1.460080
11
1.383932
21
0.443757
0
LINE
8
boundary
62
5
39
2
10
1.383932
20
0.443757
11
2.806639
21
0.262500
0
LINE
8
boundary
62
5
39
2
10
2.806639
20
0.262500
11
3.535717
21
0.355387
0
LINE
8
boundary
62
5
39
2
10
3.535717
20
0.355387
11
3.943797
21
0.876210
0
LINE
8
boundary
62
5
39
2
10
3.943797
20
0.876210
11
4.505478
21
2.262500
0
LINE
8
boundary
62
5
39
2
10
4.505478
20
2.262500
11
3.943797
21
3.648790
0
LINE
8
boundary
62
5
39
2
10
3.943797
20
3.648790
11
3.535717
21
4.169613
0
LINE
8
boundary
62
5
39
2
10
3.535717
20
4.169613
11
2.806639
21
4.262500
0
LINE
8
boundary
62
5
39
2
10
2.806639
20
4.262500
11
1.383932
21
4.081243
0
LINE
8
boundary
62
5
39
2
10
1.383932
20
4.081243
11
0.587616
21
3.064920
0
LINE
8
boundary
62
5
39
2
10
0.587616
20
3.064920
11
0.262500
21
2.262500
0
LINE
8
boundary
62
5
39
2
10
0.262500
20
2.262500
11
0.587616
21
1.460080
0
LINE
8
annotation
62
1
39
211
10
4.143875
20
2.262500
11
4.143875
21
2.318750
0
LINE
8
annotation
62
1
39
211
10
4.143875
20
2.262500
11
4.143875
21
2.318750
0
LINE
8
annotation
62
1
39
211
10
4.143875
20
2.318750
11
4.143875
21
2.262500
0
LINE
8
annotation
62
1
39
211
10
4.143875
20
2.262500
11
4.200125
21
2.262500
0
LINE
8
annotation
62
1
39
211
10
0.749492
20
2.262500
11
0.749492
21
2.206250
0
LINE
8
annotation
62
1
39
211
10
2.383989
20
3.862500
11
2.383989
21
3.918750
0
LINE
8
annotation
62
1
39
211
10
2.383989
20
3.862500
11
2.383989
21
3.918750
0
LINE
8
annotation
62
1
39
211
10
2.383989
20
3.918750
11
2.383989
21
3.862500
0
LINE
8
annotation
62
1
39
211
10
2.383989
20
3.862500
11
2.383989
21
3.806250
0
LINE
8
annotation
62
1
39
211
10
2.383989
20
0.662500
11
2.440239
21
0.662500
0
LINE
8
annotation
62
1
39
211
10
2.383989
20
0.662500
11
2.440239
21
0.662500
0
LINE
8
annotation
62
1
39
211
10
2.440239
20
0.662500
11
2.383989
21
0.662500
0
LINE
8
annotation
62
1
39
211
10
2.383989
20
0.662500
11
2.383989
21
0.606250
0
LINE
8
annotation
62
1
39
211
10
2.081177
20
1.422306
11
2.081177
21
3.102694
0
LINE
8
annotation
62
1
39
211
10
2.081177
20
3.102694
11
1.707605
21
2.729017
0
LINE
8
annotation
62
1
39
211
10
3.457696
20
1.422293
11
2.711396
21
1.422293
0
LINE
8
annotation
62
1
39
211
10
2.711396
20
1.422293
11
3.401002
21
2.532470
0
LINE
8
annotation
62
1
39
211
10
3.401002
20
2.532470
11
3.401002
21
2.532470
0
LINE
8
annotation
62
1
39
211
10
3.401002
20
2.532470
11
3.401826
21
2.533490
0
LINE
8
annotation
62
1
39
211
10
3.401826
20
2.533490
11
3.402617
21
2.534518
0
LINE
8
annotation
62
1
39
211
10
3.402617
20
2.534518
11
3.403379
21
2.535565
0
LINE
8
annotation
62
1
39
211
10
3.403379
20
2.535565
11
3.404117
21
2.536637
0
LINE
8
annotation
62
1
39
211
10
3.404117
20
2.536637
11
3.404838
21
2.537744
0
LINE
8
annotation
62
1
39
211
10
3.404838
20
2.537744
11
3.405545
21
2.538894
0
LINE
8
annotation
62
1
39
211
10
3.405545
20
2.538894
11
3.406244
21
2.540096
0
LINE
8
annotation
62
1
39
211
10
3.406244
20
2.540096
11
3.406941
21
2.541359
0
LINE
8
annotation
62
1
39
211
10
3.406941
20
2.541359
11
3.407641
21
2.542691
0
LINE
8
annotation
62
1
39
211
10
3.407641
20
2.542691
11
3.407641
21
2.542691
0
LINE
8
annotation
62
1
39
211
10
3.407641
20
2.542691
11
3.436114
21
2.603827
0
LINE
8
annotation
62
1
39
211
10
3.436114
20
2.603827
11
3.452748
21
2.667199
0
LINE
8
annotation
62
1
39
211
10
3.452748
20
2.667199
11
3.457950
21
2.731376
0
LINE
8
annotation
62
1
39
211
10
3.457950
20
2.731376
11
3.452127
21
2.794926
0
LINE
8
annotation
62
1
39
211
10
3.452127
20
2.794926
11
3.435687
21
2.856417
0
LINE
8
annotation
62
1
39
211
10
3.435687
20
2.856417
11
3.409038
21
2.914417
0
LINE
8
annotation
62
1
39
211
10
3.409038
20
2.914417
11
3.372587
21
2.967494
0
LINE
8
annotation
62
1
39
211
10
3.372587
20
2.967494
11
3.326743
21
3.014216
0
LINE
8
annotation
62
1
39
211
10
3.326743
20
3.014216
11
3.271911
21
3.053151
0
LINE
8
annotation
62
1
39
211
10
3.271911
20
3.053151
11
3.271911
21
3.053151
0
LINE
8
annotation
62
1
39
211
10
3.271911
20
3.053151
11
3.210606
21
3.081220
0
LINE
8
annotation
62
1
39
211
10
3.210606
20
3.081220
11
3.147137
21
3.097598
0
LINE
8
annotation
62
1
39
211
10
3.147137
20
3.097598
11
3.082922
21
3.102653
0
LINE
8
annotation
62
1
39
211
10
3.082922
20
3.102653
11
3.019382
21
3.096753
0
LINE
8
annotation
62
1
39
211
10
3.019382
20
3.096753
11
2.957934
21
3.080268
0
LINE
8
annotation
62
1
39
211
10
2.957934
20
3.080268
11
2.899999
21
3.053565
0
LINE
8
annotation
62
1
39
211
10
2.899999
20
3.053565
11
2.846994
21
3.017014
0
LINE
8
annotation
62
1
39
211
10
2.846994
20
3.017014
11
2.800338
21
2.970983
0
LINE
8
annotation
62
1
39
211
10
2.800338
20
2.970983
11
2.761451
21
2.915841
0
LINE
8
annotation
62
1
39
211
10
2.761451
20
2.915841
11
2.712450
21
2.821843
0
LINE
8
hole
62
5
39
2
10
7.174229
20
1.798851
11
7.196729
21
1.798851
0
LINE
8
hole
62
5
39
2
10
7.196729
20
1.798851
11
7.196729
21
1.821351
0
LINE
8
hole
62
5
39
2
10
7.196729
20
1.821351
11
7.174229
21
1.821351
0
LINE
8
hole
62
5
39
2
10
7.174229
20
1.821351
11
7.174229
21
1.798851
0
LINE
8
hole
62
5
39
2
10
4.958845
20
1.798851
11
4.981345
21
1.798851
0
LINE
8
hole
62
5
39
2
10
4.981345
20
1.798851
11
4.981345
21
1.821351
0
LINE
8
hole
62
5
39
2
10
4.981345
20
1.821351
11
4.958845
21
1.821351
0
LINE
8
hole
62
5
39
2
10
4.958845
20
1.821351
11
4.958845
21
1.798851
0
LINE
8
hole
62
5
39
2
10
6.139334
20
3.036932
11
6.161834
21
3.036932
0
LINE
8
hole
62
5
39
2
10
6.161834
20
3.036932
11
6.161834
21
3.059432
0
LINE
8
hole
62
5
39
2
10
6.161834
20
3.059432
11
6.139334
21
3.059432
0
LINE
8
hole
62
5
39
2
10
6.139334
20
3.059432
11
6.139334
21
3.036932
0
LINE
8
hole
62
5
39
2
10
6.139334
20
0.560770
11
6.161834
21
0.560770
0
LINE
8
hole
62
5
39
2
10
6.161834
20
0.560770
11
6.161834
21
0.583270
0
LINE
8
hole
62
5
39
2
10
6.161834
20
0.583270
11
6.139334
21
0.583270
0
LINE
8
hole
62
5
39
2
10
6.139334
20
0.583270
11
6.139334
21
0.560770
0
LINE
8
boundary
62
5
39
2
10
4.630478
20
1.810101
11
4.942994
21
1.038779
0
LINE
8
boundary
62
5
39
2
10
4.942994
20
1.038779
11
6.217276
21
0.262500
0
LINE
8
boundary
62
5
39
2
10
6.217276
20
0.262500
11
7.094779
21
0.374297
0
LINE
8
boundary
62
5
39
2
10
7.094779
20
0.374297
11
7.670691
21
1.109320
0
LINE
8
boundary
62
5
39
2
10
7.670691
20
1.109320
11
7.670691
21
2.510882
0
LINE
8
boundary
62
5
39
2
10
7.670691
20
2.510882
11
7.094779
21
3.245906
0
LINE
8
boundary
62
5
39
2
10
7.094779
20
3.245906
11
6.217276
21
3.357702
0
LINE
8
boundary
62
5
39
2
10
6.217276
20
3.357702
11
4.942994
21
2.581424
0
LINE
8
boundary
62
5
39
2
10
4.942994
20
2.581424
11
4.630478
21
1.810101
0
LINE
8
annotation
62
1
39
211
10
7.185479
20
1.810101
11
7.185479
21
1.866351
0
LINE
8
annotation
62
1
39
211
10
7.185479
20
1.810101
11
7.185479
21
1.866351
0
LINE
8
annotation
62
1
39
211
10
7.185479
20
1.866351
11
7.185479
21
1.810101
0
LINE
8
annotation
62
1
39
211
10
7.185479
20
1.810101
11
7.185479
21
1.753851
0
LINE
8
annotation
62
1
39
211
10
4.970095
20
1.810101
11
5.026345
21
1.810101
0
LINE
8
annotation
62
1
39
211
10
4.970095
20
1.810101
11
5.026345
21
1.810101
0
LINE
8
annotation
62
1
39
211
10
5.026345
20
1.810101
11
4.970095
21
1.810101
0
LINE
8
annotation
62
1
39
211
10
4.970095
20
1.810101
11
4.970095
21
1.753851
0
LINE
8
annotation
62
1
39
211
10
6.150584
20
3.048182
11
6.150584
21
3.104432
0
LINE
8
annotation
62
1
39
211
10
6.150584
20
0.572020
11
6.206834
21
0.572020
0
LINE
8
annotation
62
1
39
211
10
6.987903
20
1.456183
11
6.183514
21
1.456183
0
LINE
8
annotation
62
1
39
211
10
6.183514
20
1.456183
11
6.504761
21
2.582818
0
LINE
8
annotation
62
1
39
211
10
6.746787
20
1.134119
11
6.746787
21
1.777521
0
LINE
8
hole
62
5
39
2
10
2.372739
20
7.906230
11
2.395239
21
7.906230
0
LINE
8
hole
62
5
39
2
10
2.395239
20
7.906230
11
2.395239
21
7.928730
0
LINE
8
hole
62
5
39
2
10
2.395239
20
7.928730
11
2.372739
21
7.928730
0
LINE
8
hole
62
5
39
2
10
2.372739
20
7.928730
11
2.372739
21
7.906230
0
LINE
8
hole
62
5
39
2
10
2.372739
20
4.768470
11
2.395239
21
4.768470
0
LINE
8
hole
62
5
39
2
10
2.395239
20
4.768470
11
2.395239
21
4.790970
0
LINE
8
hole
62
5
39
2
10
2.395239
20
4.790970
11
2.372739
21
4.790970
0
LINE
8
hole
62
5
39
2
10
2.372739
20
4.790970
11
2.372739
21
4.768470
0
LINE
8
hole
62
5
39
2
10
4.132625
20
6.337350
11
4.155125
21
6.337350
0
LINE
8
hole
62
5
39
2
10
4.155125
20
6.337350
11
4.155125
21
6.359850
0
LINE
8
hole
62
5
39
2
10
4.155125
20
6.359850
11
4.132625
21
6.359850
0
LINE
8
hole
62
5
39
2
10
4.132625
20
6.359850
11
4.132625
21
6.337350
0
LINE
8
hole
62
5
39
2
10
0.738242
20
6.337350
11
0.760742
21
6.337350
0
LINE
8
hole
62
5
39
2
10
0.760742
20
6.337350
11
0.760742
21
6.359850
0
LINE
8
hole
62
5
39
2
10
0.760742
20
6.359850
11
0.738242
21
6.359850
0
LINE
8
hole
62
5
39
2
10
0.738242
20
6.359850
11
0.738242
21
6.337350
0
LINE
8
boundary
62
5
39
2
10
0.272195
20
6.324672
11
1.586161
21
4.647684
0
LINE
8
boundary
62
5
39
2
10
1.586161
20
4.647684
11
3.628376
21
4.387500
0
LINE
8
boundary
62
5
39
2
10
3.628376
20
4.387500
11
3.737946
21
4.454249
0
LINE
8
boundary
62
5
39
2
10
3.737946
20
4.454249
11
4.505478
21
6.348600
0
LINE
8
boundary
62
5
39
2
10
4.505478
20
6.348600
11
3.737946
21
8.242951
0
LINE
8
boundary
62
5
39
2
10
3.737946
20
8.242951
11
3.628376
21
8.309700
0
LINE
8
boundary
62
5
39
2
10
3.628376
20
8.309700
11
1.586161
21
8.049516
0
LINE
8
boundary
62
5
39
2
10
1.586161
20
8.049516
11
0.272195
21
6.372527
0
LINE
8
boundary
62
5
39
2
10
0.272195
20
6.372527
11
0.262500
21
6.348600
0
LINE
8
boundary
62
5
39
2
10
0.262500
20
6.348600
11
0.272195
21
6.324672
0
LINE
8
annotation
62
1
39
211
10
3.563854
20
4.574353
11
3.605760
21
4.599881
0
LINE
8
annotation
62
1
39
211
10
3.605759
20
8.097320
11
3.563855
21
8.122847
0
LINE
8
annotation
62
1
39
211
10
4.143875
20
6.348600
11
4.143875
21
6.404850
0
LINE
8
annotation
62
1
39
211
10
0.749492
20
6.348600
11
0.805742
21
6.348600
0
LINE
8
annotation
62
1
39
211
10
2.383989
20
7.917480
11
2.383989
21
7.973730
0
LINE
8
annotation
62
1
39
211
10
2.383989
20
7.917480
11
2.383989
21
7.973730
0
LINE
8
annotation
62
1
39
211
10
2.383989
20
7.973730
11
2.383989
21
7.917480
0
LINE
8
annotation
62
1
39
211
10
2.383989
20
7.917480
11
2.440239
21
7.917480
0
LINE
8
annotation
62
1
39
211
10
2.383989
20
4.779720
11
2.383989
21
4.723470
0
LINE
8
annotation
62
1
39
211
10
2.174631
20
5.518484
11
2.174631
21
7.046109
0
LINE
8
annotation
62
1
39
211
10
2.174631
20
7.046109
11
1.835020
21
6.706403
0
LINE
8
annotation
62
1
39
211
10
3.595654
20
5.858095
11
2.747442
21
5.858095
0
LINE
8
annotation
62
1
39
211
10
2.747442
20
5.858095
11
3.086190
21
7.046109
0
LINE
8
annotation
62
1
39
211
10
3.341401
20
5.518484
11
3.341401
21
6.196939
0
LINE
8
hole
62
5
39
2
10
6.033500
20
4.935263
11
6.056000
21
4.935263
0
LINE
8
hole
62
5
39
2
10
6.056000
20
4.935263
11
6.056000
21
4.957763
0
LINE
8
hole
62
5
39
2
10
6.056000
20
4.957763
11
6.033500
21
4.957763
0
LINE
8
hole
62
5
39
2
10
6.033500
20
4.957763
11
6.033500
21
4.935263
0
LINE
8
hole
62
5
39
2
10
6.089750
20
6.766162
11
6.112250
21
6.766162
0
LINE
8
hole
62
5
39
2
10
6.112250
20
6.766162
11
6.112250
21
6.788662
0
LINE
8
hole
62
5
39
2
10
6.112250
20
6.788662
11
6.089750
21
6.788662
0
LINE
8
hole
62
5
39
2
10
6.089750
20
6.788662
11
6.089750
21
6.766162
0
LINE
8
hole
62
5
39
2
10
7.111535
20
5.831963
11
7.134035
21
5.831963
0
LINE
8
hole
62
5
39
2
10
7.134035
20
5.831963
11
7.134035
21
5.854463
0
LINE
8
hole
62
5
39
2
10
7.134035
20
5.854463
11
7.111535
21
5.854463
0
LINE
8
hole
62
5
39
2
10
7.111535
20
5.854463
11
7.111535
21
5.831963
0
LINE
8
hole
62
5
39
2
10
4.896151
20
5.831963
11
4.918651
21
5.831963
0
LINE
8
hole
62
5
39
2
10
4.918651
20
5.831963
11
4.918651
21
5.854463
0
LINE
8
hole
62
5
39
2
10
4.918651
20
5.854463
11
4.896151
21
5.854463
0
LINE
8
hole
62
5
39
2
10
4.896151
20
5.854463
11
4.896151
21
5.831963
0
LINE
8
boundary
62
5
39
2
10
4.630478
20
5.843213
11
4.841879
21
5.321452
0
LINE
8
boundary
62
5
39
2
10
4.841879
20
5.321452
11
6.374986
21
4.387500
0
LINE
8
boundary
62
5
39
2
10
6.374986
20
4.387500
11
6.993665
21
4.466322
0
LINE
8
boundary
62
5
39
2
10
6.993665
20
4.466322
11
7.399708
21
4.984546
0
LINE
8
boundary
62
5
39
2
10
7.399708
20
4.984546
11
7.399708
21
6.701879
0
LINE
8
boundary
62
5
39
2
10
7.399708
20
6.701879
11
6.993665
21
7.220104
0
LINE
8
boundary
62
5
39
2
10
6.993665
20
7.220104
11
6.374986
21
7.298925
0
LINE
8
boundary
62
5
39
2
10
6.374986
20
7.298925
11
4.841879
21
6.364973
0
LINE
8
boundary
62
5
39
2
10
4.841879
20
6.364973
11
4.630478
21
5.843213
0
LINE
8
annotation
62
1
39
211
10
6.101000
20
6.777412
11
6.101000
21
6.833662
0
LINE
8
annotation
62
1
39
211
10
6.101000
20
6.777412
11
6.101000
21
6.833662
0
LINE
8
annotation
62
1
39
211
10
6.101000
20
6.833662
11
6.101000
21
6.777412
0
LINE
8
annotation
62
1
39
211
10
6.101000
20
6.777412
11
6.157250
21
6.777412
0
LINE
8
annotation
62
1
39
211
10
6.044750
20
4.946513
11
6.044750
21
4.890263
0
LINE
8
annotation
62
1
39
211
10
7.122785
20
5.843213
11
7.122785
21
5.899463
0
LINE
8
annotation
62
1
39
211
10
7.122785
20
5.843213
11
7.122785
21
5.899463
0
LINE
8
annotation
62
1
39
211
10
7.122785
20
5.899463
11
7.122785
21
5.843213
0
LINE
8
annotation
62
1
39
211
10
7.122785
20
5.843213
11
7.122785
21
5.786963
0
LINE
8
annotation
62
1
39
211
10
4.907401
20
5.843213
11
4.963651
21
5.843213
0
LINE
8
annotation
62
1
39
211
10
4.907401
20
5.843213
11
4.963651
21
5.843213
0
LINE
8
annotation
62
1
39
211
10
4.963651
20
5.843213
11
4.907401
21
5.843213
0
LINE
8
annotation
62
1
39
211
10
4.907401
20
5.843213
11
4.907401
21
5.786963
0
LINE
8
annotation
62
1
39
211
10
6.258269
20
5.207409
11
6.560869
21
5.207409
0
LINE
8
annotation
62
1
39
211
10
6.560869
20
5.207409
11
6.560869
21
5.207409
0
LINE
8
annotation
62
1
39
211
10
6.560869
20
5.207409
11
6.615292
21
5.212291
0
LINE
8
annotation
62
1
39
211
10
6.615292
20
5.212291
11
6.666503
21
5.226362
0
LINE
8
annotation
62
1
39
211
10
6.666503
20
5.226362
11
6.713648
21
5.248757
0
LINE
8
annotation
62
1
39
211
10
6.713648
20
5.248757
11
6.755878
21
5.278614
0
LINE
8
annotation
62
1
39
211
10
6.755878
20
5.278614
11
6.792339
21
5.315068
0
LINE
8
annotation
62
1
39
211
10
6.792339
20
5.315068
11
6.822181
21
5.357255
0
LINE
8
annotation
62
1
39
211
10
6.822181
20
5.357255
11
6.844551
21
5.404312
0
LINE
8
annotation
62
1
39
211
10
6.844551
20
5.404312
11
6.858597
21
5.455376
0
LINE
8
annotation
62
1
39
211
10
6.858597
20
5.455376
11
6.863469
21
5.509582
0
LINE
8
annotation
62
1
39
211
10
6.863469
20
5.509582
11
6.863469
21
5.661096
0
LINE
8
annotation
62
1
39
211
10
6.863469
20
5.661096
11
6.863469
21
5.661096
0
LINE
8
annotation
62
1
39
211
10
6.863469
20
5.661096
11
6.858597
21
5.715279
0
LINE
8
annotation
62
1
39
211
10
6.858597
20
5.715279
11
6.844551
21
5.766331
0
LINE
8
annotation
62
1
39
211
10
6.844551
20
5.766331
11
6.822181
21
5.813385
0
LINE
8
annotation
62
1
39
211
10
6.822181
20
5.813385
11
6.792339
21
5.855575
0
LINE
8
annotation
62
1
39
211
10
6.792339
20
5.855575
11
6.755878
21
5.892036
0
LINE
8
annotation
62
1
39
211
10
6.755878
20
5.892036
11
6.713648
21
5.921902
0
LINE
8
annotation
62
1
39
211
10
6.713648
20
5.921902
11
6.666503
21
5.944306
0
LINE
8
annotation
62
1
39
211
10
6.666503
20
5.944306
11
6.615292
21
5.958384
0
LINE
8
annotation
62
1
39
211
10
6.615292
20
5.958384
11
6.560869
21
5.963269
0
LINE
8
annotation
62
1
39
211
10
6.560869
20
5.963269
11
6.409355
21
5.963269
0
LINE
8
annotation
62
1
39
211
10
6.409355
20
5.963269
11
6.560869
21
5.963269
0
LINE
8
annotation
62
1
39
211
10
6.560869
20
5.963269
11
6.560869
21
5.963269
0
LINE
8
annotation
62
1
39
211
10
6.560869
20
5.963269
11
6.615292
21
5.968155
0
LINE
8
annotation
62
1
39
211
10
6.615292
20
5.968155
11
6.666503
21
5.982241
0
LINE
8
annotation
62
1
39
211
10
6.666503
20
5.982241
11
6.713648
21
6.004667
0
LINE
8
annotation
62
1
39
211
10
6.713648
20
6.004667
11
6.755878
21
6.034576
0
LINE
8
annotation
62
1
39
211
10
6.755878
20
6.034576
11
6.792339
21
6.071109
0
LINE
8
annotation
62
1
39
211
10
6.792339
20
6.071109
11
6.822181
21
6.113405
0
LINE
8
annotation
62
1
39
211
10
6.822181
20
6.113405
11
6.844551
21
6.160608
0
LINE
8
annotation
62
1
39
211
10
6.844551
20
6.160608
11
6.858597
21
6.211858
0
LINE
8
annotation
62
1
39
211
10
6.858597
20
6.211858
11
6.863469
21
6.266296
0
LINE
8
annotation
62
1
39
211
10
6.863469
20
6.266296
11
6.863469
21
6.266296
0
LINE
8
annotation
62
1
39
211
10
6.863469
20
6.266296
11
6.858597
21
6.320480
0
LINE
8
annotation
62
1
39
211
10
6.858597
20
6.320480
11
6.844551
21
6.371531
0
LINE
8
annotation
62
1
39
211
10
6.844551
20
6.371531
11
6.822181
21
6.418585
0
LINE
8
annotation
62
1
39
211
10
6.822181
20
6.418585
11
6.792339
21
6.460775
0
LINE
8
annotation
62
1
39
211
10
6.792339
20
6.460775
11
6.755878
21
6.497236
0
LINE
8
annotation
62
1
39
211
10
6.755878
20
6.497236
11
6.713648
21
6.527102
0
LINE
8
annotation
62
1
39
211
10
6.713648
20
6.527102
11
6.666503
21
6.549506
0
LINE
8
annotation
62
1
39
211
10
6.666503
20
6.549506
11
6.615292
21
6.563584
0
LINE
8
annotation
62
1
39
211
10
6.615292
20
6.563584
11
6.560869
21
6.568469
0
LINE
8
annotation
62
1
39
211
10
6.560869
20
6.568469
11
6.258269
21
6.568469
0
LINE
8
hole
62
5
39
2
10
5.970806
20
7.879800
11
5.993306
21
7.879800
0
LINE
8
hole
62
5
39
2
10
5.993306
20
7.879800
11
5.993306
21
7.902300
0
LINE
8
hole
62
5
39
2
10
5.993306
20
7.902300
11
5.970806
21
7.902300
0
LINE
8
hole
62
5
39
2
10
5.970806
20
7.902300
11
5.970806
21
7.879800
0
LINE
8
hole
62
5
39
2
10
6.027056
20
9.710698
11
6.049556
21
9.710698
0
LINE
8
hole
62
5
39
2
10
6.049556
20
9.710698
11
6.049556
21
9.733198
0
LINE
8
hole
62
5
39
2
10
6.049556
20
9.733198
11
6.027056
21
9.733198
0
LINE
8
hole
62
5
39
2
10
6.027056
20
9.733198
11
6.027056
21
9.710698
0
LINE
8
hole
62
5
39
2
10
6.686460
20
8.776499
11
6.708960
21
8.776499
0
LINE
8
hole
62
5
39
2
10
6.708960
20
8.776499
11
6.708960
21
8.798999
0
LINE
8
hole
62
5
39
2
10
6.708960
20
8.798999
11
6.686460
21
8.798999
0
LINE
8
hole
62
5
39
2
10
6.686460
20
8.798999
11
6.686460
21
8.776499
0
LINE
8
hole
62
5
39
2
10
4.904649
20
8.776499
11
4.927149
21
8.776499
0
LINE
8
hole
62
5
39
2
10
4.927149
20
8.776499
11
4.927149
21
8.798999
0
LINE
8
hole
62
5
39
2
10
4.927149
20
8.798999
11
4.904649
21
8.798999
0
LINE
8
hole
62
5
39
2
10
4.904649
20
8.798999
11
4.904649
21
8.776499
0
LINE
8
boundary
62
5
39
2
10
4.630478
20
8.787749
11
4.740764
21
8.515550
0
LINE
8
boundary
62
5
39
2
10
4.740764
20
8.515550
11
6.532696
21
7.423925
0
LINE
8
boundary
62
5
39
2
10
6.532696
20
7.423925
11
6.892550
21
7.469772
0
LINE
8
boundary
62
5
39
2
10
6.892550
20
7.469772
11
7.128725
21
7.771197
0
LINE
8
boundary
62
5
39
2
10
7.128725
20
7.771197
11
7.128725
21
9.804302
0
LINE
8
boundary
62
5
39
2
10
7.128725
20
9.804302
11
6.892550
21
10.105727
0
LINE
8
boundary
62
5
39
2
10
6.892550
20
10.105727
11
6.532696
21
10.151573
0
LINE
8
boundary
62
5
39
2
10
6.532696
20
10.151573
11
4.740764
21
9.059948
0
LINE
8
boundary
62
5
39
2
10
4.740764
20
9.059948
11
4.630478
21
8.787749
0
LINE
8
annotation
62
1
39
211
10
6.697710
20
8.787749
11
6.697710
21
8.843999
0
LINE
8
annotation
62
1
39
211
10
4.915899
20
8.787749
11
4.972149
21
8.787749
0
LINE
8
annotation
62
1
39
211
10
6.038306
20
9.721948
11
6.038306
21
9.778198
0
LINE
8
annotation
62
1
39
211
10
6.038306
20
9.721948
11
6.038306
21
9.778198
0
LINE
8
annotation
62
1
39
211
10
6.038306
20
9.778198
11
6.038306
21
9.721948
0
LINE
8
annotation
62
1
39
211
10
6.038306
20
9.721948
11
6.094556
21
9.721948
0
LINE
8
annotation
62
1
39
211
10
5.982056
20
7.891050
11
5.982056
21
7.834800
0
LINE
8
annotation
62
1
39
211
10
6.588211
20
8.290236
11
6.108443
21
8.290236
0
LINE
8
annotation
62
1
39
211
10
6.108443
20
8.290236
11
6.551765
21
9.003926
0
LINE
8
annotation
62
1
39
211
10
6.551765
20
9.003926
11
6.551765
21
9.003926
0
LINE
8
annotation
62
1
39
211
10
6.551765
20
9.003926
11
6.552295
21
9.004582
0
LINE
8
annotation
62
1
39
211
10
6.552295
20
9.004582
11
6.552803
21
9.005243
0
LINE
8
annotation
62
1
39
211
10
6.552803
20
9.005243
11
6.553293
21
9.005916
0
LINE
8
annotation
62
1
39
211
10
6.553293
20
9.005916
11
6.553767
21
9.006605
0
LINE
8
annotation
62
1
39
211
10
6.553767
20
9.006605
11
6.554230
21
9.007316
0
LINE
8
annotation
62
1
39
211
10
6.554230
20
9.007316
11
6.554685
21
9.008056
0
LINE
8
annotation
62
1
39
211
10
6.554685
20
9.008056
11
6.555135
21
9.008829
0
LINE
8
annotation
62
1
39
211
10
6.555135
20
9.008829
11
6.555583
21
9.009641
0
LINE
8
annotation
62
1
39
211
10
6.555583
20
9.009641
11
6.556032
21
9.010497
0
LINE
8
annotation
62
1
39
211
10
6.556032
20
9.010497
11
6.556032
21
9.010497
0
LINE
8
annotation
62
1
39
211
10
6.556032
20
9.010497
11
6.574337
21
9.049799
0
LINE
8
annotation
62
1
39
211
10
6.574337
20
9.049799
11
6.585030
21
9.090538
0
LINE
8
annotation
62
1
39
211
10
6.585030
20
9.090538
11
6.588374
21
9.131795
0
LINE
8
annotation
62
1
39
211
10
6.588374
20
9.131795
11
6.584631
21
9.172649
0
LINE
8
annotation
62
1
39
211
10
6.584631
20
9.172649
11
6.574062
21
9.212179
0
LINE
8
annotation
62
1
39
211
10
6.574062
20
9.212179
11
6.556931
21
9.249465
0
LINE
8
annotation
62
1
39
211
10
6.556931
20
9.249465
11
6.533498
21
9.283586
0
LINE
8
annotation
62
1
39
211
10
6.533498
20
9.283586
11
6.504026
21
9.313622
0
LINE
8
annotation
62
1
39
211
10
6.504026
20
9.313622
11
6.468777
21
9.338652
0
LINE
8
annotation
62
1
39
211
10
6.468777
20
9.338652
11
6.468777
21
9.338652
0
LINE
8
annotation
62
1
39
211
10
6.468777
20
9.338652
11
6.429366
21
9.356697
0
LINE
8
annotation
62
1
39
211
10
6.429366
20
9.356697
11
6.388564
21
9.367225
0
LINE
8
annotation
62
1
39
211
10
6.388564
20
9.367225
11
6.347284
21
9.370475
0
LINE
8
annotation
62
1
39
211
10
6.347284
20
9.370475
11
6.306436
21
9.366682
0
LINE
8
annotation
62
1
39
211
10
6.306436
20
9.366682
11
6.266934
21
9.356084
0
LINE
8
annotation
62
1
39
211
10
6.266934
20
9.356084
11
6.229689
21
9.338918
0
LINE
8
annotation
62
1
39
211
10
6.229689
20
9.338918
11
6.195614
21
9.315421
0
LINE
8
annotation
62
1
39
211
10
6.195614
20
9.315421
11
6.165621
21
9.285830
0
LINE
8
annotation
62
1
39
211
10
6.165621
20
9.285830
11
6.140622
21
9.250381
0
LINE
8
annotation
62
1
39
211
10
6.140622
20
9.250381
11
6.109121
21
9.189953
0
LINE
8
frame
62
5
39
2
10
0.000000
20
0.000000
11
8.500000
21
0.000000
0
LINE
8
frame
62
5
39
2
10
8.500000
20
0.000000
11
8.500000
21
11.000000
0
LINE
8
frame
62
5
39
2
10
8.500000
20
11.000000
11
0.000000
21
11.000000
0
LINE
8
frame
62
5
39
2
10
0.000000
20
11.000000
11
0.000000
21
0.000000
0
ENDSEC
0
EOF
