0
SECTION
2
HEADER
9
$ACADVER
1
AC1009
0
ENDSEC
0
SECTION
2
TABLES
0
TABLE
2
VPORT
70
1
0
VPORT
2
ACTIVE
70
0
10
0.0
20
0.0
11
0.0
21
0.0
12
0.0
22
0.0
13
0.0
23
0.0
14
0.0
24
0.0
15
0.0
25
0.0
16
0.0
26
0.0
36
0.0
17
0.0
27
0.0
37
0.0
40
0.0
41
0.0
42
0.0
43
0.0
44
0.0
50
0.0
51
0.0
71
0
72
1000
73
1
74
3
75
0
76
0
77
0
78
0
0
ENDTAB
0
ENDSEC
0
SECTION
2
ENTITIES
0
LINE
8
hole
62
5
39
2
10
4.069930
20
2.251250
11
4.092430
21
2.251250
0
LINE
8
hole
62
5
39
2
10
4.092430
20
2.251250
11
4.092430
21
2.273750
0
LINE
8
hole
62
5
39
2
10
4.092430
20
2.273750
11
4.069930
21
2.273750
0
LINE
8
hole
62
5
39
2
10
4.069930
20
2.273750
11
4.069930
21
2.251250
0
LINE
8
hole
62
5
39
2
10
0.675548
20
2.251250
11
0.698048
21
2.251250
0
LINE
8
hole
62
5
39
2
10
0.698048
20
2.251250
11
0.698048
21
2.273750
0
LINE
8
hole
62
5
39
2
10
0.698048
20
2.273750
11
0.675548
21
2.273750
0
LINE
8
hole
62
5
39
2
10
0.675548
20
2.273750
11
0.675548
21
2.251250
0
LINE
8
hole
62
5
39
2
10
2.435433
20
3.851250
11
2.457933
21
3.851250
0
LINE
8
hole
62
5
39
2
10
2.457933
20
3.851250
11
2.457933
21
3.873750
0
LINE
8
hole
62
5
39
2
10
2.457933
20
3.873750
11
2.435433
21
3.873750
0
LINE
8
hole
62
5
39
2
10
2.435433
20
3.873750
11
2.435433
21
3.851250
0
LINE
8
hole
62
5
39
2
10
2.435433
20
0.651250
11
2.457933
21
0.651250
0
LINE
8
hole
62
5
39
2
10
2.457933
20
0.651250
11
2.457933
21
0.673750
0
LINE
8
hole
62
5
39
2
10
2.457933
20
0.673750
11
2.435433
21
0.673750
0
LINE
8
hole
62
5
39
2
10
2.435433
20
0.673750
11
2.435433
21
0.651250
0
LINE
8
boundary
62
5
39
2
10
0.745326
20
1.070833
11
1.282818
21
0.384844
0
LINE
8
boundary
62
5
39
2
10
1.282818
20
0.384844
11
2.243106
21
0.262500
0
LINE
8
boundary
62
5
39
2
10
2.243106
20
0.262500
11
3.434603
21
0.414300
0
LINE
8
boundary
62
5
39
2
10
3.434603
20
0.414300
11
4.101507
21
1.265456
0
LINE
8
boundary
62
5
39
2
10
4.101507
20
1.265456
11
4.505478
21
2.262500
0
LINE
8
boundary
62
5
39
2
10
4.505478
20
2.262500
11
4.101507
21
3.259544
0
LINE
8
boundary
62
5
39
2
10
4.101507
20
3.259544
11
3.434603
21
4.110700
0
LINE
8
boundary
62
5
39
2
10
3.434603
20
4.110700
11
2.243106
21
4.262500
0
LINE
8
boundary
62
5
39
2
10
2.243106
20
4.262500
11
1.282818
21
4.140156
0
LINE
8
boundary
62
5
39
2
10
1.282818
20
4.140156
11
0.745326
21
3.454167
0
LINE
8
boundary
62
5
39
2
10
0.745326
20
3.454167
11
0.262500
21
2.262500
0
LINE
8
boundary
62
5
39
2
10
0.262500
20
2.262500
11
0.745326
21
1.070833
0
LINE
8
annotation
62
1
39
211
10
2.446683
20
3.862500
11
2.446683
21
3.918750
0
LINE
8
annotation
62
1
39
211
10
2.446683
20
0.662500
11
2.502933
21
0.662500
0
LINE
8
annotation
62
1
39
211
10
4.081180
20
2.262500
11
4.081180
21
2.318750
0
LINE
8
annotation
62
1
39
211
10
4.081180
20
2.262500
11
4.081180
21
2.318750
0
LINE
8
annotation
62
1
39
211
10
4.081180
20
2.318750
11
4.081180
21
2.262500
0
LINE
8
annotation
62
1
39
211
10
4.081180
20
2.262500
11
4.137430
21
2.262500
0
LINE
8
annotation
62
1
39
211
10
0.686798
20
2.262500
11
0.686798
21
2.206250
0
LINE
8
annotation
62
1
39
211
10
1.604636
20
1.422306
11
1.604636
21
3.102694
0
LINE
8
annotation
62
1
39
211
10
1.604636
20
3.102694
11
1.231065
21
2.729017
0
LINE
8
annotation
62
1
39
211
10
2.608353
20
1.422306
11
2.608353
21
3.102694
0
LINE
8
annotation
62
1
39
211
10
2.608353
20
3.102694
11
2.234781
21
2.729017
0
LINE
8
hole
62
5
39
2
10
7.599304
20
1.890740
11
7.621804
21
1.890740
0
LINE
8
hole
62
5
39
2
10
7.621804
20
1.890740
11
7.621804
21
1.913240
0
LINE
8
hole
62
5
39
2
10
7.621804
20
1.913240
11
7.599304
21
1.913240
0
LINE
8
hole
62
5
39
2
10
7.599304
20
1.913240
11
7.599304
21
1.890740
0
LINE
8
hole
62
5
39
2
10
4.950347
20
1.890740
11
4.972847
21
1.890740
0
LINE
8
hole
62
5
39
2
10
4.972847
20
1.890740
11
4.972847
21
1.913240
0
LINE
8
hole
62
5
39
2
10
4.972847
20
1.913240
11
4.950347
21
1.913240
0
LINE
8
hole
62
5
39
2
10
4.950347
20
1.913240
11
4.950347
21
1.890740
0
LINE
8
hole
62
5
39
2
10
6.202029
20
3.128821
11
6.224529
21
3.128821
0
LINE
8
hole
62
5
39
2
10
6.224529
20
3.128821
11
6.224529
21
3.151321
0
LINE
8
hole
62
5
39
2
10
6.224529
20
3.151321
11
6.202029
21
3.151321
0
LINE
8
hole
62
5
39
2
10
6.202029
20
3.151321
11
6.202029
21
3.128821
0
LINE
8
hole
62
5
39
2
10
6.202029
20
0.652659
11
6.224529
21
0.652659
0
LINE
8
hole
62
5
39
2
10
6.224529
20
0.652659
11
6.224529
21
0.675159
0
LINE
8
hole
62
5
39
2
10
6.224529
20
0.675159
11
6.202029
21
0.675159
0
LINE
8
hole
62
5
39
2
10
6.202029
20
0.675159
11
6.202029
21
0.652659
0
LINE
8
boundary
62
5
39
2
10
4.630478
20
1.901990
11
5.044108
21
0.881105
0
LINE
8
boundary
62
5
39
2
10
5.044108
20
0.881105
11
6.059565
21
0.262500
0
LINE
8
boundary
62
5
39
2
10
6.059565
20
0.262500
11
7.195894
21
0.407272
0
LINE
8
boundary
62
5
39
2
10
7.195894
20
0.407272
11
7.941673
21
1.359095
0
LINE
8
boundary
62
5
39
2
10
7.941673
20
1.359095
11
7.941673
21
2.444885
0
LINE
8
boundary
62
5
39
2
10
7.941673
20
2.444885
11
7.195894
21
3.396708
0
LINE
8
boundary
62
5
39
2
10
7.195894
20
3.396708
11
6.059565
21
3.541480
0
LINE
8
boundary
62
5
39
2
10
6.059565
20
3.541480
11
5.044108
21
2.922874
0
LINE
8
boundary
62
5
39
2
10
5.044108
20
2.922874
11
4.630478
21
1.901990
0
LINE
8
annotation
62
1
39
211
10
6.213279
20
3.140071
11
6.213279
21
3.196321
0
LINE
8
annotation
62
1
39
211
10
6.213279
20
0.663909
11
6.269529
21
0.663909
0
LINE
8
annotation
62
1
39
211
10
7.610554
20
1.901990
11
7.610554
21
1.958240
0
LINE
8
annotation
62
1
39
211
10
7.610554
20
1.901990
11
7.610554
21
1.958240
0
LINE
8
annotation
62
1
39
211
10
7.610554
20
1.958240
11
7.610554
21
1.901990
0
LINE
8
annotation
62
1
39
211
10
7.610554
20
1.901990
11
7.666804
21
1.901990
0
LINE
8
annotation
62
1
39
211
10
4.961597
20
1.901990
11
4.961597
21
1.845740
0
LINE
8
annotation
62
1
39
211
10
6.173956
20
1.015742
11
6.544579
21
1.015742
0
LINE
8
annotation
62
1
39
211
10
6.544579
20
1.015742
11
6.544579
21
1.015742
0
LINE
8
annotation
62
1
39
211
10
6.544579
20
1.015742
11
6.611099
21
1.021723
0
LINE
8
annotation
62
1
39
211
10
6.611099
20
1.021723
11
6.673748
21
1.038966
0
LINE
8
annotation
62
1
39
211
10
6.673748
20
1.038966
11
6.731471
21
1.066420
0
LINE
8
annotation
62
1
39
211
10
6.731471
20
1.066420
11
6.783211
21
1.103036
0
LINE
8
annotation
62
1
39
211
10
6.783211
20
1.103036
11
6.827911
21
1.147763
0
LINE
8
annotation
62
1
39
211
10
6.827911
20
1.147763
11
6.864517
21
1.199552
0
LINE
8
annotation
62
1
39
211
10
6.864517
20
1.199552
11
6.891972
21
1.257352
0
LINE
8
annotation
62
1
39
211
10
6.891972
20
1.257352
11
6.909219
21
1.320113
0
LINE
8
annotation
62
1
39
211
10
6.909219
20
1.320113
11
6.915203
21
1.386785
0
LINE
8
annotation
62
1
39
211
10
6.915203
20
1.386785
11
6.915203
21
1.571416
0
LINE
8
annotation
62
1
39
211
10
6.915203
20
1.571416
11
6.915203
21
1.571416
0
LINE
8
annotation
62
1
39
211
10
6.915203
20
1.571416
11
6.909223
21
1.638056
0
LINE
8
annotation
62
1
39
211
10
6.909223
20
1.638056
11
6.891984
21
1.700730
0
LINE
8
annotation
62
1
39
211
10
6.891984
20
1.700730
11
6.864540
21
1.758404
0
LINE
8
annotation
62
1
39
211
10
6.864540
20
1.758404
11
6.827946
21
1.810044
0
LINE
8
annotation
62
1
39
211
10
6.827946
20
1.810044
11
6.783254
21
1.854615
0
LINE
8
annotation
62
1
39
211
10
6.783254
20
1.854615
11
6.731517
21
1.891083
0
LINE
8
annotation
62
1
39
211
10
6.731517
20
1.891083
11
6.673790
21
1.918412
0
LINE
8
annotation
62
1
39
211
10
6.673790
20
1.918412
11
6.611127
21
1.935568
0
LINE
8
annotation
62
1
39
211
10
6.611127
20
1.935568
11
6.544579
21
1.941516
0
LINE
8
annotation
62
1
39
211
10
6.544579
20
1.941516
11
6.173956
21
1.941516
0
LINE
8
annotation
62
1
39
211
10
6.173956
20
1.941516
11
6.173956
21
2.684752
0
LINE
8
annotation
62
1
39
211
10
6.173956
20
2.684752
11
6.915203
21
2.684752
0
LINE
8
hole
62
5
39
2
10
2.435433
20
7.976250
11
2.457933
21
7.976250
0
LINE
8
hole
62
5
39
2
10
2.457933
20
7.976250
11
2.457933
21
7.998750
0
LINE
8
hole
62
5
39
2
10
2.457933
20
7.998750
11
2.435433
21
7.998750
0
LINE
8
hole
62
5
39
2
10
2.435433
20
7.998750
11
2.435433
21
7.976250
0
LINE
8
hole
62
5
39
2
10
2.435433
20
4.776250
11
2.457933
21
4.776250
0
LINE
8
hole
62
5
39
2
10
2.457933
20
4.776250
11
2.457933
21
4.798750
0
LINE
8
hole
62
5
39
2
10
2.457933
20
4.798750
11
2.435433
21
4.798750
0
LINE
8
hole
62
5
39
2
10
2.435433
20
4.798750
11
2.435433
21
4.776250
0
LINE
8
hole
62
5
39
2
10
4.069930
20
6.376250
11
4.092430
21
6.376250
0
LINE
8
hole
62
5
39
2
10
4.092430
20
6.376250
11
4.092430
21
6.398750
0
LINE
8
hole
62
5
39
2
10
4.092430
20
6.398750
11
4.069930
21
6.398750
0
LINE
8
hole
62
5
39
2
10
4.069930
20
6.398750
11
4.069930
21
6.376250
0
LINE
8
hole
62
5
39
2
10
0.675548
20
6.376250
11
0.698048
21
6.376250
0
LINE
8
hole
62
5
39
2
10
0.698048
20
6.376250
11
0.698048
21
6.398750
0
LINE
8
hole
62
5
39
2
10
0.698048
20
6.398750
11
0.675548
21
6.398750
0
LINE
8
hole
62
5
39
2
10
0.675548
20
6.398750
11
0.675548
21
6.376250
0
LINE
8
boundary
62
5
39
2
10
0.429905
20
5.974326
11
1.485047
21
4.627671
0
LINE
8
boundary
62
5
39
2
10
1.485047
20
4.627671
11
3.370173
21
4.387500
0
LINE
8
boundary
62
5
39
2
10
3.370173
20
4.387500
11
3.636832
21
4.421473
0
LINE
8
boundary
62
5
39
2
10
3.636832
20
4.421473
11
3.786086
21
4.611963
0
LINE
8
boundary
62
5
39
2
10
3.786086
20
4.611963
11
4.505478
21
6.387500
0
LINE
8
boundary
62
5
39
2
10
4.505478
20
6.387500
11
3.786086
21
8.163037
0
LINE
8
boundary
62
5
39
2
10
3.786086
20
8.163037
11
3.636832
21
8.353527
0
LINE
8
boundary
62
5
39
2
10
3.636832
20
8.353527
11
3.370173
21
8.387500
0
LINE
8
boundary
62
5
39
2
10
3.370173
20
8.387500
11
1.485047
21
8.147329
0
LINE
8
boundary
62
5
39
2
10
1.485047
20
8.147329
11
0.429905
21
6.800674
0
LINE
8
boundary
62
5
39
2
10
0.429905
20
6.800674
11
0.262500
21
6.387500
0
LINE
8
boundary
62
5
39
2
10
0.262500
20
6.387500
11
0.429905
21
5.974326
0
LINE
8
annotation
62
1
39
211
10
2.446683
20
7.987500
11
2.446683
21
8.043750
0
LINE
8
annotation
62
1
39
211
10
2.446683
20
7.987500
11
2.446683
21
8.043750
0
LINE
8
annotation
62
1
39
211
10
2.446683
20
8.043750
11
2.446683
21
7.987500
0
LINE
8
annotation
62
1
39
211
10
2.446683
20
7.987500
11
2.446683
21
7.931250
0
LINE
8
annotation
62
1
39
211
10
2.446683
20
4.787500
11
2.502933
21
4.787500
0
LINE
8
annotation
62
1
39
211
10
2.446683
20
4.787500
11
2.502933
21
4.787500
0
LINE
8
annotation
62
1
39
211
10
2.502933
20
4.787500
11
2.446683
21
4.787500
0
LINE
8
annotation
62
1
39
211
10
2.446683
20
4.787500
11
2.446683
21
4.731250
0
LINE
8
annotation
62
1
39
211
10
4.081180
20
6.387500
11
4.081180
21
6.443750
0
LINE
8
annotation
62
1
39
211
10
0.686798
20
6.387500
11
0.743048
21
6.387500
0
LINE
8
annotation
62
1
39
211
10
2.081303
20
5.547306
11
2.081303
21
7.227694
0
LINE
8
annotation
62
1
39
211
10
2.081303
20
7.227694
11
1.707732
21
6.854017
0
LINE
8
annotation
62
1
39
211
10
2.711396
20
5.547359
11
3.084546
21
5.547359
0
LINE
8
annotation
62
1
39
211
10
3.084546
20
5.547359
11
3.084546
21
5.547359
0
LINE
8
annotation
62
1
39
211
10
3.084546
20
5.547359
11
3.151658
21
5.553379
0
LINE
8
annotation
62
1
39
211
10
3.151658
20
5.553379
11
3.214808
21
5.570731
0
LINE
8
annotation
62
1
39
211
10
3.214808
20
5.570731
11
3.272946
21
5.598347
0
LINE
8
annotation
62
1
39
211
10
3.272946
20
5.598347
11
3.325021
21
5.635165
0
LINE
8
annotation
62
1
39
211
10
3.325021
20
5.635165
11
3.369983
21
5.680117
0
LINE
8
annotation
62
1
39
211
10
3.369983
20
5.680117
11
3.406782
21
5.732141
0
LINE
8
annotation
62
1
39
211
10
3.406782
20
5.732141
11
3.434367
21
5.790169
0
LINE
8
annotation
62
1
39
211
10
3.434367
20
5.790169
11
3.451689
21
5.853138
0
LINE
8
annotation
62
1
39
211
10
3.451689
20
5.853138
11
3.457696
21
5.919982
0
LINE
8
annotation
62
1
39
211
10
3.457696
20
5.919982
11
3.457696
21
6.106821
0
LINE
8
annotation
62
1
39
211
10
3.457696
20
6.106821
11
3.457696
21
6.106821
0
LINE
8
annotation
62
1
39
211
10
3.457696
20
6.106821
11
3.451689
21
6.173637
0
LINE
8
annotation
62
1
39
211
10
3.451689
20
6.173637
11
3.434367
21
6.236591
0
LINE
8
annotation
62
1
39
211
10
3.434367
20
6.236591
11
3.406782
21
6.294615
0
LINE
8
annotation
62
1
39
211
10
3.406782
20
6.294615
11
3.369983
21
6.346642
0
LINE
8
annotation
62
1
39
211
10
3.369983
20
6.346642
11
3.325021
21
6.391604
0
LINE
8
annotation
62
1
39
211
10
3.325021
20
6.391604
11
3.272946
21
6.428432
0
LINE
8
annotation
62
1
39
211
10
3.272946
20
6.428432
11
3.214808
21
6.456060
0
LINE
8
annotation
62
1
39
211
10
3.214808
20
6.456060
11
3.151658
21
6.473420
0
LINE
8
annotation
62
1
39
211
10
3.151658
20
6.473420
11
3.084546
21
6.479444
0
LINE
8
annotation
62
1
39
211
10
3.084546
20
6.479444
11
2.897708
21
6.479444
0
LINE
8
annotation
62
1
39
211
10
2.897708
20
6.479444
11
3.084546
21
6.479444
0
LINE
8
annotation
62
1
39
211
10
3.084546
20
6.479444
11
3.084546
21
6.479444
0
LINE
8
annotation
62
1
39
211
10
3.084546
20
6.479444
11
3.151658
21
6.485469
0
LINE
8
annotation
62
1
39
211
10
3.151658
20
6.485469
11
3.214808
21
6.502839
0
LINE
8
annotation
62
1
39
211
10
3.214808
20
6.502839
11
3.272946
21
6.530495
0
LINE
8
annotation
62
1
39
211
10
3.272946
20
6.530495
11
3.325021
21
6.567377
0
LINE
8
annotation
62
1
39
211
10
3.325021
20
6.567377
11
3.369983
21
6.612426
0
LINE
8
annotation
62
1
39
211
10
3.369983
20
6.612426
11
3.406782
21
6.664585
0
LINE
8
annotation
62
1
39
211
10
3.406782
20
6.664585
11
3.434367
21
6.722792
0
LINE
8
annotation
62
1
39
211
10
3.434367
20
6.722792
11
3.451689
21
6.785991
0
LINE
8
annotation
62
1
39
211
10
3.451689
20
6.785991
11
3.457696
21
6.853121
0
LINE
8
annotation
62
1
39
211
10
3.457696
20
6.853121
11
3.457696
21
6.853121
0
LINE
8
annotation
62
1
39
211
10
3.457696
20
6.853121
11
3.451689
21
6.919937
0
LINE
8
annotation
62
1
39
211
10
3.451689
20
6.919937
11
3.434367
21
6.982891
0
LINE
8
annotation
62
1
39
211
10
3.434367
20
6.982891
11
3.406782
21
7.040916
0
LINE
8
annotation
62
1
39
211
10
3.406782
20
7.040916
11
3.369983
21
7.092942
0
LINE
8
annotation
62
1
39
211
10
3.369983
20
7.092942
11
3.325021
21
7.137904
0
LINE
8
annotation
62
1
39
211
10
3.325021
20
7.137904
11
3.272946
21
7.174732
0
LINE
8
annotation
62
1
39
211
10
3.272946
20
7.174732
11
3.214808
21
7.202360
0
LINE
8
annotation
62
1
39
211
10
3.214808
20
7.202360
11
3.151658
21
7.219720
0
LINE
8
annotation
62
1
39
211
10
3.151658
20
7.219720
11
3.084546
21
7.225744
0
LINE
8
annotation
62
1
39
211
10
3.084546
20
7.225744
11
2.711396
21
7.225744
0
LINE
8
hole
62
5
39
2
10
6.207080
20
7.244632
11
6.229580
21
7.244632
0
LINE
8
hole
62
5
39
2
10
6.229580
20
7.244632
11
6.229580
21
7.267132
0
LINE
8
hole
62
5
39
2
10
6.229580
20
7.267132
11
6.207080
21
7.267132
0
LINE
8
hole
62
5
39
2
10
6.207080
20
7.267132
11
6.207080
21
7.244632
0
LINE
8
hole
62
5
39
2
10
6.207080
20
4.694959
11
6.229580
21
4.694959
0
LINE
8
hole
62
5
39
2
10
6.229580
20
4.694959
11
6.229580
21
4.717459
0
LINE
8
hole
62
5
39
2
10
6.229580
20
4.717459
11
6.207080
21
4.717459
0
LINE
8
hole
62
5
39
2
10
6.207080
20
4.717459
11
6.207080
21
4.694959
0
LINE
8
hole
62
5
39
2
10
7.512958
20
5.969795
11
7.535458
21
5.969795
0
LINE
8
hole
62
5
39
2
10
7.535458
20
5.969795
11
7.535458
21
5.992295
0
LINE
8
hole
62
5
39
2
10
7.535458
20
5.992295
11
7.512958
21
5.992295
0
LINE
8
hole
62
5
39
2
10
7.512958
20
5.992295
11
7.512958
21
5.969795
0
LINE
8
hole
62
5
39
2
10
4.755608
20
5.969795
11
4.778108
21
5.969795
0
LINE
8
hole
62
5
39
2
10
4.778108
20
5.969795
11
4.778108
21
5.992295
0
LINE
8
hole
62
5
39
2
10
4.778108
20
5.992295
11
4.755608
21
5.992295
0
LINE
8
hole
62
5
39
2
10
4.755608
20
5.992295
11
4.755608
21
5.969795
0
LINE
8
boundary
62
5
39
2
10
5.291323
20
4.515784
11
6.298239
21
4.387500
0
LINE
8
boundary
62
5
39
2
10
6.298239
20
4.387500
11
7.443109
21
5.084942
0
LINE
8
boundary
62
5
39
2
10
7.443109
20
5.084942
11
7.806182
21
5.981045
0
LINE
8
boundary
62
5
39
2
10
7.806182
20
5.981045
11
7.443109
21
6.877149
0
LINE
8
boundary
62
5
39
2
10
7.443109
20
6.877149
11
6.298239
21
7.574591
0
LINE
8
boundary
62
5
39
2
10
6.298239
20
7.574591
11
5.291323
21
7.446307
0
LINE
8
boundary
62
5
39
2
10
5.291323
20
7.446307
11
4.630478
21
6.602883
0
LINE
8
boundary
62
5
39
2
10
4.630478
20
6.602883
11
4.630478
21
5.359208
0
LINE
8
boundary
62
5
39
2
10
4.630478
20
5.359208
11
5.291323
21
4.515784
0
LINE
8
annotation
62
1
39
211
10
6.233719
20
4.574352
11
7.310920
21
5.230569
0
LINE
8
annotation
62
1
39
211
10
7.310922
20
6.731517
11
6.233721
21
7.387739
0
LINE
8
annotation
62
1
39
211
10
4.838767
20
6.581409
11
4.838768
21
5.380681
0
LINE
8
annotation
62
1
39
211
10
7.524208
20
5.981045
11
7.524208
21
6.037295
0
LINE
8
annotation
62
1
39
211
10
7.524208
20
5.981045
11
7.524208
21
6.037295
0
LINE
8
annotation
62
1
39
211
10
7.524208
20
6.037295
11
7.524208
21
5.981045
0
LINE
8
annotation
62
1
39
211
10
7.524208
20
5.981045
11
7.580458
21
5.981045
0
LINE
8
annotation
62
1
39
211
10
4.766858
20
5.981045
11
4.766858
21
5.924795
0
LINE
8
annotation
62
1
39
211
10
6.218330
20
7.255882
11
6.218330
21
7.312132
0
LINE
8
annotation
62
1
39
211
10
6.218330
20
7.255882
11
6.218330
21
7.312132
0
LINE
8
annotation
62
1
39
211
10
6.218330
20
7.312132
11
6.218330
21
7.255882
0
LINE
8
annotation
62
1
39
211
10
6.218330
20
7.255882
11
6.218330
21
7.199632
0
LINE
8
annotation
62
1
39
211
10
6.218330
20
4.706209
11
6.274580
21
4.706209
0
LINE
8
annotation
62
1
39
211
10
6.218330
20
4.706209
11
6.274580
21
4.706209
0
LINE
8
annotation
62
1
39
211
10
6.274580
20
4.706209
11
6.218330
21
4.706209
0
LINE
8
annotation
62
1
39
211
10
6.218330
20
4.706209
11
6.218330
21
4.649959
0
LINE
8
annotation
62
1
39
211
10
5.592543
20
5.300135
11
5.592543
21
6.562349
0
LINE
8
annotation
62
1
39
211
10
5.592543
20
6.562349
11
5.311937
21
6.281664
0
LINE
8
annotation
62
1
39
211
10
6.065834
20
5.579990
11
6.065834
21
5.579990
0
LINE
8
annotation
62
1
39
211
10
6.065834
20
5.579990
11
6.070359
21
5.529592
0
LINE
8
annotation
62
1
39
211
10
6.070359
20
5.529592
11
6.083403
21
5.482194
0
LINE
8
annotation
62
1
39
211
10
6.083403
20
5.482194
11
6.104166
21
5.438577
0
LINE
8
annotation
62
1
39
211
10
6.104166
20
5.438577
11
6.131849
21
5.399523
0
LINE
8
annotation
62
1
39
211
10
6.131849
20
5.399523
11
6.165655
21
5.365816
0
LINE
8
annotation
62
1
39
211
10
6.165655
20
5.365816
11
6.204784
21
5.338237
0
LINE
8
annotation
62
1
39
211
10
6.204784
20
5.338237
11
6.248438
21
5.317569
0
LINE
8
annotation
62
1
39
211
10
6.248438
20
5.317569
11
6.295817
21
5.304594
0
LINE
8
annotation
62
1
39
211
10
6.295817
20
5.304594
11
6.346124
21
5.300096
0
LINE
8
annotation
62
1
39
211
10
6.346124
20
5.300096
11
6.346124
21
5.300096
0
LINE
8
annotation
62
1
39
211
10
6.346124
20
5.300096
11
6.396430
21
5.304594
0
LINE
8
annotation
62
1
39
211
10
6.396430
20
5.304594
11
6.443810
21
5.317569
0
LINE
8
annotation
62
1
39
211
10
6.443810
20
5.317569
11
6.487463
21
5.338237
0
LINE
8
annotation
62
1
39
211
10
6.487463
20
5.338237
11
6.526592
21
5.365816
0
LINE
8
annotation
62
1
39
211
10
6.526592
20
5.365816
11
6.560398
21
5.399523
0
LINE
8
annotation
62
1
39
211
10
6.560398
20
5.399523
11
6.588082
21
5.438577
0
LINE
8
annotation
62
1
39
211
10
6.588082
20
5.438577
11
6.608845
21
5.482194
0
LINE
8
annotation
62
1
39
211
10
6.608845
20
5.482194
11
6.621888
21
5.529592
0
LINE
8
annotation
62
1
39
211
10
6.621888
20
5.529592
11
6.626413
21
5.579990
0
LINE
8
annotation
62
1
39
211
10
6.626413
20
5.579990
11
6.626413
21
5.719620
0
LINE
8
annotation
62
1
39
211
10
6.626413
20
5.719620
11
6.626413
21
5.719620
0
LINE
8
annotation
62
1
39
211
10
6.626413
20
5.719620
11
6.621891
21
5.770042
0
LINE
8
annotation
62
1
39
211
10
6.621891
20
5.770042
11
6.608854
21
5.817505
0
LINE
8
annotation
62
1
39
211
10
6.608854
20
5.817505
11
6.588099
21
5.861217
0
LINE
8
annotation
62
1
39
211
10
6.588099
20
5.861217
11
6.560424
21
5.900383
0
LINE
8
annotation
62
1
39
211
10
6.560424
20
5.900383
11
6.526625
21
5.934209
0
LINE
8
annotation
62
1
39
211
10
6.526625
20
5.934209
11
6.487498
21
5.961900
0
LINE
8
annotation
62
1
39
211
10
6.487498
20
5.961900
11
6.443842
21
5.982663
0
LINE
8
annotation
62
1
39
211
10
6.443842
20
5.982663
11
6.396451
21
5.995703
0
LINE
8
annotation
62
1
39
211
10
6.396451
20
5.995703
11
6.346124
21
6.000226
0
LINE
8
annotation
62
1
39
211
10
6.346124
20
6.000226
11
6.346124
21
6.000226
0
LINE
8
annotation
62
1
39
211
10
6.346124
20
6.000226
11
6.295796
21
5.995701
0
LINE
8
annotation
62
1
39
211
10
6.295796
20
5.995701
11
6.248406
21
5.982654
0
LINE
8
annotation
62
1
39
211
10
6.248406
20
5.982654
11
6.204749
21
5.961883
0
LINE
8
annotation
62
1
39
211
10
6.204749
20
5.961883
11
6.165623
21
5.934183
0
LINE
8
annotation
62
1
39
211
10
6.165623
20
5.934183
11
6.131823
21
5.900351
0
LINE
8
annotation
62
1
39
211
10
6.131823
20
5.900351
11
6.104148
21
5.861182
0
LINE
8
annotation
62
1
39
211
10
6.104148
20
5.861182
11
6.083394
21
5.817474
0
LINE
8
annotation
62
1
39
211
10
6.083394
20
5.817474
11
6.070357
21
5.770021
0
LINE
8
annotation
62
1
39
211
10
6.070357
20
5.770021
11
6.065834
21
5.719620
0
LINE
8
annotation
62
1
39
211
10
6.065834
20
5.719620
11
6.065834
21
5.579990
0
LINE
8
annotation
62
1
39
211
10
6.626413
20
6.280912
11
6.626413
21
6.280912
0
LINE
8
annotation
62
1
39
211
10
6.626413
20
6.280912
11
6.621891
21
6.331101
0
LINE
8
annotation
62
1
39
211
10
6.621891
20
6.331101
11
6.608854
21
6.378388
0
LINE
8
annotation
62
1
39
211
10
6.608854
20
6.378388
11
6.588099
21
6.421973
0
LINE
8
annotation
62
1
39
211
10
6.588099
20
6.421973
11
6.560424
21
6.461052
0
LINE
8
annotation
62
1
39
211
10
6.560424
20
6.461052
11
6.526625
21
6.494825
0
LINE
8
annotation
62
1
39
211
10
6.526625
20
6.494825
11
6.487498
21
6.522489
0
LINE
8
annotation
62
1
39
211
10
6.487498
20
6.522489
11
6.443842
21
6.543241
0
LINE
8
annotation
62
1
39
211
10
6.443842
20
6.543241
11
6.396451
21
6.556281
0
LINE
8
annotation
62
1
39
211
10
6.396451
20
6.556281
11
6.346124
21
6.560806
0
LINE
8
annotation
62
1
39
211
10
6.346124
20
6.560806
11
6.346124
21
6.560806
0
LINE
8
annotation
62
1
39
211
10
6.346124
20
6.560806
11
6.295796
21
6.556281
0
LINE
8
annotation
62
1
39
211
10
6.295796
20
6.556281
11
6.248406
21
6.543241
0
LINE
8
annotation
62
1
39
211
10
6.248406
20
6.543241
11
6.204749
21
6.522489
0
LINE
8
annotation
62
1
39
211
10
6.204749
20
6.522489
11
6.165623
21
6.494825
0
LINE
8
annotation
62
1
39
211
10
6.165623
20
6.494825
11
6.131823
21
6.461052
0
LINE
8
annotation
62
1
39
211
10
6.131823
20
6.461052
11
6.104148
21
6.421973
0
LINE
8
annotation
62
1
39
211
10
6.104148
20
6.421973
11
6.083394
21
6.378388
0
LINE
8
annotation
62
1
39
211
10
6.083394
20
6.378388
11
6.070357
21
6.331101
0
LINE
8
annotation
62
1
39
211
10
6.070357
20
6.331101
11
6.065834
21
6.280912
0
LINE
8
annotation
62
1
39
211
10
6.065834
20
6.280912
11
6.065834
21
6.280912
0
LINE
8
annotation
62
1
39
211
10
6.065834
20
6.280912
11
6.070359
21
6.230487
0
LINE
8
annotation
62
1
39
211
10
6.070359
20
6.230487
11
6.083403
21
6.183016
0
LINE
8
annotation
62
1
39
211
10
6.083403
20
6.183016
11
6.104166
21
6.139294
0
LINE
8
annotation
62
1
39
211
10
6.104166
20
6.139294
11
6.131849
21
6.100115
0
LINE
8
annotation
62
1
39
211
10
6.131849
20
6.100115
11
6.165655
21
6.066277
0
LINE
8
annotation
62
1
39
211
10
6.165655
20
6.066277
11
6.204784
21
6.038573
0
LINE
8
annotation
62
1
39
211
10
6.204784
20
6.038573
11
6.248438
21
6.017799
0
LINE
8
annotation
62
1
39
211
10
6.248438
20
6.017799
11
6.295817
21
6.004752
0
LINE
8
annotation
62
1
39
211
10
6.295817
20
6.004752
11
6.346124
21
6.000226
0
LINE
8
annotation
62
1
39
211
10
6.346124
20
6.000226
11
6.346124
21
6.000226
0
LINE
8
annotation
62
1
39
211
10
6.346124
20
6.000226
11
6.396430
21
6.004752
0
LINE
8
annotation
62
1
39
211
10
6.396430
20
6.004752
11
6.443810
21
6.017799
0
LINE
8
annotation
62
1
39
211
10
6.443810
20
6.017799
11
6.487463
21
6.038573
0
LINE
8
annotation
62
1
39
211
10
6.487463
20
6.038573
11
6.526592
21
6.066277
0
LINE
8
annotation
62
1
39
211
10
6.526592
20
6.066277
11
6.560398
21
6.100115
0
LINE
8
annotation
62
1
39
211
10
6.560398
20
6.100115
11
6.588082
21
6.139294
0
LINE
8
annotation
62
1
39
211
10
6.588082
20
6.139294
11
6.608845
21
6.183016
0
LINE
8
annotation
62
1
39
211
10
6.608845
20
6.183016
11
6.621888
21
6.230487
0
LINE
8
annotation
62
1
39
211
10
6.621888
20
6.230487
11
6.626413
21
6.280912
0
LINE
8
hole
62
5
39
2
10
5.998792
20
10.464834
11
6.021292
21
10.464834
0
LINE
8
hole
62
5
39
2
10
6.021292
20
10.464834
11
6.021292
21
10.487334
0
LINE
8
hole
62
5
39
2
10
6.021292
20
10.487334
11
5.998792
21
10.487334
0
LINE
8
hole
62
5
39
2
10
5.998792
20
10.487334
11
5.998792
21
10.464834
0
LINE
8
hole
62
5
39
2
10
5.998792
20
7.915161
11
6.021292
21
7.915161
0
LINE
8
hole
62
5
39
2
10
6.021292
20
7.915161
11
6.021292
21
7.937661
0
LINE
8
hole
62
5
39
2
10
6.021292
20
7.937661
11
5.998792
21
7.937661
0
LINE
8
hole
62
5
39
2
10
5.998792
20
7.937661
11
5.998792
21
7.915161
0
LINE
8
hole
62
5
39
2
10
4.909700
20
9.189998
11
4.932200
21
9.189998
0
LINE
8
hole
62
5
39
2
10
4.932200
20
9.189998
11
4.932200
21
9.212498
0
LINE
8
hole
62
5
39
2
10
4.932200
20
9.212498
11
4.909700
21
9.212498
0
LINE
8
hole
62
5
39
2
10
4.909700
20
9.212498
11
4.909700
21
9.189998
0
LINE
8
hole
62
5
39
2
10
7.233477
20
9.189998
11
7.255977
21
9.189998
0
LINE
8
hole
62
5
39
2
10
7.255977
20
9.189998
11
7.255977
21
9.212498
0
LINE
8
hole
62
5
39
2
10
7.255977
20
9.212498
11
7.233477
21
9.212498
0
LINE
8
hole
62
5
39
2
10
7.233477
20
9.212498
11
7.233477
21
9.189998
0
LINE
8
boundary
62
5
39
2
10
5.121455
20
7.794900
11
5.869546
21
7.699591
0
LINE
8
boundary
62
5
39
2
10
5.869546
20
7.699591
11
7.273241
21
8.554706
0
LINE
8
boundary
62
5
39
2
10
7.273241
20
8.554706
11
7.535199
21
9.201248
0
LINE
8
boundary
62
5
39
2
10
7.535199
20
9.201248
11
7.273241
21
9.847790
0
LINE
8
boundary
62
5
39
2
10
7.273241
20
9.847790
11
5.869546
21
10.702905
0
LINE
8
boundary
62
5
39
2
10
5.869546
20
10.702905
11
5.121455
21
10.607596
0
LINE
8
boundary
62
5
39
2
10
5.121455
20
10.607596
11
4.630478
21
9.980972
0
LINE
8
boundary
62
5
39
2
10
4.630478
20
9.980972
11
4.630478
21
8.421524
0
LINE
8
boundary
62
5
39
2
10
4.630478
20
8.421524
11
5.121455
21
7.794900
0
LINE
8
annotation
62
1
39
211
10
5.805028
20
7.886443
11
7.141054
21
8.700337
0
LINE
8
annotation
62
1
39
211
10
7.141052
20
9.702162
11
5.805028
21
10.516053
0
LINE
8
annotation
62
1
39
211
10
4.838765
20
9.959494
11
4.838765
21
8.443000
0
LINE
8
annotation
62
1
39
211
10
6.010042
20
10.476084
11
6.010042
21
10.532334
0
LINE
8
annotation
62
1
39
211
10
6.010042
20
10.476084
11
6.010042
21
10.532334
0
LINE
8
annotation
62
1
39
211
10
6.010042
20
10.532334
11
6.010042
21
10.476084
0
LINE
8
annotation
62
1
39
211
10
6.010042
20
10.476084
11
6.010042
21
10.419834
0
LINE
8
annotation
62
1
39
211
10
6.010042
20
7.926411
11
6.066292
21
7.926411
0
LINE
8
annotation
62
1
39
211
10
6.010042
20
7.926411
11
6.066292
21
7.926411
0
LINE
8
annotation
62
1
39
211
10
6.066292
20
7.926411
11
6.010042
21
7.926411
0
LINE
8
annotation
62
1
39
211
10
6.010042
20
7.926411
11
6.010042
21
7.870161
0
LINE
8
annotation
62
1
39
211
10
7.244727
20
9.201248
11
7.244727
21
9.257498
0
LINE
8
annotation
62
1
39
211
10
4.920950
20
9.201248
11
4.977200
21
9.201248
0
LINE
8
annotation
62
1
39
211
10
5.384619
20
8.707529
11
5.384619
21
9.788830
0
LINE
8
annotation
62
1
39
211
10
5.384619
20
9.788830
11
5.144232
21
9.548375
0
LINE
8
annotation
62
1
39
211
10
5.909961
20
8.707529
11
5.909961
21
8.707529
0
LINE
8
annotation
62
1
39
211
10
5.909961
20
8.707529
11
5.978627
21
8.733117
0
LINE
8
annotation
62
1
39
211
10
5.978627
20
8.733117
11
6.041654
21
8.767704
0
LINE
8
annotation
62
1
39
211
10
6.041654
20
8.767704
11
6.098391
21
8.810409
0
LINE
8
annotation
62
1
39
211
10
6.098391
20
8.810409
11
6.148185
21
8.860351
0
LINE
8
annotation
62
1
39
211
10
6.148185
20
8.860351
11
6.190387
21
8.916647
0
LINE
8
annotation
62
1
39
211
10
6.190387
20
8.916647
11
6.224344
21
8.978418
0
LINE
8
annotation
62
1
39
211
10
6.224344
20
8.978418
11
6.249406
21
9.044781
0
LINE
8
annotation
62
1
39
211
10
6.249406
20
9.044781
11
6.264920
21
9.114856
0
LINE
8
annotation
62
1
39
211
10
6.264920
20
9.114856
11
6.270237
21
9.187760
0
LINE
8
annotation
62
1
39
211
10
6.270237
20
9.187760
11
6.270237
21
9.548375
0
LINE
8
annotation
62
1
39
211
10
6.270237
20
9.548375
11
6.270237
21
9.548375
0
LINE
8
annotation
62
1
39
211
10
6.270237
20
9.548375
11
6.266371
21
9.591572
0
LINE
8
annotation
62
1
39
211
10
6.266371
20
9.591572
11
6.255225
21
9.632239
0
LINE
8
annotation
62
1
39
211
10
6.255225
20
9.632239
11
6.237474
21
9.669695
0
LINE
8
annotation
62
1
39
211
10
6.237474
20
9.669695
11
6.213795
21
9.703258
0
LINE
8
annotation
62
1
39
211
10
6.213795
20
9.703258
11
6.184862
21
9.732247
0
LINE
8
annotation
62
1
39
211
10
6.184862
20
9.732247
11
6.151353
21
9.755980
0
LINE
8
annotation
62
1
39
211
10
6.151353
20
9.755980
11
6.113942
21
9.773775
0
LINE
8
annotation
62
1
39
211
10
6.113942
20
9.773775
11
6.073306
21
9.784953
0
LINE
8
annotation
62
1
39
211
10
6.073306
20
9.784953
11
6.030121
21
9.788830
0
LINE
8
annotation
62
1
39
211
10
6.030121
20
9.788830
11
6.030121
21
9.788830
0
LINE
8
annotation
62
1
39
211
10
6.030121
20
9.788830
11
5.987025
21
9.784953
0
LINE
8
annotation
62
1
39
211
10
5.987025
20
9.784953
11
5.946436
21
9.773775
0
LINE
8
annotation
62
1
39
211
10
5.946436
20
9.773775
11
5.909040
21
9.755980
0
LINE
8
annotation
62
1
39
211
10
5.909040
20
9.755980
11
5.875519
21
9.732247
0
LINE
8
annotation
62
1
39
211
10
5.875519
20
9.732247
11
5.846559
21
9.703258
0
LINE
8
annotation
62
1
39
211
10
5.846559
20
9.703258
11
5.822843
21
9.669695
0
LINE
8
annotation
62
1
39
211
10
5.822843
20
9.669695
11
5.805056
21
9.632239
0
LINE
8
annotation
62
1
39
211
10
5.805056
20
9.632239
11
5.793882
21
9.591572
0
LINE
8
annotation
62
1
39
211
10
5.793882
20
9.591572
11
5.790005
21
9.548375
0
LINE
8
annotation
62
1
39
211
10
5.790005
20
9.548375
11
5.790005
21
9.428148
0
LINE
8
annotation
62
1
39
211
10
5.790005
20
9.428148
11
5.790005
21
9.428148
0
LINE
8
annotation
62
1
39
211
10
5.790005
20
9.428148
11
5.793882
21
9.384953
0
LINE
8
annotation
62
1
39
211
10
5.793882
20
9.384953
11
5.805056
21
9.344292
0
LINE
8
annotation
62
1
39
211
10
5.805056
20
9.344292
11
5.822843
21
9.306845
0
LINE
8
annotation
62
1
39
211
10
5.822843
20
9.306845
11
5.846559
21
9.273293
0
LINE
8
annotation
62
1
39
211
10
5.846559
20
9.273293
11
5.875519
21
9.244315
0
LINE
8
annotation
62
1
39
211
10
5.875519
20
9.244315
11
5.909040
21
9.220593
0
LINE
8
annotation
62
1
39
211
10
5.909040
20
9.220593
11
5.946436
21
9.202806
0
LINE
8
annotation
62
1
39
211
10
5.946436
20
9.202806
11
5.987025
21
9.191635
0
LINE
8
annotation
62
1
39
211
10
5.987025
20
9.191635
11
6.030121
21
9.187760
0
LINE
8
annotation
62
1
39
211
10
6.030121
20
9.187760
11
6.270237
21
9.187760
0
LINE
8
annotation
62
1
39
211
10
5.759999
20
8.572366
11
6.300650
21
8.572366
0
LINE
8
frame
62
5
39
2
10
0.000000
20
0.000000
11
8.500000
21
0.000000
0
LINE
8
frame
62
5
39
2
10
8.500000
20
0.000000
11
8.500000
21
11.000000
0
LINE
8
frame
62
5
39
2
10
8.500000
20
11.000000
11
0.000000
21
11.000000
0
LINE
8
frame
62
5
39
2
10
0.000000
20
11.000000
11
0.000000
21
0.000000
0
ENDSEC
0
EOF
