0
SECTION
2
HEADER
9
$ACADVER
1
AC1009
0
ENDSEC
0
SECTION
2
TABLES
0
TABLE
2
VPORT
70
1
0
VPORT
2
ACTIVE
70
0
10
0.0
20
0.0
11
0.0
21
0.0
12
0.0
22
0.0
13
0.0
23
0.0
14
0.0
24
0.0
15
0.0
25
0.0
16
0.0
26
0.0
36
0.0
17
0.0
27
0.0
37
0.0
40
0.0
41
0.0
42
0.0
43
0.0
44
0.0
50
0.0
51
0.0
71
0
72
1000
73
1
74
3
75
0
76
0
77
0
78
0
0
ENDTAB
0
ENDSEC
0
SECTION
2
ENTITIES
0
LINE
8
hole
62
5
39
2
10
1.568215
20
0.792615
11
1.590715
21
0.792615
0
LINE
8
hole
62
5
39
2
10
1.590715
20
0.792615
11
1.590715
21
0.815115
0
LINE
8
hole
62
5
39
2
10
1.590715
20
0.815115
11
1.568215
21
0.815115
0
LINE
8
hole
62
5
39
2
10
1.568215
20
0.815115
11
1.568215
21
0.792615
0
LINE
8
hole
62
5
39
2
10
2.454546
20
1.674539
11
2.477046
21
1.674539
0
LINE
8
hole
62
5
39
2
10
2.477046
20
1.674539
11
2.477046
21
1.697039
0
LINE
8
hole
62
5
39
2
10
2.477046
20
1.697039
11
2.454546
21
1.697039
0
LINE
8
hole
62
5
39
2
10
2.454546
20
1.697039
11
2.454546
21
1.674539
0
LINE
8
hole
62
5
39
2
10
0.527921
20
1.674539
11
0.550421
21
1.674539
0
LINE
8
hole
62
5
39
2
10
0.550421
20
1.674539
11
0.550421
21
1.697039
0
LINE
8
hole
62
5
39
2
10
0.550421
20
1.697039
11
0.527921
21
1.697039
0
LINE
8
hole
62
5
39
2
10
0.527921
20
1.697039
11
0.527921
21
1.674539
0
LINE
8
hole
62
5
39
2
10
1.591399
20
2.573000
11
1.613899
21
2.573000
0
LINE
8
hole
62
5
39
2
10
1.613899
20
2.573000
11
1.613899
21
2.595500
0
LINE
8
hole
62
5
39
2
10
1.613899
20
2.595500
11
1.591399
21
2.595500
0
LINE
8
hole
62
5
39
2
10
1.591399
20
2.595500
11
1.591399
21
2.573000
0
LINE
8
boundary
62
5
39
2
10
2.207810
20
0.262500
11
2.602462
21
0.459558
0
LINE
8
boundary
62
5
39
2
10
2.602462
20
0.459558
11
2.670780
21
2.839979
0
LINE
8
boundary
62
5
39
2
10
2.670780
20
2.839979
11
2.207810
21
3.092595
0
LINE
8
boundary
62
5
39
2
10
2.207810
20
3.092595
11
0.285716
21
2.132855
0
LINE
8
boundary
62
5
39
2
10
0.285716
20
2.132855
11
0.262500
21
1.323940
0
LINE
8
boundary
62
5
39
2
10
0.262500
20
1.323940
11
2.207810
21
0.262500
0
LINE
8
annotation
62
1
39
211
10
2.465796
20
1.685789
11
2.465796
21
1.742039
0
LINE
8
annotation
62
1
39
211
10
2.465796
20
1.685789
11
2.465796
21
1.742039
0
LINE
8
annotation
62
1
39
211
10
2.465796
20
1.742039
11
2.465796
21
1.685789
0
LINE
8
annotation
62
1
39
211
10
2.465796
20
1.685789
11
2.522046
21
1.685789
0
LINE
8
annotation
62
1
39
211
10
0.539171
20
1.685789
11
0.539171
21
1.629539
0
LINE
8
annotation
62
1
39
211
10
1.602649
20
2.584250
11
1.602649
21
2.640500
0
LINE
8
annotation
62
1
39
211
10
1.602649
20
2.584250
11
1.602649
21
2.640500
0
LINE
8
annotation
62
1
39
211
10
1.602649
20
2.640500
11
1.602649
21
2.584250
0
LINE
8
annotation
62
1
39
211
10
1.602649
20
2.584250
11
1.602649
21
2.528000
0
LINE
8
annotation
62
1
39
211
10
1.579465
20
0.803865
11
1.635715
21
0.803865
0
LINE
8
annotation
62
1
39
211
10
1.579465
20
0.803865
11
1.635715
21
0.803865
0
LINE
8
annotation
62
1
39
211
10
1.635715
20
0.803865
11
1.579465
21
0.803865
0
LINE
8
annotation
62
1
39
211
10
1.579465
20
0.803865
11
1.579465
21
0.747615
0
LINE
8
annotation
62
1
39
211
10
1.590856
20
1.263251
11
1.590856
21
2.180293
0
LINE
8
annotation
62
1
39
211
10
1.590856
20
2.180293
11
1.386986
21
1.976366
0
LINE
8
annotation
62
1
39
211
10
2.342068
20
1.263243
11
1.934787
21
1.263243
0
LINE
8
annotation
62
1
39
211
10
1.934787
20
1.263243
11
2.311128
21
1.869103
0
LINE
8
annotation
62
1
39
211
10
2.311128
20
1.869103
11
2.311128
21
1.869103
0
LINE
8
annotation
62
1
39
211
10
2.311128
20
1.869103
11
2.311578
21
1.869660
0
LINE
8
annotation
62
1
39
211
10
2.311578
20
1.869660
11
2.312009
21
1.870222
0
LINE
8
annotation
62
1
39
211
10
2.312009
20
1.870222
11
2.312425
21
1.870792
0
LINE
8
annotation
62
1
39
211
10
2.312425
20
1.870792
11
2.312828
21
1.871378
0
LINE
8
annotation
62
1
39
211
10
2.312828
20
1.871378
11
2.313221
21
1.871982
0
LINE
8
annotation
62
1
39
211
10
2.313221
20
1.871982
11
2.313607
21
1.872609
0
LINE
8
annotation
62
1
39
211
10
2.313607
20
1.872609
11
2.313989
21
1.873265
0
LINE
8
annotation
62
1
39
211
10
2.313989
20
1.873265
11
2.314369
21
1.873955
0
LINE
8
annotation
62
1
39
211
10
2.314369
20
1.873955
11
2.314751
21
1.874682
0
LINE
8
annotation
62
1
39
211
10
2.314751
20
1.874682
11
2.314751
21
1.874682
0
LINE
8
annotation
62
1
39
211
10
2.314751
20
1.874682
11
2.330290
21
1.908045
0
LINE
8
annotation
62
1
39
211
10
2.330290
20
1.908045
11
2.339368
21
1.942630
0
LINE
8
annotation
62
1
39
211
10
2.339368
20
1.942630
11
2.342206
21
1.977653
0
LINE
8
annotation
62
1
39
211
10
2.342206
20
1.977653
11
2.339029
21
2.012335
0
LINE
8
annotation
62
1
39
211
10
2.339029
20
2.012335
11
2.330057
21
2.045892
0
LINE
8
annotation
62
1
39
211
10
2.330057
20
2.045892
11
2.315514
21
2.077545
0
LINE
8
annotation
62
1
39
211
10
2.315514
20
2.077545
11
2.295621
21
2.106511
0
LINE
8
annotation
62
1
39
211
10
2.295621
20
2.106511
11
2.270602
21
2.132008
0
LINE
8
annotation
62
1
39
211
10
2.270602
20
2.132008
11
2.240679
21
2.153257
0
LINE
8
annotation
62
1
39
211
10
2.240679
20
2.153257
11
2.240679
21
2.153257
0
LINE
8
annotation
62
1
39
211
10
2.240679
20
2.153257
11
2.207223
21
2.168575
0
LINE
8
annotation
62
1
39
211
10
2.207223
20
2.168575
11
2.172585
21
2.177513
0
LINE
8
annotation
62
1
39
211
10
2.172585
20
2.177513
11
2.137542
21
2.180271
0
LINE
8
annotation
62
1
39
211
10
2.137542
20
2.180271
11
2.102865
21
2.177051
0
LINE
8
annotation
62
1
39
211
10
2.102865
20
2.177051
11
2.069332
21
2.168055
0
LINE
8
annotation
62
1
39
211
10
2.069332
20
2.168055
11
2.037714
21
2.153482
0
LINE
8
annotation
62
1
39
211
10
2.037714
20
2.153482
11
2.008787
21
2.133535
0
LINE
8
annotation
62
1
39
211
10
2.008787
20
2.133535
11
1.983326
21
2.108415
0
LINE
8
annotation
62
1
39
211
10
1.983326
20
2.108415
11
1.962104
21
2.078322
0
LINE
8
annotation
62
1
39
211
10
1.962104
20
2.078322
11
1.935363
21
2.027024
0
LINE
8
hole
62
5
39
2
10
3.996239
20
0.979344
11
4.018739
21
0.979344
0
LINE
8
hole
62
5
39
2
10
4.018739
20
0.979344
11
4.018739
21
1.001844
0
LINE
8
hole
62
5
39
2
10
4.018739
20
1.001844
11
3.996239
21
1.001844
0
LINE
8
hole
62
5
39
2
10
3.996239
20
1.001844
11
3.996239
21
0.979344
0
LINE
8
hole
62
5
39
2
10
4.951983
20
1.666298
11
4.974483
21
1.666298
0
LINE
8
hole
62
5
39
2
10
4.974483
20
1.666298
11
4.974483
21
1.688798
0
LINE
8
hole
62
5
39
2
10
4.974483
20
1.688798
11
4.951983
21
1.688798
0
LINE
8
hole
62
5
39
2
10
4.951983
20
1.688798
11
4.951983
21
1.666298
0
LINE
8
hole
62
5
39
2
10
3.025358
20
1.666298
11
3.047858
21
1.666298
0
LINE
8
hole
62
5
39
2
10
3.047858
20
1.666298
11
3.047858
21
1.688798
0
LINE
8
hole
62
5
39
2
10
3.047858
20
1.688798
11
3.025358
21
1.688798
0
LINE
8
hole
62
5
39
2
10
3.025358
20
1.688798
11
3.025358
21
1.666298
0
LINE
8
hole
62
5
39
2
10
4.085899
20
2.263601
11
4.108399
21
2.263601
0
LINE
8
hole
62
5
39
2
10
4.108399
20
2.263601
11
4.108399
21
2.286101
0
LINE
8
hole
62
5
39
2
10
4.108399
20
2.286101
11
4.085899
21
2.286101
0
LINE
8
hole
62
5
39
2
10
4.085899
20
2.286101
11
4.085899
21
2.263601
0
LINE
8
boundary
62
5
39
2
10
2.962283
20
0.262500
11
5.189865
21
1.374777
0
LINE
8
boundary
62
5
39
2
10
5.189865
20
1.374777
11
5.204061
21
1.869390
0
LINE
8
boundary
62
5
39
2
10
5.204061
20
1.869390
11
2.962283
21
3.092595
0
LINE
8
boundary
62
5
39
2
10
2.962283
20
3.092595
11
2.873119
21
3.048074
0
LINE
8
boundary
62
5
39
2
10
2.873119
20
3.048074
11
2.795780
21
0.353351
0
LINE
8
boundary
62
5
39
2
10
2.795780
20
0.353351
11
2.962283
21
0.262500
0
LINE
8
annotation
62
1
39
211
10
4.097149
20
2.274851
11
4.097149
21
2.331101
0
LINE
8
annotation
62
1
39
211
10
4.097149
20
2.274851
11
4.097149
21
2.331101
0
LINE
8
annotation
62
1
39
211
10
4.097149
20
2.331101
11
4.097149
21
2.274851
0
LINE
8
annotation
62
1
39
211
10
4.097149
20
2.274851
11
4.153399
21
2.274851
0
LINE
8
annotation
62
1
39
211
10
4.007489
20
0.990594
11
4.007489
21
0.934344
0
LINE
8
annotation
62
1
39
211
10
4.963233
20
1.677548
11
4.963233
21
1.733798
0
LINE
8
annotation
62
1
39
211
10
4.963233
20
1.677548
11
4.963233
21
1.733798
0
LINE
8
annotation
62
1
39
211
10
4.963233
20
1.733798
11
4.963233
21
1.677548
0
LINE
8
annotation
62
1
39
211
10
4.963233
20
1.677548
11
4.963233
21
1.621298
0
LINE
8
annotation
62
1
39
211
10
3.036608
20
1.677548
11
3.092858
21
1.677548
0
LINE
8
annotation
62
1
39
211
10
3.036608
20
1.677548
11
3.092858
21
1.677548
0
LINE
8
annotation
62
1
39
211
10
3.092858
20
1.677548
11
3.036608
21
1.677548
0
LINE
8
annotation
62
1
39
211
10
3.036608
20
1.677548
11
3.036608
21
1.621298
0
LINE
8
annotation
62
1
39
211
10
2.999067
20
1.072943
11
3.247961
21
1.072943
0
LINE
8
annotation
62
1
39
211
10
3.247961
20
1.072943
11
3.247961
21
1.072943
0
LINE
8
annotation
62
1
39
211
10
3.247961
20
1.072943
11
3.292725
21
1.076959
0
LINE
8
annotation
62
1
39
211
10
3.292725
20
1.076959
11
3.334846
21
1.088532
0
LINE
8
annotation
62
1
39
211
10
3.334846
20
1.088532
11
3.373625
21
1.106953
0
LINE
8
annotation
62
1
39
211
10
3.373625
20
1.106953
11
3.408359
21
1.131510
0
LINE
8
annotation
62
1
39
211
10
3.408359
20
1.131510
11
3.438349
21
1.161494
0
LINE
8
annotation
62
1
39
211
10
3.438349
20
1.161494
11
3.462894
21
1.196194
0
LINE
8
annotation
62
1
39
211
10
3.462894
20
1.196194
11
3.481294
21
1.234899
0
LINE
8
annotation
62
1
39
211
10
3.481294
20
1.234899
11
3.492847
21
1.276900
0
LINE
8
annotation
62
1
39
211
10
3.492847
20
1.276900
11
3.496854
21
1.321485
0
LINE
8
annotation
62
1
39
211
10
3.496854
20
1.321485
11
3.496854
21
1.446108
0
LINE
8
annotation
62
1
39
211
10
3.496854
20
1.446108
11
3.496854
21
1.446108
0
LINE
8
annotation
62
1
39
211
10
3.496854
20
1.446108
11
3.492847
21
1.490675
0
LINE
8
annotation
62
1
39
211
10
3.492847
20
1.490675
11
3.481294
21
1.532666
0
LINE
8
annotation
62
1
39
211
10
3.481294
20
1.532666
11
3.462894
21
1.571368
0
LINE
8
annotation
62
1
39
211
10
3.462894
20
1.571368
11
3.438349
21
1.606070
0
LINE
8
annotation
62
1
39
211
10
3.438349
20
1.606070
11
3.408359
21
1.636060
0
LINE
8
annotation
62
1
39
211
10
3.408359
20
1.636060
11
3.373625
21
1.660625
0
LINE
8
annotation
62
1
39
211
10
3.373625
20
1.660625
11
3.334846
21
1.679053
0
LINE
8
annotation
62
1
39
211
10
3.334846
20
1.679053
11
3.292725
21
1.690632
0
LINE
8
annotation
62
1
39
211
10
3.292725
20
1.690632
11
3.247961
21
1.694650
0
LINE
8
annotation
62
1
39
211
10
3.247961
20
1.694650
11
3.123338
21
1.694650
0
LINE
8
annotation
62
1
39
211
10
3.123338
20
1.694650
11
3.247961
21
1.694650
0
LINE
8
annotation
62
1
39
211
10
3.247961
20
1.694650
11
3.247961
21
1.694650
0
LINE
8
annotation
62
1
39
211
10
3.247961
20
1.694650
11
3.292725
21
1.698669
0
LINE
8
annotation
62
1
39
211
10
3.292725
20
1.698669
11
3.334846
21
1.710255
0
LINE
8
annotation
62
1
39
211
10
3.334846
20
1.710255
11
3.373625
21
1.728701
0
LINE
8
annotation
62
1
39
211
10
3.373625
20
1.728701
11
3.408359
21
1.753302
0
LINE
8
annotation
62
1
39
211
10
3.408359
20
1.753302
11
3.438349
21
1.783350
0
LINE
8
annotation
62
1
39
211
10
3.438349
20
1.783350
11
3.462894
21
1.818140
0
LINE
8
annotation
62
1
39
211
10
3.462894
20
1.818140
11
3.481294
21
1.856965
0
LINE
8
annotation
62
1
39
211
10
3.481294
20
1.856965
11
3.492847
21
1.899119
0
LINE
8
annotation
62
1
39
211
10
3.492847
20
1.899119
11
3.496854
21
1.943895
0
LINE
8
annotation
62
1
39
211
10
3.496854
20
1.943895
11
3.496854
21
1.943895
0
LINE
8
annotation
62
1
39
211
10
3.496854
20
1.943895
11
3.492847
21
1.988462
0
LINE
8
annotation
62
1
39
211
10
3.492847
20
1.988462
11
3.481294
21
2.030453
0
LINE
8
annotation
62
1
39
211
10
3.481294
20
2.030453
11
3.462894
21
2.069156
0
LINE
8
annotation
62
1
39
211
10
3.462894
20
2.069156
11
3.438349
21
2.103858
0
LINE
8
annotation
62
1
39
211
10
3.438349
20
2.103858
11
3.408359
21
2.133847
0
LINE
8
annotation
62
1
39
211
10
3.408359
20
2.133847
11
3.373625
21
2.158412
0
LINE
8
annotation
62
1
39
211
10
3.373625
20
2.158412
11
3.334846
21
2.176840
0
LINE
8
annotation
62
1
39
211
10
3.334846
20
2.176840
11
3.292725
21
2.188419
0
LINE
8
annotation
62
1
39
211
10
3.292725
20
2.188419
11
3.247961
21
2.192437
0
LINE
8
annotation
62
1
39
211
10
3.247961
20
2.192437
11
2.999067
21
2.192437
0
LINE
8
hole
62
5
39
2
10
6.420109
20
2.560109
11
6.442609
21
2.560109
0
LINE
8
hole
62
5
39
2
10
6.442609
20
2.560109
11
6.442609
21
2.582609
0
LINE
8
hole
62
5
39
2
10
6.442609
20
2.582609
11
6.420109
21
2.582609
0
LINE
8
hole
62
5
39
2
10
6.420109
20
2.582609
11
6.420109
21
2.560109
0
LINE
8
hole
62
5
39
2
10
7.521106
20
1.674539
11
7.543606
21
1.674539
0
LINE
8
hole
62
5
39
2
10
7.543606
20
1.674539
11
7.543606
21
1.697039
0
LINE
8
hole
62
5
39
2
10
7.543606
20
1.697039
11
7.521106
21
1.697039
0
LINE
8
hole
62
5
39
2
10
7.521106
20
1.697039
11
7.521106
21
1.674539
0
LINE
8
hole
62
5
39
2
10
5.594482
20
1.674539
11
5.616982
21
1.674539
0
LINE
8
hole
62
5
39
2
10
5.616982
20
1.674539
11
5.616982
21
1.697039
0
LINE
8
hole
62
5
39
2
10
5.616982
20
1.697039
11
5.594482
21
1.697039
0
LINE
8
hole
62
5
39
2
10
5.594482
20
1.697039
11
5.594482
21
1.674539
0
LINE
8
hole
62
5
39
2
10
6.439304
20
0.746576
11
6.461804
21
0.746576
0
LINE
8
hole
62
5
39
2
10
6.461804
20
0.746576
11
6.461804
21
0.769076
0
LINE
8
hole
62
5
39
2
10
6.461804
20
0.769076
11
6.439304
21
0.769076
0
LINE
8
hole
62
5
39
2
10
6.439304
20
0.769076
11
6.439304
21
0.746576
0
LINE
8
boundary
62
5
39
2
10
5.693209
20
0.262500
11
7.717132
21
1.273086
0
LINE
8
boundary
62
5
39
2
10
7.717132
20
1.273086
11
7.737341
21
1.977233
0
LINE
8
boundary
62
5
39
2
10
7.737341
20
1.977233
11
5.693209
21
3.092595
0
LINE
8
boundary
62
5
39
2
10
5.693209
20
3.092595
11
5.400386
21
2.946383
0
LINE
8
boundary
62
5
39
2
10
5.400386
20
2.946383
11
5.329061
21
0.461194
0
LINE
8
boundary
62
5
39
2
10
5.329061
20
0.461194
11
5.693209
21
0.262500
0
LINE
8
annotation
62
1
39
211
10
7.532356
20
1.685789
11
7.532356
21
1.742039
0
LINE
8
annotation
62
1
39
211
10
7.532356
20
1.685789
11
7.532356
21
1.742039
0
LINE
8
annotation
62
1
39
211
10
7.532356
20
1.742039
11
7.532356
21
1.685789
0
LINE
8
annotation
62
1
39
211
10
7.532356
20
1.685789
11
7.532356
21
1.629539
0
LINE
8
annotation
62
1
39
211
10
5.605732
20
1.685789
11
5.661982
21
1.685789
0
LINE
8
annotation
62
1
39
211
10
5.605732
20
1.685789
11
5.661982
21
1.685789
0
LINE
8
annotation
62
1
39
211
10
5.661982
20
1.685789
11
5.605732
21
1.685789
0
LINE
8
annotation
62
1
39
211
10
5.605732
20
1.685789
11
5.605732
21
1.629539
0
LINE
8
annotation
62
1
39
211
10
6.431359
20
2.571359
11
6.431359
21
2.627609
0
LINE
8
annotation
62
1
39
211
10
6.450554
20
0.757826
11
6.506804
21
0.757826
0
LINE
8
annotation
62
1
39
211
10
6.329483
20
1.438827
11
5.763720
21
1.438827
0
LINE
8
annotation
62
1
39
211
10
5.763720
20
1.438827
11
5.989668
21
2.231240
0
LINE
8
annotation
62
1
39
211
10
6.159895
20
1.212304
11
6.159895
21
1.664838
0
LINE
8
hole
62
5
39
2
10
1.389392
20
5.523446
11
1.411892
21
5.523446
0
LINE
8
hole
62
5
39
2
10
1.411892
20
5.523446
11
1.411892
21
5.545946
0
LINE
8
hole
62
5
39
2
10
1.411892
20
5.545946
11
1.389392
21
5.545946
0
LINE
8
hole
62
5
39
2
10
1.389392
20
5.545946
11
1.389392
21
5.523446
0
LINE
8
hole
62
5
39
2
10
2.418702
20
4.621393
11
2.441202
21
4.621393
0
LINE
8
hole
62
5
39
2
10
2.441202
20
4.621393
11
2.441202
21
4.643893
0
LINE
8
hole
62
5
39
2
10
2.441202
20
4.643893
11
2.418702
21
4.643893
0
LINE
8
hole
62
5
39
2
10
2.418702
20
4.643893
11
2.418702
21
4.621393
0
LINE
8
hole
62
5
39
2
10
0.492078
20
4.621393
11
0.514578
21
4.621393
0
LINE
8
hole
62
5
39
2
10
0.514578
20
4.621393
11
0.514578
21
4.643893
0
LINE
8
hole
62
5
39
2
10
0.514578
20
4.643893
11
0.492078
21
4.643893
0
LINE
8
hole
62
5
39
2
10
0.492078
20
4.643893
11
0.492078
21
4.621393
0
LINE
8
hole
62
5
39
2
10
1.408587
20
3.709913
11
1.431087
21
3.709913
0
LINE
8
hole
62
5
39
2
10
1.431087
20
3.709913
11
1.431087
21
3.732413
0
LINE
8
hole
62
5
39
2
10
1.431087
20
3.732413
11
1.408587
21
3.732413
0
LINE
8
hole
62
5
39
2
10
1.408587
20
3.732413
11
1.408587
21
3.709913
0
LINE
8
boundary
62
5
39
2
10
0.824293
20
3.217595
11
2.644558
21
4.126490
0
LINE
8
boundary
62
5
39
2
10
2.644558
20
4.126490
11
2.670780
21
5.040172
0
LINE
8
boundary
62
5
39
2
10
2.670780
20
5.040172
11
0.824293
21
6.047690
0
LINE
8
boundary
62
5
39
2
10
0.824293
20
6.047690
11
0.327811
21
5.799787
0
LINE
8
boundary
62
5
39
2
10
0.327811
20
5.799787
11
0.262500
21
3.524132
0
LINE
8
boundary
62
5
39
2
10
0.262500
20
3.524132
11
0.824293
21
3.217595
0
LINE
8
annotation
62
1
39
211
10
1.400642
20
5.534696
11
1.400642
21
5.590946
0
LINE
8
annotation
62
1
39
211
10
1.419837
20
3.721163
11
1.476087
21
3.721163
0
LINE
8
annotation
62
1
39
211
10
2.429952
20
4.632643
11
2.429952
21
4.688893
0
LINE
8
annotation
62
1
39
211
10
2.429952
20
4.632643
11
2.429952
21
4.688893
0
LINE
8
annotation
62
1
39
211
10
2.429952
20
4.688893
11
2.429952
21
4.632643
0
LINE
8
annotation
62
1
39
211
10
2.429952
20
4.632643
11
2.486202
21
4.632643
0
LINE
8
annotation
62
1
39
211
10
0.503328
20
4.632643
11
0.503328
21
4.576393
0
LINE
8
annotation
62
1
39
211
10
0.508957
20
4.014559
11
0.803104
21
4.014559
0
LINE
8
annotation
62
1
39
211
10
0.803104
20
4.014559
11
0.803104
21
4.014559
0
LINE
8
annotation
62
1
39
211
10
0.803104
20
4.014559
11
0.855898
21
4.019306
0
LINE
8
annotation
62
1
39
211
10
0.855898
20
4.019306
11
0.905620
21
4.032990
0
LINE
8
annotation
62
1
39
211
10
0.905620
20
4.032990
11
0.951431
21
4.054779
0
LINE
8
annotation
62
1
39
211
10
0.951431
20
4.054779
11
0.992495
21
4.083840
0
LINE
8
annotation
62
1
39
211
10
0.992495
20
4.083840
11
1.027972
21
4.119338
0
LINE
8
annotation
62
1
39
211
10
1.027972
20
4.119338
11
1.057024
21
4.160440
0
LINE
8
annotation
62
1
39
211
10
1.057024
20
4.160440
11
1.078814
21
4.206313
0
LINE
8
annotation
62
1
39
211
10
1.078814
20
4.206313
11
1.092502
21
4.256124
0
LINE
8
annotation
62
1
39
211
10
1.092502
20
4.256124
11
1.097251
21
4.309038
0
LINE
8
annotation
62
1
39
211
10
1.097251
20
4.309038
11
1.097251
21
4.455572
0
LINE
8
annotation
62
1
39
211
10
1.097251
20
4.455572
11
1.097251
21
4.455572
0
LINE
8
annotation
62
1
39
211
10
1.097251
20
4.455572
11
1.092505
21
4.508460
0
LINE
8
annotation
62
1
39
211
10
1.092505
20
4.508460
11
1.078823
21
4.558202
0
LINE
8
annotation
62
1
39
211
10
1.078823
20
4.558202
11
1.057043
21
4.603976
0
LINE
8
annotation
62
1
39
211
10
1.057043
20
4.603976
11
1.027999
21
4.644960
0
LINE
8
annotation
62
1
39
211
10
1.027999
20
4.644960
11
0.992529
21
4.680334
0
LINE
8
annotation
62
1
39
211
10
0.992529
20
4.680334
11
0.951468
21
4.709276
0
LINE
8
annotation
62
1
39
211
10
0.951468
20
4.709276
11
0.905653
21
4.730966
0
LINE
8
annotation
62
1
39
211
10
0.905653
20
4.730966
11
0.855920
21
4.744582
0
LINE
8
annotation
62
1
39
211
10
0.855920
20
4.744582
11
0.803104
21
4.749303
0
LINE
8
annotation
62
1
39
211
10
0.803104
20
4.749303
11
0.508957
21
4.749303
0
LINE
8
annotation
62
1
39
211
10
0.508957
20
4.749303
11
0.508957
21
5.339176
0
LINE
8
annotation
62
1
39
211
10
0.508957
20
5.339176
11
1.097251
21
5.339176
0
LINE
8
hole
62
5
39
2
10
2.454546
20
7.584730
11
2.477046
21
7.584730
0
LINE
8
hole
62
5
39
2
10
2.477046
20
7.584730
11
2.477046
21
7.607230
0
LINE
8
hole
62
5
39
2
10
2.477046
20
7.607230
11
2.454546
21
7.607230
0
LINE
8
hole
62
5
39
2
10
2.454546
20
7.607230
11
2.454546
21
7.584730
0
LINE
8
hole
62
5
39
2
10
0.527921
20
7.584730
11
0.550421
21
7.584730
0
LINE
8
hole
62
5
39
2
10
0.550421
20
7.584730
11
0.550421
21
7.607230
0
LINE
8
hole
62
5
39
2
10
0.550421
20
7.607230
11
0.527921
21
7.607230
0
LINE
8
hole
62
5
39
2
10
0.527921
20
7.607230
11
0.527921
21
7.584730
0
LINE
8
hole
62
5
39
2
10
1.446015
20
6.491325
11
1.468515
21
6.491325
0
LINE
8
hole
62
5
39
2
10
1.468515
20
6.491325
11
1.468515
21
6.513825
0
LINE
8
hole
62
5
39
2
10
1.468515
20
6.513825
11
1.446015
21
6.513825
0
LINE
8
hole
62
5
39
2
10
1.446015
20
6.513825
11
1.446015
21
6.491325
0
LINE
8
hole
62
5
39
2
10
1.427265
20
8.642901
11
1.449765
21
8.642901
0
LINE
8
hole
62
5
39
2
10
1.449765
20
8.642901
11
1.449765
21
8.665401
0
LINE
8
hole
62
5
39
2
10
1.449765
20
8.665401
11
1.427265
21
8.665401
0
LINE
8
hole
62
5
39
2
10
1.427265
20
8.665401
11
1.427265
21
8.642901
0
LINE
8
boundary
62
5
39
2
10
1.021938
20
6.172690
11
2.638544
21
6.979894
0
LINE
8
boundary
62
5
39
2
10
2.638544
20
6.979894
11
2.670780
21
8.103110
0
LINE
8
boundary
62
5
39
2
10
2.670780
20
8.103110
11
1.021938
21
9.002785
0
LINE
8
boundary
62
5
39
2
10
1.021938
20
9.002785
11
0.321798
21
8.653191
0
LINE
8
boundary
62
5
39
2
10
0.321798
20
8.653191
11
0.262500
21
6.587071
0
LINE
8
boundary
62
5
39
2
10
0.262500
20
6.587071
11
1.021938
21
6.172690
0
LINE
8
annotation
62
1
39
211
10
2.465796
20
7.595980
11
2.465796
21
7.652230
0
LINE
8
annotation
62
1
39
211
10
2.465796
20
7.595980
11
2.465796
21
7.652230
0
LINE
8
annotation
62
1
39
211
10
2.465796
20
7.652230
11
2.465796
21
7.595980
0
LINE
8
annotation
62
1
39
211
10
2.465796
20
7.595980
11
2.522046
21
7.595980
0
LINE
8
annotation
62
1
39
211
10
0.539171
20
7.595980
11
0.539171
21
7.539730
0
LINE
8
annotation
62
1
39
211
10
1.438515
20
8.654151
11
1.438515
21
8.710401
0
LINE
8
annotation
62
1
39
211
10
1.438515
20
8.654151
11
1.438515
21
8.710401
0
LINE
8
annotation
62
1
39
211
10
1.438515
20
8.710401
11
1.438515
21
8.654151
0
LINE
8
annotation
62
1
39
211
10
1.438515
20
8.654151
11
1.438515
21
8.597901
0
LINE
8
annotation
62
1
39
211
10
1.457265
20
6.502575
11
1.513515
21
6.502575
0
LINE
8
annotation
62
1
39
211
10
1.457265
20
6.502575
11
1.513515
21
6.502575
0
LINE
8
annotation
62
1
39
211
10
1.513515
20
6.502575
11
1.457265
21
6.502575
0
LINE
8
annotation
62
1
39
211
10
1.457265
20
6.502575
11
1.457265
21
6.446325
0
LINE
8
annotation
62
1
39
211
10
1.116351
20
8.243324
11
1.116351
21
8.243324
0
LINE
8
annotation
62
1
39
211
10
1.116351
20
8.243324
11
1.038567
21
8.214160
0
LINE
8
annotation
62
1
39
211
10
1.038567
20
8.214160
11
0.967190
21
8.174864
0
LINE
8
annotation
62
1
39
211
10
0.967190
20
8.174864
11
0.902953
21
8.126423
0
LINE
8
annotation
62
1
39
211
10
0.902953
20
8.126423
11
0.846588
21
8.069819
0
LINE
8
annotation
62
1
39
211
10
0.846588
20
8.069819
11
0.798829
21
8.006037
0
LINE
8
annotation
62
1
39
211
10
0.798829
20
8.006037
11
0.760407
21
7.936063
0
LINE
8
annotation
62
1
39
211
10
0.760407
20
7.936063
11
0.732056
21
7.860880
0
LINE
8
annotation
62
1
39
211
10
0.732056
20
7.860880
11
0.714507
21
7.781473
0
LINE
8
annotation
62
1
39
211
10
0.714507
20
7.781473
11
0.708495
21
7.698826
0
LINE
8
annotation
62
1
39
211
10
0.708495
20
7.698826
11
0.708495
21
7.292428
0
LINE
8
annotation
62
1
39
211
10
0.708495
20
7.292428
11
0.708495
21
7.292428
0
LINE
8
annotation
62
1
39
211
10
0.708495
20
7.292428
11
0.712879
21
7.243584
0
LINE
8
annotation
62
1
39
211
10
0.712879
20
7.243584
11
0.725514
21
7.197605
0
LINE
8
annotation
62
1
39
211
10
0.725514
20
7.197605
11
0.745628
21
7.155260
0
LINE
8
annotation
62
1
39
211
10
0.745628
20
7.155260
11
0.772445
21
7.117320
0
LINE
8
annotation
62
1
39
211
10
0.772445
20
7.117320
11
0.805193
21
7.084552
0
LINE
8
annotation
62
1
39
211
10
0.805193
20
7.084552
11
0.843098
21
7.057727
0
LINE
8
annotation
62
1
39
211
10
0.843098
20
7.057727
11
0.885386
21
7.037614
0
LINE
8
annotation
62
1
39
211
10
0.885386
20
7.037614
11
0.931283
21
7.024982
0
LINE
8
annotation
62
1
39
211
10
0.931283
20
7.024982
11
0.980016
21
7.020601
0
LINE
8
annotation
62
1
39
211
10
0.980016
20
7.020601
11
0.980016
21
7.020601
0
LINE
8
annotation
62
1
39
211
10
0.980016
20
7.020601
11
1.028849
21
7.024982
0
LINE
8
annotation
62
1
39
211
10
1.028849
20
7.024982
11
1.074800
21
7.037614
0
LINE
8
annotation
62
1
39
211
10
1.074800
20
7.037614
11
1.117103
21
7.057727
0
LINE
8
annotation
62
1
39
211
10
1.117103
20
7.057727
11
1.154996
21
7.084552
0
LINE
8
annotation
62
1
39
211
10
1.154996
20
7.084552
11
1.187712
21
7.117320
0
LINE
8
annotation
62
1
39
211
10
1.187712
20
7.117320
11
1.214489
21
7.155260
0
LINE
8
annotation
62
1
39
211
10
1.214489
20
7.155260
11
1.234561
21
7.197605
0
LINE
8
annotation
62
1
39
211
10
1.234561
20
7.197605
11
1.247165
21
7.243584
0
LINE
8
annotation
62
1
39
211
10
1.247165
20
7.243584
11
1.251536
21
7.292428
0
LINE
8
annotation
62
1
39
211
10
1.251536
20
7.292428
11
1.251536
21
7.427689
0
LINE
8
annotation
62
1
39
211
10
1.251536
20
7.427689
11
1.251536
21
7.427689
0
LINE
8
annotation
62
1
39
211
10
1.251536
20
7.427689
11
1.247165
21
7.476510
0
LINE
8
annotation
62
1
39
211
10
1.247165
20
7.476510
11
1.234561
21
7.522425
0
LINE
8
annotation
62
1
39
211
10
1.234561
20
7.522425
11
1.214489
21
7.564678
0
LINE
8
annotation
62
1
39
211
10
1.214489
20
7.564678
11
1.187712
21
7.602510
0
LINE
8
annotation
62
1
39
211
10
1.187712
20
7.602510
11
1.154996
21
7.635162
0
LINE
8
annotation
62
1
39
211
10
1.154996
20
7.635162
11
1.117103
21
7.661878
0
LINE
8
annotation
62
1
39
211
10
1.117103
20
7.661878
11
1.074800
21
7.681900
0
LINE
8
annotation
62
1
39
211
10
1.074800
20
7.681900
11
1.028849
21
7.694468
0
LINE
8
annotation
62
1
39
211
10
1.028849
20
7.694468
11
0.980016
21
7.698826
0
LINE
8
annotation
62
1
39
211
10
0.980016
20
7.698826
11
0.708495
21
7.698826
0
LINE
8
annotation
62
1
39
211
10
0.674488
20
6.867760
11
1.285850
21
6.867760
0
LINE
8
hole
62
5
39
2
10
4.015139
20
3.544471
11
4.037639
21
3.544471
0
LINE
8
hole
62
5
39
2
10
4.037639
20
3.544471
11
4.037639
21
3.566971
0
LINE
8
hole
62
5
39
2
10
4.037639
20
3.566971
11
4.015139
21
3.566971
0
LINE
8
hole
62
5
39
2
10
4.015139
20
3.566971
11
4.015139
21
3.544471
0
LINE
8
hole
62
5
39
2
10
4.951983
20
4.621393
11
4.974483
21
4.621393
0
LINE
8
hole
62
5
39
2
10
4.974483
20
4.621393
11
4.974483
21
4.643893
0
LINE
8
hole
62
5
39
2
10
4.974483
20
4.643893
11
4.951983
21
4.643893
0
LINE
8
hole
62
5
39
2
10
4.951983
20
4.643893
11
4.951983
21
4.621393
0
LINE
8
hole
62
5
39
2
10
3.025358
20
4.621393
11
3.047858
21
4.621393
0
LINE
8
hole
62
5
39
2
10
3.047858
20
4.621393
11
3.047858
21
4.643893
0
LINE
8
hole
62
5
39
2
10
3.047858
20
4.643893
11
3.025358
21
4.643893
0
LINE
8
hole
62
5
39
2
10
3.025358
20
4.643893
11
3.025358
21
4.621393
0
LINE
8
hole
62
5
39
2
10
3.996389
20
5.696048
11
4.018889
21
5.696048
0
LINE
8
hole
62
5
39
2
10
4.018889
20
5.696048
11
4.018889
21
5.718548
0
LINE
8
hole
62
5
39
2
10
4.018889
20
5.718548
11
3.996389
21
5.718548
0
LINE
8
hole
62
5
39
2
10
3.996389
20
5.718548
11
3.996389
21
5.696048
0
LINE
8
boundary
62
5
39
2
10
3.752864
20
3.217595
11
5.165811
21
3.923108
0
LINE
8
boundary
62
5
39
2
10
5.165811
20
3.923108
11
5.204061
21
5.255858
0
LINE
8
boundary
62
5
39
2
10
5.204061
20
5.255858
11
3.752864
21
6.047690
0
LINE
8
boundary
62
5
39
2
10
3.752864
20
6.047690
11
2.849064
21
5.596405
0
LINE
8
boundary
62
5
39
2
10
2.849064
20
5.596405
11
2.795780
21
3.739819
0
LINE
8
boundary
62
5
39
2
10
2.795780
20
3.739819
11
3.752864
21
3.217595
0
LINE
8
annotation
62
1
39
211
10
4.007639
20
5.707298
11
4.007639
21
5.763548
0
LINE
8
annotation
62
1
39
211
10
4.007639
20
5.707298
11
4.007639
21
5.763548
0
LINE
8
annotation
62
1
39
211
10
4.007639
20
5.763548
11
4.007639
21
5.707298
0
LINE
8
annotation
62
1
39
211
10
4.007639
20
5.707298
11
4.007639
21
5.651048
0
LINE
8
annotation
62
1
39
211
10
4.026389
20
3.555721
11
4.082639
21
3.555721
0
LINE
8
annotation
62
1
39
211
10
4.026389
20
3.555721
11
4.082639
21
3.555721
0
LINE
8
annotation
62
1
39
211
10
4.082639
20
3.555721
11
4.026389
21
3.555721
0
LINE
8
annotation
62
1
39
211
10
4.026389
20
3.555721
11
4.026389
21
3.499471
0
LINE
8
annotation
62
1
39
211
10
4.963233
20
4.632643
11
4.963233
21
4.688893
0
LINE
8
annotation
62
1
39
211
10
3.036608
20
4.632643
11
3.092858
21
4.632643
0
LINE
8
annotation
62
1
39
211
10
3.778631
20
3.926109
11
4.073110
21
5.250726
0
LINE
8
annotation
62
1
39
211
10
4.073110
20
5.250726
11
3.484069
21
5.250726
0
LINE
8
annotation
62
1
39
211
10
4.073110
20
4.660854
11
3.778631
21
4.660854
0
LINE
8
hole
62
5
39
2
10
7.521106
20
4.629634
11
7.543606
21
4.629634
0
LINE
8
hole
62
5
39
2
10
7.543606
20
4.629634
11
7.543606
21
4.652134
0
LINE
8
hole
62
5
39
2
10
7.543606
20
4.652134
11
7.521106
21
4.652134
0
LINE
8
hole
62
5
39
2
10
7.521106
20
4.652134
11
7.521106
21
4.629634
0
LINE
8
hole
62
5
39
2
10
5.594482
20
4.629634
11
5.616982
21
4.629634
0
LINE
8
hole
62
5
39
2
10
5.616982
20
4.629634
11
5.616982
21
4.652134
0
LINE
8
hole
62
5
39
2
10
5.616982
20
4.652134
11
5.594482
21
4.652134
0
LINE
8
hole
62
5
39
2
10
5.594482
20
4.652134
11
5.594482
21
4.629634
0
LINE
8
hole
62
5
39
2
10
6.521951
20
5.753431
11
6.544451
21
5.753431
0
LINE
8
hole
62
5
39
2
10
6.544451
20
5.753431
11
6.544451
21
5.775931
0
LINE
8
hole
62
5
39
2
10
6.544451
20
5.775931
11
6.521951
21
5.775931
0
LINE
8
hole
62
5
39
2
10
6.521951
20
5.775931
11
6.521951
21
5.753431
0
LINE
8
hole
62
5
39
2
10
6.521951
20
3.489355
11
6.544451
21
3.489355
0
LINE
8
hole
62
5
39
2
10
6.544451
20
3.489355
11
6.544451
21
3.511855
0
LINE
8
hole
62
5
39
2
10
6.544451
20
3.511855
11
6.521951
21
3.511855
0
LINE
8
hole
62
5
39
2
10
6.521951
20
3.511855
11
6.521951
21
3.489355
0
LINE
8
boundary
62
5
39
2
10
6.483789
20
3.217595
11
7.693077
21
3.821417
0
LINE
8
boundary
62
5
39
2
10
7.693077
20
3.821417
11
7.737341
21
5.363701
0
LINE
8
boundary
62
5
39
2
10
7.737341
20
5.363701
11
6.483789
21
6.047690
0
LINE
8
boundary
62
5
39
2
10
6.483789
20
6.047690
11
5.376331
21
5.494714
0
LINE
8
boundary
62
5
39
2
10
5.376331
20
5.494714
11
5.329061
21
3.847662
0
LINE
8
boundary
62
5
39
2
10
5.329061
20
3.847662
11
6.483789
21
3.217595
0
LINE
8
annotation
62
1
39
211
10
7.532356
20
4.640884
11
7.532356
21
4.697134
0
LINE
8
annotation
62
1
39
211
10
5.605732
20
4.640884
11
5.661982
21
4.640884
0
LINE
8
annotation
62
1
39
211
10
6.533201
20
5.764681
11
6.533201
21
5.820931
0
LINE
8
annotation
62
1
39
211
10
6.533201
20
5.764681
11
6.533201
21
5.820931
0
LINE
8
annotation
62
1
39
211
10
6.533201
20
5.820931
11
6.533201
21
5.764681
0
LINE
8
annotation
62
1
39
211
10
6.533201
20
5.764681
11
6.589451
21
5.764681
0
LINE
8
annotation
62
1
39
211
10
6.533201
20
3.500605
11
6.533201
21
3.444355
0
LINE
8
annotation
62
1
39
211
10
6.194663
20
4.219800
11
6.194663
21
4.219800
0
LINE
8
annotation
62
1
39
211
10
6.194663
20
4.219800
11
6.199412
21
4.166911
0
LINE
8
annotation
62
1
39
211
10
6.199412
20
4.166911
11
6.213100
21
4.117169
0
LINE
8
annotation
62
1
39
211
10
6.213100
20
4.117169
11
6.234890
21
4.071395
0
LINE
8
annotation
62
1
39
211
10
6.234890
20
4.071395
11
6.263942
21
4.030411
0
LINE
8
annotation
62
1
39
211
10
6.263942
20
4.030411
11
6.299419
21
3.995037
0
LINE
8
annotation
62
1
39
211
10
6.299419
20
3.995037
11
6.340483
21
3.966095
0
LINE
8
annotation
62
1
39
211
10
6.340483
20
3.966095
11
6.386295
21
3.944405
0
LINE
8
annotation
62
1
39
211
10
6.386295
20
3.944405
11
6.436016
21
3.930789
0
LINE
8
annotation
62
1
39
211
10
6.436016
20
3.930789
11
6.488810
21
3.926068
0
LINE
8
annotation
62
1
39
211
10
6.488810
20
3.926068
11
6.488810
21
3.926068
0
LINE
8
annotation
62
1
39
211
10
6.488810
20
3.926068
11
6.541604
21
3.930789
0
LINE
8
annotation
62
1
39
211
10
6.541604
20
3.930789
11
6.591325
21
3.944405
0
LINE
8
annotation
62
1
39
211
10
6.591325
20
3.944405
11
6.637137
21
3.966095
0
LINE
8
annotation
62
1
39
211
10
6.637137
20
3.966095
11
6.678201
21
3.995037
0
LINE
8
annotation
62
1
39
211
10
6.678201
20
3.995037
11
6.713678
21
4.030411
0
LINE
8
annotation
62
1
39
211
10
6.713678
20
4.030411
11
6.742730
21
4.071395
0
LINE
8
annotation
62
1
39
211
10
6.742730
20
4.071395
11
6.764520
21
4.117169
0
LINE
8
annotation
62
1
39
211
10
6.764520
20
4.117169
11
6.778208
21
4.166911
0
LINE
8
annotation
62
1
39
211
10
6.778208
20
4.166911
11
6.782957
21
4.219800
0
LINE
8
annotation
62
1
39
211
10
6.782957
20
4.219800
11
6.782957
21
4.366333
0
LINE
8
annotation
62
1
39
211
10
6.782957
20
4.366333
11
6.782957
21
4.366333
0
LINE
8
annotation
62
1
39
211
10
6.782957
20
4.366333
11
6.778211
21
4.419248
0
LINE
8
annotation
62
1
39
211
10
6.778211
20
4.419248
11
6.764529
21
4.469058
0
LINE
8
annotation
62
1
39
211
10
6.764529
20
4.469058
11
6.742749
21
4.514931
0
LINE
8
annotation
62
1
39
211
10
6.742749
20
4.514931
11
6.713705
21
4.556033
0
LINE
8
annotation
62
1
39
211
10
6.713705
20
4.556033
11
6.678235
21
4.591531
0
LINE
8
annotation
62
1
39
211
10
6.678235
20
4.591531
11
6.637174
21
4.620592
0
LINE
8
annotation
62
1
39
211
10
6.637174
20
4.620592
11
6.591359
21
4.642381
0
LINE
8
annotation
62
1
39
211
10
6.591359
20
4.642381
11
6.541626
21
4.656066
0
LINE
8
annotation
62
1
39
211
10
6.541626
20
4.656066
11
6.488810
21
4.660812
0
LINE
8
annotation
62
1
39
211
10
6.488810
20
4.660812
11
6.488810
21
4.660812
0
LINE
8
annotation
62
1
39
211
10
6.488810
20
4.660812
11
6.435994
21
4.656063
0
LINE
8
annotation
62
1
39
211
10
6.435994
20
4.656063
11
6.386261
21
4.642371
0
LINE
8
annotation
62
1
39
211
10
6.386261
20
4.642371
11
6.340446
21
4.620573
0
LINE
8
annotation
62
1
39
211
10
6.340446
20
4.620573
11
6.299385
21
4.591504
0
LINE
8
annotation
62
1
39
211
10
6.299385
20
4.591504
11
6.263915
21
4.555999
0
LINE
8
annotation
62
1
39
211
10
6.263915
20
4.555999
11
6.234871
21
4.514894
0
LINE
8
annotation
62
1
39
211
10
6.234871
20
4.514894
11
6.213091
21
4.469025
0
LINE
8
annotation
62
1
39
211
10
6.213091
20
4.469025
11
6.199409
21
4.419226
0
LINE
8
annotation
62
1
39
211
10
6.199409
20
4.419226
11
6.194663
21
4.366333
0
LINE
8
annotation
62
1
39
211
10
6.194663
20
4.366333
11
6.194663
21
4.219800
0
LINE
8
annotation
62
1
39
211
10
6.782957
20
4.955375
11
6.782957
21
4.955375
0
LINE
8
annotation
62
1
39
211
10
6.782957
20
4.955375
11
6.778211
21
5.008045
0
LINE
8
annotation
62
1
39
211
10
6.778211
20
5.008045
11
6.764529
21
5.057670
0
LINE
8
annotation
62
1
39
211
10
6.764529
20
5.057670
11
6.742749
21
5.103410
0
LINE
8
annotation
62
1
39
211
10
6.742749
20
5.103410
11
6.713705
21
5.144421
0
LINE
8
annotation
62
1
39
211
10
6.713705
20
5.144421
11
6.678235
21
5.179864
0
LINE
8
annotation
62
1
39
211
10
6.678235
20
5.179864
11
6.637174
21
5.208895
0
LINE
8
annotation
62
1
39
211
10
6.637174
20
5.208895
11
6.591359
21
5.230674
0
LINE
8
annotation
62
1
39
211
10
6.591359
20
5.230674
11
6.541626
21
5.244358
0
LINE
8
annotation
62
1
39
211
10
6.541626
20
5.244358
11
6.488810
21
5.249107
0
LINE
8
annotation
62
1
39
211
10
6.488810
20
5.249107
11
6.488810
21
5.249107
0
LINE
8
annotation
62
1
39
211
10
6.488810
20
5.249107
11
6.435994
21
5.244358
0
LINE
8
annotation
62
1
39
211
10
6.435994
20
5.244358
11
6.386261
21
5.230674
0
LINE
8
annotation
62
1
39
211
10
6.386261
20
5.230674
11
6.340446
21
5.208895
0
LINE
8
annotation
62
1
39
211
10
6.340446
20
5.208895
11
6.299385
21
5.179864
0
LINE
8
annotation
62
1
39
211
10
6.299385
20
5.179864
11
6.263915
21
5.144421
0
LINE
8
annotation
62
1
39
211
10
6.263915
20
5.144421
11
6.234871
21
5.103410
0
LINE
8
annotation
62
1
39
211
10
6.234871
20
5.103410
11
6.213091
21
5.057670
0
LINE
8
annotation
62
1
39
211
10
6.213091
20
5.057670
11
6.199409
21
5.008045
0
LINE
8
annotation
62
1
39
211
10
6.199409
20
5.008045
11
6.194663
21
4.955375
0
LINE
8
annotation
62
1
39
211
10
6.194663
20
4.955375
11
6.194663
21
4.955375
0
LINE
8
annotation
62
1
39
211
10
6.194663
20
4.955375
11
6.199412
21
4.902458
0
LINE
8
annotation
62
1
39
211
10
6.199412
20
4.902458
11
6.213100
21
4.852639
0
LINE
8
annotation
62
1
39
211
10
6.213100
20
4.852639
11
6.234890
21
4.806755
0
LINE
8
annotation
62
1
39
211
10
6.234890
20
4.806755
11
6.263942
21
4.765640
0
LINE
8
annotation
62
1
39
211
10
6.263942
20
4.765640
11
6.299419
21
4.730128
0
LINE
8
annotation
62
1
39
211
10
6.299419
20
4.730128
11
6.340483
21
4.701055
0
LINE
8
annotation
62
1
39
211
10
6.340483
20
4.701055
11
6.386295
21
4.679254
0
LINE
8
annotation
62
1
39
211
10
6.386295
20
4.679254
11
6.436016
21
4.665562
0
LINE
8
annotation
62
1
39
211
10
6.436016
20
4.665562
11
6.488810
21
4.660812
0
LINE
8
annotation
62
1
39
211
10
6.488810
20
4.660812
11
6.488810
21
4.660812
0
LINE
8
annotation
62
1
39
211
10
6.488810
20
4.660812
11
6.541604
21
4.665562
0
LINE
8
annotation
62
1
39
211
10
6.541604
20
4.665562
11
6.591325
21
4.679254
0
LINE
8
annotation
62
1
39
211
10
6.591325
20
4.679254
11
6.637137
21
4.701055
0
LINE
8
annotation
62
1
39
211
10
6.637137
20
4.701055
11
6.678201
21
4.730128
0
LINE
8
annotation
62
1
39
211
10
6.678201
20
4.730128
11
6.713678
21
4.765640
0
LINE
8
annotation
62
1
39
211
10
6.713678
20
4.765640
11
6.742730
21
4.806755
0
LINE
8
annotation
62
1
39
211
10
6.742730
20
4.806755
11
6.764520
21
4.852639
0
LINE
8
annotation
62
1
39
211
10
6.764520
20
4.852639
11
6.778208
21
4.902458
0
LINE
8
annotation
62
1
39
211
10
6.778208
20
4.902458
11
6.782957
21
4.955375
0
LINE
8
hole
62
5
39
2
10
4.951983
20
7.576488
11
4.974483
21
7.576488
0
LINE
8
hole
62
5
39
2
10
4.974483
20
7.576488
11
4.974483
21
7.598988
0
LINE
8
hole
62
5
39
2
10
4.974483
20
7.598988
11
4.951983
21
7.598988
0
LINE
8
hole
62
5
39
2
10
4.951983
20
7.598988
11
4.951983
21
7.576488
0
LINE
8
hole
62
5
39
2
10
3.025358
20
7.576488
11
3.047858
21
7.576488
0
LINE
8
hole
62
5
39
2
10
3.047858
20
7.576488
11
3.047858
21
7.598988
0
LINE
8
hole
62
5
39
2
10
3.047858
20
7.598988
11
3.025358
21
7.598988
0
LINE
8
hole
62
5
39
2
10
3.025358
20
7.598988
11
3.025358
21
7.576488
0
LINE
8
hole
62
5
39
2
10
4.024514
20
8.716768
11
4.047014
21
8.716768
0
LINE
8
hole
62
5
39
2
10
4.047014
20
8.716768
11
4.047014
21
8.739268
0
LINE
8
hole
62
5
39
2
10
4.047014
20
8.739268
11
4.024514
21
8.739268
0
LINE
8
hole
62
5
39
2
10
4.024514
20
8.739268
11
4.024514
21
8.716768
0
LINE
8
hole
62
5
39
2
10
4.024514
20
6.452692
11
4.047014
21
6.452692
0
LINE
8
hole
62
5
39
2
10
4.047014
20
6.452692
11
4.047014
21
6.475192
0
LINE
8
hole
62
5
39
2
10
4.047014
20
6.475192
11
4.024514
21
6.475192
0
LINE
8
hole
62
5
39
2
10
4.024514
20
6.475192
11
4.024514
21
6.452692
0
LINE
8
boundary
62
5
39
2
10
4.148154
20
6.172690
11
5.153783
21
6.674821
0
LINE
8
boundary
62
5
39
2
10
5.153783
20
6.674821
11
5.204061
21
8.426640
0
LINE
8
boundary
62
5
39
2
10
5.204061
20
8.426640
11
4.148154
21
9.002785
0
LINE
8
boundary
62
5
39
2
10
4.148154
20
9.002785
11
2.837037
21
8.348118
0
LINE
8
boundary
62
5
39
2
10
2.837037
20
8.348118
11
2.795780
21
6.910600
0
LINE
8
boundary
62
5
39
2
10
2.795780
20
6.910600
11
4.148154
21
6.172690
0
LINE
8
annotation
62
1
39
211
10
4.035764
20
8.728018
11
4.035764
21
8.784268
0
LINE
8
annotation
62
1
39
211
10
4.035764
20
8.728018
11
4.035764
21
8.784268
0
LINE
8
annotation
62
1
39
211
10
4.035764
20
8.784268
11
4.035764
21
8.728018
0
LINE
8
annotation
62
1
39
211
10
4.035764
20
8.728018
11
4.092014
21
8.728018
0
LINE
8
annotation
62
1
39
211
10
4.035764
20
6.463942
11
4.035764
21
6.407692
0
LINE
8
annotation
62
1
39
211
10
4.963233
20
7.587738
11
4.963233
21
7.643988
0
LINE
8
annotation
62
1
39
211
10
4.963233
20
7.587738
11
4.963233
21
7.643988
0
LINE
8
annotation
62
1
39
211
10
4.963233
20
7.643988
11
4.963233
21
7.587738
0
LINE
8
annotation
62
1
39
211
10
4.963233
20
7.587738
11
4.963233
21
7.531488
0
LINE
8
annotation
62
1
39
211
10
3.036608
20
7.587738
11
3.092858
21
7.587738
0
LINE
8
annotation
62
1
39
211
10
3.036608
20
7.587738
11
3.092858
21
7.587738
0
LINE
8
annotation
62
1
39
211
10
3.092858
20
7.587738
11
3.036608
21
7.587738
0
LINE
8
annotation
62
1
39
211
10
3.036608
20
7.587738
11
3.036608
21
7.531488
0
LINE
8
annotation
62
1
39
211
10
3.985147
20
6.969654
11
3.985147
21
6.969654
0
LINE
8
annotation
62
1
39
211
10
3.985147
20
6.969654
11
4.069264
21
7.001000
0
LINE
8
annotation
62
1
39
211
10
4.069264
20
7.001000
11
4.146474
21
7.043370
0
LINE
8
annotation
62
1
39
211
10
4.146474
20
7.043370
11
4.215977
21
7.095685
0
LINE
8
annotation
62
1
39
211
10
4.215977
20
7.095685
11
4.276977
21
7.156864
0
LINE
8
annotation
62
1
39
211
10
4.276977
20
7.156864
11
4.328675
21
7.225829
0
LINE
8
annotation
62
1
39
211
10
4.328675
20
7.225829
11
4.370273
21
7.301499
0
LINE
8
annotation
62
1
39
211
10
4.370273
20
7.301499
11
4.400974
21
7.382795
0
LINE
8
annotation
62
1
39
211
10
4.400974
20
7.382795
11
4.419980
21
7.468638
0
LINE
8
annotation
62
1
39
211
10
4.419980
20
7.468638
11
4.426492
21
7.557948
0
LINE
8
annotation
62
1
39
211
10
4.426492
20
7.557948
11
4.426492
21
7.999708
0
LINE
8
annotation
62
1
39
211
10
4.426492
20
7.999708
11
4.426492
21
7.999708
0
LINE
8
annotation
62
1
39
211
10
4.426492
20
7.999708
11
4.421757
21
8.052626
0
LINE
8
annotation
62
1
39
211
10
4.421757
20
8.052626
11
4.408103
21
8.102444
0
LINE
8
annotation
62
1
39
211
10
4.408103
20
8.102444
11
4.386358
21
8.148328
0
LINE
8
annotation
62
1
39
211
10
4.386358
20
8.148328
11
4.357350
21
8.189443
0
LINE
8
annotation
62
1
39
211
10
4.357350
20
8.189443
11
4.321907
21
8.224955
0
LINE
8
annotation
62
1
39
211
10
4.321907
20
8.224955
11
4.280857
21
8.254028
0
LINE
8
annotation
62
1
39
211
10
4.280857
20
8.254028
11
4.235028
21
8.275829
0
LINE
8
annotation
62
1
39
211
10
4.235028
20
8.275829
11
4.185248
21
8.289521
0
LINE
8
annotation
62
1
39
211
10
4.185248
20
8.289521
11
4.132345
21
8.294271
0
LINE
8
annotation
62
1
39
211
10
4.132345
20
8.294271
11
4.132345
21
8.294271
0
LINE
8
annotation
62
1
39
211
10
4.132345
20
8.294271
11
4.079552
21
8.289521
0
LINE
8
annotation
62
1
39
211
10
4.079552
20
8.289521
11
4.029830
21
8.275829
0
LINE
8
annotation
62
1
39
211
10
4.029830
20
8.275829
11
3.984018
21
8.254028
0
LINE
8
annotation
62
1
39
211
10
3.984018
20
8.254028
11
3.942954
21
8.224955
0
LINE
8
annotation
62
1
39
211
10
3.942954
20
8.224955
11
3.907477
21
8.189443
0
LINE
8
annotation
62
1
39
211
10
3.907477
20
8.189443
11
3.878425
21
8.148328
0
LINE
8
annotation
62
1
39
211
10
3.878425
20
8.148328
11
3.856636
21
8.102444
0
LINE
8
annotation
62
1
39
211
10
3.856636
20
8.102444
11
3.842947
21
8.052626
0
LINE
8
annotation
62
1
39
211
10
3.842947
20
8.052626
11
3.838198
21
7.999708
0
LINE
8
annotation
62
1
39
211
10
3.838198
20
7.999708
11
3.838198
21
7.852427
0
LINE
8
annotation
62
1
39
211
10
3.838198
20
7.852427
11
3.838198
21
7.852427
0
LINE
8
annotation
62
1
39
211
10
3.838198
20
7.852427
11
3.842947
21
7.799513
0
LINE
8
annotation
62
1
39
211
10
3.842947
20
7.799513
11
3.856636
21
7.749702
0
LINE
8
annotation
62
1
39
211
10
3.856636
20
7.749702
11
3.878425
21
7.703829
0
LINE
8
annotation
62
1
39
211
10
3.878425
20
7.703829
11
3.907477
21
7.662727
0
LINE
8
annotation
62
1
39
211
10
3.907477
20
7.662727
11
3.942954
21
7.627229
0
LINE
8
annotation
62
1
39
211
10
3.942954
20
7.627229
11
3.984018
21
7.598169
0
LINE
8
annotation
62
1
39
211
10
3.984018
20
7.598169
11
4.029830
21
7.576379
0
LINE
8
annotation
62
1
39
211
10
4.029830
20
7.576379
11
4.079552
21
7.562695
0
LINE
8
annotation
62
1
39
211
10
4.079552
20
7.562695
11
4.132345
21
7.557948
0
LINE
8
annotation
62
1
39
211
10
4.132345
20
7.557948
11
4.426492
21
7.557948
0
LINE
8
annotation
62
1
39
211
10
3.801440
20
6.804077
11
4.463749
21
6.804077
0
LINE
8
hole
62
5
39
2
10
3.971537
20
10.328866
11
3.994037
21
10.328866
0
LINE
8
hole
62
5
39
2
10
3.994037
20
10.328866
11
3.994037
21
10.351366
0
LINE
8
hole
62
5
39
2
10
3.994037
20
10.351366
11
3.971537
21
10.351366
0
LINE
8
hole
62
5
39
2
10
3.971537
20
10.351366
11
3.971537
21
10.328866
0
LINE
8
hole
62
5
39
2
10
3.723465
20
9.294660
11
3.745965
21
9.294660
0
LINE
8
hole
62
5
39
2
10
3.745965
20
9.294660
11
3.745965
21
9.317160
0
LINE
8
hole
62
5
39
2
10
3.745965
20
9.317160
11
3.723465
21
9.317160
0
LINE
8
hole
62
5
39
2
10
3.723465
20
9.317160
11
3.723465
21
9.294660
0
LINE
8
boundary
62
5
39
2
10
2.800955
20
9.876687
11
2.795780
21
9.696375
0
LINE
8
boundary
62
5
39
2
10
2.795780
20
9.696375
11
3.837840
21
9.127785
0
LINE
8
boundary
62
5
39
2
10
3.837840
20
9.127785
11
4.160912
21
10.555741
0
LINE
8
boundary
62
5
39
2
10
4.160912
20
10.555741
11
2.800955
21
9.876687
0
LINE
8
annotation
62
1
39
211
10
3.982787
20
10.340116
11
3.982787
21
10.396366
0
LINE
8
annotation
62
1
39
211
10
3.982787
20
10.340116
11
3.982787
21
10.396366
0
LINE
8
annotation
62
1
39
211
10
3.982787
20
10.396366
11
3.982787
21
10.340116
0
LINE
8
annotation
62
1
39
211
10
3.982787
20
10.340116
11
4.039037
21
10.340116
0
LINE
8
annotation
62
1
39
211
10
3.734715
20
9.305910
11
3.734715
21
9.249660
0
LINE
8
annotation
62
1
39
211
10
3.504806
20
9.594880
11
3.504806
21
9.954761
0
LINE
8
annotation
62
1
39
211
10
3.504806
20
9.954761
11
3.424800
21
9.874733
0
LINE
8
annotation
62
1
39
211
10
3.639750
20
9.594880
11
3.719666
21
9.594880
0
LINE
8
annotation
62
1
39
211
10
3.719666
20
9.594880
11
3.719666
21
9.594880
0
LINE
8
annotation
62
1
39
211
10
3.719666
20
9.594880
11
3.734009
21
9.596170
0
LINE
8
annotation
62
1
39
211
10
3.734009
20
9.596170
11
3.747518
21
9.599888
0
LINE
8
annotation
62
1
39
211
10
3.747518
20
9.599888
11
3.759965
21
9.605808
0
LINE
8
annotation
62
1
39
211
10
3.759965
20
9.605808
11
3.771121
21
9.613703
0
LINE
8
annotation
62
1
39
211
10
3.771121
20
9.613703
11
3.780760
21
9.623348
0
LINE
8
annotation
62
1
39
211
10
3.780760
20
9.623348
11
3.788653
21
9.634514
0
LINE
8
annotation
62
1
39
211
10
3.788653
20
9.634514
11
3.794573
21
9.646978
0
LINE
8
annotation
62
1
39
211
10
3.794573
20
9.646978
11
3.798292
21
9.660510
0
LINE
8
annotation
62
1
39
211
10
3.798292
20
9.660510
11
3.799582
21
9.674887
0
LINE
8
annotation
62
1
39
211
10
3.799582
20
9.674887
11
3.799582
21
9.714698
0
LINE
8
annotation
62
1
39
211
10
3.799582
20
9.714698
11
3.799582
21
9.714698
0
LINE
8
annotation
62
1
39
211
10
3.799582
20
9.714698
11
3.798292
21
9.729067
0
LINE
8
annotation
62
1
39
211
10
3.798292
20
9.729067
11
3.794575
21
9.742581
0
LINE
8
annotation
62
1
39
211
10
3.794575
20
9.742581
11
3.788658
21
9.755017
0
LINE
8
annotation
62
1
39
211
10
3.788658
20
9.755017
11
3.780767
21
9.766152
0
LINE
8
annotation
62
1
39
211
10
3.780767
20
9.766152
11
3.771130
21
9.775763
0
LINE
8
annotation
62
1
39
211
10
3.771130
20
9.775763
11
3.759975
21
9.783626
0
LINE
8
annotation
62
1
39
211
10
3.759975
20
9.783626
11
3.747527
21
9.789519
0
LINE
8
annotation
62
1
39
211
10
3.747527
20
9.789519
11
3.734015
21
9.793218
0
LINE
8
annotation
62
1
39
211
10
3.734015
20
9.793218
11
3.719666
21
9.794501
0
LINE
8
annotation
62
1
39
211
10
3.719666
20
9.794501
11
3.639750
21
9.794501
0
LINE
8
annotation
62
1
39
211
10
3.639750
20
9.794501
11
3.639750
21
9.954761
0
LINE
8
annotation
62
1
39
211
10
3.639750
20
9.954761
11
3.799582
21
9.954761
0
LINE
8
hole
62
5
39
2
10
4.426205
20
9.422786
11
4.448705
21
9.422786
0
LINE
8
hole
62
5
39
2
10
4.448705
20
9.422786
11
4.448705
21
9.445286
0
LINE
8
hole
62
5
39
2
10
4.448705
20
9.445286
11
4.426205
21
9.445286
0
LINE
8
hole
62
5
39
2
10
4.426205
20
9.445286
11
4.426205
21
9.422786
0
LINE
8
hole
62
5
39
2
10
4.630037
20
9.443793
11
4.652537
21
9.443793
0
LINE
8
hole
62
5
39
2
10
4.652537
20
9.443793
11
4.652537
21
9.466293
0
LINE
8
hole
62
5
39
2
10
4.652537
20
9.466293
11
4.630037
21
9.466293
0
LINE
8
hole
62
5
39
2
10
4.630037
20
9.466293
11
4.630037
21
9.443793
0
LINE
8
boundary
62
5
39
2
10
4.421269
20
9.726051
11
4.285912
21
9.127785
0
LINE
8
boundary
62
5
39
2
10
4.285912
20
9.127785
11
4.855688
21
9.412286
0
LINE
8
boundary
62
5
39
2
10
4.855688
20
9.412286
11
4.857856
21
9.487830
0
LINE
8
boundary
62
5
39
2
10
4.857856
20
9.487830
11
4.421269
21
9.726051
0
LINE
8
annotation
62
1
39
211
10
4.641287
20
9.455043
11
4.641287
21
9.511293
0
LINE
8
annotation
62
1
39
211
10
4.437455
20
9.434036
11
4.493705
21
9.434036
0
LINE
8
annotation
62
1
39
211
10
4.521016
20
9.347266
11
4.521016
21
9.562663
0
LINE
8
annotation
62
1
39
211
10
4.521016
20
9.562663
11
4.473131
21
9.514764
0
LINE
8
hole
62
5
39
2
10
6.587576
20
8.642901
11
6.610076
21
8.642901
0
LINE
8
hole
62
5
39
2
10
6.610076
20
8.642901
11
6.610076
21
8.665401
0
LINE
8
hole
62
5
39
2
10
6.610076
20
8.665401
11
6.587576
21
8.665401
0
LINE
8
hole
62
5
39
2
10
6.587576
20
8.665401
11
6.587576
21
8.642901
0
LINE
8
hole
62
5
39
2
10
7.521106
20
7.584730
11
7.543606
21
7.584730
0
LINE
8
hole
62
5
39
2
10
7.543606
20
7.584730
11
7.543606
21
7.607230
0
LINE
8
hole
62
5
39
2
10
7.543606
20
7.607230
11
7.521106
21
7.607230
0
LINE
8
hole
62
5
39
2
10
7.521106
20
7.607230
11
7.521106
21
7.584730
0
LINE
8
hole
62
5
39
2
10
5.594482
20
7.584730
11
5.616982
21
7.584730
0
LINE
8
hole
62
5
39
2
10
5.616982
20
7.584730
11
5.616982
21
7.607230
0
LINE
8
hole
62
5
39
2
10
5.616982
20
7.607230
11
5.594482
21
7.607230
0
LINE
8
hole
62
5
39
2
10
5.594482
20
7.607230
11
5.594482
21
7.584730
0
LINE
8
hole
62
5
39
2
10
6.568826
20
6.528825
11
6.591326
21
6.528825
0
LINE
8
hole
62
5
39
2
10
6.591326
20
6.528825
11
6.591326
21
6.551325
0
LINE
8
hole
62
5
39
2
10
6.591326
20
6.551325
11
6.568826
21
6.551325
0
LINE
8
hole
62
5
39
2
10
6.568826
20
6.551325
11
6.568826
21
6.528825
0
LINE
8
boundary
62
5
39
2
10
6.879080
20
6.172690
11
7.681050
21
6.573130
0
LINE
8
boundary
62
5
39
2
10
7.681050
20
6.573130
11
7.737341
21
8.534483
0
LINE
8
boundary
62
5
39
2
10
7.737341
20
8.534483
11
6.879080
21
9.002785
0
LINE
8
boundary
62
5
39
2
10
6.879080
20
9.002785
11
5.364304
21
8.246427
0
LINE
8
boundary
62
5
39
2
10
5.364304
20
8.246427
11
5.329061
21
7.018444
0
LINE
8
boundary
62
5
39
2
10
5.329061
20
7.018444
11
6.879080
21
6.172690
0
LINE
8
annotation
62
1
39
211
10
7.532356
20
7.595980
11
7.532356
21
7.652230
0
LINE
8
annotation
62
1
39
211
10
7.532356
20
7.595980
11
7.532356
21
7.652230
0
LINE
8
annotation
62
1
39
211
10
7.532356
20
7.652230
11
7.532356
21
7.595980
0
LINE
8
annotation
62
1
39
211
10
7.532356
20
7.595980
11
7.532356
21
7.539730
0
LINE
8
annotation
62
1
39
211
10
5.605732
20
7.595980
11
5.661982
21
7.595980
0
LINE
8
annotation
62
1
39
211
10
5.605732
20
7.595980
11
5.661982
21
7.595980
0
LINE
8
annotation
62
1
39
211
10
5.661982
20
7.595980
11
5.605732
21
7.595980
0
LINE
8
annotation
62
1
39
211
10
5.605732
20
7.595980
11
5.605732
21
7.539730
0
LINE
8
annotation
62
1
39
211
10
6.598826
20
8.654151
11
6.598826
21
8.710401
0
LINE
8
annotation
62
1
39
211
10
6.580076
20
6.540075
11
6.636326
21
6.540075
0
LINE
8
annotation
62
1
39
211
10
6.539621
20
7.122494
11
6.539621
21
8.141430
0
LINE
8
annotation
62
1
39
211
10
6.539621
20
8.141430
11
6.313099
21
7.914844
0
LINE
8
annotation
62
1
39
211
10
7.085359
20
7.135934
11
7.085359
21
7.135934
0
LINE
8
annotation
62
1
39
211
10
7.085359
20
7.135934
11
7.109040
21
7.127082
0
LINE
8
annotation
62
1
39
211
10
7.109040
20
7.127082
11
7.133327
21
7.122683
0
LINE
8
annotation
62
1
39
211
10
7.133327
20
7.122683
11
7.157671
21
7.122560
0
LINE
8
annotation
62
1
39
211
10
7.157671
20
7.122560
11
7.181523
21
7.126533
0
LINE
8
annotation
62
1
39
211
10
7.181523
20
7.126533
11
7.204333
21
7.134423
0
LINE
8
annotation
62
1
39
211
10
7.204333
20
7.134423
11
7.225553
21
7.146049
0
LINE
8
annotation
62
1
39
211
10
7.225553
20
7.146049
11
7.244634
21
7.161234
0
LINE
8
annotation
62
1
39
211
10
7.244634
20
7.161234
11
7.261026
21
7.179797
0
LINE
8
annotation
62
1
39
211
10
7.261026
20
7.179797
11
7.274181
21
7.201559
0
LINE
8
annotation
62
1
39
211
10
7.274181
20
7.201559
11
7.274181
21
7.201559
0
LINE
8
annotation
62
1
39
211
10
7.274181
20
7.201559
11
7.313429
21
7.293429
0
LINE
8
annotation
62
1
39
211
10
7.313429
20
7.293429
11
7.342865
21
7.387958
0
LINE
8
annotation
62
1
39
211
10
7.342865
20
7.387958
11
7.362489
21
7.484393
0
LINE
8
annotation
62
1
39
211
10
7.362489
20
7.484393
11
7.372301
21
7.581980
0
LINE
8
annotation
62
1
39
211
10
7.372301
20
7.581980
11
7.372301
21
7.679964
0
LINE
8
annotation
62
1
39
211
10
7.372301
20
7.679964
11
7.362489
21
7.777593
0
LINE
8
annotation
62
1
39
211
10
7.362489
20
7.777593
11
7.342865
21
7.874113
0
LINE
8
annotation
62
1
39
211
10
7.342865
20
7.874113
11
7.313429
21
7.968770
0
LINE
8
annotation
62
1
39
211
10
7.313429
20
7.968770
11
7.274181
21
8.060811
0
LINE
8
annotation
62
1
39
211
10
7.274181
20
8.060811
11
7.274181
21
8.060811
0
LINE
8
annotation
62
1
39
211
10
7.274181
20
8.060811
11
7.269189
21
8.070100
0
LINE
8
annotation
62
1
39
211
10
7.269189
20
8.070100
11
7.263531
21
8.078980
0
LINE
8
annotation
62
1
39
211
10
7.263531
20
8.078980
11
7.257247
21
8.087409
0
LINE
8
annotation
62
1
39
211
10
7.257247
20
8.087409
11
7.250382
21
8.095343
0
LINE
8
annotation
62
1
39
211
10
7.250382
20
8.095343
11
7.242977
21
8.102738
0
LINE
8
annotation
62
1
39
211
10
7.242977
20
8.102738
11
7.235074
21
8.109549
0
LINE
8
annotation
62
1
39
211
10
7.235074
20
8.109549
11
7.226718
21
8.115735
0
LINE
8
annotation
62
1
39
211
10
7.226718
20
8.115735
11
7.217949
21
8.121250
0
LINE
8
annotation
62
1
39
211
10
7.217949
20
8.121250
11
7.208812
21
8.126052
0
LINE
8
annotation
62
1
39
211
10
7.208812
20
8.126052
11
7.208812
21
8.126052
0
LINE
8
annotation
62
1
39
211
10
7.208812
20
8.126052
11
7.184942
21
8.135096
0
LINE
8
annotation
62
1
39
211
10
7.184942
20
8.135096
11
7.160513
21
8.139645
0
LINE
8
annotation
62
1
39
211
10
7.160513
20
8.139645
11
7.136066
21
8.139878
0
LINE
8
annotation
62
1
39
211
10
7.136066
20
8.139878
11
7.112145
21
8.135975
0
LINE
8
annotation
62
1
39
211
10
7.112145
20
8.135975
11
7.089291
21
8.128118
0
LINE
8
annotation
62
1
39
211
10
7.089291
20
8.128118
11
7.068049
21
8.116486
0
LINE
8
annotation
62
1
39
211
10
7.068049
20
8.116486
11
7.048960
21
8.101260
0
LINE
8
annotation
62
1
39
211
10
7.048960
20
8.101260
11
7.032568
21
8.082620
0
LINE
8
annotation
62
1
39
211
10
7.032568
20
8.082620
11
7.019415
21
8.060747
0
LINE
8
annotation
62
1
39
211
10
7.019415
20
8.060747
11
7.019415
21
8.060747
0
LINE
8
annotation
62
1
39
211
10
7.019415
20
8.060747
11
6.980356
21
7.968896
0
LINE
8
annotation
62
1
39
211
10
6.980356
20
7.968896
11
6.951061
21
7.874381
0
LINE
8
annotation
62
1
39
211
10
6.951061
20
7.874381
11
6.931532
21
7.777955
0
LINE
8
annotation
62
1
39
211
10
6.931532
20
7.777955
11
6.921767
21
7.680374
0
LINE
8
annotation
62
1
39
211
10
6.921767
20
7.680374
11
6.921767
21
7.582389
0
LINE
8
annotation
62
1
39
211
10
6.921767
20
7.582389
11
6.931532
21
7.484755
0
LINE
8
annotation
62
1
39
211
10
6.931532
20
7.484755
11
6.951061
21
7.388226
0
LINE
8
annotation
62
1
39
211
10
6.951061
20
7.388226
11
6.980356
21
7.293554
0
LINE
8
annotation
62
1
39
211
10
6.980356
20
7.293554
11
7.019415
21
7.201495
0
LINE
8
annotation
62
1
39
211
10
7.019415
20
7.201495
11
7.019415
21
7.201495
0
LINE
8
annotation
62
1
39
211
10
7.019415
20
7.201495
11
7.024388
21
7.192225
0
LINE
8
annotation
62
1
39
211
10
7.024388
20
7.192225
11
7.030005
21
7.183388
0
LINE
8
annotation
62
1
39
211
10
7.030005
20
7.183388
11
7.036241
21
7.175012
0
LINE
8
annotation
62
1
39
211
10
7.036241
20
7.175012
11
7.043075
21
7.167124
0
LINE
8
annotation
62
1
39
211
10
7.043075
20
7.167124
11
7.050481
21
7.159750
0
LINE
8
annotation
62
1
39
211
10
7.050481
20
7.159750
11
7.058436
21
7.152917
0
LINE
8
annotation
62
1
39
211
10
7.058436
20
7.152917
11
7.066916
21
7.146653
0
LINE
8
annotation
62
1
39
211
10
7.066916
20
7.146653
11
7.075898
21
7.140983
0
LINE
8
annotation
62
1
39
211
10
7.075898
20
7.140983
11
7.085359
21
7.135934
0
LINE
8
frame
62
5
39
2
10
0.000000
20
0.000000
11
8.500000
21
0.000000
0
LINE
8
frame
62
5
39
2
10
8.500000
20
0.000000
11
8.500000
21
11.000000
0
LINE
8
frame
62
5
39
2
10
8.500000
20
11.000000
11
0.000000
21
11.000000
0
LINE
8
frame
62
5
39
2
10
0.000000
20
11.000000
11
0.000000
21
0.000000
0
ENDSEC
0
EOF
