0
SECTION
2
HEADER
9
$ACADVER
1
AC1009
0
ENDSEC
0
SECTION
2
TABLES
0
TABLE
2
VPORT
70
1
0
VPORT
2
ACTIVE
70
0
10
0.0
20
0.0
11
0.0
21
0.0
12
0.0
22
0.0
13
0.0
23
0.0
14
0.0
24
0.0
15
0.0
25
0.0
16
0.0
26
0.0
36
0.0
17
0.0
27
0.0
37
0.0
40
0.0
41
0.0
42
0.0
43
0.0
44
0.0
50
0.0
51
0.0
71
0
72
1000
73
1
74
3
75
0
76
0
77
0
78
0
0
ENDTAB
0
ENDSEC
0
SECTION
2
ENTITIES
0
LINE
8
hole
62
5
39
2
10
1.556858
20
2.740952
11
1.579358
21
2.740952
0
LINE
8
hole
62
5
39
2
10
1.579358
20
2.740952
11
1.579358
21
2.763452
0
LINE
8
hole
62
5
39
2
10
1.579358
20
2.763452
11
1.556858
21
2.763452
0
LINE
8
hole
62
5
39
2
10
1.556858
20
2.763452
11
1.556858
21
2.740952
0
LINE
8
hole
62
5
39
2
10
1.538108
20
0.626876
11
1.560608
21
0.626876
0
LINE
8
hole
62
5
39
2
10
1.560608
20
0.626876
11
1.560608
21
0.649376
0
LINE
8
hole
62
5
39
2
10
1.560608
20
0.649376
11
1.538108
21
0.649376
0
LINE
8
hole
62
5
39
2
10
1.538108
20
0.649376
11
1.538108
21
0.626876
0
LINE
8
hole
62
5
39
2
10
2.418702
20
1.666298
11
2.441202
21
1.666298
0
LINE
8
hole
62
5
39
2
10
2.441202
20
1.666298
11
2.441202
21
1.688798
0
LINE
8
hole
62
5
39
2
10
2.441202
20
1.688798
11
2.418702
21
1.688798
0
LINE
8
hole
62
5
39
2
10
2.418702
20
1.688798
11
2.418702
21
1.666298
0
LINE
8
hole
62
5
39
2
10
0.492078
20
1.666298
11
0.514578
21
1.666298
0
LINE
8
hole
62
5
39
2
10
0.514578
20
1.666298
11
0.514578
21
1.688798
0
LINE
8
hole
62
5
39
2
10
0.514578
20
1.688798
11
0.492078
21
1.688798
0
LINE
8
hole
62
5
39
2
10
0.492078
20
1.688798
11
0.492078
21
1.666298
0
LINE
8
boundary
62
5
39
2
10
2.010165
20
0.262500
11
2.608476
21
0.561249
0
LINE
8
boundary
62
5
39
2
10
2.608476
20
0.561249
11
2.670780
21
2.732136
0
LINE
8
boundary
62
5
39
2
10
2.670780
20
2.732136
11
2.010165
21
3.092595
0
LINE
8
boundary
62
5
39
2
10
2.010165
20
3.092595
11
0.291729
21
2.234546
0
LINE
8
boundary
62
5
39
2
10
0.291729
20
2.234546
11
0.262500
21
1.216097
0
LINE
8
boundary
62
5
39
2
10
0.262500
20
1.216097
11
2.010165
21
0.262500
0
LINE
8
annotation
62
1
39
211
10
1.568108
20
2.752202
11
1.568108
21
2.808452
0
LINE
8
annotation
62
1
39
211
10
1.549358
20
0.638126
11
1.605608
21
0.638126
0
LINE
8
annotation
62
1
39
211
10
2.429952
20
1.677548
11
2.429952
21
1.733798
0
LINE
8
annotation
62
1
39
211
10
2.429952
20
1.677548
11
2.429952
21
1.733798
0
LINE
8
annotation
62
1
39
211
10
2.429952
20
1.733798
11
2.429952
21
1.677548
0
LINE
8
annotation
62
1
39
211
10
2.429952
20
1.677548
11
2.486202
21
1.677548
0
LINE
8
annotation
62
1
39
211
10
0.503328
20
1.677548
11
0.503328
21
1.621298
0
LINE
8
annotation
62
1
39
211
10
1.742850
20
1.161357
11
1.742850
21
2.282187
0
LINE
8
annotation
62
1
39
211
10
1.742850
20
2.282187
11
1.493676
21
2.032942
0
LINE
8
annotation
62
1
39
211
10
2.412336
20
1.161357
11
2.412336
21
2.282187
0
LINE
8
annotation
62
1
39
211
10
2.412336
20
2.282187
11
2.163162
21
2.032942
0
LINE
8
hole
62
5
39
2
10
3.025358
20
1.666298
11
3.047858
21
1.666298
0
LINE
8
hole
62
5
39
2
10
3.047858
20
1.666298
11
3.047858
21
1.688798
0
LINE
8
hole
62
5
39
2
10
3.047858
20
1.688798
11
3.025358
21
1.688798
0
LINE
8
hole
62
5
39
2
10
3.025358
20
1.688798
11
3.025358
21
1.666298
0
LINE
8
hole
62
5
39
2
10
4.137339
20
0.800857
11
4.159839
21
0.800857
0
LINE
8
hole
62
5
39
2
10
4.159839
20
0.800857
11
4.159839
21
0.823357
0
LINE
8
hole
62
5
39
2
10
4.159839
20
0.823357
11
4.137339
21
0.823357
0
LINE
8
hole
62
5
39
2
10
4.137339
20
0.823357
11
4.137339
21
0.800857
0
LINE
8
hole
62
5
39
2
10
4.160523
20
2.581242
11
4.183023
21
2.581242
0
LINE
8
hole
62
5
39
2
10
4.183023
20
2.581242
11
4.183023
21
2.603742
0
LINE
8
hole
62
5
39
2
10
4.183023
20
2.603742
11
4.160523
21
2.603742
0
LINE
8
hole
62
5
39
2
10
4.160523
20
2.603742
11
4.160523
21
2.581242
0
LINE
8
hole
62
5
39
2
10
4.951983
20
1.666298
11
4.974483
21
1.666298
0
LINE
8
hole
62
5
39
2
10
4.974483
20
1.666298
11
4.974483
21
1.688798
0
LINE
8
hole
62
5
39
2
10
4.974483
20
1.688798
11
4.951983
21
1.688798
0
LINE
8
hole
62
5
39
2
10
4.951983
20
1.688798
11
4.951983
21
1.666298
0
LINE
8
boundary
62
5
39
2
10
4.938735
20
0.262500
11
5.129729
21
0.357867
0
LINE
8
boundary
62
5
39
2
10
5.129729
20
0.357867
11
5.204061
21
2.947823
0
LINE
8
boundary
62
5
39
2
10
5.204061
20
2.947823
11
4.938735
21
3.092595
0
LINE
8
boundary
62
5
39
2
10
4.938735
20
3.092595
11
2.812983
21
2.031164
0
LINE
8
boundary
62
5
39
2
10
2.812983
20
2.031164
11
2.795780
21
1.431783
0
LINE
8
boundary
62
5
39
2
10
2.795780
20
1.431783
11
4.938735
21
0.262500
0
LINE
8
annotation
62
1
39
211
10
4.171773
20
2.592492
11
4.171773
21
2.648742
0
LINE
8
annotation
62
1
39
211
10
4.171773
20
2.592492
11
4.171773
21
2.648742
0
LINE
8
annotation
62
1
39
211
10
4.171773
20
2.648742
11
4.171773
21
2.592492
0
LINE
8
annotation
62
1
39
211
10
4.171773
20
2.592492
11
4.171773
21
2.536242
0
LINE
8
annotation
62
1
39
211
10
4.148589
20
0.812107
11
4.204839
21
0.812107
0
LINE
8
annotation
62
1
39
211
10
4.148589
20
0.812107
11
4.204839
21
0.812107
0
LINE
8
annotation
62
1
39
211
10
4.204839
20
0.812107
11
4.148589
21
0.812107
0
LINE
8
annotation
62
1
39
211
10
4.148589
20
0.812107
11
4.148589
21
0.755857
0
LINE
8
annotation
62
1
39
211
10
4.963233
20
1.677548
11
4.963233
21
1.733798
0
LINE
8
annotation
62
1
39
211
10
3.036608
20
1.677548
11
3.092858
21
1.677548
0
LINE
8
annotation
62
1
39
211
10
4.243070
20
1.314198
11
4.243070
21
2.129347
0
LINE
8
annotation
62
1
39
211
10
4.243070
20
2.129347
11
4.061852
21
1.948077
0
LINE
8
annotation
62
1
39
211
10
4.548725
20
1.314223
11
4.729739
21
1.314223
0
LINE
8
annotation
62
1
39
211
10
4.729739
20
1.314223
11
4.729739
21
1.314223
0
LINE
8
annotation
62
1
39
211
10
4.729739
20
1.314223
11
4.762295
21
1.317144
0
LINE
8
annotation
62
1
39
211
10
4.762295
20
1.317144
11
4.792928
21
1.325561
0
LINE
8
annotation
62
1
39
211
10
4.792928
20
1.325561
11
4.821131
21
1.338957
0
LINE
8
annotation
62
1
39
211
10
4.821131
20
1.338957
11
4.846392
21
1.356817
0
LINE
8
annotation
62
1
39
211
10
4.846392
20
1.356817
11
4.868203
21
1.378624
0
LINE
8
annotation
62
1
39
211
10
4.868203
20
1.378624
11
4.886054
21
1.403860
0
LINE
8
annotation
62
1
39
211
10
4.886054
20
1.403860
11
4.899436
21
1.432010
0
LINE
8
annotation
62
1
39
211
10
4.899436
20
1.432010
11
4.907838
21
1.462555
0
LINE
8
annotation
62
1
39
211
10
4.907838
20
1.462555
11
4.910752
21
1.494981
0
LINE
8
annotation
62
1
39
211
10
4.910752
20
1.494981
11
4.910752
21
1.585616
0
LINE
8
annotation
62
1
39
211
10
4.910752
20
1.585616
11
4.910752
21
1.585616
0
LINE
8
annotation
62
1
39
211
10
4.910752
20
1.585616
11
4.907838
21
1.618028
0
LINE
8
annotation
62
1
39
211
10
4.907838
20
1.618028
11
4.899436
21
1.648567
0
LINE
8
annotation
62
1
39
211
10
4.899436
20
1.648567
11
4.886054
21
1.676714
0
LINE
8
annotation
62
1
39
211
10
4.886054
20
1.676714
11
4.868203
21
1.701952
0
LINE
8
annotation
62
1
39
211
10
4.868203
20
1.701952
11
4.846392
21
1.723763
0
LINE
8
annotation
62
1
39
211
10
4.846392
20
1.723763
11
4.821131
21
1.741628
0
LINE
8
annotation
62
1
39
211
10
4.821131
20
1.741628
11
4.792928
21
1.755030
0
LINE
8
annotation
62
1
39
211
10
4.792928
20
1.755030
11
4.762295
21
1.763452
0
LINE
8
annotation
62
1
39
211
10
4.762295
20
1.763452
11
4.729739
21
1.766374
0
LINE
8
annotation
62
1
39
211
10
4.729739
20
1.766374
11
4.639104
21
1.766374
0
LINE
8
annotation
62
1
39
211
10
4.639104
20
1.766374
11
4.729739
21
1.766374
0
LINE
8
annotation
62
1
39
211
10
4.729739
20
1.766374
11
4.729739
21
1.766374
0
LINE
8
annotation
62
1
39
211
10
4.729739
20
1.766374
11
4.762295
21
1.769297
0
LINE
8
annotation
62
1
39
211
10
4.762295
20
1.769297
11
4.792928
21
1.777723
0
LINE
8
annotation
62
1
39
211
10
4.792928
20
1.777723
11
4.821131
21
1.791138
0
LINE
8
annotation
62
1
39
211
10
4.821131
20
1.791138
11
4.846392
21
1.809030
0
LINE
8
annotation
62
1
39
211
10
4.846392
20
1.809030
11
4.868203
21
1.830883
0
LINE
8
annotation
62
1
39
211
10
4.868203
20
1.830883
11
4.886054
21
1.856185
0
LINE
8
annotation
62
1
39
211
10
4.886054
20
1.856185
11
4.899436
21
1.884421
0
LINE
8
annotation
62
1
39
211
10
4.899436
20
1.884421
11
4.907838
21
1.915078
0
LINE
8
annotation
62
1
39
211
10
4.907838
20
1.915078
11
4.910752
21
1.947643
0
LINE
8
annotation
62
1
39
211
10
4.910752
20
1.947643
11
4.910752
21
1.947643
0
LINE
8
annotation
62
1
39
211
10
4.910752
20
1.947643
11
4.907838
21
1.980055
0
LINE
8
annotation
62
1
39
211
10
4.907838
20
1.980055
11
4.899436
21
2.010594
0
LINE
8
annotation
62
1
39
211
10
4.899436
20
2.010594
11
4.886054
21
2.038741
0
LINE
8
annotation
62
1
39
211
10
4.886054
20
2.038741
11
4.868203
21
2.063979
0
LINE
8
annotation
62
1
39
211
10
4.868203
20
2.063979
11
4.846392
21
2.085790
0
LINE
8
annotation
62
1
39
211
10
4.846392
20
2.085790
11
4.821131
21
2.103655
0
LINE
8
annotation
62
1
39
211
10
4.821131
20
2.103655
11
4.792928
21
2.117058
0
LINE
8
annotation
62
1
39
211
10
4.792928
20
2.117058
11
4.762295
21
2.125479
0
LINE
8
annotation
62
1
39
211
10
4.762295
20
2.125479
11
4.729739
21
2.128401
0
LINE
8
annotation
62
1
39
211
10
4.729739
20
2.128401
11
4.548725
21
2.128401
0
LINE
8
hole
62
5
39
2
10
6.468974
20
2.223922
11
6.491474
21
2.223922
0
LINE
8
hole
62
5
39
2
10
6.491474
20
2.223922
11
6.491474
21
2.246422
0
LINE
8
hole
62
5
39
2
10
6.491474
20
2.246422
11
6.468974
21
2.246422
0
LINE
8
hole
62
5
39
2
10
6.468974
20
2.246422
11
6.468974
21
2.223922
0
LINE
8
hole
62
5
39
2
10
6.220902
20
1.189716
11
6.243402
21
1.189716
0
LINE
8
hole
62
5
39
2
10
6.243402
20
1.189716
11
6.243402
21
1.212216
0
LINE
8
hole
62
5
39
2
10
6.243402
20
1.212216
11
6.220902
21
1.212216
0
LINE
8
hole
62
5
39
2
10
6.220902
20
1.212216
11
6.220902
21
1.189716
0
LINE
8
hole
62
5
39
2
10
5.594482
20
1.626742
11
5.616982
21
1.626742
0
LINE
8
hole
62
5
39
2
10
5.616982
20
1.626742
11
5.616982
21
1.649242
0
LINE
8
hole
62
5
39
2
10
5.616982
20
1.649242
11
5.594482
21
1.649242
0
LINE
8
hole
62
5
39
2
10
5.594482
20
1.649242
11
5.594482
21
1.626742
0
LINE
8
hole
62
5
39
2
10
7.521106
20
1.626742
11
7.543606
21
1.626742
0
LINE
8
hole
62
5
39
2
10
7.543606
20
1.626742
11
7.543606
21
1.649242
0
LINE
8
hole
62
5
39
2
10
7.543606
20
1.649242
11
7.521106
21
1.649242
0
LINE
8
hole
62
5
39
2
10
7.521106
20
1.649242
11
7.521106
21
1.626742
0
LINE
8
boundary
62
5
39
2
10
5.340249
20
1.881676
11
5.329061
21
1.491830
0
LINE
8
boundary
62
5
39
2
10
5.329061
20
1.491830
11
7.582063
21
0.262500
0
LINE
8
boundary
62
5
39
2
10
7.582063
20
0.262500
11
7.669661
21
0.649676
0
LINE
8
boundary
62
5
39
2
10
7.669661
20
0.649676
11
7.737341
21
3.007869
0
LINE
8
boundary
62
5
39
2
10
7.737341
20
3.007869
11
7.669661
21
3.044798
0
LINE
8
boundary
62
5
39
2
10
7.669661
20
3.044798
11
5.340249
21
1.881676
0
LINE
8
annotation
62
1
39
211
10
6.359809
20
1.131273
11
6.630539
21
2.327882
0
LINE
8
annotation
62
1
39
211
10
7.532356
20
1.637992
11
7.532356
21
1.694242
0
LINE
8
annotation
62
1
39
211
10
5.605732
20
1.637992
11
5.661982
21
1.637992
0
LINE
8
annotation
62
1
39
211
10
6.480224
20
2.235172
11
6.480224
21
2.291422
0
LINE
8
annotation
62
1
39
211
10
6.480224
20
2.235172
11
6.480224
21
2.291422
0
LINE
8
annotation
62
1
39
211
10
6.480224
20
2.291422
11
6.480224
21
2.235172
0
LINE
8
annotation
62
1
39
211
10
6.480224
20
2.235172
11
6.536474
21
2.235172
0
LINE
8
annotation
62
1
39
211
10
6.232152
20
1.200966
11
6.232152
21
1.144716
0
LINE
8
annotation
62
1
39
211
10
6.676229
20
1.259567
11
6.676229
21
1.960776
0
LINE
8
annotation
62
1
39
211
10
6.676229
20
1.960776
11
6.520341
21
1.804844
0
LINE
8
annotation
62
1
39
211
10
7.328506
20
1.415454
11
6.939160
21
1.415454
0
LINE
8
annotation
62
1
39
211
10
6.939160
20
1.415454
11
7.094652
21
1.960776
0
LINE
8
annotation
62
1
39
211
10
7.211799
20
1.259567
11
7.211799
21
1.570990
0
LINE
8
hole
62
5
39
2
10
2.025011
20
4.411636
11
2.047511
21
4.411636
0
LINE
8
hole
62
5
39
2
10
2.047511
20
4.411636
11
2.047511
21
4.434136
0
LINE
8
hole
62
5
39
2
10
2.047511
20
4.434136
11
2.025011
21
4.434136
0
LINE
8
hole
62
5
39
2
10
2.025011
20
4.434136
11
2.025011
21
4.411636
0
LINE
8
hole
62
5
39
2
10
2.228843
20
4.432642
11
2.251343
21
4.432642
0
LINE
8
hole
62
5
39
2
10
2.251343
20
4.432642
11
2.251343
21
4.455142
0
LINE
8
hole
62
5
39
2
10
2.251343
20
4.455142
11
2.228843
21
4.455142
0
LINE
8
hole
62
5
39
2
10
2.228843
20
4.455142
11
2.228843
21
4.432642
0
LINE
8
hole
62
5
39
2
10
1.177154
20
3.785836
11
1.199654
21
3.785836
0
LINE
8
hole
62
5
39
2
10
1.199654
20
3.785836
11
1.199654
21
3.808336
0
LINE
8
hole
62
5
39
2
10
1.199654
20
3.808336
11
1.177154
21
3.808336
0
LINE
8
hole
62
5
39
2
10
1.177154
20
3.808336
11
1.177154
21
3.785836
0
LINE
8
hole
62
5
39
2
10
1.266814
20
5.070094
11
1.289314
21
5.070094
0
LINE
8
hole
62
5
39
2
10
1.289314
20
5.070094
11
1.289314
21
5.092594
0
LINE
8
hole
62
5
39
2
10
1.289314
20
5.092594
11
1.266814
21
5.092594
0
LINE
8
hole
62
5
39
2
10
1.266814
20
5.092594
11
1.266814
21
5.070094
0
LINE
8
boundary
62
5
39
2
10
0.773288
20
5.475241
11
0.262500
21
3.217595
0
LINE
8
boundary
62
5
39
2
10
0.262500
20
3.217595
11
2.412637
21
4.291202
0
LINE
8
boundary
62
5
39
2
10
2.412637
20
4.291202
11
2.420819
21
4.576281
0
LINE
8
boundary
62
5
39
2
10
2.420819
20
4.576281
11
0.773288
21
5.475241
0
LINE
8
annotation
62
1
39
211
10
2.240093
20
4.443892
11
2.240093
21
4.500142
0
LINE
8
annotation
62
1
39
211
10
2.036261
20
4.422886
11
2.092511
21
4.422886
0
LINE
8
annotation
62
1
39
211
10
1.278064
20
5.081344
11
1.278064
21
5.137594
0
LINE
8
annotation
62
1
39
211
10
1.278064
20
5.081344
11
1.278064
21
5.137594
0
LINE
8
annotation
62
1
39
211
10
1.278064
20
5.137594
11
1.278064
21
5.081344
0
LINE
8
annotation
62
1
39
211
10
1.278064
20
5.081344
11
1.334314
21
5.081344
0
LINE
8
annotation
62
1
39
211
10
1.188404
20
3.797086
11
1.188404
21
3.740836
0
LINE
8
annotation
62
1
39
211
10
1.169265
20
4.045832
11
0.808266
21
4.045832
0
LINE
8
annotation
62
1
39
211
10
0.808266
20
4.045832
11
1.141841
21
4.582845
0
LINE
8
annotation
62
1
39
211
10
1.141841
20
4.582845
11
1.141841
21
4.582845
0
LINE
8
annotation
62
1
39
211
10
1.141841
20
4.582845
11
1.142239
21
4.583338
0
LINE
8
annotation
62
1
39
211
10
1.142239
20
4.583338
11
1.142622
21
4.583836
0
LINE
8
annotation
62
1
39
211
10
1.142622
20
4.583836
11
1.142990
21
4.584342
0
LINE
8
annotation
62
1
39
211
10
1.142990
20
4.584342
11
1.143348
21
4.584861
0
LINE
8
annotation
62
1
39
211
10
1.143348
20
4.584861
11
1.143696
21
4.585396
0
LINE
8
annotation
62
1
39
211
10
1.143696
20
4.585396
11
1.144038
21
4.585952
0
LINE
8
annotation
62
1
39
211
10
1.144038
20
4.585952
11
1.144377
21
4.586534
0
LINE
8
annotation
62
1
39
211
10
1.144377
20
4.586534
11
1.144714
21
4.587145
0
LINE
8
annotation
62
1
39
211
10
1.144714
20
4.587145
11
1.145052
21
4.587789
0
LINE
8
annotation
62
1
39
211
10
1.145052
20
4.587789
11
1.145052
21
4.587789
0
LINE
8
annotation
62
1
39
211
10
1.145052
20
4.587789
11
1.158825
21
4.617362
0
LINE
8
annotation
62
1
39
211
10
1.158825
20
4.617362
11
1.166871
21
4.648016
0
LINE
8
annotation
62
1
39
211
10
1.166871
20
4.648016
11
1.169387
21
4.679060
0
LINE
8
annotation
62
1
39
211
10
1.169387
20
4.679060
11
1.166571
21
4.709800
0
LINE
8
annotation
62
1
39
211
10
1.166571
20
4.709800
11
1.158619
21
4.739544
0
LINE
8
annotation
62
1
39
211
10
1.158619
20
4.739544
11
1.145728
21
4.767600
0
LINE
8
annotation
62
1
39
211
10
1.145728
20
4.767600
11
1.128096
21
4.793274
0
LINE
8
annotation
62
1
39
211
10
1.128096
20
4.793274
11
1.105920
21
4.815874
0
LINE
8
annotation
62
1
39
211
10
1.105920
20
4.815874
11
1.079397
21
4.834708
0
LINE
8
annotation
62
1
39
211
10
1.079397
20
4.834708
11
1.079397
21
4.834708
0
LINE
8
annotation
62
1
39
211
10
1.079397
20
4.834708
11
1.049743
21
4.848286
0
LINE
8
annotation
62
1
39
211
10
1.049743
20
4.848286
11
1.019041
21
4.856208
0
LINE
8
annotation
62
1
39
211
10
1.019041
20
4.856208
11
0.987980
21
4.858653
0
LINE
8
annotation
62
1
39
211
10
0.987980
20
4.858653
11
0.957244
21
4.855799
0
LINE
8
annotation
62
1
39
211
10
0.957244
20
4.855799
11
0.927521
21
4.847825
0
LINE
8
annotation
62
1
39
211
10
0.927521
20
4.847825
11
0.899496
21
4.834908
0
LINE
8
annotation
62
1
39
211
10
0.899496
20
4.834908
11
0.873857
21
4.817228
0
LINE
8
annotation
62
1
39
211
10
0.873857
20
4.817228
11
0.851289
21
4.794962
0
LINE
8
annotation
62
1
39
211
10
0.851289
20
4.794962
11
0.832478
21
4.768289
0
LINE
8
annotation
62
1
39
211
10
0.832478
20
4.768289
11
0.808776
21
4.722820
0
LINE
8
frame
62
5
39
2
10
0.000000
20
0.000000
11
8.500000
21
0.000000
0
LINE
8
frame
62
5
39
2
10
8.500000
20
0.000000
11
8.500000
21
11.000000
0
LINE
8
frame
62
5
39
2
10
8.500000
20
11.000000
11
0.000000
21
11.000000
0
LINE
8
frame
62
5
39
2
10
0.000000
20
11.000000
11
0.000000
21
0.000000
0
ENDSEC
0
EOF
